<svg xmlns="http://www.w3.org/2000/svg" width="1920" height="1080" viewBox="0 0 1920 1080"><rect width="1920" height="1080" fill="#0A1F44"/><polyline points="-69.6,515.2 112.8,545.5 295.3,506.4 477.7,523.5 660.2,535.2 842.6,504.9 1025.1,546.4 1207.5,512.5 1389.9,512.4 1572.4,542.6 1754.8,538.2 1937.3,503.3 2119.7,554.1" fill="none" stroke="#FAFCFF" stroke-opacity="0.1" stroke-width="1.5"/><polyline points="-69.6,639.6 112.8,581.2 295.3,634.6 477.7,609.0 660.2,599.9 842.6,651.4 1025.1,566.6 1207.5,574.9 1389.9,588.7 1572.4,588.6 1754.8,639.6 1937.3,654.1 2119.7,628.3" fill="none" stroke="#FAFCFF" stroke-opacity="0.13" stroke-width="2.5"/><polyline points="-69.6,742.1 112.8,810.8 295.3,743.7 477.7,754.6 660.2,789.5 842.6,817.5 1025.1,717.3 1207.5,810.4 1389.9,731.9 1572.4,788.3 1754.8,727.8 1937.3,803.0 2119.7,723.7" fill="none" stroke="#FAFCFF" stroke-opacity="0.16" stroke-width="3.5"/><polyline points="-69.6,956.3 112.8,967.6 295.3,1013.0 477.7,1060.3 660.2,1064.1 842.6,949.9 1025.1,1040.9 1207.5,1082.9 1389.9,1026.9 1572.4,1080.0 1754.8,983.3 1937.3,1020.4 2119.7,1069.2" fill="none" stroke="#FAFCFF" stroke-opacity="0.19" stroke-width="4.5"/><polyline points="-69.6,1351.4 112.8,1276.9 295.3,1380.3 477.7,1352.4 660.2,1420.5 842.6,1361.1 1025.1,1317.9 1207.5,1360.3 1389.9,1283.2 1572.4,1298.3 1754.8,1360.4 1937.3,1309.5 2119.7,1265.4" fill="none" stroke="#FAFCFF" stroke-opacity="0.22" stroke-width="5.5"/><circle cx="1178.9" cy="978.3" r="2.3210280182890184" fill="#3B82F6" fill-opacity="0.35"/><circle cx="176.8" cy="676.6" r="2.3170634099360594" fill="#3B82F6" fill-opacity="0.65"/><circle cx="1176.5" cy="773.0" r="6.480183890741217" fill="#FF6A1A" fill-opacity="0.65"/><circle cx="1340.3" cy="829.8" r="2.6493478507956674" fill="#3B82F6" fill-opacity="0.75"/><circle cx="1691.2" cy="911.6" r="3.9773513695151315" fill="#FF6A1A" fill-opacity="0.74"/><circle cx="434.0" cy="649.9" r="6.317171844042306" fill="#3B82F6" fill-opacity="0.52"/><circle cx="1117.3" cy="867.4" r="2.786192456944856" fill="#3B82F6" fill-opacity="0.70"/><circle cx="228.9" cy="981.1" r="5.123000320000161" fill="#3B82F6" fill-opacity="0.57"/><circle cx="373.4" cy="506.8" r="4.347527907137927" fill="#3B82F6" fill-opacity="0.71"/><circle cx="1584.0" cy="931.1" r="5.061601429508949" fill="#3B82F6" fill-opacity="0.45"/><circle cx="495.5" cy="1034.5" r="4.326542160358767" fill="#FF6A1A" fill-opacity="0.72"/><circle cx="1381.6" cy="1050.3" r="6.124945529250246" fill="#FF6A1A" fill-opacity="0.66"/><circle cx="2008.2" cy="707.9" r="3.9174075987061907" fill="#FF6A1A" fill-opacity="0.62"/><circle cx="997.4" cy="726.2" r="6.337662067343937" fill="#3B82F6" fill-opacity="0.74"/><circle cx="1696.1" cy="839.6" r="4.329050965132805" fill="#3B82F6" fill-opacity="0.74"/><circle cx="1225.3" cy="877.7" r="2.6567772112626664" fill="#3B82F6" fill-opacity="0.41"/><circle cx="2101.3" cy="1026.5" r="2.696246717774427" fill="#FF6A1A" fill-opacity="0.69"/><circle cx="1169.7" cy="865.0" r="2.4188707970403422" fill="#3B82F6" fill-opacity="0.59"/><g opacity="0.46"><line x1="0" y1="842.4" x2="1920" y2="561.6" stroke="#FAFCFF" stroke-opacity="0.5" stroke-width="6"/><line x1="-76" y1="839" x2="-76" y2="867" stroke="#3B82F6" stroke-opacity="0.8" stroke-width="3"/><line x1="4" y1="828" x2="4" y2="856" stroke="#3B82F6" stroke-opacity="0.8" stroke-width="3"/><line x1="84" y1="816" x2="84" y2="844" stroke="#3B82F6" stroke-opacity="0.8" stroke-width="3"/><line x1="164" y1="804" x2="164" y2="832" stroke="#3B82F6" stroke-opacity="0.8" stroke-width="3"/><line x1="244" y1="793" x2="244" y2="821" stroke="#3B82F6" stroke-opacity="0.8" stroke-width="3"/><line x1="324" y1="781" x2="324" y2="809" stroke="#3B82F6" stroke-opacity="0.8" stroke-width="3"/><line x1="404" y1="769" x2="404" y2="797" stroke="#3B82F6" stroke-opacity="0.8" stroke-width="3"/><line x1="484" y1="758" x2="484" y2="786" stroke="#3B82F6" stroke-opacity="0.8" stroke-width="3"/><line x1="564" y1="746" x2="564" y2="774" stroke="#3B82F6" stroke-opacity="0.8" stroke-width="3"/><line x1="644" y1="734" x2="644" y2="762" stroke="#3B82F6" stroke-opacity="0.8" stroke-width="3"/><line x1="724" y1="722" x2="724" y2="750" stroke="#3B82F6" stroke-opacity="0.8" stroke-width="3"/><line x1="804" y1="711" x2="804" y2="739" stroke="#3B82F6" stroke-opacity="0.8" stroke-width="3"/><line x1="884" y1="699" x2="884" y2="727" stroke="#3B82F6" stroke-opacity="0.8" stroke-width="3"/><line x1="964" y1="687" x2="964" y2="715" stroke="#3B82F6" stroke-opacity="0.8" stroke-width="3"/><line x1="1044" y1="676" x2="1044" y2="704" stroke="#3B82F6" stroke-opacity="0.8" stroke-width="3"/><line x1="1124" y1="664" x2="1124" y2="692" stroke="#3B82F6" stroke-opacity="0.8" stroke-width="3"/><line x1="1204" y1="652" x2="1204" y2="680" stroke="#3B82F6" stroke-opacity="0.8" stroke-width="3"/><line x1="1284" y1="641" x2="1284" y2="669" stroke="#3B82F6" stroke-opacity="0.8" stroke-width="3"/><line x1="1364" y1="629" x2="1364" y2="657" stroke="#3B82F6" stroke-opacity="0.8" stroke-width="3"/><line x1="1444" y1="617" x2="1444" y2="645" stroke="#3B82F6" stroke-opacity="0.8" stroke-width="3"/><line x1="1524" y1="605" x2="1524" y2="633" stroke="#3B82F6" stroke-opacity="0.8" stroke-width="3"/><line x1="1604" y1="594" x2="1604" y2="622" stroke="#3B82F6" stroke-opacity="0.8" stroke-width="3"/><line x1="1684" y1="582" x2="1684" y2="610" stroke="#3B82F6" stroke-opacity="0.8" stroke-width="3"/><line x1="1764" y1="570" x2="1764" y2="598" stroke="#3B82F6" stroke-opacity="0.8" stroke-width="3"/><line x1="1844" y1="559" x2="1844" y2="587" stroke="#3B82F6" stroke-opacity="0.8" stroke-width="3"/><line x1="1924" y1="547" x2="1924" y2="575" stroke="#3B82F6" stroke-opacity="0.8" stroke-width="3"/><line x1="2004" y1="535" x2="2004" y2="563" stroke="#3B82F6" stroke-opacity="0.8" stroke-width="3"/></g></svg>