<svg xmlns="http://www.w3.org/2000/svg" width="1920" height="1080" viewBox="0 0 1920 1080"><rect width="1920" height="1080" fill="#0A1F44"/><polyline points="-1292.2,205.0 -904.7,269.5 -517.2,186.4 -129.7,222.8 257.8,247.6 645.3,183.2 1032.8,271.3 1420.3,199.3 1807.8,199.1 2195.3,263.2 2582.8,254.1 2970.3,179.7 3357.8,287.8" fill="none" stroke="#FAFCFF" stroke-opacity="0" stroke-width="1.5"/><polyline points="-1292.2,469.3 -904.7,345.4 -517.2,458.7 -129.7,404.3 257.8,385.0 645.3,494.5 1032.8,314.4 1420.3,331.9 1807.8,361.1 2195.3,361.0 2582.8,469.3 2970.3,500.1 3357.8,445.4" fill="none" stroke="#FAFCFF" stroke-opacity="0" stroke-width="2.5"/><polyline points="-1292.2,687.1 -904.7,832.9 -517.2,690.5 -129.7,713.6 257.8,787.7 645.3,847.1 1032.8,634.4 1420.3,832.2 1807.8,665.4 2195.3,785.1 2582.8,656.6 2970.3,816.3 3357.8,648.0" fill="none" stroke="#FAFCFF" stroke-opacity="0" stroke-width="3.5"/><polyline points="-1292.2,1142.1 -904.7,1166.0 -517.2,1262.5 -129.7,1362.8 257.8,1371.0 645.3,1128.4 1032.8,1321.6 1420.3,1410.9 1807.8,1291.8 2195.3,1404.7 2582.8,1199.3 2970.3,1278.0 3357.8,1381.8" fill="none" stroke="#FAFCFF" stroke-opacity="0" stroke-width="4.5"/><polyline points="-1292.2,1981.1 -904.7,1823.0 -517.2,2042.6 -129.7,1983.2 257.8,2127.9 645.3,2001.6 1032.8,1909.9 1420.3,2000.1 1807.8,1836.2 2195.3,1868.4 2582.8,2000.2 2970.3,1892.1 3357.8,1798.4" fill="none" stroke="#FAFCFF" stroke-opacity="0" stroke-width="5.5"/><g opacity="1.00"><rect x="422.4" y="216" width="1075.2" height="540" fill="none" stroke="#FAFCFF" stroke-opacity="0.6" stroke-width="2"/><rect x="442.4" y="236" width="318.40000000000003" height="189" fill="#3B82F6" fill-opacity="0.14"/><rect x="800.8" y="236" width="318.40000000000003" height="189" fill="#3B82F6" fill-opacity="0.2"/><rect x="1159.2" y="236" width="318.40000000000003" height="189" fill="#3B82F6" fill-opacity="0.26"/></g><g opacity="1.00"><rect x="460.79999999999995" y="324" width="517.9707771018149" height="10" fill="#3B82F6" fill-opacity="0.9"/><rect x="460.79999999999995" y="358" width="559.0618132464589" height="10" fill="#FAFCFF" fill-opacity="0.4"/><rect x="460.79999999999995" y="392" width="352.0004768371582" height="10" fill="#FAFCFF" fill-opacity="0.4"/><rect x="460.79999999999995" y="426" width="493.0137858130038" height="10" fill="#3B82F6" fill-opacity="0.9"/><rect x="460.79999999999995" y="460" width="575.1368051692843" height="10" fill="#FAFCFF" fill-opacity="0.4"/><rect x="460.79999999999995" y="494" width="457.9308180771768" height="10" fill="#FAFCFF" fill-opacity="0.4"/><rect x="460.79999999999995" y="528" width="114.49703146877175" height="10" fill="#3B82F6" fill-opacity="0.9"/></g></svg>