<svg xmlns="http://www.w3.org/2000/svg" width="1920" height="1080" viewBox="0 0 1920 1080"><rect width="1920" height="1080" fill="#0A1F44"/><polyline points="-24.9,530.6 147.3,559.3 319.5,522.3 491.7,538.5 663.9,549.6 836.2,520.9 1008.4,560.1 1180.6,528.1 1352.8,528.0 1525.0,556.5 1697.2,552.4 1869.5,519.4 2041.7,567.4" fill="none" stroke="#FAFCFF" stroke-opacity="0.1" stroke-width="1.5"/><polyline points="-24.9,648.1 147.3,593.0 319.5,643.4 491.7,619.2 663.9,610.6 836.2,659.3 1008.4,579.2 1180.6,587.0 1352.8,600.0 1525.0,600.0 1697.2,648.1 1869.5,661.8 2041.7,637.4" fill="none" stroke="#FAFCFF" stroke-opacity="0.13" stroke-width="2.5"/><polyline points="-24.9,744.9 147.3,809.7 319.5,746.4 491.7,756.7 663.9,789.6 836.2,816.0 1008.4,721.5 1180.6,809.3 1352.8,735.2 1525.0,788.4 1697.2,731.3 1869.5,802.3 2041.7,727.5" fill="none" stroke="#FAFCFF" stroke-opacity="0.16" stroke-width="3.5"/><polyline points="-24.9,947.1 147.3,957.7 319.5,1000.6 491.7,1045.2 663.9,1048.8 836.2,941.0 1008.4,1026.9 1180.6,1066.6 1352.8,1013.6 1525.0,1063.8 1697.2,972.5 1869.5,1007.5 2041.7,1053.6" fill="none" stroke="#FAFCFF" stroke-opacity="0.19" stroke-width="4.5"/><polyline points="-24.9,1320.0 147.3,1249.7 319.5,1347.3 491.7,1320.9 663.9,1385.2 836.2,1329.1 1008.4,1288.4 1180.6,1328.4 1352.8,1255.6 1525.0,1269.9 1697.2,1328.5 1869.5,1280.4 2041.7,1238.8" fill="none" stroke="#FAFCFF" stroke-opacity="0.22" stroke-width="5.5"/><circle cx="1153.6" cy="967.8" r="2.1909515931586783" fill="#3B82F6" fill-opacity="0.52"/><circle cx="207.6" cy="683.1" r="2.187209171732172" fill="#3B82F6" fill-opacity="0.51"/><circle cx="1151.3" cy="774.0" r="6.117017591992179" fill="#FF6A1A" fill-opacity="0.51"/><circle cx="1306.0" cy="827.6" r="2.5008715314049645" fill="#3B82F6" fill-opacity="0.70"/><circle cx="1637.2" cy="904.9" r="3.754450291390633" fill="#FF6A1A" fill-opacity="0.66"/><circle cx="450.5" cy="657.8" r="5.963141162838896" fill="#3B82F6" fill-opacity="0.66"/><circle cx="1095.4" cy="863.1" r="2.6300470111903196" fill="#3B82F6" fill-opacity="0.75"/><circle cx="256.8" cy="970.5" r="4.835894105720833" fill="#3B82F6" fill-opacity="0.40"/><circle cx="393.3" cy="522.7" r="4.10388117652596" fill="#3B82F6" fill-opacity="0.75"/><circle cx="1536.0" cy="923.3" r="4.777936168169067" fill="#3B82F6" fill-opacity="0.61"/><circle cx="508.5" cy="1020.8" r="4.084071525381241" fill="#FF6A1A" fill-opacity="0.62"/><circle cx="1344.9" cy="1035.8" r="5.781687708885699" fill="#FF6A1A" fill-opacity="0.52"/><circle cx="1936.4" cy="712.6" r="3.697865924843174" fill="#FF6A1A" fill-opacity="0.46"/><circle cx="982.3" cy="729.8" r="5.982483060925924" fill="#3B82F6" fill-opacity="0.67"/><circle cx="1641.8" cy="836.9" r="4.0864397302341295" fill="#3B82F6" fill-opacity="0.74"/><circle cx="1197.4" cy="872.8" r="2.507884531258073" fill="#3B82F6" fill-opacity="0.47"/><circle cx="2024.3" cy="1013.3" r="2.545142064338986" fill="#FF6A1A" fill-opacity="0.57"/><circle cx="1144.9" cy="860.8" r="2.2833110090274755" fill="#3B82F6" fill-opacity="0.42"/><g opacity="0.18"><line x1="0" y1="842.4" x2="1920" y2="561.6" stroke="#FAFCFF" stroke-opacity="0.5" stroke-width="6"/><line x1="-41" y1="834" x2="-41" y2="862" stroke="#3B82F6" stroke-opacity="0.8" stroke-width="3"/><line x1="39" y1="823" x2="39" y2="851" stroke="#3B82F6" stroke-opacity="0.8" stroke-width="3"/><line x1="119" y1="811" x2="119" y2="839" stroke="#3B82F6" stroke-opacity="0.8" stroke-width="3"/><line x1="199" y1="799" x2="199" y2="827" stroke="#3B82F6" stroke-opacity="0.8" stroke-width="3"/><line x1="279" y1="788" x2="279" y2="816" stroke="#3B82F6" stroke-opacity="0.8" stroke-width="3"/><line x1="359" y1="776" x2="359" y2="804" stroke="#3B82F6" stroke-opacity="0.8" stroke-width="3"/><line x1="439" y1="764" x2="439" y2="792" stroke="#3B82F6" stroke-opacity="0.8" stroke-width="3"/><line x1="519" y1="753" x2="519" y2="781" stroke="#3B82F6" stroke-opacity="0.8" stroke-width="3"/><line x1="599" y1="741" x2="599" y2="769" stroke="#3B82F6" stroke-opacity="0.8" stroke-width="3"/><line x1="679" y1="729" x2="679" y2="757" stroke="#3B82F6" stroke-opacity="0.8" stroke-width="3"/><line x1="759" y1="717" x2="759" y2="745" stroke="#3B82F6" stroke-opacity="0.8" stroke-width="3"/><line x1="839" y1="706" x2="839" y2="734" stroke="#3B82F6" stroke-opacity="0.8" stroke-width="3"/><line x1="919" y1="694" x2="919" y2="722" stroke="#3B82F6" stroke-opacity="0.8" stroke-width="3"/><line x1="999" y1="682" x2="999" y2="710" stroke="#3B82F6" stroke-opacity="0.8" stroke-width="3"/><line x1="1079" y1="671" x2="1079" y2="699" stroke="#3B82F6" stroke-opacity="0.8" stroke-width="3"/><line x1="1159" y1="659" x2="1159" y2="687" stroke="#3B82F6" stroke-opacity="0.8" stroke-width="3"/><line x1="1239" y1="647" x2="1239" y2="675" stroke="#3B82F6" stroke-opacity="0.8" stroke-width="3"/><line x1="1319" y1="636" x2="1319" y2="664" stroke="#3B82F6" stroke-opacity="0.8" stroke-width="3"/><line x1="1399" y1="624" x2="1399" y2="652" stroke="#3B82F6" stroke-opacity="0.8" stroke-width="3"/><line x1="1479" y1="612" x2="1479" y2="640" stroke="#3B82F6" stroke-opacity="0.8" stroke-width="3"/><line x1="1559" y1="600" x2="1559" y2="628" stroke="#3B82F6" stroke-opacity="0.8" stroke-width="3"/><line x1="1639" y1="589" x2="1639" y2="617" stroke="#3B82F6" stroke-opacity="0.8" stroke-width="3"/><line x1="1719" y1="577" x2="1719" y2="605" stroke="#3B82F6" stroke-opacity="0.8" stroke-width="3"/><line x1="1799" y1="565" x2="1799" y2="593" stroke="#3B82F6" stroke-opacity="0.8" stroke-width="3"/><line x1="1879" y1="554" x2="1879" y2="582" stroke="#3B82F6" stroke-opacity="0.8" stroke-width="3"/><line x1="1959" y1="542" x2="1959" y2="570" stroke="#3B82F6" stroke-opacity="0.8" stroke-width="3"/><line x1="2039" y1="530" x2="2039" y2="558" stroke="#3B82F6" stroke-opacity="0.8" stroke-width="3"/></g></svg>