<svg xmlns="http://www.w3.org/2000/svg" width="1920" height="1080" viewBox="0 0 1920 1080"><rect width="1920" height="1080" fill="#0A1F44"/><polyline points="-1169.6,231.5 -799.7,293.1 -429.7,213.7 -59.7,248.5 310.2,272.2 680.2,210.7 1050.1,294.8 1420.1,226.1 1790.0,225.9 2160.0,287.1 2530.0,278.4 2899.9,207.4 3269.9,310.6" fill="none" stroke="#FAFCFF" stroke-opacity="0" stroke-width="1.5"/><polyline points="-1169.6,483.8 -799.7,365.6 -429.7,473.7 -59.7,421.8 310.2,403.4 680.2,507.9 1050.1,335.9 1420.1,352.6 1790.0,380.6 2160.0,380.5 2530.0,483.8 2899.9,513.3 3269.9,461.0" fill="none" stroke="#FAFCFF" stroke-opacity="0" stroke-width="2.5"/><polyline points="-1169.6,691.8 -799.7,831.0 -429.7,695.1 -59.7,717.1 310.2,787.9 680.2,844.5 1050.1,641.5 1420.1,830.3 1790.0,671.1 2160.0,785.3 2530.0,662.7 2899.9,815.2 3269.9,654.4" fill="none" stroke="#FAFCFF" stroke-opacity="0" stroke-width="3.5"/><polyline points="-1169.6,1126.2 -799.7,1149.0 -429.7,1241.2 -59.7,1336.9 310.2,1344.8 680.2,1113.1 1050.1,1297.6 1420.1,1382.9 1790.0,1269.2 2160.0,1376.9 2530.0,1180.9 2899.9,1256.0 3269.9,1355.1" fill="none" stroke="#FAFCFF" stroke-opacity="0" stroke-width="4.5"/><polyline points="-1169.6,1927.3 -799.7,1776.3 -429.7,1985.9 -59.7,1929.3 310.2,2067.4 680.2,1946.9 1050.1,1859.3 1420.1,1945.4 1790.0,1788.9 2160.0,1819.6 2530.0,1945.5 2899.9,1842.3 3269.9,1752.8" fill="none" stroke="#FAFCFF" stroke-opacity="0" stroke-width="5.5"/><g opacity="1.00"><rect x="422.4" y="216" width="1075.2" height="540" fill="none" stroke="#FAFCFF" stroke-opacity="0.6" stroke-width="2"/><rect x="442.4" y="236" width="318.40000000000003" height="189" fill="#3B82F6" fill-opacity="0.14"/><rect x="800.8" y="236" width="318.40000000000003" height="189" fill="#3B82F6" fill-opacity="0.2"/><rect x="1159.2" y="236" width="318.40000000000003" height="189" fill="#3B82F6" fill-opacity="0.26"/></g><g opacity="0.68"><rect x="460.79999999999995" y="324" width="517.9707771018149" height="10" fill="#3B82F6" fill-opacity="0.9"/><rect x="460.79999999999995" y="358" width="559.0618132464589" height="10" fill="#FAFCFF" fill-opacity="0.4"/><rect x="460.79999999999995" y="392" width="352.0004768371582" height="10" fill="#FAFCFF" fill-opacity="0.4"/><rect x="460.79999999999995" y="426" width="493.0137858130038" height="10" fill="#3B82F6" fill-opacity="0.9"/></g></svg>