<svg xmlns="http://www.w3.org/2000/svg" width="1920" height="1080" viewBox="0 0 1920 1080"><rect width="1920" height="1080" fill="#0A1F44"/><polyline points="-20.6,532.3 150.5,560.7 321.7,524.0 492.8,540.1 663.9,551.1 835.1,522.6 1006.2,561.5 1177.3,529.7 1348.5,529.7 1519.6,558.0 1690.7,553.9 1861.9,521.1 2033.0,568.8" fill="none" stroke="#FAFCFF" stroke-opacity="0.1" stroke-width="1.5"/><polyline points="-20.6,649.0 150.5,594.3 321.7,644.3 492.8,620.3 663.9,611.8 835.1,660.1 1006.2,580.6 1177.3,588.3 1348.5,601.2 1519.6,601.2 1690.7,649.0 1861.9,662.6 2033.0,638.4" fill="none" stroke="#FAFCFF" stroke-opacity="0.13" stroke-width="2.5"/><polyline points="-20.6,745.2 150.5,809.6 321.7,746.7 492.8,756.9 663.9,789.6 835.1,815.8 1006.2,721.9 1177.3,809.2 1348.5,735.6 1519.6,788.4 1690.7,731.7 1861.9,802.2 2033.0,727.9" fill="none" stroke="#FAFCFF" stroke-opacity="0.16" stroke-width="3.5"/><polyline points="-20.6,946.1 150.5,956.7 321.7,999.3 492.8,1043.6 663.9,1047.2 835.1,940.0 1006.2,1025.4 1177.3,1064.8 1348.5,1012.2 1519.6,1062.1 1690.7,971.4 1861.9,1006.1 2033.0,1052.0" fill="none" stroke="#FAFCFF" stroke-opacity="0.19" stroke-width="4.5"/><polyline points="-20.6,1316.7 150.5,1246.8 321.7,1343.8 492.8,1317.6 663.9,1381.5 835.1,1325.7 1006.2,1285.2 1177.3,1325.0 1348.5,1252.6 1519.6,1266.9 1690.7,1325.1 1861.9,1277.4 2033.0,1236.0" fill="none" stroke="#FAFCFF" stroke-opacity="0.22" stroke-width="5.5"/><circle cx="1150.5" cy="966.7" r="2.1771494460706817" fill="#3B82F6" fill-opacity="0.54"/><circle cx="210.5" cy="683.7" r="2.1734306004507595" fill="#3B82F6" fill-opacity="0.49"/><circle cx="1148.2" cy="774.1" r="6.078482748589812" fill="#FF6A1A" fill-opacity="0.49"/><circle cx="1301.9" cy="827.4" r="2.4851170086521956" fill="#3B82F6" fill-opacity="0.69"/><circle cx="1631.0" cy="904.1" r="3.7307987076139066" fill="#FF6A1A" fill-opacity="0.65"/><circle cx="451.8" cy="658.7" r="5.9255756813864595" fill="#3B82F6" fill-opacity="0.67"/><circle cx="1092.7" cy="862.7" r="2.613478732908799" fill="#3B82F6" fill-opacity="0.75"/><circle cx="259.4" cy="969.3" r="4.805429844457576" fill="#3B82F6" fill-opacity="0.38"/><circle cx="394.9" cy="524.4" r="4.07802831341071" fill="#3B82F6" fill-opacity="0.75"/><circle cx="1530.5" cy="922.5" r="4.7478370194813255" fill="#3B82F6" fill-opacity="0.63"/><circle cx="509.5" cy="1019.4" r="4.05834345540141" fill="#FF6A1A" fill-opacity="0.60"/><circle cx="1340.6" cy="1034.2" r="5.745265313966487" fill="#FF6A1A" fill-opacity="0.50"/><circle cx="1928.3" cy="713.1" r="3.6745708006762388" fill="#FF6A1A" fill-opacity="0.44"/><circle cx="980.3" cy="730.2" r="5.9447957330013015" fill="#3B82F6" fill-opacity="0.65"/><circle cx="1635.6" cy="836.6" r="4.060696741480275" fill="#3B82F6" fill-opacity="0.73"/><circle cx="1194.0" cy="872.3" r="2.4920858293204224" fill="#3B82F6" fill-opacity="0.49"/><circle cx="2015.7" cy="1011.9" r="2.529108654362452" fill="#FF6A1A" fill-opacity="0.55"/><circle cx="1141.8" cy="860.4" r="2.268927033364734" fill="#3B82F6" fill-opacity="0.40"/><g opacity="0.14"><line x1="0" y1="842.4" x2="1920" y2="561.6" stroke="#FAFCFF" stroke-opacity="0.5" stroke-width="6"/><line x1="-47" y1="835" x2="-47" y2="863" stroke="#3B82F6" stroke-opacity="0.8" stroke-width="3"/><line x1="33" y1="824" x2="33" y2="852" stroke="#3B82F6" stroke-opacity="0.8" stroke-width="3"/><line x1="113" y1="812" x2="113" y2="840" stroke="#3B82F6" stroke-opacity="0.8" stroke-width="3"/><line x1="193" y1="800" x2="193" y2="828" stroke="#3B82F6" stroke-opacity="0.8" stroke-width="3"/><line x1="273" y1="788" x2="273" y2="816" stroke="#3B82F6" stroke-opacity="0.8" stroke-width="3"/><line x1="353" y1="777" x2="353" y2="805" stroke="#3B82F6" stroke-opacity="0.8" stroke-width="3"/><line x1="433" y1="765" x2="433" y2="793" stroke="#3B82F6" stroke-opacity="0.8" stroke-width="3"/><line x1="513" y1="753" x2="513" y2="781" stroke="#3B82F6" stroke-opacity="0.8" stroke-width="3"/><line x1="593" y1="742" x2="593" y2="770" stroke="#3B82F6" stroke-opacity="0.8" stroke-width="3"/><line x1="673" y1="730" x2="673" y2="758" stroke="#3B82F6" stroke-opacity="0.8" stroke-width="3"/><line x1="753" y1="718" x2="753" y2="746" stroke="#3B82F6" stroke-opacity="0.8" stroke-width="3"/><line x1="833" y1="707" x2="833" y2="735" stroke="#3B82F6" stroke-opacity="0.8" stroke-width="3"/><line x1="913" y1="695" x2="913" y2="723" stroke="#3B82F6" stroke-opacity="0.8" stroke-width="3"/><line x1="993" y1="683" x2="993" y2="711" stroke="#3B82F6" stroke-opacity="0.8" stroke-width="3"/><line x1="1073" y1="671" x2="1073" y2="699" stroke="#3B82F6" stroke-opacity="0.8" stroke-width="3"/><line x1="1153" y1="660" x2="1153" y2="688" stroke="#3B82F6" stroke-opacity="0.8" stroke-width="3"/><line x1="1233" y1="648" x2="1233" y2="676" stroke="#3B82F6" stroke-opacity="0.8" stroke-width="3"/><line x1="1313" y1="636" x2="1313" y2="664" stroke="#3B82F6" stroke-opacity="0.8" stroke-width="3"/><line x1="1393" y1="625" x2="1393" y2="653" stroke="#3B82F6" stroke-opacity="0.8" stroke-width="3"/><line x1="1473" y1="613" x2="1473" y2="641" stroke="#3B82F6" stroke-opacity="0.8" stroke-width="3"/><line x1="1553" y1="601" x2="1553" y2="629" stroke="#3B82F6" stroke-opacity="0.8" stroke-width="3"/><line x1="1633" y1="590" x2="1633" y2="618" stroke="#3B82F6" stroke-opacity="0.8" stroke-width="3"/><line x1="1713" y1="578" x2="1713" y2="606" stroke="#3B82F6" stroke-opacity="0.8" stroke-width="3"/><line x1="1793" y1="566" x2="1793" y2="594" stroke="#3B82F6" stroke-opacity="0.8" stroke-width="3"/><line x1="1873" y1="554" x2="1873" y2="582" stroke="#3B82F6" stroke-opacity="0.8" stroke-width="3"/><line x1="1953" y1="543" x2="1953" y2="571" stroke="#3B82F6" stroke-opacity="0.8" stroke-width="3"/><line x1="2033" y1="531" x2="2033" y2="559" stroke="#3B82F6" stroke-opacity="0.8" stroke-width="3"/></g></svg>