<svg xmlns="http://www.w3.org/2000/svg" width="1920" height="1080" viewBox="0 0 1920 1080"><rect width="1920" height="1080" fill="#0A1F44"/><polyline points="-948.2,282.3 -611.8,338.2 -275.4,266.1 61.1,297.7 397.5,319.3 733.9,263.3 1070.3,339.8 1406.7,277.3 1743.1,277.2 2079.5,332.8 2415.9,324.9 2752.4,260.3 3088.8,354.2" fill="none" stroke="#FAFCFF" stroke-opacity="0" stroke-width="1.5"/><polyline points="-948.2,511.7 -611.8,404.1 -275.4,502.5 61.1,455.3 397.5,438.5 733.9,533.6 1070.3,377.2 1406.7,392.4 1743.1,417.8 2079.5,417.7 2415.9,511.7 2752.4,538.5 3088.8,490.9" fill="none" stroke="#FAFCFF" stroke-opacity="0" stroke-width="2.5"/><polyline points="-948.2,700.8 -611.8,827.4 -275.4,703.8 61.1,723.8 397.5,788.2 733.9,839.7 1070.3,655.1 1406.7,826.7 1743.1,682.0 2079.5,785.9 2415.9,674.4 2752.4,813.0 3088.8,666.8" fill="none" stroke="#FAFCFF" stroke-opacity="0" stroke-width="3.5"/><polyline points="-948.2,1095.8 -611.8,1116.6 -275.4,1200.4 61.1,1287.4 397.5,1294.6 733.9,1083.9 1070.3,1251.7 1406.7,1329.2 1743.1,1225.8 2079.5,1323.8 2415.9,1145.5 2752.4,1213.8 3088.8,1303.9" fill="none" stroke="#FAFCFF" stroke-opacity="0" stroke-width="4.5"/><polyline points="-948.2,1824.3 -611.8,1687.0 -275.4,1877.6 61.1,1826.1 397.5,1951.6 733.9,1842.1 1070.3,1762.4 1406.7,1840.7 1743.1,1698.4 2079.5,1726.4 2415.9,1840.8 2752.4,1747.0 3088.8,1665.6" fill="none" stroke="#FAFCFF" stroke-opacity="0" stroke-width="5.5"/><g opacity="0.54"><line x1="0" y1="842.4" x2="1920" y2="561.6" stroke="#FAFCFF" stroke-opacity="0.5" stroke-width="6"/><line x1="-74" y1="839" x2="-74" y2="867" stroke="#3B82F6" stroke-opacity="0.8" stroke-width="3"/><line x1="6" y1="828" x2="6" y2="856" stroke="#3B82F6" stroke-opacity="0.8" stroke-width="3"/><line x1="86" y1="816" x2="86" y2="844" stroke="#3B82F6" stroke-opacity="0.8" stroke-width="3"/><line x1="166" y1="804" x2="166" y2="832" stroke="#3B82F6" stroke-opacity="0.8" stroke-width="3"/><line x1="246" y1="792" x2="246" y2="820" stroke="#3B82F6" stroke-opacity="0.8" stroke-width="3"/><line x1="326" y1="781" x2="326" y2="809" stroke="#3B82F6" stroke-opacity="0.8" stroke-width="3"/><line x1="406" y1="769" x2="406" y2="797" stroke="#3B82F6" stroke-opacity="0.8" stroke-width="3"/><line x1="486" y1="757" x2="486" y2="785" stroke="#3B82F6" stroke-opacity="0.8" stroke-width="3"/><line x1="566" y1="746" x2="566" y2="774" stroke="#3B82F6" stroke-opacity="0.8" stroke-width="3"/><line x1="646" y1="734" x2="646" y2="762" stroke="#3B82F6" stroke-opacity="0.8" stroke-width="3"/><line x1="726" y1="722" x2="726" y2="750" stroke="#3B82F6" stroke-opacity="0.8" stroke-width="3"/><line x1="806" y1="711" x2="806" y2="739" stroke="#3B82F6" stroke-opacity="0.8" stroke-width="3"/><line x1="886" y1="699" x2="886" y2="727" stroke="#3B82F6" stroke-opacity="0.8" stroke-width="3"/><line x1="966" y1="687" x2="966" y2="715" stroke="#3B82F6" stroke-opacity="0.8" stroke-width="3"/><line x1="1046" y1="675" x2="1046" y2="703" stroke="#3B82F6" stroke-opacity="0.8" stroke-width="3"/><line x1="1126" y1="664" x2="1126" y2="692" stroke="#3B82F6" stroke-opacity="0.8" stroke-width="3"/><line x1="1206" y1="652" x2="1206" y2="680" stroke="#3B82F6" stroke-opacity="0.8" stroke-width="3"/><line x1="1286" y1="640" x2="1286" y2="668" stroke="#3B82F6" stroke-opacity="0.8" stroke-width="3"/><line x1="1366" y1="629" x2="1366" y2="657" stroke="#3B82F6" stroke-opacity="0.8" stroke-width="3"/><line x1="1446" y1="617" x2="1446" y2="645" stroke="#3B82F6" stroke-opacity="0.8" stroke-width="3"/><line x1="1526" y1="605" x2="1526" y2="633" stroke="#3B82F6" stroke-opacity="0.8" stroke-width="3"/><line x1="1606" y1="594" x2="1606" y2="622" stroke="#3B82F6" stroke-opacity="0.8" stroke-width="3"/><line x1="1686" y1="582" x2="1686" y2="610" stroke="#3B82F6" stroke-opacity="0.8" stroke-width="3"/><line x1="1766" y1="570" x2="1766" y2="598" stroke="#3B82F6" stroke-opacity="0.8" stroke-width="3"/><line x1="1846" y1="558" x2="1846" y2="586" stroke="#3B82F6" stroke-opacity="0.8" stroke-width="3"/><line x1="1926" y1="547" x2="1926" y2="575" stroke="#3B82F6" stroke-opacity="0.8" stroke-width="3"/><line x1="2006" y1="535" x2="2006" y2="563" stroke="#3B82F6" stroke-opacity="0.8" stroke-width="3"/></g><g opacity="0.83"><rect x="422.4" y="216" width="1075.2" height="540" fill="none" stroke="#FAFCFF" stroke-opacity="0.6" stroke-width="2"/><rect x="442.4" y="236" width="318.40000000000003" height="189" fill="#3B82F6" fill-opacity="0.14"/><rect x="800.8" y="236" width="318.40000000000003" height="189" fill="#3B82F6" fill-opacity="0.2"/><rect x="1159.2" y="236" width="318.40000000000003" height="189" fill="#3B82F6" fill-opacity="0.26"/></g><g opacity="0.06"><rect x="460.79999999999995" y="324" width="231.29512688194166" height="10" fill="#3B82F6" fill-opacity="0.9"/></g></svg>