<svg xmlns="http://www.w3.org/2000/svg" width="1920" height="1080" viewBox="0 0 1920 1080"><rect width="1920" height="1080" fill="#0A1F44"/><polyline points="2.2,549.0 162.2,575.7 322.2,541.3 482.3,556.4 642.3,566.7 802.3,540.0 962.4,576.4 1122.4,546.7 1282.4,546.6 1442.5,573.1 1602.5,569.3 1762.5,538.6 1922.6,583.3" fill="none" stroke="#FAFCFF" stroke-opacity="0.1" stroke-width="1.5"/><polyline points="2.2,658.2 162.2,607.0 322.2,653.8 482.3,631.3 642.3,623.4 802.3,668.6 962.4,594.2 1122.4,601.4 1282.4,613.5 1442.5,613.5 1602.5,658.2 1762.5,670.9 1922.6,648.3" fill="none" stroke="#FAFCFF" stroke-opacity="0.13" stroke-width="2.5"/><polyline points="2.2,748.1 162.2,808.4 322.2,749.6 482.3,759.1 642.3,789.7 802.3,814.2 962.4,726.4 1122.4,808.1 1282.4,739.2 1442.5,788.6 1602.5,735.6 1762.5,801.5 1922.6,732.0" fill="none" stroke="#FAFCFF" stroke-opacity="0.16" stroke-width="3.5"/><polyline points="2.2,936.0 162.2,945.9 322.2,985.8 482.3,1027.2 642.3,1030.6 802.3,930.4 962.4,1010.2 1122.4,1047.1 1282.4,997.9 1442.5,1044.5 1602.5,959.7 1762.5,992.2 1922.6,1035.1" fill="none" stroke="#FAFCFF" stroke-opacity="0.19" stroke-width="4.5"/><polyline points="2.2,1282.6 162.2,1217.3 322.2,1307.9 482.3,1283.4 642.3,1343.2 802.3,1291.0 962.4,1253.2 1122.4,1290.4 1282.4,1222.7 1442.5,1236.0 1602.5,1290.4 1762.5,1245.8 1922.6,1207.1" fill="none" stroke="#FAFCFF" stroke-opacity="0.22" stroke-width="5.5"/><circle cx="1097.3" cy="955.3" r="2.0359073391663656" fill="#3B82F6" fill-opacity="0.75"/><circle cx="218.3" cy="690.7" r="2.032429752864474" fill="#3B82F6" fill-opacity="0.62"/><circle cx="1095.2" cy="775.2" r="5.684142474089201" fill="#FF6A1A" fill-opacity="0.61"/><circle cx="1238.9" cy="825.0" r="2.3238955716767604" fill="#3B82F6" fill-opacity="0.38"/><circle cx="1546.7" cy="896.8" r="3.488763935563545" fill="#FF6A1A" fill-opacity="0.45"/><circle cx="444.0" cy="667.3" r="5.5411552203241685" fill="#3B82F6" fill-opacity="0.71"/><circle cx="1043.3" cy="858.0" r="2.443929856394202" fill="#3B82F6" fill-opacity="0.54"/><circle cx="264.0" cy="957.8" r="4.493678606141328" fill="#3B82F6" fill-opacity="0.69"/><circle cx="390.8" cy="541.7" r="3.813467094592622" fill="#3B82F6" fill-opacity="0.52"/><circle cx="1452.7" cy="913.9" r="4.4398221034266925" fill="#3B82F6" fill-opacity="0.74"/><circle cx="497.9" cy="1004.6" r="3.795059287556724" fill="#FF6A1A" fill-opacity="0.51"/><circle cx="1275.1" cy="1018.4" r="5.3725424496112355" fill="#FF6A1A" fill-opacity="0.61"/><circle cx="1824.7" cy="718.1" r="3.4361838021202646" fill="#FF6A1A" fill-opacity="0.65"/><circle cx="938.1" cy="734.1" r="5.559128375181515" fill="#3B82F6" fill-opacity="0.44"/><circle cx="1550.9" cy="833.6" r="3.7972599047021234" fill="#3B82F6" fill-opacity="0.42"/><circle cx="1138.0" cy="867.1" r="2.33041229158746" fill="#3B82F6" fill-opacity="0.75"/><circle cx="1906.4" cy="997.6" r="2.3650332687352518" fill="#FF6A1A" fill-opacity="0.56"/><circle cx="1089.2" cy="855.9" r="2.121730875019713" fill="#3B82F6" fill-opacity="0.68"/></svg>