<svg xmlns="http://www.w3.org/2000/svg" width="1920" height="1080" viewBox="0 0 1920 1080"><rect width="1920" height="1080" fill="#0A1F44"/><polyline points="-669.8,350.0 -378.2,398.5 -86.5,336.0 205.1,363.4 496.7,382.1 788.3,333.6 1079.9,399.9 1371.6,345.7 1663.2,345.6 1954.8,393.8 2246.4,386.9 2538.1,331.0 2829.7,412.3" fill="none" stroke="#FAFCFF" stroke-opacity="0.01622641509433964" stroke-width="1.5"/><polyline points="-669.8,548.9 -378.2,455.7 -86.5,540.9 205.1,500.0 496.7,485.5 788.3,567.9 1079.9,432.3 1371.6,445.5 1663.2,467.5 1954.8,467.4 2246.4,548.9 2538.1,572.1 2829.7,530.9" fill="none" stroke="#FAFCFF" stroke-opacity="0.021094339622641536" stroke-width="2.5"/><polyline points="-669.8,712.8 -378.2,822.6 -86.5,715.4 205.1,732.8 496.7,788.6 788.3,833.2 1079.9,673.2 1371.6,822.0 1663.2,696.5 1954.8,786.6 2246.4,689.9 2538.1,810.1 2829.7,683.4" fill="none" stroke="#FAFCFF" stroke-opacity="0.025962264150943427" stroke-width="3.5"/><polyline points="-669.8,1055.2 -378.2,1073.2 -86.5,1145.9 205.1,1221.3 496.7,1227.6 788.3,1044.9 1079.9,1190.3 1371.6,1257.6 1663.2,1168.0 1954.8,1252.9 2246.4,1098.3 2538.1,1157.5 2829.7,1235.7" fill="none" stroke="#FAFCFF" stroke-opacity="0.030830188679245318" stroke-width="4.5"/><polyline points="-669.8,1686.7 -378.2,1567.7 -86.5,1732.9 205.1,1688.3 496.7,1797.1 788.3,1702.1 1079.9,1633.1 1371.6,1701.0 1663.2,1577.6 1954.8,1601.8 2246.4,1701.0 2538.1,1619.7 2829.7,1549.2" fill="none" stroke="#FAFCFF" stroke-opacity="0.03569811320754721" stroke-width="5.5"/><circle cx="1325.9" cy="1090.3" r="3.7100223024245014" fill="#3B82F6" fill-opacity="0.07"/><circle cx="-276.0" cy="608.1" r="3.70368511679212" fill="#3B82F6" fill-opacity="0.10"/><circle cx="1322.0" cy="762.2" r="10.358180327432907" fill="#FF6A1A" fill-opacity="0.10"/><circle cx="1583.9" cy="853.0" r="4.234821611752041" fill="#3B82F6" fill-opacity="0.12"/><circle cx="2144.7" cy="983.7" r="6.357554570305201" fill="#FF6A1A" fill-opacity="0.12"/><circle cx="135.2" cy="565.4" r="10.097615472527515" fill="#3B82F6" fill-opacity="0.10"/><circle cx="1227.3" cy="913.0" r="4.453559402411821" fill="#3B82F6" fill-opacity="0.12"/><circle cx="-192.7" cy="1094.8" r="8.1888048281896" fill="#3B82F6" fill-opacity="0.08"/><circle cx="38.3" cy="336.7" r="6.949259280284207" fill="#3B82F6" fill-opacity="0.12"/><circle cx="1973.4" cy="1014.9" r="8.090662431255316" fill="#3B82F6" fill-opacity="0.09"/><circle cx="233.5" cy="1180.1" r="6.91571483878233" fill="#FF6A1A" fill-opacity="0.11"/><circle cx="1649.8" cy="1205.4" r="9.79035338461996" fill="#FF6A1A" fill-opacity="0.10"/><circle cx="2651.4" cy="658.2" r="6.261738093795566" fill="#FF6A1A" fill-opacity="0.09"/><circle cx="1035.7" cy="687.3" r="10.130367849849847" fill="#3B82F6" fill-opacity="0.12"/><circle cx="2152.5" cy="868.6" r="6.919725010822808" fill="#3B82F6" fill-opacity="0.12"/><circle cx="1400.0" cy="929.5" r="4.246696993181359" fill="#3B82F6" fill-opacity="0.06"/><circle cx="2800.2" cy="1167.3" r="4.309786601867887" fill="#FF6A1A" fill-opacity="0.10"/><circle cx="1311.1" cy="909.2" r="3.866418041053365" fill="#3B82F6" fill-opacity="0.08"/><g opacity="1.00"><line x1="0" y1="842.4" x2="1920" y2="561.6" stroke="#FAFCFF" stroke-opacity="0.5" stroke-width="6"/><line x1="-22" y1="832" x2="-22" y2="860" stroke="#3B82F6" stroke-opacity="0.8" stroke-width="3"/><line x1="58" y1="820" x2="58" y2="848" stroke="#3B82F6" stroke-opacity="0.8" stroke-width="3"/><line x1="138" y1="808" x2="138" y2="836" stroke="#3B82F6" stroke-opacity="0.8" stroke-width="3"/><line x1="218" y1="796" x2="218" y2="824" stroke="#3B82F6" stroke-opacity="0.8" stroke-width="3"/><line x1="298" y1="785" x2="298" y2="813" stroke="#3B82F6" stroke-opacity="0.8" stroke-width="3"/><line x1="378" y1="773" x2="378" y2="801" stroke="#3B82F6" stroke-opacity="0.8" stroke-width="3"/><line x1="458" y1="761" x2="458" y2="789" stroke="#3B82F6" stroke-opacity="0.8" stroke-width="3"/><line x1="538" y1="750" x2="538" y2="778" stroke="#3B82F6" stroke-opacity="0.8" stroke-width="3"/><line x1="618" y1="738" x2="618" y2="766" stroke="#3B82F6" stroke-opacity="0.8" stroke-width="3"/><line x1="698" y1="726" x2="698" y2="754" stroke="#3B82F6" stroke-opacity="0.8" stroke-width="3"/><line x1="778" y1="715" x2="778" y2="743" stroke="#3B82F6" stroke-opacity="0.8" stroke-width="3"/><line x1="858" y1="703" x2="858" y2="731" stroke="#3B82F6" stroke-opacity="0.8" stroke-width="3"/><line x1="938" y1="691" x2="938" y2="719" stroke="#3B82F6" stroke-opacity="0.8" stroke-width="3"/><line x1="1018" y1="679" x2="1018" y2="707" stroke="#3B82F6" stroke-opacity="0.8" stroke-width="3"/><line x1="1098" y1="668" x2="1098" y2="696" stroke="#3B82F6" stroke-opacity="0.8" stroke-width="3"/><line x1="1178" y1="656" x2="1178" y2="684" stroke="#3B82F6" stroke-opacity="0.8" stroke-width="3"/><line x1="1258" y1="644" x2="1258" y2="672" stroke="#3B82F6" stroke-opacity="0.8" stroke-width="3"/><line x1="1338" y1="633" x2="1338" y2="661" stroke="#3B82F6" stroke-opacity="0.8" stroke-width="3"/><line x1="1418" y1="621" x2="1418" y2="649" stroke="#3B82F6" stroke-opacity="0.8" stroke-width="3"/><line x1="1498" y1="609" x2="1498" y2="637" stroke="#3B82F6" stroke-opacity="0.8" stroke-width="3"/><line x1="1578" y1="598" x2="1578" y2="626" stroke="#3B82F6" stroke-opacity="0.8" stroke-width="3"/><line x1="1658" y1="586" x2="1658" y2="614" stroke="#3B82F6" stroke-opacity="0.8" stroke-width="3"/><line x1="1738" y1="574" x2="1738" y2="602" stroke="#3B82F6" stroke-opacity="0.8" stroke-width="3"/><line x1="1818" y1="562" x2="1818" y2="590" stroke="#3B82F6" stroke-opacity="0.8" stroke-width="3"/><line x1="1898" y1="551" x2="1898" y2="579" stroke="#3B82F6" stroke-opacity="0.8" stroke-width="3"/><line x1="1978" y1="539" x2="1978" y2="567" stroke="#3B82F6" stroke-opacity="0.8" stroke-width="3"/><line x1="2058" y1="527" x2="2058" y2="555" stroke="#3B82F6" stroke-opacity="0.8" stroke-width="3"/></g><g opacity="0.16"><rect x="422.4" y="216" width="1075.2" height="540" fill="none" stroke="#FAFCFF" stroke-opacity="0.6" stroke-width="2"/><rect x="442.4" y="236" width="318.40000000000003" height="189" fill="#3B82F6" fill-opacity="0.14"/><rect x="800.8" y="236" width="318.40000000000003" height="189" fill="#3B82F6" fill-opacity="0.2"/><rect x="1159.2" y="236" width="318.40000000000003" height="189" fill="#3B82F6" fill-opacity="0.26"/></g></svg>