<svg xmlns="http://www.w3.org/2000/svg" width="1920" height="1080" viewBox="0 0 1920 1080"><rect width="1920" height="1080" fill="#0A1F44"/><polyline points="7.6,546.3 169.5,573.2 331.4,538.5 493.3,553.7 655.1,564.1 817.0,537.1 978.9,573.9 1140.8,543.9 1302.6,543.8 1464.5,570.6 1626.4,566.7 1788.3,535.7 1950.2,580.9" fill="none" stroke="#FAFCFF" stroke-opacity="0.1" stroke-width="1.5"/><polyline points="7.6,656.7 169.5,604.9 331.4,652.2 493.3,629.5 655.1,621.5 817.0,667.2 978.9,591.9 1140.8,599.2 1302.6,611.5 1464.5,611.4 1626.4,656.7 1788.3,669.5 1950.2,646.7" fill="none" stroke="#FAFCFF" stroke-opacity="0.13" stroke-width="2.5"/><polyline points="7.6,747.6 169.5,808.6 331.4,749.1 493.3,758.7 655.1,789.7 817.0,814.5 978.9,725.6 1140.8,808.3 1302.6,738.6 1464.5,788.6 1626.4,734.9 1788.3,801.6 1950.2,731.3" fill="none" stroke="#FAFCFF" stroke-opacity="0.16" stroke-width="3.5"/><polyline points="7.6,937.7 169.5,947.7 331.4,988.0 493.3,1029.9 655.1,1033.4 817.0,932.0 978.9,1012.7 1140.8,1050.0 1302.6,1000.3 1464.5,1047.4 1626.4,961.6 1788.3,994.5 1950.2,1037.9" fill="none" stroke="#FAFCFF" stroke-opacity="0.19" stroke-width="4.5"/><polyline points="7.6,1288.2 169.5,1222.2 331.4,1313.9 493.3,1289.1 655.1,1349.5 817.0,1296.8 978.9,1258.5 1140.8,1296.2 1302.6,1227.7 1464.5,1241.1 1626.4,1296.2 1788.3,1251.1 1950.2,1211.9" fill="none" stroke="#FAFCFF" stroke-opacity="0.22" stroke-width="5.5"/><circle cx="1115.4" cy="957.2" r="2.0594272997074548" fill="#3B82F6" fill-opacity="0.72"/><circle cx="226.2" cy="689.5" r="2.0559095383489554" fill="#3B82F6" fill-opacity="0.48"/><circle cx="1113.2" cy="775.0" r="5.749808923700434" fill="#FF6A1A" fill-opacity="0.48"/><circle cx="1258.6" cy="825.4" r="2.3507425362197685" fill="#3B82F6" fill-opacity="0.47"/><circle cx="1569.9" cy="898.0" r="3.5290681225582383" fill="#FF6A1A" fill-opacity="0.41"/><circle cx="454.5" cy="665.8" r="5.605169799783094" fill="#3B82F6" fill-opacity="0.75"/><circle cx="1060.7" cy="858.8" r="2.47216352532489" fill="#3B82F6" fill-opacity="0.66"/><circle cx="272.4" cy="959.7" r="4.545592139467486" fill="#3B82F6" fill-opacity="0.58"/><circle cx="400.7" cy="538.9" r="3.8575224373206884" fill="#3B82F6" fill-opacity="0.64"/><circle cx="1474.8" cy="915.4" r="4.491113455775179" fill="#3B82F6" fill-opacity="0.75"/><circle cx="509.0" cy="1007.0" r="3.8389019728190976" fill="#FF6A1A" fill-opacity="0.35"/><circle cx="1295.2" cy="1021.1" r="5.434609118358509" fill="#FF6A1A" fill-opacity="0.47"/><circle cx="1851.2" cy="717.3" r="3.475880553481695" fill="#FF6A1A" fill-opacity="0.52"/><circle cx="954.3" cy="733.5" r="5.623350590756736" fill="#3B82F6" fill-opacity="0.42"/><circle cx="1574.3" cy="834.1" r="3.8411280127464824" fill="#3B82F6" fill-opacity="0.57"/><circle cx="1156.5" cy="867.9" r="2.357334540988579" fill="#3B82F6" fill-opacity="0.69"/><circle cx="1933.8" cy="999.9" r="2.392355479372693" fill="#FF6A1A" fill-opacity="0.41"/><circle cx="1107.2" cy="856.6" r="2.1462423179028196" fill="#3B82F6" fill-opacity="0.56"/></svg>