<svg xmlns="http://www.w3.org/2000/svg" width="1920" height="1080" viewBox="0 0 1920 1080"><rect width="1920" height="1080" fill="#0A1F44"/><polyline points="-713.6,339.1 -414.8,388.8 -115.9,324.7 183.0,352.8 481.8,372.0 780.7,322.3 1079.5,390.2 1378.4,334.7 1677.2,334.5 1976.1,384.0 2275.0,376.9 2573.8,319.6 2872.7,403.0" fill="none" stroke="#FAFCFF" stroke-opacity="0.008679245283018888" stroke-width="1.5"/><polyline points="-713.6,542.9 -414.8,447.3 -115.9,534.7 183.0,492.8 481.8,477.9 780.7,562.3 1079.5,423.4 1378.4,436.9 1677.2,459.5 1976.1,459.4 2275.0,542.9 2573.8,566.7 2872.7,524.4" fill="none" stroke="#FAFCFF" stroke-opacity="0.011283018867924556" stroke-width="2.5"/><polyline points="-713.6,710.9 -414.8,823.4 -115.9,713.5 183.0,731.3 481.8,788.5 780.7,834.3 1079.5,670.2 1378.4,822.8 1677.2,694.1 1976.1,786.5 2275.0,687.4 2573.8,810.6 2872.7,680.7" fill="none" stroke="#FAFCFF" stroke-opacity="0.013886792452830221" stroke-width="3.5"/><polyline points="-713.6,1061.8 -414.8,1080.2 -115.9,1154.7 183.0,1232.0 481.8,1238.4 780.7,1051.2 1079.5,1200.3 1378.4,1269.2 1677.2,1177.3 1976.1,1264.3 2275.0,1105.9 2573.8,1166.6 2872.7,1246.7" fill="none" stroke="#FAFCFF" stroke-opacity="0.01649056603773589" stroke-width="4.5"/><polyline points="-713.6,1708.9 -414.8,1587.0 -115.9,1756.3 183.0,1710.5 481.8,1822.1 780.7,1724.7 1079.5,1654.0 1378.4,1723.6 1677.2,1597.1 1976.1,1622.0 2275.0,1723.6 2573.8,1640.3 2872.7,1568.0" fill="none" stroke="#FAFCFF" stroke-opacity="0.019094339622641555" stroke-width="5.5"/><circle cx="1331.6" cy="1097.7" r="3.802054711322562" fill="#3B82F6" fill-opacity="0.03"/><circle cx="-310.0" cy="603.6" r="3.7955603227377885" fill="#3B82F6" fill-opacity="0.06"/><circle cx="1327.5" cy="761.4" r="10.61512980364257" fill="#FF6A1A" fill-opacity="0.06"/><circle cx="1596.0" cy="854.5" r="4.339872418031133" fill="#3B82F6" fill-opacity="0.06"/><circle cx="2170.7" cy="988.5" r="6.515262803332183" fill="#FF6A1A" fill-opacity="0.06"/><circle cx="111.4" cy="559.8" r="10.348101264878611" fill="#3B82F6" fill-opacity="0.05"/><circle cx="1230.6" cy="916.1" r="4.564036312404172" fill="#3B82F6" fill-opacity="0.06"/><circle cx="-224.7" cy="1102.4" r="8.391939842726266" fill="#3B82F6" fill-opacity="0.05"/><circle cx="12.1" cy="325.4" r="7.1216455948364965" fill="#3B82F6" fill-opacity="0.06"/><circle cx="1995.1" cy="1020.5" r="8.291362883283023" fill="#3B82F6" fill-opacity="0.04"/><circle cx="212.1" cy="1189.7" r="7.087269035491408" fill="#FF6A1A" fill-opacity="0.06"/><circle cx="1663.6" cy="1215.7" r="10.033217101466361" fill="#FF6A1A" fill-opacity="0.06"/><circle cx="2689.9" cy="654.9" r="6.417069462096008" fill="#FF6A1A" fill-opacity="0.05"/><circle cx="1034.2" cy="684.7" r="10.381666111759452" fill="#3B82F6" fill-opacity="0.06"/><circle cx="2178.7" cy="870.5" r="7.09137868558428" fill="#3B82F6" fill-opacity="0.06"/><circle cx="1407.5" cy="933.0" r="4.352042385279736" fill="#3B82F6" fill-opacity="0.03"/><circle cx="2842.4" cy="1176.7" r="4.416697021933903" fill="#FF6A1A" fill-opacity="0.06"/><circle cx="1316.4" cy="912.1" r="3.962330069908966" fill="#3B82F6" fill-opacity="0.05"/><g opacity="1.00"><line x1="0" y1="842.4" x2="1920" y2="561.6" stroke="#FAFCFF" stroke-opacity="0.5" stroke-width="6"/><line x1="-5" y1="829" x2="-5" y2="857" stroke="#3B82F6" stroke-opacity="0.8" stroke-width="3"/><line x1="75" y1="817" x2="75" y2="845" stroke="#3B82F6" stroke-opacity="0.8" stroke-width="3"/><line x1="155" y1="806" x2="155" y2="834" stroke="#3B82F6" stroke-opacity="0.8" stroke-width="3"/><line x1="235" y1="794" x2="235" y2="822" stroke="#3B82F6" stroke-opacity="0.8" stroke-width="3"/><line x1="315" y1="782" x2="315" y2="810" stroke="#3B82F6" stroke-opacity="0.8" stroke-width="3"/><line x1="395" y1="771" x2="395" y2="799" stroke="#3B82F6" stroke-opacity="0.8" stroke-width="3"/><line x1="475" y1="759" x2="475" y2="787" stroke="#3B82F6" stroke-opacity="0.8" stroke-width="3"/><line x1="555" y1="747" x2="555" y2="775" stroke="#3B82F6" stroke-opacity="0.8" stroke-width="3"/><line x1="635" y1="735" x2="635" y2="763" stroke="#3B82F6" stroke-opacity="0.8" stroke-width="3"/><line x1="715" y1="724" x2="715" y2="752" stroke="#3B82F6" stroke-opacity="0.8" stroke-width="3"/><line x1="795" y1="712" x2="795" y2="740" stroke="#3B82F6" stroke-opacity="0.8" stroke-width="3"/><line x1="875" y1="700" x2="875" y2="728" stroke="#3B82F6" stroke-opacity="0.8" stroke-width="3"/><line x1="955" y1="689" x2="955" y2="717" stroke="#3B82F6" stroke-opacity="0.8" stroke-width="3"/><line x1="1035" y1="677" x2="1035" y2="705" stroke="#3B82F6" stroke-opacity="0.8" stroke-width="3"/><line x1="1115" y1="665" x2="1115" y2="693" stroke="#3B82F6" stroke-opacity="0.8" stroke-width="3"/><line x1="1195" y1="654" x2="1195" y2="682" stroke="#3B82F6" stroke-opacity="0.8" stroke-width="3"/><line x1="1275" y1="642" x2="1275" y2="670" stroke="#3B82F6" stroke-opacity="0.8" stroke-width="3"/><line x1="1355" y1="630" x2="1355" y2="658" stroke="#3B82F6" stroke-opacity="0.8" stroke-width="3"/><line x1="1435" y1="618" x2="1435" y2="646" stroke="#3B82F6" stroke-opacity="0.8" stroke-width="3"/><line x1="1515" y1="607" x2="1515" y2="635" stroke="#3B82F6" stroke-opacity="0.8" stroke-width="3"/><line x1="1595" y1="595" x2="1595" y2="623" stroke="#3B82F6" stroke-opacity="0.8" stroke-width="3"/><line x1="1675" y1="583" x2="1675" y2="611" stroke="#3B82F6" stroke-opacity="0.8" stroke-width="3"/><line x1="1755" y1="572" x2="1755" y2="600" stroke="#3B82F6" stroke-opacity="0.8" stroke-width="3"/><line x1="1835" y1="560" x2="1835" y2="588" stroke="#3B82F6" stroke-opacity="0.8" stroke-width="3"/><line x1="1915" y1="548" x2="1915" y2="576" stroke="#3B82F6" stroke-opacity="0.8" stroke-width="3"/><line x1="1995" y1="537" x2="1995" y2="565" stroke="#3B82F6" stroke-opacity="0.8" stroke-width="3"/><line x1="2075" y1="525" x2="2075" y2="553" stroke="#3B82F6" stroke-opacity="0.8" stroke-width="3"/></g><g opacity="0.27"><rect x="422.4" y="216" width="1075.2" height="540" fill="none" stroke="#FAFCFF" stroke-opacity="0.6" stroke-width="2"/><rect x="442.4" y="236" width="318.40000000000003" height="189" fill="#3B82F6" fill-opacity="0.14"/><rect x="800.8" y="236" width="318.40000000000003" height="189" fill="#3B82F6" fill-opacity="0.2"/><rect x="1159.2" y="236" width="318.40000000000003" height="189" fill="#3B82F6" fill-opacity="0.26"/></g></svg>