<svg xmlns="http://www.w3.org/2000/svg" width="1920" height="1080" viewBox="0 0 1920 1080"><rect width="1920" height="1080" fill="#0A1F44"/><polyline points="-743.0,331.8 -439.3,382.3 -135.6,317.2 168.0,345.8 471.7,365.2 775.3,314.7 1079.0,383.7 1382.7,327.3 1686.3,327.2 1990.0,377.4 2293.7,370.2 2597.3,312.0 2901.0,396.7" fill="none" stroke="#FAFCFF" stroke-opacity="0.003647798742138386" stroke-width="1.5"/><polyline points="-743.0,538.9 -439.3,441.8 -135.6,530.6 168.0,488.0 471.7,472.9 775.3,558.6 1079.0,417.5 1382.7,431.2 1686.3,454.1 1990.0,454.1 2293.7,538.9 2597.3,563.1 2901.0,520.2" fill="none" stroke="#FAFCFF" stroke-opacity="0.004742138364779902" stroke-width="2.5"/><polyline points="-743.0,709.6 -439.3,823.9 -135.6,712.3 168.0,730.4 471.7,788.5 775.3,835.0 1079.0,668.3 1382.7,823.3 1686.3,692.6 1990.0,786.4 2293.7,685.7 2597.3,810.9 2901.0,678.9" fill="none" stroke="#FAFCFF" stroke-opacity="0.005836477987421418" stroke-width="3.5"/><polyline points="-743.0,1066.1 -439.3,1084.9 -135.6,1160.5 168.0,1239.1 471.7,1245.6 775.3,1055.4 1079.0,1206.8 1382.7,1276.8 1686.3,1183.5 1990.0,1271.9 2293.7,1111.0 2597.3,1172.7 2901.0,1254.0" fill="none" stroke="#FAFCFF" stroke-opacity="0.006930817610062934" stroke-width="4.5"/><polyline points="-743.0,1723.7 -439.3,1599.8 -135.6,1771.8 168.0,1725.3 471.7,1838.7 775.3,1739.7 1079.0,1667.9 1382.7,1738.6 1686.3,1610.1 1990.0,1635.3 2293.7,1738.6 2597.3,1653.9 2901.0,1580.5" fill="none" stroke="#FAFCFF" stroke-opacity="0.00802515723270445" stroke-width="5.5"/><circle cx="-332.9" cy="600.6" r="3.856608250300803" fill="#3B82F6" fill-opacity="0.02"/><circle cx="1331.0" cy="761.0" r="10.785863929890716" fill="#FF6A1A" fill-opacity="0.02"/><circle cx="1603.8" cy="855.5" r="4.409675080742494" fill="#3B82F6" fill-opacity="0.03"/><circle cx="2187.8" cy="991.7" r="6.620054522565069" fill="#FF6A1A" fill-opacity="0.03"/><circle cx="1232.5" cy="918.1" r="4.637444435185274" fill="#3B82F6" fill-opacity="0.02"/><circle cx="-246.2" cy="1107.4" r="8.526916102374377" fill="#3B82F6" fill-opacity="0.02"/><circle cx="-5.6" cy="317.9" r="7.23619039650874" fill="#3B82F6" fill-opacity="0.03"/><circle cx="197.6" cy="1196.1" r="7.201260923357436" fill="#FF6A1A" fill-opacity="0.03"/><circle cx="1672.4" cy="1222.5" r="10.194591723064393" fill="#FF6A1A" fill-opacity="0.02"/><circle cx="2715.3" cy="652.7" r="6.520281836127333" fill="#FF6A1A" fill-opacity="0.02"/><circle cx="1033.0" cy="683.0" r="10.548645199663117" fill="#3B82F6" fill-opacity="0.03"/><circle cx="2195.9" cy="871.8" r="7.205436673208934" fill="#3B82F6" fill-opacity="0.03"/><circle cx="2870.3" cy="1182.9" r="4.487735334313644" fill="#FF6A1A" fill-opacity="0.03"/><circle cx="1319.7" cy="914.1" r="4.0260603280317175" fill="#3B82F6" fill-opacity="0.02"/><g opacity="1.00"><line x1="0" y1="842.4" x2="1920" y2="561.6" stroke="#FAFCFF" stroke-opacity="0.5" stroke-width="6"/><line x1="-73" y1="839" x2="-73" y2="867" stroke="#3B82F6" stroke-opacity="0.8" stroke-width="3"/><line x1="7" y1="827" x2="7" y2="855" stroke="#3B82F6" stroke-opacity="0.8" stroke-width="3"/><line x1="87" y1="816" x2="87" y2="844" stroke="#3B82F6" stroke-opacity="0.8" stroke-width="3"/><line x1="167" y1="804" x2="167" y2="832" stroke="#3B82F6" stroke-opacity="0.8" stroke-width="3"/><line x1="247" y1="792" x2="247" y2="820" stroke="#3B82F6" stroke-opacity="0.8" stroke-width="3"/><line x1="327" y1="781" x2="327" y2="809" stroke="#3B82F6" stroke-opacity="0.8" stroke-width="3"/><line x1="407" y1="769" x2="407" y2="797" stroke="#3B82F6" stroke-opacity="0.8" stroke-width="3"/><line x1="487" y1="757" x2="487" y2="785" stroke="#3B82F6" stroke-opacity="0.8" stroke-width="3"/><line x1="567" y1="746" x2="567" y2="774" stroke="#3B82F6" stroke-opacity="0.8" stroke-width="3"/><line x1="647" y1="734" x2="647" y2="762" stroke="#3B82F6" stroke-opacity="0.8" stroke-width="3"/><line x1="727" y1="722" x2="727" y2="750" stroke="#3B82F6" stroke-opacity="0.8" stroke-width="3"/><line x1="807" y1="710" x2="807" y2="738" stroke="#3B82F6" stroke-opacity="0.8" stroke-width="3"/><line x1="887" y1="699" x2="887" y2="727" stroke="#3B82F6" stroke-opacity="0.8" stroke-width="3"/><line x1="967" y1="687" x2="967" y2="715" stroke="#3B82F6" stroke-opacity="0.8" stroke-width="3"/><line x1="1047" y1="675" x2="1047" y2="703" stroke="#3B82F6" stroke-opacity="0.8" stroke-width="3"/><line x1="1127" y1="664" x2="1127" y2="692" stroke="#3B82F6" stroke-opacity="0.8" stroke-width="3"/><line x1="1207" y1="652" x2="1207" y2="680" stroke="#3B82F6" stroke-opacity="0.8" stroke-width="3"/><line x1="1287" y1="640" x2="1287" y2="668" stroke="#3B82F6" stroke-opacity="0.8" stroke-width="3"/><line x1="1367" y1="629" x2="1367" y2="657" stroke="#3B82F6" stroke-opacity="0.8" stroke-width="3"/><line x1="1447" y1="617" x2="1447" y2="645" stroke="#3B82F6" stroke-opacity="0.8" stroke-width="3"/><line x1="1527" y1="605" x2="1527" y2="633" stroke="#3B82F6" stroke-opacity="0.8" stroke-width="3"/><line x1="1607" y1="593" x2="1607" y2="621" stroke="#3B82F6" stroke-opacity="0.8" stroke-width="3"/><line x1="1687" y1="582" x2="1687" y2="610" stroke="#3B82F6" stroke-opacity="0.8" stroke-width="3"/><line x1="1767" y1="570" x2="1767" y2="598" stroke="#3B82F6" stroke-opacity="0.8" stroke-width="3"/><line x1="1847" y1="558" x2="1847" y2="586" stroke="#3B82F6" stroke-opacity="0.8" stroke-width="3"/><line x1="1927" y1="547" x2="1927" y2="575" stroke="#3B82F6" stroke-opacity="0.8" stroke-width="3"/><line x1="2007" y1="535" x2="2007" y2="563" stroke="#3B82F6" stroke-opacity="0.8" stroke-width="3"/></g><g opacity="0.34"><rect x="422.4" y="216" width="1075.2" height="540" fill="none" stroke="#FAFCFF" stroke-opacity="0.6" stroke-width="2"/><rect x="442.4" y="236" width="318.40000000000003" height="189" fill="#3B82F6" fill-opacity="0.14"/><rect x="800.8" y="236" width="318.40000000000003" height="189" fill="#3B82F6" fill-opacity="0.2"/><rect x="1159.2" y="236" width="318.40000000000003" height="189" fill="#3B82F6" fill-opacity="0.26"/></g></svg>