<svg xmlns="http://www.w3.org/2000/svg" width="1920" height="1080" viewBox="0 0 1920 1080"><rect width="1920" height="1080" fill="#0A1F44"/><polyline points="-555.0,379.2 -282.7,424.5 -10.3,366.1 262.0,391.7 534.3,409.2 806.7,363.9 1079.0,425.8 1351.3,375.2 1623.7,375.1 1896.0,420.1 2168.4,413.7 2440.7,361.4 2713.0,437.4" fill="none" stroke="#FAFCFF" stroke-opacity="0.03635220125786164" stroke-width="1.5"/><polyline points="-555.0,564.9 -282.7,477.8 -10.3,557.5 262.0,519.2 534.3,505.7 806.7,582.6 1079.0,456.0 1351.3,468.3 1623.7,488.9 1896.0,488.8 2168.4,564.9 2440.7,586.6 2713.0,548.1" fill="none" stroke="#FAFCFF" stroke-opacity="0.04725786163522013" stroke-width="2.5"/><polyline points="-555.0,718.0 -282.7,820.5 -10.3,720.4 262.0,736.6 534.3,788.7 806.7,830.4 1079.0,681.0 1351.3,820.0 1623.7,702.7 1896.0,786.9 2168.4,696.6 2440.7,808.8 2713.0,690.5" fill="none" stroke="#FAFCFF" stroke-opacity="0.05816352201257862" stroke-width="3.5"/><polyline points="-555.0,1037.8 -282.7,1054.6 -10.3,1122.4 262.0,1192.9 534.3,1198.7 806.7,1028.1 1079.0,1163.9 1351.3,1226.7 1623.7,1143.0 1896.0,1222.3 2168.4,1078.0 2440.7,1133.3 2713.0,1206.3" fill="none" stroke="#FAFCFF" stroke-opacity="0.06906918238993712" stroke-width="4.5"/><polyline points="-555.0,1627.5 -282.7,1516.3 -10.3,1670.7 262.0,1628.9 534.3,1730.6 806.7,1641.9 1079.0,1577.4 1351.3,1640.8 1623.7,1525.6 1896.0,1548.2 2168.4,1640.9 2440.7,1564.9 2713.0,1499.0" fill="none" stroke="#FAFCFF" stroke-opacity="0.0799748427672956" stroke-width="5.5"/><circle cx="1308.7" cy="1070.5" r="3.4646738449781367" fill="#3B82F6" fill-opacity="0.21"/><circle cx="-187.3" cy="620.2" r="3.458755745430074" fill="#3B82F6" fill-opacity="0.16"/><circle cx="1305.0" cy="764.1" r="9.673180788851653" fill="#FF6A1A" fill-opacity="0.16"/><circle cx="1549.6" cy="848.9" r="3.9547675136068903" fill="#3B82F6" fill-opacity="0.24"/><circle cx="2073.4" cy="971.0" r="5.9371214624136055" fill="#FF6A1A" fill-opacity="0.22"/><circle cx="196.8" cy="580.4" r="9.429847416671851" fill="#3B82F6" fill-opacity="0.26"/><circle cx="1216.7" cy="905.0" r="4.159039898091475" fill="#3B82F6" fill-opacity="0.27"/><circle cx="-109.5" cy="1074.8" r="7.647268829440292" fill="#3B82F6" fill-opacity="0.14"/><circle cx="106.3" cy="366.7" r="6.4896959931044105" fill="#3B82F6" fill-opacity="0.27"/><circle cx="1913.4" cy="1000.1" r="7.555616713085233" fill="#3B82F6" fill-opacity="0.24"/><circle cx="288.6" cy="1154.4" r="6.4583698878570095" fill="#FF6A1A" fill-opacity="0.20"/><circle cx="1611.2" cy="1178.0" r="9.142904958447009" fill="#FF6A1A" fill-opacity="0.16"/><circle cx="2546.5" cy="666.9" r="5.847641450429864" fill="#FF6A1A" fill-opacity="0.14"/><circle cx="1037.7" cy="694.2" r="9.460433837943599" fill="#3B82F6" fill-opacity="0.22"/><circle cx="2080.6" cy="863.4" r="6.462114862159032" fill="#3B82F6" fill-opacity="0.26"/><circle cx="1377.9" cy="920.4" r="3.965857561073831" fill="#3B82F6" fill-opacity="0.20"/><circle cx="2685.5" cy="1142.5" r="4.024774974309669" fill="#FF6A1A" fill-opacity="0.18"/><circle cx="1294.9" cy="901.4" r="3.610726936017335" fill="#3B82F6" fill-opacity="0.13"/><g opacity="1.00"><line x1="0" y1="842.4" x2="1920" y2="561.6" stroke="#FAFCFF" stroke-opacity="0.5" stroke-width="6"/><line x1="-67" y1="838" x2="-67" y2="866" stroke="#3B82F6" stroke-opacity="0.8" stroke-width="3"/><line x1="13" y1="826" x2="13" y2="854" stroke="#3B82F6" stroke-opacity="0.8" stroke-width="3"/><line x1="93" y1="815" x2="93" y2="843" stroke="#3B82F6" stroke-opacity="0.8" stroke-width="3"/><line x1="173" y1="803" x2="173" y2="831" stroke="#3B82F6" stroke-opacity="0.8" stroke-width="3"/><line x1="253" y1="791" x2="253" y2="819" stroke="#3B82F6" stroke-opacity="0.8" stroke-width="3"/><line x1="333" y1="780" x2="333" y2="808" stroke="#3B82F6" stroke-opacity="0.8" stroke-width="3"/><line x1="413" y1="768" x2="413" y2="796" stroke="#3B82F6" stroke-opacity="0.8" stroke-width="3"/><line x1="493" y1="756" x2="493" y2="784" stroke="#3B82F6" stroke-opacity="0.8" stroke-width="3"/><line x1="573" y1="745" x2="573" y2="773" stroke="#3B82F6" stroke-opacity="0.8" stroke-width="3"/><line x1="653" y1="733" x2="653" y2="761" stroke="#3B82F6" stroke-opacity="0.8" stroke-width="3"/><line x1="733" y1="721" x2="733" y2="749" stroke="#3B82F6" stroke-opacity="0.8" stroke-width="3"/><line x1="813" y1="709" x2="813" y2="737" stroke="#3B82F6" stroke-opacity="0.8" stroke-width="3"/><line x1="893" y1="698" x2="893" y2="726" stroke="#3B82F6" stroke-opacity="0.8" stroke-width="3"/><line x1="973" y1="686" x2="973" y2="714" stroke="#3B82F6" stroke-opacity="0.8" stroke-width="3"/><line x1="1053" y1="674" x2="1053" y2="702" stroke="#3B82F6" stroke-opacity="0.8" stroke-width="3"/><line x1="1133" y1="663" x2="1133" y2="691" stroke="#3B82F6" stroke-opacity="0.8" stroke-width="3"/><line x1="1213" y1="651" x2="1213" y2="679" stroke="#3B82F6" stroke-opacity="0.8" stroke-width="3"/><line x1="1293" y1="639" x2="1293" y2="667" stroke="#3B82F6" stroke-opacity="0.8" stroke-width="3"/><line x1="1373" y1="628" x2="1373" y2="656" stroke="#3B82F6" stroke-opacity="0.8" stroke-width="3"/><line x1="1453" y1="616" x2="1453" y2="644" stroke="#3B82F6" stroke-opacity="0.8" stroke-width="3"/><line x1="1533" y1="604" x2="1533" y2="632" stroke="#3B82F6" stroke-opacity="0.8" stroke-width="3"/><line x1="1613" y1="592" x2="1613" y2="620" stroke="#3B82F6" stroke-opacity="0.8" stroke-width="3"/><line x1="1693" y1="581" x2="1693" y2="609" stroke="#3B82F6" stroke-opacity="0.8" stroke-width="3"/><line x1="1773" y1="569" x2="1773" y2="597" stroke="#3B82F6" stroke-opacity="0.8" stroke-width="3"/><line x1="1853" y1="557" x2="1853" y2="585" stroke="#3B82F6" stroke-opacity="0.8" stroke-width="3"/><line x1="1933" y1="546" x2="1933" y2="574" stroke="#3B82F6" stroke-opacity="0.8" stroke-width="3"/><line x1="2013" y1="534" x2="2013" y2="562" stroke="#3B82F6" stroke-opacity="0.8" stroke-width="3"/></g></svg>