<svg xmlns="http://www.w3.org/2000/svg" width="1920" height="1080" viewBox="0 0 1920 1080"><rect width="1920" height="1080" fill="#0A1F44"/><polyline points="-294.3,448.7 -67.9,486.4 158.4,437.8 384.8,459.1 611.2,473.6 837.6,436.0 1063.9,487.4 1290.3,445.4 1516.7,445.3 1743.0,482.7 1969.4,477.4 2195.8,434.0 2422.1,497.1" fill="none" stroke="#FAFCFF" stroke-opacity="0.08666666666666667" stroke-width="1.5"/><polyline points="-294.3,603.1 -67.9,530.7 158.4,596.9 384.8,565.1 611.2,553.9 837.6,617.8 1063.9,512.6 1290.3,522.8 1516.7,539.9 1743.0,539.9 1969.4,603.1 2195.8,621.1 2422.1,589.1" fill="none" stroke="#FAFCFF" stroke-opacity="0.11266666666666668" stroke-width="2.5"/><polyline points="-294.3,730.3 -67.9,815.5 158.4,732.3 384.8,745.8 611.2,789.1 837.6,823.8 1063.9,699.6 1290.3,815.1 1516.7,717.7 1743.0,787.6 1969.4,712.6 2195.8,805.8 2422.1,707.5" fill="none" stroke="#FAFCFF" stroke-opacity="0.1386666666666667" stroke-width="3.5"/><polyline points="-294.3,996.1 -67.9,1010.1 158.4,1066.5 384.8,1125.1 611.2,1129.9 837.6,988.1 1063.9,1101.0 1290.3,1153.2 1516.7,1083.6 1743.0,1149.5 1969.4,1029.6 2195.8,1075.6 2422.1,1136.2" fill="none" stroke="#FAFCFF" stroke-opacity="0.16466666666666668" stroke-width="4.5"/><polyline points="-294.3,1486.3 -67.9,1393.9 158.4,1522.2 384.8,1487.5 611.2,1572.0 837.6,1498.3 1063.9,1444.7 1290.3,1497.4 1516.7,1401.6 1743.0,1420.4 1969.4,1497.4 2195.8,1434.3 2422.1,1379.6" fill="none" stroke="#FAFCFF" stroke-opacity="0.19066666666666668" stroke-width="5.5"/><circle cx="1254.8" cy="1023.4" r="2.8798873652462604" fill="#3B82F6" fill-opacity="0.64"/><circle cx="11.4" cy="649.1" r="2.874968154700818" fill="#3B82F6" fill-opacity="0.58"/><circle cx="1251.8" cy="768.6" r="8.040488768065417" fill="#FF6A1A" fill-opacity="0.58"/><circle cx="1455.1" cy="839.1" r="3.2872603611537703" fill="#3B82F6" fill-opacity="0.40"/><circle cx="1890.5" cy="940.6" r="4.935021837717957" fill="#FF6A1A" fill-opacity="0.45"/><circle cx="330.6" cy="615.9" r="7.838226524795647" fill="#3B82F6" fill-opacity="0.58"/><circle cx="1178.3" cy="885.8" r="3.4570545425017674" fill="#3B82F6" fill-opacity="0.41"/><circle cx="76.0" cy="1026.9" r="6.356521238634984" fill="#3B82F6" fill-opacity="0.63"/><circle cx="255.4" cy="438.4" r="5.3943298362471435" fill="#3B82F6" fill-opacity="0.38"/><circle cx="1757.5" cy="964.9" r="6.280338664546057" fill="#3B82F6" fill-opacity="0.61"/><circle cx="406.9" cy="1093.0" r="5.368291121279752" fill="#FF6A1A" fill-opacity="0.50"/><circle cx="1506.3" cy="1112.7" r="7.599715774009625" fill="#FF6A1A" fill-opacity="0.57"/><circle cx="2283.7" cy="687.9" r="4.8606447484206265" fill="#FF6A1A" fill-opacity="0.60"/><circle cx="1029.6" cy="710.5" r="7.8636504036684824" fill="#3B82F6" fill-opacity="0.44"/><circle cx="1896.5" cy="851.2" r="5.371403998467657" fill="#3B82F6" fill-opacity="0.31"/><circle cx="1312.4" cy="898.5" r="3.296478570142278" fill="#3B82F6" fill-opacity="0.65"/><circle cx="2399.2" cy="1083.2" r="3.345451582195582" fill="#FF6A1A" fill-opacity="0.54"/><circle cx="1243.4" cy="882.8" r="3.0012888218793603" fill="#3B82F6" fill-opacity="0.62"/><g opacity="1.00"><line x1="0" y1="842.4" x2="1920" y2="561.6" stroke="#FAFCFF" stroke-opacity="0.5" stroke-width="6"/><line x1="-20" y1="831" x2="-20" y2="859" stroke="#3B82F6" stroke-opacity="0.8" stroke-width="3"/><line x1="60" y1="820" x2="60" y2="848" stroke="#3B82F6" stroke-opacity="0.8" stroke-width="3"/><line x1="140" y1="808" x2="140" y2="836" stroke="#3B82F6" stroke-opacity="0.8" stroke-width="3"/><line x1="220" y1="796" x2="220" y2="824" stroke="#3B82F6" stroke-opacity="0.8" stroke-width="3"/><line x1="300" y1="785" x2="300" y2="813" stroke="#3B82F6" stroke-opacity="0.8" stroke-width="3"/><line x1="380" y1="773" x2="380" y2="801" stroke="#3B82F6" stroke-opacity="0.8" stroke-width="3"/><line x1="460" y1="761" x2="460" y2="789" stroke="#3B82F6" stroke-opacity="0.8" stroke-width="3"/><line x1="540" y1="749" x2="540" y2="777" stroke="#3B82F6" stroke-opacity="0.8" stroke-width="3"/><line x1="620" y1="738" x2="620" y2="766" stroke="#3B82F6" stroke-opacity="0.8" stroke-width="3"/><line x1="700" y1="726" x2="700" y2="754" stroke="#3B82F6" stroke-opacity="0.8" stroke-width="3"/><line x1="780" y1="714" x2="780" y2="742" stroke="#3B82F6" stroke-opacity="0.8" stroke-width="3"/><line x1="860" y1="703" x2="860" y2="731" stroke="#3B82F6" stroke-opacity="0.8" stroke-width="3"/><line x1="940" y1="691" x2="940" y2="719" stroke="#3B82F6" stroke-opacity="0.8" stroke-width="3"/><line x1="1020" y1="679" x2="1020" y2="707" stroke="#3B82F6" stroke-opacity="0.8" stroke-width="3"/><line x1="1100" y1="668" x2="1100" y2="696" stroke="#3B82F6" stroke-opacity="0.8" stroke-width="3"/><line x1="1180" y1="656" x2="1180" y2="684" stroke="#3B82F6" stroke-opacity="0.8" stroke-width="3"/><line x1="1260" y1="644" x2="1260" y2="672" stroke="#3B82F6" stroke-opacity="0.8" stroke-width="3"/><line x1="1340" y1="632" x2="1340" y2="660" stroke="#3B82F6" stroke-opacity="0.8" stroke-width="3"/><line x1="1420" y1="621" x2="1420" y2="649" stroke="#3B82F6" stroke-opacity="0.8" stroke-width="3"/><line x1="1500" y1="609" x2="1500" y2="637" stroke="#3B82F6" stroke-opacity="0.8" stroke-width="3"/><line x1="1580" y1="597" x2="1580" y2="625" stroke="#3B82F6" stroke-opacity="0.8" stroke-width="3"/><line x1="1660" y1="586" x2="1660" y2="614" stroke="#3B82F6" stroke-opacity="0.8" stroke-width="3"/><line x1="1740" y1="574" x2="1740" y2="602" stroke="#3B82F6" stroke-opacity="0.8" stroke-width="3"/><line x1="1820" y1="562" x2="1820" y2="590" stroke="#3B82F6" stroke-opacity="0.8" stroke-width="3"/><line x1="1900" y1="551" x2="1900" y2="579" stroke="#3B82F6" stroke-opacity="0.8" stroke-width="3"/><line x1="1980" y1="539" x2="1980" y2="567" stroke="#3B82F6" stroke-opacity="0.8" stroke-width="3"/><line x1="2060" y1="527" x2="2060" y2="555" stroke="#3B82F6" stroke-opacity="0.8" stroke-width="3"/></g></svg>