<svg xmlns="http://www.w3.org/2000/svg" width="1920" height="1080" viewBox="0 0 1920 1080"><rect width="1920" height="1080" fill="#0A1F44"/><polyline points="-1075.7,252.7 -719.7,311.9 -363.7,235.5 -7.7,269.0 348.2,291.9 704.2,232.6 1060.2,313.6 1416.2,247.4 1772.1,247.3 2128.1,306.1 2484.1,297.7 2840.1,229.5 3196.0,328.8" fill="none" stroke="#FAFCFF" stroke-opacity="0" stroke-width="1.5"/><polyline points="-1075.7,495.5 -719.7,381.6 -363.7,485.7 -7.7,435.7 348.2,418.0 704.2,518.6 1060.2,353.1 1416.2,369.2 1772.1,396.1 2128.1,396.0 2484.1,495.5 2840.1,523.8 3196.0,473.5" fill="none" stroke="#FAFCFF" stroke-opacity="0" stroke-width="2.5"/><polyline points="-1075.7,695.5 -719.7,829.5 -363.7,698.7 -7.7,719.9 348.2,788.0 704.2,842.5 1060.2,647.1 1416.2,828.8 1772.1,675.6 2128.1,785.6 2484.1,667.6 2840.1,814.3 3196.0,659.6" fill="none" stroke="#FAFCFF" stroke-opacity="0" stroke-width="3.5"/><polyline points="-1075.7,1113.5 -719.7,1135.5 -363.7,1224.2 -7.7,1316.3 348.2,1323.9 704.2,1100.9 1060.2,1278.5 1416.2,1360.5 1772.1,1251.1 2128.1,1354.8 2484.1,1166.1 2840.1,1238.4 3196.0,1333.8" fill="none" stroke="#FAFCFF" stroke-opacity="0" stroke-width="4.5"/><polyline points="-1075.7,1884.3 -719.7,1739.1 -363.7,1940.8 -7.7,1886.3 348.2,2019.1 704.2,1903.2 1060.2,1818.9 1416.2,1901.8 1772.1,1751.2 2128.1,1780.8 2484.1,1901.8 2840.1,1802.6 3196.0,1716.5" fill="none" stroke="#FAFCFF" stroke-opacity="0" stroke-width="5.5"/><g opacity="0.20"><line x1="0" y1="842.4" x2="1920" y2="561.6" stroke="#FAFCFF" stroke-opacity="0.5" stroke-width="6"/><line x1="-23" y1="832" x2="-23" y2="860" stroke="#3B82F6" stroke-opacity="0.8" stroke-width="3"/><line x1="57" y1="820" x2="57" y2="848" stroke="#3B82F6" stroke-opacity="0.8" stroke-width="3"/><line x1="137" y1="808" x2="137" y2="836" stroke="#3B82F6" stroke-opacity="0.8" stroke-width="3"/><line x1="217" y1="797" x2="217" y2="825" stroke="#3B82F6" stroke-opacity="0.8" stroke-width="3"/><line x1="297" y1="785" x2="297" y2="813" stroke="#3B82F6" stroke-opacity="0.8" stroke-width="3"/><line x1="377" y1="773" x2="377" y2="801" stroke="#3B82F6" stroke-opacity="0.8" stroke-width="3"/><line x1="457" y1="762" x2="457" y2="790" stroke="#3B82F6" stroke-opacity="0.8" stroke-width="3"/><line x1="537" y1="750" x2="537" y2="778" stroke="#3B82F6" stroke-opacity="0.8" stroke-width="3"/><line x1="617" y1="738" x2="617" y2="766" stroke="#3B82F6" stroke-opacity="0.8" stroke-width="3"/><line x1="697" y1="726" x2="697" y2="754" stroke="#3B82F6" stroke-opacity="0.8" stroke-width="3"/><line x1="777" y1="715" x2="777" y2="743" stroke="#3B82F6" stroke-opacity="0.8" stroke-width="3"/><line x1="857" y1="703" x2="857" y2="731" stroke="#3B82F6" stroke-opacity="0.8" stroke-width="3"/><line x1="937" y1="691" x2="937" y2="719" stroke="#3B82F6" stroke-opacity="0.8" stroke-width="3"/><line x1="1017" y1="680" x2="1017" y2="708" stroke="#3B82F6" stroke-opacity="0.8" stroke-width="3"/><line x1="1097" y1="668" x2="1097" y2="696" stroke="#3B82F6" stroke-opacity="0.8" stroke-width="3"/><line x1="1177" y1="656" x2="1177" y2="684" stroke="#3B82F6" stroke-opacity="0.8" stroke-width="3"/><line x1="1257" y1="645" x2="1257" y2="673" stroke="#3B82F6" stroke-opacity="0.8" stroke-width="3"/><line x1="1337" y1="633" x2="1337" y2="661" stroke="#3B82F6" stroke-opacity="0.8" stroke-width="3"/><line x1="1417" y1="621" x2="1417" y2="649" stroke="#3B82F6" stroke-opacity="0.8" stroke-width="3"/><line x1="1497" y1="609" x2="1497" y2="637" stroke="#3B82F6" stroke-opacity="0.8" stroke-width="3"/><line x1="1577" y1="598" x2="1577" y2="626" stroke="#3B82F6" stroke-opacity="0.8" stroke-width="3"/><line x1="1657" y1="586" x2="1657" y2="614" stroke="#3B82F6" stroke-opacity="0.8" stroke-width="3"/><line x1="1737" y1="574" x2="1737" y2="602" stroke="#3B82F6" stroke-opacity="0.8" stroke-width="3"/><line x1="1817" y1="563" x2="1817" y2="591" stroke="#3B82F6" stroke-opacity="0.8" stroke-width="3"/><line x1="1897" y1="551" x2="1897" y2="579" stroke="#3B82F6" stroke-opacity="0.8" stroke-width="3"/><line x1="1977" y1="539" x2="1977" y2="567" stroke="#3B82F6" stroke-opacity="0.8" stroke-width="3"/><line x1="2057" y1="528" x2="2057" y2="556" stroke="#3B82F6" stroke-opacity="0.8" stroke-width="3"/></g><g opacity="1.00"><rect x="422.4" y="216" width="1075.2" height="540" fill="none" stroke="#FAFCFF" stroke-opacity="0.6" stroke-width="2"/><rect x="442.4" y="236" width="318.40000000000003" height="189" fill="#3B82F6" fill-opacity="0.14"/><rect x="800.8" y="236" width="318.40000000000003" height="189" fill="#3B82F6" fill-opacity="0.2"/><rect x="1159.2" y="236" width="318.40000000000003" height="189" fill="#3B82F6" fill-opacity="0.26"/></g><g opacity="0.41"><rect x="460.79999999999995" y="324" width="517.9707771018149" height="10" fill="#3B82F6" fill-opacity="0.9"/><rect x="460.79999999999995" y="358" width="559.0618132464589" height="10" fill="#FAFCFF" fill-opacity="0.4"/><rect x="460.79999999999995" y="392" width="167.80903235381336" height="10" fill="#FAFCFF" fill-opacity="0.4"/></g></svg>