<svg xmlns="http://www.w3.org/2000/svg" width="1920" height="1080" viewBox="0 0 1920 1080"><rect width="1920" height="1080" fill="#0A1F44"/><polyline points="-445.1,407.9 -191.7,450.0 61.6,395.7 315.0,419.5 568.4,435.8 821.7,393.6 1075.1,451.2 1328.5,404.1 1581.8,404.0 1835.2,445.9 2088.6,439.9 2342.0,391.4 2595.3,462.0" fill="none" stroke="#FAFCFF" stroke-opacity="0.05647798742138365" stroke-width="1.5"/><polyline points="-445.1,580.7 -191.7,499.7 61.6,573.7 315.0,538.2 568.4,525.6 821.7,597.1 1075.1,479.4 1328.5,490.8 1581.8,509.9 1835.2,509.9 2088.6,580.7 2342.0,600.8 2595.3,565.0" fill="none" stroke="#FAFCFF" stroke-opacity="0.07342138364779874" stroke-width="2.5"/><polyline points="-445.1,723.1 -191.7,818.5 61.6,725.3 315.0,740.4 568.4,788.9 821.7,827.7 1075.1,688.6 1328.5,817.9 1581.8,708.9 1835.2,787.2 2088.6,703.2 2342.0,807.6 2595.3,697.5" fill="none" stroke="#FAFCFF" stroke-opacity="0.09036477987421383" stroke-width="3.5"/><polyline points="-445.1,1020.6 -191.7,1036.2 61.6,1099.3 315.0,1164.9 568.4,1170.3 821.7,1011.6 1075.1,1138.0 1328.5,1196.4 1581.8,1118.5 1835.2,1192.3 2088.6,1058.0 2342.0,1109.5 2595.3,1177.3" fill="none" stroke="#FAFCFF" stroke-opacity="0.10730817610062893" stroke-width="4.5"/><polyline points="-445.1,1569.2 -191.7,1465.8 61.6,1609.4 315.0,1570.6 568.4,1665.2 821.7,1582.6 1075.1,1522.7 1328.5,1581.6 1581.8,1474.4 1835.2,1495.5 2088.6,1581.7 2342.0,1511.0 2595.3,1449.7" fill="none" stroke="#FAFCFF" stroke-opacity="0.12425157232704402" stroke-width="5.5"/><circle cx="1288.8" cy="1051.1" r="3.2233700202446154" fill="#3B82F6" fill-opacity="0.40"/><circle cx="-103.0" cy="632.1" r="3.2178640980384894" fill="#3B82F6" fill-opacity="0.25"/><circle cx="1285.4" cy="766.0" r="8.999473644650479" fill="#FF6A1A" fill-opacity="0.25"/><circle cx="1512.9" cy="844.8" r="3.6793301796285625" fill="#3B82F6" fill-opacity="0.29"/><circle cx="2000.2" cy="958.5" r="5.5236193029348915" fill="#FF6A1A" fill-opacity="0.25"/><circle cx="254.3" cy="595.0" r="8.773087689751353" fill="#3B82F6" fill-opacity="0.42"/><circle cx="1203.2" cy="897.0" r="3.8693756238962447" fill="#3B82F6" fill-opacity="0.39"/><circle cx="-30.6" cy="1055.0" r="7.11466019154958" fill="#3B82F6" fill-opacity="0.31"/><circle cx="170.1" cy="396.3" r="6.037708725453309" fill="#3B82F6" fill-opacity="0.38"/><circle cx="1851.4" cy="985.6" r="7.029391361821473" fill="#3B82F6" fill-opacity="0.42"/><circle cx="339.7" cy="1129.1" r="6.0085643866140686" fill="#FF6A1A" fill-opacity="0.22"/><circle cx="1570.3" cy="1151.0" r="8.506129886863823" fill="#FF6A1A" fill-opacity="0.25"/><circle cx="2440.4" cy="675.6" r="5.440371297222151" fill="#FF6A1A" fill-opacity="0.28"/><circle cx="1036.7" cy="700.9" r="8.80154386131764" fill="#3B82F6" fill-opacity="0.26"/><circle cx="2007.0" cy="858.4" r="6.012048535030873" fill="#3B82F6" fill-opacity="0.34"/><circle cx="1353.2" cy="911.4" r="3.6896478395664065" fill="#3B82F6" fill-opacity="0.38"/><circle cx="2569.7" cy="1118.0" r="3.744461837071549" fill="#FF6A1A" fill-opacity="0.21"/><circle cx="1275.9" cy="893.7" r="3.359250964911942" fill="#3B82F6" fill-opacity="0.30"/><g opacity="1.00"><line x1="0" y1="842.4" x2="1920" y2="561.6" stroke="#FAFCFF" stroke-opacity="0.5" stroke-width="6"/><line x1="-32" y1="833" x2="-32" y2="861" stroke="#3B82F6" stroke-opacity="0.8" stroke-width="3"/><line x1="48" y1="821" x2="48" y2="849" stroke="#3B82F6" stroke-opacity="0.8" stroke-width="3"/><line x1="128" y1="810" x2="128" y2="838" stroke="#3B82F6" stroke-opacity="0.8" stroke-width="3"/><line x1="208" y1="798" x2="208" y2="826" stroke="#3B82F6" stroke-opacity="0.8" stroke-width="3"/><line x1="288" y1="786" x2="288" y2="814" stroke="#3B82F6" stroke-opacity="0.8" stroke-width="3"/><line x1="368" y1="775" x2="368" y2="803" stroke="#3B82F6" stroke-opacity="0.8" stroke-width="3"/><line x1="448" y1="763" x2="448" y2="791" stroke="#3B82F6" stroke-opacity="0.8" stroke-width="3"/><line x1="528" y1="751" x2="528" y2="779" stroke="#3B82F6" stroke-opacity="0.8" stroke-width="3"/><line x1="608" y1="739" x2="608" y2="767" stroke="#3B82F6" stroke-opacity="0.8" stroke-width="3"/><line x1="688" y1="728" x2="688" y2="756" stroke="#3B82F6" stroke-opacity="0.8" stroke-width="3"/><line x1="768" y1="716" x2="768" y2="744" stroke="#3B82F6" stroke-opacity="0.8" stroke-width="3"/><line x1="848" y1="704" x2="848" y2="732" stroke="#3B82F6" stroke-opacity="0.8" stroke-width="3"/><line x1="928" y1="693" x2="928" y2="721" stroke="#3B82F6" stroke-opacity="0.8" stroke-width="3"/><line x1="1008" y1="681" x2="1008" y2="709" stroke="#3B82F6" stroke-opacity="0.8" stroke-width="3"/><line x1="1088" y1="669" x2="1088" y2="697" stroke="#3B82F6" stroke-opacity="0.8" stroke-width="3"/><line x1="1168" y1="658" x2="1168" y2="686" stroke="#3B82F6" stroke-opacity="0.8" stroke-width="3"/><line x1="1248" y1="646" x2="1248" y2="674" stroke="#3B82F6" stroke-opacity="0.8" stroke-width="3"/><line x1="1328" y1="634" x2="1328" y2="662" stroke="#3B82F6" stroke-opacity="0.8" stroke-width="3"/><line x1="1408" y1="622" x2="1408" y2="650" stroke="#3B82F6" stroke-opacity="0.8" stroke-width="3"/><line x1="1488" y1="611" x2="1488" y2="639" stroke="#3B82F6" stroke-opacity="0.8" stroke-width="3"/><line x1="1568" y1="599" x2="1568" y2="627" stroke="#3B82F6" stroke-opacity="0.8" stroke-width="3"/><line x1="1648" y1="587" x2="1648" y2="615" stroke="#3B82F6" stroke-opacity="0.8" stroke-width="3"/><line x1="1728" y1="576" x2="1728" y2="604" stroke="#3B82F6" stroke-opacity="0.8" stroke-width="3"/><line x1="1808" y1="564" x2="1808" y2="592" stroke="#3B82F6" stroke-opacity="0.8" stroke-width="3"/><line x1="1888" y1="552" x2="1888" y2="580" stroke="#3B82F6" stroke-opacity="0.8" stroke-width="3"/><line x1="1968" y1="541" x2="1968" y2="569" stroke="#3B82F6" stroke-opacity="0.8" stroke-width="3"/><line x1="2048" y1="529" x2="2048" y2="557" stroke="#3B82F6" stroke-opacity="0.8" stroke-width="3"/></g></svg>