<svg xmlns="http://www.w3.org/2000/svg" width="1920" height="1080" viewBox="0 0 1920 1080"><rect width="1920" height="1080" fill="#0A1F44"/><polyline points="-1325.6,198.0 -933.5,263.3 -541.4,179.2 -149.3,216.1 242.8,241.2 634.9,176.0 1027.0,265.1 1419.1,192.2 1811.2,192.1 2203.3,256.9 2595.4,247.7 2987.5,172.5 3379.6,281.8" fill="none" stroke="#FAFCFF" stroke-opacity="0" stroke-width="1.5"/><polyline points="-1325.6,465.5 -933.5,340.1 -541.4,454.7 -149.3,399.7 242.8,380.2 634.9,491.0 1027.0,308.7 1419.1,326.4 1811.2,356.0 2203.3,355.9 2595.4,465.5 2987.5,496.6 3379.6,441.2" fill="none" stroke="#FAFCFF" stroke-opacity="0" stroke-width="2.5"/><polyline points="-1325.6,685.8 -933.5,833.4 -541.4,689.3 -149.3,712.7 242.8,787.7 634.9,847.7 1027.0,632.5 1419.1,832.6 1811.2,663.9 2203.3,785.0 2595.4,655.0 2987.5,816.6 3379.6,646.3" fill="none" stroke="#FAFCFF" stroke-opacity="0" stroke-width="3.5"/><polyline points="-1325.6,1146.2 -933.5,1170.5 -541.4,1268.1 -149.3,1369.6 242.8,1377.9 634.9,1132.4 1027.0,1327.9 1419.1,1418.3 1811.2,1297.8 2203.3,1411.9 2595.4,1204.2 2987.5,1283.8 3379.6,1388.8" fill="none" stroke="#FAFCFF" stroke-opacity="0" stroke-width="4.5"/><polyline points="-1325.6,1995.3 -933.5,1835.3 -541.4,2057.5 -149.3,1997.4 242.8,2143.7 634.9,2016.0 1027.0,1923.2 1419.1,2014.5 1811.2,1848.6 2203.3,1881.2 2595.4,2014.6 2987.5,1905.2 3379.6,1810.4" fill="none" stroke="#FAFCFF" stroke-opacity="0" stroke-width="5.5"/><g opacity="1.00"><rect x="422.4" y="216" width="1075.2" height="540" fill="none" stroke="#FAFCFF" stroke-opacity="0.6" stroke-width="2"/><rect x="442.4" y="236" width="318.40000000000003" height="189" fill="#3B82F6" fill-opacity="0.14"/><rect x="800.8" y="236" width="318.40000000000003" height="189" fill="#3B82F6" fill-opacity="0.2"/><rect x="1159.2" y="236" width="318.40000000000003" height="189" fill="#3B82F6" fill-opacity="0.26"/></g><g opacity="1.00"><rect x="460.79999999999995" y="324" width="517.9707771018149" height="10" fill="#3B82F6" fill-opacity="0.9"/><rect x="460.79999999999995" y="358" width="559.0618132464589" height="10" fill="#FAFCFF" fill-opacity="0.4"/><rect x="460.79999999999995" y="392" width="352.0004768371582" height="10" fill="#FAFCFF" fill-opacity="0.4"/><rect x="460.79999999999995" y="426" width="493.0137858130038" height="10" fill="#3B82F6" fill-opacity="0.9"/><rect x="460.79999999999995" y="460" width="575.1368051692843" height="10" fill="#FAFCFF" fill-opacity="0.4"/><rect x="460.79999999999995" y="494" width="457.9308180771768" height="10" fill="#FAFCFF" fill-opacity="0.4"/><rect x="460.79999999999995" y="528" width="514.2663277834654" height="10" fill="#3B82F6" fill-opacity="0.9"/></g></svg>