<svg xmlns="http://www.w3.org/2000/svg" width="1920" height="1080" viewBox="0 0 1920 1080"><rect width="1920" height="1080" fill="#0A1F44"/><polyline points="-860.7,303.1 -538.0,356.8 -215.4,287.6 107.2,317.9 429.8,338.6 752.5,285.0 1075.1,358.3 1397.7,298.3 1720.4,298.2 2043.0,351.6 2365.6,344.0 2688.3,282.1 3010.9,372.1" fill="none" stroke="#FAFCFF" stroke-opacity="0" stroke-width="1.5"/><polyline points="-860.7,523.2 -538.0,420.0 -215.4,514.3 107.2,469.0 429.8,453.0 752.5,544.1 1075.1,394.2 1397.7,408.7 1720.4,433.1 2043.0,433.0 2365.6,523.1 2688.3,548.8 3010.9,503.2" fill="none" stroke="#FAFCFF" stroke-opacity="0" stroke-width="2.5"/><polyline points="-860.7,704.5 -538.0,825.9 -215.4,707.3 107.2,726.6 429.8,788.3 752.5,837.7 1075.1,660.6 1397.7,825.3 1720.4,686.4 2043.0,786.1 2365.6,679.2 2688.3,812.1 3010.9,671.9" fill="none" stroke="#FAFCFF" stroke-opacity="0" stroke-width="3.5"/><polyline points="-860.7,1083.3 -538.0,1103.2 -215.4,1183.6 107.2,1267.1 429.8,1274.0 752.5,1071.9 1075.1,1232.8 1397.7,1307.2 1720.4,1208.0 2043.0,1302.0 2365.6,1131.0 2688.3,1196.5 3010.9,1282.9" fill="none" stroke="#FAFCFF" stroke-opacity="0" stroke-width="4.5"/><polyline points="-860.7,1781.9 -538.0,1650.3 -215.4,1833.1 107.2,1783.7 429.8,1904.1 752.5,1799.0 1075.1,1722.6 1397.7,1797.7 1720.4,1661.2 2043.0,1688.1 2365.6,1797.8 2688.3,1707.8 3010.9,1629.8" fill="none" stroke="#FAFCFF" stroke-opacity="0" stroke-width="5.5"/><g opacity="0.76"><line x1="0" y1="842.4" x2="1920" y2="561.6" stroke="#FAFCFF" stroke-opacity="0.5" stroke-width="6"/><line x1="-28" y1="832" x2="-28" y2="860" stroke="#3B82F6" stroke-opacity="0.8" stroke-width="3"/><line x1="52" y1="821" x2="52" y2="849" stroke="#3B82F6" stroke-opacity="0.8" stroke-width="3"/><line x1="132" y1="809" x2="132" y2="837" stroke="#3B82F6" stroke-opacity="0.8" stroke-width="3"/><line x1="212" y1="797" x2="212" y2="825" stroke="#3B82F6" stroke-opacity="0.8" stroke-width="3"/><line x1="292" y1="786" x2="292" y2="814" stroke="#3B82F6" stroke-opacity="0.8" stroke-width="3"/><line x1="372" y1="774" x2="372" y2="802" stroke="#3B82F6" stroke-opacity="0.8" stroke-width="3"/><line x1="452" y1="762" x2="452" y2="790" stroke="#3B82F6" stroke-opacity="0.8" stroke-width="3"/><line x1="532" y1="751" x2="532" y2="779" stroke="#3B82F6" stroke-opacity="0.8" stroke-width="3"/><line x1="612" y1="739" x2="612" y2="767" stroke="#3B82F6" stroke-opacity="0.8" stroke-width="3"/><line x1="692" y1="727" x2="692" y2="755" stroke="#3B82F6" stroke-opacity="0.8" stroke-width="3"/><line x1="772" y1="715" x2="772" y2="743" stroke="#3B82F6" stroke-opacity="0.8" stroke-width="3"/><line x1="852" y1="704" x2="852" y2="732" stroke="#3B82F6" stroke-opacity="0.8" stroke-width="3"/><line x1="932" y1="692" x2="932" y2="720" stroke="#3B82F6" stroke-opacity="0.8" stroke-width="3"/><line x1="1012" y1="680" x2="1012" y2="708" stroke="#3B82F6" stroke-opacity="0.8" stroke-width="3"/><line x1="1092" y1="669" x2="1092" y2="697" stroke="#3B82F6" stroke-opacity="0.8" stroke-width="3"/><line x1="1172" y1="657" x2="1172" y2="685" stroke="#3B82F6" stroke-opacity="0.8" stroke-width="3"/><line x1="1252" y1="645" x2="1252" y2="673" stroke="#3B82F6" stroke-opacity="0.8" stroke-width="3"/><line x1="1332" y1="634" x2="1332" y2="662" stroke="#3B82F6" stroke-opacity="0.8" stroke-width="3"/><line x1="1412" y1="622" x2="1412" y2="650" stroke="#3B82F6" stroke-opacity="0.8" stroke-width="3"/><line x1="1492" y1="610" x2="1492" y2="638" stroke="#3B82F6" stroke-opacity="0.8" stroke-width="3"/><line x1="1572" y1="598" x2="1572" y2="626" stroke="#3B82F6" stroke-opacity="0.8" stroke-width="3"/><line x1="1652" y1="587" x2="1652" y2="615" stroke="#3B82F6" stroke-opacity="0.8" stroke-width="3"/><line x1="1732" y1="575" x2="1732" y2="603" stroke="#3B82F6" stroke-opacity="0.8" stroke-width="3"/><line x1="1812" y1="563" x2="1812" y2="591" stroke="#3B82F6" stroke-opacity="0.8" stroke-width="3"/><line x1="1892" y1="552" x2="1892" y2="580" stroke="#3B82F6" stroke-opacity="0.8" stroke-width="3"/><line x1="1972" y1="540" x2="1972" y2="568" stroke="#3B82F6" stroke-opacity="0.8" stroke-width="3"/><line x1="2052" y1="528" x2="2052" y2="556" stroke="#3B82F6" stroke-opacity="0.8" stroke-width="3"/></g><g opacity="0.62"><rect x="422.4" y="216" width="1075.2" height="540" fill="none" stroke="#FAFCFF" stroke-opacity="0.6" stroke-width="2"/><rect x="442.4" y="236" width="318.40000000000003" height="189" fill="#3B82F6" fill-opacity="0.14"/><rect x="800.8" y="236" width="318.40000000000003" height="189" fill="#3B82F6" fill-opacity="0.2"/><rect x="1159.2" y="236" width="318.40000000000003" height="189" fill="#3B82F6" fill-opacity="0.26"/></g></svg>