<svg xmlns="http://www.w3.org/2000/svg" width="1920" height="1080" viewBox="0 0 1920 1080"><rect width="1920" height="1080" fill="#0A1F44"/><polyline points="-1336.3,195.8 -942.7,261.3 -549.2,176.9 -155.6,213.9 237.9,239.1 631.5,173.7 1025.1,263.2 1418.6,190.0 1812.2,189.9 2205.7,254.9 2599.3,245.7 2992.8,170.2 3386.4,280.0" fill="none" stroke="#FAFCFF" stroke-opacity="0" stroke-width="1.5"/><polyline points="-1336.3,464.2 -942.7,338.4 -549.2,453.5 -155.6,398.2 237.9,378.7 631.5,489.8 1025.1,306.9 1418.6,324.7 1812.2,354.4 2205.7,354.3 2599.3,464.2 2992.8,495.5 3386.4,439.9" fill="none" stroke="#FAFCFF" stroke-opacity="0" stroke-width="2.5"/><polyline points="-1336.3,685.4 -942.7,833.6 -549.2,688.9 -155.6,712.4 237.9,787.7 631.5,847.9 1025.1,632.0 1418.6,832.8 1812.2,663.4 2205.7,785.0 2599.3,654.5 2992.8,816.7 3386.4,645.7" fill="none" stroke="#FAFCFF" stroke-opacity="0" stroke-width="3.5"/><polyline points="-1336.3,1147.6 -942.7,1171.9 -549.2,1269.9 -155.6,1371.7 237.9,1380.1 631.5,1133.6 1025.1,1329.9 1418.6,1420.6 1812.2,1299.7 2205.7,1414.3 2599.3,1205.7 2992.8,1285.6 3386.4,1391.0" fill="none" stroke="#FAFCFF" stroke-opacity="0" stroke-width="4.5"/><polyline points="-1336.3,1999.8 -942.7,1839.1 -549.2,2062.2 -155.6,2001.9 237.9,2148.8 631.5,2020.6 1025.1,1927.4 1418.6,2019.0 1812.2,1852.5 2205.7,1885.2 2599.3,2019.1 2992.8,1909.4 3386.4,1814.2" fill="none" stroke="#FAFCFF" stroke-opacity="0" stroke-width="5.5"/><g opacity="1.00"><rect x="422.4" y="216" width="1075.2" height="540" fill="none" stroke="#FAFCFF" stroke-opacity="0.6" stroke-width="2"/><rect x="442.4" y="236" width="318.40000000000003" height="189" fill="#3B82F6" fill-opacity="0.14"/><rect x="800.8" y="236" width="318.40000000000003" height="189" fill="#3B82F6" fill-opacity="0.2"/><rect x="1159.2" y="236" width="318.40000000000003" height="189" fill="#3B82F6" fill-opacity="0.26"/></g><g opacity="1.00"><rect x="460.79999999999995" y="324" width="517.9707771018149" height="10" fill="#3B82F6" fill-opacity="0.9"/><rect x="460.79999999999995" y="358" width="559.0618132464589" height="10" fill="#FAFCFF" fill-opacity="0.4"/><rect x="460.79999999999995" y="392" width="352.0004768371582" height="10" fill="#FAFCFF" fill-opacity="0.4"/><rect x="460.79999999999995" y="426" width="493.0137858130038" height="10" fill="#3B82F6" fill-opacity="0.9"/><rect x="460.79999999999995" y="460" width="575.1368051692843" height="10" fill="#FAFCFF" fill-opacity="0.4"/><rect x="460.79999999999995" y="494" width="457.9308180771768" height="10" fill="#FAFCFF" fill-opacity="0.4"/><rect x="460.79999999999995" y="528" width="514.2663277834654" height="10" fill="#3B82F6" fill-opacity="0.9"/><rect x="460.79999999999995" y="562" width="62.676543418415676" height="10" fill="#FAFCFF" fill-opacity="0.4"/></g></svg>