<svg xmlns="http://www.w3.org/2000/svg" width="1920" height="1080" viewBox="0 0 1920 1080"><rect width="1920" height="1080" fill="#0A1F44"/><polyline points="-248.9,461.4 -30.9,497.7 187.0,451.0 405.0,471.5 623.0,485.4 840.9,449.2 1058.9,498.7 1276.8,458.2 1494.8,458.1 1712.7,494.2 1930.7,489.0 2148.6,447.2 2366.6,508.0" fill="none" stroke="#FAFCFF" stroke-opacity="0.09672955974842767" stroke-width="1.5"/><polyline points="-248.9,610.1 -30.9,540.4 187.0,604.1 405.0,573.5 623.0,562.7 840.9,624.3 1058.9,522.9 1276.8,532.8 1494.8,549.2 1712.7,549.2 1930.7,610.1 2148.6,627.4 2366.6,596.6" fill="none" stroke="#FAFCFF" stroke-opacity="0.125748427672956" stroke-width="2.5"/><polyline points="-248.9,732.6 -30.9,814.6 187.0,734.5 405.0,747.5 623.0,789.2 840.9,822.6 1058.9,703.0 1276.8,814.2 1494.8,720.4 1712.7,787.7 1930.7,715.5 2148.6,805.3 2366.6,710.6" fill="none" stroke="#FAFCFF" stroke-opacity="0.15476729559748428" stroke-width="3.5"/><polyline points="-248.9,988.5 -30.9,1002.0 187.0,1056.3 405.0,1112.6 623.0,1117.3 840.9,980.8 1058.9,1089.5 1276.8,1139.7 1494.8,1072.8 1712.7,1136.2 1930.7,1020.7 2148.6,1065.0 2366.6,1123.4" fill="none" stroke="#FAFCFF" stroke-opacity="0.18378616352201257" stroke-width="4.5"/><polyline points="-248.9,1460.5 -30.9,1371.5 187.0,1495.0 405.0,1461.6 623.0,1543.0 840.9,1472.0 1058.9,1420.4 1276.8,1471.1 1494.8,1378.9 1712.7,1397.0 1930.7,1471.2 2148.6,1410.4 2366.6,1357.7" fill="none" stroke="#FAFCFF" stroke-opacity="0.2128050314465409" stroke-width="5.5"/><circle cx="1242.7" cy="1014.7" r="2.772808306887021" fill="#3B82F6" fill-opacity="0.69"/><circle cx="45.5" cy="654.4" r="2.7680720008674404" fill="#3B82F6" fill-opacity="0.69"/><circle cx="1239.7" cy="769.5" r="7.741529865567205" fill="#FF6A1A" fill-opacity="0.69"/><circle cx="1435.5" cy="837.3" r="3.165034489301348" fill="#3B82F6" fill-opacity="0.53"/><circle cx="1854.7" cy="935.1" r="4.751529421402593" fill="#FF6A1A" fill-opacity="0.58"/><circle cx="352.8" cy="622.5" r="7.5467880728582175" fill="#3B82F6" fill-opacity="0.59"/><circle cx="1169.0" cy="882.2" r="3.3285154372663213" fill="#3B82F6" fill-opacity="0.37"/><circle cx="107.7" cy="1018.1" r="6.120175082570877" fill="#3B82F6" fill-opacity="0.72"/><circle cx="280.4" cy="451.5" r="5.1937595756476975" fill="#3B82F6" fill-opacity="0.34"/><circle cx="1726.6" cy="958.4" r="6.04682510478251" fill="#3B82F6" fill-opacity="0.64"/><circle cx="426.3" cy="1081.8" r="5.16868902391934" fill="#FF6A1A" fill-opacity="0.62"/><circle cx="1484.8" cy="1100.7" r="7.317145553139468" fill="#FF6A1A" fill-opacity="0.69"/><circle cx="2233.3" cy="691.7" r="4.679917797443099" fill="#FF6A1A" fill-opacity="0.71"/><circle cx="1025.8" cy="713.5" r="7.571266649132626" fill="#3B82F6" fill-opacity="0.57"/><circle cx="1860.5" cy="849.0" r="5.171686159095217" fill="#3B82F6" fill-opacity="0.43"/><circle cx="1298.1" cy="894.6" r="3.173909949767757" fill="#3B82F6" fill-opacity="0.71"/><circle cx="2344.5" cy="1072.3" r="3.221062062823772" fill="#FF6A1A" fill-opacity="0.66"/><circle cx="1231.6" cy="879.3" r="2.889695853074668" fill="#3B82F6" fill-opacity="0.72"/><g opacity="1.00"><line x1="0" y1="842.4" x2="1920" y2="561.6" stroke="#FAFCFF" stroke-opacity="0.5" stroke-width="6"/><line x1="-43" y1="835" x2="-43" y2="863" stroke="#3B82F6" stroke-opacity="0.8" stroke-width="3"/><line x1="37" y1="823" x2="37" y2="851" stroke="#3B82F6" stroke-opacity="0.8" stroke-width="3"/><line x1="117" y1="811" x2="117" y2="839" stroke="#3B82F6" stroke-opacity="0.8" stroke-width="3"/><line x1="197" y1="800" x2="197" y2="828" stroke="#3B82F6" stroke-opacity="0.8" stroke-width="3"/><line x1="277" y1="788" x2="277" y2="816" stroke="#3B82F6" stroke-opacity="0.8" stroke-width="3"/><line x1="357" y1="776" x2="357" y2="804" stroke="#3B82F6" stroke-opacity="0.8" stroke-width="3"/><line x1="437" y1="764" x2="437" y2="792" stroke="#3B82F6" stroke-opacity="0.8" stroke-width="3"/><line x1="517" y1="753" x2="517" y2="781" stroke="#3B82F6" stroke-opacity="0.8" stroke-width="3"/><line x1="597" y1="741" x2="597" y2="769" stroke="#3B82F6" stroke-opacity="0.8" stroke-width="3"/><line x1="677" y1="729" x2="677" y2="757" stroke="#3B82F6" stroke-opacity="0.8" stroke-width="3"/><line x1="757" y1="718" x2="757" y2="746" stroke="#3B82F6" stroke-opacity="0.8" stroke-width="3"/><line x1="837" y1="706" x2="837" y2="734" stroke="#3B82F6" stroke-opacity="0.8" stroke-width="3"/><line x1="917" y1="694" x2="917" y2="722" stroke="#3B82F6" stroke-opacity="0.8" stroke-width="3"/><line x1="997" y1="683" x2="997" y2="711" stroke="#3B82F6" stroke-opacity="0.8" stroke-width="3"/><line x1="1077" y1="671" x2="1077" y2="699" stroke="#3B82F6" stroke-opacity="0.8" stroke-width="3"/><line x1="1157" y1="659" x2="1157" y2="687" stroke="#3B82F6" stroke-opacity="0.8" stroke-width="3"/><line x1="1237" y1="647" x2="1237" y2="675" stroke="#3B82F6" stroke-opacity="0.8" stroke-width="3"/><line x1="1317" y1="636" x2="1317" y2="664" stroke="#3B82F6" stroke-opacity="0.8" stroke-width="3"/><line x1="1397" y1="624" x2="1397" y2="652" stroke="#3B82F6" stroke-opacity="0.8" stroke-width="3"/><line x1="1477" y1="612" x2="1477" y2="640" stroke="#3B82F6" stroke-opacity="0.8" stroke-width="3"/><line x1="1557" y1="601" x2="1557" y2="629" stroke="#3B82F6" stroke-opacity="0.8" stroke-width="3"/><line x1="1637" y1="589" x2="1637" y2="617" stroke="#3B82F6" stroke-opacity="0.8" stroke-width="3"/><line x1="1717" y1="577" x2="1717" y2="605" stroke="#3B82F6" stroke-opacity="0.8" stroke-width="3"/><line x1="1797" y1="566" x2="1797" y2="594" stroke="#3B82F6" stroke-opacity="0.8" stroke-width="3"/><line x1="1877" y1="554" x2="1877" y2="582" stroke="#3B82F6" stroke-opacity="0.8" stroke-width="3"/><line x1="1957" y1="542" x2="1957" y2="570" stroke="#3B82F6" stroke-opacity="0.8" stroke-width="3"/><line x1="2037" y1="530" x2="2037" y2="558" stroke="#3B82F6" stroke-opacity="0.8" stroke-width="3"/></g></svg>