<svg xmlns="http://www.w3.org/2000/svg" width="1920" height="1080" viewBox="0 0 1920 1080"><rect width="1920" height="1080" fill="#0A1F44"/><polyline points="-418.7,414.9 -169.9,456.3 78.8,402.9 327.5,426.3 576.2,442.3 825.0,400.9 1073.7,457.4 1322.4,411.2 1571.1,411.1 1819.8,452.3 2068.6,446.4 2317.3,398.7 2566.0,468.1" fill="none" stroke="#FAFCFF" stroke-opacity="0.06150943396226415" stroke-width="1.5"/><polyline points="-418.7,584.5 -169.9,505.0 78.8,577.7 327.5,542.8 576.2,530.4 825.0,600.7 1073.7,485.1 1322.4,496.3 1571.1,515.1 1819.8,515.0 2068.6,584.5 2317.3,604.3 2566.0,569.2" fill="none" stroke="#FAFCFF" stroke-opacity="0.0799622641509434" stroke-width="2.5"/><polyline points="-418.7,724.3 -169.9,818.0 78.8,726.5 327.5,741.4 576.2,788.9 825.0,827.0 1073.7,690.5 1322.4,817.5 1571.1,710.4 1819.8,787.2 2068.6,704.8 2317.3,807.3 2566.0,699.2" fill="none" stroke="#FAFCFF" stroke-opacity="0.09841509433962264" stroke-width="3.5"/><polyline points="-418.7,1016.4 -169.9,1031.7 78.8,1093.7 327.5,1158.0 576.2,1163.3 825.0,1007.6 1073.7,1131.6 1322.4,1189.0 1571.1,1112.5 1819.8,1184.9 2068.6,1053.1 2317.3,1103.6 2566.0,1170.3" fill="none" stroke="#FAFCFF" stroke-opacity="0.11686792452830189" stroke-width="4.5"/><polyline points="-418.7,1555.0 -169.9,1453.5 78.8,1594.4 327.5,1556.3 576.2,1649.1 825.0,1568.1 1073.7,1509.3 1322.4,1567.1 1571.1,1461.9 1819.8,1482.6 2068.6,1567.2 2317.3,1497.8 2566.0,1437.7" fill="none" stroke="#FAFCFF" stroke-opacity="0.13532075471698113" stroke-width="5.5"/><circle cx="1283.4" cy="1046.3" r="3.164259398410046" fill="#3B82F6" fill-opacity="0.45"/><circle cx="-82.8" cy="635.1" r="3.158854444595179" fill="#3B82F6" fill-opacity="0.30"/><circle cx="1280.1" cy="766.4" r="8.834440005949968" fill="#FF6A1A" fill-opacity="0.30"/><circle cx="1503.5" cy="843.9" r="3.611858094982184" fill="#3B82F6" fill-opacity="0.28"/><circle cx="1981.8" cy="955.4" r="5.422326379775814" fill="#FF6A1A" fill-opacity="0.25"/><circle cx="267.9" cy="598.6" r="8.612205549167612" fill="#3B82F6" fill-opacity="0.46"/><circle cx="1199.4" cy="895.1" r="3.7984184586302248" fill="#3B82F6" fill-opacity="0.40"/><circle cx="-11.8" cy="1050.2" r="6.984190532334893" fill="#3B82F6" fill-opacity="0.36"/><circle cx="185.3" cy="403.5" r="5.926988356716224" fill="#3B82F6" fill-opacity="0.39"/><circle cx="1835.7" cy="982.0" r="6.900485374638443" fill="#3B82F6" fill-opacity="0.46"/><circle cx="351.8" cy="1122.9" r="5.898378470943471" fill="#FF6A1A" fill-opacity="0.22"/><circle cx="1559.7" cy="1144.4" r="8.350143256765435" fill="#FF6A1A" fill-opacity="0.30"/><circle cx="2413.9" cy="677.7" r="5.340604987934041" fill="#FF6A1A" fill-opacity="0.33"/><circle cx="1036.0" cy="702.6" r="8.640139887377584" fill="#3B82F6" fill-opacity="0.25"/><circle cx="1988.5" cy="857.2" r="5.9017987265467955" fill="#3B82F6" fill-opacity="0.34"/><circle cx="1346.6" cy="909.2" r="3.621986548191985" fill="#3B82F6" fill-opacity="0.43"/><circle cx="2540.9" cy="1112.0" r="3.675795358747625" fill="#FF6A1A" fill-opacity="0.26"/><circle cx="1270.8" cy="891.8" r="3.2976485388214827" fill="#3B82F6" fill-opacity="0.35"/><g opacity="1.00"><line x1="0" y1="842.4" x2="1920" y2="561.6" stroke="#FAFCFF" stroke-opacity="0.5" stroke-width="6"/><line x1="-43" y1="835" x2="-43" y2="863" stroke="#3B82F6" stroke-opacity="0.8" stroke-width="3"/><line x1="37" y1="823" x2="37" y2="851" stroke="#3B82F6" stroke-opacity="0.8" stroke-width="3"/><line x1="117" y1="811" x2="117" y2="839" stroke="#3B82F6" stroke-opacity="0.8" stroke-width="3"/><line x1="197" y1="800" x2="197" y2="828" stroke="#3B82F6" stroke-opacity="0.8" stroke-width="3"/><line x1="277" y1="788" x2="277" y2="816" stroke="#3B82F6" stroke-opacity="0.8" stroke-width="3"/><line x1="357" y1="776" x2="357" y2="804" stroke="#3B82F6" stroke-opacity="0.8" stroke-width="3"/><line x1="437" y1="765" x2="437" y2="793" stroke="#3B82F6" stroke-opacity="0.8" stroke-width="3"/><line x1="517" y1="753" x2="517" y2="781" stroke="#3B82F6" stroke-opacity="0.8" stroke-width="3"/><line x1="597" y1="741" x2="597" y2="769" stroke="#3B82F6" stroke-opacity="0.8" stroke-width="3"/><line x1="677" y1="729" x2="677" y2="757" stroke="#3B82F6" stroke-opacity="0.8" stroke-width="3"/><line x1="757" y1="718" x2="757" y2="746" stroke="#3B82F6" stroke-opacity="0.8" stroke-width="3"/><line x1="837" y1="706" x2="837" y2="734" stroke="#3B82F6" stroke-opacity="0.8" stroke-width="3"/><line x1="917" y1="694" x2="917" y2="722" stroke="#3B82F6" stroke-opacity="0.8" stroke-width="3"/><line x1="997" y1="683" x2="997" y2="711" stroke="#3B82F6" stroke-opacity="0.8" stroke-width="3"/><line x1="1077" y1="671" x2="1077" y2="699" stroke="#3B82F6" stroke-opacity="0.8" stroke-width="3"/><line x1="1157" y1="659" x2="1157" y2="687" stroke="#3B82F6" stroke-opacity="0.8" stroke-width="3"/><line x1="1237" y1="648" x2="1237" y2="676" stroke="#3B82F6" stroke-opacity="0.8" stroke-width="3"/><line x1="1317" y1="636" x2="1317" y2="664" stroke="#3B82F6" stroke-opacity="0.8" stroke-width="3"/><line x1="1397" y1="624" x2="1397" y2="652" stroke="#3B82F6" stroke-opacity="0.8" stroke-width="3"/><line x1="1477" y1="612" x2="1477" y2="640" stroke="#3B82F6" stroke-opacity="0.8" stroke-width="3"/><line x1="1557" y1="601" x2="1557" y2="629" stroke="#3B82F6" stroke-opacity="0.8" stroke-width="3"/><line x1="1637" y1="589" x2="1637" y2="617" stroke="#3B82F6" stroke-opacity="0.8" stroke-width="3"/><line x1="1717" y1="577" x2="1717" y2="605" stroke="#3B82F6" stroke-opacity="0.8" stroke-width="3"/><line x1="1797" y1="566" x2="1797" y2="594" stroke="#3B82F6" stroke-opacity="0.8" stroke-width="3"/><line x1="1877" y1="554" x2="1877" y2="582" stroke="#3B82F6" stroke-opacity="0.8" stroke-width="3"/><line x1="1957" y1="542" x2="1957" y2="570" stroke="#3B82F6" stroke-opacity="0.8" stroke-width="3"/><line x1="2037" y1="531" x2="2037" y2="559" stroke="#3B82F6" stroke-opacity="0.8" stroke-width="3"/></g></svg>