<svg xmlns="http://www.w3.org/2000/svg" width="1920" height="1080" viewBox="0 0 1920 1080"><rect width="1920" height="1080" fill="#0A1F44"/><polyline points="-106.0,503.6 84.1,535.2 274.2,494.4 464.4,512.3 654.5,524.5 844.6,492.9 1034.7,536.1 1224.8,500.7 1414.9,500.7 1605.0,532.1 1795.1,527.6 1985.2,491.2 2175.4,544.2" fill="none" stroke="#FAFCFF" stroke-opacity="0.1" stroke-width="1.5"/><polyline points="-106.0,633.2 84.1,572.4 274.2,628.0 464.4,601.3 654.5,591.9 844.6,645.6 1034.7,557.2 1224.8,565.8 1414.9,580.1 1605.0,580.1 1795.1,633.2 1985.2,648.3 2175.4,621.5" fill="none" stroke="#FAFCFF" stroke-opacity="0.13" stroke-width="2.5"/><polyline points="-106.0,740.1 84.1,811.6 274.2,741.7 464.4,753.1 654.5,789.5 844.6,818.6 1034.7,714.2 1224.8,811.2 1414.9,729.4 1605.0,788.1 1795.1,725.1 1985.2,803.5 2175.4,720.9" fill="none" stroke="#FAFCFF" stroke-opacity="0.16" stroke-width="3.5"/><polyline points="-106.0,963.3 84.1,975.0 274.2,1022.4 464.4,1071.6 654.5,1075.6 844.6,956.6 1034.7,1051.4 1224.8,1095.2 1414.9,1036.8 1605.0,1092.1 1795.1,991.4 1985.2,1030.0 2175.4,1080.9" fill="none" stroke="#FAFCFF" stroke-opacity="0.19" stroke-width="4.5"/><polyline points="-106.0,1375.0 84.1,1297.4 274.2,1405.1 464.4,1376.0 654.5,1446.9 844.6,1385.0 1034.7,1340.0 1224.8,1384.3 1414.9,1303.8 1605.0,1319.6 1795.1,1384.3 1985.2,1331.3 2175.4,1285.3" fill="none" stroke="#FAFCFF" stroke-opacity="0.22" stroke-width="5.5"/><circle cx="1195.0" cy="986.1" r="2.4185991109260603" fill="#3B82F6" fill-opacity="0.46"/><circle cx="150.7" cy="671.8" r="2.414467838850894" fill="#3B82F6" fill-opacity="0.71"/><circle cx="1192.5" cy="772.2" r="6.7525970704729605" fill="#FF6A1A" fill-opacity="0.71"/><circle cx="1363.2" cy="831.4" r="2.760720812492308" fill="#3B82F6" fill-opacity="0.74"/><circle cx="1728.8" cy="916.7" r="4.144550781097893" fill="#FF6A1A" fill-opacity="0.75"/><circle cx="418.8" cy="644.0" r="6.5827323432445235" fill="#3B82F6" fill-opacity="0.41"/><circle cx="1130.8" cy="870.6" r="2.903318075497963" fill="#3B82F6" fill-opacity="0.63"/><circle cx="205.0" cy="989.1" r="5.338360382379247" fill="#3B82F6" fill-opacity="0.65"/><circle cx="355.6" cy="494.9" r="4.530288754842894" fill="#3B82F6" fill-opacity="0.65"/><circle cx="1617.1" cy="937.0" r="5.274380412821035" fill="#3B82F6" fill-opacity="0.36"/><circle cx="482.9" cy="1044.7" r="4.508420811801167" fill="#FF6A1A" fill-opacity="0.75"/><circle cx="1406.2" cy="1061.2" r="6.38242524208536" fill="#FF6A1A" fill-opacity="0.72"/><circle cx="2059.1" cy="704.4" r="4.082087101365611" fill="#FF6A1A" fill-opacity="0.69"/><circle cx="1005.9" cy="723.4" r="6.604083932053232" fill="#3B82F6" fill-opacity="0.75"/><circle cx="1733.9" cy="841.6" r="4.511035081404189" fill="#3B82F6" fill-opacity="0.71"/><circle cx="1243.3" cy="881.3" r="2.768462487508139" fill="#3B82F6" fill-opacity="0.52"/><circle cx="2156.1" cy="1036.4" r="2.809591208318845" fill="#FF6A1A" fill-opacity="0.74"/><circle cx="1185.4" cy="868.1" r="2.5205549924724333" fill="#3B82F6" fill-opacity="0.67"/><g opacity="0.63"><line x1="0" y1="842.4" x2="1920" y2="561.6" stroke="#FAFCFF" stroke-opacity="0.5" stroke-width="6"/><line x1="-48" y1="835" x2="-48" y2="863" stroke="#3B82F6" stroke-opacity="0.8" stroke-width="3"/><line x1="32" y1="824" x2="32" y2="852" stroke="#3B82F6" stroke-opacity="0.8" stroke-width="3"/><line x1="112" y1="812" x2="112" y2="840" stroke="#3B82F6" stroke-opacity="0.8" stroke-width="3"/><line x1="192" y1="800" x2="192" y2="828" stroke="#3B82F6" stroke-opacity="0.8" stroke-width="3"/><line x1="272" y1="789" x2="272" y2="817" stroke="#3B82F6" stroke-opacity="0.8" stroke-width="3"/><line x1="352" y1="777" x2="352" y2="805" stroke="#3B82F6" stroke-opacity="0.8" stroke-width="3"/><line x1="432" y1="765" x2="432" y2="793" stroke="#3B82F6" stroke-opacity="0.8" stroke-width="3"/><line x1="512" y1="753" x2="512" y2="781" stroke="#3B82F6" stroke-opacity="0.8" stroke-width="3"/><line x1="592" y1="742" x2="592" y2="770" stroke="#3B82F6" stroke-opacity="0.8" stroke-width="3"/><line x1="672" y1="730" x2="672" y2="758" stroke="#3B82F6" stroke-opacity="0.8" stroke-width="3"/><line x1="752" y1="718" x2="752" y2="746" stroke="#3B82F6" stroke-opacity="0.8" stroke-width="3"/><line x1="832" y1="707" x2="832" y2="735" stroke="#3B82F6" stroke-opacity="0.8" stroke-width="3"/><line x1="912" y1="695" x2="912" y2="723" stroke="#3B82F6" stroke-opacity="0.8" stroke-width="3"/><line x1="992" y1="683" x2="992" y2="711" stroke="#3B82F6" stroke-opacity="0.8" stroke-width="3"/><line x1="1072" y1="672" x2="1072" y2="700" stroke="#3B82F6" stroke-opacity="0.8" stroke-width="3"/><line x1="1152" y1="660" x2="1152" y2="688" stroke="#3B82F6" stroke-opacity="0.8" stroke-width="3"/><line x1="1232" y1="648" x2="1232" y2="676" stroke="#3B82F6" stroke-opacity="0.8" stroke-width="3"/><line x1="1312" y1="636" x2="1312" y2="664" stroke="#3B82F6" stroke-opacity="0.8" stroke-width="3"/><line x1="1392" y1="625" x2="1392" y2="653" stroke="#3B82F6" stroke-opacity="0.8" stroke-width="3"/><line x1="1472" y1="613" x2="1472" y2="641" stroke="#3B82F6" stroke-opacity="0.8" stroke-width="3"/><line x1="1552" y1="601" x2="1552" y2="629" stroke="#3B82F6" stroke-opacity="0.8" stroke-width="3"/><line x1="1632" y1="590" x2="1632" y2="618" stroke="#3B82F6" stroke-opacity="0.8" stroke-width="3"/><line x1="1712" y1="578" x2="1712" y2="606" stroke="#3B82F6" stroke-opacity="0.8" stroke-width="3"/><line x1="1792" y1="566" x2="1792" y2="594" stroke="#3B82F6" stroke-opacity="0.8" stroke-width="3"/><line x1="1872" y1="555" x2="1872" y2="583" stroke="#3B82F6" stroke-opacity="0.8" stroke-width="3"/><line x1="1952" y1="543" x2="1952" y2="571" stroke="#3B82F6" stroke-opacity="0.8" stroke-width="3"/><line x1="2032" y1="531" x2="2032" y2="559" stroke="#3B82F6" stroke-opacity="0.8" stroke-width="3"/></g></svg>