<svg xmlns="http://www.w3.org/2000/svg" width="1920" height="1080" viewBox="0 0 1920 1080"><rect width="1920" height="1080" fill="#0A1F44"/><polyline points="-1195.4,225.9 -821.6,288.0 -447.9,207.9 -74.2,243.0 299.5,267.0 673.2,204.8 1046.9,289.8 1420.6,220.3 1794.3,220.2 2168.1,282.0 2541.8,273.2 2915.5,201.5 3289.2,305.7" fill="none" stroke="#FAFCFF" stroke-opacity="0" stroke-width="1.5"/><polyline points="-1195.4,480.7 -821.6,361.2 -447.9,470.5 -74.2,418.0 299.5,399.5 673.2,505.0 1046.9,331.3 1420.6,348.2 1794.3,376.4 2168.1,376.3 2541.8,480.7 2915.5,510.4 3289.2,457.7" fill="none" stroke="#FAFCFF" stroke-opacity="0" stroke-width="2.5"/><polyline points="-1195.4,690.8 -821.6,831.4 -447.9,694.1 -74.2,716.4 299.5,787.9 673.2,845.1 1046.9,640.0 1420.6,830.7 1794.3,669.8 2168.1,785.3 2541.8,661.4 2915.5,815.4 3289.2,653.1" fill="none" stroke="#FAFCFF" stroke-opacity="0" stroke-width="3.5"/><polyline points="-1195.4,1129.6 -821.6,1152.7 -447.9,1245.7 -74.2,1342.4 299.5,1350.4 673.2,1116.4 1046.9,1302.7 1420.6,1388.9 1794.3,1274.0 2168.1,1382.8 2541.8,1184.8 2915.5,1260.7 3289.2,1360.8" fill="none" stroke="#FAFCFF" stroke-opacity="0" stroke-width="4.5"/><polyline points="-1195.4,1938.8 -821.6,1786.3 -447.9,1998.1 -74.2,1940.8 299.5,2080.3 673.2,1958.6 1046.9,1870.1 1420.6,1957.1 1794.3,1799.0 2168.1,1830.1 2541.8,1957.2 2915.5,1853.0 3289.2,1762.6" fill="none" stroke="#FAFCFF" stroke-opacity="0" stroke-width="5.5"/><g opacity="1.00"><rect x="422.4" y="216" width="1075.2" height="540" fill="none" stroke="#FAFCFF" stroke-opacity="0.6" stroke-width="2"/><rect x="442.4" y="236" width="318.40000000000003" height="189" fill="#3B82F6" fill-opacity="0.14"/><rect x="800.8" y="236" width="318.40000000000003" height="189" fill="#3B82F6" fill-opacity="0.2"/><rect x="1159.2" y="236" width="318.40000000000003" height="189" fill="#3B82F6" fill-opacity="0.26"/></g><g opacity="0.76"><rect x="460.79999999999995" y="324" width="517.9707771018149" height="10" fill="#3B82F6" fill-opacity="0.9"/><rect x="460.79999999999995" y="358" width="559.0618132464589" height="10" fill="#FAFCFF" fill-opacity="0.4"/><rect x="460.79999999999995" y="392" width="352.0004768371582" height="10" fill="#FAFCFF" fill-opacity="0.4"/><rect x="460.79999999999995" y="426" width="493.0137858130038" height="10" fill="#3B82F6" fill-opacity="0.9"/><rect x="460.79999999999995" y="460" width="291.54733645688117" height="10" fill="#FAFCFF" fill-opacity="0.4"/></g></svg>