<svg xmlns="http://www.w3.org/2000/svg" width="1920" height="1080" viewBox="0 0 1920 1080"><rect width="1920" height="1080" fill="#0A1F44"/><polyline points="-513.1,390.0 -247.9,434.1 17.2,377.3 282.4,402.2 547.6,419.2 812.7,375.1 1077.9,435.4 1343.1,386.1 1608.2,386.0 1873.4,429.9 2138.6,423.6 2403.7,372.7 2668.9,446.7" fill="none" stroke="#FAFCFF" stroke-opacity="0.043899371069182395" stroke-width="1.5"/><polyline points="-513.1,570.9 -247.9,486.1 17.2,563.6 282.4,526.4 547.6,513.2 812.7,588.1 1077.9,464.9 1343.1,476.8 1608.2,496.9 1873.4,496.8 2138.6,570.9 2403.7,592.0 2668.9,554.5" fill="none" stroke="#FAFCFF" stroke-opacity="0.05706918238993711" stroke-width="2.5"/><polyline points="-513.1,719.9 -247.9,819.7 17.2,722.3 282.4,738.1 547.6,788.8 812.7,829.4 1077.9,683.9 1343.1,819.2 1608.2,705.1 1873.4,787.0 2138.6,699.1 2403.7,808.4 2668.9,693.2" fill="none" stroke="#FAFCFF" stroke-opacity="0.07023899371069182" stroke-width="3.5"/><polyline points="-513.1,1031.3 -247.9,1047.6 17.2,1113.7 282.4,1182.3 547.6,1188.0 812.7,1021.9 1077.9,1154.1 1343.1,1215.3 1608.2,1133.8 1873.4,1211.0 2138.6,1070.5 2403.7,1124.3 2668.9,1195.3" fill="none" stroke="#FAFCFF" stroke-opacity="0.08340880503144654" stroke-width="4.5"/><polyline points="-513.1,1605.5 -247.9,1497.2 17.2,1647.5 282.4,1606.9 547.6,1705.9 812.7,1619.5 1077.9,1556.7 1343.1,1618.4 1608.2,1506.3 1873.4,1528.3 2138.6,1618.5 2403.7,1544.5 2668.9,1480.4" fill="none" stroke="#FAFCFF" stroke-opacity="0.09657861635220126" stroke-width="5.5"/><circle cx="1301.5" cy="1063.2" r="3.3734435567502925" fill="#3B82F6" fill-opacity="0.28"/><circle cx="-155.0" cy="624.7" r="3.3676812900314332" fill="#3B82F6" fill-opacity="0.16"/><circle cx="1297.9" cy="764.8" r="9.418470789892847" fill="#FF6A1A" fill-opacity="0.16"/><circle cx="1536.1" cy="847.3" r="3.8506322915676137" fill="#3B82F6" fill-opacity="0.26"/><circle cx="2046.1" cy="966.2" r="5.780787756415623" fill="#FF6A1A" fill-opacity="0.24"/><circle cx="218.9" cy="585.9" r="9.181544766477373" fill="#3B82F6" fill-opacity="0.32"/><circle cx="1211.9" cy="902.0" r="4.049525864265764" fill="#3B82F6" fill-opacity="0.32"/><circle cx="-79.3" cy="1067.3" r="7.445904265073902" fill="#3B82F6" fill-opacity="0.20"/><circle cx="130.8" cy="377.9" r="6.318812134348079" fill="#3B82F6" fill-opacity="0.32"/><circle cx="1890.3" cy="994.6" r="7.35666549247525" fill="#3B82F6" fill-opacity="0.31"/><circle cx="308.3" cy="1144.8" r="6.288310894510424" fill="#FF6A1A" fill-opacity="0.22"/><circle cx="1596.1" cy="1167.8" r="8.902157952546897" fill="#FF6A1A" fill-opacity="0.16"/><circle cx="2506.7" cy="670.2" r="5.6936638932785435" fill="#FF6A1A" fill-opacity="0.17"/><circle cx="1037.7" cy="696.7" r="9.211325799376842" fill="#3B82F6" fill-opacity="0.25"/><circle cx="2053.1" cy="861.5" r="6.291957257774217" fill="#3B82F6" fill-opacity="0.30"/><circle cx="1368.9" cy="917.0" r="3.8614303207170626" fill="#3B82F6" fill-opacity="0.26"/><circle cx="2642.1" cy="1133.2" r="3.918796346194155" fill="#FF6A1A" fill-opacity="0.19"/><circle cx="1288.1" cy="898.5" r="3.5156508411744216" fill="#3B82F6" fill-opacity="0.19"/><g opacity="1.00"><line x1="0" y1="842.4" x2="1920" y2="561.6" stroke="#FAFCFF" stroke-opacity="0.5" stroke-width="6"/><line x1="-4" y1="829" x2="-4" y2="857" stroke="#3B82F6" stroke-opacity="0.8" stroke-width="3"/><line x1="76" y1="817" x2="76" y2="845" stroke="#3B82F6" stroke-opacity="0.8" stroke-width="3"/><line x1="156" y1="806" x2="156" y2="834" stroke="#3B82F6" stroke-opacity="0.8" stroke-width="3"/><line x1="236" y1="794" x2="236" y2="822" stroke="#3B82F6" stroke-opacity="0.8" stroke-width="3"/><line x1="316" y1="782" x2="316" y2="810" stroke="#3B82F6" stroke-opacity="0.8" stroke-width="3"/><line x1="396" y1="770" x2="396" y2="798" stroke="#3B82F6" stroke-opacity="0.8" stroke-width="3"/><line x1="476" y1="759" x2="476" y2="787" stroke="#3B82F6" stroke-opacity="0.8" stroke-width="3"/><line x1="556" y1="747" x2="556" y2="775" stroke="#3B82F6" stroke-opacity="0.8" stroke-width="3"/><line x1="636" y1="735" x2="636" y2="763" stroke="#3B82F6" stroke-opacity="0.8" stroke-width="3"/><line x1="716" y1="724" x2="716" y2="752" stroke="#3B82F6" stroke-opacity="0.8" stroke-width="3"/><line x1="796" y1="712" x2="796" y2="740" stroke="#3B82F6" stroke-opacity="0.8" stroke-width="3"/><line x1="876" y1="700" x2="876" y2="728" stroke="#3B82F6" stroke-opacity="0.8" stroke-width="3"/><line x1="956" y1="689" x2="956" y2="717" stroke="#3B82F6" stroke-opacity="0.8" stroke-width="3"/><line x1="1036" y1="677" x2="1036" y2="705" stroke="#3B82F6" stroke-opacity="0.8" stroke-width="3"/><line x1="1116" y1="665" x2="1116" y2="693" stroke="#3B82F6" stroke-opacity="0.8" stroke-width="3"/><line x1="1196" y1="653" x2="1196" y2="681" stroke="#3B82F6" stroke-opacity="0.8" stroke-width="3"/><line x1="1276" y1="642" x2="1276" y2="670" stroke="#3B82F6" stroke-opacity="0.8" stroke-width="3"/><line x1="1356" y1="630" x2="1356" y2="658" stroke="#3B82F6" stroke-opacity="0.8" stroke-width="3"/><line x1="1436" y1="618" x2="1436" y2="646" stroke="#3B82F6" stroke-opacity="0.8" stroke-width="3"/><line x1="1516" y1="607" x2="1516" y2="635" stroke="#3B82F6" stroke-opacity="0.8" stroke-width="3"/><line x1="1596" y1="595" x2="1596" y2="623" stroke="#3B82F6" stroke-opacity="0.8" stroke-width="3"/><line x1="1676" y1="583" x2="1676" y2="611" stroke="#3B82F6" stroke-opacity="0.8" stroke-width="3"/><line x1="1756" y1="572" x2="1756" y2="600" stroke="#3B82F6" stroke-opacity="0.8" stroke-width="3"/><line x1="1836" y1="560" x2="1836" y2="588" stroke="#3B82F6" stroke-opacity="0.8" stroke-width="3"/><line x1="1916" y1="548" x2="1916" y2="576" stroke="#3B82F6" stroke-opacity="0.8" stroke-width="3"/><line x1="1996" y1="536" x2="1996" y2="564" stroke="#3B82F6" stroke-opacity="0.8" stroke-width="3"/><line x1="2076" y1="525" x2="2076" y2="553" stroke="#3B82F6" stroke-opacity="0.8" stroke-width="3"/></g></svg>