<svg xmlns="http://www.w3.org/2000/svg" width="1920" height="1080" viewBox="0 0 1920 1080"><rect width="1920" height="1080" fill="#0A1F44"/><polyline points="4.8,543.8 168.3,571.0 331.9,535.9 495.4,551.3 658.9,561.8 822.4,534.6 985.9,571.8 1149.4,541.4 1312.9,541.3 1476.4,568.3 1639.9,564.5 1803.4,533.1 1966.9,578.7" fill="none" stroke="#FAFCFF" stroke-opacity="0.1" stroke-width="1.5"/><polyline points="4.8,655.3 168.3,603.0 331.9,650.8 495.4,627.9 658.9,619.7 822.4,665.9 985.9,589.9 1149.4,597.3 1312.9,609.7 1476.4,609.6 1639.9,655.3 1803.4,668.3 1966.9,645.2" fill="none" stroke="#FAFCFF" stroke-opacity="0.13" stroke-width="2.5"/><polyline points="4.8,747.2 168.3,808.8 331.9,748.7 495.4,758.4 658.9,789.7 822.4,814.7 985.9,725.0 1149.4,808.4 1312.9,738.0 1476.4,788.6 1639.9,734.4 1803.4,801.7 1966.9,730.7" fill="none" stroke="#FAFCFF" stroke-opacity="0.16" stroke-width="3.5"/><polyline points="4.8,939.2 168.3,949.3 331.9,990.0 495.4,1032.3 658.9,1035.8 822.4,933.4 985.9,1015.0 1149.4,1052.6 1312.9,1002.4 1476.4,1050.0 1639.9,963.4 1803.4,996.6 1966.9,1040.4" fill="none" stroke="#FAFCFF" stroke-opacity="0.19" stroke-width="4.5"/><polyline points="4.8,1293.2 168.3,1226.5 331.9,1319.2 495.4,1294.1 658.9,1355.2 822.4,1301.9 985.9,1263.2 1149.4,1301.3 1312.9,1232.1 1476.4,1245.7 1639.9,1301.3 1803.4,1255.7 1966.9,1216.1" fill="none" stroke="#FAFCFF" stroke-opacity="0.22" stroke-width="5.5"/><circle cx="1123.8" cy="958.9" r="2.0801293050051006" fill="#3B82F6" fill-opacity="0.69"/><circle cx="225.6" cy="688.5" r="2.0765761820126705" fill="#3B82F6" fill-opacity="0.41"/><circle cx="1121.6" cy="774.9" r="5.8076077956566365" fill="#FF6A1A" fill-opacity="0.41"/><circle cx="1268.4" cy="825.8" r="2.3743729331000742" fill="#3B82F6" fill-opacity="0.54"/><circle cx="1582.9" cy="899.1" r="3.5645434156066176" fill="#FF6A1A" fill-opacity="0.48"/><circle cx="456.2" cy="664.6" r="5.661514714170603" fill="#3B82F6" fill-opacity="0.75"/><circle cx="1068.5" cy="859.5" r="2.4970144838438886" fill="#3B82F6" fill-opacity="0.70"/><circle cx="272.3" cy="961.4" r="4.591285848862112" fill="#3B82F6" fill-opacity="0.52"/><circle cx="401.9" cy="536.3" r="3.896299455545389" fill="#3B82F6" fill-opacity="0.69"/><circle cx="1486.8" cy="916.6" r="4.536259528456159" fill="#3B82F6" fill-opacity="0.73"/><circle cx="511.3" cy="1009.2" r="3.8774918123292053" fill="#FF6A1A" fill-opacity="0.41"/><circle cx="1305.4" cy="1023.4" r="5.4892395035995305" fill="#FF6A1A" fill-opacity="0.40"/><circle cx="1866.9" cy="716.6" r="3.510821188503084" fill="#FF6A1A" fill-opacity="0.46"/><circle cx="961.1" cy="732.9" r="5.679878264123455" fill="#3B82F6" fill-opacity="0.49"/><circle cx="1587.2" cy="834.5" r="3.879740229103967" fill="#3B82F6" fill-opacity="0.62"/><circle cx="1165.3" cy="868.7" r="2.381031202756053" fill="#3B82F6" fill-opacity="0.66"/><circle cx="1950.4" cy="1002.0" r="2.416404182531509" fill="#FF6A1A" fill-opacity="0.36"/><circle cx="1115.5" cy="857.3" r="2.1678170148302462" fill="#3B82F6" fill-opacity="0.50"/></svg>