<svg xmlns="http://www.w3.org/2000/svg" width="1920" height="1080" viewBox="0 0 1920 1080"><rect width="1920" height="1080" fill="#0A1F44"/><polyline points="-196.1,476.6 11.9,511.1 219.8,466.5 427.8,486.1 635.7,499.4 843.7,464.9 1051.7,512.1 1259.6,473.5 1467.6,473.4 1675.6,507.8 1883.5,502.9 2091.5,463.0 2299.4,521.0" fill="none" stroke="#FAFCFF" stroke-opacity="0.1" stroke-width="1.5"/><polyline points="-196.1,618.4 11.9,551.9 219.8,612.7 427.8,583.5 635.7,573.2 843.7,631.9 1051.7,535.2 1259.6,544.6 1467.6,560.3 1675.6,560.3 1883.5,618.4 2091.5,634.9 2299.4,605.5" fill="none" stroke="#FAFCFF" stroke-opacity="0.13" stroke-width="2.5"/><polyline points="-196.1,735.3 11.9,813.6 219.8,737.1 427.8,749.5 635.7,789.3 843.7,821.1 1051.7,707.0 1259.6,813.1 1467.6,723.6 1675.6,787.9 1883.5,718.9 2091.5,804.6 2299.4,714.3" fill="none" stroke="#FAFCFF" stroke-opacity="0.16" stroke-width="3.5"/><polyline points="-196.1,979.5 11.9,992.3 219.8,1044.1 427.8,1097.9 635.7,1102.3 843.7,972.1 1051.7,1075.8 1259.6,1123.8 1467.6,1059.8 1675.6,1120.4 1883.5,1010.2 2091.5,1052.4 2299.4,1108.1" fill="none" stroke="#FAFCFF" stroke-opacity="0.19" stroke-width="4.5"/><polyline points="-196.1,1429.8 11.9,1344.9 219.8,1462.8 427.8,1430.9 635.7,1508.5 843.7,1440.8 1051.7,1391.6 1259.6,1440.0 1467.6,1352.0 1675.6,1369.3 1883.5,1440.0 2091.5,1382.0 2299.4,1331.7" fill="none" stroke="#FAFCFF" stroke-opacity="0.22" stroke-width="5.5"/><circle cx="1227.1" cy="1004.5" r="2.6457045895738722" fill="#3B82F6" fill-opacity="0.65"/><circle cx="84.7" cy="660.6" r="2.64118539272117" fill="#3B82F6" fill-opacity="0.75"/><circle cx="1224.3" cy="770.5" r="7.386663205235736" fill="#FF6A1A" fill-opacity="0.75"/><circle cx="1411.0" cy="835.2" r="3.0199513805933518" fill="#3B82F6" fill-opacity="0.63"/><circle cx="1811.0" cy="928.5" r="4.5337224237522245" fill="#FF6A1A" fill-opacity="0.68"/><circle cx="378.0" cy="630.2" r="7.200848248798862" fill="#3B82F6" fill-opacity="0.51"/><circle cx="1156.8" cy="878.1" r="3.1759384689414825" fill="#3B82F6" fill-opacity="0.43"/><circle cx="144.1" cy="1007.7" r="5.839630263922596" fill="#3B82F6" fill-opacity="0.75"/><circle cx="308.9" cy="467.0" r="4.955681037273468" fill="#3B82F6" fill-opacity="0.46"/><circle cx="1688.8" cy="950.7" r="5.769642601090724" fill="#3B82F6" fill-opacity="0.57"/><circle cx="448.1" cy="1068.5" r="4.931759703221591" fill="#FF6A1A" fill-opacity="0.71"/><circle cx="1458.1" cy="1086.5" r="6.981732391827377" fill="#FF6A1A" fill-opacity="0.74"/><circle cx="2172.3" cy="696.3" r="4.465393429747882" fill="#FF6A1A" fill-opacity="0.75"/><circle cx="1020.1" cy="717.1" r="7.22420474316401" fill="#3B82F6" fill-opacity="0.67"/><circle cx="1816.5" cy="846.3" r="4.934619451683357" fill="#3B82F6" fill-opacity="0.55"/><circle cx="1279.9" cy="889.8" r="3.028419995763119" fill="#3B82F6" fill-opacity="0.69"/><circle cx="2278.4" cy="1059.4" r="3.0734106868291233" fill="#FF6A1A" fill-opacity="0.73"/><circle cx="1216.5" cy="875.3" r="2.757234087175484" fill="#3B82F6" fill-opacity="0.75"/><g opacity="0.98"><line x1="0" y1="842.4" x2="1920" y2="561.6" stroke="#FAFCFF" stroke-opacity="0.5" stroke-width="6"/><line x1="-71" y1="839" x2="-71" y2="867" stroke="#3B82F6" stroke-opacity="0.8" stroke-width="3"/><line x1="9" y1="827" x2="9" y2="855" stroke="#3B82F6" stroke-opacity="0.8" stroke-width="3"/><line x1="89" y1="815" x2="89" y2="843" stroke="#3B82F6" stroke-opacity="0.8" stroke-width="3"/><line x1="169" y1="804" x2="169" y2="832" stroke="#3B82F6" stroke-opacity="0.8" stroke-width="3"/><line x1="249" y1="792" x2="249" y2="820" stroke="#3B82F6" stroke-opacity="0.8" stroke-width="3"/><line x1="329" y1="780" x2="329" y2="808" stroke="#3B82F6" stroke-opacity="0.8" stroke-width="3"/><line x1="409" y1="769" x2="409" y2="797" stroke="#3B82F6" stroke-opacity="0.8" stroke-width="3"/><line x1="489" y1="757" x2="489" y2="785" stroke="#3B82F6" stroke-opacity="0.8" stroke-width="3"/><line x1="569" y1="745" x2="569" y2="773" stroke="#3B82F6" stroke-opacity="0.8" stroke-width="3"/><line x1="649" y1="733" x2="649" y2="761" stroke="#3B82F6" stroke-opacity="0.8" stroke-width="3"/><line x1="729" y1="722" x2="729" y2="750" stroke="#3B82F6" stroke-opacity="0.8" stroke-width="3"/><line x1="809" y1="710" x2="809" y2="738" stroke="#3B82F6" stroke-opacity="0.8" stroke-width="3"/><line x1="889" y1="698" x2="889" y2="726" stroke="#3B82F6" stroke-opacity="0.8" stroke-width="3"/><line x1="969" y1="687" x2="969" y2="715" stroke="#3B82F6" stroke-opacity="0.8" stroke-width="3"/><line x1="1049" y1="675" x2="1049" y2="703" stroke="#3B82F6" stroke-opacity="0.8" stroke-width="3"/><line x1="1129" y1="663" x2="1129" y2="691" stroke="#3B82F6" stroke-opacity="0.8" stroke-width="3"/><line x1="1209" y1="652" x2="1209" y2="680" stroke="#3B82F6" stroke-opacity="0.8" stroke-width="3"/><line x1="1289" y1="640" x2="1289" y2="668" stroke="#3B82F6" stroke-opacity="0.8" stroke-width="3"/><line x1="1369" y1="628" x2="1369" y2="656" stroke="#3B82F6" stroke-opacity="0.8" stroke-width="3"/><line x1="1449" y1="616" x2="1449" y2="644" stroke="#3B82F6" stroke-opacity="0.8" stroke-width="3"/><line x1="1529" y1="605" x2="1529" y2="633" stroke="#3B82F6" stroke-opacity="0.8" stroke-width="3"/><line x1="1609" y1="593" x2="1609" y2="621" stroke="#3B82F6" stroke-opacity="0.8" stroke-width="3"/><line x1="1689" y1="581" x2="1689" y2="609" stroke="#3B82F6" stroke-opacity="0.8" stroke-width="3"/><line x1="1769" y1="570" x2="1769" y2="598" stroke="#3B82F6" stroke-opacity="0.8" stroke-width="3"/><line x1="1849" y1="558" x2="1849" y2="586" stroke="#3B82F6" stroke-opacity="0.8" stroke-width="3"/><line x1="1929" y1="546" x2="1929" y2="574" stroke="#3B82F6" stroke-opacity="0.8" stroke-width="3"/><line x1="2009" y1="535" x2="2009" y2="563" stroke="#3B82F6" stroke-opacity="0.8" stroke-width="3"/></g></svg>