<svg xmlns="http://www.w3.org/2000/svg" width="1920" height="1080" viewBox="0 0 1920 1080"><rect width="1920" height="1080" fill="#0A1F44"/><polyline points="-1500.6,165.5 -1086.9,234.3 -673.3,145.6 -259.7,184.5 154.0,211.0 567.6,142.2 981.2,236.2 1394.9,159.4 1808.5,159.2 2222.1,227.6 2635.8,217.8 3049.4,138.5 3463.0,253.9" fill="none" stroke="#FAFCFF" stroke-opacity="0" stroke-width="1.5"/><polyline points="-1500.6,447.6 -1086.9,315.3 -673.3,436.2 -259.7,378.2 154.0,357.6 567.6,474.5 981.2,282.2 1394.9,300.9 1808.5,332.1 2222.1,332.0 2635.8,447.6 3049.4,480.5 3463.0,422.0" fill="none" stroke="#FAFCFF" stroke-opacity="0" stroke-width="2.5"/><polyline points="-1500.6,680.0 -1086.9,835.8 -673.3,683.7 -259.7,708.4 154.0,787.5 567.6,850.8 981.2,623.8 1394.9,834.9 1808.5,656.9 2222.1,784.7 2635.8,647.6 3049.4,818.0 3463.0,638.3" fill="none" stroke="#FAFCFF" stroke-opacity="0" stroke-width="3.5"/><polyline points="-1500.6,1165.7 -1086.9,1191.3 -673.3,1294.3 -259.7,1401.3 154.0,1410.2 567.6,1151.1 981.2,1357.4 1394.9,1452.7 1808.5,1325.6 2222.1,1446.0 2635.8,1226.9 3049.4,1310.9 3463.0,1421.6" fill="none" stroke="#FAFCFF" stroke-opacity="0" stroke-width="4.5"/><polyline points="-1500.6,2061.4 -1086.9,1892.6 -673.3,2127.0 -259.7,2063.6 154.0,2218.0 567.6,2083.3 981.2,1985.4 1394.9,2081.7 1808.5,1906.7 2222.1,1941.1 2635.8,2081.7 3049.4,1966.4 3463.0,1866.3" fill="none" stroke="#FAFCFF" stroke-opacity="0" stroke-width="5.5"/><g opacity="0.46"><rect x="422.4" y="216" width="1075.2" height="540" fill="none" stroke="#FAFCFF" stroke-opacity="0.6" stroke-width="2"/><rect x="442.4" y="236" width="318.40000000000003" height="189" fill="#3B82F6" fill-opacity="0.14"/><rect x="800.8" y="236" width="318.40000000000003" height="189" fill="#3B82F6" fill-opacity="0.2"/><rect x="1159.2" y="236" width="318.40000000000003" height="189" fill="#3B82F6" fill-opacity="0.26"/></g><g opacity="0.71"><rect x="460.79999999999995" y="324" width="517.9707771018149" height="10" fill="#3B82F6" fill-opacity="0.9"/><rect x="460.79999999999995" y="358" width="559.0618132464589" height="10" fill="#FAFCFF" fill-opacity="0.4"/><rect x="460.79999999999995" y="392" width="352.0004768371582" height="10" fill="#FAFCFF" fill-opacity="0.4"/><rect x="460.79999999999995" y="426" width="493.0137858130038" height="10" fill="#3B82F6" fill-opacity="0.9"/><rect x="460.79999999999995" y="460" width="575.1368051692843" height="10" fill="#FAFCFF" fill-opacity="0.4"/><rect x="460.79999999999995" y="494" width="457.9308180771768" height="10" fill="#FAFCFF" fill-opacity="0.4"/><rect x="460.79999999999995" y="528" width="514.2663277834654" height="10" fill="#3B82F6" fill-opacity="0.9"/><rect x="460.79999999999995" y="562" width="778.5601877756417" height="10" fill="#FAFCFF" fill-opacity="0.4"/><rect x="460.79999999999995" y="596" width="771.863665021956" height="10" fill="#FAFCFF" fill-opacity="0.4"/></g><rect width="1920" height="1080" fill="#0A1F44" fill-opacity="0.42"/><circle cx="960" cy="540" r="7" fill="#3B82F6" fill-opacity="0.60"/><rect x="800" y="580" width="320" height="2" fill="#FAFCFF" fill-opacity="0.24"/></svg>