<svg xmlns="http://www.w3.org/2000/svg" width="1920" height="1080" viewBox="0 0 1920 1080"><rect width="1920" height="1080" fill="#0A1F44"/><polyline points="6.1,544.7 169.0,571.8 331.9,536.9 494.8,552.2 657.7,562.6 820.6,535.5 983.6,572.6 1146.5,542.3 1309.4,542.2 1472.3,569.2 1635.2,565.3 1798.1,534.1 1961.0,579.5" fill="none" stroke="#FAFCFF" stroke-opacity="0.1" stroke-width="1.5"/><polyline points="6.1,655.8 169.0,603.7 331.9,651.3 494.8,628.5 657.7,620.4 820.6,666.4 983.6,590.7 1146.5,598.0 1309.4,610.3 1472.3,610.3 1635.2,655.8 1798.1,668.8 1961.0,645.7" fill="none" stroke="#FAFCFF" stroke-opacity="0.13" stroke-width="2.5"/><polyline points="6.1,747.4 169.0,808.7 331.9,748.8 494.8,758.5 657.7,789.7 820.6,814.6 983.6,725.2 1146.5,808.4 1309.4,738.2 1472.3,788.6 1635.2,734.6 1798.1,801.7 1961.0,730.9" fill="none" stroke="#FAFCFF" stroke-opacity="0.16" stroke-width="3.5"/><polyline points="6.1,938.7 169.0,948.7 331.9,989.3 494.8,1031.4 657.7,1034.9 820.6,932.9 983.6,1014.1 1146.5,1051.7 1309.4,1001.6 1472.3,1049.1 1635.2,962.7 1798.1,995.8 1961.0,1039.4" fill="none" stroke="#FAFCFF" stroke-opacity="0.19" stroke-width="4.5"/><polyline points="6.1,1291.4 169.0,1224.9 331.9,1317.3 494.8,1292.3 657.7,1353.1 820.6,1300.0 983.6,1261.5 1146.5,1299.4 1309.4,1230.5 1472.3,1244.0 1635.2,1299.4 1798.1,1254.0 1961.0,1214.6" fill="none" stroke="#FAFCFF" stroke-opacity="0.22" stroke-width="5.5"/><circle cx="1120.9" cy="958.2" r="2.0725496697830166" fill="#3B82F6" fill-opacity="0.70"/><circle cx="226.1" cy="688.9" r="2.0690094937627372" fill="#3B82F6" fill-opacity="0.44"/><circle cx="1118.8" cy="774.9" r="5.786445866685158" fill="#FF6A1A" fill-opacity="0.43"/><circle cx="1265.1" cy="825.7" r="2.365721124450109" fill="#3B82F6" fill-opacity="0.52"/><circle cx="1578.4" cy="898.7" r="3.551554829388169" fill="#FF6A1A" fill-opacity="0.45"/><circle cx="455.8" cy="665.0" r="5.640885123387654" fill="#3B82F6" fill-opacity="0.75"/><circle cx="1065.9" cy="859.2" r="2.4879157903702387" fill="#3B82F6" fill-opacity="0.69"/><circle cx="272.6" cy="960.8" r="4.574555988919773" fill="#3B82F6" fill-opacity="0.54"/><circle cx="401.7" cy="537.2" r="3.8821020070896703" fill="#3B82F6" fill-opacity="0.67"/><circle cx="1482.7" cy="916.1" r="4.519730175008914" fill="#3B82F6" fill-opacity="0.74"/><circle cx="510.7" cy="1008.4" r="3.8633628957068793" fill="#FF6A1A" fill-opacity="0.39"/><circle cx="1301.9" cy="1022.5" r="5.469237654203039" fill="#FF6A1A" fill-opacity="0.43"/><circle cx="1861.4" cy="716.8" r="3.498028356886901" fill="#FF6A1A" fill-opacity="0.48"/><circle cx="958.9" cy="733.1" r="5.659181759706969" fill="#3B82F6" fill-opacity="0.47"/><circle cx="1582.7" cy="834.4" r="3.8656031196356775" fill="#3B82F6" fill-opacity="0.60"/><circle cx="1162.3" cy="868.4" r="2.3723551325108683" fill="#3B82F6" fill-opacity="0.67"/><circle cx="1944.5" cy="1001.3" r="2.4075992192012783" fill="#FF6A1A" fill-opacity="0.37"/><circle cx="1112.7" cy="857.1" r="2.1599178605992546" fill="#3B82F6" fill-opacity="0.52"/></svg>