<svg xmlns="http://www.w3.org/2000/svg" width="1920" height="1080" viewBox="0 0 1920 1080"><rect width="1920" height="1080" fill="#0A1F44"/><polyline points="-1431.4,177.2 -1025.5,244.7 -619.6,157.6 -213.7,195.8 192.2,221.8 598.1,154.3 1004.0,246.6 1409.9,171.2 1815.8,171.0 2221.7,238.1 2627.6,228.5 3033.5,150.7 3439.4,263.9" fill="none" stroke="#FAFCFF" stroke-opacity="0" stroke-width="1.5"/><polyline points="-1431.4,454.0 -1025.5,324.2 -619.6,442.9 -213.7,385.9 192.2,365.7 598.1,480.4 1004.0,291.7 1409.9,310.0 1815.8,340.7 2221.7,340.6 2627.6,454.0 3033.5,486.3 3439.4,428.9" fill="none" stroke="#FAFCFF" stroke-opacity="0" stroke-width="2.5"/><polyline points="-1431.4,682.1 -1025.5,834.9 -619.6,685.7 -213.7,709.9 192.2,787.6 598.1,849.7 1004.0,627.0 1409.9,834.1 1815.8,659.4 2221.7,784.8 2627.6,650.3 3033.5,817.5 3439.4,641.2" fill="none" stroke="#FAFCFF" stroke-opacity="0" stroke-width="3.5"/><polyline points="-1431.4,1158.7 -1025.5,1183.8 -619.6,1284.9 -213.7,1389.9 192.2,1398.6 598.1,1144.4 1004.0,1346.8 1409.9,1440.4 1815.8,1315.6 2221.7,1433.8 2627.6,1218.7 3033.5,1301.2 3439.4,1409.9" fill="none" stroke="#FAFCFF" stroke-opacity="0" stroke-width="4.5"/><polyline points="-1431.4,2037.7 -1025.5,1872.0 -619.6,2102.1 -213.7,2039.9 192.2,2191.4 598.1,2059.2 1004.0,1963.1 1409.9,2057.6 1815.8,1885.8 2221.7,1919.6 2627.6,2057.6 3033.5,1944.5 3439.4,1846.3" fill="none" stroke="#FAFCFF" stroke-opacity="0" stroke-width="5.5"/><g opacity="1.00"><rect x="422.4" y="216" width="1075.2" height="540" fill="none" stroke="#FAFCFF" stroke-opacity="0.6" stroke-width="2"/><rect x="442.4" y="236" width="318.40000000000003" height="189" fill="#3B82F6" fill-opacity="0.14"/><rect x="800.8" y="236" width="318.40000000000003" height="189" fill="#3B82F6" fill-opacity="0.2"/><rect x="1159.2" y="236" width="318.40000000000003" height="189" fill="#3B82F6" fill-opacity="0.26"/></g><g opacity="1.00"><rect x="460.79999999999995" y="324" width="517.9707771018149" height="10" fill="#3B82F6" fill-opacity="0.9"/><rect x="460.79999999999995" y="358" width="559.0618132464589" height="10" fill="#FAFCFF" fill-opacity="0.4"/><rect x="460.79999999999995" y="392" width="352.0004768371582" height="10" fill="#FAFCFF" fill-opacity="0.4"/><rect x="460.79999999999995" y="426" width="493.0137858130038" height="10" fill="#3B82F6" fill-opacity="0.9"/><rect x="460.79999999999995" y="460" width="575.1368051692843" height="10" fill="#FAFCFF" fill-opacity="0.4"/><rect x="460.79999999999995" y="494" width="457.9308180771768" height="10" fill="#FAFCFF" fill-opacity="0.4"/><rect x="460.79999999999995" y="528" width="514.2663277834654" height="10" fill="#3B82F6" fill-opacity="0.9"/><rect x="460.79999999999995" y="562" width="778.5601877756417" height="10" fill="#FAFCFF" fill-opacity="0.4"/><rect x="460.79999999999995" y="596" width="771.863665021956" height="10" fill="#FAFCFF" fill-opacity="0.4"/></g><rect width="1920" height="1080" fill="#0A1F44" fill-opacity="0.10"/><circle cx="960" cy="540" r="7" fill="#3B82F6" fill-opacity="0.15"/><rect x="800" y="580" width="320" height="2" fill="#FAFCFF" fill-opacity="0.06"/></svg>