<svg xmlns="http://www.w3.org/2000/svg" width="1920" height="1080" viewBox="0 0 1920 1080"><rect width="1920" height="1080" fill="#0A1F44"/><polyline points="-63.1,517.3 117.9,547.4 299.0,508.6 480.0,525.6 661.0,537.2 842.0,507.1 1023.1,548.3 1204.1,514.6 1385.1,514.6 1566.1,544.5 1747.1,540.2 1928.2,505.5 2109.2,556.0" fill="none" stroke="#FAFCFF" stroke-opacity="0.1" stroke-width="1.5"/><polyline points="-63.1,640.8 117.9,582.9 299.0,635.8 480.0,610.4 661.0,601.4 842.0,652.5 1023.1,568.4 1204.1,576.6 1385.1,590.2 1566.1,590.2 1747.1,640.8 1928.2,655.2 2109.2,629.6" fill="none" stroke="#FAFCFF" stroke-opacity="0.13" stroke-width="2.5"/><polyline points="-63.1,742.5 117.9,810.6 299.0,744.1 480.0,754.9 661.0,789.5 842.0,817.2 1023.1,717.9 1204.1,810.3 1385.1,732.4 1566.1,788.3 1747.1,728.3 1928.2,802.9 2109.2,724.2" fill="none" stroke="#FAFCFF" stroke-opacity="0.16" stroke-width="3.5"/><polyline points="-63.1,955.1 117.9,966.2 299.0,1011.3 480.0,1058.2 661.0,1062.0 842.0,948.7 1023.1,1038.9 1204.1,1080.7 1385.1,1025.0 1566.1,1077.7 1747.1,981.8 1928.2,1018.6 2109.2,1067.0" fill="none" stroke="#FAFCFF" stroke-opacity="0.19" stroke-width="4.5"/><polyline points="-63.1,1347.0 117.9,1273.2 299.0,1375.7 480.0,1348.0 661.0,1415.6 842.0,1356.6 1023.1,1313.8 1204.1,1355.9 1385.1,1279.3 1566.1,1294.4 1747.1,1355.9 1928.2,1305.5 2109.2,1261.7" fill="none" stroke="#FAFCFF" stroke-opacity="0.22" stroke-width="5.5"/><circle cx="1175.7" cy="976.8" r="2.3029478942932076" fill="#3B82F6" fill-opacity="0.37"/><circle cx="181.4" cy="677.5" r="2.2990141690705044" fill="#3B82F6" fill-opacity="0.64"/><circle cx="1173.3" cy="773.1" r="6.429705168667613" fill="#FF6A1A" fill-opacity="0.64"/><circle cx="1335.9" cy="829.5" r="2.6287102120972206" fill="#3B82F6" fill-opacity="0.75"/><circle cx="1684.0" cy="910.7" r="3.9463689749170894" fill="#FF6A1A" fill-opacity="0.73"/><circle cx="436.6" cy="651.0" r="6.267962937754597" fill="#3B82F6" fill-opacity="0.54"/><circle cx="1114.5" cy="866.8" r="2.764488839107924" fill="#3B82F6" fill-opacity="0.71"/><circle cx="233.1" cy="979.6" r="5.083093657828774" fill="#3B82F6" fill-opacity="0.55"/><circle cx="376.5" cy="509.0" r="4.313661946444248" fill="#3B82F6" fill-opacity="0.72"/><circle cx="1577.7" cy="930.0" r="5.022173046593367" fill="#3B82F6" fill-opacity="0.47"/><circle cx="497.7" cy="1032.6" r="4.292839672445651" fill="#FF6A1A" fill-opacity="0.71"/><circle cx="1376.8" cy="1048.3" r="6.0772340092841635" fill="#FF6A1A" fill-opacity="0.64"/><circle cx="1998.5" cy="708.6" r="3.8868921484106136" fill="#FF6A1A" fill-opacity="0.60"/><circle cx="995.6" cy="726.7" r="6.288293548257469" fill="#3B82F6" fill-opacity="0.74"/><circle cx="1688.8" cy="839.2" r="4.295328934370124" fill="#3B82F6" fill-opacity="0.75"/><circle cx="1221.7" cy="877.0" r="2.636081700036445" fill="#3B82F6" fill-opacity="0.39"/><circle cx="2090.9" cy="1024.6" r="2.6752437507285594" fill="#FF6A1A" fill-opacity="0.68"/><circle cx="1166.5" cy="864.4" r="2.4000285066432734" fill="#3B82F6" fill-opacity="0.57"/><g opacity="0.42"><line x1="0" y1="842.4" x2="1920" y2="561.6" stroke="#FAFCFF" stroke-opacity="0.5" stroke-width="6"/><line x1="-2" y1="829" x2="-2" y2="857" stroke="#3B82F6" stroke-opacity="0.8" stroke-width="3"/><line x1="78" y1="817" x2="78" y2="845" stroke="#3B82F6" stroke-opacity="0.8" stroke-width="3"/><line x1="158" y1="805" x2="158" y2="833" stroke="#3B82F6" stroke-opacity="0.8" stroke-width="3"/><line x1="238" y1="794" x2="238" y2="822" stroke="#3B82F6" stroke-opacity="0.8" stroke-width="3"/><line x1="318" y1="782" x2="318" y2="810" stroke="#3B82F6" stroke-opacity="0.8" stroke-width="3"/><line x1="398" y1="770" x2="398" y2="798" stroke="#3B82F6" stroke-opacity="0.8" stroke-width="3"/><line x1="478" y1="758" x2="478" y2="786" stroke="#3B82F6" stroke-opacity="0.8" stroke-width="3"/><line x1="558" y1="747" x2="558" y2="775" stroke="#3B82F6" stroke-opacity="0.8" stroke-width="3"/><line x1="638" y1="735" x2="638" y2="763" stroke="#3B82F6" stroke-opacity="0.8" stroke-width="3"/><line x1="718" y1="723" x2="718" y2="751" stroke="#3B82F6" stroke-opacity="0.8" stroke-width="3"/><line x1="798" y1="712" x2="798" y2="740" stroke="#3B82F6" stroke-opacity="0.8" stroke-width="3"/><line x1="878" y1="700" x2="878" y2="728" stroke="#3B82F6" stroke-opacity="0.8" stroke-width="3"/><line x1="958" y1="688" x2="958" y2="716" stroke="#3B82F6" stroke-opacity="0.8" stroke-width="3"/><line x1="1038" y1="677" x2="1038" y2="705" stroke="#3B82F6" stroke-opacity="0.8" stroke-width="3"/><line x1="1118" y1="665" x2="1118" y2="693" stroke="#3B82F6" stroke-opacity="0.8" stroke-width="3"/><line x1="1198" y1="653" x2="1198" y2="681" stroke="#3B82F6" stroke-opacity="0.8" stroke-width="3"/><line x1="1278" y1="641" x2="1278" y2="669" stroke="#3B82F6" stroke-opacity="0.8" stroke-width="3"/><line x1="1358" y1="630" x2="1358" y2="658" stroke="#3B82F6" stroke-opacity="0.8" stroke-width="3"/><line x1="1438" y1="618" x2="1438" y2="646" stroke="#3B82F6" stroke-opacity="0.8" stroke-width="3"/><line x1="1518" y1="606" x2="1518" y2="634" stroke="#3B82F6" stroke-opacity="0.8" stroke-width="3"/><line x1="1598" y1="595" x2="1598" y2="623" stroke="#3B82F6" stroke-opacity="0.8" stroke-width="3"/><line x1="1678" y1="583" x2="1678" y2="611" stroke="#3B82F6" stroke-opacity="0.8" stroke-width="3"/><line x1="1758" y1="571" x2="1758" y2="599" stroke="#3B82F6" stroke-opacity="0.8" stroke-width="3"/><line x1="1838" y1="560" x2="1838" y2="588" stroke="#3B82F6" stroke-opacity="0.8" stroke-width="3"/><line x1="1918" y1="548" x2="1918" y2="576" stroke="#3B82F6" stroke-opacity="0.8" stroke-width="3"/><line x1="1998" y1="536" x2="1998" y2="564" stroke="#3B82F6" stroke-opacity="0.8" stroke-width="3"/><line x1="2078" y1="524" x2="2078" y2="552" stroke="#3B82F6" stroke-opacity="0.8" stroke-width="3"/></g></svg>