<svg xmlns="http://www.w3.org/2000/svg" width="1920" height="1080" viewBox="0 0 1920 1080"><rect width="1920" height="1080" fill="#0A1F44"/><polyline points="-1303.5,202.6 -914.4,267.4 -525.3,183.9 -136.3,220.5 252.8,245.4 641.9,180.7 1030.9,269.2 1420.0,196.9 1809.0,196.7 2198.1,261.1 2587.2,251.9 2976.2,177.3 3365.3,285.8" fill="none" stroke="#FAFCFF" stroke-opacity="0" stroke-width="1.5"/><polyline points="-1303.5,468.0 -914.4,343.6 -525.3,457.3 -136.3,402.7 252.8,383.4 641.9,493.3 1030.9,312.4 1420.0,330.0 1809.0,359.4 2198.1,359.3 2587.2,468.0 2976.2,498.9 3365.3,444.0" fill="none" stroke="#FAFCFF" stroke-opacity="0" stroke-width="2.5"/><polyline points="-1303.5,686.6 -914.4,833.1 -525.3,690.1 -136.3,713.3 252.8,787.7 641.9,847.3 1030.9,633.8 1420.0,832.3 1809.0,664.9 2198.1,785.0 2587.2,656.1 2976.2,816.4 3365.3,647.4" fill="none" stroke="#FAFCFF" stroke-opacity="0" stroke-width="3.5"/><polyline points="-1303.5,1143.5 -914.4,1167.5 -525.3,1264.4 -136.3,1365.1 252.8,1373.4 641.9,1129.7 1030.9,1323.8 1420.0,1413.5 1809.0,1293.9 2198.1,1407.1 2587.2,1201.0 2976.2,1280.0 3365.3,1384.2" fill="none" stroke="#FAFCFF" stroke-opacity="0" stroke-width="4.5"/><polyline points="-1303.5,1986.0 -914.4,1827.2 -525.3,2047.7 -136.3,1988.1 252.8,2133.3 641.9,2006.6 1030.9,1914.5 1420.0,2005.0 1809.0,1840.4 2198.1,1872.8 2587.2,2005.1 2976.2,1896.6 3365.3,1802.5" fill="none" stroke="#FAFCFF" stroke-opacity="0" stroke-width="5.5"/><g opacity="1.00"><rect x="422.4" y="216" width="1075.2" height="540" fill="none" stroke="#FAFCFF" stroke-opacity="0.6" stroke-width="2"/><rect x="442.4" y="236" width="318.40000000000003" height="189" fill="#3B82F6" fill-opacity="0.14"/><rect x="800.8" y="236" width="318.40000000000003" height="189" fill="#3B82F6" fill-opacity="0.2"/><rect x="1159.2" y="236" width="318.40000000000003" height="189" fill="#3B82F6" fill-opacity="0.26"/></g><g opacity="1.00"><rect x="460.79999999999995" y="324" width="517.9707771018149" height="10" fill="#3B82F6" fill-opacity="0.9"/><rect x="460.79999999999995" y="358" width="559.0618132464589" height="10" fill="#FAFCFF" fill-opacity="0.4"/><rect x="460.79999999999995" y="392" width="352.0004768371582" height="10" fill="#FAFCFF" fill-opacity="0.4"/><rect x="460.79999999999995" y="426" width="493.0137858130038" height="10" fill="#3B82F6" fill-opacity="0.9"/><rect x="460.79999999999995" y="460" width="575.1368051692843" height="10" fill="#FAFCFF" fill-opacity="0.4"/><rect x="460.79999999999995" y="494" width="457.9308180771768" height="10" fill="#FAFCFF" fill-opacity="0.4"/><rect x="460.79999999999995" y="528" width="276.21600246986134" height="10" fill="#3B82F6" fill-opacity="0.9"/></g></svg>