<svg xmlns="http://www.w3.org/2000/svg" width="1920" height="1080" viewBox="0 0 1920 1080"><rect width="1920" height="1080" fill="#0A1F44"/><polyline points="-1533.4,161.9 -1117.5,231.1 -701.5,141.9 -285.5,181.1 130.4,207.7 546.4,138.5 962.4,233.1 1378.3,155.8 1794.3,155.6 2210.3,224.4 2626.2,214.6 3042.2,134.8 3458.2,250.8" fill="none" stroke="#FAFCFF" stroke-opacity="0" stroke-width="1.5"/><polyline points="-1533.4,445.6 -1117.5,312.6 -701.5,434.2 -285.5,375.8 130.4,355.2 546.4,472.7 962.4,279.3 1378.3,298.1 1794.3,329.5 2210.3,329.4 2626.2,445.6 3042.2,478.7 3458.2,420.0" fill="none" stroke="#FAFCFF" stroke-opacity="0" stroke-width="2.5"/><polyline points="-1533.4,679.4 -1117.5,836.0 -701.5,683.1 -285.5,707.9 130.4,787.5 546.4,851.2 962.4,622.9 1378.3,835.2 1794.3,656.1 2210.3,784.6 2626.2,646.8 3042.2,818.2 3458.2,637.5" fill="none" stroke="#FAFCFF" stroke-opacity="0" stroke-width="3.5"/><polyline points="-1533.4,1167.9 -1117.5,1193.6 -701.5,1297.1 -285.5,1404.8 130.4,1413.7 546.4,1153.1 962.4,1360.6 1378.3,1456.5 1794.3,1328.6 2210.3,1449.7 2626.2,1229.3 3042.2,1313.8 3458.2,1425.2" fill="none" stroke="#FAFCFF" stroke-opacity="0" stroke-width="4.5"/><polyline points="-1533.4,2068.6 -1117.5,1898.8 -701.5,2134.6 -285.5,2070.8 130.4,2226.1 546.4,2090.6 962.4,1992.1 1378.3,2089.0 1794.3,1913.0 2210.3,1947.5 2626.2,2089.0 3042.2,1973.0 3458.2,1872.4" fill="none" stroke="#FAFCFF" stroke-opacity="0" stroke-width="5.5"/><g opacity="0.08"><rect x="460.79999999999995" y="324" width="517.9707771018149" height="10" fill="#3B82F6" fill-opacity="0.9"/><rect x="460.79999999999995" y="358" width="559.0618132464589" height="10" fill="#FAFCFF" fill-opacity="0.4"/><rect x="460.79999999999995" y="392" width="352.0004768371582" height="10" fill="#FAFCFF" fill-opacity="0.4"/><rect x="460.79999999999995" y="426" width="493.0137858130038" height="10" fill="#3B82F6" fill-opacity="0.9"/><rect x="460.79999999999995" y="460" width="575.1368051692843" height="10" fill="#FAFCFF" fill-opacity="0.4"/><rect x="460.79999999999995" y="494" width="457.9308180771768" height="10" fill="#FAFCFF" fill-opacity="0.4"/><rect x="460.79999999999995" y="528" width="514.2663277834654" height="10" fill="#3B82F6" fill-opacity="0.9"/><rect x="460.79999999999995" y="562" width="778.5601877756417" height="10" fill="#FAFCFF" fill-opacity="0.4"/><rect x="460.79999999999995" y="596" width="771.863665021956" height="10" fill="#FAFCFF" fill-opacity="0.4"/></g><rect width="1920" height="1080" fill="#0A1F44" fill-opacity="0.67"/><circle cx="960" cy="540" r="7" fill="#3B82F6" fill-opacity="0.96"/><rect x="800" y="580" width="320" height="2" fill="#FAFCFF" fill-opacity="0.38"/></svg>