<svg xmlns="http://www.w3.org/2000/svg" width="1920" height="1080" viewBox="0 0 1920 1080"><rect width="1920" height="1080" fill="#0A1F44"/><polyline points="-655.3,353.7 -366.0,401.8 -76.8,339.7 212.4,367.0 501.6,385.5 790.8,337.4 1080.0,403.1 1369.2,349.4 1658.4,349.3 1947.6,397.1 2236.8,390.3 2526.0,334.8 2815.2,415.5" fill="none" stroke="#FAFCFF" stroke-opacity="0.018742138364779892" stroke-width="1.5"/><polyline points="-655.3,550.9 -366.0,458.4 -76.8,543.0 212.4,502.4 501.6,488.0 790.8,569.7 1080.0,435.3 1369.2,448.3 1658.4,470.2 1947.6,470.1 2236.8,550.9 2526.0,573.9 2815.2,533.1" fill="none" stroke="#FAFCFF" stroke-opacity="0.02436477987421386" stroke-width="2.5"/><polyline points="-655.3,713.4 -366.0,822.3 -76.8,716.0 212.4,733.3 501.6,788.6 790.8,832.9 1080.0,674.1 1369.2,821.7 1658.4,697.3 1947.6,786.6 2236.8,690.7 2526.0,809.9 2815.2,684.3" fill="none" stroke="#FAFCFF" stroke-opacity="0.02998742138364783" stroke-width="3.5"/><polyline points="-655.3,1053.0 -366.0,1070.9 -76.8,1142.9 212.4,1217.8 501.6,1223.9 790.8,1042.8 1080.0,1187.0 1369.2,1253.7 1658.4,1164.8 1947.6,1249.0 2236.8,1095.8 2526.0,1154.5 2815.2,1232.0" fill="none" stroke="#FAFCFF" stroke-opacity="0.035610062893081794" stroke-width="4.5"/><polyline points="-655.3,1679.3 -366.0,1561.3 -76.8,1725.2 212.4,1680.8 501.6,1788.8 790.8,1694.6 1080.0,1626.1 1369.2,1693.5 1658.4,1571.1 1947.6,1595.1 2236.8,1693.5 2526.0,1612.9 2815.2,1542.9" fill="none" stroke="#FAFCFF" stroke-opacity="0.041232704402515766" stroke-width="5.5"/><circle cx="1323.9" cy="1087.8" r="3.6793027012010557" fill="#3B82F6" fill-opacity="0.08"/><circle cx="-264.7" cy="609.7" r="3.6730179885188723" fill="#3B82F6" fill-opacity="0.11"/><circle cx="1320.0" cy="762.4" r="10.27241287292156" fill="#FF6A1A" fill-opacity="0.11"/><circle cx="1579.8" cy="852.4" r="4.199756585032273" fill="#3B82F6" fill-opacity="0.14"/><circle cx="2136.0" cy="982.1" r="6.304912961916907" fill="#FF6A1A" fill-opacity="0.13"/><circle cx="143.1" cy="567.3" r="10.014005538317411" fill="#3B82F6" fill-opacity="0.11"/><circle cx="1226.2" cy="912.0" r="4.416683190433901" fill="#3B82F6" fill-opacity="0.14"/><circle cx="-182.1" cy="1092.3" r="8.1210001633351" fill="#3B82F6" fill-opacity="0.09"/><circle cx="47.0" cy="340.4" r="6.891718258563355" fill="#3B82F6" fill-opacity="0.14"/><circle cx="1966.0" cy="1013.1" r="8.023670401757474" fill="#3B82F6" fill-opacity="0.10"/><circle cx="240.6" cy="1176.9" r="6.85845157061178" fill="#FF6A1A" fill-opacity="0.13"/><circle cx="1645.2" cy="1202.0" r="9.709287631560851" fill="#FF6A1A" fill-opacity="0.11"/><circle cx="2638.4" cy="659.3" r="6.209889861756274" fill="#FF6A1A" fill-opacity="0.10"/><circle cx="1036.2" cy="688.2" r="10.046486720512478" fill="#3B82F6" fill-opacity="0.13"/><circle cx="2143.7" cy="867.9" r="6.862428537761322" fill="#3B82F6" fill-opacity="0.14"/><circle cx="1397.4" cy="928.4" r="4.211533636329817" fill="#3B82F6" fill-opacity="0.07"/><circle cx="2786.0" cy="1164.2" r="4.274100852571715" fill="#FF6A1A" fill-opacity="0.12"/><circle cx="1309.2" cy="908.2" r="3.834403457123054" fill="#3B82F6" fill-opacity="0.09"/><g opacity="1.00"><line x1="0" y1="842.4" x2="1920" y2="561.6" stroke="#FAFCFF" stroke-opacity="0.5" stroke-width="6"/><line x1="-27" y1="832" x2="-27" y2="860" stroke="#3B82F6" stroke-opacity="0.8" stroke-width="3"/><line x1="53" y1="821" x2="53" y2="849" stroke="#3B82F6" stroke-opacity="0.8" stroke-width="3"/><line x1="133" y1="809" x2="133" y2="837" stroke="#3B82F6" stroke-opacity="0.8" stroke-width="3"/><line x1="213" y1="797" x2="213" y2="825" stroke="#3B82F6" stroke-opacity="0.8" stroke-width="3"/><line x1="293" y1="786" x2="293" y2="814" stroke="#3B82F6" stroke-opacity="0.8" stroke-width="3"/><line x1="373" y1="774" x2="373" y2="802" stroke="#3B82F6" stroke-opacity="0.8" stroke-width="3"/><line x1="453" y1="762" x2="453" y2="790" stroke="#3B82F6" stroke-opacity="0.8" stroke-width="3"/><line x1="533" y1="750" x2="533" y2="778" stroke="#3B82F6" stroke-opacity="0.8" stroke-width="3"/><line x1="613" y1="739" x2="613" y2="767" stroke="#3B82F6" stroke-opacity="0.8" stroke-width="3"/><line x1="693" y1="727" x2="693" y2="755" stroke="#3B82F6" stroke-opacity="0.8" stroke-width="3"/><line x1="773" y1="715" x2="773" y2="743" stroke="#3B82F6" stroke-opacity="0.8" stroke-width="3"/><line x1="853" y1="704" x2="853" y2="732" stroke="#3B82F6" stroke-opacity="0.8" stroke-width="3"/><line x1="933" y1="692" x2="933" y2="720" stroke="#3B82F6" stroke-opacity="0.8" stroke-width="3"/><line x1="1013" y1="680" x2="1013" y2="708" stroke="#3B82F6" stroke-opacity="0.8" stroke-width="3"/><line x1="1093" y1="669" x2="1093" y2="697" stroke="#3B82F6" stroke-opacity="0.8" stroke-width="3"/><line x1="1173" y1="657" x2="1173" y2="685" stroke="#3B82F6" stroke-opacity="0.8" stroke-width="3"/><line x1="1253" y1="645" x2="1253" y2="673" stroke="#3B82F6" stroke-opacity="0.8" stroke-width="3"/><line x1="1333" y1="633" x2="1333" y2="661" stroke="#3B82F6" stroke-opacity="0.8" stroke-width="3"/><line x1="1413" y1="622" x2="1413" y2="650" stroke="#3B82F6" stroke-opacity="0.8" stroke-width="3"/><line x1="1493" y1="610" x2="1493" y2="638" stroke="#3B82F6" stroke-opacity="0.8" stroke-width="3"/><line x1="1573" y1="598" x2="1573" y2="626" stroke="#3B82F6" stroke-opacity="0.8" stroke-width="3"/><line x1="1653" y1="587" x2="1653" y2="615" stroke="#3B82F6" stroke-opacity="0.8" stroke-width="3"/><line x1="1733" y1="575" x2="1733" y2="603" stroke="#3B82F6" stroke-opacity="0.8" stroke-width="3"/><line x1="1813" y1="563" x2="1813" y2="591" stroke="#3B82F6" stroke-opacity="0.8" stroke-width="3"/><line x1="1893" y1="552" x2="1893" y2="580" stroke="#3B82F6" stroke-opacity="0.8" stroke-width="3"/><line x1="1973" y1="540" x2="1973" y2="568" stroke="#3B82F6" stroke-opacity="0.8" stroke-width="3"/><line x1="2053" y1="528" x2="2053" y2="556" stroke="#3B82F6" stroke-opacity="0.8" stroke-width="3"/></g><g opacity="0.13"><rect x="422.4" y="216" width="1075.2" height="540" fill="none" stroke="#FAFCFF" stroke-opacity="0.6" stroke-width="2"/><rect x="442.4" y="236" width="318.40000000000003" height="189" fill="#3B82F6" fill-opacity="0.14"/><rect x="800.8" y="236" width="318.40000000000003" height="189" fill="#3B82F6" fill-opacity="0.2"/><rect x="1159.2" y="236" width="318.40000000000003" height="189" fill="#3B82F6" fill-opacity="0.26"/></g></svg>