<svg xmlns="http://www.w3.org/2000/svg" width="1920" height="1080" viewBox="0 0 1920 1080"><rect width="1920" height="1080" fill="#0A1F44"/><polyline points="-831.3,310.2 -513.3,363.1 -195.4,294.9 122.5,324.8 440.5,345.2 758.4,292.3 1076.4,364.6 1394.3,305.5 1712.2,305.4 2030.2,358.0 2348.1,350.5 2666.1,289.5 2984.0,378.2" fill="none" stroke="#FAFCFF" stroke-opacity="0" stroke-width="1.5"/><polyline points="-831.3,527.1 -513.3,425.4 -195.4,518.3 122.5,473.7 440.5,457.9 758.4,547.7 1076.4,399.9 1394.3,414.3 1712.2,438.3 2030.2,438.2 2348.1,527.0 2666.1,552.3 2984.0,507.4" fill="none" stroke="#FAFCFF" stroke-opacity="0" stroke-width="2.5"/><polyline points="-831.3,705.7 -513.3,825.4 -195.4,708.6 122.5,727.5 440.5,788.3 758.4,837.0 1076.4,662.5 1394.3,824.8 1712.2,687.9 2030.2,786.2 2348.1,680.8 2666.1,811.8 2984.0,673.7" fill="none" stroke="#FAFCFF" stroke-opacity="0" stroke-width="3.5"/><polyline points="-831.3,1079.1 -513.3,1098.7 -195.4,1177.9 122.5,1260.2 440.5,1266.9 758.4,1067.8 1076.4,1226.4 1394.3,1299.7 1712.2,1202.0 2030.2,1294.5 2348.1,1126.1 2666.1,1190.6 2984.0,1275.8" fill="none" stroke="#FAFCFF" stroke-opacity="0" stroke-width="4.5"/><polyline points="-831.3,1767.5 -513.3,1637.8 -195.4,1817.9 122.5,1769.2 440.5,1887.9 758.4,1784.4 1076.4,1709.1 1394.3,1783.1 1712.2,1648.6 2030.2,1675.0 2348.1,1783.2 2666.1,1694.5 2984.0,1617.6" fill="none" stroke="#FAFCFF" stroke-opacity="0" stroke-width="5.5"/><g opacity="0.83"><line x1="0" y1="842.4" x2="1920" y2="561.6" stroke="#FAFCFF" stroke-opacity="0.5" stroke-width="6"/><line x1="-39" y1="834" x2="-39" y2="862" stroke="#3B82F6" stroke-opacity="0.8" stroke-width="3"/><line x1="41" y1="822" x2="41" y2="850" stroke="#3B82F6" stroke-opacity="0.8" stroke-width="3"/><line x1="121" y1="811" x2="121" y2="839" stroke="#3B82F6" stroke-opacity="0.8" stroke-width="3"/><line x1="201" y1="799" x2="201" y2="827" stroke="#3B82F6" stroke-opacity="0.8" stroke-width="3"/><line x1="281" y1="787" x2="281" y2="815" stroke="#3B82F6" stroke-opacity="0.8" stroke-width="3"/><line x1="361" y1="776" x2="361" y2="804" stroke="#3B82F6" stroke-opacity="0.8" stroke-width="3"/><line x1="441" y1="764" x2="441" y2="792" stroke="#3B82F6" stroke-opacity="0.8" stroke-width="3"/><line x1="521" y1="752" x2="521" y2="780" stroke="#3B82F6" stroke-opacity="0.8" stroke-width="3"/><line x1="601" y1="741" x2="601" y2="769" stroke="#3B82F6" stroke-opacity="0.8" stroke-width="3"/><line x1="681" y1="729" x2="681" y2="757" stroke="#3B82F6" stroke-opacity="0.8" stroke-width="3"/><line x1="761" y1="717" x2="761" y2="745" stroke="#3B82F6" stroke-opacity="0.8" stroke-width="3"/><line x1="841" y1="705" x2="841" y2="733" stroke="#3B82F6" stroke-opacity="0.8" stroke-width="3"/><line x1="921" y1="694" x2="921" y2="722" stroke="#3B82F6" stroke-opacity="0.8" stroke-width="3"/><line x1="1001" y1="682" x2="1001" y2="710" stroke="#3B82F6" stroke-opacity="0.8" stroke-width="3"/><line x1="1081" y1="670" x2="1081" y2="698" stroke="#3B82F6" stroke-opacity="0.8" stroke-width="3"/><line x1="1161" y1="659" x2="1161" y2="687" stroke="#3B82F6" stroke-opacity="0.8" stroke-width="3"/><line x1="1241" y1="647" x2="1241" y2="675" stroke="#3B82F6" stroke-opacity="0.8" stroke-width="3"/><line x1="1321" y1="635" x2="1321" y2="663" stroke="#3B82F6" stroke-opacity="0.8" stroke-width="3"/><line x1="1401" y1="624" x2="1401" y2="652" stroke="#3B82F6" stroke-opacity="0.8" stroke-width="3"/><line x1="1481" y1="612" x2="1481" y2="640" stroke="#3B82F6" stroke-opacity="0.8" stroke-width="3"/><line x1="1561" y1="600" x2="1561" y2="628" stroke="#3B82F6" stroke-opacity="0.8" stroke-width="3"/><line x1="1641" y1="588" x2="1641" y2="616" stroke="#3B82F6" stroke-opacity="0.8" stroke-width="3"/><line x1="1721" y1="577" x2="1721" y2="605" stroke="#3B82F6" stroke-opacity="0.8" stroke-width="3"/><line x1="1801" y1="565" x2="1801" y2="593" stroke="#3B82F6" stroke-opacity="0.8" stroke-width="3"/><line x1="1881" y1="553" x2="1881" y2="581" stroke="#3B82F6" stroke-opacity="0.8" stroke-width="3"/><line x1="1961" y1="542" x2="1961" y2="570" stroke="#3B82F6" stroke-opacity="0.8" stroke-width="3"/><line x1="2041" y1="530" x2="2041" y2="558" stroke="#3B82F6" stroke-opacity="0.8" stroke-width="3"/></g><g opacity="0.55"><rect x="422.4" y="216" width="1075.2" height="540" fill="none" stroke="#FAFCFF" stroke-opacity="0.6" stroke-width="2"/><rect x="442.4" y="236" width="318.40000000000003" height="189" fill="#3B82F6" fill-opacity="0.14"/><rect x="800.8" y="236" width="318.40000000000003" height="189" fill="#3B82F6" fill-opacity="0.2"/><rect x="1159.2" y="236" width="318.40000000000003" height="189" fill="#3B82F6" fill-opacity="0.26"/></g></svg>