<svg xmlns="http://www.w3.org/2000/svg" width="1920" height="1080" viewBox="0 0 1920 1080"><rect width="1920" height="1080" fill="#0A1F44"/><polyline points="-90.7,508.4 96.2,539.5 283.2,499.4 470.1,517.0 657.0,528.9 844.0,497.8 1030.9,540.3 1217.9,505.6 1404.8,505.5 1591.7,536.4 1778.7,532.0 1965.6,496.2 2152.5,548.3" fill="none" stroke="#FAFCFF" stroke-opacity="0.1" stroke-width="1.5"/><polyline points="-90.7,635.9 96.2,576.1 283.2,630.7 470.1,604.5 657.0,595.2 844.0,648.0 1030.9,561.1 1217.9,569.6 1404.8,583.7 1591.7,583.6 1778.7,635.8 1965.6,650.7 2152.5,624.3" fill="none" stroke="#FAFCFF" stroke-opacity="0.13" stroke-width="2.5"/><polyline points="-90.7,740.9 96.2,811.3 283.2,742.6 470.1,753.7 657.0,789.5 844.0,818.1 1030.9,715.5 1217.9,810.9 1404.8,730.4 1591.7,788.2 1778.7,726.2 1965.6,803.3 2152.5,722.1" fill="none" stroke="#FAFCFF" stroke-opacity="0.16" stroke-width="3.5"/><polyline points="-90.7,960.4 96.2,972.0 283.2,1018.5 470.1,1066.9 657.0,1070.9 844.0,953.8 1030.9,1047.0 1217.9,1090.1 1404.8,1032.7 1591.7,1087.1 1778.7,988.0 1965.6,1026.0 2152.5,1076.1" fill="none" stroke="#FAFCFF" stroke-opacity="0.19" stroke-width="4.5"/><polyline points="-90.7,1365.2 96.2,1288.9 283.2,1394.8 470.1,1366.2 657.0,1436.0 844.0,1375.1 1030.9,1330.8 1217.9,1374.4 1404.8,1295.3 1591.7,1310.8 1778.7,1374.4 1965.6,1322.3 2152.5,1277.0" fill="none" stroke="#FAFCFF" stroke-opacity="0.22" stroke-width="5.5"/><circle cx="1188.6" cy="982.9" r="2.3781754700388085" fill="#3B82F6" fill-opacity="0.42"/><circle cx="161.7" cy="673.8" r="2.3741132466364956" fill="#3B82F6" fill-opacity="0.69"/><circle cx="1186.1" cy="772.5" r="6.639736465422712" fill="#FF6A1A" fill-opacity="0.69"/><circle cx="1353.9" cy="830.8" r="2.7145790661359137" fill="#3B82F6" fill-opacity="0.75"/><circle cx="1713.5" cy="914.6" r="4.075280172481018" fill="#FF6A1A" fill-opacity="0.75"/><circle cx="425.3" cy="646.5" r="6.472710799327587" fill="#3B82F6" fill-opacity="0.46"/><circle cx="1125.4" cy="869.3" r="2.8547930071080803" fill="#3B82F6" fill-opacity="0.66"/><circle cx="215.1" cy="985.8" r="5.249136847131438" fill="#3B82F6" fill-opacity="0.62"/><circle cx="363.2" cy="499.8" r="4.454571053255214" fill="#3B82F6" fill-opacity="0.68"/><circle cx="1603.6" cy="934.6" r="5.1862262169696205" fill="#3B82F6" fill-opacity="0.38"/><circle cx="488.4" cy="1040.4" r="4.433068603557329" fill="#FF6A1A" fill-opacity="0.74"/><circle cx="1396.2" cy="1056.7" r="6.275751562759892" fill="#FF6A1A" fill-opacity="0.70"/><circle cx="2038.2" cy="705.9" r="4.013860489393978" fill="#FF6A1A" fill-opacity="0.66"/><circle cx="1002.6" cy="724.6" r="6.493705524961048" fill="#3B82F6" fill-opacity="0.75"/><circle cx="1718.4" cy="840.8" r="4.435639179149575" fill="#3B82F6" fill-opacity="0.72"/><circle cx="1236.1" cy="879.8" r="2.7221913494351546" fill="#3B82F6" fill-opacity="0.48"/><circle cx="2133.6" cy="1032.3" r="2.762632658829602" fill="#FF6A1A" fill-opacity="0.72"/><circle cx="1179.1" cy="866.8" r="2.4784272957441966" fill="#3B82F6" fill-opacity="0.64"/><g opacity="0.56"><line x1="0" y1="842.4" x2="1920" y2="561.6" stroke="#FAFCFF" stroke-opacity="0.5" stroke-width="6"/><line x1="-59" y1="837" x2="-59" y2="865" stroke="#3B82F6" stroke-opacity="0.8" stroke-width="3"/><line x1="21" y1="825" x2="21" y2="853" stroke="#3B82F6" stroke-opacity="0.8" stroke-width="3"/><line x1="101" y1="814" x2="101" y2="842" stroke="#3B82F6" stroke-opacity="0.8" stroke-width="3"/><line x1="181" y1="802" x2="181" y2="830" stroke="#3B82F6" stroke-opacity="0.8" stroke-width="3"/><line x1="261" y1="790" x2="261" y2="818" stroke="#3B82F6" stroke-opacity="0.8" stroke-width="3"/><line x1="341" y1="779" x2="341" y2="807" stroke="#3B82F6" stroke-opacity="0.8" stroke-width="3"/><line x1="421" y1="767" x2="421" y2="795" stroke="#3B82F6" stroke-opacity="0.8" stroke-width="3"/><line x1="501" y1="755" x2="501" y2="783" stroke="#3B82F6" stroke-opacity="0.8" stroke-width="3"/><line x1="581" y1="743" x2="581" y2="771" stroke="#3B82F6" stroke-opacity="0.8" stroke-width="3"/><line x1="661" y1="732" x2="661" y2="760" stroke="#3B82F6" stroke-opacity="0.8" stroke-width="3"/><line x1="741" y1="720" x2="741" y2="748" stroke="#3B82F6" stroke-opacity="0.8" stroke-width="3"/><line x1="821" y1="708" x2="821" y2="736" stroke="#3B82F6" stroke-opacity="0.8" stroke-width="3"/><line x1="901" y1="697" x2="901" y2="725" stroke="#3B82F6" stroke-opacity="0.8" stroke-width="3"/><line x1="981" y1="685" x2="981" y2="713" stroke="#3B82F6" stroke-opacity="0.8" stroke-width="3"/><line x1="1061" y1="673" x2="1061" y2="701" stroke="#3B82F6" stroke-opacity="0.8" stroke-width="3"/><line x1="1141" y1="662" x2="1141" y2="690" stroke="#3B82F6" stroke-opacity="0.8" stroke-width="3"/><line x1="1221" y1="650" x2="1221" y2="678" stroke="#3B82F6" stroke-opacity="0.8" stroke-width="3"/><line x1="1301" y1="638" x2="1301" y2="666" stroke="#3B82F6" stroke-opacity="0.8" stroke-width="3"/><line x1="1381" y1="626" x2="1381" y2="654" stroke="#3B82F6" stroke-opacity="0.8" stroke-width="3"/><line x1="1461" y1="615" x2="1461" y2="643" stroke="#3B82F6" stroke-opacity="0.8" stroke-width="3"/><line x1="1541" y1="603" x2="1541" y2="631" stroke="#3B82F6" stroke-opacity="0.8" stroke-width="3"/><line x1="1621" y1="591" x2="1621" y2="619" stroke="#3B82F6" stroke-opacity="0.8" stroke-width="3"/><line x1="1701" y1="580" x2="1701" y2="608" stroke="#3B82F6" stroke-opacity="0.8" stroke-width="3"/><line x1="1781" y1="568" x2="1781" y2="596" stroke="#3B82F6" stroke-opacity="0.8" stroke-width="3"/><line x1="1861" y1="556" x2="1861" y2="584" stroke="#3B82F6" stroke-opacity="0.8" stroke-width="3"/><line x1="1941" y1="545" x2="1941" y2="573" stroke="#3B82F6" stroke-opacity="0.8" stroke-width="3"/><line x1="2021" y1="533" x2="2021" y2="561" stroke="#3B82F6" stroke-opacity="0.8" stroke-width="3"/></g></svg>