<svg xmlns="http://www.w3.org/2000/svg" width="1920" height="1080" viewBox="0 0 1920 1080"><rect width="1920" height="1080" fill="#0A1F44"/><polyline points="-919.2,289.1 -587.3,344.3 -255.4,273.2 76.5,304.4 408.3,325.7 740.2,270.5 1072.1,345.9 1403.9,284.2 1735.8,284.1 2067.7,339.0 2399.6,331.1 2731.4,267.5 3063.3,360.1" fill="none" stroke="#FAFCFF" stroke-opacity="0" stroke-width="1.5"/><polyline points="-919.2,515.5 -587.3,409.4 -255.4,506.4 76.5,459.8 408.3,443.3 740.2,537.1 1072.1,382.8 1403.9,397.8 1735.8,422.8 2067.7,422.8 2399.6,515.5 2731.4,541.9 3063.3,495.0" fill="none" stroke="#FAFCFF" stroke-opacity="0" stroke-width="2.5"/><polyline points="-919.2,702.0 -587.3,826.9 -255.4,704.9 76.5,724.7 408.3,788.2 740.2,839.0 1072.1,656.9 1403.9,826.3 1735.8,683.4 2067.7,785.9 2399.6,675.9 2731.4,812.7 3063.3,668.5" fill="none" stroke="#FAFCFF" stroke-opacity="0" stroke-width="3.5"/><polyline points="-919.2,1091.7 -587.3,1112.2 -255.4,1194.8 76.5,1280.7 408.3,1287.8 740.2,1079.9 1072.1,1245.5 1403.9,1322.0 1735.8,1220.0 2067.7,1316.6 2399.6,1140.7 2731.4,1208.1 3063.3,1297.0" fill="none" stroke="#FAFCFF" stroke-opacity="0" stroke-width="4.5"/><polyline points="-919.2,1810.3 -587.3,1674.9 -255.4,1862.9 76.5,1812.1 408.3,1936.0 740.2,1827.9 1072.1,1749.3 1403.9,1826.6 1735.8,1686.2 2067.7,1713.7 2399.6,1826.6 2731.4,1734.1 3063.3,1653.8" fill="none" stroke="#FAFCFF" stroke-opacity="0" stroke-width="5.5"/><g opacity="0.61"><line x1="0" y1="842.4" x2="1920" y2="561.6" stroke="#FAFCFF" stroke-opacity="0.5" stroke-width="6"/><line x1="-5" y1="829" x2="-5" y2="857" stroke="#3B82F6" stroke-opacity="0.8" stroke-width="3"/><line x1="75" y1="817" x2="75" y2="845" stroke="#3B82F6" stroke-opacity="0.8" stroke-width="3"/><line x1="155" y1="806" x2="155" y2="834" stroke="#3B82F6" stroke-opacity="0.8" stroke-width="3"/><line x1="235" y1="794" x2="235" y2="822" stroke="#3B82F6" stroke-opacity="0.8" stroke-width="3"/><line x1="315" y1="782" x2="315" y2="810" stroke="#3B82F6" stroke-opacity="0.8" stroke-width="3"/><line x1="395" y1="771" x2="395" y2="799" stroke="#3B82F6" stroke-opacity="0.8" stroke-width="3"/><line x1="475" y1="759" x2="475" y2="787" stroke="#3B82F6" stroke-opacity="0.8" stroke-width="3"/><line x1="555" y1="747" x2="555" y2="775" stroke="#3B82F6" stroke-opacity="0.8" stroke-width="3"/><line x1="635" y1="736" x2="635" y2="764" stroke="#3B82F6" stroke-opacity="0.8" stroke-width="3"/><line x1="715" y1="724" x2="715" y2="752" stroke="#3B82F6" stroke-opacity="0.8" stroke-width="3"/><line x1="795" y1="712" x2="795" y2="740" stroke="#3B82F6" stroke-opacity="0.8" stroke-width="3"/><line x1="875" y1="700" x2="875" y2="728" stroke="#3B82F6" stroke-opacity="0.8" stroke-width="3"/><line x1="955" y1="689" x2="955" y2="717" stroke="#3B82F6" stroke-opacity="0.8" stroke-width="3"/><line x1="1035" y1="677" x2="1035" y2="705" stroke="#3B82F6" stroke-opacity="0.8" stroke-width="3"/><line x1="1115" y1="665" x2="1115" y2="693" stroke="#3B82F6" stroke-opacity="0.8" stroke-width="3"/><line x1="1195" y1="654" x2="1195" y2="682" stroke="#3B82F6" stroke-opacity="0.8" stroke-width="3"/><line x1="1275" y1="642" x2="1275" y2="670" stroke="#3B82F6" stroke-opacity="0.8" stroke-width="3"/><line x1="1355" y1="630" x2="1355" y2="658" stroke="#3B82F6" stroke-opacity="0.8" stroke-width="3"/><line x1="1435" y1="619" x2="1435" y2="647" stroke="#3B82F6" stroke-opacity="0.8" stroke-width="3"/><line x1="1515" y1="607" x2="1515" y2="635" stroke="#3B82F6" stroke-opacity="0.8" stroke-width="3"/><line x1="1595" y1="595" x2="1595" y2="623" stroke="#3B82F6" stroke-opacity="0.8" stroke-width="3"/><line x1="1675" y1="583" x2="1675" y2="611" stroke="#3B82F6" stroke-opacity="0.8" stroke-width="3"/><line x1="1755" y1="572" x2="1755" y2="600" stroke="#3B82F6" stroke-opacity="0.8" stroke-width="3"/><line x1="1835" y1="560" x2="1835" y2="588" stroke="#3B82F6" stroke-opacity="0.8" stroke-width="3"/><line x1="1915" y1="548" x2="1915" y2="576" stroke="#3B82F6" stroke-opacity="0.8" stroke-width="3"/><line x1="1995" y1="537" x2="1995" y2="565" stroke="#3B82F6" stroke-opacity="0.8" stroke-width="3"/><line x1="2075" y1="525" x2="2075" y2="553" stroke="#3B82F6" stroke-opacity="0.8" stroke-width="3"/></g><g opacity="0.76"><rect x="422.4" y="216" width="1075.2" height="540" fill="none" stroke="#FAFCFF" stroke-opacity="0.6" stroke-width="2"/><rect x="442.4" y="236" width="318.40000000000003" height="189" fill="#3B82F6" fill-opacity="0.14"/><rect x="800.8" y="236" width="318.40000000000003" height="189" fill="#3B82F6" fill-opacity="0.2"/><rect x="1159.2" y="236" width="318.40000000000003" height="189" fill="#3B82F6" fill-opacity="0.26"/></g></svg>