<svg xmlns="http://www.w3.org/2000/svg" width="1920" height="1080" viewBox="0 0 1920 1080"><rect width="1920" height="1080" fill="#0A1F44"/><polyline points="-933.7,285.7 -599.5,341.3 -265.4,269.6 68.8,301.1 402.9,322.5 737.1,266.9 1071.2,342.8 1405.4,280.8 1739.5,280.6 2073.7,335.9 2407.8,328.0 2742.0,263.9 3076.1,357.1" fill="none" stroke="#FAFCFF" stroke-opacity="0" stroke-width="1.5"/><polyline points="-933.7,513.6 -599.5,406.7 -265.4,504.4 68.8,457.5 402.9,440.9 737.1,535.3 1071.2,380.0 1405.4,395.1 1739.5,420.3 2073.7,420.2 2407.8,513.6 2742.0,540.2 3076.1,493.0" fill="none" stroke="#FAFCFF" stroke-opacity="0" stroke-width="2.5"/><polyline points="-933.7,701.4 -599.5,827.2 -265.4,704.4 68.8,724.3 402.9,788.2 737.1,839.4 1071.2,656.0 1405.4,826.5 1739.5,682.7 2073.7,785.9 2407.8,675.2 2742.0,812.9 3076.1,667.7" fill="none" stroke="#FAFCFF" stroke-opacity="0" stroke-width="3.5"/><polyline points="-933.7,1093.7 -599.5,1114.4 -265.4,1197.6 68.8,1284.1 402.9,1291.2 737.1,1081.9 1071.2,1248.6 1405.4,1325.6 1739.5,1222.9 2073.7,1320.2 2407.8,1143.1 2742.0,1211.0 3076.1,1300.5" fill="none" stroke="#FAFCFF" stroke-opacity="0" stroke-width="4.5"/><polyline points="-933.7,1817.3 -599.5,1680.9 -265.4,1870.3 68.8,1819.1 402.9,1943.8 737.1,1835.0 1071.2,1755.9 1405.4,1833.7 1739.5,1692.3 2073.7,1720.1 2407.8,1833.7 2742.0,1740.6 3076.1,1659.7" fill="none" stroke="#FAFCFF" stroke-opacity="0" stroke-width="5.5"/><g opacity="0.57"><line x1="0" y1="842.4" x2="1920" y2="561.6" stroke="#FAFCFF" stroke-opacity="0.5" stroke-width="6"/><line x1="-80" y1="840" x2="-80" y2="868" stroke="#3B82F6" stroke-opacity="0.8" stroke-width="3"/><line x1="0" y1="828" x2="0" y2="856" stroke="#3B82F6" stroke-opacity="0.8" stroke-width="3"/><line x1="80" y1="817" x2="80" y2="845" stroke="#3B82F6" stroke-opacity="0.8" stroke-width="3"/><line x1="160" y1="805" x2="160" y2="833" stroke="#3B82F6" stroke-opacity="0.8" stroke-width="3"/><line x1="240" y1="793" x2="240" y2="821" stroke="#3B82F6" stroke-opacity="0.8" stroke-width="3"/><line x1="320" y1="782" x2="320" y2="810" stroke="#3B82F6" stroke-opacity="0.8" stroke-width="3"/><line x1="400" y1="770" x2="400" y2="798" stroke="#3B82F6" stroke-opacity="0.8" stroke-width="3"/><line x1="480" y1="758" x2="480" y2="786" stroke="#3B82F6" stroke-opacity="0.8" stroke-width="3"/><line x1="560" y1="746" x2="560" y2="774" stroke="#3B82F6" stroke-opacity="0.8" stroke-width="3"/><line x1="640" y1="735" x2="640" y2="763" stroke="#3B82F6" stroke-opacity="0.8" stroke-width="3"/><line x1="720" y1="723" x2="720" y2="751" stroke="#3B82F6" stroke-opacity="0.8" stroke-width="3"/><line x1="800" y1="711" x2="800" y2="739" stroke="#3B82F6" stroke-opacity="0.8" stroke-width="3"/><line x1="880" y1="700" x2="880" y2="728" stroke="#3B82F6" stroke-opacity="0.8" stroke-width="3"/><line x1="960" y1="688" x2="960" y2="716" stroke="#3B82F6" stroke-opacity="0.8" stroke-width="3"/><line x1="1040" y1="676" x2="1040" y2="704" stroke="#3B82F6" stroke-opacity="0.8" stroke-width="3"/><line x1="1120" y1="665" x2="1120" y2="693" stroke="#3B82F6" stroke-opacity="0.8" stroke-width="3"/><line x1="1200" y1="653" x2="1200" y2="681" stroke="#3B82F6" stroke-opacity="0.8" stroke-width="3"/><line x1="1280" y1="641" x2="1280" y2="669" stroke="#3B82F6" stroke-opacity="0.8" stroke-width="3"/><line x1="1360" y1="629" x2="1360" y2="657" stroke="#3B82F6" stroke-opacity="0.8" stroke-width="3"/><line x1="1440" y1="618" x2="1440" y2="646" stroke="#3B82F6" stroke-opacity="0.8" stroke-width="3"/><line x1="1520" y1="606" x2="1520" y2="634" stroke="#3B82F6" stroke-opacity="0.8" stroke-width="3"/><line x1="1600" y1="594" x2="1600" y2="622" stroke="#3B82F6" stroke-opacity="0.8" stroke-width="3"/><line x1="1680" y1="583" x2="1680" y2="611" stroke="#3B82F6" stroke-opacity="0.8" stroke-width="3"/><line x1="1760" y1="571" x2="1760" y2="599" stroke="#3B82F6" stroke-opacity="0.8" stroke-width="3"/><line x1="1840" y1="559" x2="1840" y2="587" stroke="#3B82F6" stroke-opacity="0.8" stroke-width="3"/><line x1="1920" y1="548" x2="1920" y2="576" stroke="#3B82F6" stroke-opacity="0.8" stroke-width="3"/><line x1="2000" y1="536" x2="2000" y2="564" stroke="#3B82F6" stroke-opacity="0.8" stroke-width="3"/></g><g opacity="0.79"><rect x="422.4" y="216" width="1075.2" height="540" fill="none" stroke="#FAFCFF" stroke-opacity="0.6" stroke-width="2"/><rect x="442.4" y="236" width="318.40000000000003" height="189" fill="#3B82F6" fill-opacity="0.14"/><rect x="800.8" y="236" width="318.40000000000003" height="189" fill="#3B82F6" fill-opacity="0.2"/><rect x="1159.2" y="236" width="318.40000000000003" height="189" fill="#3B82F6" fill-opacity="0.26"/></g></svg>