<svg xmlns="http://www.w3.org/2000/svg" width="1920" height="1080" viewBox="0 0 1920 1080"><rect width="1920" height="1080" fill="#0A1F44"/><polyline points="-991.3,272.1 -648.2,329.2 -305.1,255.6 38.0,287.9 381.1,309.9 724.2,252.8 1067.3,330.8 1410.4,267.1 1753.5,267.0 2096.6,323.7 2439.7,315.6 2782.8,249.8 3125.9,345.5" fill="none" stroke="#FAFCFF" stroke-opacity="0" stroke-width="1.5"/><polyline points="-991.3,506.2 -648.2,396.4 -305.1,496.7 38.0,448.6 381.1,431.5 724.2,528.5 1067.3,369.0 1410.4,384.5 1753.5,410.4 2096.6,410.3 2439.7,506.1 2782.8,533.4 3125.9,485.0" fill="none" stroke="#FAFCFF" stroke-opacity="0" stroke-width="2.5"/><polyline points="-991.3,699.0 -648.2,828.1 -305.1,702.0 38.0,722.5 381.1,788.1 724.2,840.7 1067.3,652.4 1410.4,827.5 1753.5,679.8 2096.6,785.8 2439.7,672.0 2782.8,813.4 3125.9,664.4" fill="none" stroke="#FAFCFF" stroke-opacity="0" stroke-width="3.5"/><polyline points="-991.3,1101.9 -648.2,1123.1 -305.1,1208.5 38.0,1297.3 381.1,1304.6 724.2,1089.7 1067.3,1260.8 1410.4,1339.9 1753.5,1234.5 2096.6,1334.4 2439.7,1152.6 2782.8,1222.2 3125.9,1314.1" fill="none" stroke="#FAFCFF" stroke-opacity="0" stroke-width="4.5"/><polyline points="-991.3,1844.8 -648.2,1704.8 -305.1,1899.2 38.0,1846.7 381.1,1974.7 724.2,1863.0 1067.3,1781.8 1410.4,1861.6 1753.5,1716.5 2096.6,1745.0 2439.7,1861.7 2782.8,1766.0 3125.9,1683.0" fill="none" stroke="#FAFCFF" stroke-opacity="0" stroke-width="5.5"/><g opacity="0.42"><line x1="0" y1="842.4" x2="1920" y2="561.6" stroke="#FAFCFF" stroke-opacity="0.5" stroke-width="6"/><line x1="-57" y1="837" x2="-57" y2="865" stroke="#3B82F6" stroke-opacity="0.8" stroke-width="3"/><line x1="23" y1="825" x2="23" y2="853" stroke="#3B82F6" stroke-opacity="0.8" stroke-width="3"/><line x1="103" y1="813" x2="103" y2="841" stroke="#3B82F6" stroke-opacity="0.8" stroke-width="3"/><line x1="183" y1="802" x2="183" y2="830" stroke="#3B82F6" stroke-opacity="0.8" stroke-width="3"/><line x1="263" y1="790" x2="263" y2="818" stroke="#3B82F6" stroke-opacity="0.8" stroke-width="3"/><line x1="343" y1="778" x2="343" y2="806" stroke="#3B82F6" stroke-opacity="0.8" stroke-width="3"/><line x1="423" y1="767" x2="423" y2="795" stroke="#3B82F6" stroke-opacity="0.8" stroke-width="3"/><line x1="503" y1="755" x2="503" y2="783" stroke="#3B82F6" stroke-opacity="0.8" stroke-width="3"/><line x1="583" y1="743" x2="583" y2="771" stroke="#3B82F6" stroke-opacity="0.8" stroke-width="3"/><line x1="663" y1="731" x2="663" y2="759" stroke="#3B82F6" stroke-opacity="0.8" stroke-width="3"/><line x1="743" y1="720" x2="743" y2="748" stroke="#3B82F6" stroke-opacity="0.8" stroke-width="3"/><line x1="823" y1="708" x2="823" y2="736" stroke="#3B82F6" stroke-opacity="0.8" stroke-width="3"/><line x1="903" y1="696" x2="903" y2="724" stroke="#3B82F6" stroke-opacity="0.8" stroke-width="3"/><line x1="983" y1="685" x2="983" y2="713" stroke="#3B82F6" stroke-opacity="0.8" stroke-width="3"/><line x1="1063" y1="673" x2="1063" y2="701" stroke="#3B82F6" stroke-opacity="0.8" stroke-width="3"/><line x1="1143" y1="661" x2="1143" y2="689" stroke="#3B82F6" stroke-opacity="0.8" stroke-width="3"/><line x1="1223" y1="650" x2="1223" y2="678" stroke="#3B82F6" stroke-opacity="0.8" stroke-width="3"/><line x1="1303" y1="638" x2="1303" y2="666" stroke="#3B82F6" stroke-opacity="0.8" stroke-width="3"/><line x1="1383" y1="626" x2="1383" y2="654" stroke="#3B82F6" stroke-opacity="0.8" stroke-width="3"/><line x1="1463" y1="614" x2="1463" y2="642" stroke="#3B82F6" stroke-opacity="0.8" stroke-width="3"/><line x1="1543" y1="603" x2="1543" y2="631" stroke="#3B82F6" stroke-opacity="0.8" stroke-width="3"/><line x1="1623" y1="591" x2="1623" y2="619" stroke="#3B82F6" stroke-opacity="0.8" stroke-width="3"/><line x1="1703" y1="579" x2="1703" y2="607" stroke="#3B82F6" stroke-opacity="0.8" stroke-width="3"/><line x1="1783" y1="568" x2="1783" y2="596" stroke="#3B82F6" stroke-opacity="0.8" stroke-width="3"/><line x1="1863" y1="556" x2="1863" y2="584" stroke="#3B82F6" stroke-opacity="0.8" stroke-width="3"/><line x1="1943" y1="544" x2="1943" y2="572" stroke="#3B82F6" stroke-opacity="0.8" stroke-width="3"/><line x1="2023" y1="533" x2="2023" y2="561" stroke="#3B82F6" stroke-opacity="0.8" stroke-width="3"/></g><g opacity="0.93"><rect x="422.4" y="216" width="1075.2" height="540" fill="none" stroke="#FAFCFF" stroke-opacity="0.6" stroke-width="2"/><rect x="442.4" y="236" width="318.40000000000003" height="189" fill="#3B82F6" fill-opacity="0.14"/><rect x="800.8" y="236" width="318.40000000000003" height="189" fill="#3B82F6" fill-opacity="0.2"/><rect x="1159.2" y="236" width="318.40000000000003" height="189" fill="#3B82F6" fill-opacity="0.26"/></g><g opacity="0.17"><rect x="460.79999999999995" y="324" width="517.9707771018149" height="10" fill="#3B82F6" fill-opacity="0.9"/></g></svg>