<svg xmlns="http://www.w3.org/2000/svg" width="1920" height="1080" viewBox="0 0 1920 1080"><rect width="1920" height="1080" fill="#0A1F44"/><polyline points="-1005.6,268.8 -660.3,326.3 -315.0,252.2 30.3,284.7 375.6,306.8 720.9,249.4 1066.2,327.9 1411.5,263.7 1756.8,263.6 2102.1,320.7 2447.4,312.5 2792.7,246.3 3138.0,342.6" fill="none" stroke="#FAFCFF" stroke-opacity="0" stroke-width="1.5"/><polyline points="-1005.6,504.3 -660.3,393.9 -315.0,494.9 30.3,446.4 375.6,429.2 720.9,526.8 1066.2,366.3 1411.5,381.9 1756.8,407.9 2102.1,407.9 2447.4,504.3 2792.7,531.8 3138.0,483.0" fill="none" stroke="#FAFCFF" stroke-opacity="0" stroke-width="2.5"/><polyline points="-1005.6,698.4 -660.3,828.4 -315.0,701.5 30.3,722.0 375.6,788.1 720.9,841.0 1066.2,651.5 1411.5,827.7 1756.8,679.1 2102.1,785.7 2447.4,671.3 2792.7,813.6 3138.0,663.6" fill="none" stroke="#FAFCFF" stroke-opacity="0" stroke-width="3.5"/><polyline points="-1005.6,1103.8 -660.3,1125.2 -315.0,1211.2 30.3,1300.5 375.6,1307.9 720.9,1091.6 1066.2,1263.8 1411.5,1343.4 1756.8,1237.3 2102.1,1337.8 2447.4,1154.9 2792.7,1225.0 3138.0,1317.5" fill="none" stroke="#FAFCFF" stroke-opacity="0" stroke-width="4.5"/><polyline points="-1005.6,1851.5 -660.3,1710.6 -315.0,1906.3 30.3,1853.4 375.6,1982.3 720.9,1869.8 1066.2,1788.1 1411.5,1868.5 1756.8,1722.4 2102.1,1751.1 2447.4,1868.5 2792.7,1772.2 3138.0,1688.7" fill="none" stroke="#FAFCFF" stroke-opacity="0" stroke-width="5.5"/><g opacity="0.39"><line x1="0" y1="842.4" x2="1920" y2="561.6" stroke="#FAFCFF" stroke-opacity="0.5" stroke-width="6"/><line x1="-51" y1="836" x2="-51" y2="864" stroke="#3B82F6" stroke-opacity="0.8" stroke-width="3"/><line x1="29" y1="824" x2="29" y2="852" stroke="#3B82F6" stroke-opacity="0.8" stroke-width="3"/><line x1="109" y1="813" x2="109" y2="841" stroke="#3B82F6" stroke-opacity="0.8" stroke-width="3"/><line x1="189" y1="801" x2="189" y2="829" stroke="#3B82F6" stroke-opacity="0.8" stroke-width="3"/><line x1="269" y1="789" x2="269" y2="817" stroke="#3B82F6" stroke-opacity="0.8" stroke-width="3"/><line x1="349" y1="777" x2="349" y2="805" stroke="#3B82F6" stroke-opacity="0.8" stroke-width="3"/><line x1="429" y1="766" x2="429" y2="794" stroke="#3B82F6" stroke-opacity="0.8" stroke-width="3"/><line x1="509" y1="754" x2="509" y2="782" stroke="#3B82F6" stroke-opacity="0.8" stroke-width="3"/><line x1="589" y1="742" x2="589" y2="770" stroke="#3B82F6" stroke-opacity="0.8" stroke-width="3"/><line x1="669" y1="731" x2="669" y2="759" stroke="#3B82F6" stroke-opacity="0.8" stroke-width="3"/><line x1="749" y1="719" x2="749" y2="747" stroke="#3B82F6" stroke-opacity="0.8" stroke-width="3"/><line x1="829" y1="707" x2="829" y2="735" stroke="#3B82F6" stroke-opacity="0.8" stroke-width="3"/><line x1="909" y1="696" x2="909" y2="724" stroke="#3B82F6" stroke-opacity="0.8" stroke-width="3"/><line x1="989" y1="684" x2="989" y2="712" stroke="#3B82F6" stroke-opacity="0.8" stroke-width="3"/><line x1="1069" y1="672" x2="1069" y2="700" stroke="#3B82F6" stroke-opacity="0.8" stroke-width="3"/><line x1="1149" y1="660" x2="1149" y2="688" stroke="#3B82F6" stroke-opacity="0.8" stroke-width="3"/><line x1="1229" y1="649" x2="1229" y2="677" stroke="#3B82F6" stroke-opacity="0.8" stroke-width="3"/><line x1="1309" y1="637" x2="1309" y2="665" stroke="#3B82F6" stroke-opacity="0.8" stroke-width="3"/><line x1="1389" y1="625" x2="1389" y2="653" stroke="#3B82F6" stroke-opacity="0.8" stroke-width="3"/><line x1="1469" y1="614" x2="1469" y2="642" stroke="#3B82F6" stroke-opacity="0.8" stroke-width="3"/><line x1="1549" y1="602" x2="1549" y2="630" stroke="#3B82F6" stroke-opacity="0.8" stroke-width="3"/><line x1="1629" y1="590" x2="1629" y2="618" stroke="#3B82F6" stroke-opacity="0.8" stroke-width="3"/><line x1="1709" y1="579" x2="1709" y2="607" stroke="#3B82F6" stroke-opacity="0.8" stroke-width="3"/><line x1="1789" y1="567" x2="1789" y2="595" stroke="#3B82F6" stroke-opacity="0.8" stroke-width="3"/><line x1="1869" y1="555" x2="1869" y2="583" stroke="#3B82F6" stroke-opacity="0.8" stroke-width="3"/><line x1="1949" y1="543" x2="1949" y2="571" stroke="#3B82F6" stroke-opacity="0.8" stroke-width="3"/><line x1="2029" y1="532" x2="2029" y2="560" stroke="#3B82F6" stroke-opacity="0.8" stroke-width="3"/></g><g opacity="0.97"><rect x="422.4" y="216" width="1075.2" height="540" fill="none" stroke="#FAFCFF" stroke-opacity="0.6" stroke-width="2"/><rect x="442.4" y="236" width="318.40000000000003" height="189" fill="#3B82F6" fill-opacity="0.14"/><rect x="800.8" y="236" width="318.40000000000003" height="189" fill="#3B82F6" fill-opacity="0.2"/><rect x="1159.2" y="236" width="318.40000000000003" height="189" fill="#3B82F6" fill-opacity="0.26"/></g><g opacity="0.21"><rect x="460.79999999999995" y="324" width="517.9707771018149" height="10" fill="#3B82F6" fill-opacity="0.9"/><rect x="460.79999999999995" y="358" width="170.1798223970336" height="10" fill="#FAFCFF" fill-opacity="0.4"/></g></svg>