<svg xmlns="http://www.w3.org/2000/svg" width="1920" height="1080" viewBox="0 0 1920 1080"><rect width="1920" height="1080" fill="#0A1F44"/><polyline points="-1495.0,166.3 -1081.9,235.0 -668.8,146.4 -255.7,185.3 157.4,211.8 570.5,143.0 983.6,237.0 1396.6,160.2 1809.7,160.0 2222.8,228.3 2635.9,218.6 3049.0,139.4 3462.1,254.6" fill="none" stroke="#FAFCFF" stroke-opacity="0" stroke-width="1.5"/><polyline points="-1495.0,448.0 -1081.9,315.9 -668.8,436.7 -255.7,378.7 157.4,358.2 570.5,474.9 983.6,282.9 1396.6,301.5 1809.7,332.7 2222.8,332.6 2635.9,448.0 3049.0,480.9 3462.1,422.5" fill="none" stroke="#FAFCFF" stroke-opacity="0" stroke-width="2.5"/><polyline points="-1495.0,680.2 -1081.9,835.7 -668.8,683.9 -255.7,708.5 157.4,787.5 570.5,850.8 983.6,624.1 1396.6,834.9 1809.7,657.1 2222.8,784.7 2635.9,647.8 3049.0,818.0 3462.1,638.5" fill="none" stroke="#FAFCFF" stroke-opacity="0" stroke-width="3.5"/><polyline points="-1495.0,1165.2 -1081.9,1190.8 -668.8,1293.6 -255.7,1400.5 157.4,1409.3 570.5,1150.6 983.6,1356.6 1396.6,1451.9 1809.7,1324.9 2222.8,1445.2 2635.9,1226.3 3049.0,1310.2 3462.1,1420.8" fill="none" stroke="#FAFCFF" stroke-opacity="0" stroke-width="4.5"/><polyline points="-1495.0,2059.7 -1081.9,1891.2 -668.8,2125.3 -255.7,2062.0 157.4,2216.2 570.5,2081.6 983.6,1983.8 1396.6,2080.0 1809.7,1905.2 2222.8,1939.5 2635.9,2080.1 3049.0,1964.9 3462.1,1864.9" fill="none" stroke="#FAFCFF" stroke-opacity="0" stroke-width="5.5"/><g opacity="0.54"><rect x="422.4" y="216" width="1075.2" height="540" fill="none" stroke="#FAFCFF" stroke-opacity="0.6" stroke-width="2"/><rect x="442.4" y="236" width="318.40000000000003" height="189" fill="#3B82F6" fill-opacity="0.14"/><rect x="800.8" y="236" width="318.40000000000003" height="189" fill="#3B82F6" fill-opacity="0.2"/><rect x="1159.2" y="236" width="318.40000000000003" height="189" fill="#3B82F6" fill-opacity="0.26"/></g><g opacity="0.79"><rect x="460.79999999999995" y="324" width="517.9707771018149" height="10" fill="#3B82F6" fill-opacity="0.9"/><rect x="460.79999999999995" y="358" width="559.0618132464589" height="10" fill="#FAFCFF" fill-opacity="0.4"/><rect x="460.79999999999995" y="392" width="352.0004768371582" height="10" fill="#FAFCFF" fill-opacity="0.4"/><rect x="460.79999999999995" y="426" width="493.0137858130038" height="10" fill="#3B82F6" fill-opacity="0.9"/><rect x="460.79999999999995" y="460" width="575.1368051692843" height="10" fill="#FAFCFF" fill-opacity="0.4"/><rect x="460.79999999999995" y="494" width="457.9308180771768" height="10" fill="#FAFCFF" fill-opacity="0.4"/><rect x="460.79999999999995" y="528" width="514.2663277834654" height="10" fill="#3B82F6" fill-opacity="0.9"/><rect x="460.79999999999995" y="562" width="778.5601877756417" height="10" fill="#FAFCFF" fill-opacity="0.4"/><rect x="460.79999999999995" y="596" width="771.863665021956" height="10" fill="#FAFCFF" fill-opacity="0.4"/></g><rect width="1920" height="1080" fill="#0A1F44" fill-opacity="0.39"/><circle cx="960" cy="540" r="7" fill="#3B82F6" fill-opacity="0.55"/><rect x="800" y="580" width="320" height="2" fill="#FAFCFF" fill-opacity="0.22"/></svg>