<svg xmlns="http://www.w3.org/2000/svg" width="1920" height="1080" viewBox="0 0 1920 1080"><rect width="1920" height="1080" fill="#0A1F44"/><polyline points="7.4,548.0 168.1,574.7 328.9,540.2 489.6,555.4 650.3,565.7 811.1,538.9 971.8,575.5 1132.6,545.6 1293.3,545.5 1454.1,572.1 1614.8,568.3 1775.6,537.5 1936.3,582.3" fill="none" stroke="#FAFCFF" stroke-opacity="0.1" stroke-width="1.5"/><polyline points="7.4,657.6 168.1,606.2 328.9,653.2 489.6,630.6 650.3,622.6 811.1,668.1 971.8,593.3 1132.6,600.6 1293.3,612.7 1454.1,612.7 1614.8,657.6 1775.6,670.4 1936.3,647.7" fill="none" stroke="#FAFCFF" stroke-opacity="0.13" stroke-width="2.5"/><polyline points="7.4,747.9 168.1,808.5 328.9,749.4 489.6,758.9 650.3,789.7 811.1,814.3 971.8,726.1 1132.6,808.1 1293.3,738.9 1454.1,788.6 1614.8,735.3 1775.6,801.6 1936.3,731.7" fill="none" stroke="#FAFCFF" stroke-opacity="0.16" stroke-width="3.5"/><polyline points="7.4,936.7 168.1,946.6 328.9,986.7 489.6,1028.2 650.3,1031.7 811.1,931.0 971.8,1011.2 1132.6,1048.2 1293.3,998.8 1454.1,1045.6 1614.8,960.4 1775.6,993.1 1936.3,1036.1" fill="none" stroke="#FAFCFF" stroke-opacity="0.19" stroke-width="4.5"/><polyline points="7.4,1284.8 168.1,1219.2 328.9,1310.3 489.6,1285.6 650.3,1345.6 811.1,1293.3 971.8,1255.2 1132.6,1292.6 1293.3,1224.6 1454.1,1238.0 1614.8,1292.7 1775.6,1247.8 1936.3,1209.0" fill="none" stroke="#FAFCFF" stroke-opacity="0.22" stroke-width="5.5"/><circle cx="1107.4" cy="956.0" r="2.044981835637487" fill="#3B82F6" fill-opacity="0.74"/><circle cx="224.4" cy="690.3" r="2.0414887489520477" fill="#3B82F6" fill-opacity="0.54"/><circle cx="1105.2" cy="775.1" r="5.709477974300913" fill="#FF6A1A" fill-opacity="0.54"/><circle cx="1249.6" cy="825.2" r="2.3342536964100162" fill="#3B82F6" fill-opacity="0.41"/><circle cx="1558.7" cy="897.3" r="3.504314140336033" fill="#FF6A1A" fill-opacity="0.36"/><circle cx="451.1" cy="666.7" r="5.565853394217171" fill="#3B82F6" fill-opacity="0.74"/><circle cx="1053.1" cy="858.3" r="2.45482300090568" fill="#3B82F6" fill-opacity="0.62"/><circle cx="270.3" cy="958.5" r="4.513707941400998" fill="#3B82F6" fill-opacity="0.63"/><circle cx="397.7" cy="540.6" r="3.8304645743044388" fill="#3B82F6" fill-opacity="0.59"/><circle cx="1464.3" cy="914.5" r="4.459611388152416" fill="#3B82F6" fill-opacity="0.75"/><circle cx="505.3" cy="1005.5" r="3.811974719536419" fill="#FF6A1A" fill-opacity="0.42"/><circle cx="1286.0" cy="1019.5" r="5.3964890784985355" fill="#FF6A1A" fill-opacity="0.53"/><circle cx="1838.0" cy="717.8" r="3.451499645423444" fill="#FF6A1A" fill-opacity="0.58"/><circle cx="947.5" cy="733.9" r="5.583906659464213" fill="#3B82F6" fill-opacity="0.35"/><circle cx="1563.0" cy="833.8" r="3.814185145326906" fill="#3B82F6" fill-opacity="0.51"/><circle cx="1148.2" cy="867.4" r="2.340799462805639" fill="#3B82F6" fill-opacity="0.72"/><circle cx="1920.0" cy="998.5" r="2.3755747534277774" fill="#FF6A1A" fill-opacity="0.48"/><circle cx="1099.3" cy="856.2" r="2.1311879062743477" fill="#3B82F6" fill-opacity="0.62"/></svg>