<svg xmlns="http://www.w3.org/2000/svg" width="1920" height="1080" viewBox="0 0 1920 1080"><rect width="1920" height="1080" fill="#0A1F44"/><polyline points="-354.7,432.1 -117.4,471.6 120.0,420.7 357.3,443.0 594.7,458.2 832.0,418.8 1069.3,472.7 1306.7,428.6 1544.0,428.5 1781.4,467.8 2018.7,462.2 2256.0,416.6 2493.4,482.8" fill="none" stroke="#FAFCFF" stroke-opacity="0.07408805031446541" stroke-width="1.5"/><polyline points="-354.7,594.0 -117.4,518.1 120.0,587.5 357.3,554.2 594.7,542.4 832.0,609.4 1069.3,499.1 1306.7,509.8 1544.0,527.7 1781.4,527.7 2018.7,594.0 2256.0,612.9 2493.4,579.3" fill="none" stroke="#FAFCFF" stroke-opacity="0.09631446540880505" stroke-width="2.5"/><polyline points="-354.7,727.4 -117.4,816.7 120.0,729.5 357.3,743.6 594.7,789.0 832.0,825.4 1069.3,695.1 1306.7,816.3 1544.0,714.1 1781.4,787.4 2018.7,708.7 2256.0,806.6 2493.4,703.4" fill="none" stroke="#FAFCFF" stroke-opacity="0.11854088050314467" stroke-width="3.5"/><polyline points="-354.7,1006.1 -117.4,1020.7 120.0,1079.8 357.3,1141.3 594.7,1146.3 832.0,997.7 1069.3,1116.0 1306.7,1170.8 1544.0,1097.8 1781.4,1166.9 2018.7,1041.1 2256.0,1089.3 2493.4,1152.9" fill="none" stroke="#FAFCFF" stroke-opacity="0.1407672955974843" stroke-width="4.5"/><polyline points="-354.7,1520.0 -117.4,1423.1 120.0,1557.6 357.3,1521.3 594.7,1609.9 832.0,1532.6 1069.3,1476.4 1306.7,1531.6 1544.0,1431.2 1781.4,1450.9 2018.7,1531.7 2256.0,1465.5 2493.4,1408.1" fill="none" stroke="#FAFCFF" stroke-opacity="0.16299371069182392" stroke-width="5.5"/><circle cx="1269.5" cy="1034.6" r="3.01946041297821" fill="#3B82F6" fill-opacity="0.55"/><circle cx="-34.2" cy="642.2" r="3.014302794078139" fill="#3B82F6" fill-opacity="0.44"/><circle cx="1266.3" cy="767.5" r="8.43016912020566" fill="#FF6A1A" fill-opacity="0.44"/><circle cx="1479.5" cy="841.4" r="3.446576643044339" fill="#3B82F6" fill-opacity="0.26"/><circle cx="1935.9" cy="947.9" r="5.174196482819093" fill="#FF6A1A" fill-opacity="0.31"/><circle cx="300.5" cy="607.4" r="8.218104286016905" fill="#3B82F6" fill-opacity="0.54"/><circle cx="1189.3" cy="890.3" r="3.6245998585080037" fill="#3B82F6" fill-opacity="0.42"/><circle cx="33.6" cy="1038.3" r="6.664588509930257" fill="#3B82F6" fill-opacity="0.50"/><circle cx="221.6" cy="421.3" r="5.655764732903951" fill="#3B82F6" fill-opacity="0.41"/><circle cx="1796.5" cy="973.3" r="6.584713765731494" fill="#3B82F6" fill-opacity="0.55"/><circle cx="380.5" cy="1107.7" r="5.628464057885315" fill="#FF6A1A" fill-opacity="0.35"/><circle cx="1533.2" cy="1128.3" r="7.968034169123106" fill="#FF6A1A" fill-opacity="0.43"/><circle cx="2348.3" cy="682.9" r="5.096214725797624" fill="#FF6A1A" fill-opacity="0.46"/><circle cx="1033.4" cy="706.6" r="8.244760327057703" fill="#3B82F6" fill-opacity="0.30"/><circle cx="1942.3" cy="854.2" r="5.631727799916608" fill="#3B82F6" fill-opacity="0.33"/><circle cx="1329.8" cy="903.8" r="3.456241610311897" fill="#3B82F6" fill-opacity="0.55"/><circle cx="2469.4" cy="1097.3" r="3.5075880876025503" fill="#FF6A1A" fill-opacity="0.39"/><circle cx="1257.5" cy="887.2" r="3.146745561975761" fill="#3B82F6" fill-opacity="0.49"/><g opacity="1.00"><line x1="0" y1="842.4" x2="1920" y2="561.6" stroke="#FAFCFF" stroke-opacity="0.5" stroke-width="6"/><line x1="-72" y1="839" x2="-72" y2="867" stroke="#3B82F6" stroke-opacity="0.8" stroke-width="3"/><line x1="8" y1="827" x2="8" y2="855" stroke="#3B82F6" stroke-opacity="0.8" stroke-width="3"/><line x1="88" y1="815" x2="88" y2="843" stroke="#3B82F6" stroke-opacity="0.8" stroke-width="3"/><line x1="168" y1="804" x2="168" y2="832" stroke="#3B82F6" stroke-opacity="0.8" stroke-width="3"/><line x1="248" y1="792" x2="248" y2="820" stroke="#3B82F6" stroke-opacity="0.8" stroke-width="3"/><line x1="328" y1="780" x2="328" y2="808" stroke="#3B82F6" stroke-opacity="0.8" stroke-width="3"/><line x1="408" y1="769" x2="408" y2="797" stroke="#3B82F6" stroke-opacity="0.8" stroke-width="3"/><line x1="488" y1="757" x2="488" y2="785" stroke="#3B82F6" stroke-opacity="0.8" stroke-width="3"/><line x1="568" y1="745" x2="568" y2="773" stroke="#3B82F6" stroke-opacity="0.8" stroke-width="3"/><line x1="648" y1="734" x2="648" y2="762" stroke="#3B82F6" stroke-opacity="0.8" stroke-width="3"/><line x1="728" y1="722" x2="728" y2="750" stroke="#3B82F6" stroke-opacity="0.8" stroke-width="3"/><line x1="808" y1="710" x2="808" y2="738" stroke="#3B82F6" stroke-opacity="0.8" stroke-width="3"/><line x1="888" y1="698" x2="888" y2="726" stroke="#3B82F6" stroke-opacity="0.8" stroke-width="3"/><line x1="968" y1="687" x2="968" y2="715" stroke="#3B82F6" stroke-opacity="0.8" stroke-width="3"/><line x1="1048" y1="675" x2="1048" y2="703" stroke="#3B82F6" stroke-opacity="0.8" stroke-width="3"/><line x1="1128" y1="663" x2="1128" y2="691" stroke="#3B82F6" stroke-opacity="0.8" stroke-width="3"/><line x1="1208" y1="652" x2="1208" y2="680" stroke="#3B82F6" stroke-opacity="0.8" stroke-width="3"/><line x1="1288" y1="640" x2="1288" y2="668" stroke="#3B82F6" stroke-opacity="0.8" stroke-width="3"/><line x1="1368" y1="628" x2="1368" y2="656" stroke="#3B82F6" stroke-opacity="0.8" stroke-width="3"/><line x1="1448" y1="617" x2="1448" y2="645" stroke="#3B82F6" stroke-opacity="0.8" stroke-width="3"/><line x1="1528" y1="605" x2="1528" y2="633" stroke="#3B82F6" stroke-opacity="0.8" stroke-width="3"/><line x1="1608" y1="593" x2="1608" y2="621" stroke="#3B82F6" stroke-opacity="0.8" stroke-width="3"/><line x1="1688" y1="581" x2="1688" y2="609" stroke="#3B82F6" stroke-opacity="0.8" stroke-width="3"/><line x1="1768" y1="570" x2="1768" y2="598" stroke="#3B82F6" stroke-opacity="0.8" stroke-width="3"/><line x1="1848" y1="558" x2="1848" y2="586" stroke="#3B82F6" stroke-opacity="0.8" stroke-width="3"/><line x1="1928" y1="546" x2="1928" y2="574" stroke="#3B82F6" stroke-opacity="0.8" stroke-width="3"/><line x1="2008" y1="535" x2="2008" y2="563" stroke="#3B82F6" stroke-opacity="0.8" stroke-width="3"/></g></svg>