<svg xmlns="http://www.w3.org/2000/svg" width="1920" height="1080" viewBox="0 0 1920 1080"><rect width="1920" height="1080" fill="#0A1F44"/><polyline points="-1130.0,240.4 -765.9,300.9 -401.8,222.8 -37.7,257.1 326.4,280.4 690.5,219.9 1054.7,302.6 1418.8,235.0 1782.9,234.9 2147.0,295.0 2511.1,286.5 2875.2,216.6 3239.4,318.2" fill="none" stroke="#FAFCFF" stroke-opacity="0" stroke-width="1.5"/><polyline points="-1130.0,488.7 -765.9,372.3 -401.8,478.7 -37.7,427.6 326.4,409.5 690.5,512.4 1054.7,343.1 1418.8,359.6 1782.9,387.1 2147.0,387.0 2511.1,488.7 2875.2,517.6 3239.4,466.2" fill="none" stroke="#FAFCFF" stroke-opacity="0" stroke-width="2.5"/><polyline points="-1130.0,693.3 -765.9,830.4 -401.8,696.6 -37.7,718.3 326.4,787.9 690.5,843.7 1054.7,643.9 1418.8,829.7 1782.9,673.0 2147.0,785.4 2511.1,664.8 2875.2,814.8 3239.4,656.6" fill="none" stroke="#FAFCFF" stroke-opacity="0" stroke-width="3.5"/><polyline points="-1130.0,1120.9 -765.9,1143.4 -401.8,1234.1 -37.7,1328.3 326.4,1336.0 690.5,1108.0 1054.7,1289.6 1418.8,1373.5 1782.9,1261.6 2147.0,1367.6 2511.1,1174.7 2875.2,1248.6 3239.4,1346.2" fill="none" stroke="#FAFCFF" stroke-opacity="0" stroke-width="4.5"/><polyline points="-1130.0,1909.3 -765.9,1760.7 -401.8,1967.1 -37.7,1911.3 326.4,2047.2 690.5,1928.6 1054.7,1842.4 1418.8,1927.2 1782.9,1773.1 2147.0,1803.4 2511.1,1927.2 2875.2,1825.7 3239.4,1737.6" fill="none" stroke="#FAFCFF" stroke-opacity="0" stroke-width="5.5"/><g opacity="0.05"><line x1="0" y1="842.4" x2="1920" y2="561.6" stroke="#FAFCFF" stroke-opacity="0.5" stroke-width="6"/><line x1="-0" y1="828" x2="-0" y2="856" stroke="#3B82F6" stroke-opacity="0.8" stroke-width="3"/><line x1="80" y1="817" x2="80" y2="845" stroke="#3B82F6" stroke-opacity="0.8" stroke-width="3"/><line x1="160" y1="805" x2="160" y2="833" stroke="#3B82F6" stroke-opacity="0.8" stroke-width="3"/><line x1="240" y1="793" x2="240" y2="821" stroke="#3B82F6" stroke-opacity="0.8" stroke-width="3"/><line x1="320" y1="782" x2="320" y2="810" stroke="#3B82F6" stroke-opacity="0.8" stroke-width="3"/><line x1="400" y1="770" x2="400" y2="798" stroke="#3B82F6" stroke-opacity="0.8" stroke-width="3"/><line x1="480" y1="758" x2="480" y2="786" stroke="#3B82F6" stroke-opacity="0.8" stroke-width="3"/><line x1="560" y1="747" x2="560" y2="775" stroke="#3B82F6" stroke-opacity="0.8" stroke-width="3"/><line x1="640" y1="735" x2="640" y2="763" stroke="#3B82F6" stroke-opacity="0.8" stroke-width="3"/><line x1="720" y1="723" x2="720" y2="751" stroke="#3B82F6" stroke-opacity="0.8" stroke-width="3"/><line x1="800" y1="711" x2="800" y2="739" stroke="#3B82F6" stroke-opacity="0.8" stroke-width="3"/><line x1="880" y1="700" x2="880" y2="728" stroke="#3B82F6" stroke-opacity="0.8" stroke-width="3"/><line x1="960" y1="688" x2="960" y2="716" stroke="#3B82F6" stroke-opacity="0.8" stroke-width="3"/><line x1="1040" y1="676" x2="1040" y2="704" stroke="#3B82F6" stroke-opacity="0.8" stroke-width="3"/><line x1="1120" y1="665" x2="1120" y2="693" stroke="#3B82F6" stroke-opacity="0.8" stroke-width="3"/><line x1="1200" y1="653" x2="1200" y2="681" stroke="#3B82F6" stroke-opacity="0.8" stroke-width="3"/><line x1="1280" y1="641" x2="1280" y2="669" stroke="#3B82F6" stroke-opacity="0.8" stroke-width="3"/><line x1="1360" y1="630" x2="1360" y2="658" stroke="#3B82F6" stroke-opacity="0.8" stroke-width="3"/><line x1="1440" y1="618" x2="1440" y2="646" stroke="#3B82F6" stroke-opacity="0.8" stroke-width="3"/><line x1="1520" y1="606" x2="1520" y2="634" stroke="#3B82F6" stroke-opacity="0.8" stroke-width="3"/><line x1="1600" y1="594" x2="1600" y2="622" stroke="#3B82F6" stroke-opacity="0.8" stroke-width="3"/><line x1="1680" y1="583" x2="1680" y2="611" stroke="#3B82F6" stroke-opacity="0.8" stroke-width="3"/><line x1="1760" y1="571" x2="1760" y2="599" stroke="#3B82F6" stroke-opacity="0.8" stroke-width="3"/><line x1="1840" y1="559" x2="1840" y2="587" stroke="#3B82F6" stroke-opacity="0.8" stroke-width="3"/><line x1="1920" y1="548" x2="1920" y2="576" stroke="#3B82F6" stroke-opacity="0.8" stroke-width="3"/><line x1="2000" y1="536" x2="2000" y2="564" stroke="#3B82F6" stroke-opacity="0.8" stroke-width="3"/><line x1="2080" y1="524" x2="2080" y2="552" stroke="#3B82F6" stroke-opacity="0.8" stroke-width="3"/></g><g opacity="1.00"><rect x="422.4" y="216" width="1075.2" height="540" fill="none" stroke="#FAFCFF" stroke-opacity="0.6" stroke-width="2"/><rect x="442.4" y="236" width="318.40000000000003" height="189" fill="#3B82F6" fill-opacity="0.14"/><rect x="800.8" y="236" width="318.40000000000003" height="189" fill="#3B82F6" fill-opacity="0.2"/><rect x="1159.2" y="236" width="318.40000000000003" height="189" fill="#3B82F6" fill-opacity="0.26"/></g><g opacity="0.57"><rect x="460.79999999999995" y="324" width="517.9707771018149" height="10" fill="#3B82F6" fill-opacity="0.9"/><rect x="460.79999999999995" y="358" width="559.0618132464589" height="10" fill="#FAFCFF" fill-opacity="0.4"/><rect x="460.79999999999995" y="392" width="352.0004768371582" height="10" fill="#FAFCFF" fill-opacity="0.4"/><rect x="460.79999999999995" y="426" width="164.95807173114312" height="10" fill="#3B82F6" fill-opacity="0.9"/></g></svg>