<svg xmlns="http://www.w3.org/2000/svg" width="1920" height="1080" viewBox="0 0 1920 1080"><rect width="1920" height="1080" fill="#0A1F44"/><polyline points="-1462.5,171.6 -1052.9,239.7 -643.3,151.9 -233.7,190.4 175.9,216.7 585.5,148.5 995.0,241.6 1404.6,165.5 1814.2,165.4 2223.8,233.1 2633.4,223.4 3043.0,144.9 3452.6,259.1" fill="none" stroke="#FAFCFF" stroke-opacity="0" stroke-width="1.5"/><polyline points="-1462.5,450.9 -1052.9,320.0 -643.3,439.7 -233.7,382.2 175.9,361.8 585.5,477.6 995.0,287.2 1404.6,305.7 1814.2,336.6 2223.8,336.5 2633.4,450.9 3043.0,483.5 3452.6,425.6" fill="none" stroke="#FAFCFF" stroke-opacity="0" stroke-width="2.5"/><polyline points="-1462.5,681.1 -1052.9,835.3 -643.3,684.8 -233.7,709.2 175.9,787.5 585.5,850.3 995.0,625.5 1404.6,834.5 1814.2,658.2 2223.8,784.7 2633.4,649.0 3043.0,817.8 3452.6,639.8" fill="none" stroke="#FAFCFF" stroke-opacity="0" stroke-width="3.5"/><polyline points="-1462.5,1162.1 -1052.9,1187.4 -643.3,1289.4 -233.7,1395.4 175.9,1404.1 585.5,1147.6 995.0,1351.9 1404.6,1446.3 1814.2,1320.4 2223.8,1439.7 2633.4,1222.6 3043.0,1305.8 3452.6,1415.5" fill="none" stroke="#FAFCFF" stroke-opacity="0" stroke-width="4.5"/><polyline points="-1462.5,2049.0 -1052.9,1881.9 -643.3,2114.0 -233.7,2051.2 175.9,2204.1 585.5,2070.7 995.0,1973.7 1404.6,2069.1 1814.2,1895.8 2223.8,1929.8 2633.4,2069.2 3043.0,1954.9 3452.6,1855.8" fill="none" stroke="#FAFCFF" stroke-opacity="0" stroke-width="5.5"/><g opacity="0.93"><rect x="422.4" y="216" width="1075.2" height="540" fill="none" stroke="#FAFCFF" stroke-opacity="0.6" stroke-width="2"/><rect x="442.4" y="236" width="318.40000000000003" height="189" fill="#3B82F6" fill-opacity="0.14"/><rect x="800.8" y="236" width="318.40000000000003" height="189" fill="#3B82F6" fill-opacity="0.2"/><rect x="1159.2" y="236" width="318.40000000000003" height="189" fill="#3B82F6" fill-opacity="0.26"/></g><g opacity="1.00"><rect x="460.79999999999995" y="324" width="517.9707771018149" height="10" fill="#3B82F6" fill-opacity="0.9"/><rect x="460.79999999999995" y="358" width="559.0618132464589" height="10" fill="#FAFCFF" fill-opacity="0.4"/><rect x="460.79999999999995" y="392" width="352.0004768371582" height="10" fill="#FAFCFF" fill-opacity="0.4"/><rect x="460.79999999999995" y="426" width="493.0137858130038" height="10" fill="#3B82F6" fill-opacity="0.9"/><rect x="460.79999999999995" y="460" width="575.1368051692843" height="10" fill="#FAFCFF" fill-opacity="0.4"/><rect x="460.79999999999995" y="494" width="457.9308180771768" height="10" fill="#FAFCFF" fill-opacity="0.4"/><rect x="460.79999999999995" y="528" width="514.2663277834654" height="10" fill="#3B82F6" fill-opacity="0.9"/><rect x="460.79999999999995" y="562" width="778.5601877756417" height="10" fill="#FAFCFF" fill-opacity="0.4"/><rect x="460.79999999999995" y="596" width="771.863665021956" height="10" fill="#FAFCFF" fill-opacity="0.4"/></g><rect width="1920" height="1080" fill="#0A1F44" fill-opacity="0.23"/><circle cx="960" cy="540" r="7" fill="#3B82F6" fill-opacity="0.33"/><rect x="800" y="580" width="320" height="2" fill="#FAFCFF" fill-opacity="0.13"/></svg>