<svg xmlns="http://www.w3.org/2000/svg" width="1920" height="1080" viewBox="0 0 1920 1080"><rect width="1920" height="1080" fill="#0A1F44"/><polyline points="-1033.9,262.3 -684.2,320.4 -334.6,245.4 15.0,278.4 364.7,300.8 714.3,242.6 1063.9,322.1 1413.6,257.1 1763.2,257.0 2112.8,314.8 2462.4,306.5 2812.1,239.5 3161.7,337.0" fill="none" stroke="#FAFCFF" stroke-opacity="0" stroke-width="1.5"/><polyline points="-1033.9,500.7 -684.2,388.9 -334.6,491.1 15.0,442.1 364.7,424.7 714.3,523.5 1063.9,360.9 1413.6,376.7 1763.2,403.1 2112.8,403.1 2462.4,500.7 2812.1,528.5 3161.7,479.1" fill="none" stroke="#FAFCFF" stroke-opacity="0" stroke-width="2.5"/><polyline points="-1033.9,697.2 -684.2,828.8 -334.6,700.3 15.0,721.2 364.7,788.1 714.3,841.6 1063.9,649.7 1413.6,828.1 1763.2,677.7 2112.8,785.7 2462.4,669.8 2812.1,813.9 3161.7,662.0" fill="none" stroke="#FAFCFF" stroke-opacity="0" stroke-width="3.5"/><polyline points="-1033.9,1107.8 -684.2,1129.4 -334.6,1216.4 15.0,1306.9 364.7,1314.4 714.3,1095.4 1063.9,1269.8 1413.6,1350.4 1763.2,1242.9 2112.8,1344.7 2462.4,1159.4 2812.1,1230.4 3161.7,1324.1" fill="none" stroke="#FAFCFF" stroke-opacity="0" stroke-width="4.5"/><polyline points="-1033.9,1864.8 -684.2,1722.2 -334.6,1920.3 15.0,1866.7 364.7,1997.2 714.3,1883.4 1063.9,1800.6 1413.6,1882.0 1763.2,1734.1 2112.8,1763.1 2462.4,1882.0 2812.1,1784.5 3161.7,1700.0" fill="none" stroke="#FAFCFF" stroke-opacity="0" stroke-width="5.5"/><g opacity="0.31"><line x1="0" y1="842.4" x2="1920" y2="561.6" stroke="#FAFCFF" stroke-opacity="0.5" stroke-width="6"/><line x1="-40" y1="834" x2="-40" y2="862" stroke="#3B82F6" stroke-opacity="0.8" stroke-width="3"/><line x1="40" y1="823" x2="40" y2="851" stroke="#3B82F6" stroke-opacity="0.8" stroke-width="3"/><line x1="120" y1="811" x2="120" y2="839" stroke="#3B82F6" stroke-opacity="0.8" stroke-width="3"/><line x1="200" y1="799" x2="200" y2="827" stroke="#3B82F6" stroke-opacity="0.8" stroke-width="3"/><line x1="280" y1="787" x2="280" y2="815" stroke="#3B82F6" stroke-opacity="0.8" stroke-width="3"/><line x1="360" y1="776" x2="360" y2="804" stroke="#3B82F6" stroke-opacity="0.8" stroke-width="3"/><line x1="440" y1="764" x2="440" y2="792" stroke="#3B82F6" stroke-opacity="0.8" stroke-width="3"/><line x1="520" y1="752" x2="520" y2="780" stroke="#3B82F6" stroke-opacity="0.8" stroke-width="3"/><line x1="600" y1="741" x2="600" y2="769" stroke="#3B82F6" stroke-opacity="0.8" stroke-width="3"/><line x1="680" y1="729" x2="680" y2="757" stroke="#3B82F6" stroke-opacity="0.8" stroke-width="3"/><line x1="760" y1="717" x2="760" y2="745" stroke="#3B82F6" stroke-opacity="0.8" stroke-width="3"/><line x1="840" y1="706" x2="840" y2="734" stroke="#3B82F6" stroke-opacity="0.8" stroke-width="3"/><line x1="920" y1="694" x2="920" y2="722" stroke="#3B82F6" stroke-opacity="0.8" stroke-width="3"/><line x1="1000" y1="682" x2="1000" y2="710" stroke="#3B82F6" stroke-opacity="0.8" stroke-width="3"/><line x1="1080" y1="670" x2="1080" y2="698" stroke="#3B82F6" stroke-opacity="0.8" stroke-width="3"/><line x1="1160" y1="659" x2="1160" y2="687" stroke="#3B82F6" stroke-opacity="0.8" stroke-width="3"/><line x1="1240" y1="647" x2="1240" y2="675" stroke="#3B82F6" stroke-opacity="0.8" stroke-width="3"/><line x1="1320" y1="635" x2="1320" y2="663" stroke="#3B82F6" stroke-opacity="0.8" stroke-width="3"/><line x1="1400" y1="624" x2="1400" y2="652" stroke="#3B82F6" stroke-opacity="0.8" stroke-width="3"/><line x1="1480" y1="612" x2="1480" y2="640" stroke="#3B82F6" stroke-opacity="0.8" stroke-width="3"/><line x1="1560" y1="600" x2="1560" y2="628" stroke="#3B82F6" stroke-opacity="0.8" stroke-width="3"/><line x1="1640" y1="589" x2="1640" y2="617" stroke="#3B82F6" stroke-opacity="0.8" stroke-width="3"/><line x1="1720" y1="577" x2="1720" y2="605" stroke="#3B82F6" stroke-opacity="0.8" stroke-width="3"/><line x1="1800" y1="565" x2="1800" y2="593" stroke="#3B82F6" stroke-opacity="0.8" stroke-width="3"/><line x1="1880" y1="553" x2="1880" y2="581" stroke="#3B82F6" stroke-opacity="0.8" stroke-width="3"/><line x1="1960" y1="542" x2="1960" y2="570" stroke="#3B82F6" stroke-opacity="0.8" stroke-width="3"/><line x1="2040" y1="530" x2="2040" y2="558" stroke="#3B82F6" stroke-opacity="0.8" stroke-width="3"/></g><g opacity="1.00"><rect x="422.4" y="216" width="1075.2" height="540" fill="none" stroke="#FAFCFF" stroke-opacity="0.6" stroke-width="2"/><rect x="442.4" y="236" width="318.40000000000003" height="189" fill="#3B82F6" fill-opacity="0.14"/><rect x="800.8" y="236" width="318.40000000000003" height="189" fill="#3B82F6" fill-opacity="0.2"/><rect x="1159.2" y="236" width="318.40000000000003" height="189" fill="#3B82F6" fill-opacity="0.26"/></g><g opacity="0.29"><rect x="460.79999999999995" y="324" width="517.9707771018149" height="10" fill="#3B82F6" fill-opacity="0.9"/><rect x="460.79999999999995" y="358" width="521.7910256966929" height="10" fill="#FAFCFF" fill-opacity="0.4"/></g></svg>