<svg xmlns="http://www.w3.org/2000/svg" width="1920" height="1080" viewBox="0 0 1920 1080"><rect width="1920" height="1080" fill="#0A1F44"/><polyline points="-56.8,519.4 122.8,549.3 302.5,510.7 482.1,527.7 661.7,539.2 841.4,509.3 1021.0,550.1 1200.7,516.7 1380.3,516.7 1559.9,546.4 1739.6,542.1 1919.2,507.7 2098.9,557.8" fill="none" stroke="#FAFCFF" stroke-opacity="0.1" stroke-width="1.5"/><polyline points="-56.8,641.9 122.8,584.5 302.5,637.0 482.1,611.8 661.7,602.8 841.4,653.6 1021.0,570.1 1200.7,578.2 1380.3,591.8 1559.9,591.7 1739.6,641.9 1919.2,656.2 2098.9,630.8" fill="none" stroke="#FAFCFF" stroke-opacity="0.13" stroke-width="2.5"/><polyline points="-56.8,742.9 122.8,810.5 302.5,744.5 482.1,755.2 661.7,789.5 841.4,817.0 1021.0,718.5 1200.7,810.1 1380.3,732.8 1559.9,788.3 1739.6,728.8 1919.2,802.8 2098.9,724.7" fill="none" stroke="#FAFCFF" stroke-opacity="0.16" stroke-width="3.5"/><polyline points="-56.8,953.8 122.8,964.9 302.5,1009.6 482.1,1056.1 661.7,1060.0 841.4,947.4 1021.0,1037.0 1200.7,1078.5 1380.3,1023.2 1559.9,1075.5 1739.6,980.4 1919.2,1016.8 2098.9,1064.9" fill="none" stroke="#FAFCFF" stroke-opacity="0.19" stroke-width="4.5"/><polyline points="-56.8,1342.8 122.8,1269.5 302.5,1371.3 482.1,1343.8 661.7,1410.8 841.4,1352.3 1021.0,1309.8 1200.7,1351.6 1380.3,1275.6 1559.9,1290.5 1739.6,1351.6 1919.2,1301.5 2098.9,1258.1" fill="none" stroke="#FAFCFF" stroke-opacity="0.22" stroke-width="5.5"/><circle cx="1172.5" cy="975.4" r="2.2853684880491056" fill="#3B82F6" fill-opacity="0.39"/><circle cx="185.8" cy="678.4" r="2.281464790667638" fill="#3B82F6" fill-opacity="0.62"/><circle cx="1170.1" cy="773.3" r="6.380624423302119" fill="#FF6A1A" fill-opacity="0.62"/><circle cx="1331.4" cy="829.2" r="2.6086441199242327" fill="#3B82F6" fill-opacity="0.74"/><circle cx="1676.9" cy="909.8" r="3.9162446184038138" fill="#FF6A1A" fill-opacity="0.73"/><circle cx="439.1" cy="652.1" r="6.220116841419197" fill="#3B82F6" fill-opacity="0.56"/><circle cx="1111.8" cy="866.2" r="2.7433862894234995" fill="#3B82F6" fill-opacity="0.72"/><circle cx="237.1" cy="978.2" r="5.044292185763679" fill="#3B82F6" fill-opacity="0.53"/><circle cx="379.4" cy="511.2" r="4.280733882398953" fill="#3B82F6" fill-opacity="0.73"/><circle cx="1571.4" cy="929.0" r="4.983836608138541" fill="#3B82F6" fill-opacity="0.49"/><circle cx="499.6" cy="1030.7" r="4.26007055390427" fill="#FF6A1A" fill-opacity="0.70"/><circle cx="1372.1" cy="1046.3" r="6.03084383009061" fill="#FF6A1A" fill-opacity="0.63"/><circle cx="1989.0" cy="709.2" r="3.8572218044687285" fill="#FF6A1A" fill-opacity="0.58"/><circle cx="993.8" cy="727.2" r="6.240292259500171" fill="#3B82F6" fill-opacity="0.73"/><circle cx="1681.7" cy="838.8" r="4.2625408142062025" fill="#3B82F6" fill-opacity="0.75"/><circle cx="1218.2" cy="876.4" r="2.6159593380792265" fill="#3B82F6" fill-opacity="0.37"/><circle cx="2080.7" cy="1022.9" r="2.6548224477487605" fill="#FF6A1A" fill-opacity="0.67"/><circle cx="1163.4" cy="863.8" r="2.3817080417207896" fill="#3B82F6" fill-opacity="0.55"/><g opacity="0.39"><line x1="0" y1="842.4" x2="1920" y2="561.6" stroke="#FAFCFF" stroke-opacity="0.5" stroke-width="6"/><line x1="-7" y1="829" x2="-7" y2="857" stroke="#3B82F6" stroke-opacity="0.8" stroke-width="3"/><line x1="73" y1="818" x2="73" y2="846" stroke="#3B82F6" stroke-opacity="0.8" stroke-width="3"/><line x1="153" y1="806" x2="153" y2="834" stroke="#3B82F6" stroke-opacity="0.8" stroke-width="3"/><line x1="233" y1="794" x2="233" y2="822" stroke="#3B82F6" stroke-opacity="0.8" stroke-width="3"/><line x1="313" y1="783" x2="313" y2="811" stroke="#3B82F6" stroke-opacity="0.8" stroke-width="3"/><line x1="393" y1="771" x2="393" y2="799" stroke="#3B82F6" stroke-opacity="0.8" stroke-width="3"/><line x1="473" y1="759" x2="473" y2="787" stroke="#3B82F6" stroke-opacity="0.8" stroke-width="3"/><line x1="553" y1="748" x2="553" y2="776" stroke="#3B82F6" stroke-opacity="0.8" stroke-width="3"/><line x1="633" y1="736" x2="633" y2="764" stroke="#3B82F6" stroke-opacity="0.8" stroke-width="3"/><line x1="713" y1="724" x2="713" y2="752" stroke="#3B82F6" stroke-opacity="0.8" stroke-width="3"/><line x1="793" y1="712" x2="793" y2="740" stroke="#3B82F6" stroke-opacity="0.8" stroke-width="3"/><line x1="873" y1="701" x2="873" y2="729" stroke="#3B82F6" stroke-opacity="0.8" stroke-width="3"/><line x1="953" y1="689" x2="953" y2="717" stroke="#3B82F6" stroke-opacity="0.8" stroke-width="3"/><line x1="1033" y1="677" x2="1033" y2="705" stroke="#3B82F6" stroke-opacity="0.8" stroke-width="3"/><line x1="1113" y1="666" x2="1113" y2="694" stroke="#3B82F6" stroke-opacity="0.8" stroke-width="3"/><line x1="1193" y1="654" x2="1193" y2="682" stroke="#3B82F6" stroke-opacity="0.8" stroke-width="3"/><line x1="1273" y1="642" x2="1273" y2="670" stroke="#3B82F6" stroke-opacity="0.8" stroke-width="3"/><line x1="1353" y1="631" x2="1353" y2="659" stroke="#3B82F6" stroke-opacity="0.8" stroke-width="3"/><line x1="1433" y1="619" x2="1433" y2="647" stroke="#3B82F6" stroke-opacity="0.8" stroke-width="3"/><line x1="1513" y1="607" x2="1513" y2="635" stroke="#3B82F6" stroke-opacity="0.8" stroke-width="3"/><line x1="1593" y1="595" x2="1593" y2="623" stroke="#3B82F6" stroke-opacity="0.8" stroke-width="3"/><line x1="1673" y1="584" x2="1673" y2="612" stroke="#3B82F6" stroke-opacity="0.8" stroke-width="3"/><line x1="1753" y1="572" x2="1753" y2="600" stroke="#3B82F6" stroke-opacity="0.8" stroke-width="3"/><line x1="1833" y1="560" x2="1833" y2="588" stroke="#3B82F6" stroke-opacity="0.8" stroke-width="3"/><line x1="1913" y1="549" x2="1913" y2="577" stroke="#3B82F6" stroke-opacity="0.8" stroke-width="3"/><line x1="1993" y1="537" x2="1993" y2="565" stroke="#3B82F6" stroke-opacity="0.8" stroke-width="3"/><line x1="2073" y1="525" x2="2073" y2="553" stroke="#3B82F6" stroke-opacity="0.8" stroke-width="3"/></g></svg>