<svg xmlns="http://www.w3.org/2000/svg" width="1920" height="1080" viewBox="0 0 1920 1080"><rect width="1920" height="1080" fill="#0A1F44"/><polyline points="-114.0,501.1 77.8,533.0 269.5,491.8 461.3,509.9 653.0,522.2 844.8,490.3 1036.5,533.9 1228.3,498.2 1420.0,498.2 1611.8,529.9 1803.5,525.3 1995.3,488.6 2187.0,542.1" fill="none" stroke="#FAFCFF" stroke-opacity="0.1" stroke-width="1.5"/><polyline points="-114.0,631.8 77.8,570.5 269.5,626.6 461.3,599.7 653.0,590.1 844.8,644.3 1036.5,555.2 1228.3,563.8 1420.0,578.3 1611.8,578.3 1803.5,631.8 1995.3,647.1 2187.0,620.0" fill="none" stroke="#FAFCFF" stroke-opacity="0.13" stroke-width="2.5"/><polyline points="-114.0,739.6 77.8,811.8 269.5,741.3 461.3,752.7 653.0,789.4 844.8,818.8 1036.5,713.6 1228.3,811.4 1420.0,728.9 1611.8,788.1 1803.5,724.6 1995.3,803.6 2187.0,720.3" fill="none" stroke="#FAFCFF" stroke-opacity="0.16" stroke-width="3.5"/><polyline points="-114.0,964.8 77.8,976.6 269.5,1024.4 461.3,1074.0 653.0,1078.1 844.8,958.0 1036.5,1053.6 1228.3,1097.8 1420.0,1038.9 1611.8,1094.7 1803.5,993.1 1995.3,1032.1 2187.0,1083.4" fill="none" stroke="#FAFCFF" stroke-opacity="0.19" stroke-width="4.5"/><polyline points="-114.0,1380.0 77.8,1301.7 269.5,1410.4 461.3,1381.0 653.0,1452.6 844.8,1390.1 1036.5,1344.8 1228.3,1389.4 1420.0,1308.3 1611.8,1324.2 1803.5,1389.4 1995.3,1335.9 2187.0,1289.6" fill="none" stroke="#FAFCFF" stroke-opacity="0.22" stroke-width="5.5"/><circle cx="1198.2" cy="987.8" r="2.439479365261532" fill="#3B82F6" fill-opacity="0.49"/><circle cx="144.9" cy="670.8" r="2.435312427080615" fill="#3B82F6" fill-opacity="0.72"/><circle cx="1195.7" cy="772.1" r="6.810893604040465" fill="#FF6A1A" fill-opacity="0.72"/><circle cx="1367.9" cy="831.8" r="2.784554672537017" fill="#3B82F6" fill-opacity="0.74"/><circle cx="1736.7" cy="917.8" r="4.180331524597161" fill="#FF6A1A" fill-opacity="0.75"/><circle cx="415.3" cy="642.7" r="6.639562400333503" fill="#3B82F6" fill-opacity="0.39"/><circle cx="1133.4" cy="871.3" r="2.928383006498437" fill="#3B82F6" fill-opacity="0.61"/><circle cx="199.7" cy="990.8" r="5.384447525145046" fill="#3B82F6" fill-opacity="0.67"/><circle cx="351.6" cy="492.3" r="4.569399652133361" fill="#3B82F6" fill-opacity="0.63"/><circle cx="1624.0" cy="938.3" r="5.319915203594841" fill="#3B82F6" fill-opacity="0.39"/><circle cx="480.0" cy="1046.9" r="4.547342918725162" fill="#FF6A1A" fill-opacity="0.75"/><circle cx="1411.3" cy="1063.5" r="6.437526007536667" fill="#FF6A1A" fill-opacity="0.73"/><circle cx="2069.8" cy="703.7" r="4.1173285833090265" fill="#FF6A1A" fill-opacity="0.70"/><circle cx="1007.5" cy="722.8" r="6.661098321718361" fill="#3B82F6" fill-opacity="0.75"/><circle cx="1741.8" cy="842.0" r="4.5499797578453745" fill="#3B82F6" fill-opacity="0.70"/><circle cx="1247.0" cy="882.1" r="2.7923631829959703" fill="#3B82F6" fill-opacity="0.54"/><circle cx="2167.6" cy="1038.5" r="2.83384697635555" fill="#FF6A1A" fill-opacity="0.74"/><circle cx="1188.5" cy="868.7" r="2.54231545251379" fill="#3B82F6" fill-opacity="0.68"/><g opacity="0.67"><line x1="0" y1="842.4" x2="1920" y2="561.6" stroke="#FAFCFF" stroke-opacity="0.5" stroke-width="6"/><line x1="-42" y1="835" x2="-42" y2="863" stroke="#3B82F6" stroke-opacity="0.8" stroke-width="3"/><line x1="38" y1="823" x2="38" y2="851" stroke="#3B82F6" stroke-opacity="0.8" stroke-width="3"/><line x1="118" y1="811" x2="118" y2="839" stroke="#3B82F6" stroke-opacity="0.8" stroke-width="3"/><line x1="198" y1="799" x2="198" y2="827" stroke="#3B82F6" stroke-opacity="0.8" stroke-width="3"/><line x1="278" y1="788" x2="278" y2="816" stroke="#3B82F6" stroke-opacity="0.8" stroke-width="3"/><line x1="358" y1="776" x2="358" y2="804" stroke="#3B82F6" stroke-opacity="0.8" stroke-width="3"/><line x1="438" y1="764" x2="438" y2="792" stroke="#3B82F6" stroke-opacity="0.8" stroke-width="3"/><line x1="518" y1="753" x2="518" y2="781" stroke="#3B82F6" stroke-opacity="0.8" stroke-width="3"/><line x1="598" y1="741" x2="598" y2="769" stroke="#3B82F6" stroke-opacity="0.8" stroke-width="3"/><line x1="678" y1="729" x2="678" y2="757" stroke="#3B82F6" stroke-opacity="0.8" stroke-width="3"/><line x1="758" y1="718" x2="758" y2="746" stroke="#3B82F6" stroke-opacity="0.8" stroke-width="3"/><line x1="838" y1="706" x2="838" y2="734" stroke="#3B82F6" stroke-opacity="0.8" stroke-width="3"/><line x1="918" y1="694" x2="918" y2="722" stroke="#3B82F6" stroke-opacity="0.8" stroke-width="3"/><line x1="998" y1="682" x2="998" y2="710" stroke="#3B82F6" stroke-opacity="0.8" stroke-width="3"/><line x1="1078" y1="671" x2="1078" y2="699" stroke="#3B82F6" stroke-opacity="0.8" stroke-width="3"/><line x1="1158" y1="659" x2="1158" y2="687" stroke="#3B82F6" stroke-opacity="0.8" stroke-width="3"/><line x1="1238" y1="647" x2="1238" y2="675" stroke="#3B82F6" stroke-opacity="0.8" stroke-width="3"/><line x1="1318" y1="636" x2="1318" y2="664" stroke="#3B82F6" stroke-opacity="0.8" stroke-width="3"/><line x1="1398" y1="624" x2="1398" y2="652" stroke="#3B82F6" stroke-opacity="0.8" stroke-width="3"/><line x1="1478" y1="612" x2="1478" y2="640" stroke="#3B82F6" stroke-opacity="0.8" stroke-width="3"/><line x1="1558" y1="601" x2="1558" y2="629" stroke="#3B82F6" stroke-opacity="0.8" stroke-width="3"/><line x1="1638" y1="589" x2="1638" y2="617" stroke="#3B82F6" stroke-opacity="0.8" stroke-width="3"/><line x1="1718" y1="577" x2="1718" y2="605" stroke="#3B82F6" stroke-opacity="0.8" stroke-width="3"/><line x1="1798" y1="565" x2="1798" y2="593" stroke="#3B82F6" stroke-opacity="0.8" stroke-width="3"/><line x1="1878" y1="554" x2="1878" y2="582" stroke="#3B82F6" stroke-opacity="0.8" stroke-width="3"/><line x1="1958" y1="542" x2="1958" y2="570" stroke="#3B82F6" stroke-opacity="0.8" stroke-width="3"/><line x1="2038" y1="530" x2="2038" y2="558" stroke="#3B82F6" stroke-opacity="0.8" stroke-width="3"/></g></svg>