<svg xmlns="http://www.w3.org/2000/svg" width="1920" height="1080" viewBox="0 0 1920 1080"><rect width="1920" height="1080" fill="#0A1F44"/><polyline points="-1103.1,246.4 -743.0,306.4 -382.9,229.1 -22.8,263.0 337.3,286.1 697.4,226.2 1057.5,308.0 1417.6,241.1 1777.7,241.0 2137.8,300.5 2497.9,292.0 2858.0,223.0 3218.1,323.4" fill="none" stroke="#FAFCFF" stroke-opacity="0" stroke-width="1.5"/><polyline points="-1103.1,492.0 -743.0,376.9 -382.9,482.2 -22.8,431.6 337.3,413.7 697.4,515.5 1057.5,348.1 1417.6,364.3 1777.7,391.5 2137.8,391.4 2497.9,492.0 2858.0,520.7 3218.1,469.8" fill="none" stroke="#FAFCFF" stroke-opacity="0" stroke-width="2.5"/><polyline points="-1103.1,694.4 -743.0,830.0 -382.9,697.6 -22.8,719.1 337.3,788.0 697.4,843.1 1057.5,645.5 1417.6,829.3 1777.7,674.3 2137.8,785.5 2497.9,666.2 2858.0,814.5 3218.1,658.1" fill="none" stroke="#FAFCFF" stroke-opacity="0" stroke-width="3.5"/><polyline points="-1103.1,1117.2 -743.0,1139.5 -382.9,1229.2 -22.8,1322.3 337.3,1330.0 697.4,1104.5 1057.5,1284.1 1417.6,1367.1 1777.7,1256.4 2137.8,1361.3 2497.9,1170.5 2858.0,1243.6 3218.1,1340.0" fill="none" stroke="#FAFCFF" stroke-opacity="0" stroke-width="4.5"/><polyline points="-1103.1,1897.0 -743.0,1750.0 -382.9,1954.1 -22.8,1898.9 337.3,2033.3 697.4,1916.0 1057.5,1830.8 1417.6,1914.6 1777.7,1762.3 2137.8,1792.2 2497.9,1914.7 2858.0,1814.3 3218.1,1727.2" fill="none" stroke="#FAFCFF" stroke-opacity="0" stroke-width="5.5"/><g opacity="0.13"><line x1="0" y1="842.4" x2="1920" y2="561.6" stroke="#FAFCFF" stroke-opacity="0.5" stroke-width="6"/><line x1="-12" y1="830" x2="-12" y2="858" stroke="#3B82F6" stroke-opacity="0.8" stroke-width="3"/><line x1="68" y1="818" x2="68" y2="846" stroke="#3B82F6" stroke-opacity="0.8" stroke-width="3"/><line x1="148" y1="807" x2="148" y2="835" stroke="#3B82F6" stroke-opacity="0.8" stroke-width="3"/><line x1="228" y1="795" x2="228" y2="823" stroke="#3B82F6" stroke-opacity="0.8" stroke-width="3"/><line x1="308" y1="783" x2="308" y2="811" stroke="#3B82F6" stroke-opacity="0.8" stroke-width="3"/><line x1="388" y1="772" x2="388" y2="800" stroke="#3B82F6" stroke-opacity="0.8" stroke-width="3"/><line x1="468" y1="760" x2="468" y2="788" stroke="#3B82F6" stroke-opacity="0.8" stroke-width="3"/><line x1="548" y1="748" x2="548" y2="776" stroke="#3B82F6" stroke-opacity="0.8" stroke-width="3"/><line x1="628" y1="737" x2="628" y2="765" stroke="#3B82F6" stroke-opacity="0.8" stroke-width="3"/><line x1="708" y1="725" x2="708" y2="753" stroke="#3B82F6" stroke-opacity="0.8" stroke-width="3"/><line x1="788" y1="713" x2="788" y2="741" stroke="#3B82F6" stroke-opacity="0.8" stroke-width="3"/><line x1="868" y1="701" x2="868" y2="729" stroke="#3B82F6" stroke-opacity="0.8" stroke-width="3"/><line x1="948" y1="690" x2="948" y2="718" stroke="#3B82F6" stroke-opacity="0.8" stroke-width="3"/><line x1="1028" y1="678" x2="1028" y2="706" stroke="#3B82F6" stroke-opacity="0.8" stroke-width="3"/><line x1="1108" y1="666" x2="1108" y2="694" stroke="#3B82F6" stroke-opacity="0.8" stroke-width="3"/><line x1="1188" y1="655" x2="1188" y2="683" stroke="#3B82F6" stroke-opacity="0.8" stroke-width="3"/><line x1="1268" y1="643" x2="1268" y2="671" stroke="#3B82F6" stroke-opacity="0.8" stroke-width="3"/><line x1="1348" y1="631" x2="1348" y2="659" stroke="#3B82F6" stroke-opacity="0.8" stroke-width="3"/><line x1="1428" y1="620" x2="1428" y2="648" stroke="#3B82F6" stroke-opacity="0.8" stroke-width="3"/><line x1="1508" y1="608" x2="1508" y2="636" stroke="#3B82F6" stroke-opacity="0.8" stroke-width="3"/><line x1="1588" y1="596" x2="1588" y2="624" stroke="#3B82F6" stroke-opacity="0.8" stroke-width="3"/><line x1="1668" y1="584" x2="1668" y2="612" stroke="#3B82F6" stroke-opacity="0.8" stroke-width="3"/><line x1="1748" y1="573" x2="1748" y2="601" stroke="#3B82F6" stroke-opacity="0.8" stroke-width="3"/><line x1="1828" y1="561" x2="1828" y2="589" stroke="#3B82F6" stroke-opacity="0.8" stroke-width="3"/><line x1="1908" y1="549" x2="1908" y2="577" stroke="#3B82F6" stroke-opacity="0.8" stroke-width="3"/><line x1="1988" y1="538" x2="1988" y2="566" stroke="#3B82F6" stroke-opacity="0.8" stroke-width="3"/><line x1="2068" y1="526" x2="2068" y2="554" stroke="#3B82F6" stroke-opacity="0.8" stroke-width="3"/></g><g opacity="1.00"><rect x="422.4" y="216" width="1075.2" height="540" fill="none" stroke="#FAFCFF" stroke-opacity="0.6" stroke-width="2"/><rect x="442.4" y="236" width="318.40000000000003" height="189" fill="#3B82F6" fill-opacity="0.14"/><rect x="800.8" y="236" width="318.40000000000003" height="189" fill="#3B82F6" fill-opacity="0.2"/><rect x="1159.2" y="236" width="318.40000000000003" height="189" fill="#3B82F6" fill-opacity="0.26"/></g><g opacity="0.49"><rect x="460.79999999999995" y="324" width="517.9707771018149" height="10" fill="#3B82F6" fill-opacity="0.9"/><rect x="460.79999999999995" y="358" width="559.0618132464589" height="10" fill="#FAFCFF" fill-opacity="0.4"/><rect x="460.79999999999995" y="392" width="352.0004768371582" height="10" fill="#FAFCFF" fill-opacity="0.4"/></g></svg>