<svg xmlns="http://www.w3.org/2000/svg" width="1920" height="1080" viewBox="0 0 1920 1080"><rect width="1920" height="1080" fill="#0A1F44"/><polyline points="5.5,548.7 165.8,575.4 326.0,541.0 486.3,556.1 646.6,566.3 806.8,539.7 967.1,576.1 1127.4,546.3 1287.6,546.3 1447.9,572.8 1608.2,569.0 1768.5,538.2 1928.7,582.9" fill="none" stroke="#FAFCFF" stroke-opacity="0.1" stroke-width="1.5"/><polyline points="5.5,658.0 165.8,606.8 326.0,653.6 486.3,631.1 646.6,623.1 806.8,668.4 967.1,593.9 1127.4,601.2 1287.6,613.3 1447.9,613.2 1608.2,658.0 1768.5,670.7 1928.7,648.1" fill="none" stroke="#FAFCFF" stroke-opacity="0.13" stroke-width="2.5"/><polyline points="5.5,748.1 165.8,808.4 326.0,749.5 486.3,759.0 646.6,789.7 806.8,814.2 967.1,726.3 1127.4,808.1 1287.6,739.1 1447.9,788.6 1608.2,735.5 1768.5,801.5 1928.7,731.9" fill="none" stroke="#FAFCFF" stroke-opacity="0.16" stroke-width="3.5"/><polyline points="5.5,936.3 165.8,946.2 326.0,986.1 486.3,1027.5 646.6,1031.0 806.8,930.6 967.1,1010.5 1127.4,1047.5 1287.6,998.2 1447.9,1044.9 1608.2,959.9 1768.5,992.5 1928.7,1035.4" fill="none" stroke="#FAFCFF" stroke-opacity="0.19" stroke-width="4.5"/><polyline points="5.5,1283.3 165.8,1217.9 326.0,1308.7 486.3,1284.2 646.6,1344.0 806.8,1291.8 967.1,1253.9 1127.4,1291.2 1287.6,1223.4 1447.9,1236.7 1608.2,1291.2 1768.5,1246.5 1928.7,1207.7" fill="none" stroke="#FAFCFF" stroke-opacity="0.22" stroke-width="5.5"/><circle cx="1102.3" cy="955.5" r="2.038957018158982" fill="#3B82F6" fill-opacity="0.75"/><circle cx="221.9" cy="690.5" r="2.035474222621048" fill="#3B82F6" fill-opacity="0.58"/><circle cx="1100.1" cy="775.2" r="5.692657011838923" fill="#FF6A1A" fill-opacity="0.58"/><circle cx="1244.1" cy="825.1" r="2.3273766414531867" fill="#3B82F6" fill-opacity="0.36"/><circle cx="1552.3" cy="897.0" r="3.4939899150960136" fill="#FF6A1A" fill-opacity="0.40"/><circle cx="447.9" cy="667.1" r="5.5494555709074955" fill="#3B82F6" fill-opacity="0.73"/><circle cx="1048.1" cy="858.1" r="2.4475907310318097" fill="#3B82F6" fill-opacity="0.58"/><circle cx="267.7" cy="958.0" r="4.500409893455382" fill="#3B82F6" fill-opacity="0.66"/><circle cx="394.7" cy="541.4" r="3.8191794618814865" fill="#3B82F6" fill-opacity="0.56"/><circle cx="1458.1" cy="914.1" r="4.446472716614873" fill="#3B82F6" fill-opacity="0.75"/><circle cx="501.9" cy="1004.9" r="3.8007440809470427" fill="#FF6A1A" fill-opacity="0.46"/><circle cx="1280.3" cy="1018.8" r="5.380590227390861" fill="#FF6A1A" fill-opacity="0.57"/><circle cx="1830.7" cy="718.0" r="3.4413310194589406" fill="#FF6A1A" fill-opacity="0.62"/><circle cx="942.8" cy="734.1" r="5.56745564857795" fill="#3B82F6" fill-opacity="0.39"/><circle cx="1556.6" cy="833.7" r="3.802947994497809" fill="#3B82F6" fill-opacity="0.46"/><circle cx="1143.0" cy="867.2" r="2.3339031230575693" fill="#3B82F6" fill-opacity="0.74"/><circle cx="1912.5" cy="997.9" r="2.3685759605551326" fill="#FF6A1A" fill-opacity="0.52"/><circle cx="1094.2" cy="856.0" r="2.1249091130235027" fill="#3B82F6" fill-opacity="0.65"/></svg>