<svg xmlns="http://www.w3.org/2000/svg" width="1920" height="1080" viewBox="0 0 1920 1080"><rect width="1920" height="1080" fill="#0A1F44"/><polyline points="-186.1,479.5 19.9,513.7 226.0,469.5 432.0,488.9 638.0,502.1 844.1,467.9 1050.1,514.7 1256.2,476.4 1462.2,476.3 1668.3,510.4 1874.3,505.5 2080.3,466.0 2286.4,523.5" fill="none" stroke="#FAFCFF" stroke-opacity="0.1" stroke-width="1.5"/><polyline points="-186.1,620.0 19.9,554.1 226.0,614.3 432.0,585.4 638.0,575.2 844.1,633.4 1050.1,537.6 1256.2,546.9 1462.2,562.5 1668.3,562.4 1874.3,620.0 2080.3,636.4 2286.4,607.3" fill="none" stroke="#FAFCFF" stroke-opacity="0.13" stroke-width="2.5"/><polyline points="-186.1,735.8 19.9,813.3 226.0,737.6 432.0,749.9 638.0,789.3 844.1,820.9 1050.1,707.8 1256.2,812.9 1462.2,724.2 1668.3,787.9 1874.3,719.6 2080.3,804.5 2286.4,715.0" fill="none" stroke="#FAFCFF" stroke-opacity="0.16" stroke-width="3.5"/><polyline points="-186.1,977.7 19.9,990.4 226.0,1041.8 432.0,1095.1 638.0,1099.5 844.1,970.4 1050.1,1073.2 1256.2,1120.7 1462.2,1057.4 1668.3,1117.3 1874.3,1008.2 2080.3,1050.0 2286.4,1105.2" fill="none" stroke="#FAFCFF" stroke-opacity="0.19" stroke-width="4.5"/><polyline points="-186.1,1423.9 19.9,1339.8 226.0,1456.6 432.0,1425.0 638.0,1501.9 844.1,1434.8 1050.1,1386.0 1256.2,1434.0 1462.2,1346.8 1668.3,1363.9 1874.3,1434.0 2080.3,1376.6 2286.4,1326.7" fill="none" stroke="#FAFCFF" stroke-opacity="0.22" stroke-width="5.5"/><circle cx="1223.9" cy="1002.5" r="2.6212804202772677" fill="#3B82F6" fill-opacity="0.64"/><circle cx="92.1" cy="661.8" r="2.6168029429836763" fill="#3B82F6" fill-opacity="0.75"/><circle cx="1221.1" cy="770.7" r="7.318472253996266" fill="#FF6A1A" fill-opacity="0.75"/><circle cx="1406.2" cy="834.8" r="2.99207230290728" fill="#3B82F6" fill-opacity="0.65"/><circle cx="1802.4" cy="927.2" r="4.491868769924844" fill="#FF6A1A" fill-opacity="0.69"/><circle cx="382.6" cy="631.7" r="7.134372672727028" fill="#3B82F6" fill-opacity="0.49"/><circle cx="1154.3" cy="877.3" r="3.1466193759684007" fill="#3B82F6" fill-opacity="0.45"/><circle cx="150.9" cy="1005.7" r="5.785720950404494" fill="#3B82F6" fill-opacity="0.74"/><circle cx="314.2" cy="470.0" r="4.909932017102689" fill="#3B82F6" fill-opacity="0.48"/><circle cx="1681.4" cy="949.3" r="5.716379387871353" fill="#3B82F6" fill-opacity="0.56"/><circle cx="452.1" cy="1065.9" r="4.886231515986955" fill="#FF6A1A" fill-opacity="0.72"/><circle cx="1452.8" cy="1083.8" r="6.917279612558833" fill="#FF6A1A" fill-opacity="0.75"/><circle cx="2160.4" cy="697.2" r="4.424170564000171" fill="#FF6A1A" fill-opacity="0.75"/><circle cx="1018.9" cy="717.8" r="7.157513548547762" fill="#3B82F6" fill-opacity="0.68"/><circle cx="1807.9" cy="845.8" r="4.889064864305314" fill="#3B82F6" fill-opacity="0.57"/><circle cx="1276.2" cy="888.9" r="3.0004627389441882" fill="#3B82F6" fill-opacity="0.67"/><circle cx="2265.5" cy="1056.9" r="3.045038092538391" fill="#FF6A1A" fill-opacity="0.74"/><circle cx="1213.4" cy="874.5" r="2.7317803186780765" fill="#3B82F6" fill-opacity="0.75"/><g opacity="0.95"><line x1="0" y1="842.4" x2="1920" y2="561.6" stroke="#FAFCFF" stroke-opacity="0.5" stroke-width="6"/><line x1="-77" y1="840" x2="-77" y2="868" stroke="#3B82F6" stroke-opacity="0.8" stroke-width="3"/><line x1="3" y1="828" x2="3" y2="856" stroke="#3B82F6" stroke-opacity="0.8" stroke-width="3"/><line x1="83" y1="816" x2="83" y2="844" stroke="#3B82F6" stroke-opacity="0.8" stroke-width="3"/><line x1="163" y1="805" x2="163" y2="833" stroke="#3B82F6" stroke-opacity="0.8" stroke-width="3"/><line x1="243" y1="793" x2="243" y2="821" stroke="#3B82F6" stroke-opacity="0.8" stroke-width="3"/><line x1="323" y1="781" x2="323" y2="809" stroke="#3B82F6" stroke-opacity="0.8" stroke-width="3"/><line x1="403" y1="769" x2="403" y2="797" stroke="#3B82F6" stroke-opacity="0.8" stroke-width="3"/><line x1="483" y1="758" x2="483" y2="786" stroke="#3B82F6" stroke-opacity="0.8" stroke-width="3"/><line x1="563" y1="746" x2="563" y2="774" stroke="#3B82F6" stroke-opacity="0.8" stroke-width="3"/><line x1="643" y1="734" x2="643" y2="762" stroke="#3B82F6" stroke-opacity="0.8" stroke-width="3"/><line x1="723" y1="723" x2="723" y2="751" stroke="#3B82F6" stroke-opacity="0.8" stroke-width="3"/><line x1="803" y1="711" x2="803" y2="739" stroke="#3B82F6" stroke-opacity="0.8" stroke-width="3"/><line x1="883" y1="699" x2="883" y2="727" stroke="#3B82F6" stroke-opacity="0.8" stroke-width="3"/><line x1="963" y1="688" x2="963" y2="716" stroke="#3B82F6" stroke-opacity="0.8" stroke-width="3"/><line x1="1043" y1="676" x2="1043" y2="704" stroke="#3B82F6" stroke-opacity="0.8" stroke-width="3"/><line x1="1123" y1="664" x2="1123" y2="692" stroke="#3B82F6" stroke-opacity="0.8" stroke-width="3"/><line x1="1203" y1="652" x2="1203" y2="680" stroke="#3B82F6" stroke-opacity="0.8" stroke-width="3"/><line x1="1283" y1="641" x2="1283" y2="669" stroke="#3B82F6" stroke-opacity="0.8" stroke-width="3"/><line x1="1363" y1="629" x2="1363" y2="657" stroke="#3B82F6" stroke-opacity="0.8" stroke-width="3"/><line x1="1443" y1="617" x2="1443" y2="645" stroke="#3B82F6" stroke-opacity="0.8" stroke-width="3"/><line x1="1523" y1="606" x2="1523" y2="634" stroke="#3B82F6" stroke-opacity="0.8" stroke-width="3"/><line x1="1603" y1="594" x2="1603" y2="622" stroke="#3B82F6" stroke-opacity="0.8" stroke-width="3"/><line x1="1683" y1="582" x2="1683" y2="610" stroke="#3B82F6" stroke-opacity="0.8" stroke-width="3"/><line x1="1763" y1="571" x2="1763" y2="599" stroke="#3B82F6" stroke-opacity="0.8" stroke-width="3"/><line x1="1843" y1="559" x2="1843" y2="587" stroke="#3B82F6" stroke-opacity="0.8" stroke-width="3"/><line x1="1923" y1="547" x2="1923" y2="575" stroke="#3B82F6" stroke-opacity="0.8" stroke-width="3"/><line x1="2003" y1="535" x2="2003" y2="563" stroke="#3B82F6" stroke-opacity="0.8" stroke-width="3"/></g></svg>