<svg xmlns="http://www.w3.org/2000/svg" width="1920" height="1080" viewBox="0 0 1920 1080"><rect width="1920" height="1080" fill="#0A1F44"/><polyline points="-130.7,496.0 64.4,528.4 259.6,486.6 454.7,504.9 649.8,517.4 845.0,485.0 1040.1,529.3 1235.3,493.1 1430.4,493.0 1625.5,525.3 1820.7,520.7 2015.8,483.2 2210.9,537.7" fill="none" stroke="#FAFCFF" stroke-opacity="0.1" stroke-width="1.5"/><polyline points="-130.7,629.0 64.4,566.6 259.6,623.7 454.7,596.3 649.8,586.6 845.0,641.7 1040.1,551.0 1235.3,559.8 1430.4,574.6 1625.5,574.5 1820.7,629.0 2015.8,644.6 2210.9,617.0" fill="none" stroke="#FAFCFF" stroke-opacity="0.13" stroke-width="2.5"/><polyline points="-130.7,738.7 64.4,812.2 259.6,740.4 454.7,752.1 649.8,789.4 845.0,819.3 1040.1,712.2 1235.3,811.8 1430.4,727.8 1625.5,788.1 1820.7,723.4 2015.8,803.8 2210.9,719.0" fill="none" stroke="#FAFCFF" stroke-opacity="0.16" stroke-width="3.5"/><polyline points="-130.7,967.8 64.4,979.9 259.6,1028.5 454.7,1079.0 649.8,1083.1 845.0,960.9 1040.1,1058.3 1235.3,1103.2 1430.4,1043.3 1625.5,1100.1 1820.7,996.7 2015.8,1036.3 2210.9,1088.6" fill="none" stroke="#FAFCFF" stroke-opacity="0.19" stroke-width="4.5"/><polyline points="-130.7,1390.4 64.4,1310.7 259.6,1421.3 454.7,1391.4 649.8,1464.3 845.0,1400.7 1040.1,1354.5 1235.3,1399.9 1430.4,1317.4 1625.5,1333.6 1820.7,1400.0 2015.8,1345.6 2210.9,1298.4" fill="none" stroke="#FAFCFF" stroke-opacity="0.22" stroke-width="5.5"/><circle cx="1204.7" cy="991.3" r="2.4825281283422154" fill="#3B82F6" fill-opacity="0.53"/><circle cx="132.8" cy="668.7" r="2.478287657448919" fill="#3B82F6" fill-opacity="0.74"/><circle cx="1202.1" cy="771.7" r="6.931083407366244" fill="#FF6A1A" fill-opacity="0.74"/><circle cx="1377.3" cy="832.5" r="2.833692876405532" fill="#3B82F6" fill-opacity="0.72"/><circle cx="1752.6" cy="920.0" r="4.254100585308934" fill="#FF6A1A" fill-opacity="0.74"/><circle cx="408.0" cy="640.1" r="6.756728773126629" fill="#3B82F6" fill-opacity="0.36"/><circle cx="1138.8" cy="872.7" r="2.9800593059791405" fill="#3B82F6" fill-opacity="0.57"/><circle cx="188.5" cy="994.3" r="5.479465260950118" fill="#3B82F6" fill-opacity="0.69"/><circle cx="343.1" cy="487.0" r="4.65003448178053" fill="#3B82F6" fill-opacity="0.60"/><circle cx="1638.0" cy="940.9" r="5.41379415681334" fill="#3B82F6" fill-opacity="0.43"/><circle cx="473.7" cy="1051.4" r="4.627588519791698" fill="#FF6A1A" fill-opacity="0.75"/><circle cx="1421.5" cy="1068.3" r="6.551127104504534" fill="#FF6A1A" fill-opacity="0.74"/><circle cx="2091.6" cy="702.1" r="4.1899858499505065" fill="#FF6A1A" fill-opacity="0.72"/><circle cx="1010.5" cy="721.6" r="6.778644732478041" fill="#3B82F6" fill-opacity="0.74"/><circle cx="1757.8" cy="842.9" r="4.630271890423587" fill="#3B82F6" fill-opacity="0.67"/><circle cx="1254.3" cy="883.7" r="2.8416391813142137" fill="#3B82F6" fill-opacity="0.58"/><circle cx="2191.2" cy="1042.9" r="2.8838550267737024" fill="#FF6A1A" fill-opacity="0.75"/><circle cx="1194.8" cy="870.1" r="2.5871789332835458" fill="#3B82F6" fill-opacity="0.70"/><g opacity="0.74"><line x1="0" y1="842.4" x2="1920" y2="561.6" stroke="#FAFCFF" stroke-opacity="0.5" stroke-width="6"/><line x1="-31" y1="833" x2="-31" y2="861" stroke="#3B82F6" stroke-opacity="0.8" stroke-width="3"/><line x1="49" y1="821" x2="49" y2="849" stroke="#3B82F6" stroke-opacity="0.8" stroke-width="3"/><line x1="129" y1="809" x2="129" y2="837" stroke="#3B82F6" stroke-opacity="0.8" stroke-width="3"/><line x1="209" y1="798" x2="209" y2="826" stroke="#3B82F6" stroke-opacity="0.8" stroke-width="3"/><line x1="289" y1="786" x2="289" y2="814" stroke="#3B82F6" stroke-opacity="0.8" stroke-width="3"/><line x1="369" y1="774" x2="369" y2="802" stroke="#3B82F6" stroke-opacity="0.8" stroke-width="3"/><line x1="449" y1="763" x2="449" y2="791" stroke="#3B82F6" stroke-opacity="0.8" stroke-width="3"/><line x1="529" y1="751" x2="529" y2="779" stroke="#3B82F6" stroke-opacity="0.8" stroke-width="3"/><line x1="609" y1="739" x2="609" y2="767" stroke="#3B82F6" stroke-opacity="0.8" stroke-width="3"/><line x1="689" y1="728" x2="689" y2="756" stroke="#3B82F6" stroke-opacity="0.8" stroke-width="3"/><line x1="769" y1="716" x2="769" y2="744" stroke="#3B82F6" stroke-opacity="0.8" stroke-width="3"/><line x1="849" y1="704" x2="849" y2="732" stroke="#3B82F6" stroke-opacity="0.8" stroke-width="3"/><line x1="929" y1="692" x2="929" y2="720" stroke="#3B82F6" stroke-opacity="0.8" stroke-width="3"/><line x1="1009" y1="681" x2="1009" y2="709" stroke="#3B82F6" stroke-opacity="0.8" stroke-width="3"/><line x1="1089" y1="669" x2="1089" y2="697" stroke="#3B82F6" stroke-opacity="0.8" stroke-width="3"/><line x1="1169" y1="657" x2="1169" y2="685" stroke="#3B82F6" stroke-opacity="0.8" stroke-width="3"/><line x1="1249" y1="646" x2="1249" y2="674" stroke="#3B82F6" stroke-opacity="0.8" stroke-width="3"/><line x1="1329" y1="634" x2="1329" y2="662" stroke="#3B82F6" stroke-opacity="0.8" stroke-width="3"/><line x1="1409" y1="622" x2="1409" y2="650" stroke="#3B82F6" stroke-opacity="0.8" stroke-width="3"/><line x1="1489" y1="611" x2="1489" y2="639" stroke="#3B82F6" stroke-opacity="0.8" stroke-width="3"/><line x1="1569" y1="599" x2="1569" y2="627" stroke="#3B82F6" stroke-opacity="0.8" stroke-width="3"/><line x1="1649" y1="587" x2="1649" y2="615" stroke="#3B82F6" stroke-opacity="0.8" stroke-width="3"/><line x1="1729" y1="575" x2="1729" y2="603" stroke="#3B82F6" stroke-opacity="0.8" stroke-width="3"/><line x1="1809" y1="564" x2="1809" y2="592" stroke="#3B82F6" stroke-opacity="0.8" stroke-width="3"/><line x1="1889" y1="552" x2="1889" y2="580" stroke="#3B82F6" stroke-opacity="0.8" stroke-width="3"/><line x1="1969" y1="540" x2="1969" y2="568" stroke="#3B82F6" stroke-opacity="0.8" stroke-width="3"/><line x1="2049" y1="529" x2="2049" y2="557" stroke="#3B82F6" stroke-opacity="0.8" stroke-width="3"/></g></svg>