<svg xmlns="http://www.w3.org/2000/svg" width="1920" height="1080" viewBox="0 0 1920 1080"><rect width="1920" height="1080" fill="#0A1F44"/><polyline points="-34.4,527.1 140.1,556.2 314.6,518.7 489.1,535.2 663.6,546.3 838.2,517.3 1012.7,557.0 1187.2,524.6 1361.7,524.5 1536.2,553.3 1710.8,549.2 1885.3,515.8 2059.8,564.4" fill="none" stroke="#FAFCFF" stroke-opacity="0.1" stroke-width="1.5"/><polyline points="-34.4,646.2 140.1,590.4 314.6,641.4 489.1,616.9 663.6,608.2 838.2,657.5 1012.7,576.4 1187.2,584.3 1361.7,597.4 1536.2,597.4 1710.8,646.2 1885.3,660.0 2059.8,635.4" fill="none" stroke="#FAFCFF" stroke-opacity="0.13" stroke-width="2.5"/><polyline points="-34.4,744.2 140.1,809.9 314.6,745.8 489.1,756.2 663.6,789.6 838.2,816.3 1012.7,720.5 1187.2,809.6 1361.7,734.5 1536.2,788.4 1710.8,730.5 1885.3,802.5 2059.8,726.6" fill="none" stroke="#FAFCFF" stroke-opacity="0.16" stroke-width="3.5"/><polyline points="-34.4,949.2 140.1,959.9 314.6,1003.4 489.1,1048.6 663.6,1052.3 838.2,943.0 1012.7,1030.0 1187.2,1070.3 1361.7,1016.6 1536.2,1067.4 1710.8,975.0 1885.3,1010.4 2059.8,1057.1" fill="none" stroke="#FAFCFF" stroke-opacity="0.19" stroke-width="4.5"/><polyline points="-34.4,1327.1 140.1,1255.8 314.6,1354.7 489.1,1328.0 663.6,1393.2 838.2,1336.3 1012.7,1295.0 1187.2,1335.6 1361.7,1261.8 1536.2,1276.3 1710.8,1335.7 1885.3,1287.0 2059.8,1244.8" fill="none" stroke="#FAFCFF" stroke-opacity="0.22" stroke-width="5.5"/><circle cx="1159.9" cy="970.2" r="2.220252494085612" fill="#3B82F6" fill-opacity="0.48"/><circle cx="201.2" cy="681.6" r="2.216460023027801" fill="#3B82F6" fill-opacity="0.55"/><circle cx="1157.5" cy="773.8" r="6.198824112497214" fill="#FF6A1A" fill-opacity="0.55"/><circle cx="1314.3" cy="828.1" r="2.5343171763025967" fill="#3B82F6" fill-opacity="0.72"/><circle cx="1649.9" cy="906.4" r="3.8046607918720863" fill="#FF6A1A" fill-opacity="0.69"/><circle cx="447.3" cy="656.1" r="6.042889802184124" fill="#3B82F6" fill-opacity="0.63"/><circle cx="1100.9" cy="864.1" r="2.6652201967361333" fill="#3B82F6" fill-opacity="0.74"/><circle cx="251.1" cy="972.9" r="4.900567398607504" fill="#3B82F6" fill-opacity="0.44"/><circle cx="389.3" cy="519.2" r="4.158764824409725" fill="#3B82F6" fill-opacity="0.75"/><circle cx="1547.4" cy="925.1" r="4.841834355028094" fill="#3B82F6" fill-opacity="0.57"/><circle cx="506.1" cy="1023.9" r="4.138690246998538" fill="#FF6A1A" fill-opacity="0.65"/><circle cx="1353.7" cy="1039.0" r="5.859009663089304" fill="#FF6A1A" fill-opacity="0.56"/><circle cx="1953.1" cy="711.5" r="3.7473196888803364" fill="#FF6A1A" fill-opacity="0.50"/><circle cx="986.2" cy="729.0" r="6.062490370997313" fill="#3B82F6" fill-opacity="0.69"/><circle cx="1654.5" cy="837.5" r="4.141090123265795" fill="#3B82F6" fill-opacity="0.75"/><circle cx="1204.2" cy="873.9" r="2.5414239651807744" fill="#3B82F6" fill-opacity="0.42"/><circle cx="2042.1" cy="1016.3" r="2.5791797654479613" fill="#FF6A1A" fill-opacity="0.61"/><circle cx="1151.0" cy="861.8" r="2.3138470874464594" fill="#3B82F6" fill-opacity="0.47"/><g opacity="0.25"><line x1="0" y1="842.4" x2="1920" y2="561.6" stroke="#FAFCFF" stroke-opacity="0.5" stroke-width="6"/><line x1="-30" y1="833" x2="-30" y2="861" stroke="#3B82F6" stroke-opacity="0.8" stroke-width="3"/><line x1="50" y1="821" x2="50" y2="849" stroke="#3B82F6" stroke-opacity="0.8" stroke-width="3"/><line x1="130" y1="809" x2="130" y2="837" stroke="#3B82F6" stroke-opacity="0.8" stroke-width="3"/><line x1="210" y1="798" x2="210" y2="826" stroke="#3B82F6" stroke-opacity="0.8" stroke-width="3"/><line x1="290" y1="786" x2="290" y2="814" stroke="#3B82F6" stroke-opacity="0.8" stroke-width="3"/><line x1="370" y1="774" x2="370" y2="802" stroke="#3B82F6" stroke-opacity="0.8" stroke-width="3"/><line x1="450" y1="763" x2="450" y2="791" stroke="#3B82F6" stroke-opacity="0.8" stroke-width="3"/><line x1="530" y1="751" x2="530" y2="779" stroke="#3B82F6" stroke-opacity="0.8" stroke-width="3"/><line x1="610" y1="739" x2="610" y2="767" stroke="#3B82F6" stroke-opacity="0.8" stroke-width="3"/><line x1="690" y1="727" x2="690" y2="755" stroke="#3B82F6" stroke-opacity="0.8" stroke-width="3"/><line x1="770" y1="716" x2="770" y2="744" stroke="#3B82F6" stroke-opacity="0.8" stroke-width="3"/><line x1="850" y1="704" x2="850" y2="732" stroke="#3B82F6" stroke-opacity="0.8" stroke-width="3"/><line x1="930" y1="692" x2="930" y2="720" stroke="#3B82F6" stroke-opacity="0.8" stroke-width="3"/><line x1="1010" y1="681" x2="1010" y2="709" stroke="#3B82F6" stroke-opacity="0.8" stroke-width="3"/><line x1="1090" y1="669" x2="1090" y2="697" stroke="#3B82F6" stroke-opacity="0.8" stroke-width="3"/><line x1="1170" y1="657" x2="1170" y2="685" stroke="#3B82F6" stroke-opacity="0.8" stroke-width="3"/><line x1="1250" y1="646" x2="1250" y2="674" stroke="#3B82F6" stroke-opacity="0.8" stroke-width="3"/><line x1="1330" y1="634" x2="1330" y2="662" stroke="#3B82F6" stroke-opacity="0.8" stroke-width="3"/><line x1="1410" y1="622" x2="1410" y2="650" stroke="#3B82F6" stroke-opacity="0.8" stroke-width="3"/><line x1="1490" y1="610" x2="1490" y2="638" stroke="#3B82F6" stroke-opacity="0.8" stroke-width="3"/><line x1="1570" y1="599" x2="1570" y2="627" stroke="#3B82F6" stroke-opacity="0.8" stroke-width="3"/><line x1="1650" y1="587" x2="1650" y2="615" stroke="#3B82F6" stroke-opacity="0.8" stroke-width="3"/><line x1="1730" y1="575" x2="1730" y2="603" stroke="#3B82F6" stroke-opacity="0.8" stroke-width="3"/><line x1="1810" y1="564" x2="1810" y2="592" stroke="#3B82F6" stroke-opacity="0.8" stroke-width="3"/><line x1="1890" y1="552" x2="1890" y2="580" stroke="#3B82F6" stroke-opacity="0.8" stroke-width="3"/><line x1="1970" y1="540" x2="1970" y2="568" stroke="#3B82F6" stroke-opacity="0.8" stroke-width="3"/><line x1="2050" y1="529" x2="2050" y2="557" stroke="#3B82F6" stroke-opacity="0.8" stroke-width="3"/></g></svg>