<svg xmlns="http://www.w3.org/2000/svg" width="1920" height="1080" viewBox="0 0 1920 1080"><rect width="1920" height="1080" fill="#0A1F44"/><polyline points="-166.8,485.1 35.5,518.8 237.8,475.4 440.1,494.4 642.3,507.4 844.6,473.8 1046.9,519.7 1249.2,482.1 1451.5,482.1 1653.8,515.5 1856.1,510.7 2058.4,471.9 2260.6,528.4" fill="none" stroke="#FAFCFF" stroke-opacity="0.1" stroke-width="1.5"/><polyline points="-166.8,623.1 35.5,558.4 237.8,617.6 440.1,589.2 642.3,579.1 844.6,636.3 1046.9,542.2 1249.2,551.4 1451.5,566.6 1653.8,566.6 1856.1,623.1 2058.4,639.2 2260.6,610.6" fill="none" stroke="#FAFCFF" stroke-opacity="0.13" stroke-width="2.5"/><polyline points="-166.8,736.8 35.5,812.9 237.8,738.6 440.1,750.6 642.3,789.3 844.6,820.3 1046.9,709.3 1249.2,812.5 1451.5,725.5 1653.8,788.0 1856.1,720.9 2058.4,804.3 2260.6,716.4" fill="none" stroke="#FAFCFF" stroke-opacity="0.16" stroke-width="3.5"/><polyline points="-166.8,974.3 35.5,986.8 237.8,1037.2 440.1,1089.5 642.3,1093.8 844.6,967.2 1046.9,1068.0 1249.2,1114.7 1451.5,1052.5 1653.8,1111.4 1856.1,1004.2 2058.4,1045.3 2260.6,1099.5" fill="none" stroke="#FAFCFF" stroke-opacity="0.19" stroke-width="4.5"/><polyline points="-166.8,1412.3 35.5,1329.8 237.8,1444.4 440.1,1413.4 642.3,1488.9 844.6,1423.1 1046.9,1375.2 1249.2,1422.3 1451.5,1336.7 1653.8,1353.5 1856.1,1422.3 2058.4,1365.9 2260.6,1316.9" fill="none" stroke="#FAFCFF" stroke-opacity="0.22" stroke-width="5.5"/><circle cx="1217.5" cy="998.6" r="2.5735064372484073" fill="#3B82F6" fill-opacity="0.60"/><circle cx="106.4" cy="664.2" r="2.5691105639383434" fill="#3B82F6" fill-opacity="0.75"/><circle cx="1214.8" cy="771.0" r="7.1850898937745304" fill="#FF6A1A" fill-opacity="0.75"/><circle cx="1396.5" cy="834.0" r="2.9375404755169487" fill="#3B82F6" fill-opacity="0.68"/><circle cx="1785.5" cy="924.7" r="4.410002495442254" fill="#FF6A1A" fill-opacity="0.71"/><circle cx="391.6" cy="634.6" r="7.00434560795676" fill="#3B82F6" fill-opacity="0.45"/><circle cx="1149.2" cy="875.7" r="3.0892708605242207" fill="#3B82F6" fill-opacity="0.49"/><circle cx="164.1" cy="1001.8" r="5.680273653596353" fill="#3B82F6" fill-opacity="0.73"/><circle cx="324.4" cy="475.9" r="4.8204463569484375" fill="#3B82F6" fill-opacity="0.52"/><circle cx="1666.7" cy="946.4" r="5.612195871392102" fill="#3B82F6" fill-opacity="0.52"/><circle cx="459.8" cy="1060.9" r="4.797177807839563" fill="#FF6A1A" fill-opacity="0.73"/><circle cx="1442.2" cy="1078.5" r="6.791209163834651" fill="#FF6A1A" fill-opacity="0.75"/><circle cx="2137.0" cy="698.9" r="4.343538118952964" fill="#FF6A1A" fill-opacity="0.75"/><circle cx="1016.3" cy="719.1" r="7.027064731186592" fill="#3B82F6" fill-opacity="0.71"/><circle cx="1790.9" cy="844.8" r="4.799959517144626" fill="#3B82F6" fill-opacity="0.61"/><circle cx="1268.9" cy="887.1" r="2.9457779921844787" fill="#3B82F6" fill-opacity="0.65"/><circle cx="2240.2" cy="1052.1" r="2.989540940448202" fill="#FF6A1A" fill-opacity="0.75"/><circle cx="1207.3" cy="873.0" r="2.681992426633586" fill="#3B82F6" fill-opacity="0.74"/><g opacity="0.88"><line x1="0" y1="842.4" x2="1920" y2="561.6" stroke="#FAFCFF" stroke-opacity="0.5" stroke-width="6"/><line x1="-8" y1="830" x2="-8" y2="858" stroke="#3B82F6" stroke-opacity="0.8" stroke-width="3"/><line x1="72" y1="818" x2="72" y2="846" stroke="#3B82F6" stroke-opacity="0.8" stroke-width="3"/><line x1="152" y1="806" x2="152" y2="834" stroke="#3B82F6" stroke-opacity="0.8" stroke-width="3"/><line x1="232" y1="794" x2="232" y2="822" stroke="#3B82F6" stroke-opacity="0.8" stroke-width="3"/><line x1="312" y1="783" x2="312" y2="811" stroke="#3B82F6" stroke-opacity="0.8" stroke-width="3"/><line x1="392" y1="771" x2="392" y2="799" stroke="#3B82F6" stroke-opacity="0.8" stroke-width="3"/><line x1="472" y1="759" x2="472" y2="787" stroke="#3B82F6" stroke-opacity="0.8" stroke-width="3"/><line x1="552" y1="748" x2="552" y2="776" stroke="#3B82F6" stroke-opacity="0.8" stroke-width="3"/><line x1="632" y1="736" x2="632" y2="764" stroke="#3B82F6" stroke-opacity="0.8" stroke-width="3"/><line x1="712" y1="724" x2="712" y2="752" stroke="#3B82F6" stroke-opacity="0.8" stroke-width="3"/><line x1="792" y1="713" x2="792" y2="741" stroke="#3B82F6" stroke-opacity="0.8" stroke-width="3"/><line x1="872" y1="701" x2="872" y2="729" stroke="#3B82F6" stroke-opacity="0.8" stroke-width="3"/><line x1="952" y1="689" x2="952" y2="717" stroke="#3B82F6" stroke-opacity="0.8" stroke-width="3"/><line x1="1032" y1="677" x2="1032" y2="705" stroke="#3B82F6" stroke-opacity="0.8" stroke-width="3"/><line x1="1112" y1="666" x2="1112" y2="694" stroke="#3B82F6" stroke-opacity="0.8" stroke-width="3"/><line x1="1192" y1="654" x2="1192" y2="682" stroke="#3B82F6" stroke-opacity="0.8" stroke-width="3"/><line x1="1272" y1="642" x2="1272" y2="670" stroke="#3B82F6" stroke-opacity="0.8" stroke-width="3"/><line x1="1352" y1="631" x2="1352" y2="659" stroke="#3B82F6" stroke-opacity="0.8" stroke-width="3"/><line x1="1432" y1="619" x2="1432" y2="647" stroke="#3B82F6" stroke-opacity="0.8" stroke-width="3"/><line x1="1512" y1="607" x2="1512" y2="635" stroke="#3B82F6" stroke-opacity="0.8" stroke-width="3"/><line x1="1592" y1="596" x2="1592" y2="624" stroke="#3B82F6" stroke-opacity="0.8" stroke-width="3"/><line x1="1672" y1="584" x2="1672" y2="612" stroke="#3B82F6" stroke-opacity="0.8" stroke-width="3"/><line x1="1752" y1="572" x2="1752" y2="600" stroke="#3B82F6" stroke-opacity="0.8" stroke-width="3"/><line x1="1832" y1="560" x2="1832" y2="588" stroke="#3B82F6" stroke-opacity="0.8" stroke-width="3"/><line x1="1912" y1="549" x2="1912" y2="577" stroke="#3B82F6" stroke-opacity="0.8" stroke-width="3"/><line x1="1992" y1="537" x2="1992" y2="565" stroke="#3B82F6" stroke-opacity="0.8" stroke-width="3"/><line x1="2072" y1="525" x2="2072" y2="553" stroke="#3B82F6" stroke-opacity="0.8" stroke-width="3"/></g></svg>