<svg xmlns="http://www.w3.org/2000/svg" width="1920" height="1080" viewBox="0 0 1920 1080"><rect width="1920" height="1080" fill="#0A1F44"/><polyline points="-890.0,296.1 -562.7,350.5 -235.4,280.3 91.8,311.1 419.1,332.1 746.4,277.7 1073.7,352.1 1401.0,291.2 1728.2,291.1 2055.5,345.2 2382.8,337.5 2710.1,274.8 3037.3,366.0" fill="none" stroke="#FAFCFF" stroke-opacity="0" stroke-width="1.5"/><polyline points="-890.0,519.3 -562.7,414.7 -235.4,510.3 91.8,464.4 419.1,448.1 746.4,540.6 1073.7,388.4 1401.0,403.2 1728.2,427.9 2055.5,427.9 2382.8,519.3 2710.1,545.3 3037.3,499.1" fill="none" stroke="#FAFCFF" stroke-opacity="0" stroke-width="2.5"/><polyline points="-890.0,703.2 -562.7,826.4 -235.4,706.1 91.8,725.6 419.1,788.3 746.4,838.4 1073.7,658.8 1401.0,825.8 1728.2,684.9 2055.5,786.0 2382.8,677.5 2710.1,812.4 3037.3,670.2" fill="none" stroke="#FAFCFF" stroke-opacity="0" stroke-width="3.5"/><polyline points="-890.0,1087.5 -562.7,1107.7 -235.4,1189.2 91.8,1273.9 419.1,1280.9 746.4,1075.9 1073.7,1239.2 1401.0,1314.6 1728.2,1214.0 2055.5,1309.3 2382.8,1135.9 2710.1,1202.3 3037.3,1290.0" fill="none" stroke="#FAFCFF" stroke-opacity="0" stroke-width="4.5"/><polyline points="-890.0,1796.2 -562.7,1662.6 -235.4,1848.1 91.8,1798.0 419.1,1920.1 746.4,1813.5 1073.7,1736.1 1401.0,1812.2 1728.2,1673.8 2055.5,1701.0 2382.8,1812.3 2710.1,1721.0 3037.3,1641.9" fill="none" stroke="#FAFCFF" stroke-opacity="0" stroke-width="5.5"/><g opacity="0.68"><line x1="0" y1="842.4" x2="1920" y2="561.6" stroke="#FAFCFF" stroke-opacity="0.5" stroke-width="6"/><line x1="-17" y1="831" x2="-17" y2="859" stroke="#3B82F6" stroke-opacity="0.8" stroke-width="3"/><line x1="63" y1="819" x2="63" y2="847" stroke="#3B82F6" stroke-opacity="0.8" stroke-width="3"/><line x1="143" y1="807" x2="143" y2="835" stroke="#3B82F6" stroke-opacity="0.8" stroke-width="3"/><line x1="223" y1="796" x2="223" y2="824" stroke="#3B82F6" stroke-opacity="0.8" stroke-width="3"/><line x1="303" y1="784" x2="303" y2="812" stroke="#3B82F6" stroke-opacity="0.8" stroke-width="3"/><line x1="383" y1="772" x2="383" y2="800" stroke="#3B82F6" stroke-opacity="0.8" stroke-width="3"/><line x1="463" y1="761" x2="463" y2="789" stroke="#3B82F6" stroke-opacity="0.8" stroke-width="3"/><line x1="543" y1="749" x2="543" y2="777" stroke="#3B82F6" stroke-opacity="0.8" stroke-width="3"/><line x1="623" y1="737" x2="623" y2="765" stroke="#3B82F6" stroke-opacity="0.8" stroke-width="3"/><line x1="703" y1="726" x2="703" y2="754" stroke="#3B82F6" stroke-opacity="0.8" stroke-width="3"/><line x1="783" y1="714" x2="783" y2="742" stroke="#3B82F6" stroke-opacity="0.8" stroke-width="3"/><line x1="863" y1="702" x2="863" y2="730" stroke="#3B82F6" stroke-opacity="0.8" stroke-width="3"/><line x1="943" y1="690" x2="943" y2="718" stroke="#3B82F6" stroke-opacity="0.8" stroke-width="3"/><line x1="1023" y1="679" x2="1023" y2="707" stroke="#3B82F6" stroke-opacity="0.8" stroke-width="3"/><line x1="1103" y1="667" x2="1103" y2="695" stroke="#3B82F6" stroke-opacity="0.8" stroke-width="3"/><line x1="1183" y1="655" x2="1183" y2="683" stroke="#3B82F6" stroke-opacity="0.8" stroke-width="3"/><line x1="1263" y1="644" x2="1263" y2="672" stroke="#3B82F6" stroke-opacity="0.8" stroke-width="3"/><line x1="1343" y1="632" x2="1343" y2="660" stroke="#3B82F6" stroke-opacity="0.8" stroke-width="3"/><line x1="1423" y1="620" x2="1423" y2="648" stroke="#3B82F6" stroke-opacity="0.8" stroke-width="3"/><line x1="1503" y1="609" x2="1503" y2="637" stroke="#3B82F6" stroke-opacity="0.8" stroke-width="3"/><line x1="1583" y1="597" x2="1583" y2="625" stroke="#3B82F6" stroke-opacity="0.8" stroke-width="3"/><line x1="1663" y1="585" x2="1663" y2="613" stroke="#3B82F6" stroke-opacity="0.8" stroke-width="3"/><line x1="1743" y1="573" x2="1743" y2="601" stroke="#3B82F6" stroke-opacity="0.8" stroke-width="3"/><line x1="1823" y1="562" x2="1823" y2="590" stroke="#3B82F6" stroke-opacity="0.8" stroke-width="3"/><line x1="1903" y1="550" x2="1903" y2="578" stroke="#3B82F6" stroke-opacity="0.8" stroke-width="3"/><line x1="1983" y1="538" x2="1983" y2="566" stroke="#3B82F6" stroke-opacity="0.8" stroke-width="3"/><line x1="2063" y1="527" x2="2063" y2="555" stroke="#3B82F6" stroke-opacity="0.8" stroke-width="3"/></g><g opacity="0.69"><rect x="422.4" y="216" width="1075.2" height="540" fill="none" stroke="#FAFCFF" stroke-opacity="0.6" stroke-width="2"/><rect x="442.4" y="236" width="318.40000000000003" height="189" fill="#3B82F6" fill-opacity="0.14"/><rect x="800.8" y="236" width="318.40000000000003" height="189" fill="#3B82F6" fill-opacity="0.2"/><rect x="1159.2" y="236" width="318.40000000000003" height="189" fill="#3B82F6" fill-opacity="0.26"/></g></svg>