<svg xmlns="http://www.w3.org/2000/svg" width="1920" height="1080" viewBox="0 0 1920 1080"><rect width="1920" height="1080" fill="#0A1F44"/><polyline points="-1396.2,183.9 -994.7,250.6 -593.2,164.5 -191.8,202.3 209.7,228.0 611.2,161.3 1012.7,252.5 1414.2,177.9 1815.6,177.8 2217.1,244.1 2618.6,234.7 3020.1,157.7 3421.6,269.7" fill="none" stroke="#FAFCFF" stroke-opacity="0" stroke-width="1.5"/><polyline points="-1396.2,457.7 -994.7,329.3 -593.2,446.7 -191.8,390.3 209.7,370.4 611.2,483.8 1012.7,297.2 1414.2,315.3 1815.6,345.6 2217.1,345.5 2618.6,457.7 3020.1,489.6 3421.6,432.9" fill="none" stroke="#FAFCFF" stroke-opacity="0" stroke-width="2.5"/><polyline points="-1396.2,683.3 -994.7,834.4 -593.2,686.9 -191.8,710.8 209.7,787.6 611.2,849.1 1012.7,628.7 1414.2,833.6 1815.6,660.8 2217.1,784.9 2618.6,651.8 3020.1,817.2 3421.6,642.8" fill="none" stroke="#FAFCFF" stroke-opacity="0" stroke-width="3.5"/><polyline points="-1396.2,1154.7 -994.7,1179.5 -593.2,1279.5 -191.8,1383.4 209.7,1392.0 611.2,1140.5 1012.7,1340.8 1414.2,1433.3 1815.6,1309.9 2217.1,1426.8 2618.6,1214.1 3020.1,1295.6 3421.6,1403.1" fill="none" stroke="#FAFCFF" stroke-opacity="0" stroke-width="4.5"/><polyline points="-1396.2,2024.1 -994.7,1860.2 -593.2,2087.8 -191.8,2026.2 209.7,2176.1 611.2,2045.3 1012.7,1950.3 1414.2,2043.8 1815.6,1873.9 2217.1,1907.3 2618.6,2043.8 3020.1,1931.9 3421.6,1834.7" fill="none" stroke="#FAFCFF" stroke-opacity="0" stroke-width="5.5"/><g opacity="1.00"><rect x="422.4" y="216" width="1075.2" height="540" fill="none" stroke="#FAFCFF" stroke-opacity="0.6" stroke-width="2"/><rect x="442.4" y="236" width="318.40000000000003" height="189" fill="#3B82F6" fill-opacity="0.14"/><rect x="800.8" y="236" width="318.40000000000003" height="189" fill="#3B82F6" fill-opacity="0.2"/><rect x="1159.2" y="236" width="318.40000000000003" height="189" fill="#3B82F6" fill-opacity="0.26"/></g><g opacity="1.00"><rect x="460.79999999999995" y="324" width="517.9707771018149" height="10" fill="#3B82F6" fill-opacity="0.9"/><rect x="460.79999999999995" y="358" width="559.0618132464589" height="10" fill="#FAFCFF" fill-opacity="0.4"/><rect x="460.79999999999995" y="392" width="352.0004768371582" height="10" fill="#FAFCFF" fill-opacity="0.4"/><rect x="460.79999999999995" y="426" width="493.0137858130038" height="10" fill="#3B82F6" fill-opacity="0.9"/><rect x="460.79999999999995" y="460" width="575.1368051692843" height="10" fill="#FAFCFF" fill-opacity="0.4"/><rect x="460.79999999999995" y="494" width="457.9308180771768" height="10" fill="#FAFCFF" fill-opacity="0.4"/><rect x="460.79999999999995" y="528" width="514.2663277834654" height="10" fill="#3B82F6" fill-opacity="0.9"/><rect x="460.79999999999995" y="562" width="778.5601877756417" height="10" fill="#FAFCFF" fill-opacity="0.4"/><rect x="460.79999999999995" y="596" width="437.874859025036" height="10" fill="#FAFCFF" fill-opacity="0.4"/></g></svg>