<svg xmlns="http://www.w3.org/2000/svg" width="1920" height="1080" viewBox="0 0 1920 1080"><rect width="1920" height="1080" fill="#0A1F44"/><polyline points="-367.2,428.7 -127.6,468.6 111.9,417.2 351.5,439.7 591.1,455.1 830.7,415.2 1070.3,469.7 1309.9,425.2 1549.5,425.1 1789.1,464.7 2028.6,459.0 2268.2,413.1 2507.8,479.9" fill="none" stroke="#FAFCFF" stroke-opacity="0.07157232704402516" stroke-width="1.5"/><polyline points="-367.2,592.1 -127.6,515.5 111.9,585.6 351.5,551.9 591.1,540.0 830.7,607.7 1070.3,496.3 1309.9,507.1 1549.5,525.2 1789.1,525.2 2028.6,592.1 2268.2,611.2 2507.8,577.3" fill="none" stroke="#FAFCFF" stroke-opacity="0.09304402515723272" stroke-width="2.5"/><polyline points="-367.2,726.8 -127.6,817.0 111.9,728.9 351.5,743.2 591.1,789.0 830.7,825.7 1070.3,694.2 1309.9,816.5 1549.5,713.4 1789.1,787.4 2028.6,708.0 2268.2,806.7 2507.8,702.6" fill="none" stroke="#FAFCFF" stroke-opacity="0.11451572327044027" stroke-width="3.5"/><polyline points="-367.2,1008.1 -127.6,1022.9 111.9,1082.6 351.5,1144.6 591.1,1149.7 830.7,999.6 1070.3,1119.1 1309.9,1174.3 1549.5,1100.7 1789.1,1170.5 2028.6,1043.5 2268.2,1092.2 2507.8,1156.3" fill="none" stroke="#FAFCFF" stroke-opacity="0.1359874213836478" stroke-width="4.5"/><polyline points="-367.2,1526.9 -127.6,1429.1 111.9,1564.9 351.5,1528.2 591.1,1617.6 830.7,1539.6 1070.3,1482.9 1309.9,1538.6 1549.5,1437.3 1789.1,1457.2 2028.6,1538.7 2268.2,1471.9 2507.8,1413.9" fill="none" stroke="#FAFCFF" stroke-opacity="0.15745911949685537" stroke-width="5.5"/><circle cx="1272.3" cy="1036.9" r="3.048041025747748" fill="#3B82F6" fill-opacity="0.53"/><circle cx="-43.7" cy="640.8" r="3.042834587559316" fill="#3B82F6" fill-opacity="0.41"/><circle cx="1269.1" cy="767.3" r="8.509964635381388" fill="#FF6A1A" fill-opacity="0.41"/><circle cx="1484.3" cy="841.9" r="3.479200111791268" fill="#3B82F6" fill-opacity="0.27"/><circle cx="1945.1" cy="949.3" r="5.2231726857967296" fill="#FF6A1A" fill-opacity="0.28"/><circle cx="294.1" cy="605.7" r="8.295892507809373" fill="#3B82F6" fill-opacity="0.52"/><circle cx="1191.4" cy="891.3" r="3.658908400708218" fill="#3B82F6" fill-opacity="0.42"/><circle cx="24.7" cy="1040.6" r="6.727671974330691" fill="#3B82F6" fill-opacity="0.47"/><circle cx="214.5" cy="417.8" r="5.70929920583559" fill="#3B82F6" fill-opacity="0.41"/><circle cx="1804.3" cy="975.0" r="6.6470411781154155" fill="#3B82F6" fill-opacity="0.53"/><circle cx="374.9" cy="1110.7" r="5.681740117089223" fill="#FF6A1A" fill-opacity="0.32"/><circle cx="1538.5" cy="1131.5" r="8.04345535965878" fill="#FF6A1A" fill-opacity="0.40"/><circle cx="2361.3" cy="681.9" r="5.1444527947725955" fill="#FF6A1A" fill-opacity="0.44"/><circle cx="1034.0" cy="705.8" r="8.322800860814151" fill="#3B82F6" fill-opacity="0.27"/><circle cx="1951.5" cy="854.7" r="5.685034751973681" fill="#3B82F6" fill-opacity="0.34"/><circle cx="1333.2" cy="904.8" r="3.4889565625191543" fill="#3B82F6" fill-opacity="0.53"/><circle cx="2483.6" cy="1100.2" r="3.5407890583640556" fill="#FF6A1A" fill-opacity="0.36"/><circle cx="1260.2" cy="888.1" r="3.176530988538908" fill="#3B82F6" fill-opacity="0.46"/><g opacity="1.00"><line x1="0" y1="842.4" x2="1920" y2="561.6" stroke="#FAFCFF" stroke-opacity="0.5" stroke-width="6"/><line x1="-66" y1="838" x2="-66" y2="866" stroke="#3B82F6" stroke-opacity="0.8" stroke-width="3"/><line x1="14" y1="826" x2="14" y2="854" stroke="#3B82F6" stroke-opacity="0.8" stroke-width="3"/><line x1="94" y1="815" x2="94" y2="843" stroke="#3B82F6" stroke-opacity="0.8" stroke-width="3"/><line x1="174" y1="803" x2="174" y2="831" stroke="#3B82F6" stroke-opacity="0.8" stroke-width="3"/><line x1="254" y1="791" x2="254" y2="819" stroke="#3B82F6" stroke-opacity="0.8" stroke-width="3"/><line x1="334" y1="780" x2="334" y2="808" stroke="#3B82F6" stroke-opacity="0.8" stroke-width="3"/><line x1="414" y1="768" x2="414" y2="796" stroke="#3B82F6" stroke-opacity="0.8" stroke-width="3"/><line x1="494" y1="756" x2="494" y2="784" stroke="#3B82F6" stroke-opacity="0.8" stroke-width="3"/><line x1="574" y1="744" x2="574" y2="772" stroke="#3B82F6" stroke-opacity="0.8" stroke-width="3"/><line x1="654" y1="733" x2="654" y2="761" stroke="#3B82F6" stroke-opacity="0.8" stroke-width="3"/><line x1="734" y1="721" x2="734" y2="749" stroke="#3B82F6" stroke-opacity="0.8" stroke-width="3"/><line x1="814" y1="709" x2="814" y2="737" stroke="#3B82F6" stroke-opacity="0.8" stroke-width="3"/><line x1="894" y1="698" x2="894" y2="726" stroke="#3B82F6" stroke-opacity="0.8" stroke-width="3"/><line x1="974" y1="686" x2="974" y2="714" stroke="#3B82F6" stroke-opacity="0.8" stroke-width="3"/><line x1="1054" y1="674" x2="1054" y2="702" stroke="#3B82F6" stroke-opacity="0.8" stroke-width="3"/><line x1="1134" y1="663" x2="1134" y2="691" stroke="#3B82F6" stroke-opacity="0.8" stroke-width="3"/><line x1="1214" y1="651" x2="1214" y2="679" stroke="#3B82F6" stroke-opacity="0.8" stroke-width="3"/><line x1="1294" y1="639" x2="1294" y2="667" stroke="#3B82F6" stroke-opacity="0.8" stroke-width="3"/><line x1="1374" y1="627" x2="1374" y2="655" stroke="#3B82F6" stroke-opacity="0.8" stroke-width="3"/><line x1="1454" y1="616" x2="1454" y2="644" stroke="#3B82F6" stroke-opacity="0.8" stroke-width="3"/><line x1="1534" y1="604" x2="1534" y2="632" stroke="#3B82F6" stroke-opacity="0.8" stroke-width="3"/><line x1="1614" y1="592" x2="1614" y2="620" stroke="#3B82F6" stroke-opacity="0.8" stroke-width="3"/><line x1="1694" y1="581" x2="1694" y2="609" stroke="#3B82F6" stroke-opacity="0.8" stroke-width="3"/><line x1="1774" y1="569" x2="1774" y2="597" stroke="#3B82F6" stroke-opacity="0.8" stroke-width="3"/><line x1="1854" y1="557" x2="1854" y2="585" stroke="#3B82F6" stroke-opacity="0.8" stroke-width="3"/><line x1="1934" y1="546" x2="1934" y2="574" stroke="#3B82F6" stroke-opacity="0.8" stroke-width="3"/><line x1="2014" y1="534" x2="2014" y2="562" stroke="#3B82F6" stroke-opacity="0.8" stroke-width="3"/></g></svg>