<svg xmlns="http://www.w3.org/2000/svg" width="1920" height="1080" viewBox="0 0 1920 1080"><rect width="1920" height="1080" fill="#0A1F44"/><polyline points="-260.0,458.3 -39.9,494.9 180.1,447.7 400.1,468.4 620.1,482.5 840.2,445.9 1060.2,495.9 1280.2,455.1 1500.2,455.0 1720.3,491.4 1940.3,486.2 2160.3,444.0 2380.3,505.3" fill="none" stroke="#FAFCFF" stroke-opacity="0.09421383647798742" stroke-width="1.5"/><polyline points="-260.0,608.4 -39.9,538.0 180.1,602.3 400.1,571.5 620.1,560.5 840.2,622.7 1060.2,520.4 1280.2,530.3 1500.2,546.9 1720.3,546.9 1940.3,608.4 2160.3,625.9 2380.3,594.8" fill="none" stroke="#FAFCFF" stroke-opacity="0.12247798742138366" stroke-width="2.5"/><polyline points="-260.0,732.0 -39.9,814.9 180.1,734.0 400.1,747.1 620.1,789.2 840.2,822.9 1060.2,702.1 1280.2,814.4 1500.2,719.7 1720.3,787.7 1940.3,714.8 2160.3,805.4 2380.3,709.8" fill="none" stroke="#FAFCFF" stroke-opacity="0.15074213836477987" stroke-width="3.5"/><polyline points="-260.0,990.4 -39.9,1004.0 180.1,1058.8 400.1,1115.7 620.1,1120.4 840.2,982.6 1060.2,1092.3 1280.2,1143.1 1500.2,1075.4 1720.3,1139.5 1940.3,1022.9 2160.3,1067.6 2380.3,1126.5" fill="none" stroke="#FAFCFF" stroke-opacity="0.1790062893081761" stroke-width="4.5"/><polyline points="-260.0,1466.8 -39.9,1377.0 180.1,1501.7 400.1,1468.0 620.1,1550.1 840.2,1478.5 1060.2,1426.4 1280.2,1477.6 1500.2,1384.5 1720.3,1402.8 1940.3,1477.6 2160.3,1416.3 2380.3,1363.1" fill="none" stroke="#FAFCFF" stroke-opacity="0.20727044025157232" stroke-width="5.5"/><circle cx="1245.7" cy="1016.8" r="2.799157565792142" fill="#3B82F6" fill-opacity="0.68"/><circle cx="37.2" cy="653.1" r="2.794376251917798" fill="#3B82F6" fill-opacity="0.67"/><circle cx="1242.8" cy="769.3" r="7.815095562208733" fill="#FF6A1A" fill-opacity="0.66"/><circle cx="1440.4" cy="837.8" r="3.195110969162975" fill="#3B82F6" fill-opacity="0.49"/><circle cx="1863.5" cy="936.4" r="4.796681940099566" fill="#FF6A1A" fill-opacity="0.55"/><circle cx="347.4" cy="620.8" r="7.618503190105925" fill="#3B82F6" fill-opacity="0.59"/><circle cx="1171.4" cy="883.1" r="3.3601454330393383" fill="#3B82F6" fill-opacity="0.38"/><circle cx="100.0" cy="1020.3" r="6.178333476497638" fill="#3B82F6" fill-opacity="0.70"/><circle cx="274.3" cy="448.2" r="5.243114489728771" fill="#3B82F6" fill-opacity="0.35"/><circle cx="1734.3" cy="960.0" r="6.10428647340441" fill="#3B82F6" fill-opacity="0.63"/><circle cx="421.6" cy="1084.6" r="5.217805699223955" fill="#FF6A1A" fill-opacity="0.59"/><circle cx="1490.2" cy="1103.7" r="7.3866784386791045" fill="#FF6A1A" fill-opacity="0.66"/><circle cx="2245.8" cy="690.8" r="4.7243898099487" fill="#FF6A1A" fill-opacity="0.68"/><circle cx="1026.8" cy="712.8" r="7.643214379771705" fill="#3B82F6" fill-opacity="0.54"/><circle cx="1869.4" cy="849.6" r="5.220831315377232" fill="#3B82F6" fill-opacity="0.40"/><circle cx="1301.7" cy="895.5" r="3.204070770766545" fill="#3B82F6" fill-opacity="0.70"/><circle cx="2358.1" cy="1075.0" r="3.251670957795705" fill="#FF6A1A" fill-opacity="0.63"/><circle cx="1234.6" cy="880.2" r="2.9171558632025234" fill="#3B82F6" fill-opacity="0.69"/><g opacity="1.00"><line x1="0" y1="842.4" x2="1920" y2="561.6" stroke="#FAFCFF" stroke-opacity="0.5" stroke-width="6"/><line x1="-37" y1="834" x2="-37" y2="862" stroke="#3B82F6" stroke-opacity="0.8" stroke-width="3"/><line x1="43" y1="822" x2="43" y2="850" stroke="#3B82F6" stroke-opacity="0.8" stroke-width="3"/><line x1="123" y1="810" x2="123" y2="838" stroke="#3B82F6" stroke-opacity="0.8" stroke-width="3"/><line x1="203" y1="799" x2="203" y2="827" stroke="#3B82F6" stroke-opacity="0.8" stroke-width="3"/><line x1="283" y1="787" x2="283" y2="815" stroke="#3B82F6" stroke-opacity="0.8" stroke-width="3"/><line x1="363" y1="775" x2="363" y2="803" stroke="#3B82F6" stroke-opacity="0.8" stroke-width="3"/><line x1="443" y1="764" x2="443" y2="792" stroke="#3B82F6" stroke-opacity="0.8" stroke-width="3"/><line x1="523" y1="752" x2="523" y2="780" stroke="#3B82F6" stroke-opacity="0.8" stroke-width="3"/><line x1="603" y1="740" x2="603" y2="768" stroke="#3B82F6" stroke-opacity="0.8" stroke-width="3"/><line x1="683" y1="729" x2="683" y2="757" stroke="#3B82F6" stroke-opacity="0.8" stroke-width="3"/><line x1="763" y1="717" x2="763" y2="745" stroke="#3B82F6" stroke-opacity="0.8" stroke-width="3"/><line x1="843" y1="705" x2="843" y2="733" stroke="#3B82F6" stroke-opacity="0.8" stroke-width="3"/><line x1="923" y1="693" x2="923" y2="721" stroke="#3B82F6" stroke-opacity="0.8" stroke-width="3"/><line x1="1003" y1="682" x2="1003" y2="710" stroke="#3B82F6" stroke-opacity="0.8" stroke-width="3"/><line x1="1083" y1="670" x2="1083" y2="698" stroke="#3B82F6" stroke-opacity="0.8" stroke-width="3"/><line x1="1163" y1="658" x2="1163" y2="686" stroke="#3B82F6" stroke-opacity="0.8" stroke-width="3"/><line x1="1243" y1="647" x2="1243" y2="675" stroke="#3B82F6" stroke-opacity="0.8" stroke-width="3"/><line x1="1323" y1="635" x2="1323" y2="663" stroke="#3B82F6" stroke-opacity="0.8" stroke-width="3"/><line x1="1403" y1="623" x2="1403" y2="651" stroke="#3B82F6" stroke-opacity="0.8" stroke-width="3"/><line x1="1483" y1="612" x2="1483" y2="640" stroke="#3B82F6" stroke-opacity="0.8" stroke-width="3"/><line x1="1563" y1="600" x2="1563" y2="628" stroke="#3B82F6" stroke-opacity="0.8" stroke-width="3"/><line x1="1643" y1="588" x2="1643" y2="616" stroke="#3B82F6" stroke-opacity="0.8" stroke-width="3"/><line x1="1723" y1="576" x2="1723" y2="604" stroke="#3B82F6" stroke-opacity="0.8" stroke-width="3"/><line x1="1803" y1="565" x2="1803" y2="593" stroke="#3B82F6" stroke-opacity="0.8" stroke-width="3"/><line x1="1883" y1="553" x2="1883" y2="581" stroke="#3B82F6" stroke-opacity="0.8" stroke-width="3"/><line x1="1963" y1="541" x2="1963" y2="569" stroke="#3B82F6" stroke-opacity="0.8" stroke-width="3"/><line x1="2043" y1="530" x2="2043" y2="558" stroke="#3B82F6" stroke-opacity="0.8" stroke-width="3"/></g></svg>