<svg xmlns="http://www.w3.org/2000/svg" width="1920" height="1080" viewBox="0 0 1920 1080"><rect width="1920" height="1080" fill="#0A1F44"/><polyline points="-1489.1,167.2 -1076.6,235.8 -664.1,147.3 -251.6,186.2 160.9,212.6 573.4,144.0 985.9,237.7 1398.4,161.1 1810.9,160.9 2223.4,229.1 2635.9,219.4 3048.3,140.3 3460.8,255.4" fill="none" stroke="#FAFCFF" stroke-opacity="0" stroke-width="1.5"/><polyline points="-1489.1,448.5 -1076.6,316.6 -664.1,437.2 -251.6,379.3 160.9,358.8 573.4,475.3 985.9,283.6 1398.4,302.2 1810.9,333.4 2223.4,333.3 2635.9,448.5 3048.3,481.3 3460.8,423.1" fill="none" stroke="#FAFCFF" stroke-opacity="0" stroke-width="2.5"/><polyline points="-1489.1,680.3 -1076.6,835.6 -664.1,684.0 -251.6,708.6 160.9,787.5 573.4,850.7 985.9,624.3 1398.4,834.8 1810.9,657.3 2223.4,784.7 2635.9,648.0 3048.3,818.0 3460.8,638.7" fill="none" stroke="#FAFCFF" stroke-opacity="0" stroke-width="3.5"/><polyline points="-1489.1,1164.7 -1076.6,1190.2 -664.1,1292.9 -251.6,1399.7 160.9,1408.4 573.4,1150.1 985.9,1355.8 1398.4,1450.9 1810.9,1324.1 2223.4,1444.2 2635.9,1225.7 3048.3,1309.4 3460.8,1419.9" fill="none" stroke="#FAFCFF" stroke-opacity="0" stroke-width="4.5"/><polyline points="-1489.1,2057.9 -1076.6,1889.6 -664.1,2123.3 -251.6,2060.1 160.9,2214.1 573.4,2079.7 985.9,1982.1 1398.4,2078.1 1810.9,1903.6 2223.4,1937.9 2635.9,2078.2 3048.3,1963.2 3460.8,1863.4" fill="none" stroke="#FAFCFF" stroke-opacity="0" stroke-width="5.5"/><g opacity="0.61"><rect x="422.4" y="216" width="1075.2" height="540" fill="none" stroke="#FAFCFF" stroke-opacity="0.6" stroke-width="2"/><rect x="442.4" y="236" width="318.40000000000003" height="189" fill="#3B82F6" fill-opacity="0.14"/><rect x="800.8" y="236" width="318.40000000000003" height="189" fill="#3B82F6" fill-opacity="0.2"/><rect x="1159.2" y="236" width="318.40000000000003" height="189" fill="#3B82F6" fill-opacity="0.26"/></g><g opacity="0.86"><rect x="460.79999999999995" y="324" width="517.9707771018149" height="10" fill="#3B82F6" fill-opacity="0.9"/><rect x="460.79999999999995" y="358" width="559.0618132464589" height="10" fill="#FAFCFF" fill-opacity="0.4"/><rect x="460.79999999999995" y="392" width="352.0004768371582" height="10" fill="#FAFCFF" fill-opacity="0.4"/><rect x="460.79999999999995" y="426" width="493.0137858130038" height="10" fill="#3B82F6" fill-opacity="0.9"/><rect x="460.79999999999995" y="460" width="575.1368051692843" height="10" fill="#FAFCFF" fill-opacity="0.4"/><rect x="460.79999999999995" y="494" width="457.9308180771768" height="10" fill="#FAFCFF" fill-opacity="0.4"/><rect x="460.79999999999995" y="528" width="514.2663277834654" height="10" fill="#3B82F6" fill-opacity="0.9"/><rect x="460.79999999999995" y="562" width="778.5601877756417" height="10" fill="#FAFCFF" fill-opacity="0.4"/><rect x="460.79999999999995" y="596" width="771.863665021956" height="10" fill="#FAFCFF" fill-opacity="0.4"/></g><rect width="1920" height="1080" fill="#0A1F44" fill-opacity="0.35"/><circle cx="960" cy="540" r="7" fill="#3B82F6" fill-opacity="0.51"/><rect x="800" y="580" width="320" height="2" fill="#FAFCFF" fill-opacity="0.20"/></svg>