<svg xmlns="http://www.w3.org/2000/svg" width="1920" height="1080" viewBox="0 0 1920 1080"><rect width="1920" height="1080" fill="#0A1F44"/><polyline points="-569.1,375.6 -294.4,421.3 -19.7,362.3 255.1,388.2 529.8,405.8 804.6,360.1 1079.3,422.5 1354.0,371.5 1628.8,371.4 1903.5,416.8 2178.2,410.3 2453.0,357.6 2727.7,434.3" fill="none" stroke="#FAFCFF" stroke-opacity="0.03383647798742139" stroke-width="1.5"/><polyline points="-569.1,562.9 -294.4,475.1 -19.7,555.4 255.1,516.8 529.8,503.2 804.6,580.8 1079.3,453.1 1354.0,465.5 1628.8,486.2 1903.5,486.2 2178.2,562.9 2453.0,584.8 2727.7,546.0" fill="none" stroke="#FAFCFF" stroke-opacity="0.04398742138364781" stroke-width="2.5"/><polyline points="-569.1,717.3 -294.4,820.8 -19.7,719.8 255.1,736.1 529.8,788.7 804.6,830.8 1079.3,680.0 1354.0,820.2 1628.8,702.0 1903.5,786.8 2178.2,695.8 2453.0,809.0 2727.7,689.6" fill="none" stroke="#FAFCFF" stroke-opacity="0.05413836477987422" stroke-width="3.5"/><polyline points="-569.1,1039.9 -294.4,1056.9 -19.7,1125.3 255.1,1196.4 529.8,1202.3 804.6,1030.2 1079.3,1167.2 1354.0,1230.6 1628.8,1146.1 1903.5,1226.1 2178.2,1080.5 2453.0,1136.3 2727.7,1209.9" fill="none" stroke="#FAFCFF" stroke-opacity="0.06428930817610064" stroke-width="4.5"/><polyline points="-569.1,1634.8 -294.4,1522.7 -19.7,1678.4 255.1,1636.3 529.8,1738.9 804.6,1649.4 1079.3,1584.4 1354.0,1648.3 1628.8,1532.1 1903.5,1554.9 2178.2,1648.4 2453.0,1571.7 2727.7,1505.3" fill="none" stroke="#FAFCFF" stroke-opacity="0.07444025157232705" stroke-width="5.5"/><circle cx="1311.0" cy="1073.0" r="3.4952232993927494" fill="#3B82F6" fill-opacity="0.19"/><circle cx="-198.1" cy="618.7" r="3.4892530175266807" fill="#3B82F6" fill-opacity="0.15"/><circle cx="1307.3" cy="763.8" r="9.758473202734033" fill="#FF6A1A" fill-opacity="0.15"/><circle cx="1554.0" cy="849.4" r="3.9896383254879106" fill="#3B82F6" fill-opacity="0.23"/><circle cx="2082.4" cy="972.6" r="5.989471504462418" fill="#FF6A1A" fill-opacity="0.21"/><circle cx="189.3" cy="578.5" r="9.512994260121465" fill="#3B82F6" fill-opacity="0.23"/><circle cx="1218.2" cy="906.0" r="4.195711863609805" fill="#3B82F6" fill-opacity="0.25"/><circle cx="-119.7" cy="1077.3" r="7.714697944258673" fill="#3B82F6" fill-opacity="0.12"/><circle cx="98.0" cy="363.0" r="6.546918312080669" fill="#3B82F6" fill-opacity="0.25"/><circle cx="1921.0" cy="1002.0" r="7.62223769349447" fill="#3B82F6" fill-opacity="0.22"/><circle cx="281.9" cy="1157.6" r="6.515315991677943" fill="#FF6A1A" fill-opacity="0.19"/><circle cx="1616.2" cy="1181.4" r="9.223521712214483" fill="#FF6A1A" fill-opacity="0.16"/><circle cx="2559.7" cy="665.8" r="5.899202510407223" fill="#FF6A1A" fill-opacity="0.14"/><circle cx="1037.6" cy="693.3" r="9.54385037445067" fill="#3B82F6" fill-opacity="0.21"/><circle cx="2089.8" cy="864.1" r="6.519093986958804" fill="#3B82F6" fill-opacity="0.24"/><circle cx="1380.8" cy="921.5" r="4.000826158465034" fill="#3B82F6" fill-opacity="0.18"/><circle cx="2699.9" cy="1145.6" r="4.060263070767857" fill="#FF6A1A" fill-opacity="0.18"/><circle cx="1297.1" cy="902.3" r="3.642564200611622" fill="#3B82F6" fill-opacity="0.12"/><g opacity="1.00"><line x1="0" y1="842.4" x2="1920" y2="561.6" stroke="#FAFCFF" stroke-opacity="0.5" stroke-width="6"/><line x1="-61" y1="837" x2="-61" y2="865" stroke="#3B82F6" stroke-opacity="0.8" stroke-width="3"/><line x1="19" y1="826" x2="19" y2="854" stroke="#3B82F6" stroke-opacity="0.8" stroke-width="3"/><line x1="99" y1="814" x2="99" y2="842" stroke="#3B82F6" stroke-opacity="0.8" stroke-width="3"/><line x1="179" y1="802" x2="179" y2="830" stroke="#3B82F6" stroke-opacity="0.8" stroke-width="3"/><line x1="259" y1="791" x2="259" y2="819" stroke="#3B82F6" stroke-opacity="0.8" stroke-width="3"/><line x1="339" y1="779" x2="339" y2="807" stroke="#3B82F6" stroke-opacity="0.8" stroke-width="3"/><line x1="419" y1="767" x2="419" y2="795" stroke="#3B82F6" stroke-opacity="0.8" stroke-width="3"/><line x1="499" y1="755" x2="499" y2="783" stroke="#3B82F6" stroke-opacity="0.8" stroke-width="3"/><line x1="579" y1="744" x2="579" y2="772" stroke="#3B82F6" stroke-opacity="0.8" stroke-width="3"/><line x1="659" y1="732" x2="659" y2="760" stroke="#3B82F6" stroke-opacity="0.8" stroke-width="3"/><line x1="739" y1="720" x2="739" y2="748" stroke="#3B82F6" stroke-opacity="0.8" stroke-width="3"/><line x1="819" y1="709" x2="819" y2="737" stroke="#3B82F6" stroke-opacity="0.8" stroke-width="3"/><line x1="899" y1="697" x2="899" y2="725" stroke="#3B82F6" stroke-opacity="0.8" stroke-width="3"/><line x1="979" y1="685" x2="979" y2="713" stroke="#3B82F6" stroke-opacity="0.8" stroke-width="3"/><line x1="1059" y1="674" x2="1059" y2="702" stroke="#3B82F6" stroke-opacity="0.8" stroke-width="3"/><line x1="1139" y1="662" x2="1139" y2="690" stroke="#3B82F6" stroke-opacity="0.8" stroke-width="3"/><line x1="1219" y1="650" x2="1219" y2="678" stroke="#3B82F6" stroke-opacity="0.8" stroke-width="3"/><line x1="1299" y1="638" x2="1299" y2="666" stroke="#3B82F6" stroke-opacity="0.8" stroke-width="3"/><line x1="1379" y1="627" x2="1379" y2="655" stroke="#3B82F6" stroke-opacity="0.8" stroke-width="3"/><line x1="1459" y1="615" x2="1459" y2="643" stroke="#3B82F6" stroke-opacity="0.8" stroke-width="3"/><line x1="1539" y1="603" x2="1539" y2="631" stroke="#3B82F6" stroke-opacity="0.8" stroke-width="3"/><line x1="1619" y1="592" x2="1619" y2="620" stroke="#3B82F6" stroke-opacity="0.8" stroke-width="3"/><line x1="1699" y1="580" x2="1699" y2="608" stroke="#3B82F6" stroke-opacity="0.8" stroke-width="3"/><line x1="1779" y1="568" x2="1779" y2="596" stroke="#3B82F6" stroke-opacity="0.8" stroke-width="3"/><line x1="1859" y1="557" x2="1859" y2="585" stroke="#3B82F6" stroke-opacity="0.8" stroke-width="3"/><line x1="1939" y1="545" x2="1939" y2="573" stroke="#3B82F6" stroke-opacity="0.8" stroke-width="3"/><line x1="2019" y1="533" x2="2019" y2="561" stroke="#3B82F6" stroke-opacity="0.8" stroke-width="3"/></g></svg>