<svg xmlns="http://www.w3.org/2000/svg" width="1920" height="1080" viewBox="0 0 1920 1080"><rect width="1920" height="1080" fill="#0A1F44"/><polyline points="-318.0,442.2 -87.3,480.5 143.4,431.1 374.1,452.8 604.8,467.5 835.5,429.2 1066.2,481.6 1296.9,438.7 1527.6,438.7 1758.3,476.8 1989.0,471.4 2219.7,427.1 2450.4,491.5" fill="none" stroke="#FAFCFF" stroke-opacity="0.08163522012578617" stroke-width="1.5"/><polyline points="-318.0,599.5 -87.3,525.7 143.4,593.2 374.1,560.8 604.8,549.3 835.5,614.5 1066.2,507.3 1296.9,517.7 1527.6,535.1 1758.3,535.0 1989.0,599.5 2219.7,617.8 2450.4,585.3" fill="none" stroke="#FAFCFF" stroke-opacity="0.10612578616352202" stroke-width="2.5"/><polyline points="-318.0,729.2 -87.3,816.0 143.4,731.2 374.1,745.0 604.8,789.1 835.5,824.4 1066.2,697.8 1296.9,815.5 1527.6,716.2 1758.3,787.5 1989.0,711.0 2219.7,806.1 2450.4,705.9" fill="none" stroke="#FAFCFF" stroke-opacity="0.13061635220125786" stroke-width="3.5"/><polyline points="-318.0,1000.1 -87.3,1014.3 143.4,1071.8 374.1,1131.5 604.8,1136.4 835.5,991.9 1066.2,1106.9 1296.9,1160.1 1527.6,1089.2 1758.3,1156.4 1989.0,1034.1 2219.7,1081.0 2450.4,1142.8" fill="none" stroke="#FAFCFF" stroke-opacity="0.15510691823899372" stroke-width="4.5"/><polyline points="-318.0,1499.6 -87.3,1405.5 143.4,1536.2 374.1,1500.9 604.8,1587.0 835.5,1511.8 1066.2,1457.2 1296.9,1510.9 1527.6,1413.3 1758.3,1432.5 1989.0,1511.0 2219.7,1446.6 2450.4,1390.8" fill="none" stroke="#FAFCFF" stroke-opacity="0.17959748427672956" stroke-width="5.5"/><circle cx="1260.8" cy="1027.8" r="2.93501169041673" fill="#3B82F6" fill-opacity="0.61"/><circle cx="-6.5" cy="646.4" r="2.9299983205770865" fill="#3B82F6" fill-opacity="0.52"/><circle cx="1257.7" cy="768.2" r="8.19439288345864" fill="#FF6A1A" fill-opacity="0.52"/><circle cx="1464.9" cy="840.0" r="3.350182269578039" fill="#3B82F6" fill-opacity="0.34"/><circle cx="1908.6" cy="943.5" r="5.029483778066262" fill="#FF6A1A" fill-opacity="0.39"/><circle cx="318.8" cy="612.6" r="7.988259110419246" fill="#3B82F6" fill-opacity="0.57"/><circle cx="1182.8" cy="887.6" r="3.523226505000245" fill="#3B82F6" fill-opacity="0.42"/><circle cx="59.4" cy="1031.4" r="6.478192297003457" fill="#3B82F6" fill-opacity="0.58"/><circle cx="242.2" cy="431.6" r="5.497583454967966" fill="#3B82F6" fill-opacity="0.40"/><circle cx="1773.0" cy="968.2" r="6.400551501653144" fill="#3B82F6" fill-opacity="0.59"/><circle cx="396.6" cy="1098.8" r="5.471046329330697" fill="#FF6A1A" fill-opacity="0.44"/><circle cx="1517.1" cy="1118.8" r="7.745182992132521" fill="#FF6A1A" fill-opacity="0.52"/><circle cx="2309.4" cy="685.9" r="4.953683026543411" fill="#FF6A1A" fill-opacity="0.55"/><circle cx="1031.2" cy="709.0" r="8.014169631298639" fill="#3B82F6" fill-opacity="0.38"/><circle cx="1914.7" cy="852.4" r="5.47421879053442" fill="#3B82F6" fill-opacity="0.31"/><circle cx="1319.4" cy="900.6" r="3.359576925588713" fill="#3B82F6" fill-opacity="0.61"/><circle cx="2427.1" cy="1088.7" r="3.4094873368867176" fill="#FF6A1A" fill-opacity="0.48"/><circle cx="1249.1" cy="884.5" r="3.058736909240105" fill="#3B82F6" fill-opacity="0.57"/><g opacity="1.00"><line x1="0" y1="842.4" x2="1920" y2="561.6" stroke="#FAFCFF" stroke-opacity="0.5" stroke-width="6"/><line x1="-9" y1="830" x2="-9" y2="858" stroke="#3B82F6" stroke-opacity="0.8" stroke-width="3"/><line x1="71" y1="818" x2="71" y2="846" stroke="#3B82F6" stroke-opacity="0.8" stroke-width="3"/><line x1="151" y1="806" x2="151" y2="834" stroke="#3B82F6" stroke-opacity="0.8" stroke-width="3"/><line x1="231" y1="795" x2="231" y2="823" stroke="#3B82F6" stroke-opacity="0.8" stroke-width="3"/><line x1="311" y1="783" x2="311" y2="811" stroke="#3B82F6" stroke-opacity="0.8" stroke-width="3"/><line x1="391" y1="771" x2="391" y2="799" stroke="#3B82F6" stroke-opacity="0.8" stroke-width="3"/><line x1="471" y1="759" x2="471" y2="787" stroke="#3B82F6" stroke-opacity="0.8" stroke-width="3"/><line x1="551" y1="748" x2="551" y2="776" stroke="#3B82F6" stroke-opacity="0.8" stroke-width="3"/><line x1="631" y1="736" x2="631" y2="764" stroke="#3B82F6" stroke-opacity="0.8" stroke-width="3"/><line x1="711" y1="724" x2="711" y2="752" stroke="#3B82F6" stroke-opacity="0.8" stroke-width="3"/><line x1="791" y1="713" x2="791" y2="741" stroke="#3B82F6" stroke-opacity="0.8" stroke-width="3"/><line x1="871" y1="701" x2="871" y2="729" stroke="#3B82F6" stroke-opacity="0.8" stroke-width="3"/><line x1="951" y1="689" x2="951" y2="717" stroke="#3B82F6" stroke-opacity="0.8" stroke-width="3"/><line x1="1031" y1="678" x2="1031" y2="706" stroke="#3B82F6" stroke-opacity="0.8" stroke-width="3"/><line x1="1111" y1="666" x2="1111" y2="694" stroke="#3B82F6" stroke-opacity="0.8" stroke-width="3"/><line x1="1191" y1="654" x2="1191" y2="682" stroke="#3B82F6" stroke-opacity="0.8" stroke-width="3"/><line x1="1271" y1="642" x2="1271" y2="670" stroke="#3B82F6" stroke-opacity="0.8" stroke-width="3"/><line x1="1351" y1="631" x2="1351" y2="659" stroke="#3B82F6" stroke-opacity="0.8" stroke-width="3"/><line x1="1431" y1="619" x2="1431" y2="647" stroke="#3B82F6" stroke-opacity="0.8" stroke-width="3"/><line x1="1511" y1="607" x2="1511" y2="635" stroke="#3B82F6" stroke-opacity="0.8" stroke-width="3"/><line x1="1591" y1="596" x2="1591" y2="624" stroke="#3B82F6" stroke-opacity="0.8" stroke-width="3"/><line x1="1671" y1="584" x2="1671" y2="612" stroke="#3B82F6" stroke-opacity="0.8" stroke-width="3"/><line x1="1751" y1="572" x2="1751" y2="600" stroke="#3B82F6" stroke-opacity="0.8" stroke-width="3"/><line x1="1831" y1="561" x2="1831" y2="589" stroke="#3B82F6" stroke-opacity="0.8" stroke-width="3"/><line x1="1911" y1="549" x2="1911" y2="577" stroke="#3B82F6" stroke-opacity="0.8" stroke-width="3"/><line x1="1991" y1="537" x2="1991" y2="565" stroke="#3B82F6" stroke-opacity="0.8" stroke-width="3"/><line x1="2071" y1="525" x2="2071" y2="553" stroke="#3B82F6" stroke-opacity="0.8" stroke-width="3"/></g></svg>