<svg xmlns="http://www.w3.org/2000/svg" width="1920" height="1080" viewBox="0 0 1920 1080"><rect width="1920" height="1080" fill="#0A1F44"/><polyline points="-1061.8,255.8 -707.9,314.7 -354.1,238.8 -0.2,272.1 353.7,294.8 707.6,235.9 1061.5,316.4 1415.4,250.6 1769.2,250.5 2123.1,309.0 2477.0,300.6 2830.9,232.8 3184.8,331.5" fill="none" stroke="#FAFCFF" stroke-opacity="0" stroke-width="1.5"/><polyline points="-1061.8,497.2 -707.9,384.0 -354.1,487.5 -0.2,437.8 353.7,420.2 707.6,520.2 1061.5,355.7 1415.4,371.7 1769.2,398.4 2123.1,398.3 2477.0,497.2 2830.9,525.3 3184.8,475.3" fill="none" stroke="#FAFCFF" stroke-opacity="0" stroke-width="2.5"/><polyline points="-1061.8,696.1 -707.9,829.3 -354.1,699.2 -0.2,720.3 353.7,788.0 707.6,842.2 1061.5,648.0 1415.4,828.6 1769.2,676.3 2123.1,785.6 2477.0,668.3 2830.9,814.1 3184.8,660.4" fill="none" stroke="#FAFCFF" stroke-opacity="0" stroke-width="3.5"/><polyline points="-1061.8,1111.6 -707.9,1133.5 -354.1,1221.6 -0.2,1313.2 353.7,1320.7 707.6,1099.1 1061.5,1275.6 1415.4,1357.2 1769.2,1248.4 2123.1,1351.4 2477.0,1163.9 2830.9,1235.8 3184.8,1330.6" fill="none" stroke="#FAFCFF" stroke-opacity="0" stroke-width="4.5"/><polyline points="-1061.8,1877.9 -707.9,1733.5 -354.1,1934.0 -0.2,1879.8 353.7,2011.9 707.6,1896.6 1061.5,1812.9 1415.4,1895.2 1769.2,1745.5 2123.1,1774.9 2477.0,1895.3 2830.9,1796.6 3184.8,1711.0" fill="none" stroke="#FAFCFF" stroke-opacity="0" stroke-width="5.5"/><g opacity="0.24"><line x1="0" y1="842.4" x2="1920" y2="561.6" stroke="#FAFCFF" stroke-opacity="0.5" stroke-width="6"/><line x1="-29" y1="833" x2="-29" y2="861" stroke="#3B82F6" stroke-opacity="0.8" stroke-width="3"/><line x1="51" y1="821" x2="51" y2="849" stroke="#3B82F6" stroke-opacity="0.8" stroke-width="3"/><line x1="131" y1="809" x2="131" y2="837" stroke="#3B82F6" stroke-opacity="0.8" stroke-width="3"/><line x1="211" y1="797" x2="211" y2="825" stroke="#3B82F6" stroke-opacity="0.8" stroke-width="3"/><line x1="291" y1="786" x2="291" y2="814" stroke="#3B82F6" stroke-opacity="0.8" stroke-width="3"/><line x1="371" y1="774" x2="371" y2="802" stroke="#3B82F6" stroke-opacity="0.8" stroke-width="3"/><line x1="451" y1="762" x2="451" y2="790" stroke="#3B82F6" stroke-opacity="0.8" stroke-width="3"/><line x1="531" y1="751" x2="531" y2="779" stroke="#3B82F6" stroke-opacity="0.8" stroke-width="3"/><line x1="611" y1="739" x2="611" y2="767" stroke="#3B82F6" stroke-opacity="0.8" stroke-width="3"/><line x1="691" y1="727" x2="691" y2="755" stroke="#3B82F6" stroke-opacity="0.8" stroke-width="3"/><line x1="771" y1="716" x2="771" y2="744" stroke="#3B82F6" stroke-opacity="0.8" stroke-width="3"/><line x1="851" y1="704" x2="851" y2="732" stroke="#3B82F6" stroke-opacity="0.8" stroke-width="3"/><line x1="931" y1="692" x2="931" y2="720" stroke="#3B82F6" stroke-opacity="0.8" stroke-width="3"/><line x1="1011" y1="680" x2="1011" y2="708" stroke="#3B82F6" stroke-opacity="0.8" stroke-width="3"/><line x1="1091" y1="669" x2="1091" y2="697" stroke="#3B82F6" stroke-opacity="0.8" stroke-width="3"/><line x1="1171" y1="657" x2="1171" y2="685" stroke="#3B82F6" stroke-opacity="0.8" stroke-width="3"/><line x1="1251" y1="645" x2="1251" y2="673" stroke="#3B82F6" stroke-opacity="0.8" stroke-width="3"/><line x1="1331" y1="634" x2="1331" y2="662" stroke="#3B82F6" stroke-opacity="0.8" stroke-width="3"/><line x1="1411" y1="622" x2="1411" y2="650" stroke="#3B82F6" stroke-opacity="0.8" stroke-width="3"/><line x1="1491" y1="610" x2="1491" y2="638" stroke="#3B82F6" stroke-opacity="0.8" stroke-width="3"/><line x1="1571" y1="599" x2="1571" y2="627" stroke="#3B82F6" stroke-opacity="0.8" stroke-width="3"/><line x1="1651" y1="587" x2="1651" y2="615" stroke="#3B82F6" stroke-opacity="0.8" stroke-width="3"/><line x1="1731" y1="575" x2="1731" y2="603" stroke="#3B82F6" stroke-opacity="0.8" stroke-width="3"/><line x1="1811" y1="563" x2="1811" y2="591" stroke="#3B82F6" stroke-opacity="0.8" stroke-width="3"/><line x1="1891" y1="552" x2="1891" y2="580" stroke="#3B82F6" stroke-opacity="0.8" stroke-width="3"/><line x1="1971" y1="540" x2="1971" y2="568" stroke="#3B82F6" stroke-opacity="0.8" stroke-width="3"/><line x1="2051" y1="528" x2="2051" y2="556" stroke="#3B82F6" stroke-opacity="0.8" stroke-width="3"/></g><g opacity="1.00"><rect x="422.4" y="216" width="1075.2" height="540" fill="none" stroke="#FAFCFF" stroke-opacity="0.6" stroke-width="2"/><rect x="442.4" y="236" width="318.40000000000003" height="189" fill="#3B82F6" fill-opacity="0.14"/><rect x="800.8" y="236" width="318.40000000000003" height="189" fill="#3B82F6" fill-opacity="0.2"/><rect x="1159.2" y="236" width="318.40000000000003" height="189" fill="#3B82F6" fill-opacity="0.26"/></g><g opacity="0.37"><rect x="460.79999999999995" y="324" width="517.9707771018149" height="10" fill="#3B82F6" fill-opacity="0.9"/><rect x="460.79999999999995" y="358" width="559.0618132464589" height="10" fill="#FAFCFF" fill-opacity="0.4"/><rect x="460.79999999999995" y="392" width="57.11705850565054" height="10" fill="#FAFCFF" fill-opacity="0.4"/></g></svg>