<svg xmlns="http://www.w3.org/2000/svg" width="1920" height="1080" viewBox="0 0 1920 1080"><rect width="1920" height="1080" fill="#0A1F44"/><polyline points="-16.6,533.8 153.5,562.1 323.6,525.6 493.7,541.7 663.8,552.5 833.9,524.3 1004.0,562.9 1174.1,531.3 1344.2,531.3 1514.3,559.4 1684.4,555.4 1854.5,522.7 2024.6,570.2" fill="none" stroke="#FAFCFF" stroke-opacity="0.1" stroke-width="1.5"/><polyline points="-16.6,649.8 153.5,595.5 323.6,645.2 493.7,621.3 663.8,612.8 833.9,660.9 1004.0,581.8 1174.1,589.5 1344.2,602.4 1514.3,602.3 1684.4,649.8 1854.5,663.4 2024.6,639.3" fill="none" stroke="#FAFCFF" stroke-opacity="0.13" stroke-width="2.5"/><polyline points="-16.6,745.4 153.5,809.5 323.6,746.9 493.7,757.1 663.8,789.6 833.9,815.7 1004.0,722.3 1174.1,809.1 1344.2,735.9 1514.3,788.5 1684.4,732.1 1854.5,802.2 2024.6,728.3" fill="none" stroke="#FAFCFF" stroke-opacity="0.16" stroke-width="3.5"/><polyline points="-16.6,945.2 153.5,955.7 323.6,998.0 493.7,1042.0 663.8,1045.7 833.9,939.1 1004.0,1024.0 1174.1,1063.2 1344.2,1010.9 1514.3,1060.4 1684.4,970.3 1854.5,1004.8 2024.6,1050.4" fill="none" stroke="#FAFCFF" stroke-opacity="0.19" stroke-width="4.5"/><polyline points="-16.6,1313.5 153.5,1244.1 323.6,1340.4 493.7,1314.4 663.8,1377.9 833.9,1322.5 1004.0,1282.2 1174.1,1321.8 1344.2,1249.8 1514.3,1264.0 1684.4,1321.8 1854.5,1274.4 2024.6,1233.3" fill="none" stroke="#FAFCFF" stroke-opacity="0.22" stroke-width="5.5"/><circle cx="1147.4" cy="965.6" r="2.163925798132719" fill="#3B82F6" fill-opacity="0.56"/><circle cx="213.1" cy="684.4" r="2.160229540169929" fill="#3B82F6" fill-opacity="0.46"/><circle cx="1145.2" cy="774.2" r="6.04156304332594" fill="#FF6A1A" fill-opacity="0.47"/><circle cx="1297.9" cy="827.2" r="2.4700228163511713" fill="#3B82F6" fill-opacity="0.67"/><circle cx="1625.0" cy="903.4" r="3.708138449391426" fill="#FF6A1A" fill-opacity="0.63"/><circle cx="453.0" cy="659.5" r="5.889584708519702" fill="#3B82F6" fill-opacity="0.69"/><circle cx="1090.0" cy="862.2" r="2.5976048925898847" fill="#3B82F6" fill-opacity="0.75"/><circle cx="261.7" cy="968.3" r="4.776242453317123" fill="#3B82F6" fill-opacity="0.35"/><circle cx="396.5" cy="526.1" r="4.053259039627087" fill="#3B82F6" fill-opacity="0.75"/><circle cx="1525.1" cy="921.7" r="4.718999437694848" fill="#3B82F6" fill-opacity="0.64"/><circle cx="510.3" cy="1018.0" r="4.033693744210283" fill="#FF6A1A" fill-opacity="0.58"/><circle cx="1336.4" cy="1032.7" r="5.71036951663884" fill="#FF6A1A" fill-opacity="0.48"/><circle cx="1920.6" cy="713.6" r="3.6522520615198815" fill="#FF6A1A" fill-opacity="0.42"/><circle cx="978.2" cy="730.6" r="5.9086880206996995" fill="#3B82F6" fill-opacity="0.64"/><circle cx="1629.6" cy="836.3" r="4.036032736816249" fill="#3B82F6" fill-opacity="0.72"/><circle cx="1190.7" cy="871.8" r="2.4769493095479302" fill="#3B82F6" fill-opacity="0.51"/><circle cx="2007.4" cy="1010.5" r="2.513747264035066" fill="#FF6A1A" fill-opacity="0.53"/><circle cx="1138.8" cy="860.0" r="2.2551459434444756" fill="#3B82F6" fill-opacity="0.38"/><g opacity="0.11"><line x1="0" y1="842.4" x2="1920" y2="561.6" stroke="#FAFCFF" stroke-opacity="0.5" stroke-width="6"/><line x1="-52" y1="836" x2="-52" y2="864" stroke="#3B82F6" stroke-opacity="0.8" stroke-width="3"/><line x1="28" y1="824" x2="28" y2="852" stroke="#3B82F6" stroke-opacity="0.8" stroke-width="3"/><line x1="108" y1="813" x2="108" y2="841" stroke="#3B82F6" stroke-opacity="0.8" stroke-width="3"/><line x1="188" y1="801" x2="188" y2="829" stroke="#3B82F6" stroke-opacity="0.8" stroke-width="3"/><line x1="268" y1="789" x2="268" y2="817" stroke="#3B82F6" stroke-opacity="0.8" stroke-width="3"/><line x1="348" y1="778" x2="348" y2="806" stroke="#3B82F6" stroke-opacity="0.8" stroke-width="3"/><line x1="428" y1="766" x2="428" y2="794" stroke="#3B82F6" stroke-opacity="0.8" stroke-width="3"/><line x1="508" y1="754" x2="508" y2="782" stroke="#3B82F6" stroke-opacity="0.8" stroke-width="3"/><line x1="588" y1="742" x2="588" y2="770" stroke="#3B82F6" stroke-opacity="0.8" stroke-width="3"/><line x1="668" y1="731" x2="668" y2="759" stroke="#3B82F6" stroke-opacity="0.8" stroke-width="3"/><line x1="748" y1="719" x2="748" y2="747" stroke="#3B82F6" stroke-opacity="0.8" stroke-width="3"/><line x1="828" y1="707" x2="828" y2="735" stroke="#3B82F6" stroke-opacity="0.8" stroke-width="3"/><line x1="908" y1="696" x2="908" y2="724" stroke="#3B82F6" stroke-opacity="0.8" stroke-width="3"/><line x1="988" y1="684" x2="988" y2="712" stroke="#3B82F6" stroke-opacity="0.8" stroke-width="3"/><line x1="1068" y1="672" x2="1068" y2="700" stroke="#3B82F6" stroke-opacity="0.8" stroke-width="3"/><line x1="1148" y1="661" x2="1148" y2="689" stroke="#3B82F6" stroke-opacity="0.8" stroke-width="3"/><line x1="1228" y1="649" x2="1228" y2="677" stroke="#3B82F6" stroke-opacity="0.8" stroke-width="3"/><line x1="1308" y1="637" x2="1308" y2="665" stroke="#3B82F6" stroke-opacity="0.8" stroke-width="3"/><line x1="1388" y1="625" x2="1388" y2="653" stroke="#3B82F6" stroke-opacity="0.8" stroke-width="3"/><line x1="1468" y1="614" x2="1468" y2="642" stroke="#3B82F6" stroke-opacity="0.8" stroke-width="3"/><line x1="1548" y1="602" x2="1548" y2="630" stroke="#3B82F6" stroke-opacity="0.8" stroke-width="3"/><line x1="1628" y1="590" x2="1628" y2="618" stroke="#3B82F6" stroke-opacity="0.8" stroke-width="3"/><line x1="1708" y1="579" x2="1708" y2="607" stroke="#3B82F6" stroke-opacity="0.8" stroke-width="3"/><line x1="1788" y1="567" x2="1788" y2="595" stroke="#3B82F6" stroke-opacity="0.8" stroke-width="3"/><line x1="1868" y1="555" x2="1868" y2="583" stroke="#3B82F6" stroke-opacity="0.8" stroke-width="3"/><line x1="1948" y1="544" x2="1948" y2="572" stroke="#3B82F6" stroke-opacity="0.8" stroke-width="3"/><line x1="2028" y1="532" x2="2028" y2="560" stroke="#3B82F6" stroke-opacity="0.8" stroke-width="3"/></g></svg>