<svg xmlns="http://www.w3.org/2000/svg" width="1920" height="1080" viewBox="0 0 1920 1080"><rect width="1920" height="1080" fill="#0A1F44"/><polyline points="-50.8,521.4 127.5,551.1 305.8,512.8 484.1,529.6 662.4,541.0 840.7,511.4 1019.0,551.9 1197.3,518.8 1375.6,518.7 1553.9,548.2 1732.2,544.0 1910.5,509.8 2088.8,559.5" fill="none" stroke="#FAFCFF" stroke-opacity="0.1" stroke-width="1.5"/><polyline points="-50.8,643.0 127.5,586.0 305.8,638.1 484.1,613.1 662.4,604.2 840.7,654.6 1019.0,571.7 1197.3,579.8 1375.6,593.3 1553.9,593.2 1732.2,643.0 1910.5,657.2 2088.8,632.0" fill="none" stroke="#FAFCFF" stroke-opacity="0.13" stroke-width="2.5"/><polyline points="-50.8,743.2 127.5,810.3 305.8,744.8 484.1,755.4 662.4,789.6 840.7,816.9 1019.0,719.0 1197.3,810.0 1375.6,733.3 1553.9,788.3 1732.2,729.2 1910.5,802.7 2088.8,725.2" fill="none" stroke="#FAFCFF" stroke-opacity="0.16" stroke-width="3.5"/><polyline points="-50.8,952.6 127.5,963.6 305.8,1008.0 484.1,1054.1 662.4,1057.9 840.7,946.3 1019.0,1035.2 1197.3,1076.3 1375.6,1021.5 1553.9,1073.4 1732.2,978.9 1910.5,1015.1 2088.8,1062.9" fill="none" stroke="#FAFCFF" stroke-opacity="0.19" stroke-width="4.5"/><polyline points="-50.8,1338.7 127.5,1265.9 305.8,1366.9 484.1,1339.6 662.4,1406.2 840.7,1348.1 1019.0,1305.9 1197.3,1347.4 1375.6,1272.0 1553.9,1286.8 1732.2,1347.4 1910.5,1297.7 2088.8,1254.6" fill="none" stroke="#FAFCFF" stroke-opacity="0.22" stroke-width="5.5"/><circle cx="1169.3" cy="974.0" r="2.2682995222315054" fill="#3B82F6" fill-opacity="0.41"/><circle cx="190.0" cy="679.2" r="2.2644249807946983" fill="#3B82F6" fill-opacity="0.60"/><circle cx="1166.9" cy="773.4" r="6.332968799823534" fill="#FF6A1A" fill-opacity="0.61"/><circle cx="1327.1" cy="828.9" r="2.5891606722674916" fill="#3B82F6" fill-opacity="0.74"/><circle cx="1670.0" cy="908.9" r="3.8869949609089915" fill="#FF6A1A" fill-opacity="0.72"/><circle cx="441.4" cy="653.1" r="6.17366001736528" fill="#3B82F6" fill-opacity="0.58"/><circle cx="1109.1" cy="865.7" r="2.7228964791178463" fill="#3B82F6" fill-opacity="0.73"/><circle cx="240.9" cy="976.8" r="5.0066173638069404" fill="#3B82F6" fill-opacity="0.51"/><circle cx="382.1" cy="513.3" r="4.248761926587448" fill="#3B82F6" fill-opacity="0.73"/><circle cx="1565.2" cy="928.0" r="4.946613316949538" fill="#3B82F6" fill-opacity="0.51"/><circle cx="501.5" cy="1028.9" r="4.228252928411747" fill="#FF6A1A" fill-opacity="0.69"/><circle cx="1367.4" cy="1044.4" r="5.985800648771971" fill="#FF6A1A" fill-opacity="0.61"/><circle cx="1979.7" cy="709.8" r="3.8284129767126487" fill="#FF6A1A" fill-opacity="0.56"/><circle cx="991.9" cy="727.6" r="6.193684749233776" fill="#3B82F6" fill-opacity="0.72"/><circle cx="1674.7" cy="838.5" r="4.230704738827425" fill="#3B82F6" fill-opacity="0.75"/><circle cx="1214.6" cy="875.7" r="2.596421254503031" fill="#3B82F6" fill-opacity="0.36"/><circle cx="2070.7" cy="1021.1" r="2.6349941032829167" fill="#FF6A1A" fill-opacity="0.65"/><circle cx="1160.3" cy="863.3" r="2.3639195348063797" fill="#3B82F6" fill-opacity="0.53"/><g opacity="0.35"><line x1="0" y1="842.4" x2="1920" y2="561.6" stroke="#FAFCFF" stroke-opacity="0.5" stroke-width="6"/><line x1="-13" y1="830" x2="-13" y2="858" stroke="#3B82F6" stroke-opacity="0.8" stroke-width="3"/><line x1="67" y1="819" x2="67" y2="847" stroke="#3B82F6" stroke-opacity="0.8" stroke-width="3"/><line x1="147" y1="807" x2="147" y2="835" stroke="#3B82F6" stroke-opacity="0.8" stroke-width="3"/><line x1="227" y1="795" x2="227" y2="823" stroke="#3B82F6" stroke-opacity="0.8" stroke-width="3"/><line x1="307" y1="783" x2="307" y2="811" stroke="#3B82F6" stroke-opacity="0.8" stroke-width="3"/><line x1="387" y1="772" x2="387" y2="800" stroke="#3B82F6" stroke-opacity="0.8" stroke-width="3"/><line x1="467" y1="760" x2="467" y2="788" stroke="#3B82F6" stroke-opacity="0.8" stroke-width="3"/><line x1="547" y1="748" x2="547" y2="776" stroke="#3B82F6" stroke-opacity="0.8" stroke-width="3"/><line x1="627" y1="737" x2="627" y2="765" stroke="#3B82F6" stroke-opacity="0.8" stroke-width="3"/><line x1="707" y1="725" x2="707" y2="753" stroke="#3B82F6" stroke-opacity="0.8" stroke-width="3"/><line x1="787" y1="713" x2="787" y2="741" stroke="#3B82F6" stroke-opacity="0.8" stroke-width="3"/><line x1="867" y1="702" x2="867" y2="730" stroke="#3B82F6" stroke-opacity="0.8" stroke-width="3"/><line x1="947" y1="690" x2="947" y2="718" stroke="#3B82F6" stroke-opacity="0.8" stroke-width="3"/><line x1="1027" y1="678" x2="1027" y2="706" stroke="#3B82F6" stroke-opacity="0.8" stroke-width="3"/><line x1="1107" y1="666" x2="1107" y2="694" stroke="#3B82F6" stroke-opacity="0.8" stroke-width="3"/><line x1="1187" y1="655" x2="1187" y2="683" stroke="#3B82F6" stroke-opacity="0.8" stroke-width="3"/><line x1="1267" y1="643" x2="1267" y2="671" stroke="#3B82F6" stroke-opacity="0.8" stroke-width="3"/><line x1="1347" y1="631" x2="1347" y2="659" stroke="#3B82F6" stroke-opacity="0.8" stroke-width="3"/><line x1="1427" y1="620" x2="1427" y2="648" stroke="#3B82F6" stroke-opacity="0.8" stroke-width="3"/><line x1="1507" y1="608" x2="1507" y2="636" stroke="#3B82F6" stroke-opacity="0.8" stroke-width="3"/><line x1="1587" y1="596" x2="1587" y2="624" stroke="#3B82F6" stroke-opacity="0.8" stroke-width="3"/><line x1="1667" y1="585" x2="1667" y2="613" stroke="#3B82F6" stroke-opacity="0.8" stroke-width="3"/><line x1="1747" y1="573" x2="1747" y2="601" stroke="#3B82F6" stroke-opacity="0.8" stroke-width="3"/><line x1="1827" y1="561" x2="1827" y2="589" stroke="#3B82F6" stroke-opacity="0.8" stroke-width="3"/><line x1="1907" y1="549" x2="1907" y2="577" stroke="#3B82F6" stroke-opacity="0.8" stroke-width="3"/><line x1="1987" y1="538" x2="1987" y2="566" stroke="#3B82F6" stroke-opacity="0.8" stroke-width="3"/><line x1="2067" y1="526" x2="2067" y2="554" stroke="#3B82F6" stroke-opacity="0.8" stroke-width="3"/></g></svg>