<svg xmlns="http://www.w3.org/2000/svg" width="1920" height="1080" viewBox="0 0 1920 1080"><rect width="1920" height="1080" fill="#0A1F44"/><polyline points="-1527.3,162.3 -1111.5,231.5 -695.8,142.3 -280.1,181.4 135.6,208.1 551.4,138.9 967.1,233.4 1382.8,156.2 1798.6,156.0 2214.3,224.7 2630.0,214.9 3045.8,135.2 3461.5,251.2" fill="none" stroke="#FAFCFF" stroke-opacity="0" stroke-width="1.5"/><polyline points="-1527.3,445.8 -1111.5,312.9 -695.8,434.4 -280.1,376.1 135.6,355.4 551.4,472.9 967.1,279.6 1382.8,298.4 1798.6,329.8 2214.3,329.7 2630.0,445.8 3045.8,478.9 3461.5,420.2" fill="none" stroke="#FAFCFF" stroke-opacity="0" stroke-width="2.5"/><polyline points="-1527.3,679.5 -1111.5,836.0 -695.8,683.2 -280.1,707.9 135.6,787.5 551.4,851.1 967.1,623.0 1382.8,835.2 1798.6,656.2 2214.3,784.6 2630.0,646.8 3045.8,818.2 3461.5,637.5" fill="none" stroke="#FAFCFF" stroke-opacity="0" stroke-width="3.5"/><polyline points="-1527.3,1167.6 -1111.5,1193.3 -695.8,1296.9 -280.1,1404.4 135.6,1413.3 551.4,1152.9 967.1,1360.3 1382.8,1456.1 1798.6,1328.3 2214.3,1449.4 2630.0,1229.1 3045.8,1313.5 3461.5,1424.8" fill="none" stroke="#FAFCFF" stroke-opacity="0" stroke-width="4.5"/><polyline points="-1527.3,2067.8 -1111.5,1898.2 -695.8,2133.8 -280.1,2070.1 135.6,2225.3 551.4,2089.8 967.1,1991.5 1382.8,2088.2 1798.6,1912.3 2214.3,1946.9 2630.0,2088.3 3045.8,1972.4 3461.5,1871.8" fill="none" stroke="#FAFCFF" stroke-opacity="0" stroke-width="5.5"/><g opacity="0.24"><rect x="460.79999999999995" y="324" width="517.9707771018149" height="10" fill="#3B82F6" fill-opacity="0.9"/><rect x="460.79999999999995" y="358" width="559.0618132464589" height="10" fill="#FAFCFF" fill-opacity="0.4"/><rect x="460.79999999999995" y="392" width="352.0004768371582" height="10" fill="#FAFCFF" fill-opacity="0.4"/><rect x="460.79999999999995" y="426" width="493.0137858130038" height="10" fill="#3B82F6" fill-opacity="0.9"/><rect x="460.79999999999995" y="460" width="575.1368051692843" height="10" fill="#FAFCFF" fill-opacity="0.4"/><rect x="460.79999999999995" y="494" width="457.9308180771768" height="10" fill="#FAFCFF" fill-opacity="0.4"/><rect x="460.79999999999995" y="528" width="514.2663277834654" height="10" fill="#3B82F6" fill-opacity="0.9"/><rect x="460.79999999999995" y="562" width="778.5601877756417" height="10" fill="#FAFCFF" fill-opacity="0.4"/><rect x="460.79999999999995" y="596" width="771.863665021956" height="10" fill="#FAFCFF" fill-opacity="0.4"/></g><rect width="1920" height="1080" fill="#0A1F44" fill-opacity="0.61"/><circle cx="960" cy="540" r="7" fill="#3B82F6" fill-opacity="0.87"/><rect x="800" y="580" width="320" height="2" fill="#FAFCFF" fill-opacity="0.35"/></svg>