<svg xmlns="http://www.w3.org/2000/svg" width="1920" height="1080" viewBox="0 0 1920 1080"><rect width="1920" height="1080" fill="#0A1F44"/><polyline points="-472.0,400.8 -213.9,443.7 44.1,388.4 302.2,412.6 560.2,429.2 818.3,386.3 1076.4,444.9 1334.4,397.0 1592.5,396.9 1850.5,439.5 2108.6,433.4 2366.7,384.0 2624.7,455.9" fill="none" stroke="#FAFCFF" stroke-opacity="0.05144654088050315" stroke-width="1.5"/><polyline points="-472.0,576.8 -213.9,494.3 44.1,569.7 302.2,533.5 560.2,520.7 818.3,593.6 1076.4,473.6 1334.4,485.3 1592.5,504.7 1850.5,504.7 2108.6,576.8 2366.7,597.3 2624.7,560.8" fill="none" stroke="#FAFCFF" stroke-opacity="0.06688050314465409" stroke-width="2.5"/><polyline points="-472.0,721.8 -213.9,819.0 44.1,724.1 302.2,739.5 560.2,788.9 818.3,828.4 1076.4,686.7 1334.4,818.4 1592.5,707.4 1850.5,787.1 2108.6,701.6 2366.7,807.9 2624.7,695.8" fill="none" stroke="#FAFCFF" stroke-opacity="0.08231446540880503" stroke-width="3.5"/><polyline points="-472.0,1024.8 -213.9,1040.8 44.1,1105.0 302.2,1171.8 560.2,1177.3 818.3,1015.7 1076.4,1144.4 1334.4,1203.9 1592.5,1124.6 1850.5,1199.7 2108.6,1063.0 2366.7,1115.4 2624.7,1184.5" fill="none" stroke="#FAFCFF" stroke-opacity="0.09774842767295598" stroke-width="4.5"/><polyline points="-472.0,1583.6 -213.9,1478.3 44.1,1624.6 302.2,1585.0 560.2,1681.3 818.3,1597.3 1076.4,1536.2 1334.4,1596.3 1592.5,1487.1 1850.5,1508.5 2108.6,1596.3 2366.7,1524.4 2624.7,1461.9" fill="none" stroke="#FAFCFF" stroke-opacity="0.11318238993710691" stroke-width="5.5"/><circle cx="1294.0" cy="1055.9" r="3.2830445572170333" fill="#3B82F6" fill-opacity="0.35"/><circle cx="-123.5" cy="629.2" r="3.277436703381528" fill="#3B82F6" fill-opacity="0.21"/><circle cx="1290.5" cy="765.5" r="9.16608170372129" fill="#FF6A1A" fill-opacity="0.21"/><circle cx="1522.3" cy="845.8" r="3.7474459477405073" fill="#3B82F6" fill-opacity="0.28"/><circle cx="2018.6" cy="961.6" r="5.625878560247688" fill="#FF6A1A" fill-opacity="0.25"/><circle cx="240.4" cy="591.4" r="8.935504645427017" fill="#3B82F6" fill-opacity="0.38"/><circle cx="1206.8" cy="899.0" r="3.9410097202854786" fill="#3B82F6" fill-opacity="0.36"/><circle cx="-49.8" cy="1059.9" r="7.246374530883975" fill="#3B82F6" fill-opacity="0.26"/><circle cx="154.6" cy="389.0" r="6.1494853661439155" fill="#3B82F6" fill-opacity="0.36"/><circle cx="1867.0" cy="989.2" r="7.159527111698174" fill="#3B82F6" fill-opacity="0.37"/><circle cx="327.4" cy="1135.3" r="6.11980147555769" fill="#FF6A1A" fill-opacity="0.22"/><circle cx="1580.7" cy="1157.7" r="8.66360462890021" fill="#FF6A1A" fill-opacity="0.20"/><circle cx="2466.9" cy="673.5" r="5.541089376772672" fill="#FF6A1A" fill-opacity="0.23"/><circle cx="1037.2" cy="699.2" r="8.964487628638123" fill="#3B82F6" fill-opacity="0.26"/><circle cx="2025.5" cy="859.7" r="6.123350126325206" fill="#3B82F6" fill-opacity="0.32"/><circle cx="1359.6" cy="913.6" r="3.7579546194379576" fill="#3B82F6" fill-opacity="0.33"/><circle cx="2598.6" cy="1124.0" r="3.8137833933727943" fill="#FF6A1A" fill-opacity="0.19"/><circle cx="1280.9" cy="895.6" r="3.4214410779446545" fill="#3B82F6" fill-opacity="0.25"/><g opacity="1.00"><line x1="0" y1="842.4" x2="1920" y2="561.6" stroke="#FAFCFF" stroke-opacity="0.5" stroke-width="6"/><line x1="-21" y1="831" x2="-21" y2="859" stroke="#3B82F6" stroke-opacity="0.8" stroke-width="3"/><line x1="59" y1="820" x2="59" y2="848" stroke="#3B82F6" stroke-opacity="0.8" stroke-width="3"/><line x1="139" y1="808" x2="139" y2="836" stroke="#3B82F6" stroke-opacity="0.8" stroke-width="3"/><line x1="219" y1="796" x2="219" y2="824" stroke="#3B82F6" stroke-opacity="0.8" stroke-width="3"/><line x1="299" y1="785" x2="299" y2="813" stroke="#3B82F6" stroke-opacity="0.8" stroke-width="3"/><line x1="379" y1="773" x2="379" y2="801" stroke="#3B82F6" stroke-opacity="0.8" stroke-width="3"/><line x1="459" y1="761" x2="459" y2="789" stroke="#3B82F6" stroke-opacity="0.8" stroke-width="3"/><line x1="539" y1="750" x2="539" y2="778" stroke="#3B82F6" stroke-opacity="0.8" stroke-width="3"/><line x1="619" y1="738" x2="619" y2="766" stroke="#3B82F6" stroke-opacity="0.8" stroke-width="3"/><line x1="699" y1="726" x2="699" y2="754" stroke="#3B82F6" stroke-opacity="0.8" stroke-width="3"/><line x1="779" y1="714" x2="779" y2="742" stroke="#3B82F6" stroke-opacity="0.8" stroke-width="3"/><line x1="859" y1="703" x2="859" y2="731" stroke="#3B82F6" stroke-opacity="0.8" stroke-width="3"/><line x1="939" y1="691" x2="939" y2="719" stroke="#3B82F6" stroke-opacity="0.8" stroke-width="3"/><line x1="1019" y1="679" x2="1019" y2="707" stroke="#3B82F6" stroke-opacity="0.8" stroke-width="3"/><line x1="1099" y1="668" x2="1099" y2="696" stroke="#3B82F6" stroke-opacity="0.8" stroke-width="3"/><line x1="1179" y1="656" x2="1179" y2="684" stroke="#3B82F6" stroke-opacity="0.8" stroke-width="3"/><line x1="1259" y1="644" x2="1259" y2="672" stroke="#3B82F6" stroke-opacity="0.8" stroke-width="3"/><line x1="1339" y1="633" x2="1339" y2="661" stroke="#3B82F6" stroke-opacity="0.8" stroke-width="3"/><line x1="1419" y1="621" x2="1419" y2="649" stroke="#3B82F6" stroke-opacity="0.8" stroke-width="3"/><line x1="1499" y1="609" x2="1499" y2="637" stroke="#3B82F6" stroke-opacity="0.8" stroke-width="3"/><line x1="1579" y1="597" x2="1579" y2="625" stroke="#3B82F6" stroke-opacity="0.8" stroke-width="3"/><line x1="1659" y1="586" x2="1659" y2="614" stroke="#3B82F6" stroke-opacity="0.8" stroke-width="3"/><line x1="1739" y1="574" x2="1739" y2="602" stroke="#3B82F6" stroke-opacity="0.8" stroke-width="3"/><line x1="1819" y1="562" x2="1819" y2="590" stroke="#3B82F6" stroke-opacity="0.8" stroke-width="3"/><line x1="1899" y1="551" x2="1899" y2="579" stroke="#3B82F6" stroke-opacity="0.8" stroke-width="3"/><line x1="1979" y1="539" x2="1979" y2="567" stroke="#3B82F6" stroke-opacity="0.8" stroke-width="3"/><line x1="2059" y1="527" x2="2059" y2="555" stroke="#3B82F6" stroke-opacity="0.8" stroke-width="3"/></g></svg>