<svg xmlns="http://www.w3.org/2000/svg" width="1920" height="1080" viewBox="0 0 1920 1080"><rect width="1920" height="1080" fill="#0A1F44"/><polyline points="-139.4,493.3 57.5,526.1 254.4,483.8 451.2,502.4 648.1,515.0 845.0,482.2 1041.9,527.0 1238.7,490.4 1435.6,490.3 1632.5,522.9 1829.4,518.2 2026.3,480.5 2223.1,535.4" fill="none" stroke="#FAFCFF" stroke-opacity="0.1" stroke-width="1.5"/><polyline points="-139.4,627.6 57.5,564.6 254.4,622.2 451.2,594.6 648.1,584.8 845.0,640.4 1041.9,548.9 1238.7,557.8 1435.6,572.6 1632.5,572.6 1829.4,627.6 2026.3,643.2 2223.1,615.4" fill="none" stroke="#FAFCFF" stroke-opacity="0.13" stroke-width="2.5"/><polyline points="-139.4,738.2 57.5,812.4 254.4,740.0 451.2,751.7 648.1,789.4 845.0,819.5 1041.9,711.5 1238.7,812.0 1435.6,727.2 1632.5,788.0 1829.4,722.8 2026.3,803.9 2223.1,718.4" fill="none" stroke="#FAFCFF" stroke-opacity="0.16" stroke-width="3.5"/><polyline points="-139.4,969.4 57.5,981.6 254.4,1030.6 451.2,1081.6 648.1,1085.8 845.0,962.5 1041.9,1060.6 1238.7,1106.0 1435.6,1045.5 1632.5,1102.8 1829.4,998.5 2026.3,1038.5 2223.1,1091.2" fill="none" stroke="#FAFCFF" stroke-opacity="0.19" stroke-width="4.5"/><polyline points="-139.4,1395.7 57.5,1315.4 254.4,1427.0 451.2,1396.8 648.1,1470.3 845.0,1406.1 1041.9,1359.6 1238.7,1405.4 1435.6,1322.1 1632.5,1338.4 1829.4,1405.4 2026.3,1350.5 2223.1,1302.9" fill="none" stroke="#FAFCFF" stroke-opacity="0.22" stroke-width="5.5"/><circle cx="1207.9" cy="993.1" r="2.504677191737846" fill="#3B82F6" fill-opacity="0.55"/><circle cx="126.5" cy="667.6" r="2.500398887453028" fill="#3B82F6" fill-opacity="0.74"/><circle cx="1205.3" cy="771.6" r="6.992922386766922" fill="#FF6A1A" fill-opacity="0.74"/><circle cx="1382.1" cy="832.9" r="2.858975024247766" fill="#3B82F6" fill-opacity="0.71"/><circle cx="1760.7" cy="921.1" r="4.292055580654069" fill="#FF6A1A" fill-opacity="0.73"/><circle cx="404.1" cy="638.8" r="6.817012164172433" fill="#3B82F6" fill-opacity="0.38"/><circle cx="1141.4" cy="873.4" r="3.0066473320068448" fill="#3B82F6" fill-opacity="0.56"/><circle cx="182.7" cy="996.2" r="5.528352933985261" fill="#3B82F6" fill-opacity="0.70"/><circle cx="338.7" cy="484.3" r="4.691521990966419" fill="#3B82F6" fill-opacity="0.58"/><circle cx="1645.0" cy="942.2" r="5.4620959136479055" fill="#3B82F6" fill-opacity="0.45"/><circle cx="470.4" cy="1053.7" r="4.668875766579997" fill="#FF6A1A" fill-opacity="0.75"/><circle cx="1426.6" cy="1070.8" r="6.6095761218163345" fill="#FF6A1A" fill-opacity="0.74"/><circle cx="2102.7" cy="701.3" r="4.22736881498435" fill="#FF6A1A" fill-opacity="0.73"/><circle cx="1012.0" cy="721.0" r="6.839123657249126" fill="#3B82F6" fill-opacity="0.73"/><circle cx="1766.0" cy="843.4" r="4.671583078187846" fill="#3B82F6" fill-opacity="0.66"/><circle cx="1257.9" cy="884.5" r="2.866992225920587" fill="#3B82F6" fill-opacity="0.60"/><circle cx="2203.2" cy="1045.1" r="2.9095847202593803" fill="#FF6A1A" fill-opacity="0.75"/><circle cx="1197.9" cy="870.8" r="2.6102616889449703" fill="#3B82F6" fill-opacity="0.71"/><g opacity="0.77"><line x1="0" y1="842.4" x2="1920" y2="561.6" stroke="#FAFCFF" stroke-opacity="0.5" stroke-width="6"/><line x1="-25" y1="832" x2="-25" y2="860" stroke="#3B82F6" stroke-opacity="0.8" stroke-width="3"/><line x1="55" y1="820" x2="55" y2="848" stroke="#3B82F6" stroke-opacity="0.8" stroke-width="3"/><line x1="135" y1="809" x2="135" y2="837" stroke="#3B82F6" stroke-opacity="0.8" stroke-width="3"/><line x1="215" y1="797" x2="215" y2="825" stroke="#3B82F6" stroke-opacity="0.8" stroke-width="3"/><line x1="295" y1="785" x2="295" y2="813" stroke="#3B82F6" stroke-opacity="0.8" stroke-width="3"/><line x1="375" y1="774" x2="375" y2="802" stroke="#3B82F6" stroke-opacity="0.8" stroke-width="3"/><line x1="455" y1="762" x2="455" y2="790" stroke="#3B82F6" stroke-opacity="0.8" stroke-width="3"/><line x1="535" y1="750" x2="535" y2="778" stroke="#3B82F6" stroke-opacity="0.8" stroke-width="3"/><line x1="615" y1="738" x2="615" y2="766" stroke="#3B82F6" stroke-opacity="0.8" stroke-width="3"/><line x1="695" y1="727" x2="695" y2="755" stroke="#3B82F6" stroke-opacity="0.8" stroke-width="3"/><line x1="775" y1="715" x2="775" y2="743" stroke="#3B82F6" stroke-opacity="0.8" stroke-width="3"/><line x1="855" y1="703" x2="855" y2="731" stroke="#3B82F6" stroke-opacity="0.8" stroke-width="3"/><line x1="935" y1="692" x2="935" y2="720" stroke="#3B82F6" stroke-opacity="0.8" stroke-width="3"/><line x1="1015" y1="680" x2="1015" y2="708" stroke="#3B82F6" stroke-opacity="0.8" stroke-width="3"/><line x1="1095" y1="668" x2="1095" y2="696" stroke="#3B82F6" stroke-opacity="0.8" stroke-width="3"/><line x1="1175" y1="657" x2="1175" y2="685" stroke="#3B82F6" stroke-opacity="0.8" stroke-width="3"/><line x1="1255" y1="645" x2="1255" y2="673" stroke="#3B82F6" stroke-opacity="0.8" stroke-width="3"/><line x1="1335" y1="633" x2="1335" y2="661" stroke="#3B82F6" stroke-opacity="0.8" stroke-width="3"/><line x1="1415" y1="621" x2="1415" y2="649" stroke="#3B82F6" stroke-opacity="0.8" stroke-width="3"/><line x1="1495" y1="610" x2="1495" y2="638" stroke="#3B82F6" stroke-opacity="0.8" stroke-width="3"/><line x1="1575" y1="598" x2="1575" y2="626" stroke="#3B82F6" stroke-opacity="0.8" stroke-width="3"/><line x1="1655" y1="586" x2="1655" y2="614" stroke="#3B82F6" stroke-opacity="0.8" stroke-width="3"/><line x1="1735" y1="575" x2="1735" y2="603" stroke="#3B82F6" stroke-opacity="0.8" stroke-width="3"/><line x1="1815" y1="563" x2="1815" y2="591" stroke="#3B82F6" stroke-opacity="0.8" stroke-width="3"/><line x1="1895" y1="551" x2="1895" y2="579" stroke="#3B82F6" stroke-opacity="0.8" stroke-width="3"/><line x1="1975" y1="540" x2="1975" y2="568" stroke="#3B82F6" stroke-opacity="0.8" stroke-width="3"/><line x1="2055" y1="528" x2="2055" y2="556" stroke="#3B82F6" stroke-opacity="0.8" stroke-width="3"/></g></svg>