<svg xmlns="http://www.w3.org/2000/svg" width="1920" height="1080" viewBox="0 0 1920 1080"><rect width="1920" height="1080" fill="#0A1F44"/><polyline points="-541.0,382.8 -271.0,427.7 -1.1,369.8 268.9,395.2 538.8,412.5 808.7,367.6 1078.7,429.0 1348.6,378.8 1618.6,378.7 1888.5,423.3 2158.4,417.0 2428.4,365.2 2698.3,440.5" fill="none" stroke="#FAFCFF" stroke-opacity="0.03886792452830189" stroke-width="1.5"/><polyline points="-541.0,566.9 -271.0,480.6 -1.1,559.5 268.9,521.6 538.8,508.2 808.7,584.5 1078.7,459.0 1348.6,471.2 1618.6,491.6 1888.5,491.5 2158.4,566.9 2428.4,588.4 2698.3,550.2" fill="none" stroke="#FAFCFF" stroke-opacity="0.05052830188679246" stroke-width="2.5"/><polyline points="-541.0,718.6 -271.0,820.2 -1.1,721.0 268.9,737.1 538.8,788.8 808.7,830.1 1078.7,681.9 1348.6,819.7 1618.6,703.5 1888.5,786.9 2158.4,697.4 2428.4,808.7 2698.3,691.4" fill="none" stroke="#FAFCFF" stroke-opacity="0.06218867924528303" stroke-width="3.5"/><polyline points="-541.0,1035.6 -271.0,1052.3 -1.1,1119.5 268.9,1189.3 538.8,1195.1 808.7,1026.0 1078.7,1160.7 1348.6,1222.9 1618.6,1139.9 1888.5,1218.5 2158.4,1075.5 2428.4,1130.3 2698.3,1202.6" fill="none" stroke="#FAFCFF" stroke-opacity="0.0738490566037736" stroke-width="4.5"/><polyline points="-541.0,1620.1 -271.0,1510.0 -1.1,1662.9 268.9,1621.6 538.8,1722.3 808.7,1634.4 1078.7,1570.5 1348.6,1633.3 1618.6,1519.1 1888.5,1541.6 2158.4,1633.4 2428.4,1558.1 2698.3,1492.8" fill="none" stroke="#FAFCFF" stroke-opacity="0.08550943396226415" stroke-width="5.5"/><circle cx="1306.3" cy="1068.1" r="3.4341875879496633" fill="#3B82F6" fill-opacity="0.24"/><circle cx="-176.4" cy="621.7" r="3.428321562770506" fill="#3B82F6" fill-opacity="0.16"/><circle cx="1302.7" cy="764.3" r="9.588064818631464" fill="#FF6A1A" fill-opacity="0.16"/><circle cx="1545.2" cy="848.4" r="3.9199688386659775" fill="#3B82F6" fill-opacity="0.25"/><circle cx="2064.3" cy="969.4" r="5.884879716433747" fill="#FF6A1A" fill-opacity="0.23"/><circle cx="204.2" cy="582.2" r="9.346872578361852" fill="#3B82F6" fill-opacity="0.28"/><circle cx="1215.1" cy="904.0" r="4.12244379554385" fill="#3B82F6" fill-opacity="0.29"/><circle cx="-99.4" cy="1072.3" r="7.579979204635328" fill="#3B82F6" fill-opacity="0.16"/><circle cx="114.5" cy="370.5" r="6.43259204943329" fill="#3B82F6" fill-opacity="0.29"/><circle cx="1905.7" cy="998.3" r="7.48913355090891" fill="#3B82F6" fill-opacity="0.26"/><circle cx="295.2" cy="1151.2" r="6.401541587937366" fill="#FF6A1A" fill-opacity="0.21"/><circle cx="1606.2" cy="1174.6" r="9.062454975845" fill="#FF6A1A" fill-opacity="0.16"/><circle cx="2533.3" cy="668.0" r="5.796187054361225" fill="#FF6A1A" fill-opacity="0.14"/><circle cx="1037.8" cy="695.0" r="9.377189864487784" fill="#3B82F6" fill-opacity="0.23"/><circle cx="2071.5" cy="862.8" r="6.405253609570755" fill="#3B82F6" fill-opacity="0.27"/><circle cx="1374.9" cy="919.2" r="3.930961302910756" fill="#3B82F6" fill-opacity="0.22"/><circle cx="2671.0" cy="1139.4" r="3.989360291762733" fill="#FF6A1A" fill-opacity="0.19"/><circle cx="1292.7" cy="900.4" r="3.5789555328907148" fill="#3B82F6" fill-opacity="0.15"/><g opacity="1.00"><line x1="0" y1="842.4" x2="1920" y2="561.6" stroke="#FAFCFF" stroke-opacity="0.5" stroke-width="6"/><line x1="-72" y1="839" x2="-72" y2="867" stroke="#3B82F6" stroke-opacity="0.8" stroke-width="3"/><line x1="8" y1="827" x2="8" y2="855" stroke="#3B82F6" stroke-opacity="0.8" stroke-width="3"/><line x1="88" y1="816" x2="88" y2="844" stroke="#3B82F6" stroke-opacity="0.8" stroke-width="3"/><line x1="168" y1="804" x2="168" y2="832" stroke="#3B82F6" stroke-opacity="0.8" stroke-width="3"/><line x1="248" y1="792" x2="248" y2="820" stroke="#3B82F6" stroke-opacity="0.8" stroke-width="3"/><line x1="328" y1="780" x2="328" y2="808" stroke="#3B82F6" stroke-opacity="0.8" stroke-width="3"/><line x1="408" y1="769" x2="408" y2="797" stroke="#3B82F6" stroke-opacity="0.8" stroke-width="3"/><line x1="488" y1="757" x2="488" y2="785" stroke="#3B82F6" stroke-opacity="0.8" stroke-width="3"/><line x1="568" y1="745" x2="568" y2="773" stroke="#3B82F6" stroke-opacity="0.8" stroke-width="3"/><line x1="648" y1="734" x2="648" y2="762" stroke="#3B82F6" stroke-opacity="0.8" stroke-width="3"/><line x1="728" y1="722" x2="728" y2="750" stroke="#3B82F6" stroke-opacity="0.8" stroke-width="3"/><line x1="808" y1="710" x2="808" y2="738" stroke="#3B82F6" stroke-opacity="0.8" stroke-width="3"/><line x1="888" y1="699" x2="888" y2="727" stroke="#3B82F6" stroke-opacity="0.8" stroke-width="3"/><line x1="968" y1="687" x2="968" y2="715" stroke="#3B82F6" stroke-opacity="0.8" stroke-width="3"/><line x1="1048" y1="675" x2="1048" y2="703" stroke="#3B82F6" stroke-opacity="0.8" stroke-width="3"/><line x1="1128" y1="663" x2="1128" y2="691" stroke="#3B82F6" stroke-opacity="0.8" stroke-width="3"/><line x1="1208" y1="652" x2="1208" y2="680" stroke="#3B82F6" stroke-opacity="0.8" stroke-width="3"/><line x1="1288" y1="640" x2="1288" y2="668" stroke="#3B82F6" stroke-opacity="0.8" stroke-width="3"/><line x1="1368" y1="628" x2="1368" y2="656" stroke="#3B82F6" stroke-opacity="0.8" stroke-width="3"/><line x1="1448" y1="617" x2="1448" y2="645" stroke="#3B82F6" stroke-opacity="0.8" stroke-width="3"/><line x1="1528" y1="605" x2="1528" y2="633" stroke="#3B82F6" stroke-opacity="0.8" stroke-width="3"/><line x1="1608" y1="593" x2="1608" y2="621" stroke="#3B82F6" stroke-opacity="0.8" stroke-width="3"/><line x1="1688" y1="582" x2="1688" y2="610" stroke="#3B82F6" stroke-opacity="0.8" stroke-width="3"/><line x1="1768" y1="570" x2="1768" y2="598" stroke="#3B82F6" stroke-opacity="0.8" stroke-width="3"/><line x1="1848" y1="558" x2="1848" y2="586" stroke="#3B82F6" stroke-opacity="0.8" stroke-width="3"/><line x1="1928" y1="546" x2="1928" y2="574" stroke="#3B82F6" stroke-opacity="0.8" stroke-width="3"/><line x1="2008" y1="535" x2="2008" y2="563" stroke="#3B82F6" stroke-opacity="0.8" stroke-width="3"/></g></svg>