<svg xmlns="http://www.w3.org/2000/svg" width="1920" height="1080" viewBox="0 0 1920 1080"><rect width="1920" height="1080" fill="#0A1F44"/><polyline points="-1116.6,243.4 -754.5,303.6 -392.4,226.0 -30.3,260.0 331.9,283.2 694.0,223.0 1056.1,305.3 1418.2,238.0 1780.3,237.9 2142.5,297.8 2504.6,289.2 2866.7,219.8 3228.8,320.8" fill="none" stroke="#FAFCFF" stroke-opacity="0" stroke-width="1.5"/><polyline points="-1116.6,490.4 -754.5,374.6 -392.4,480.4 -30.3,429.6 331.9,411.6 694.0,513.9 1056.1,345.6 1418.2,361.9 1780.3,389.3 2142.5,389.2 2504.6,490.4 2866.7,519.2 3228.8,468.0" fill="none" stroke="#FAFCFF" stroke-opacity="0" stroke-width="2.5"/><polyline points="-1116.6,693.9 -754.5,830.2 -392.4,697.1 -30.3,718.7 331.9,788.0 694.0,843.4 1056.1,644.7 1418.2,829.5 1780.3,673.6 2142.5,785.5 2504.6,665.4 2866.7,814.7 3228.8,657.3" fill="none" stroke="#FAFCFF" stroke-opacity="0" stroke-width="3.5"/><polyline points="-1116.6,1119.1 -754.5,1141.5 -392.4,1231.6 -30.3,1325.3 331.9,1333.1 694.0,1106.3 1056.1,1286.9 1418.2,1370.3 1780.3,1259.0 2142.5,1364.5 2504.6,1172.6 2866.7,1246.1 3228.8,1343.1" fill="none" stroke="#FAFCFF" stroke-opacity="0" stroke-width="4.5"/><polyline points="-1116.6,1903.2 -754.5,1755.4 -392.4,1960.6 -30.3,1905.2 331.9,2040.3 694.0,1922.4 1056.1,1836.7 1418.2,1920.9 1780.3,1767.7 2142.5,1797.8 2504.6,1921.0 2866.7,1820.0 3228.8,1732.4" fill="none" stroke="#FAFCFF" stroke-opacity="0" stroke-width="5.5"/><g opacity="0.09"><line x1="0" y1="842.4" x2="1920" y2="561.6" stroke="#FAFCFF" stroke-opacity="0.5" stroke-width="6"/><line x1="-6" y1="829" x2="-6" y2="857" stroke="#3B82F6" stroke-opacity="0.8" stroke-width="3"/><line x1="74" y1="818" x2="74" y2="846" stroke="#3B82F6" stroke-opacity="0.8" stroke-width="3"/><line x1="154" y1="806" x2="154" y2="834" stroke="#3B82F6" stroke-opacity="0.8" stroke-width="3"/><line x1="234" y1="794" x2="234" y2="822" stroke="#3B82F6" stroke-opacity="0.8" stroke-width="3"/><line x1="314" y1="782" x2="314" y2="810" stroke="#3B82F6" stroke-opacity="0.8" stroke-width="3"/><line x1="394" y1="771" x2="394" y2="799" stroke="#3B82F6" stroke-opacity="0.8" stroke-width="3"/><line x1="474" y1="759" x2="474" y2="787" stroke="#3B82F6" stroke-opacity="0.8" stroke-width="3"/><line x1="554" y1="747" x2="554" y2="775" stroke="#3B82F6" stroke-opacity="0.8" stroke-width="3"/><line x1="634" y1="736" x2="634" y2="764" stroke="#3B82F6" stroke-opacity="0.8" stroke-width="3"/><line x1="714" y1="724" x2="714" y2="752" stroke="#3B82F6" stroke-opacity="0.8" stroke-width="3"/><line x1="794" y1="712" x2="794" y2="740" stroke="#3B82F6" stroke-opacity="0.8" stroke-width="3"/><line x1="874" y1="701" x2="874" y2="729" stroke="#3B82F6" stroke-opacity="0.8" stroke-width="3"/><line x1="954" y1="689" x2="954" y2="717" stroke="#3B82F6" stroke-opacity="0.8" stroke-width="3"/><line x1="1034" y1="677" x2="1034" y2="705" stroke="#3B82F6" stroke-opacity="0.8" stroke-width="3"/><line x1="1114" y1="665" x2="1114" y2="693" stroke="#3B82F6" stroke-opacity="0.8" stroke-width="3"/><line x1="1194" y1="654" x2="1194" y2="682" stroke="#3B82F6" stroke-opacity="0.8" stroke-width="3"/><line x1="1274" y1="642" x2="1274" y2="670" stroke="#3B82F6" stroke-opacity="0.8" stroke-width="3"/><line x1="1354" y1="630" x2="1354" y2="658" stroke="#3B82F6" stroke-opacity="0.8" stroke-width="3"/><line x1="1434" y1="619" x2="1434" y2="647" stroke="#3B82F6" stroke-opacity="0.8" stroke-width="3"/><line x1="1514" y1="607" x2="1514" y2="635" stroke="#3B82F6" stroke-opacity="0.8" stroke-width="3"/><line x1="1594" y1="595" x2="1594" y2="623" stroke="#3B82F6" stroke-opacity="0.8" stroke-width="3"/><line x1="1674" y1="584" x2="1674" y2="612" stroke="#3B82F6" stroke-opacity="0.8" stroke-width="3"/><line x1="1754" y1="572" x2="1754" y2="600" stroke="#3B82F6" stroke-opacity="0.8" stroke-width="3"/><line x1="1834" y1="560" x2="1834" y2="588" stroke="#3B82F6" stroke-opacity="0.8" stroke-width="3"/><line x1="1914" y1="548" x2="1914" y2="576" stroke="#3B82F6" stroke-opacity="0.8" stroke-width="3"/><line x1="1994" y1="537" x2="1994" y2="565" stroke="#3B82F6" stroke-opacity="0.8" stroke-width="3"/><line x1="2074" y1="525" x2="2074" y2="553" stroke="#3B82F6" stroke-opacity="0.8" stroke-width="3"/></g><g opacity="1.00"><rect x="422.4" y="216" width="1075.2" height="540" fill="none" stroke="#FAFCFF" stroke-opacity="0.6" stroke-width="2"/><rect x="442.4" y="236" width="318.40000000000003" height="189" fill="#3B82F6" fill-opacity="0.14"/><rect x="800.8" y="236" width="318.40000000000003" height="189" fill="#3B82F6" fill-opacity="0.2"/><rect x="1159.2" y="236" width="318.40000000000003" height="189" fill="#3B82F6" fill-opacity="0.26"/></g><g opacity="0.53"><rect x="460.79999999999995" y="324" width="517.9707771018149" height="10" fill="#3B82F6" fill-opacity="0.9"/><rect x="460.79999999999995" y="358" width="559.0618132464589" height="10" fill="#FAFCFF" fill-opacity="0.4"/><rect x="460.79999999999995" y="392" width="352.0004768371582" height="10" fill="#FAFCFF" fill-opacity="0.4"/><rect x="460.79999999999995" y="426" width="9.922290028940836" height="10" fill="#3B82F6" fill-opacity="0.9"/></g></svg>