<svg xmlns="http://www.w3.org/2000/svg" width="1920" height="1080" viewBox="0 0 1920 1080"><rect width="1920" height="1080" fill="#0A1F44"/><polyline points="-271.2,455.1 -49.1,492.1 173.0,444.5 395.1,465.4 617.2,479.6 839.4,442.6 1061.5,493.1 1283.6,451.9 1505.7,451.8 1727.8,488.5 1949.9,483.3 2172.1,440.7 2394.2,502.6" fill="none" stroke="#FAFCFF" stroke-opacity="0.09169811320754717" stroke-width="1.5"/><polyline points="-271.2,606.6 -49.1,535.6 173.0,600.5 395.1,569.4 617.2,558.3 839.4,621.1 1061.5,517.8 1283.6,527.9 1505.7,544.6 1727.8,544.6 1949.9,606.6 2172.1,624.3 2394.2,592.9" fill="none" stroke="#FAFCFF" stroke-opacity="0.11920754716981133" stroke-width="2.5"/><polyline points="-271.2,731.5 -49.1,815.1 173.0,733.4 395.1,746.7 617.2,789.2 839.4,823.2 1061.5,701.3 1283.6,814.6 1505.7,719.0 1727.8,787.6 1949.9,714.0 2172.1,805.6 2394.2,709.1" fill="none" stroke="#FAFCFF" stroke-opacity="0.14671698113207549" stroke-width="3.5"/><polyline points="-271.2,992.3 -49.1,1006.0 173.0,1061.3 395.1,1118.8 617.2,1123.5 839.4,984.4 1061.5,1095.2 1283.6,1146.4 1505.7,1078.1 1727.8,1142.8 1949.9,1025.1 2172.1,1070.2 2394.2,1129.7" fill="none" stroke="#FAFCFF" stroke-opacity="0.17422641509433962" stroke-width="4.5"/><polyline points="-271.2,1473.2 -49.1,1382.6 173.0,1508.5 395.1,1474.4 617.2,1557.4 839.4,1485.0 1061.5,1432.4 1283.6,1484.1 1505.7,1390.2 1727.8,1408.6 1949.9,1484.2 2172.1,1422.2 2394.2,1368.5" fill="none" stroke="#FAFCFF" stroke-opacity="0.20173584905660377" stroke-width="5.5"/><circle cx="1248.8" cy="1019.0" r="2.825793643603583" fill="#3B82F6" fill-opacity="0.67"/><circle cx="28.7" cy="651.7" r="2.820966831951638" fill="#3B82F6" fill-opacity="0.64"/><circle cx="1245.8" cy="769.1" r="7.88946204162481" fill="#FF6A1A" fill-opacity="0.64"/><circle cx="1445.3" cy="838.2" r="3.225514839752778" fill="#3B82F6" fill-opacity="0.46"/><circle cx="1872.5" cy="937.8" r="4.8423259563402405" fill="#FF6A1A" fill-opacity="0.51"/><circle cx="341.9" cy="619.2" r="7.690998946064181" fill="#3B82F6" fill-opacity="0.59"/><circle cx="1173.7" cy="884.0" r="3.392119729987093" fill="#3B82F6" fill-opacity="0.39"/><circle cx="92.1" cy="1022.4" r="6.237124940485286" fill="#3B82F6" fill-opacity="0.68"/><circle cx="268.1" cy="445.0" r="5.293006645579306" fill="#3B82F6" fill-opacity="0.37"/><circle cx="1742.0" cy="961.6" r="6.162373324775677" fill="#3B82F6" fill-opacity="0.63"/><circle cx="416.8" cy="1087.4" r="5.267457023003643" fill="#FF6A1A" fill-opacity="0.56"/><circle cx="1495.5" cy="1106.6" r="7.456968208738929" fill="#FF6A1A" fill-opacity="0.63"/><circle cx="2258.4" cy="689.8" r="4.769345912501562" fill="#FF6A1A" fill-opacity="0.66"/><circle cx="1027.8" cy="712.0" r="7.715945281181861" fill="#3B82F6" fill-opacity="0.51"/><circle cx="1878.4" cy="850.1" r="5.270511430157566" fill="#3B82F6" fill-opacity="0.37"/><circle cx="1305.2" cy="896.5" r="3.234559900569907" fill="#3B82F6" fill-opacity="0.68"/><circle cx="2371.7" cy="1077.7" r="3.282613038980241" fill="#FF6A1A" fill-opacity="0.60"/><circle cx="1237.5" cy="881.0" r="2.944914783068249" fill="#3B82F6" fill-opacity="0.67"/><g opacity="1.00"><line x1="0" y1="842.4" x2="1920" y2="561.6" stroke="#FAFCFF" stroke-opacity="0.5" stroke-width="6"/><line x1="-31" y1="833" x2="-31" y2="861" stroke="#3B82F6" stroke-opacity="0.8" stroke-width="3"/><line x1="49" y1="821" x2="49" y2="849" stroke="#3B82F6" stroke-opacity="0.8" stroke-width="3"/><line x1="129" y1="810" x2="129" y2="838" stroke="#3B82F6" stroke-opacity="0.8" stroke-width="3"/><line x1="209" y1="798" x2="209" y2="826" stroke="#3B82F6" stroke-opacity="0.8" stroke-width="3"/><line x1="289" y1="786" x2="289" y2="814" stroke="#3B82F6" stroke-opacity="0.8" stroke-width="3"/><line x1="369" y1="774" x2="369" y2="802" stroke="#3B82F6" stroke-opacity="0.8" stroke-width="3"/><line x1="449" y1="763" x2="449" y2="791" stroke="#3B82F6" stroke-opacity="0.8" stroke-width="3"/><line x1="529" y1="751" x2="529" y2="779" stroke="#3B82F6" stroke-opacity="0.8" stroke-width="3"/><line x1="609" y1="739" x2="609" y2="767" stroke="#3B82F6" stroke-opacity="0.8" stroke-width="3"/><line x1="689" y1="728" x2="689" y2="756" stroke="#3B82F6" stroke-opacity="0.8" stroke-width="3"/><line x1="769" y1="716" x2="769" y2="744" stroke="#3B82F6" stroke-opacity="0.8" stroke-width="3"/><line x1="849" y1="704" x2="849" y2="732" stroke="#3B82F6" stroke-opacity="0.8" stroke-width="3"/><line x1="929" y1="693" x2="929" y2="721" stroke="#3B82F6" stroke-opacity="0.8" stroke-width="3"/><line x1="1009" y1="681" x2="1009" y2="709" stroke="#3B82F6" stroke-opacity="0.8" stroke-width="3"/><line x1="1089" y1="669" x2="1089" y2="697" stroke="#3B82F6" stroke-opacity="0.8" stroke-width="3"/><line x1="1169" y1="657" x2="1169" y2="685" stroke="#3B82F6" stroke-opacity="0.8" stroke-width="3"/><line x1="1249" y1="646" x2="1249" y2="674" stroke="#3B82F6" stroke-opacity="0.8" stroke-width="3"/><line x1="1329" y1="634" x2="1329" y2="662" stroke="#3B82F6" stroke-opacity="0.8" stroke-width="3"/><line x1="1409" y1="622" x2="1409" y2="650" stroke="#3B82F6" stroke-opacity="0.8" stroke-width="3"/><line x1="1489" y1="611" x2="1489" y2="639" stroke="#3B82F6" stroke-opacity="0.8" stroke-width="3"/><line x1="1569" y1="599" x2="1569" y2="627" stroke="#3B82F6" stroke-opacity="0.8" stroke-width="3"/><line x1="1649" y1="587" x2="1649" y2="615" stroke="#3B82F6" stroke-opacity="0.8" stroke-width="3"/><line x1="1729" y1="576" x2="1729" y2="604" stroke="#3B82F6" stroke-opacity="0.8" stroke-width="3"/><line x1="1809" y1="564" x2="1809" y2="592" stroke="#3B82F6" stroke-opacity="0.8" stroke-width="3"/><line x1="1889" y1="552" x2="1889" y2="580" stroke="#3B82F6" stroke-opacity="0.8" stroke-width="3"/><line x1="1969" y1="540" x2="1969" y2="568" stroke="#3B82F6" stroke-opacity="0.8" stroke-width="3"/><line x1="2049" y1="529" x2="2049" y2="557" stroke="#3B82F6" stroke-opacity="0.8" stroke-width="3"/></g></svg>