<svg xmlns="http://www.w3.org/2000/svg" width="1920" height="1080" viewBox="0 0 1920 1080"><rect width="1920" height="1080" fill="#0A1F44"/><polyline points="-485.6,397.2 -225.2,440.5 35.2,384.7 295.7,409.2 556.1,425.9 816.5,382.6 1076.9,441.8 1337.3,393.4 1597.8,393.3 1858.2,436.3 2118.6,430.2 2379.0,380.2 2639.4,452.9" fill="none" stroke="#FAFCFF" stroke-opacity="0.0489308176100629" stroke-width="1.5"/><polyline points="-485.6,574.8 -225.2,491.6 35.2,567.7 295.7,531.1 556.1,518.2 816.5,591.8 1076.9,470.7 1337.3,482.5 1597.8,502.1 1858.2,502.1 2118.6,574.8 2379.0,595.5 2639.4,558.7" fill="none" stroke="#FAFCFF" stroke-opacity="0.06361006289308177" stroke-width="2.5"/><polyline points="-485.6,721.2 -225.2,819.2 35.2,723.5 295.7,739.0 556.1,788.8 816.5,828.7 1076.9,685.8 1337.3,818.7 1597.8,706.6 1858.2,787.0 2118.6,700.7 2379.0,808.1 2639.4,694.9" fill="none" stroke="#FAFCFF" stroke-opacity="0.07828930817610064" stroke-width="3.5"/><polyline points="-485.6,1027.0 -225.2,1043.1 35.2,1107.9 295.7,1175.3 556.1,1180.9 816.5,1017.8 1076.9,1147.6 1337.3,1207.7 1597.8,1127.6 1858.2,1203.4 2118.6,1065.5 2379.0,1118.3 2639.4,1188.1" fill="none" stroke="#FAFCFF" stroke-opacity="0.0929685534591195" stroke-width="4.5"/><polyline points="-485.6,1590.9 -225.2,1484.6 35.2,1632.2 295.7,1592.3 556.1,1689.5 816.5,1604.7 1076.9,1543.0 1337.3,1603.6 1597.8,1493.5 1858.2,1515.1 2118.6,1603.7 2379.0,1531.1 2639.4,1468.1" fill="none" stroke="#FAFCFF" stroke-opacity="0.10764779874213837" stroke-width="5.5"/><circle cx="1296.5" cy="1058.3" r="3.3130689871929593" fill="#3B82F6" fill-opacity="0.33"/><circle cx="-133.9" cy="627.7" r="3.3074098478473535" fill="#3B82F6" fill-opacity="0.19"/><circle cx="1293.0" cy="765.3" r="9.249908277948562" fill="#FF6A1A" fill-opacity="0.19"/><circle cx="1526.9" cy="846.3" r="3.7817174681191035" fill="#3B82F6" fill-opacity="0.28"/><circle cx="2027.8" cy="963.1" r="5.677328911877519" fill="#FF6A1A" fill-opacity="0.25"/><circle cx="233.3" cy="589.6" r="9.017222523101392" fill="#3B82F6" fill-opacity="0.36"/><circle cx="1208.5" cy="900.0" r="3.9770514395856447" fill="#3B82F6" fill-opacity="0.35"/><circle cx="-59.6" cy="1062.3" r="7.312644805590904" fill="#3B82F6" fill-opacity="0.24"/><circle cx="146.7" cy="385.3" r="6.205724259508275" fill="#3B82F6" fill-opacity="0.34"/><circle cx="1874.8" cy="991.0" r="7.225003140633993" fill="#3B82F6" fill-opacity="0.35"/><circle cx="321.1" cy="1138.5" r="6.175768900814083" fill="#FF6A1A" fill-opacity="0.22"/><circle cx="1585.8" cy="1161.1" r="8.742835899139205" fill="#FF6A1A" fill-opacity="0.18"/><circle cx="2480.2" cy="672.4" r="5.591764305816062" fill="#FF6A1A" fill-opacity="0.21"/><circle cx="1037.4" cy="698.4" r="9.046470564411695" fill="#3B82F6" fill-opacity="0.25"/><circle cx="2034.7" cy="860.3" r="6.179350005060258" fill="#3B82F6" fill-opacity="0.31"/><circle cx="1362.7" cy="914.7" r="3.7923222447801086" fill="#3B82F6" fill-opacity="0.31"/><circle cx="2613.1" cy="1127.1" r="3.8486615896452006" fill="#FF6A1A" fill-opacity="0.19"/><circle cx="1283.3" cy="896.5" r="3.4527311857306375" fill="#3B82F6" fill-opacity="0.23"/><g opacity="1.00"><line x1="0" y1="842.4" x2="1920" y2="561.6" stroke="#FAFCFF" stroke-opacity="0.5" stroke-width="6"/><line x1="-15" y1="831" x2="-15" y2="859" stroke="#3B82F6" stroke-opacity="0.8" stroke-width="3"/><line x1="65" y1="819" x2="65" y2="847" stroke="#3B82F6" stroke-opacity="0.8" stroke-width="3"/><line x1="145" y1="807" x2="145" y2="835" stroke="#3B82F6" stroke-opacity="0.8" stroke-width="3"/><line x1="225" y1="796" x2="225" y2="824" stroke="#3B82F6" stroke-opacity="0.8" stroke-width="3"/><line x1="305" y1="784" x2="305" y2="812" stroke="#3B82F6" stroke-opacity="0.8" stroke-width="3"/><line x1="385" y1="772" x2="385" y2="800" stroke="#3B82F6" stroke-opacity="0.8" stroke-width="3"/><line x1="465" y1="760" x2="465" y2="788" stroke="#3B82F6" stroke-opacity="0.8" stroke-width="3"/><line x1="545" y1="749" x2="545" y2="777" stroke="#3B82F6" stroke-opacity="0.8" stroke-width="3"/><line x1="625" y1="737" x2="625" y2="765" stroke="#3B82F6" stroke-opacity="0.8" stroke-width="3"/><line x1="705" y1="725" x2="705" y2="753" stroke="#3B82F6" stroke-opacity="0.8" stroke-width="3"/><line x1="785" y1="714" x2="785" y2="742" stroke="#3B82F6" stroke-opacity="0.8" stroke-width="3"/><line x1="865" y1="702" x2="865" y2="730" stroke="#3B82F6" stroke-opacity="0.8" stroke-width="3"/><line x1="945" y1="690" x2="945" y2="718" stroke="#3B82F6" stroke-opacity="0.8" stroke-width="3"/><line x1="1025" y1="679" x2="1025" y2="707" stroke="#3B82F6" stroke-opacity="0.8" stroke-width="3"/><line x1="1105" y1="667" x2="1105" y2="695" stroke="#3B82F6" stroke-opacity="0.8" stroke-width="3"/><line x1="1185" y1="655" x2="1185" y2="683" stroke="#3B82F6" stroke-opacity="0.8" stroke-width="3"/><line x1="1265" y1="643" x2="1265" y2="671" stroke="#3B82F6" stroke-opacity="0.8" stroke-width="3"/><line x1="1345" y1="632" x2="1345" y2="660" stroke="#3B82F6" stroke-opacity="0.8" stroke-width="3"/><line x1="1425" y1="620" x2="1425" y2="648" stroke="#3B82F6" stroke-opacity="0.8" stroke-width="3"/><line x1="1505" y1="608" x2="1505" y2="636" stroke="#3B82F6" stroke-opacity="0.8" stroke-width="3"/><line x1="1585" y1="597" x2="1585" y2="625" stroke="#3B82F6" stroke-opacity="0.8" stroke-width="3"/><line x1="1665" y1="585" x2="1665" y2="613" stroke="#3B82F6" stroke-opacity="0.8" stroke-width="3"/><line x1="1745" y1="573" x2="1745" y2="601" stroke="#3B82F6" stroke-opacity="0.8" stroke-width="3"/><line x1="1825" y1="562" x2="1825" y2="590" stroke="#3B82F6" stroke-opacity="0.8" stroke-width="3"/><line x1="1905" y1="550" x2="1905" y2="578" stroke="#3B82F6" stroke-opacity="0.8" stroke-width="3"/><line x1="1985" y1="538" x2="1985" y2="566" stroke="#3B82F6" stroke-opacity="0.8" stroke-width="3"/><line x1="2065" y1="526" x2="2065" y2="554" stroke="#3B82F6" stroke-opacity="0.8" stroke-width="3"/></g></svg>