<svg xmlns="http://www.w3.org/2000/svg" width="1920" height="1080" viewBox="0 0 1920 1080"><rect width="1920" height="1080" fill="#0A1F44"/><polyline points="-962.6,278.9 -624.0,335.2 -285.3,262.6 53.4,294.4 392.0,316.1 730.7,259.8 1069.3,336.8 1408.0,273.9 1746.7,273.7 2085.3,329.7 2424.0,321.7 2762.6,256.8 3101.3,351.3" fill="none" stroke="#FAFCFF" stroke-opacity="0" stroke-width="1.5"/><polyline points="-962.6,509.8 -624.0,401.6 -285.3,500.6 53.4,453.0 392.0,436.2 730.7,531.9 1069.3,374.4 1408.0,389.7 1746.7,415.3 2085.3,415.2 2424.0,509.8 2762.6,536.8 3101.3,488.9" fill="none" stroke="#FAFCFF" stroke-opacity="0" stroke-width="2.5"/><polyline points="-962.6,700.2 -624.0,827.7 -285.3,703.2 53.4,723.4 392.0,788.2 730.7,840.0 1069.3,654.2 1408.0,827.0 1746.7,681.2 2085.3,785.8 2424.0,673.6 2762.6,813.1 3101.3,666.0" fill="none" stroke="#FAFCFF" stroke-opacity="0" stroke-width="3.5"/><polyline points="-962.6,1097.8 -624.0,1118.8 -285.3,1203.1 53.4,1290.7 392.0,1297.9 730.7,1085.9 1069.3,1254.7 1408.0,1332.8 1746.7,1228.7 2085.3,1327.3 2424.0,1147.9 2762.6,1216.6 3101.3,1307.4" fill="none" stroke="#FAFCFF" stroke-opacity="0" stroke-width="4.5"/><polyline points="-962.6,1831.2 -624.0,1692.9 -285.3,1884.9 53.4,1833.0 392.0,1959.4 730.7,1849.1 1069.3,1768.9 1408.0,1847.7 1746.7,1704.5 2085.3,1732.6 2424.0,1847.8 2762.6,1753.4 3101.3,1671.4" fill="none" stroke="#FAFCFF" stroke-opacity="0" stroke-width="5.5"/><g opacity="0.50"><line x1="0" y1="842.4" x2="1920" y2="561.6" stroke="#FAFCFF" stroke-opacity="0.5" stroke-width="6"/><line x1="-68" y1="838" x2="-68" y2="866" stroke="#3B82F6" stroke-opacity="0.8" stroke-width="3"/><line x1="12" y1="827" x2="12" y2="855" stroke="#3B82F6" stroke-opacity="0.8" stroke-width="3"/><line x1="92" y1="815" x2="92" y2="843" stroke="#3B82F6" stroke-opacity="0.8" stroke-width="3"/><line x1="172" y1="803" x2="172" y2="831" stroke="#3B82F6" stroke-opacity="0.8" stroke-width="3"/><line x1="252" y1="792" x2="252" y2="820" stroke="#3B82F6" stroke-opacity="0.8" stroke-width="3"/><line x1="332" y1="780" x2="332" y2="808" stroke="#3B82F6" stroke-opacity="0.8" stroke-width="3"/><line x1="412" y1="768" x2="412" y2="796" stroke="#3B82F6" stroke-opacity="0.8" stroke-width="3"/><line x1="492" y1="756" x2="492" y2="784" stroke="#3B82F6" stroke-opacity="0.8" stroke-width="3"/><line x1="572" y1="745" x2="572" y2="773" stroke="#3B82F6" stroke-opacity="0.8" stroke-width="3"/><line x1="652" y1="733" x2="652" y2="761" stroke="#3B82F6" stroke-opacity="0.8" stroke-width="3"/><line x1="732" y1="721" x2="732" y2="749" stroke="#3B82F6" stroke-opacity="0.8" stroke-width="3"/><line x1="812" y1="710" x2="812" y2="738" stroke="#3B82F6" stroke-opacity="0.8" stroke-width="3"/><line x1="892" y1="698" x2="892" y2="726" stroke="#3B82F6" stroke-opacity="0.8" stroke-width="3"/><line x1="972" y1="686" x2="972" y2="714" stroke="#3B82F6" stroke-opacity="0.8" stroke-width="3"/><line x1="1052" y1="675" x2="1052" y2="703" stroke="#3B82F6" stroke-opacity="0.8" stroke-width="3"/><line x1="1132" y1="663" x2="1132" y2="691" stroke="#3B82F6" stroke-opacity="0.8" stroke-width="3"/><line x1="1212" y1="651" x2="1212" y2="679" stroke="#3B82F6" stroke-opacity="0.8" stroke-width="3"/><line x1="1292" y1="639" x2="1292" y2="667" stroke="#3B82F6" stroke-opacity="0.8" stroke-width="3"/><line x1="1372" y1="628" x2="1372" y2="656" stroke="#3B82F6" stroke-opacity="0.8" stroke-width="3"/><line x1="1452" y1="616" x2="1452" y2="644" stroke="#3B82F6" stroke-opacity="0.8" stroke-width="3"/><line x1="1532" y1="604" x2="1532" y2="632" stroke="#3B82F6" stroke-opacity="0.8" stroke-width="3"/><line x1="1612" y1="593" x2="1612" y2="621" stroke="#3B82F6" stroke-opacity="0.8" stroke-width="3"/><line x1="1692" y1="581" x2="1692" y2="609" stroke="#3B82F6" stroke-opacity="0.8" stroke-width="3"/><line x1="1772" y1="569" x2="1772" y2="597" stroke="#3B82F6" stroke-opacity="0.8" stroke-width="3"/><line x1="1852" y1="558" x2="1852" y2="586" stroke="#3B82F6" stroke-opacity="0.8" stroke-width="3"/><line x1="1932" y1="546" x2="1932" y2="574" stroke="#3B82F6" stroke-opacity="0.8" stroke-width="3"/><line x1="2012" y1="534" x2="2012" y2="562" stroke="#3B82F6" stroke-opacity="0.8" stroke-width="3"/></g><g opacity="0.86"><rect x="422.4" y="216" width="1075.2" height="540" fill="none" stroke="#FAFCFF" stroke-opacity="0.6" stroke-width="2"/><rect x="442.4" y="236" width="318.40000000000003" height="189" fill="#3B82F6" fill-opacity="0.14"/><rect x="800.8" y="236" width="318.40000000000003" height="189" fill="#3B82F6" fill-opacity="0.2"/><rect x="1159.2" y="236" width="318.40000000000003" height="189" fill="#3B82F6" fill-opacity="0.26"/></g><g opacity="0.10"><rect x="460.79999999999995" y="324" width="394.1790190523235" height="10" fill="#3B82F6" fill-opacity="0.9"/></g></svg>