<svg xmlns="http://www.w3.org/2000/svg" width="1920" height="1080" viewBox="0 0 1920 1080"><rect width="1920" height="1080" fill="#0A1F44"/><polyline points="-1505.8,164.7 -1091.7,233.6 -677.6,144.8 -263.5,183.8 150.6,210.3 564.8,141.4 978.9,235.6 1393.0,158.6 1807.1,158.5 2221.3,226.9 2635.4,217.2 3049.5,137.7 3463.6,253.2" fill="none" stroke="#FAFCFF" stroke-opacity="0" stroke-width="1.5"/><polyline points="-1505.8,447.2 -1091.7,314.8 -677.6,435.8 -263.5,377.7 150.6,357.1 564.8,474.1 978.9,281.6 1393.0,300.3 1807.1,331.6 2221.3,331.5 2635.4,447.2 3049.5,480.1 3463.6,421.6" fill="none" stroke="#FAFCFF" stroke-opacity="0" stroke-width="2.5"/><polyline points="-1505.8,679.9 -1091.7,835.8 -677.6,683.6 -263.5,708.3 150.6,787.5 564.8,850.9 978.9,623.6 1393.0,835.0 1807.1,656.7 2221.3,784.7 2635.4,647.4 3049.5,818.1 3463.6,638.1" fill="none" stroke="#FAFCFF" stroke-opacity="0" stroke-width="3.5"/><polyline points="-1505.8,1166.2 -1091.7,1191.8 -677.6,1294.9 -263.5,1402.1 150.6,1410.9 564.8,1151.5 978.9,1358.1 1393.0,1453.5 1807.1,1326.3 2221.3,1446.8 2635.4,1227.4 3049.5,1311.5 3463.6,1422.4" fill="none" stroke="#FAFCFF" stroke-opacity="0" stroke-width="4.5"/><polyline points="-1505.8,2062.9 -1091.7,1893.9 -677.6,2128.6 -263.5,2065.1 150.6,2219.7 564.8,2084.8 978.9,1986.8 1393.0,2083.2 1807.1,1908.0 2221.3,1942.4 2635.4,2083.3 3049.5,1967.8 3463.6,1867.6" fill="none" stroke="#FAFCFF" stroke-opacity="0" stroke-width="5.5"/><g opacity="0.38"><rect x="422.4" y="216" width="1075.2" height="540" fill="none" stroke="#FAFCFF" stroke-opacity="0.6" stroke-width="2"/><rect x="442.4" y="236" width="318.40000000000003" height="189" fill="#3B82F6" fill-opacity="0.14"/><rect x="800.8" y="236" width="318.40000000000003" height="189" fill="#3B82F6" fill-opacity="0.2"/><rect x="1159.2" y="236" width="318.40000000000003" height="189" fill="#3B82F6" fill-opacity="0.26"/></g><g opacity="0.63"><rect x="460.79999999999995" y="324" width="517.9707771018149" height="10" fill="#3B82F6" fill-opacity="0.9"/><rect x="460.79999999999995" y="358" width="559.0618132464589" height="10" fill="#FAFCFF" fill-opacity="0.4"/><rect x="460.79999999999995" y="392" width="352.0004768371582" height="10" fill="#FAFCFF" fill-opacity="0.4"/><rect x="460.79999999999995" y="426" width="493.0137858130038" height="10" fill="#3B82F6" fill-opacity="0.9"/><rect x="460.79999999999995" y="460" width="575.1368051692843" height="10" fill="#FAFCFF" fill-opacity="0.4"/><rect x="460.79999999999995" y="494" width="457.9308180771768" height="10" fill="#FAFCFF" fill-opacity="0.4"/><rect x="460.79999999999995" y="528" width="514.2663277834654" height="10" fill="#3B82F6" fill-opacity="0.9"/><rect x="460.79999999999995" y="562" width="778.5601877756417" height="10" fill="#FAFCFF" fill-opacity="0.4"/><rect x="460.79999999999995" y="596" width="771.863665021956" height="10" fill="#FAFCFF" fill-opacity="0.4"/></g><rect width="1920" height="1080" fill="#0A1F44" fill-opacity="0.45"/><circle cx="960" cy="540" r="7" fill="#3B82F6" fill-opacity="0.64"/><rect x="800" y="580" width="320" height="2" fill="#FAFCFF" fill-opacity="0.26"/></svg>