<svg xmlns="http://www.w3.org/2000/svg" width="1920" height="1080" viewBox="0 0 1920 1080"><rect width="1920" height="1080" fill="#0A1F44"/><polyline points="-1414.3,180.4 -1010.5,247.5 -606.8,160.9 -203.0,198.9 200.8,224.8 604.6,157.6 1008.4,249.4 1412.2,174.4 1815.9,174.3 2219.7,241.0 2623.5,231.5 3027.3,154.1 3431.1,266.7" fill="none" stroke="#FAFCFF" stroke-opacity="0" stroke-width="1.5"/><polyline points="-1414.3,455.8 -1010.5,326.7 -606.8,444.7 -203.0,388.0 200.8,367.9 604.6,482.0 1008.4,294.3 1412.2,312.5 1815.9,343.0 2219.7,343.0 2623.5,455.7 3027.3,487.9 3431.1,430.8" fill="none" stroke="#FAFCFF" stroke-opacity="0" stroke-width="2.5"/><polyline points="-1414.3,682.7 -1010.5,834.7 -606.8,686.3 -203.0,710.3 200.8,787.6 604.6,849.4 1008.4,627.8 1412.2,833.9 1815.9,660.1 2219.7,784.8 2623.5,651.0 3027.3,817.4 3431.1,642.0" fill="none" stroke="#FAFCFF" stroke-opacity="0" stroke-width="3.5"/><polyline points="-1414.3,1156.8 -1010.5,1181.8 -606.8,1282.3 -203.0,1386.8 200.8,1395.4 604.6,1142.5 1008.4,1343.9 1412.2,1437.0 1815.9,1312.9 2219.7,1430.4 2623.5,1216.5 3027.3,1298.5 3431.1,1406.6" fill="none" stroke="#FAFCFF" stroke-opacity="0" stroke-width="4.5"/><polyline points="-1414.3,2031.2 -1010.5,1866.4 -606.8,2095.2 -203.0,2033.3 200.8,2184.1 604.6,2052.5 1008.4,1957.0 1412.2,2050.9 1815.9,1880.1 2219.7,1913.7 2623.5,2051.0 3027.3,1938.4 3431.1,1840.7" fill="none" stroke="#FAFCFF" stroke-opacity="0" stroke-width="5.5"/><g opacity="1.00"><rect x="422.4" y="216" width="1075.2" height="540" fill="none" stroke="#FAFCFF" stroke-opacity="0.6" stroke-width="2"/><rect x="442.4" y="236" width="318.40000000000003" height="189" fill="#3B82F6" fill-opacity="0.14"/><rect x="800.8" y="236" width="318.40000000000003" height="189" fill="#3B82F6" fill-opacity="0.2"/><rect x="1159.2" y="236" width="318.40000000000003" height="189" fill="#3B82F6" fill-opacity="0.26"/></g><g opacity="1.00"><rect x="460.79999999999995" y="324" width="517.9707771018149" height="10" fill="#3B82F6" fill-opacity="0.9"/><rect x="460.79999999999995" y="358" width="559.0618132464589" height="10" fill="#FAFCFF" fill-opacity="0.4"/><rect x="460.79999999999995" y="392" width="352.0004768371582" height="10" fill="#FAFCFF" fill-opacity="0.4"/><rect x="460.79999999999995" y="426" width="493.0137858130038" height="10" fill="#3B82F6" fill-opacity="0.9"/><rect x="460.79999999999995" y="460" width="575.1368051692843" height="10" fill="#FAFCFF" fill-opacity="0.4"/><rect x="460.79999999999995" y="494" width="457.9308180771768" height="10" fill="#FAFCFF" fill-opacity="0.4"/><rect x="460.79999999999995" y="528" width="514.2663277834654" height="10" fill="#3B82F6" fill-opacity="0.9"/><rect x="460.79999999999995" y="562" width="778.5601877756417" height="10" fill="#FAFCFF" fill-opacity="0.4"/><rect x="460.79999999999995" y="596" width="771.863665021956" height="10" fill="#FAFCFF" fill-opacity="0.4"/></g><rect width="1920" height="1080" fill="#0A1F44" fill-opacity="0.04"/><circle cx="960" cy="540" r="7" fill="#3B82F6" fill-opacity="0.06"/><rect x="800" y="580" width="320" height="2" fill="#FAFCFF" fill-opacity="0.02"/></svg>