<svg xmlns="http://www.w3.org/2000/svg" width="1920" height="1080" viewBox="0 0 1920 1080"><rect width="1920" height="1080" fill="#0A1F44"/><polyline points="-904.6,292.6 -575.0,347.4 -245.4,276.7 84.2,307.8 413.7,328.9 743.3,274.1 1072.9,349.0 1402.5,287.7 1732.1,287.6 2061.6,342.1 2391.2,334.3 2720.8,271.1 3050.4,363.0" fill="none" stroke="#FAFCFF" stroke-opacity="0" stroke-width="1.5"/><polyline points="-904.6,517.4 -575.0,412.0 -245.4,508.3 84.2,462.1 413.7,445.7 743.3,538.8 1072.9,385.6 1402.5,400.5 1732.1,425.4 2061.6,425.3 2391.2,517.4 2720.8,543.6 3050.4,497.0" fill="none" stroke="#FAFCFF" stroke-opacity="0" stroke-width="2.5"/><polyline points="-904.6,702.6 -575.0,826.7 -245.4,705.5 84.2,725.2 413.7,788.2 743.3,838.7 1072.9,657.8 1402.5,826.0 1732.1,684.2 2061.6,786.0 2391.2,676.7 2720.8,812.6 3050.4,669.4" fill="none" stroke="#FAFCFF" stroke-opacity="0" stroke-width="3.5"/><polyline points="-904.6,1089.6 -575.0,1110.0 -245.4,1192.1 84.2,1277.3 413.7,1284.4 743.3,1078.0 1072.9,1242.3 1402.5,1318.3 1732.1,1217.0 2061.6,1313.0 2391.2,1138.3 2720.8,1205.2 3050.4,1293.5" fill="none" stroke="#FAFCFF" stroke-opacity="0" stroke-width="4.5"/><polyline points="-904.6,1803.3 -575.0,1668.8 -245.4,1855.5 84.2,1805.1 413.7,1928.1 743.3,1820.7 1072.9,1742.7 1402.5,1819.4 1732.1,1680.0 2061.6,1707.4 2391.2,1819.5 2720.8,1727.6 3050.4,1647.8" fill="none" stroke="#FAFCFF" stroke-opacity="0" stroke-width="5.5"/><g opacity="0.65"><line x1="0" y1="842.4" x2="1920" y2="561.6" stroke="#FAFCFF" stroke-opacity="0.5" stroke-width="6"/><line x1="-11" y1="830" x2="-11" y2="858" stroke="#3B82F6" stroke-opacity="0.8" stroke-width="3"/><line x1="69" y1="818" x2="69" y2="846" stroke="#3B82F6" stroke-opacity="0.8" stroke-width="3"/><line x1="149" y1="807" x2="149" y2="835" stroke="#3B82F6" stroke-opacity="0.8" stroke-width="3"/><line x1="229" y1="795" x2="229" y2="823" stroke="#3B82F6" stroke-opacity="0.8" stroke-width="3"/><line x1="309" y1="783" x2="309" y2="811" stroke="#3B82F6" stroke-opacity="0.8" stroke-width="3"/><line x1="389" y1="772" x2="389" y2="800" stroke="#3B82F6" stroke-opacity="0.8" stroke-width="3"/><line x1="469" y1="760" x2="469" y2="788" stroke="#3B82F6" stroke-opacity="0.8" stroke-width="3"/><line x1="549" y1="748" x2="549" y2="776" stroke="#3B82F6" stroke-opacity="0.8" stroke-width="3"/><line x1="629" y1="736" x2="629" y2="764" stroke="#3B82F6" stroke-opacity="0.8" stroke-width="3"/><line x1="709" y1="725" x2="709" y2="753" stroke="#3B82F6" stroke-opacity="0.8" stroke-width="3"/><line x1="789" y1="713" x2="789" y2="741" stroke="#3B82F6" stroke-opacity="0.8" stroke-width="3"/><line x1="869" y1="701" x2="869" y2="729" stroke="#3B82F6" stroke-opacity="0.8" stroke-width="3"/><line x1="949" y1="690" x2="949" y2="718" stroke="#3B82F6" stroke-opacity="0.8" stroke-width="3"/><line x1="1029" y1="678" x2="1029" y2="706" stroke="#3B82F6" stroke-opacity="0.8" stroke-width="3"/><line x1="1109" y1="666" x2="1109" y2="694" stroke="#3B82F6" stroke-opacity="0.8" stroke-width="3"/><line x1="1189" y1="655" x2="1189" y2="683" stroke="#3B82F6" stroke-opacity="0.8" stroke-width="3"/><line x1="1269" y1="643" x2="1269" y2="671" stroke="#3B82F6" stroke-opacity="0.8" stroke-width="3"/><line x1="1349" y1="631" x2="1349" y2="659" stroke="#3B82F6" stroke-opacity="0.8" stroke-width="3"/><line x1="1429" y1="619" x2="1429" y2="647" stroke="#3B82F6" stroke-opacity="0.8" stroke-width="3"/><line x1="1509" y1="608" x2="1509" y2="636" stroke="#3B82F6" stroke-opacity="0.8" stroke-width="3"/><line x1="1589" y1="596" x2="1589" y2="624" stroke="#3B82F6" stroke-opacity="0.8" stroke-width="3"/><line x1="1669" y1="584" x2="1669" y2="612" stroke="#3B82F6" stroke-opacity="0.8" stroke-width="3"/><line x1="1749" y1="573" x2="1749" y2="601" stroke="#3B82F6" stroke-opacity="0.8" stroke-width="3"/><line x1="1829" y1="561" x2="1829" y2="589" stroke="#3B82F6" stroke-opacity="0.8" stroke-width="3"/><line x1="1909" y1="549" x2="1909" y2="577" stroke="#3B82F6" stroke-opacity="0.8" stroke-width="3"/><line x1="1989" y1="538" x2="1989" y2="566" stroke="#3B82F6" stroke-opacity="0.8" stroke-width="3"/><line x1="2069" y1="526" x2="2069" y2="554" stroke="#3B82F6" stroke-opacity="0.8" stroke-width="3"/></g><g opacity="0.72"><rect x="422.4" y="216" width="1075.2" height="540" fill="none" stroke="#FAFCFF" stroke-opacity="0.6" stroke-width="2"/><rect x="442.4" y="236" width="318.40000000000003" height="189" fill="#3B82F6" fill-opacity="0.14"/><rect x="800.8" y="236" width="318.40000000000003" height="189" fill="#3B82F6" fill-opacity="0.2"/><rect x="1159.2" y="236" width="318.40000000000003" height="189" fill="#3B82F6" fill-opacity="0.26"/></g></svg>