<svg xmlns="http://www.w3.org/2000/svg" width="1920" height="1080" viewBox="0 0 1920 1080"><rect width="1920" height="1080" fill="#0A1F44"/><polyline points="-1377.1,187.6 -978.1,254.0 -579.1,168.4 -180.1,205.9 218.9,231.5 617.9,165.1 1016.9,255.8 1415.9,181.7 1814.9,181.6 2213.9,247.5 2612.9,238.1 3011.9,161.6 3410.9,272.9" fill="none" stroke="#FAFCFF" stroke-opacity="0" stroke-width="1.5"/><polyline points="-1377.1,459.7 -978.1,332.1 -579.1,448.8 -180.1,392.8 218.9,372.9 617.9,485.7 1016.9,300.2 1415.9,318.2 1814.9,348.3 2213.9,348.3 2612.9,459.7 3011.9,491.5 3410.9,435.1" fill="none" stroke="#FAFCFF" stroke-opacity="0" stroke-width="2.5"/><polyline points="-1377.1,684.0 -978.1,834.2 -579.1,687.5 -180.1,711.3 218.9,787.6 617.9,848.7 1016.9,629.7 1415.9,833.4 1814.9,661.6 2213.9,784.9 2612.9,652.7 3011.9,817.1 3410.9,643.7" fill="none" stroke="#FAFCFF" stroke-opacity="0" stroke-width="3.5"/><polyline points="-1377.1,1152.5 -978.1,1177.1 -579.1,1276.5 -180.1,1379.8 218.9,1388.3 617.9,1138.4 1016.9,1337.4 1415.9,1429.3 1814.9,1306.7 2213.9,1422.9 2612.9,1211.5 3011.9,1292.5 3410.9,1399.3" fill="none" stroke="#FAFCFF" stroke-opacity="0" stroke-width="4.5"/><polyline points="-1377.1,2016.5 -978.1,1853.6 -579.1,2079.8 -180.1,2018.6 218.9,2167.6 617.9,2037.6 1016.9,1943.2 1415.9,2036.0 1814.9,1867.2 2213.9,1900.4 2612.9,2036.1 3011.9,1924.8 3410.9,1828.3" fill="none" stroke="#FAFCFF" stroke-opacity="0" stroke-width="5.5"/><g opacity="1.00"><rect x="422.4" y="216" width="1075.2" height="540" fill="none" stroke="#FAFCFF" stroke-opacity="0.6" stroke-width="2"/><rect x="442.4" y="236" width="318.40000000000003" height="189" fill="#3B82F6" fill-opacity="0.14"/><rect x="800.8" y="236" width="318.40000000000003" height="189" fill="#3B82F6" fill-opacity="0.2"/><rect x="1159.2" y="236" width="318.40000000000003" height="189" fill="#3B82F6" fill-opacity="0.26"/></g><g opacity="1.00"><rect x="460.79999999999995" y="324" width="517.9707771018149" height="10" fill="#3B82F6" fill-opacity="0.9"/><rect x="460.79999999999995" y="358" width="559.0618132464589" height="10" fill="#FAFCFF" fill-opacity="0.4"/><rect x="460.79999999999995" y="392" width="352.0004768371582" height="10" fill="#FAFCFF" fill-opacity="0.4"/><rect x="460.79999999999995" y="426" width="493.0137858130038" height="10" fill="#3B82F6" fill-opacity="0.9"/><rect x="460.79999999999995" y="460" width="575.1368051692843" height="10" fill="#FAFCFF" fill-opacity="0.4"/><rect x="460.79999999999995" y="494" width="457.9308180771768" height="10" fill="#FAFCFF" fill-opacity="0.4"/><rect x="460.79999999999995" y="528" width="514.2663277834654" height="10" fill="#3B82F6" fill-opacity="0.9"/><rect x="460.79999999999995" y="562" width="778.5601877756417" height="10" fill="#FAFCFF" fill-opacity="0.4"/></g></svg>