<svg xmlns="http://www.w3.org/2000/svg" width="1920" height="1080" viewBox="0 0 1920 1080"><rect width="1920" height="1080" fill="#0A1F44"/><polyline points="-237.9,464.5 -22.0,500.5 193.9,454.1 409.8,474.5 625.7,488.3 841.6,452.4 1057.5,501.5 1273.4,461.3 1489.3,461.3 1705.2,497.0 1921.1,491.9 2137.0,450.5 2352.9,510.7" fill="none" stroke="#FAFCFF" stroke-opacity="0.09924528301886792" stroke-width="1.5"/><polyline points="-237.9,611.8 -22.0,542.8 193.9,605.9 409.8,575.6 625.7,564.8 841.6,625.8 1057.5,525.5 1273.4,535.2 1489.3,551.5 1705.2,551.5 1921.1,611.8 2137.0,629.0 2352.9,598.5" fill="none" stroke="#FAFCFF" stroke-opacity="0.1290188679245283" stroke-width="2.5"/><polyline points="-237.9,733.1 -22.0,814.4 193.9,735.1 409.8,747.9 625.7,789.2 841.6,822.3 1057.5,703.8 1273.4,814.0 1489.3,721.0 1705.2,787.7 1921.1,716.2 2137.0,805.2 2352.9,711.4" fill="none" stroke="#FAFCFF" stroke-opacity="0.1587924528301887" stroke-width="3.5"/><polyline points="-237.9,986.6 -22.0,1000.0 193.9,1053.8 409.8,1109.6 625.7,1114.2 841.6,979.0 1057.5,1086.7 1273.4,1136.5 1489.3,1070.1 1705.2,1133.0 1921.1,1018.6 2137.0,1062.4 2352.9,1120.2" fill="none" stroke="#FAFCFF" stroke-opacity="0.18856603773584907" stroke-width="4.5"/><polyline points="-237.9,1454.2 -22.0,1366.1 193.9,1488.4 409.8,1455.3 625.7,1535.9 841.6,1465.6 1057.5,1414.5 1273.4,1464.7 1489.3,1373.4 1705.2,1391.3 1921.1,1464.8 2137.0,1404.6 2352.9,1352.3" fill="none" stroke="#FAFCFF" stroke-opacity="0.21833962264150944" stroke-width="5.5"/><circle cx="1239.6" cy="1012.6" r="2.7467555895630094" fill="#3B82F6" fill-opacity="0.70"/><circle cx="53.6" cy="655.6" r="2.742063784867802" fill="#3B82F6" fill-opacity="0.72"/><circle cx="1236.7" cy="769.7" r="7.668792096879025" fill="#FF6A1A" fill-opacity="0.72"/><circle cx="1430.6" cy="836.9" r="3.1352964981586826" fill="#3B82F6" fill-opacity="0.56"/><circle cx="1845.8" cy="933.7" r="4.706885061183007" fill="#FF6A1A" fill-opacity="0.61"/><circle cx="358.1" cy="624.0" r="7.475880056650227" fill="#3B82F6" fill-opacity="0.58"/><circle cx="1166.6" cy="881.4" r="3.2972414138943043" fill="#3B82F6" fill-opacity="0.36"/><circle cx="115.3" cy="1016.0" r="6.062671218707066" fill="#3B82F6" fill-opacity="0.74"/><circle cx="286.3" cy="454.7" r="5.144960114921493" fill="#3B82F6" fill-opacity="0.37"/><circle cx="1719.0" cy="956.8" r="5.99001042171504" fill="#3B82F6" fill-opacity="0.64"/><circle cx="430.8" cy="1079.1" r="5.120125120766919" fill="#FF6A1A" fill-opacity="0.65"/><circle cx="1479.4" cy="1097.8" r="7.248395209222399" fill="#FF6A1A" fill-opacity="0.71"/><circle cx="2220.9" cy="692.7" r="4.63594628481687" fill="#FF6A1A" fill-opacity="0.73"/><circle cx="1024.8" cy="714.2" r="7.500128637426359" fill="#3B82F6" fill-opacity="0.60"/><circle cx="1851.6" cy="848.5" r="5.123094095497906" fill="#3B82F6" fill-opacity="0.47"/><circle cx="1294.4" cy="893.6" r="3.1440885666855634" fill="#3B82F6" fill-opacity="0.72"/><circle cx="2331.1" cy="1069.7" r="3.1907976485123273" fill="#FF6A1A" fill-opacity="0.69"/><circle cx="1228.6" cy="878.5" r="2.862544885218169" fill="#3B82F6" fill-opacity="0.74"/><g opacity="1.00"><line x1="0" y1="842.4" x2="1920" y2="561.6" stroke="#FAFCFF" stroke-opacity="0.5" stroke-width="6"/><line x1="-48" y1="835" x2="-48" y2="863" stroke="#3B82F6" stroke-opacity="0.8" stroke-width="3"/><line x1="32" y1="824" x2="32" y2="852" stroke="#3B82F6" stroke-opacity="0.8" stroke-width="3"/><line x1="112" y1="812" x2="112" y2="840" stroke="#3B82F6" stroke-opacity="0.8" stroke-width="3"/><line x1="192" y1="800" x2="192" y2="828" stroke="#3B82F6" stroke-opacity="0.8" stroke-width="3"/><line x1="272" y1="789" x2="272" y2="817" stroke="#3B82F6" stroke-opacity="0.8" stroke-width="3"/><line x1="352" y1="777" x2="352" y2="805" stroke="#3B82F6" stroke-opacity="0.8" stroke-width="3"/><line x1="432" y1="765" x2="432" y2="793" stroke="#3B82F6" stroke-opacity="0.8" stroke-width="3"/><line x1="512" y1="754" x2="512" y2="782" stroke="#3B82F6" stroke-opacity="0.8" stroke-width="3"/><line x1="592" y1="742" x2="592" y2="770" stroke="#3B82F6" stroke-opacity="0.8" stroke-width="3"/><line x1="672" y1="730" x2="672" y2="758" stroke="#3B82F6" stroke-opacity="0.8" stroke-width="3"/><line x1="752" y1="718" x2="752" y2="746" stroke="#3B82F6" stroke-opacity="0.8" stroke-width="3"/><line x1="832" y1="707" x2="832" y2="735" stroke="#3B82F6" stroke-opacity="0.8" stroke-width="3"/><line x1="912" y1="695" x2="912" y2="723" stroke="#3B82F6" stroke-opacity="0.8" stroke-width="3"/><line x1="992" y1="683" x2="992" y2="711" stroke="#3B82F6" stroke-opacity="0.8" stroke-width="3"/><line x1="1072" y1="672" x2="1072" y2="700" stroke="#3B82F6" stroke-opacity="0.8" stroke-width="3"/><line x1="1152" y1="660" x2="1152" y2="688" stroke="#3B82F6" stroke-opacity="0.8" stroke-width="3"/><line x1="1232" y1="648" x2="1232" y2="676" stroke="#3B82F6" stroke-opacity="0.8" stroke-width="3"/><line x1="1312" y1="637" x2="1312" y2="665" stroke="#3B82F6" stroke-opacity="0.8" stroke-width="3"/><line x1="1392" y1="625" x2="1392" y2="653" stroke="#3B82F6" stroke-opacity="0.8" stroke-width="3"/><line x1="1472" y1="613" x2="1472" y2="641" stroke="#3B82F6" stroke-opacity="0.8" stroke-width="3"/><line x1="1552" y1="601" x2="1552" y2="629" stroke="#3B82F6" stroke-opacity="0.8" stroke-width="3"/><line x1="1632" y1="590" x2="1632" y2="618" stroke="#3B82F6" stroke-opacity="0.8" stroke-width="3"/><line x1="1712" y1="578" x2="1712" y2="606" stroke="#3B82F6" stroke-opacity="0.8" stroke-width="3"/><line x1="1792" y1="566" x2="1792" y2="594" stroke="#3B82F6" stroke-opacity="0.8" stroke-width="3"/><line x1="1872" y1="555" x2="1872" y2="583" stroke="#3B82F6" stroke-opacity="0.8" stroke-width="3"/><line x1="1952" y1="543" x2="1952" y2="571" stroke="#3B82F6" stroke-opacity="0.8" stroke-width="3"/><line x1="2032" y1="531" x2="2032" y2="559" stroke="#3B82F6" stroke-opacity="0.8" stroke-width="3"/></g></svg>