<svg xmlns="http://www.w3.org/2000/svg" width="1920" height="1080" viewBox="0 0 1920 1080"><rect width="1920" height="1080" fill="#0A1F44"/><polyline points="-206.3,473.6 3.6,508.5 213.5,463.5 423.5,483.3 633.4,496.7 843.3,461.8 1053.2,509.5 1263.1,470.5 1473.0,470.4 1682.9,505.1 1892.8,500.2 2102.7,459.9 2312.6,518.5" fill="none" stroke="#FAFCFF" stroke-opacity="0.1" stroke-width="1.5"/><polyline points="-206.3,616.8 3.6,549.7 213.5,611.0 423.5,581.5 633.4,571.1 843.3,630.4 1053.2,532.8 1263.1,542.3 1473.0,558.2 1682.9,558.1 1892.8,616.8 2102.7,633.5 2312.6,603.8" fill="none" stroke="#FAFCFF" stroke-opacity="0.13" stroke-width="2.5"/><polyline points="-206.3,734.7 3.6,813.8 213.5,736.6 423.5,749.1 633.4,789.3 843.3,821.4 1053.2,706.2 1263.1,813.3 1473.0,723.0 1682.9,787.8 1892.8,718.3 2102.7,804.8 2312.6,713.6" fill="none" stroke="#FAFCFF" stroke-opacity="0.16" stroke-width="3.5"/><polyline points="-206.3,981.2 3.6,994.2 213.5,1046.5 423.5,1100.8 633.4,1105.3 843.3,973.8 1053.2,1078.5 1263.1,1126.9 1473.0,1062.4 1682.9,1123.5 1892.8,1012.2 2102.7,1054.9 2312.6,1111.1" fill="none" stroke="#FAFCFF" stroke-opacity="0.19" stroke-width="4.5"/><polyline points="-206.3,1435.8 3.6,1350.1 213.5,1469.0 423.5,1436.9 633.4,1515.2 843.3,1446.9 1053.2,1397.2 1263.1,1446.0 1473.0,1357.2 1682.9,1374.7 1892.8,1446.1 2102.7,1387.5 2312.6,1336.8" fill="none" stroke="#FAFCFF" stroke-opacity="0.22" stroke-width="5.5"/><circle cx="1230.2" cy="1006.5" r="2.6704739138255396" fill="#3B82F6" fill-opacity="0.67"/><circle cx="77.2" cy="659.4" r="2.6659124078455663" fill="#3B82F6" fill-opacity="0.74"/><circle cx="1227.4" cy="770.3" r="7.455817810322547" fill="#FF6A1A" fill-opacity="0.74"/><circle cx="1415.9" cy="835.6" r="3.0482244369523137" fill="#3B82F6" fill-opacity="0.62"/><circle cx="1819.6" cy="929.7" r="4.576167540725416" fill="#FF6A1A" fill-opacity="0.66"/><circle cx="373.2" cy="628.7" r="7.268263237556272" fill="#3B82F6" fill-opacity="0.53"/><circle cx="1159.3" cy="878.9" r="3.2056718904468764" fill="#3B82F6" fill-opacity="0.41"/><circle cx="137.1" cy="1009.7" r="5.894301407513969" fill="#3B82F6" fill-opacity="0.75"/><circle cx="303.4" cy="464.0" r="5.002076568726144" fill="#3B82F6" fill-opacity="0.44"/><circle cx="1696.3" cy="952.2" r="5.823658513889842" fill="#3B82F6" fill-opacity="0.59"/><circle cx="443.9" cy="1071.1" r="4.977931280994027" fill="#FF6A1A" fill-opacity="0.70"/><circle cx="1463.4" cy="1089.3" r="7.047095998230385" fill="#FF6A1A" fill-opacity="0.74"/><circle cx="2184.3" cy="695.4" r="4.507198844535519" fill="#FF6A1A" fill-opacity="0.75"/><circle cx="1021.4" cy="716.4" r="7.291838397521725" fill="#3B82F6" fill-opacity="0.66"/><circle cx="1825.2" cy="846.9" r="4.980817802678021" fill="#3B82F6" fill-opacity="0.53"/><circle cx="1283.6" cy="890.7" r="3.0567723360587418" fill="#3B82F6" fill-opacity="0.70"/><circle cx="2291.4" cy="1061.9" r="3.1021842340197683" fill="#FF6A1A" fill-opacity="0.72"/><circle cx="1219.6" cy="876.1" r="2.783047560611685" fill="#3B82F6" fill-opacity="0.75"/><g opacity="1.00"><line x1="0" y1="842.4" x2="1920" y2="561.6" stroke="#FAFCFF" stroke-opacity="0.5" stroke-width="6"/><line x1="-65" y1="838" x2="-65" y2="866" stroke="#3B82F6" stroke-opacity="0.8" stroke-width="3"/><line x1="15" y1="826" x2="15" y2="854" stroke="#3B82F6" stroke-opacity="0.8" stroke-width="3"/><line x1="95" y1="815" x2="95" y2="843" stroke="#3B82F6" stroke-opacity="0.8" stroke-width="3"/><line x1="175" y1="803" x2="175" y2="831" stroke="#3B82F6" stroke-opacity="0.8" stroke-width="3"/><line x1="255" y1="791" x2="255" y2="819" stroke="#3B82F6" stroke-opacity="0.8" stroke-width="3"/><line x1="335" y1="779" x2="335" y2="807" stroke="#3B82F6" stroke-opacity="0.8" stroke-width="3"/><line x1="415" y1="768" x2="415" y2="796" stroke="#3B82F6" stroke-opacity="0.8" stroke-width="3"/><line x1="495" y1="756" x2="495" y2="784" stroke="#3B82F6" stroke-opacity="0.8" stroke-width="3"/><line x1="575" y1="744" x2="575" y2="772" stroke="#3B82F6" stroke-opacity="0.8" stroke-width="3"/><line x1="655" y1="733" x2="655" y2="761" stroke="#3B82F6" stroke-opacity="0.8" stroke-width="3"/><line x1="735" y1="721" x2="735" y2="749" stroke="#3B82F6" stroke-opacity="0.8" stroke-width="3"/><line x1="815" y1="709" x2="815" y2="737" stroke="#3B82F6" stroke-opacity="0.8" stroke-width="3"/><line x1="895" y1="698" x2="895" y2="726" stroke="#3B82F6" stroke-opacity="0.8" stroke-width="3"/><line x1="975" y1="686" x2="975" y2="714" stroke="#3B82F6" stroke-opacity="0.8" stroke-width="3"/><line x1="1055" y1="674" x2="1055" y2="702" stroke="#3B82F6" stroke-opacity="0.8" stroke-width="3"/><line x1="1135" y1="662" x2="1135" y2="690" stroke="#3B82F6" stroke-opacity="0.8" stroke-width="3"/><line x1="1215" y1="651" x2="1215" y2="679" stroke="#3B82F6" stroke-opacity="0.8" stroke-width="3"/><line x1="1295" y1="639" x2="1295" y2="667" stroke="#3B82F6" stroke-opacity="0.8" stroke-width="3"/><line x1="1375" y1="627" x2="1375" y2="655" stroke="#3B82F6" stroke-opacity="0.8" stroke-width="3"/><line x1="1455" y1="616" x2="1455" y2="644" stroke="#3B82F6" stroke-opacity="0.8" stroke-width="3"/><line x1="1535" y1="604" x2="1535" y2="632" stroke="#3B82F6" stroke-opacity="0.8" stroke-width="3"/><line x1="1615" y1="592" x2="1615" y2="620" stroke="#3B82F6" stroke-opacity="0.8" stroke-width="3"/><line x1="1695" y1="581" x2="1695" y2="609" stroke="#3B82F6" stroke-opacity="0.8" stroke-width="3"/><line x1="1775" y1="569" x2="1775" y2="597" stroke="#3B82F6" stroke-opacity="0.8" stroke-width="3"/><line x1="1855" y1="557" x2="1855" y2="585" stroke="#3B82F6" stroke-opacity="0.8" stroke-width="3"/><line x1="1935" y1="545" x2="1935" y2="573" stroke="#3B82F6" stroke-opacity="0.8" stroke-width="3"/><line x1="2015" y1="534" x2="2015" y2="562" stroke="#3B82F6" stroke-opacity="0.8" stroke-width="3"/></g></svg>