<svg xmlns="http://www.w3.org/2000/svg" width="1920" height="1080" viewBox="0 0 1920 1080"><rect width="1920" height="1080" fill="#0A1F44"/><polyline points="1.4,541.8 166.2,569.2 331.1,533.8 495.9,549.3 660.8,559.9 825.6,532.5 990.5,570.0 1155.3,539.3 1320.2,539.3 1485.0,566.5 1649.9,562.6 1814.8,531.0 1979.6,577.0" fill="none" stroke="#FAFCFF" stroke-opacity="0.1" stroke-width="1.5"/><polyline points="1.4,654.2 166.2,601.5 331.1,649.7 495.9,626.5 660.8,618.3 825.6,664.9 990.5,588.3 1155.3,595.7 1320.2,608.2 1485.0,608.1 1649.9,654.2 1814.8,667.3 1979.6,644.0" fill="none" stroke="#FAFCFF" stroke-opacity="0.13" stroke-width="2.5"/><polyline points="1.4,746.8 166.2,808.9 331.1,748.3 495.9,758.1 660.8,789.7 825.6,814.9 990.5,724.4 1155.3,808.6 1320.2,737.6 1485.0,788.5 1649.9,733.9 1814.8,801.8 1979.6,730.2" fill="none" stroke="#FAFCFF" stroke-opacity="0.16" stroke-width="3.5"/><polyline points="1.4,940.4 166.2,950.6 331.1,991.7 495.9,1034.3 660.8,1037.8 825.6,934.6 990.5,1016.8 1155.3,1054.8 1320.2,1004.1 1485.0,1052.1 1649.9,964.8 1814.8,998.3 1979.6,1042.4" fill="none" stroke="#FAFCFF" stroke-opacity="0.19" stroke-width="4.5"/><polyline points="1.4,1297.4 166.2,1230.1 331.1,1323.5 495.9,1298.3 660.8,1359.8 825.6,1306.1 990.5,1267.1 1155.3,1305.5 1320.2,1235.7 1485.0,1249.4 1649.9,1305.5 1814.8,1259.5 1979.6,1219.6" fill="none" stroke="#FAFCFF" stroke-opacity="0.22" stroke-width="5.5"/><circle cx="1129.5" cy="960.2" r="2.0972768624439246" fill="#3B82F6" fill-opacity="0.66"/><circle cx="224.0" cy="687.7" r="2.0936944492624407" fill="#3B82F6" fill-opacity="0.37"/><circle cx="1127.3" cy="774.7" r="5.855482842663841" fill="#FF6A1A" fill-opacity="0.37"/><circle cx="1275.4" cy="826.1" r="2.3939460895156666" fill="#3B82F6" fill-opacity="0.58"/><circle cx="1592.4" cy="900.0" r="3.59392774898206" fill="#FF6A1A" fill-opacity="0.52"/><circle cx="456.4" cy="663.5" r="5.708185442051988" fill="#3B82F6" fill-opacity="0.74"/><circle cx="1073.8" cy="860.0" r="2.517598636561829" fill="#3B82F6" fill-opacity="0.72"/><circle cx="271.0" cy="962.8" r="4.629134139168868" fill="#3B82F6" fill-opacity="0.48"/><circle cx="401.7" cy="534.2" r="3.928418621672256" fill="#3B82F6" fill-opacity="0.71"/><circle cx="1495.6" cy="917.6" r="4.57365420898609" fill="#3B82F6" fill-opacity="0.72"/><circle cx="512.0" cy="1011.0" r="3.9094559375451237" fill="#FF6A1A" fill-opacity="0.46"/><circle cx="1312.6" cy="1025.3" r="5.53449007982907" fill="#FF6A1A" fill-opacity="0.36"/><circle cx="1878.8" cy="715.9" r="3.539762662402058" fill="#FF6A1A" fill-opacity="0.42"/><circle cx="965.5" cy="732.4" r="5.726700372030514" fill="#3B82F6" fill-opacity="0.53"/><circle cx="1596.8" cy="834.9" r="3.9117228891560125" fill="#3B82F6" fill-opacity="0.65"/><circle cx="1171.4" cy="869.3" r="2.4006592466544063" fill="#3B82F6" fill-opacity="0.62"/><circle cx="1962.9" cy="1003.8" r="2.4363238237844222" fill="#FF6A1A" fill-opacity="0.40"/><circle cx="1121.2" cy="857.8" r="2.185687426390344" fill="#3B82F6" fill-opacity="0.46"/></svg>