<svg xmlns="http://www.w3.org/2000/svg" width="1920" height="1080" viewBox="0 0 1920 1080"><rect width="1920" height="1080" fill="#0A1F44"/><polyline points="-330.1,438.8 -97.2,477.6 135.7,427.6 368.6,449.5 601.5,464.5 834.4,425.7 1067.3,478.7 1300.2,435.4 1533.1,435.3 1766.0,473.8 1998.9,468.3 2231.8,423.7 2464.7,488.6" fill="none" stroke="#FAFCFF" stroke-opacity="0.07911949685534592" stroke-width="1.5"/><polyline points="-330.1,597.7 -97.2,523.2 135.7,591.3 368.6,558.6 601.5,547.0 834.4,612.8 1067.3,504.6 1300.2,515.1 1533.1,532.7 1766.0,532.6 1998.9,597.7 2231.8,616.2 2464.7,583.3" fill="none" stroke="#FAFCFF" stroke-opacity="0.1028553459119497" stroke-width="2.5"/><polyline points="-330.1,728.6 -97.2,816.2 135.7,730.6 368.6,744.5 601.5,789.1 834.4,824.7 1067.3,696.9 1300.2,815.8 1533.1,715.5 1766.0,787.5 1998.9,710.3 2231.8,806.3 2464.7,705.1" fill="none" stroke="#FAFCFF" stroke-opacity="0.12659119496855348" stroke-width="3.5"/><polyline points="-330.1,1002.0 -97.2,1016.4 135.7,1074.4 368.6,1134.7 601.5,1139.7 834.4,993.8 1067.3,1110.0 1300.2,1163.6 1533.1,1092.1 1766.0,1159.9 1998.9,1036.5 2231.8,1083.8 2464.7,1146.1" fill="none" stroke="#FAFCFF" stroke-opacity="0.15032704402515723" stroke-width="4.5"/><polyline points="-330.1,1506.4 -97.2,1411.3 135.7,1543.3 368.6,1507.6 601.5,1594.5 834.4,1518.7 1067.3,1463.6 1300.2,1517.8 1533.1,1419.2 1766.0,1438.6 1998.9,1517.8 2231.8,1452.9 2464.7,1396.5" fill="none" stroke="#FAFCFF" stroke-opacity="0.174062893081761" stroke-width="5.5"/><circle cx="1263.7" cy="1030.0" r="2.9629360226379102" fill="#3B82F6" fill-opacity="0.59"/><circle cx="-15.6" cy="645.0" r="2.9578749545197875" fill="#3B82F6" fill-opacity="0.49"/><circle cx="1260.6" cy="768.0" r="8.272356099065487" fill="#FF6A1A" fill-opacity="0.49"/><circle cx="1469.8" cy="840.5" r="3.3820566239469385" fill="#3B82F6" fill-opacity="0.31"/><circle cx="1917.7" cy="944.9" r="5.077335368020175" fill="#FF6A1A" fill-opacity="0.36"/><circle cx="312.8" cy="610.9" r="8.064261124992669" fill="#3B82F6" fill-opacity="0.56"/><circle cx="1185.0" cy="888.5" r="3.5567472394277546" fill="#3B82F6" fill-opacity="0.42"/><circle cx="50.9" cy="1033.7" r="6.539827211264576" fill="#3B82F6" fill-opacity="0.55"/><circle cx="235.4" cy="428.2" r="5.549888645884733" fill="#3B82F6" fill-opacity="0.40"/><circle cx="1780.8" cy="969.9" r="6.461447724695295" fill="#3B82F6" fill-opacity="0.58"/><circle cx="391.3" cy="1101.8" r="5.523099040328931" fill="#FF6A1A" fill-opacity="0.41"/><circle cx="1522.4" cy="1122.0" r="7.818872328257597" fill="#FF6A1A" fill-opacity="0.49"/><circle cx="2322.3" cy="684.9" r="5.00081343185092" fill="#FF6A1A" fill-opacity="0.52"/><circle cx="1032.0" cy="708.2" r="8.090418164138216" fill="#3B82F6" fill-opacity="0.35"/><circle cx="1923.9" cy="853.0" r="5.526301685010593" fill="#3B82F6" fill-opacity="0.32"/><circle cx="1322.9" cy="901.6" r="3.3915406627346565" fill="#3B82F6" fill-opacity="0.59"/><circle cx="2441.1" cy="1091.6" r="3.4419259324159963" fill="#FF6A1A" fill-opacity="0.45"/><circle cx="1251.9" cy="885.4" r="3.0878383897928723" fill="#3B82F6" fill-opacity="0.54"/><g opacity="1.00"><line x1="0" y1="842.4" x2="1920" y2="561.6" stroke="#FAFCFF" stroke-opacity="0.5" stroke-width="6"/><line x1="-3" y1="829" x2="-3" y2="857" stroke="#3B82F6" stroke-opacity="0.8" stroke-width="3"/><line x1="77" y1="817" x2="77" y2="845" stroke="#3B82F6" stroke-opacity="0.8" stroke-width="3"/><line x1="157" y1="805" x2="157" y2="833" stroke="#3B82F6" stroke-opacity="0.8" stroke-width="3"/><line x1="237" y1="794" x2="237" y2="822" stroke="#3B82F6" stroke-opacity="0.8" stroke-width="3"/><line x1="317" y1="782" x2="317" y2="810" stroke="#3B82F6" stroke-opacity="0.8" stroke-width="3"/><line x1="397" y1="770" x2="397" y2="798" stroke="#3B82F6" stroke-opacity="0.8" stroke-width="3"/><line x1="477" y1="759" x2="477" y2="787" stroke="#3B82F6" stroke-opacity="0.8" stroke-width="3"/><line x1="557" y1="747" x2="557" y2="775" stroke="#3B82F6" stroke-opacity="0.8" stroke-width="3"/><line x1="637" y1="735" x2="637" y2="763" stroke="#3B82F6" stroke-opacity="0.8" stroke-width="3"/><line x1="717" y1="724" x2="717" y2="752" stroke="#3B82F6" stroke-opacity="0.8" stroke-width="3"/><line x1="797" y1="712" x2="797" y2="740" stroke="#3B82F6" stroke-opacity="0.8" stroke-width="3"/><line x1="877" y1="700" x2="877" y2="728" stroke="#3B82F6" stroke-opacity="0.8" stroke-width="3"/><line x1="957" y1="688" x2="957" y2="716" stroke="#3B82F6" stroke-opacity="0.8" stroke-width="3"/><line x1="1037" y1="677" x2="1037" y2="705" stroke="#3B82F6" stroke-opacity="0.8" stroke-width="3"/><line x1="1117" y1="665" x2="1117" y2="693" stroke="#3B82F6" stroke-opacity="0.8" stroke-width="3"/><line x1="1197" y1="653" x2="1197" y2="681" stroke="#3B82F6" stroke-opacity="0.8" stroke-width="3"/><line x1="1277" y1="642" x2="1277" y2="670" stroke="#3B82F6" stroke-opacity="0.8" stroke-width="3"/><line x1="1357" y1="630" x2="1357" y2="658" stroke="#3B82F6" stroke-opacity="0.8" stroke-width="3"/><line x1="1437" y1="618" x2="1437" y2="646" stroke="#3B82F6" stroke-opacity="0.8" stroke-width="3"/><line x1="1517" y1="607" x2="1517" y2="635" stroke="#3B82F6" stroke-opacity="0.8" stroke-width="3"/><line x1="1597" y1="595" x2="1597" y2="623" stroke="#3B82F6" stroke-opacity="0.8" stroke-width="3"/><line x1="1677" y1="583" x2="1677" y2="611" stroke="#3B82F6" stroke-opacity="0.8" stroke-width="3"/><line x1="1757" y1="571" x2="1757" y2="599" stroke="#3B82F6" stroke-opacity="0.8" stroke-width="3"/><line x1="1837" y1="560" x2="1837" y2="588" stroke="#3B82F6" stroke-opacity="0.8" stroke-width="3"/><line x1="1917" y1="548" x2="1917" y2="576" stroke="#3B82F6" stroke-opacity="0.8" stroke-width="3"/><line x1="1997" y1="536" x2="1997" y2="564" stroke="#3B82F6" stroke-opacity="0.8" stroke-width="3"/><line x1="2077" y1="525" x2="2077" y2="553" stroke="#3B82F6" stroke-opacity="0.8" stroke-width="3"/></g></svg>