<svg xmlns="http://www.w3.org/2000/svg" width="1920" height="1080" viewBox="0 0 1920 1080"><rect width="1920" height="1080" fill="#0A1F44"/><polyline points="-342.3,435.5 -107.2,474.6 127.9,424.2 363.0,446.3 598.1,461.4 833.2,422.3 1068.3,475.7 1303.4,432.0 1538.6,431.9 1773.7,470.8 2008.8,465.3 2243.9,420.2 2479.0,485.7" fill="none" stroke="#FAFCFF" stroke-opacity="0.07660377358490567" stroke-width="1.5"/><polyline points="-342.3,595.8 -107.2,520.7 127.9,589.4 363.0,556.4 598.1,544.7 833.2,611.1 1068.3,501.8 1303.4,512.5 1538.6,530.2 1773.7,530.2 2008.8,595.8 2243.9,614.5 2479.0,581.3" fill="none" stroke="#FAFCFF" stroke-opacity="0.09958490566037737" stroke-width="2.5"/><polyline points="-342.3,728.0 -107.2,816.5 127.9,730.1 363.0,744.1 598.1,789.1 833.2,825.1 1068.3,696.0 1303.4,816.0 1538.6,714.8 1773.7,787.4 2008.8,709.5 2243.9,806.4 2479.0,704.3" fill="none" stroke="#FAFCFF" stroke-opacity="0.12256603773584906" stroke-width="3.5"/><polyline points="-342.3,1004.0 -107.2,1018.6 127.9,1077.1 363.0,1138.0 598.1,1143.0 833.2,995.7 1068.3,1113.0 1303.4,1167.2 1538.6,1094.9 1773.7,1163.4 2008.8,1038.8 2243.9,1086.5 2479.0,1149.5" fill="none" stroke="#FAFCFF" stroke-opacity="0.14554716981132076" stroke-width="4.5"/><polyline points="-342.3,1513.1 -107.2,1417.2 127.9,1550.4 363.0,1514.4 598.1,1602.2 833.2,1525.6 1068.3,1469.9 1303.4,1524.7 1538.6,1425.2 1773.7,1444.7 2008.8,1524.7 2243.9,1459.1 2479.0,1402.3" fill="none" stroke="#FAFCFF" stroke-opacity="0.16852830188679246" stroke-width="5.5"/><circle cx="1266.6" cy="1032.3" r="2.991088837716667" fill="#3B82F6" fill-opacity="0.57"/><circle cx="-24.8" cy="643.6" r="2.9859796810425507" fill="#3B82F6" fill-opacity="0.47"/><circle cx="1263.5" cy="767.8" r="8.350957226374092" fill="#FF6A1A" fill-opacity="0.46"/><circle cx="1474.6" cy="841.0" r="3.4141917810993005" fill="#3B82F6" fill-opacity="0.28"/><circle cx="1926.8" cy="946.4" r="5.1255784899156795" fill="#FF6A1A" fill-opacity="0.33"/><circle cx="306.7" cy="609.2" r="8.140885004301612" fill="#3B82F6" fill-opacity="0.55"/><circle cx="1187.2" cy="889.4" r="3.5905422476724285" fill="#3B82F6" fill-opacity="0.42"/><circle cx="42.3" cy="1036.0" r="6.601966435574198" fill="#3B82F6" fill-opacity="0.52"/><circle cx="228.6" cy="424.7" r="5.6026218090585305" fill="#3B82F6" fill-opacity="0.40"/><circle cx="1788.7" cy="971.6" r="6.522842213656433" fill="#3B82F6" fill-opacity="0.57"/><circle cx="385.9" cy="1104.7" r="5.575577657739511" fill="#FF6A1A" fill-opacity="0.38"/><circle cx="1527.8" cy="1125.1" r="7.893164606288585" fill="#FF6A1A" fill-opacity="0.46"/><circle cx="2335.2" cy="683.9" r="5.048329468213029" fill="#FF6A1A" fill-opacity="0.49"/><circle cx="1032.7" cy="707.4" r="8.16729057877848" fill="#3B82F6" fill-opacity="0.33"/><circle cx="1933.1" cy="853.6" r="5.578810732866784" fill="#3B82F6" fill-opacity="0.33"/><circle cx="1326.4" cy="902.7" r="3.4237659340130575" fill="#3B82F6" fill-opacity="0.57"/><circle cx="2455.2" cy="1094.4" r="3.474629947470569" fill="#FF6A1A" fill-opacity="0.42"/><circle cx="1254.7" cy="886.3" r="3.117177984882587" fill="#3B82F6" fill-opacity="0.51"/><g opacity="1.00"><line x1="0" y1="842.4" x2="1920" y2="561.6" stroke="#FAFCFF" stroke-opacity="0.5" stroke-width="6"/><line x1="-77" y1="840" x2="-77" y2="868" stroke="#3B82F6" stroke-opacity="0.8" stroke-width="3"/><line x1="3" y1="828" x2="3" y2="856" stroke="#3B82F6" stroke-opacity="0.8" stroke-width="3"/><line x1="83" y1="816" x2="83" y2="844" stroke="#3B82F6" stroke-opacity="0.8" stroke-width="3"/><line x1="163" y1="805" x2="163" y2="833" stroke="#3B82F6" stroke-opacity="0.8" stroke-width="3"/><line x1="243" y1="793" x2="243" y2="821" stroke="#3B82F6" stroke-opacity="0.8" stroke-width="3"/><line x1="323" y1="781" x2="323" y2="809" stroke="#3B82F6" stroke-opacity="0.8" stroke-width="3"/><line x1="403" y1="770" x2="403" y2="798" stroke="#3B82F6" stroke-opacity="0.8" stroke-width="3"/><line x1="483" y1="758" x2="483" y2="786" stroke="#3B82F6" stroke-opacity="0.8" stroke-width="3"/><line x1="563" y1="746" x2="563" y2="774" stroke="#3B82F6" stroke-opacity="0.8" stroke-width="3"/><line x1="643" y1="734" x2="643" y2="762" stroke="#3B82F6" stroke-opacity="0.8" stroke-width="3"/><line x1="723" y1="723" x2="723" y2="751" stroke="#3B82F6" stroke-opacity="0.8" stroke-width="3"/><line x1="803" y1="711" x2="803" y2="739" stroke="#3B82F6" stroke-opacity="0.8" stroke-width="3"/><line x1="883" y1="699" x2="883" y2="727" stroke="#3B82F6" stroke-opacity="0.8" stroke-width="3"/><line x1="963" y1="688" x2="963" y2="716" stroke="#3B82F6" stroke-opacity="0.8" stroke-width="3"/><line x1="1043" y1="676" x2="1043" y2="704" stroke="#3B82F6" stroke-opacity="0.8" stroke-width="3"/><line x1="1123" y1="664" x2="1123" y2="692" stroke="#3B82F6" stroke-opacity="0.8" stroke-width="3"/><line x1="1203" y1="653" x2="1203" y2="681" stroke="#3B82F6" stroke-opacity="0.8" stroke-width="3"/><line x1="1283" y1="641" x2="1283" y2="669" stroke="#3B82F6" stroke-opacity="0.8" stroke-width="3"/><line x1="1363" y1="629" x2="1363" y2="657" stroke="#3B82F6" stroke-opacity="0.8" stroke-width="3"/><line x1="1443" y1="617" x2="1443" y2="645" stroke="#3B82F6" stroke-opacity="0.8" stroke-width="3"/><line x1="1523" y1="606" x2="1523" y2="634" stroke="#3B82F6" stroke-opacity="0.8" stroke-width="3"/><line x1="1603" y1="594" x2="1603" y2="622" stroke="#3B82F6" stroke-opacity="0.8" stroke-width="3"/><line x1="1683" y1="582" x2="1683" y2="610" stroke="#3B82F6" stroke-opacity="0.8" stroke-width="3"/><line x1="1763" y1="571" x2="1763" y2="599" stroke="#3B82F6" stroke-opacity="0.8" stroke-width="3"/><line x1="1843" y1="559" x2="1843" y2="587" stroke="#3B82F6" stroke-opacity="0.8" stroke-width="3"/><line x1="1923" y1="547" x2="1923" y2="575" stroke="#3B82F6" stroke-opacity="0.8" stroke-width="3"/><line x1="2003" y1="536" x2="2003" y2="564" stroke="#3B82F6" stroke-opacity="0.8" stroke-width="3"/></g></svg>