<svg xmlns="http://www.w3.org/2000/svg" width="1920" height="1080" viewBox="0 0 1920 1080"><rect width="1920" height="1080" fill="#0A1F44"/><polyline points="-306.1,445.4 -77.5,483.5 151.0,434.4 379.5,456.0 608.0,470.6 836.6,432.6 1065.1,484.5 1293.6,442.1 1522.1,442.0 1750.7,479.8 1979.2,474.4 2207.7,430.6 2436.3,494.3" fill="none" stroke="#FAFCFF" stroke-opacity="0.08415094339622642" stroke-width="1.5"/><polyline points="-306.1,601.3 -77.5,528.2 151.0,595.0 379.5,563.0 608.0,551.6 836.6,616.2 1065.1,509.9 1293.6,520.3 1522.1,537.5 1750.7,537.5 1979.2,601.3 2207.7,619.5 2436.3,587.2" fill="none" stroke="#FAFCFF" stroke-opacity="0.10939622641509435" stroke-width="2.5"/><polyline points="-306.1,729.7 -77.5,815.8 151.0,731.8 379.5,745.4 608.0,789.1 836.6,824.1 1065.1,698.7 1293.6,815.3 1522.1,717.0 1750.7,787.5 1979.2,711.8 2207.7,806.0 2436.3,706.7" fill="none" stroke="#FAFCFF" stroke-opacity="0.13464150943396228" stroke-width="3.5"/><polyline points="-306.1,998.1 -77.5,1012.2 151.0,1069.1 379.5,1128.2 608.0,1133.1 836.6,990.0 1065.1,1104.0 1293.6,1156.7 1522.1,1086.4 1750.7,1152.9 1979.2,1031.9 2207.7,1078.3 2436.3,1139.5" fill="none" stroke="#FAFCFF" stroke-opacity="0.1598867924528302" stroke-width="4.5"/><polyline points="-306.1,1492.9 -77.5,1399.7 151.0,1529.2 379.5,1494.2 608.0,1579.5 836.6,1505.0 1065.1,1450.9 1293.6,1504.1 1522.1,1407.4 1750.7,1426.4 1979.2,1504.2 2207.7,1440.4 2436.3,1385.2" fill="none" stroke="#FAFCFF" stroke-opacity="0.18513207547169813" stroke-width="5.5"/><circle cx="1257.8" cy="1025.6" r="2.9073255637279165" fill="#3B82F6" fill-opacity="0.63"/><circle cx="2.5" cy="647.7" r="2.9023594852816843" fill="#3B82F6" fill-opacity="0.55"/><circle cx="1254.7" cy="768.4" r="8.11709472473235" fill="#FF6A1A" fill-opacity="0.55"/><circle cx="1460.0" cy="839.6" r="3.318579815983388" fill="#3B82F6" fill-opacity="0.37"/><circle cx="1899.5" cy="942.0" r="4.982040380987629" fill="#FF6A1A" fill-opacity="0.42"/><circle cx="324.8" cy="614.3" r="7.912905422910516" fill="#3B82F6" fill-opacity="0.57"/><circle cx="1180.6" cy="886.7" r="3.489991715616162" fill="#3B82F6" fill-opacity="0.42"/><circle cx="67.8" cy="1029.1" r="6.417083152792905" fill="#3B82F6" fill-opacity="0.60"/><circle cx="248.8" cy="435.0" r="5.445724447893634" fill="#3B82F6" fill-opacity="0.39"/><circle cx="1765.2" cy="966.5" r="6.340174747335044" fill="#3B82F6" fill-opacity="0.60"/><circle cx="401.8" cy="1095.9" r="5.419437648421931" fill="#FF6A1A" fill-opacity="0.47"/><circle cx="1511.7" cy="1115.7" r="7.672122255015737" fill="#FF6A1A" fill-opacity="0.55"/><circle cx="2296.5" cy="686.9" r="4.906954662122609" fill="#FF6A1A" fill-opacity="0.58"/><circle cx="1030.4" cy="709.8" r="7.938571528421485" fill="#3B82F6" fill-opacity="0.41"/><circle cx="1905.6" cy="851.8" r="5.422580183624646" fill="#3B82F6" fill-opacity="0.31"/><circle cx="1315.9" cy="899.6" r="3.327885851687247" fill="#3B82F6" fill-opacity="0.63"/><circle cx="2413.1" cy="1085.9" r="3.377325455330618" fill="#FF6A1A" fill-opacity="0.51"/><circle cx="1246.2" cy="883.6" r="3.0298836757577723" fill="#3B82F6" fill-opacity="0.59"/><g opacity="1.00"><line x1="0" y1="842.4" x2="1920" y2="561.6" stroke="#FAFCFF" stroke-opacity="0.5" stroke-width="6"/><line x1="-14" y1="830" x2="-14" y2="858" stroke="#3B82F6" stroke-opacity="0.8" stroke-width="3"/><line x1="66" y1="819" x2="66" y2="847" stroke="#3B82F6" stroke-opacity="0.8" stroke-width="3"/><line x1="146" y1="807" x2="146" y2="835" stroke="#3B82F6" stroke-opacity="0.8" stroke-width="3"/><line x1="226" y1="795" x2="226" y2="823" stroke="#3B82F6" stroke-opacity="0.8" stroke-width="3"/><line x1="306" y1="784" x2="306" y2="812" stroke="#3B82F6" stroke-opacity="0.8" stroke-width="3"/><line x1="386" y1="772" x2="386" y2="800" stroke="#3B82F6" stroke-opacity="0.8" stroke-width="3"/><line x1="466" y1="760" x2="466" y2="788" stroke="#3B82F6" stroke-opacity="0.8" stroke-width="3"/><line x1="546" y1="749" x2="546" y2="777" stroke="#3B82F6" stroke-opacity="0.8" stroke-width="3"/><line x1="626" y1="737" x2="626" y2="765" stroke="#3B82F6" stroke-opacity="0.8" stroke-width="3"/><line x1="706" y1="725" x2="706" y2="753" stroke="#3B82F6" stroke-opacity="0.8" stroke-width="3"/><line x1="786" y1="713" x2="786" y2="741" stroke="#3B82F6" stroke-opacity="0.8" stroke-width="3"/><line x1="866" y1="702" x2="866" y2="730" stroke="#3B82F6" stroke-opacity="0.8" stroke-width="3"/><line x1="946" y1="690" x2="946" y2="718" stroke="#3B82F6" stroke-opacity="0.8" stroke-width="3"/><line x1="1026" y1="678" x2="1026" y2="706" stroke="#3B82F6" stroke-opacity="0.8" stroke-width="3"/><line x1="1106" y1="667" x2="1106" y2="695" stroke="#3B82F6" stroke-opacity="0.8" stroke-width="3"/><line x1="1186" y1="655" x2="1186" y2="683" stroke="#3B82F6" stroke-opacity="0.8" stroke-width="3"/><line x1="1266" y1="643" x2="1266" y2="671" stroke="#3B82F6" stroke-opacity="0.8" stroke-width="3"/><line x1="1346" y1="632" x2="1346" y2="660" stroke="#3B82F6" stroke-opacity="0.8" stroke-width="3"/><line x1="1426" y1="620" x2="1426" y2="648" stroke="#3B82F6" stroke-opacity="0.8" stroke-width="3"/><line x1="1506" y1="608" x2="1506" y2="636" stroke="#3B82F6" stroke-opacity="0.8" stroke-width="3"/><line x1="1586" y1="596" x2="1586" y2="624" stroke="#3B82F6" stroke-opacity="0.8" stroke-width="3"/><line x1="1666" y1="585" x2="1666" y2="613" stroke="#3B82F6" stroke-opacity="0.8" stroke-width="3"/><line x1="1746" y1="573" x2="1746" y2="601" stroke="#3B82F6" stroke-opacity="0.8" stroke-width="3"/><line x1="1826" y1="561" x2="1826" y2="589" stroke="#3B82F6" stroke-opacity="0.8" stroke-width="3"/><line x1="1906" y1="550" x2="1906" y2="578" stroke="#3B82F6" stroke-opacity="0.8" stroke-width="3"/><line x1="1986" y1="538" x2="1986" y2="566" stroke="#3B82F6" stroke-opacity="0.8" stroke-width="3"/><line x1="2066" y1="526" x2="2066" y2="554" stroke="#3B82F6" stroke-opacity="0.8" stroke-width="3"/></g></svg>