<svg xmlns="http://www.w3.org/2000/svg" width="1920" height="1080" viewBox="0 0 1920 1080"><rect width="1920" height="1080" fill="#0A1F44"/><polyline points="-728.3,335.4 -427.0,385.6 -125.8,320.9 175.5,349.3 476.8,368.6 778.0,318.5 1079.3,387.0 1380.6,331.0 1681.8,330.9 1983.1,380.7 2284.3,373.6 2585.6,315.8 2886.9,399.8" fill="none" stroke="#FAFCFF" stroke-opacity="0.006163522012578637" stroke-width="1.5"/><polyline points="-728.3,540.9 -427.0,444.6 -125.8,532.6 175.5,490.4 476.8,475.4 778.0,560.5 1079.3,420.5 1380.6,434.1 1681.8,456.8 1983.1,456.7 2284.3,540.9 2585.6,564.9 2886.9,522.3" fill="none" stroke="#FAFCFF" stroke-opacity="0.008012578616352229" stroke-width="2.5"/><polyline points="-728.3,710.2 -427.0,823.6 -125.8,712.9 175.5,730.8 476.8,788.5 778.0,834.6 1079.3,669.3 1380.6,823.0 1681.8,693.4 1983.1,786.4 2284.3,686.6 2585.6,810.7 2886.9,679.8" fill="none" stroke="#FAFCFF" stroke-opacity="0.00986163522012582" stroke-width="3.5"/><polyline points="-728.3,1064.0 -427.0,1082.6 -125.8,1157.6 175.5,1235.6 476.8,1242.0 778.0,1053.3 1079.3,1203.5 1380.6,1273.0 1681.8,1180.4 1983.1,1268.1 2284.3,1108.5 2585.6,1169.7 2886.9,1250.3" fill="none" stroke="#FAFCFF" stroke-opacity="0.011710691823899411" stroke-width="4.5"/><polyline points="-728.3,1716.3 -427.0,1593.4 -125.8,1764.1 175.5,1717.9 476.8,1830.4 778.0,1732.2 1079.3,1660.9 1380.6,1731.1 1681.8,1603.6 1983.1,1628.6 2284.3,1731.1 2585.6,1647.1 2886.9,1574.2" fill="none" stroke="#FAFCFF" stroke-opacity="0.013559748427673001" stroke-width="5.5"/><circle cx="1333.4" cy="1100.2" r="3.8326576404485215" fill="#3B82F6" fill-opacity="0.02"/><circle cx="-321.5" cy="602.1" r="3.8261109782041967" fill="#3B82F6" fill-opacity="0.04"/><circle cx="1329.3" cy="761.2" r="10.70057151600834" fill="#FF6A1A" fill-opacity="0.04"/><circle cx="1599.9" cy="855.0" r="4.3748042688614746" fill="#3B82F6" fill-opacity="0.05"/><circle cx="2179.3" cy="990.1" r="6.56770448051626" fill="#FF6A1A" fill-opacity="0.05"/><circle cx="103.4" cy="558.0" r="10.431393651138665" fill="#3B82F6" fill-opacity="0.03"/><circle cx="1231.6" cy="917.1" r="4.6007724696669445" fill="#3B82F6" fill-opacity="0.04"/><circle cx="-235.4" cy="1104.9" r="8.459486987555998" fill="#3B82F6" fill-opacity="0.04"/><circle cx="3.2" cy="321.7" r="7.178968077532485" fill="#3B82F6" fill-opacity="0.04"/><circle cx="2002.3" cy="1022.3" r="8.358100479120106" fill="#3B82F6" fill-opacity="0.03"/><circle cx="204.9" cy="1192.9" r="7.144314819536506" fill="#FF6A1A" fill-opacity="0.04"/><circle cx="1668.0" cy="1219.1" r="10.11397496929692" fill="#FF6A1A" fill-opacity="0.04"/><circle cx="2702.7" cy="653.8" r="6.468720776149976" fill="#FF6A1A" fill-opacity="0.04"/><circle cx="1033.6" cy="683.9" r="10.465228663156047" fill="#3B82F6" fill-opacity="0.05"/><circle cx="2187.3" cy="871.1" r="7.148457548409162" fill="#3B82F6" fill-opacity="0.05"/><circle cx="1409.9" cy="934.1" r="4.387072192787046" fill="#3B82F6" fill-opacity="0.03"/><circle cx="2856.4" cy="1179.8" r="4.452247237855457" fill="#FF6A1A" fill-opacity="0.04"/><circle cx="1318.1" cy="913.1" r="3.9942230634374316" fill="#3B82F6" fill-opacity="0.04"/><g opacity="1.00"><line x1="0" y1="842.4" x2="1920" y2="561.6" stroke="#FAFCFF" stroke-opacity="0.5" stroke-width="6"/><line x1="-79" y1="840" x2="-79" y2="868" stroke="#3B82F6" stroke-opacity="0.8" stroke-width="3"/><line x1="1" y1="828" x2="1" y2="856" stroke="#3B82F6" stroke-opacity="0.8" stroke-width="3"/><line x1="81" y1="817" x2="81" y2="845" stroke="#3B82F6" stroke-opacity="0.8" stroke-width="3"/><line x1="161" y1="805" x2="161" y2="833" stroke="#3B82F6" stroke-opacity="0.8" stroke-width="3"/><line x1="241" y1="793" x2="241" y2="821" stroke="#3B82F6" stroke-opacity="0.8" stroke-width="3"/><line x1="321" y1="781" x2="321" y2="809" stroke="#3B82F6" stroke-opacity="0.8" stroke-width="3"/><line x1="401" y1="770" x2="401" y2="798" stroke="#3B82F6" stroke-opacity="0.8" stroke-width="3"/><line x1="481" y1="758" x2="481" y2="786" stroke="#3B82F6" stroke-opacity="0.8" stroke-width="3"/><line x1="561" y1="746" x2="561" y2="774" stroke="#3B82F6" stroke-opacity="0.8" stroke-width="3"/><line x1="641" y1="735" x2="641" y2="763" stroke="#3B82F6" stroke-opacity="0.8" stroke-width="3"/><line x1="721" y1="723" x2="721" y2="751" stroke="#3B82F6" stroke-opacity="0.8" stroke-width="3"/><line x1="801" y1="711" x2="801" y2="739" stroke="#3B82F6" stroke-opacity="0.8" stroke-width="3"/><line x1="881" y1="700" x2="881" y2="728" stroke="#3B82F6" stroke-opacity="0.8" stroke-width="3"/><line x1="961" y1="688" x2="961" y2="716" stroke="#3B82F6" stroke-opacity="0.8" stroke-width="3"/><line x1="1041" y1="676" x2="1041" y2="704" stroke="#3B82F6" stroke-opacity="0.8" stroke-width="3"/><line x1="1121" y1="664" x2="1121" y2="692" stroke="#3B82F6" stroke-opacity="0.8" stroke-width="3"/><line x1="1201" y1="653" x2="1201" y2="681" stroke="#3B82F6" stroke-opacity="0.8" stroke-width="3"/><line x1="1281" y1="641" x2="1281" y2="669" stroke="#3B82F6" stroke-opacity="0.8" stroke-width="3"/><line x1="1361" y1="629" x2="1361" y2="657" stroke="#3B82F6" stroke-opacity="0.8" stroke-width="3"/><line x1="1441" y1="618" x2="1441" y2="646" stroke="#3B82F6" stroke-opacity="0.8" stroke-width="3"/><line x1="1521" y1="606" x2="1521" y2="634" stroke="#3B82F6" stroke-opacity="0.8" stroke-width="3"/><line x1="1601" y1="594" x2="1601" y2="622" stroke="#3B82F6" stroke-opacity="0.8" stroke-width="3"/><line x1="1681" y1="583" x2="1681" y2="611" stroke="#3B82F6" stroke-opacity="0.8" stroke-width="3"/><line x1="1761" y1="571" x2="1761" y2="599" stroke="#3B82F6" stroke-opacity="0.8" stroke-width="3"/><line x1="1841" y1="559" x2="1841" y2="587" stroke="#3B82F6" stroke-opacity="0.8" stroke-width="3"/><line x1="1921" y1="547" x2="1921" y2="575" stroke="#3B82F6" stroke-opacity="0.8" stroke-width="3"/><line x1="2001" y1="536" x2="2001" y2="564" stroke="#3B82F6" stroke-opacity="0.8" stroke-width="3"/></g><g opacity="0.30"><rect x="422.4" y="216" width="1075.2" height="540" fill="none" stroke="#FAFCFF" stroke-opacity="0.6" stroke-width="2"/><rect x="442.4" y="236" width="318.40000000000003" height="189" fill="#3B82F6" fill-opacity="0.14"/><rect x="800.8" y="236" width="318.40000000000003" height="189" fill="#3B82F6" fill-opacity="0.2"/><rect x="1159.2" y="236" width="318.40000000000003" height="189" fill="#3B82F6" fill-opacity="0.26"/></g></svg>