<svg xmlns="http://www.w3.org/2000/svg" width="1920" height="1080" viewBox="0 0 1920 1080"><rect width="1920" height="1080" fill="#0A1F44"/><polyline points="-1346.8,193.7 -951.8,259.4 -556.9,174.7 -161.9,211.8 233.1,237.2 628.1,171.5 1023.1,261.2 1418.0,187.8 1813.0,187.7 2208.0,253.0 2603.0,243.7 2997.9,167.9 3392.9,278.1" fill="none" stroke="#FAFCFF" stroke-opacity="0" stroke-width="1.5"/><polyline points="-1346.8,463.1 -951.8,336.8 -556.9,452.2 -161.9,396.8 233.1,377.2 628.1,488.7 1023.1,305.2 1418.0,323.0 1813.0,352.8 2208.0,352.7 2603.0,463.1 2997.9,494.5 3392.9,438.7" fill="none" stroke="#FAFCFF" stroke-opacity="0" stroke-width="2.5"/><polyline points="-1346.8,685.0 -951.8,833.7 -556.9,688.6 -161.9,712.1 233.1,787.7 628.1,848.2 1023.1,631.4 1418.0,833.0 1813.0,662.9 2208.0,785.0 2603.0,654.0 2997.9,816.8 3392.9,645.2" fill="none" stroke="#FAFCFF" stroke-opacity="0" stroke-width="3.5"/><polyline points="-1346.8,1148.8 -951.8,1173.2 -556.9,1271.6 -161.9,1373.8 233.1,1382.2 628.1,1134.9 1023.1,1331.9 1418.0,1422.9 1813.0,1301.5 2208.0,1416.5 2603.0,1207.2 2997.9,1287.4 3392.9,1393.2" fill="none" stroke="#FAFCFF" stroke-opacity="0" stroke-width="4.5"/><polyline points="-1346.8,2004.1 -951.8,1842.9 -556.9,2066.8 -161.9,2006.3 233.1,2153.7 628.1,2025.0 1023.1,1931.5 1418.0,2023.5 1813.0,1856.4 2208.0,1889.2 2603.0,2023.5 2997.9,1913.4 3392.9,1817.9" fill="none" stroke="#FAFCFF" stroke-opacity="0" stroke-width="5.5"/><g opacity="1.00"><rect x="422.4" y="216" width="1075.2" height="540" fill="none" stroke="#FAFCFF" stroke-opacity="0.6" stroke-width="2"/><rect x="442.4" y="236" width="318.40000000000003" height="189" fill="#3B82F6" fill-opacity="0.14"/><rect x="800.8" y="236" width="318.40000000000003" height="189" fill="#3B82F6" fill-opacity="0.2"/><rect x="1159.2" y="236" width="318.40000000000003" height="189" fill="#3B82F6" fill-opacity="0.26"/></g><g opacity="1.00"><rect x="460.79999999999995" y="324" width="517.9707771018149" height="10" fill="#3B82F6" fill-opacity="0.9"/><rect x="460.79999999999995" y="358" width="559.0618132464589" height="10" fill="#FAFCFF" fill-opacity="0.4"/><rect x="460.79999999999995" y="392" width="352.0004768371582" height="10" fill="#FAFCFF" fill-opacity="0.4"/><rect x="460.79999999999995" y="426" width="493.0137858130038" height="10" fill="#3B82F6" fill-opacity="0.9"/><rect x="460.79999999999995" y="460" width="575.1368051692843" height="10" fill="#FAFCFF" fill-opacity="0.4"/><rect x="460.79999999999995" y="494" width="457.9308180771768" height="10" fill="#FAFCFF" fill-opacity="0.4"/><rect x="460.79999999999995" y="528" width="514.2663277834654" height="10" fill="#3B82F6" fill-opacity="0.9"/><rect x="460.79999999999995" y="562" width="307.5067911466046" height="10" fill="#FAFCFF" fill-opacity="0.4"/></g></svg>