<svg xmlns="http://www.w3.org/2000/svg" width="1920" height="1080" viewBox="0 0 1920 1080"><rect width="1920" height="1080" fill="#0A1F44"/><polyline points="-98.2,506.0 90.3,537.3 278.8,496.9 467.3,514.6 655.8,526.7 844.3,495.4 1032.8,538.2 1221.3,503.2 1409.8,503.1 1598.3,534.3 1786.8,529.8 1975.3,493.7 2163.8,546.3" fill="none" stroke="#FAFCFF" stroke-opacity="0.1" stroke-width="1.5"/><polyline points="-98.2,634.5 90.3,574.3 278.8,629.4 467.3,602.9 655.8,593.5 844.3,646.8 1032.8,559.2 1221.3,567.7 1409.8,581.9 1598.3,581.9 1786.8,634.5 1975.3,649.5 2163.8,622.9" fill="none" stroke="#FAFCFF" stroke-opacity="0.13" stroke-width="2.5"/><polyline points="-98.2,740.5 90.3,811.5 278.8,742.2 467.3,753.4 655.8,789.5 844.3,818.3 1032.8,714.9 1221.3,811.1 1409.8,729.9 1598.3,788.2 1786.8,725.7 1975.3,803.4 2163.8,721.5" fill="none" stroke="#FAFCFF" stroke-opacity="0.16" stroke-width="3.5"/><polyline points="-98.2,961.8 90.3,973.5 278.8,1020.4 467.3,1069.2 655.8,1073.2 844.3,955.2 1032.8,1049.2 1221.3,1092.6 1409.8,1034.7 1598.3,1089.6 1786.8,989.7 1975.3,1028.0 2163.8,1078.5" fill="none" stroke="#FAFCFF" stroke-opacity="0.19" stroke-width="4.5"/><polyline points="-98.2,1370.0 90.3,1293.1 278.8,1399.9 467.3,1371.0 655.8,1441.4 844.3,1380.0 1032.8,1335.4 1221.3,1379.3 1409.8,1299.5 1598.3,1315.2 1786.8,1379.3 1975.3,1326.7 2163.8,1281.1" fill="none" stroke="#FAFCFF" stroke-opacity="0.22" stroke-width="5.5"/><circle cx="1191.8" cy="984.5" r="2.3981612382935555" fill="#3B82F6" fill-opacity="0.44"/><circle cx="156.3" cy="672.8" r="2.3940648766804418" fill="#3B82F6" fill-opacity="0.70"/><circle cx="1189.3" cy="772.4" r="6.695535642540776" fill="#FF6A1A" fill-opacity="0.70"/><circle cx="1358.6" cy="831.1" r="2.737391911028345" fill="#3B82F6" fill-opacity="0.74"/><circle cx="1721.1" cy="915.6" r="4.109528110081284" fill="#FF6A1A" fill-opacity="0.75"/><circle cx="422.2" cy="645.2" r="6.527106322132828" fill="#3B82F6" fill-opacity="0.43"/><circle cx="1128.1" cy="869.9" r="2.878784185292423" fill="#3B82F6" fill-opacity="0.64"/><circle cx="210.2" cy="987.4" r="5.293249669707356" fill="#3B82F6" fill-opacity="0.64"/><circle cx="359.5" cy="497.4" r="4.492006484688376" fill="#3B82F6" fill-opacity="0.66"/><circle cx="1610.3" cy="935.8" r="5.2298103496776065" fill="#3B82F6" fill-opacity="0.36"/><circle cx="485.7" cy="1042.5" r="4.470323332186182" fill="#FF6A1A" fill-opacity="0.74"/><circle cx="1401.2" cy="1058.9" r="6.328491874792308" fill="#FF6A1A" fill-opacity="0.71"/><circle cx="2048.6" cy="705.2" r="4.047592266783224" fill="#FF6A1A" fill-opacity="0.68"/><circle cx="1004.2" cy="724.0" r="6.548277483746884" fill="#3B82F6" fill-opacity="0.75"/><circle cx="1726.1" cy="841.2" r="4.472915510443461" fill="#3B82F6" fill-opacity="0.72"/><circle cx="1239.7" cy="880.6" r="2.745068166617194" fill="#3B82F6" fill-opacity="0.50"/><circle cx="2144.8" cy="1034.3" r="2.785849337660901" fill="#FF6A1A" fill-opacity="0.73"/><circle cx="1182.2" cy="867.4" r="2.4992555627047395" fill="#3B82F6" fill-opacity="0.65"/><g opacity="0.60"><line x1="0" y1="842.4" x2="1920" y2="561.6" stroke="#FAFCFF" stroke-opacity="0.5" stroke-width="6"/><line x1="-53" y1="836" x2="-53" y2="864" stroke="#3B82F6" stroke-opacity="0.8" stroke-width="3"/><line x1="27" y1="824" x2="27" y2="852" stroke="#3B82F6" stroke-opacity="0.8" stroke-width="3"/><line x1="107" y1="813" x2="107" y2="841" stroke="#3B82F6" stroke-opacity="0.8" stroke-width="3"/><line x1="187" y1="801" x2="187" y2="829" stroke="#3B82F6" stroke-opacity="0.8" stroke-width="3"/><line x1="267" y1="789" x2="267" y2="817" stroke="#3B82F6" stroke-opacity="0.8" stroke-width="3"/><line x1="347" y1="778" x2="347" y2="806" stroke="#3B82F6" stroke-opacity="0.8" stroke-width="3"/><line x1="427" y1="766" x2="427" y2="794" stroke="#3B82F6" stroke-opacity="0.8" stroke-width="3"/><line x1="507" y1="754" x2="507" y2="782" stroke="#3B82F6" stroke-opacity="0.8" stroke-width="3"/><line x1="587" y1="743" x2="587" y2="771" stroke="#3B82F6" stroke-opacity="0.8" stroke-width="3"/><line x1="667" y1="731" x2="667" y2="759" stroke="#3B82F6" stroke-opacity="0.8" stroke-width="3"/><line x1="747" y1="719" x2="747" y2="747" stroke="#3B82F6" stroke-opacity="0.8" stroke-width="3"/><line x1="827" y1="707" x2="827" y2="735" stroke="#3B82F6" stroke-opacity="0.8" stroke-width="3"/><line x1="907" y1="696" x2="907" y2="724" stroke="#3B82F6" stroke-opacity="0.8" stroke-width="3"/><line x1="987" y1="684" x2="987" y2="712" stroke="#3B82F6" stroke-opacity="0.8" stroke-width="3"/><line x1="1067" y1="672" x2="1067" y2="700" stroke="#3B82F6" stroke-opacity="0.8" stroke-width="3"/><line x1="1147" y1="661" x2="1147" y2="689" stroke="#3B82F6" stroke-opacity="0.8" stroke-width="3"/><line x1="1227" y1="649" x2="1227" y2="677" stroke="#3B82F6" stroke-opacity="0.8" stroke-width="3"/><line x1="1307" y1="637" x2="1307" y2="665" stroke="#3B82F6" stroke-opacity="0.8" stroke-width="3"/><line x1="1387" y1="626" x2="1387" y2="654" stroke="#3B82F6" stroke-opacity="0.8" stroke-width="3"/><line x1="1467" y1="614" x2="1467" y2="642" stroke="#3B82F6" stroke-opacity="0.8" stroke-width="3"/><line x1="1547" y1="602" x2="1547" y2="630" stroke="#3B82F6" stroke-opacity="0.8" stroke-width="3"/><line x1="1627" y1="590" x2="1627" y2="618" stroke="#3B82F6" stroke-opacity="0.8" stroke-width="3"/><line x1="1707" y1="579" x2="1707" y2="607" stroke="#3B82F6" stroke-opacity="0.8" stroke-width="3"/><line x1="1787" y1="567" x2="1787" y2="595" stroke="#3B82F6" stroke-opacity="0.8" stroke-width="3"/><line x1="1867" y1="555" x2="1867" y2="583" stroke="#3B82F6" stroke-opacity="0.8" stroke-width="3"/><line x1="1947" y1="544" x2="1947" y2="572" stroke="#3B82F6" stroke-opacity="0.8" stroke-width="3"/><line x1="2027" y1="532" x2="2027" y2="560" stroke="#3B82F6" stroke-opacity="0.8" stroke-width="3"/></g></svg>