<svg xmlns="http://www.w3.org/2000/svg" width="1920" height="1080" viewBox="0 0 1920 1080"><rect width="1920" height="1080" fill="#0A1F44"/><polyline points="-1143.4,237.4 -777.3,298.3 -411.2,219.8 -45.1,254.2 321.0,277.7 687.1,216.8 1053.2,300.0 1419.3,232.0 1785.4,231.8 2151.5,292.4 2517.5,283.7 2883.6,213.5 3249.7,315.6" fill="none" stroke="#FAFCFF" stroke-opacity="0" stroke-width="1.5"/><polyline points="-1143.4,487.1 -777.3,370.0 -411.2,477.0 -45.1,425.6 321.0,407.4 687.1,510.9 1053.2,340.7 1419.3,357.2 1785.4,384.9 2151.5,384.8 2517.5,487.1 2883.6,516.2 3249.7,464.5" fill="none" stroke="#FAFCFF" stroke-opacity="0" stroke-width="2.5"/><polyline points="-1143.4,692.8 -777.3,830.6 -411.2,696.1 -45.1,717.9 321.0,787.9 687.1,844.0 1053.2,643.1 1419.3,829.9 1785.4,672.3 2151.5,785.4 2517.5,664.1 2883.6,814.9 3249.7,655.9" fill="none" stroke="#FAFCFF" stroke-opacity="0" stroke-width="3.5"/><polyline points="-1143.4,1122.7 -777.3,1145.3 -411.2,1236.5 -45.1,1331.2 321.0,1339.0 687.1,1109.7 1053.2,1292.3 1419.3,1376.7 1785.4,1264.2 2151.5,1370.8 2517.5,1176.8 2883.6,1251.1 3249.7,1349.2" fill="none" stroke="#FAFCFF" stroke-opacity="0" stroke-width="4.5"/><polyline points="-1143.4,1915.4 -777.3,1766.0 -411.2,1973.5 -45.1,1917.4 321.0,2054.0 687.1,1934.8 1053.2,1848.1 1419.3,1933.3 1785.4,1778.5 2151.5,1808.9 2517.5,1933.4 2883.6,1831.3 3249.7,1742.8" fill="none" stroke="#FAFCFF" stroke-opacity="0" stroke-width="5.5"/><g opacity="1.00"><rect x="422.4" y="216" width="1075.2" height="540" fill="none" stroke="#FAFCFF" stroke-opacity="0.6" stroke-width="2"/><rect x="442.4" y="236" width="318.40000000000003" height="189" fill="#3B82F6" fill-opacity="0.14"/><rect x="800.8" y="236" width="318.40000000000003" height="189" fill="#3B82F6" fill-opacity="0.2"/><rect x="1159.2" y="236" width="318.40000000000003" height="189" fill="#3B82F6" fill-opacity="0.26"/></g><g opacity="0.61"><rect x="460.79999999999995" y="324" width="517.9707771018149" height="10" fill="#3B82F6" fill-opacity="0.9"/><rect x="460.79999999999995" y="358" width="559.0618132464589" height="10" fill="#FAFCFF" fill-opacity="0.4"/><rect x="460.79999999999995" y="392" width="352.0004768371582" height="10" fill="#FAFCFF" fill-opacity="0.4"/><rect x="460.79999999999995" y="426" width="319.9938534333454" height="10" fill="#3B82F6" fill-opacity="0.9"/></g></svg>