<svg xmlns="http://www.w3.org/2000/svg" width="1920" height="1080" viewBox="0 0 1920 1080"><rect width="1920" height="1080" fill="#0A1F44"/><polyline points="-1439.6,175.7 -1032.7,243.3 -625.8,156.1 -218.9,194.4 188.0,220.4 594.9,152.8 1001.8,245.3 1408.7,169.6 1815.6,169.5 2222.5,236.8 2629.4,227.2 3036.3,149.1 3443.2,262.6" fill="none" stroke="#FAFCFF" stroke-opacity="0" stroke-width="1.5"/><polyline points="-1439.6,453.2 -1032.7,323.1 -625.8,442.0 -218.9,384.9 188.0,364.7 594.9,479.6 1001.8,290.5 1408.7,308.9 1815.6,339.6 2222.5,339.5 2629.4,453.2 3036.3,485.5 3443.2,428.0" fill="none" stroke="#FAFCFF" stroke-opacity="0" stroke-width="2.5"/><polyline points="-1439.6,681.8 -1032.7,835.0 -625.8,685.5 -218.9,709.7 188.0,787.6 594.9,849.9 1001.8,626.6 1408.7,834.2 1815.6,659.1 2222.5,784.8 2629.4,649.9 3036.3,817.6 3443.2,640.8" fill="none" stroke="#FAFCFF" stroke-opacity="0" stroke-width="3.5"/><polyline points="-1439.6,1159.6 -1032.7,1184.8 -625.8,1286.1 -218.9,1391.4 188.0,1400.1 594.9,1145.2 1001.8,1348.2 1408.7,1442.0 1815.6,1316.9 2222.5,1435.4 2629.4,1219.8 3036.3,1302.4 3443.2,1411.4" fill="none" stroke="#FAFCFF" stroke-opacity="0" stroke-width="4.5"/><polyline points="-1439.6,2040.7 -1032.7,1874.7 -625.8,2105.3 -218.9,2042.9 188.0,2194.8 594.9,2062.3 1001.8,1966.0 1408.7,2060.7 1815.6,1888.5 2222.5,1922.3 2629.4,2060.7 3036.3,1947.3 3443.2,1848.8" fill="none" stroke="#FAFCFF" stroke-opacity="0" stroke-width="5.5"/><g opacity="1.00"><rect x="422.4" y="216" width="1075.2" height="540" fill="none" stroke="#FAFCFF" stroke-opacity="0.6" stroke-width="2"/><rect x="442.4" y="236" width="318.40000000000003" height="189" fill="#3B82F6" fill-opacity="0.14"/><rect x="800.8" y="236" width="318.40000000000003" height="189" fill="#3B82F6" fill-opacity="0.2"/><rect x="1159.2" y="236" width="318.40000000000003" height="189" fill="#3B82F6" fill-opacity="0.26"/></g><g opacity="1.00"><rect x="460.79999999999995" y="324" width="517.9707771018149" height="10" fill="#3B82F6" fill-opacity="0.9"/><rect x="460.79999999999995" y="358" width="559.0618132464589" height="10" fill="#FAFCFF" fill-opacity="0.4"/><rect x="460.79999999999995" y="392" width="352.0004768371582" height="10" fill="#FAFCFF" fill-opacity="0.4"/><rect x="460.79999999999995" y="426" width="493.0137858130038" height="10" fill="#3B82F6" fill-opacity="0.9"/><rect x="460.79999999999995" y="460" width="575.1368051692843" height="10" fill="#FAFCFF" fill-opacity="0.4"/><rect x="460.79999999999995" y="494" width="457.9308180771768" height="10" fill="#FAFCFF" fill-opacity="0.4"/><rect x="460.79999999999995" y="528" width="514.2663277834654" height="10" fill="#3B82F6" fill-opacity="0.9"/><rect x="460.79999999999995" y="562" width="778.5601877756417" height="10" fill="#FAFCFF" fill-opacity="0.4"/><rect x="460.79999999999995" y="596" width="771.863665021956" height="10" fill="#FAFCFF" fill-opacity="0.4"/></g><rect width="1920" height="1080" fill="#0A1F44" fill-opacity="0.13"/><circle cx="960" cy="540" r="7" fill="#3B82F6" fill-opacity="0.19"/><rect x="800" y="580" width="320" height="2" fill="#FAFCFF" fill-opacity="0.08"/></svg>