<svg xmlns="http://www.w3.org/2000/svg" width="1920" height="1080" viewBox="0 0 1920 1080"><rect width="1920" height="1080" fill="#0A1F44"/><polyline points="-405.6,418.4 -159.2,459.4 87.2,406.5 333.6,429.7 580.1,445.5 826.5,404.5 1072.9,460.5 1319.3,414.7 1565.7,414.7 1812.2,455.4 2058.6,449.6 2305.0,402.3 2551.4,471.1" fill="none" stroke="#FAFCFF" stroke-opacity="0.0640251572327044" stroke-width="1.5"/><polyline points="-405.6,586.4 -159.2,507.7 87.2,579.7 333.6,545.1 580.1,532.9 826.5,602.5 1072.9,487.9 1319.3,499.1 1565.7,517.7 1812.2,517.6 2058.6,586.4 2305.0,606.0 2551.4,571.2" fill="none" stroke="#FAFCFF" stroke-opacity="0.0832327044025157" stroke-width="2.5"/><polyline points="-405.6,724.9 -159.2,817.7 87.2,727.1 333.6,741.8 580.1,789.0 826.5,826.7 1072.9,691.5 1319.3,817.2 1565.7,711.1 1812.2,787.3 2058.6,705.6 2305.0,807.1 2551.4,700.1" fill="none" stroke="#FAFCFF" stroke-opacity="0.10244025157232703" stroke-width="3.5"/><polyline points="-405.6,1014.3 -159.2,1029.5 87.2,1090.9 333.6,1154.6 580.1,1159.9 826.5,1005.6 1072.9,1128.5 1319.3,1185.3 1565.7,1109.5 1812.2,1181.3 2058.6,1050.7 2305.0,1100.7 2551.4,1166.7" fill="none" stroke="#FAFCFF" stroke-opacity="0.12164779874213834" stroke-width="4.5"/><polyline points="-405.6,1547.9 -159.2,1447.3 87.2,1587.0 333.6,1549.2 580.1,1641.2 826.5,1560.9 1072.9,1502.6 1319.3,1559.9 1565.7,1455.7 1812.2,1476.2 2058.6,1560.0 2305.0,1491.3 2551.4,1431.7" fill="none" stroke="#FAFCFF" stroke-opacity="0.14085534591194965" stroke-width="5.5"/><circle cx="1280.7" cy="1043.9" r="3.134939862356431" fill="#3B82F6" fill-opacity="0.47"/><circle cx="-72.9" cy="636.5" r="3.129584990004014" fill="#3B82F6" fill-opacity="0.33"/><circle cx="1277.4" cy="766.6" r="8.75258145718557" fill="#FF6A1A" fill-opacity="0.33"/><circle cx="1498.7" cy="843.4" r="3.5783911789355467" fill="#3B82F6" fill-opacity="0.28"/><circle cx="1972.6" cy="953.9" r="5.372083945838132" fill="#FF6A1A" fill-opacity="0.24"/><circle cx="274.6" cy="600.4" r="8.532406190358142" fill="#3B82F6" fill-opacity="0.48"/><circle cx="1197.4" cy="894.1" r="3.7632229032340754" fill="#3B82F6" fill-opacity="0.41"/><circle cx="-2.5" cy="1047.8" r="6.9194761077776015" fill="#3B82F6" fill-opacity="0.39"/><circle cx="192.7" cy="407.1" r="5.8720698032937655" fill="#3B82F6" fill-opacity="0.40"/><circle cx="1827.9" cy="980.2" r="6.836546549069712" fill="#3B82F6" fill-opacity="0.48"/><circle cx="357.7" cy="1119.8" r="5.843725012278359" fill="#FF6A1A" fill-opacity="0.25"/><circle cx="1554.5" cy="1141.2" r="8.272772126448936" fill="#FF6A1A" fill-opacity="0.32"/><circle cx="2400.7" cy="678.8" r="5.291119771718668" fill="#FF6A1A" fill-opacity="0.36"/><circle cx="1035.5" cy="703.4" r="8.560081693329543" fill="#3B82F6" fill-opacity="0.25"/><circle cx="1979.2" cy="856.6" r="5.847113576324561" fill="#3B82F6" fill-opacity="0.34"/><circle cx="1343.3" cy="908.1" r="3.5884257834712465" fill="#3B82F6" fill-opacity="0.45"/><circle cx="2526.5" cy="1109.0" r="3.6417360099468703" fill="#FF6A1A" fill-opacity="0.28"/><circle cx="1268.2" cy="890.9" r="3.2670930397133153" fill="#3B82F6" fill-opacity="0.38"/><g opacity="1.00"><line x1="0" y1="842.4" x2="1920" y2="561.6" stroke="#FAFCFF" stroke-opacity="0.5" stroke-width="6"/><line x1="-49" y1="836" x2="-49" y2="864" stroke="#3B82F6" stroke-opacity="0.8" stroke-width="3"/><line x1="31" y1="824" x2="31" y2="852" stroke="#3B82F6" stroke-opacity="0.8" stroke-width="3"/><line x1="111" y1="812" x2="111" y2="840" stroke="#3B82F6" stroke-opacity="0.8" stroke-width="3"/><line x1="191" y1="800" x2="191" y2="828" stroke="#3B82F6" stroke-opacity="0.8" stroke-width="3"/><line x1="271" y1="789" x2="271" y2="817" stroke="#3B82F6" stroke-opacity="0.8" stroke-width="3"/><line x1="351" y1="777" x2="351" y2="805" stroke="#3B82F6" stroke-opacity="0.8" stroke-width="3"/><line x1="431" y1="765" x2="431" y2="793" stroke="#3B82F6" stroke-opacity="0.8" stroke-width="3"/><line x1="511" y1="754" x2="511" y2="782" stroke="#3B82F6" stroke-opacity="0.8" stroke-width="3"/><line x1="591" y1="742" x2="591" y2="770" stroke="#3B82F6" stroke-opacity="0.8" stroke-width="3"/><line x1="671" y1="730" x2="671" y2="758" stroke="#3B82F6" stroke-opacity="0.8" stroke-width="3"/><line x1="751" y1="719" x2="751" y2="747" stroke="#3B82F6" stroke-opacity="0.8" stroke-width="3"/><line x1="831" y1="707" x2="831" y2="735" stroke="#3B82F6" stroke-opacity="0.8" stroke-width="3"/><line x1="911" y1="695" x2="911" y2="723" stroke="#3B82F6" stroke-opacity="0.8" stroke-width="3"/><line x1="991" y1="683" x2="991" y2="711" stroke="#3B82F6" stroke-opacity="0.8" stroke-width="3"/><line x1="1071" y1="672" x2="1071" y2="700" stroke="#3B82F6" stroke-opacity="0.8" stroke-width="3"/><line x1="1151" y1="660" x2="1151" y2="688" stroke="#3B82F6" stroke-opacity="0.8" stroke-width="3"/><line x1="1231" y1="648" x2="1231" y2="676" stroke="#3B82F6" stroke-opacity="0.8" stroke-width="3"/><line x1="1311" y1="637" x2="1311" y2="665" stroke="#3B82F6" stroke-opacity="0.8" stroke-width="3"/><line x1="1391" y1="625" x2="1391" y2="653" stroke="#3B82F6" stroke-opacity="0.8" stroke-width="3"/><line x1="1471" y1="613" x2="1471" y2="641" stroke="#3B82F6" stroke-opacity="0.8" stroke-width="3"/><line x1="1551" y1="602" x2="1551" y2="630" stroke="#3B82F6" stroke-opacity="0.8" stroke-width="3"/><line x1="1631" y1="590" x2="1631" y2="618" stroke="#3B82F6" stroke-opacity="0.8" stroke-width="3"/><line x1="1711" y1="578" x2="1711" y2="606" stroke="#3B82F6" stroke-opacity="0.8" stroke-width="3"/><line x1="1791" y1="566" x2="1791" y2="594" stroke="#3B82F6" stroke-opacity="0.8" stroke-width="3"/><line x1="1871" y1="555" x2="1871" y2="583" stroke="#3B82F6" stroke-opacity="0.8" stroke-width="3"/><line x1="1951" y1="543" x2="1951" y2="571" stroke="#3B82F6" stroke-opacity="0.8" stroke-width="3"/><line x1="2031" y1="531" x2="2031" y2="559" stroke="#3B82F6" stroke-opacity="0.8" stroke-width="3"/></g></svg>