<svg xmlns="http://www.w3.org/2000/svg" width="1920" height="1080" viewBox="0 0 1920 1080"><rect width="1920" height="1080" fill="#0A1F44"/><polyline points="-1523.7,162.6 -1108.1,231.7 -692.6,142.6 -277.1,181.7 138.4,208.3 554.0,139.2 969.5,233.7 1385.0,156.5 1800.5,156.3 2216.0,225.0 2631.6,215.2 3047.1,135.5 3462.6,251.4" fill="none" stroke="#FAFCFF" stroke-opacity="0" stroke-width="1.5"/><polyline points="-1523.7,446.0 -1108.1,313.1 -692.6,434.6 -277.1,376.3 138.4,355.6 554.0,473.0 969.5,279.9 1385.0,298.6 1800.5,330.0 2216.0,329.9 2631.6,446.0 3047.1,479.0 3462.6,420.3" fill="none" stroke="#FAFCFF" stroke-opacity="0" stroke-width="2.5"/><polyline points="-1523.7,679.5 -1108.1,836.0 -692.6,683.2 -277.1,708.0 138.4,787.5 554.0,851.1 969.5,623.1 1385.0,835.1 1800.5,656.3 2216.0,784.6 2631.6,646.9 3047.1,818.2 3462.6,637.6" fill="none" stroke="#FAFCFF" stroke-opacity="0" stroke-width="3.5"/><polyline points="-1523.7,1167.4 -1108.1,1193.1 -692.6,1296.6 -277.1,1404.1 138.4,1413.0 554.0,1152.8 969.5,1360.0 1385.0,1455.8 1800.5,1328.1 2216.0,1449.0 2631.6,1228.9 3047.1,1313.2 3462.6,1424.5" fill="none" stroke="#FAFCFF" stroke-opacity="0" stroke-width="4.5"/><polyline points="-1523.7,2067.2 -1108.1,1897.6 -692.6,2133.1 -277.1,2069.5 138.4,2224.5 554.0,2089.2 969.5,1990.9 1385.0,2087.6 1800.5,1911.8 2216.0,1946.3 2631.6,2087.6 3047.1,1971.8 3462.6,1871.3" fill="none" stroke="#FAFCFF" stroke-opacity="0" stroke-width="5.5"/><g opacity="0.06"><rect x="422.4" y="216" width="1075.2" height="540" fill="none" stroke="#FAFCFF" stroke-opacity="0.6" stroke-width="2"/><rect x="442.4" y="236" width="318.40000000000003" height="189" fill="#3B82F6" fill-opacity="0.14"/><rect x="800.8" y="236" width="318.40000000000003" height="189" fill="#3B82F6" fill-opacity="0.2"/><rect x="1159.2" y="236" width="318.40000000000003" height="189" fill="#3B82F6" fill-opacity="0.26"/></g><g opacity="0.31"><rect x="460.79999999999995" y="324" width="517.9707771018149" height="10" fill="#3B82F6" fill-opacity="0.9"/><rect x="460.79999999999995" y="358" width="559.0618132464589" height="10" fill="#FAFCFF" fill-opacity="0.4"/><rect x="460.79999999999995" y="392" width="352.0004768371582" height="10" fill="#FAFCFF" fill-opacity="0.4"/><rect x="460.79999999999995" y="426" width="493.0137858130038" height="10" fill="#3B82F6" fill-opacity="0.9"/><rect x="460.79999999999995" y="460" width="575.1368051692843" height="10" fill="#FAFCFF" fill-opacity="0.4"/><rect x="460.79999999999995" y="494" width="457.9308180771768" height="10" fill="#FAFCFF" fill-opacity="0.4"/><rect x="460.79999999999995" y="528" width="514.2663277834654" height="10" fill="#3B82F6" fill-opacity="0.9"/><rect x="460.79999999999995" y="562" width="778.5601877756417" height="10" fill="#FAFCFF" fill-opacity="0.4"/><rect x="460.79999999999995" y="596" width="771.863665021956" height="10" fill="#FAFCFF" fill-opacity="0.4"/></g><rect width="1920" height="1080" fill="#0A1F44" fill-opacity="0.57"/><circle cx="960" cy="540" r="7" fill="#3B82F6" fill-opacity="0.82"/><rect x="800" y="580" width="320" height="2" fill="#FAFCFF" fill-opacity="0.33"/></svg>