<svg xmlns="http://www.w3.org/2000/svg" width="1920" height="1080" viewBox="0 0 1920 1080"><rect width="1920" height="1080" fill="#0A1F44"/><polyline points="-1515.4,163.5 -1100.5,232.5 -685.5,143.5 -270.6,182.6 144.3,209.2 559.3,140.2 974.2,234.5 1389.1,157.4 1804.1,157.2 2219.0,225.8 2633.9,216.0 3048.9,136.5 3463.8,252.2" fill="none" stroke="#FAFCFF" stroke-opacity="0" stroke-width="1.5"/><polyline points="-1515.4,446.5 -1100.5,313.8 -685.5,435.1 -270.6,376.9 144.3,356.3 559.3,473.5 974.2,280.6 1389.1,299.3 1804.1,330.7 2219.0,330.6 2633.9,446.5 3048.9,479.5 3463.8,420.9" fill="none" stroke="#FAFCFF" stroke-opacity="0" stroke-width="2.5"/><polyline points="-1515.4,679.7 -1100.5,835.9 -685.5,683.4 -270.6,708.1 144.3,787.5 559.3,851.0 974.2,623.3 1389.1,835.1 1804.1,656.5 2219.0,784.6 2633.9,647.1 3048.9,818.1 3463.8,637.8" fill="none" stroke="#FAFCFF" stroke-opacity="0" stroke-width="3.5"/><polyline points="-1515.4,1166.9 -1100.5,1192.6 -685.5,1295.9 -270.6,1403.3 144.3,1412.1 559.3,1152.2 974.2,1359.2 1389.1,1454.8 1804.1,1327.3 2219.0,1448.1 2633.9,1228.2 3048.9,1312.5 3463.8,1423.6" fill="none" stroke="#FAFCFF" stroke-opacity="0" stroke-width="4.5"/><polyline points="-1515.4,2065.4 -1100.5,1896.1 -685.5,2131.2 -270.6,2067.6 144.3,2222.5 559.3,2087.4 974.2,1989.2 1389.1,2085.7 1804.1,1910.2 2219.0,1944.7 2633.9,2085.8 3048.9,1970.1 3463.8,1869.7" fill="none" stroke="#FAFCFF" stroke-opacity="0" stroke-width="5.5"/><g opacity="0.22"><rect x="422.4" y="216" width="1075.2" height="540" fill="none" stroke="#FAFCFF" stroke-opacity="0.6" stroke-width="2"/><rect x="442.4" y="236" width="318.40000000000003" height="189" fill="#3B82F6" fill-opacity="0.14"/><rect x="800.8" y="236" width="318.40000000000003" height="189" fill="#3B82F6" fill-opacity="0.2"/><rect x="1159.2" y="236" width="318.40000000000003" height="189" fill="#3B82F6" fill-opacity="0.26"/></g><g opacity="0.47"><rect x="460.79999999999995" y="324" width="517.9707771018149" height="10" fill="#3B82F6" fill-opacity="0.9"/><rect x="460.79999999999995" y="358" width="559.0618132464589" height="10" fill="#FAFCFF" fill-opacity="0.4"/><rect x="460.79999999999995" y="392" width="352.0004768371582" height="10" fill="#FAFCFF" fill-opacity="0.4"/><rect x="460.79999999999995" y="426" width="493.0137858130038" height="10" fill="#3B82F6" fill-opacity="0.9"/><rect x="460.79999999999995" y="460" width="575.1368051692843" height="10" fill="#FAFCFF" fill-opacity="0.4"/><rect x="460.79999999999995" y="494" width="457.9308180771768" height="10" fill="#FAFCFF" fill-opacity="0.4"/><rect x="460.79999999999995" y="528" width="514.2663277834654" height="10" fill="#3B82F6" fill-opacity="0.9"/><rect x="460.79999999999995" y="562" width="778.5601877756417" height="10" fill="#FAFCFF" fill-opacity="0.4"/><rect x="460.79999999999995" y="596" width="771.863665021956" height="10" fill="#FAFCFF" fill-opacity="0.4"/></g><rect width="1920" height="1080" fill="#0A1F44" fill-opacity="0.51"/><circle cx="960" cy="540" r="7" fill="#3B82F6" fill-opacity="0.73"/><rect x="800" y="580" width="320" height="2" fill="#FAFCFF" fill-opacity="0.29"/></svg>