<svg xmlns="http://www.w3.org/2000/svg" width="1920" height="1080" viewBox="0 0 1920 1080"><rect width="1920" height="1080" fill="#0A1F44"/><polyline points="-9.4,536.8 158.8,564.7 326.9,528.7 495.1,544.5 663.2,555.3 831.4,527.3 999.6,565.5 1167.7,534.3 1335.9,534.2 1504.0,562.0 1672.2,558.1 1840.3,525.8 2008.5,572.7" fill="none" stroke="#FAFCFF" stroke-opacity="0.1" stroke-width="1.5"/><polyline points="-9.4,651.4 158.8,597.7 326.9,646.8 495.1,623.2 663.2,614.9 831.4,662.4 999.6,584.2 1167.7,591.8 1335.9,604.5 1504.0,604.5 1672.2,651.4 1840.3,664.8 2008.5,641.1" fill="none" stroke="#FAFCFF" stroke-opacity="0.13" stroke-width="2.5"/><polyline points="-9.4,746.0 158.8,809.3 326.9,747.4 495.1,757.5 663.2,789.6 831.4,815.4 999.6,723.1 1167.7,808.9 1335.9,736.5 1504.0,788.5 1672.2,732.8 1840.3,802.0 2008.5,729.0" fill="none" stroke="#FAFCFF" stroke-opacity="0.16" stroke-width="3.5"/><polyline points="-9.4,943.4 158.8,953.8 326.9,995.7 495.1,1039.2 663.2,1042.8 831.4,937.5 999.6,1021.3 1167.7,1060.1 1335.9,1008.4 1504.0,1057.4 1672.2,968.3 1840.3,1002.4 2008.5,1047.4" fill="none" stroke="#FAFCFF" stroke-opacity="0.19" stroke-width="4.5"/><polyline points="-9.4,1307.5 158.8,1238.9 326.9,1334.2 495.1,1308.4 663.2,1371.2 831.4,1316.4 999.6,1276.6 1167.7,1315.8 1335.9,1244.6 1504.0,1258.6 1672.2,1315.8 1840.3,1268.9 2008.5,1228.2" fill="none" stroke="#FAFCFF" stroke-opacity="0.22" stroke-width="5.5"/><circle cx="1141.4" cy="963.6" r="2.1392528904060577" fill="#3B82F6" fill-opacity="0.60"/><circle cx="217.7" cy="685.6" r="2.1355987768789633" fill="#3B82F6" fill-opacity="0.42"/><circle cx="1139.1" cy="774.4" r="5.972677627928879" fill="#FF6A1A" fill-opacity="0.42"/><circle cx="1290.1" cy="826.8" r="2.4418598150675" fill="#3B82F6" fill-opacity="0.64"/><circle cx="1613.5" cy="902.2" r="3.665858553343942" fill="#FF6A1A" fill-opacity="0.60"/><circle cx="454.8" cy="661.0" r="5.822432137859906" fill="#3B82F6" fill-opacity="0.71"/><circle cx="1084.5" cy="861.4" r="2.5679872107449255" fill="#3B82F6" fill-opacity="0.75"/><circle cx="265.7" cy="966.2" r="4.721784121412885" fill="#3B82F6" fill-opacity="0.39"/><circle cx="398.9" cy="529.1" r="4.007044106396349" fill="#3B82F6" fill-opacity="0.74"/><circle cx="1514.7" cy="920.2" r="4.665193786045941" fill="#3B82F6" fill-opacity="0.67"/><circle cx="511.5" cy="1015.4" r="3.9877018929026313" fill="#FF6A1A" fill-opacity="0.54"/><circle cx="1328.2" cy="1030.0" r="5.6452603431677595" fill="#FF6A1A" fill-opacity="0.43"/><circle cx="1905.7" cy="714.4" r="3.610609377567341" fill="#FF6A1A" fill-opacity="0.37"/><circle cx="974.1" cy="731.2" r="5.841317635612487" fill="#3B82F6" fill-opacity="0.60"/><circle cx="1618.0" cy="835.8" r="3.9900142165032233" fill="#3B82F6" fill-opacity="0.70"/><circle cx="1184.1" cy="870.9" r="2.448707332946501" fill="#3B82F6" fill-opacity="0.55"/><circle cx="1991.5" cy="1008.0" r="2.4850857201192795" fill="#FF6A1A" fill-opacity="0.49"/><circle cx="1132.8" cy="859.2" r="2.2294329509653554" fill="#3B82F6" fill-opacity="0.37"/><g opacity="0.04"><line x1="0" y1="842.4" x2="1920" y2="561.6" stroke="#FAFCFF" stroke-opacity="0.5" stroke-width="6"/><line x1="-64" y1="838" x2="-64" y2="866" stroke="#3B82F6" stroke-opacity="0.8" stroke-width="3"/><line x1="16" y1="826" x2="16" y2="854" stroke="#3B82F6" stroke-opacity="0.8" stroke-width="3"/><line x1="96" y1="814" x2="96" y2="842" stroke="#3B82F6" stroke-opacity="0.8" stroke-width="3"/><line x1="176" y1="803" x2="176" y2="831" stroke="#3B82F6" stroke-opacity="0.8" stroke-width="3"/><line x1="256" y1="791" x2="256" y2="819" stroke="#3B82F6" stroke-opacity="0.8" stroke-width="3"/><line x1="336" y1="779" x2="336" y2="807" stroke="#3B82F6" stroke-opacity="0.8" stroke-width="3"/><line x1="416" y1="768" x2="416" y2="796" stroke="#3B82F6" stroke-opacity="0.8" stroke-width="3"/><line x1="496" y1="756" x2="496" y2="784" stroke="#3B82F6" stroke-opacity="0.8" stroke-width="3"/><line x1="576" y1="744" x2="576" y2="772" stroke="#3B82F6" stroke-opacity="0.8" stroke-width="3"/><line x1="656" y1="732" x2="656" y2="760" stroke="#3B82F6" stroke-opacity="0.8" stroke-width="3"/><line x1="736" y1="721" x2="736" y2="749" stroke="#3B82F6" stroke-opacity="0.8" stroke-width="3"/><line x1="816" y1="709" x2="816" y2="737" stroke="#3B82F6" stroke-opacity="0.8" stroke-width="3"/><line x1="896" y1="697" x2="896" y2="725" stroke="#3B82F6" stroke-opacity="0.8" stroke-width="3"/><line x1="976" y1="686" x2="976" y2="714" stroke="#3B82F6" stroke-opacity="0.8" stroke-width="3"/><line x1="1056" y1="674" x2="1056" y2="702" stroke="#3B82F6" stroke-opacity="0.8" stroke-width="3"/><line x1="1136" y1="662" x2="1136" y2="690" stroke="#3B82F6" stroke-opacity="0.8" stroke-width="3"/><line x1="1216" y1="651" x2="1216" y2="679" stroke="#3B82F6" stroke-opacity="0.8" stroke-width="3"/><line x1="1296" y1="639" x2="1296" y2="667" stroke="#3B82F6" stroke-opacity="0.8" stroke-width="3"/><line x1="1376" y1="627" x2="1376" y2="655" stroke="#3B82F6" stroke-opacity="0.8" stroke-width="3"/><line x1="1456" y1="615" x2="1456" y2="643" stroke="#3B82F6" stroke-opacity="0.8" stroke-width="3"/><line x1="1536" y1="604" x2="1536" y2="632" stroke="#3B82F6" stroke-opacity="0.8" stroke-width="3"/><line x1="1616" y1="592" x2="1616" y2="620" stroke="#3B82F6" stroke-opacity="0.8" stroke-width="3"/><line x1="1696" y1="580" x2="1696" y2="608" stroke="#3B82F6" stroke-opacity="0.8" stroke-width="3"/><line x1="1776" y1="569" x2="1776" y2="597" stroke="#3B82F6" stroke-opacity="0.8" stroke-width="3"/><line x1="1856" y1="557" x2="1856" y2="585" stroke="#3B82F6" stroke-opacity="0.8" stroke-width="3"/><line x1="1936" y1="545" x2="1936" y2="573" stroke="#3B82F6" stroke-opacity="0.8" stroke-width="3"/><line x1="2016" y1="534" x2="2016" y2="562" stroke="#3B82F6" stroke-opacity="0.8" stroke-width="3"/></g></svg>