<svg xmlns="http://www.w3.org/2000/svg" width="1920" height="1080" viewBox="0 0 1920 1080"><rect width="1920" height="1080" fill="#0A1F44"/><polyline points="-1156.6,234.4 -788.5,295.7 -420.5,216.7 -52.4,251.4 315.6,274.9 683.6,213.7 1051.7,297.4 1419.7,229.0 1787.7,228.9 2155.8,289.7 2523.8,281.0 2891.9,210.4 3259.9,313.1" fill="none" stroke="#FAFCFF" stroke-opacity="0" stroke-width="1.5"/><polyline points="-1156.6,485.4 -788.5,367.8 -420.5,475.4 -52.4,423.7 315.6,405.4 683.6,509.4 1051.7,338.3 1419.7,354.9 1787.7,382.7 2155.8,382.6 2523.8,485.4 2891.9,514.7 3259.9,462.7" fill="none" stroke="#FAFCFF" stroke-opacity="0" stroke-width="2.5"/><polyline points="-1156.6,692.3 -788.5,830.8 -420.5,695.6 -52.4,717.5 315.6,787.9 683.6,844.3 1051.7,642.3 1419.7,830.1 1787.7,671.7 2155.8,785.4 2523.8,663.4 2891.9,815.1 3259.9,655.2" fill="none" stroke="#FAFCFF" stroke-opacity="0" stroke-width="3.5"/><polyline points="-1156.6,1124.4 -788.5,1147.2 -420.5,1238.8 -52.4,1334.1 315.6,1341.9 683.6,1111.4 1051.7,1295.0 1419.7,1379.8 1787.7,1266.7 2155.8,1373.8 2523.8,1178.8 2891.9,1253.6 3259.9,1352.1" fill="none" stroke="#FAFCFF" stroke-opacity="0" stroke-width="4.5"/><polyline points="-1156.6,1921.4 -788.5,1771.2 -420.5,1979.7 -52.4,1923.4 315.6,2060.7 683.6,1940.9 1051.7,1853.8 1419.7,1939.4 1787.7,1783.7 2155.8,1814.3 2523.8,1939.5 2891.9,1836.8 3259.9,1747.8" fill="none" stroke="#FAFCFF" stroke-opacity="0" stroke-width="5.5"/><g opacity="1.00"><rect x="422.4" y="216" width="1075.2" height="540" fill="none" stroke="#FAFCFF" stroke-opacity="0.6" stroke-width="2"/><rect x="442.4" y="236" width="318.40000000000003" height="189" fill="#3B82F6" fill-opacity="0.14"/><rect x="800.8" y="236" width="318.40000000000003" height="189" fill="#3B82F6" fill-opacity="0.2"/><rect x="1159.2" y="236" width="318.40000000000003" height="189" fill="#3B82F6" fill-opacity="0.26"/></g><g opacity="0.65"><rect x="460.79999999999995" y="324" width="517.9707771018149" height="10" fill="#3B82F6" fill-opacity="0.9"/><rect x="460.79999999999995" y="358" width="559.0618132464589" height="10" fill="#FAFCFF" fill-opacity="0.4"/><rect x="460.79999999999995" y="392" width="352.0004768371582" height="10" fill="#FAFCFF" fill-opacity="0.4"/><rect x="460.79999999999995" y="426" width="475.02963513554766" height="10" fill="#3B82F6" fill-opacity="0.9"/></g></svg>