<svg xmlns="http://www.w3.org/2000/svg" width="1920" height="1080" viewBox="0 0 1920 1080"><rect width="1920" height="1080" fill="#0A1F44"/><polyline points="-611.9,364.6 -330.0,411.5 -48.0,351.1 234.0,377.6 515.9,395.7 797.9,348.8 1079.9,412.9 1361.8,360.5 1643.8,360.4 1925.7,407.0 2207.7,400.3 2489.7,346.2 2771.6,424.9" fill="none" stroke="#FAFCFF" stroke-opacity="0.026289308176100635" stroke-width="1.5"/><polyline points="-611.9,556.9 -330.0,466.8 -48.0,549.2 234.0,509.6 515.9,495.6 797.9,575.3 1079.9,444.2 1361.8,456.9 1643.8,478.2 1925.7,478.2 2207.7,556.9 2489.7,579.3 2771.6,539.5" fill="none" stroke="#FAFCFF" stroke-opacity="0.034176100628930825" stroke-width="2.5"/><polyline points="-611.9,715.4 -330.0,821.5 -48.0,717.9 234.0,734.7 515.9,788.7 797.9,831.8 1079.9,677.1 1361.8,821.0 1643.8,699.6 1925.7,786.7 2207.7,693.3 2489.7,809.5 2771.6,687.0" fill="none" stroke="#FAFCFF" stroke-opacity="0.04206289308176102" stroke-width="3.5"/><polyline points="-611.9,1046.5 -330.0,1063.9 -48.0,1134.1 234.0,1207.1 515.9,1213.1 797.9,1036.5 1079.9,1177.1 1361.8,1242.1 1643.8,1155.5 1925.7,1237.6 2207.7,1088.2 2489.7,1145.4 2771.6,1220.9" fill="none" stroke="#FAFCFF" stroke-opacity="0.049949685534591205" stroke-width="4.5"/><polyline points="-611.9,1657.0 -330.0,1542.0 -48.0,1701.8 234.0,1658.6 515.9,1763.8 797.9,1672.0 1079.9,1605.2 1361.8,1670.9 1643.8,1551.6 1925.7,1575.0 2207.7,1670.9 2489.7,1592.3 2771.6,1524.1" fill="none" stroke="#FAFCFF" stroke-opacity="0.0578364779874214" stroke-width="5.5"/><circle cx="1317.6" cy="1080.4" r="3.5871536202055094" fill="#3B82F6" fill-opacity="0.13"/><circle cx="-231.2" cy="614.2" r="3.5810263097663637" fill="#3B82F6" fill-opacity="0.14"/><circle cx="1313.9" cy="763.1" r="10.015137654566315" fill="#FF6A1A" fill-opacity="0.14"/><circle cx="1567.1" cy="850.9" r="4.094572602863753" fill="#3B82F6" fill-opacity="0.18"/><circle cx="2109.4" cy="977.3" r="6.147004797685708" fill="#FF6A1A" fill-opacity="0.18"/><circle cx="166.4" cy="572.9" r="9.763202198016263" fill="#3B82F6" fill-opacity="0.17"/><circle cx="1222.4" cy="909.0" r="4.3060662257264015" fill="#3B82F6" fill-opacity="0.20"/><circle cx="-150.7" cy="1084.8" r="7.917607628773668" fill="#3B82F6" fill-opacity="0.11"/><circle cx="72.7" cy="351.7" r="6.719113404986199" fill="#3B82F6" fill-opacity="0.20"/><circle cx="1943.7" cy="1007.5" r="7.82271551606901" fill="#3B82F6" fill-opacity="0.16"/><circle cx="261.5" cy="1167.2" r="6.686679889777248" fill="#FF6A1A" fill-opacity="0.16"/><circle cx="1630.9" cy="1191.7" r="9.4661160294859" fill="#FF6A1A" fill-opacity="0.14"/><circle cx="2599.2" cy="662.6" r="6.054361575470504" fill="#FF6A1A" fill-opacity="0.12"/><circle cx="1037.1" cy="690.7" r="9.794869880662095" fill="#3B82F6" fill-opacity="0.18"/><circle cx="2116.9" cy="866.0" r="6.690557252763247" fill="#3B82F6" fill-opacity="0.19"/><circle cx="1389.3" cy="924.9" r="4.106054694887206" fill="#3B82F6" fill-opacity="0.12"/><circle cx="2743.1" cy="1154.9" r="4.167054899131082" fill="#FF6A1A" fill-opacity="0.15"/><circle cx="1303.4" cy="905.3" r="3.738369837865608" fill="#3B82F6" fill-opacity="0.11"/><g opacity="1.00"><line x1="0" y1="842.4" x2="1920" y2="561.6" stroke="#FAFCFF" stroke-opacity="0.5" stroke-width="6"/><line x1="-44" y1="835" x2="-44" y2="863" stroke="#3B82F6" stroke-opacity="0.8" stroke-width="3"/><line x1="36" y1="823" x2="36" y2="851" stroke="#3B82F6" stroke-opacity="0.8" stroke-width="3"/><line x1="116" y1="811" x2="116" y2="839" stroke="#3B82F6" stroke-opacity="0.8" stroke-width="3"/><line x1="196" y1="800" x2="196" y2="828" stroke="#3B82F6" stroke-opacity="0.8" stroke-width="3"/><line x1="276" y1="788" x2="276" y2="816" stroke="#3B82F6" stroke-opacity="0.8" stroke-width="3"/><line x1="356" y1="776" x2="356" y2="804" stroke="#3B82F6" stroke-opacity="0.8" stroke-width="3"/><line x1="436" y1="765" x2="436" y2="793" stroke="#3B82F6" stroke-opacity="0.8" stroke-width="3"/><line x1="516" y1="753" x2="516" y2="781" stroke="#3B82F6" stroke-opacity="0.8" stroke-width="3"/><line x1="596" y1="741" x2="596" y2="769" stroke="#3B82F6" stroke-opacity="0.8" stroke-width="3"/><line x1="676" y1="730" x2="676" y2="758" stroke="#3B82F6" stroke-opacity="0.8" stroke-width="3"/><line x1="756" y1="718" x2="756" y2="746" stroke="#3B82F6" stroke-opacity="0.8" stroke-width="3"/><line x1="836" y1="706" x2="836" y2="734" stroke="#3B82F6" stroke-opacity="0.8" stroke-width="3"/><line x1="916" y1="694" x2="916" y2="722" stroke="#3B82F6" stroke-opacity="0.8" stroke-width="3"/><line x1="996" y1="683" x2="996" y2="711" stroke="#3B82F6" stroke-opacity="0.8" stroke-width="3"/><line x1="1076" y1="671" x2="1076" y2="699" stroke="#3B82F6" stroke-opacity="0.8" stroke-width="3"/><line x1="1156" y1="659" x2="1156" y2="687" stroke="#3B82F6" stroke-opacity="0.8" stroke-width="3"/><line x1="1236" y1="648" x2="1236" y2="676" stroke="#3B82F6" stroke-opacity="0.8" stroke-width="3"/><line x1="1316" y1="636" x2="1316" y2="664" stroke="#3B82F6" stroke-opacity="0.8" stroke-width="3"/><line x1="1396" y1="624" x2="1396" y2="652" stroke="#3B82F6" stroke-opacity="0.8" stroke-width="3"/><line x1="1476" y1="613" x2="1476" y2="641" stroke="#3B82F6" stroke-opacity="0.8" stroke-width="3"/><line x1="1556" y1="601" x2="1556" y2="629" stroke="#3B82F6" stroke-opacity="0.8" stroke-width="3"/><line x1="1636" y1="589" x2="1636" y2="617" stroke="#3B82F6" stroke-opacity="0.8" stroke-width="3"/><line x1="1716" y1="577" x2="1716" y2="605" stroke="#3B82F6" stroke-opacity="0.8" stroke-width="3"/><line x1="1796" y1="566" x2="1796" y2="594" stroke="#3B82F6" stroke-opacity="0.8" stroke-width="3"/><line x1="1876" y1="554" x2="1876" y2="582" stroke="#3B82F6" stroke-opacity="0.8" stroke-width="3"/><line x1="1956" y1="542" x2="1956" y2="570" stroke="#3B82F6" stroke-opacity="0.8" stroke-width="3"/><line x1="2036" y1="531" x2="2036" y2="559" stroke="#3B82F6" stroke-opacity="0.8" stroke-width="3"/></g><g opacity="0.02"><rect x="422.4" y="216" width="1075.2" height="540" fill="none" stroke="#FAFCFF" stroke-opacity="0.6" stroke-width="2"/><rect x="442.4" y="236" width="318.40000000000003" height="189" fill="#3B82F6" fill-opacity="0.14"/><rect x="800.8" y="236" width="318.40000000000003" height="189" fill="#3B82F6" fill-opacity="0.2"/><rect x="1159.2" y="236" width="318.40000000000003" height="189" fill="#3B82F6" fill-opacity="0.26"/></g></svg>