<svg xmlns="http://www.w3.org/2000/svg" width="1920" height="1080" viewBox="0 0 1920 1080"><rect width="1920" height="1080" fill="#0A1F44"/><polyline points="-1269.0,209.9 -884.7,273.8 -500.5,191.4 -116.2,227.6 268.0,252.2 652.3,188.3 1036.5,275.6 1420.8,204.2 1805.0,204.1 2189.3,267.6 2573.5,258.6 2957.8,184.9 3342.0,292.0" fill="none" stroke="#FAFCFF" stroke-opacity="0" stroke-width="1.5"/><polyline points="-1269.0,472.0 -884.7,349.1 -500.5,461.4 -116.2,407.5 268.0,388.4 652.3,497.0 1036.5,318.4 1420.8,335.7 1805.0,364.7 2189.3,364.6 2573.5,472.0 2957.8,502.5 3342.0,448.3" fill="none" stroke="#FAFCFF" stroke-opacity="0" stroke-width="2.5"/><polyline points="-1269.0,687.9 -884.7,832.6 -500.5,691.4 -116.2,714.2 268.0,787.8 652.3,846.6 1036.5,635.7 1420.8,831.8 1805.0,666.4 2189.3,785.1 2573.5,657.8 2957.8,816.1 3342.0,649.2" fill="none" stroke="#FAFCFF" stroke-opacity="0" stroke-width="3.5"/><polyline points="-1269.0,1139.1 -884.7,1162.9 -500.5,1258.6 -116.2,1358.0 268.0,1366.2 652.3,1125.5 1036.5,1317.2 1420.8,1405.7 1805.0,1287.6 2189.3,1399.5 2573.5,1195.9 2957.8,1273.9 3342.0,1376.9" fill="none" stroke="#FAFCFF" stroke-opacity="0" stroke-width="4.5"/><polyline points="-1269.0,1971.2 -884.7,1814.4 -500.5,2032.1 -116.2,1973.2 268.0,2116.7 652.3,1991.5 1036.5,1900.6 1420.8,1990.0 1805.0,1827.4 2189.3,1859.4 2573.5,1990.1 2957.8,1882.9 3342.0,1790.0" fill="none" stroke="#FAFCFF" stroke-opacity="0" stroke-width="5.5"/><g opacity="1.00"><rect x="422.4" y="216" width="1075.2" height="540" fill="none" stroke="#FAFCFF" stroke-opacity="0.6" stroke-width="2"/><rect x="442.4" y="236" width="318.40000000000003" height="189" fill="#3B82F6" fill-opacity="0.14"/><rect x="800.8" y="236" width="318.40000000000003" height="189" fill="#3B82F6" fill-opacity="0.2"/><rect x="1159.2" y="236" width="318.40000000000003" height="189" fill="#3B82F6" fill-opacity="0.26"/></g><g opacity="1.00"><rect x="460.79999999999995" y="324" width="517.9707771018149" height="10" fill="#3B82F6" fill-opacity="0.9"/><rect x="460.79999999999995" y="358" width="559.0618132464589" height="10" fill="#FAFCFF" fill-opacity="0.4"/><rect x="460.79999999999995" y="392" width="352.0004768371582" height="10" fill="#FAFCFF" fill-opacity="0.4"/><rect x="460.79999999999995" y="426" width="493.0137858130038" height="10" fill="#3B82F6" fill-opacity="0.9"/><rect x="460.79999999999995" y="460" width="575.1368051692843" height="10" fill="#FAFCFF" fill-opacity="0.4"/><rect x="460.79999999999995" y="494" width="455.0507500389561" height="10" fill="#FAFCFF" fill-opacity="0.4"/></g></svg>