<svg xmlns="http://www.w3.org/2000/svg" width="1920" height="1080" viewBox="0 0 1920 1080"><rect width="1920" height="1080" fill="#0A1F44"/><polyline points="-1245.1,215.0 -864.2,278.4 -483.3,196.7 -102.5,232.5 278.4,256.9 659.3,193.6 1040.1,280.2 1421.0,209.4 1801.8,209.3 2182.7,272.2 2563.6,263.3 2944.4,190.2 3325.3,296.4" fill="none" stroke="#FAFCFF" stroke-opacity="0" stroke-width="1.5"/><polyline points="-1245.1,474.8 -864.2,353.0 -483.3,464.3 -102.5,410.9 278.4,392.0 659.3,499.6 1040.1,322.5 1421.0,339.7 1801.8,368.5 2182.7,368.4 2563.6,474.8 2944.4,505.1 3325.3,451.3" fill="none" stroke="#FAFCFF" stroke-opacity="0" stroke-width="2.5"/><polyline points="-1245.1,688.8 -864.2,832.2 -483.3,692.2 -102.5,714.9 278.4,787.8 659.3,846.1 1040.1,637.1 1421.0,831.5 1801.8,667.5 2182.7,785.2 2563.6,658.9 2944.4,815.9 3325.3,650.4" fill="none" stroke="#FAFCFF" stroke-opacity="0" stroke-width="3.5"/><polyline points="-1245.1,1136.1 -864.2,1159.6 -483.3,1254.4 -102.5,1353.0 278.4,1361.1 659.3,1122.6 1040.1,1312.5 1421.0,1400.3 1801.8,1283.3 2182.7,1394.2 2563.6,1192.3 2944.4,1269.7 3325.3,1371.7" fill="none" stroke="#FAFCFF" stroke-opacity="0" stroke-width="4.5"/><polyline points="-1245.1,1960.8 -864.2,1805.3 -483.3,2021.2 -102.5,1962.8 278.4,2105.0 659.3,1980.9 1040.1,1890.8 1421.0,1979.4 1801.8,1818.3 2182.7,1849.9 2563.6,1979.5 2944.4,1873.3 3325.3,1781.2" fill="none" stroke="#FAFCFF" stroke-opacity="0" stroke-width="5.5"/><g opacity="1.00"><rect x="422.4" y="216" width="1075.2" height="540" fill="none" stroke="#FAFCFF" stroke-opacity="0.6" stroke-width="2"/><rect x="442.4" y="236" width="318.40000000000003" height="189" fill="#3B82F6" fill-opacity="0.14"/><rect x="800.8" y="236" width="318.40000000000003" height="189" fill="#3B82F6" fill-opacity="0.2"/><rect x="1159.2" y="236" width="318.40000000000003" height="189" fill="#3B82F6" fill-opacity="0.26"/></g><g opacity="0.92"><rect x="460.79999999999995" y="324" width="517.9707771018149" height="10" fill="#3B82F6" fill-opacity="0.9"/><rect x="460.79999999999995" y="358" width="559.0618132464589" height="10" fill="#FAFCFF" fill-opacity="0.4"/><rect x="460.79999999999995" y="392" width="352.0004768371582" height="10" fill="#FAFCFF" fill-opacity="0.4"/><rect x="460.79999999999995" y="426" width="493.0137858130038" height="10" fill="#3B82F6" fill-opacity="0.9"/><rect x="460.79999999999995" y="460" width="575.1368051692843" height="10" fill="#FAFCFF" fill-opacity="0.4"/><rect x="460.79999999999995" y="494" width="167.0439462168326" height="10" fill="#FAFCFF" fill-opacity="0.4"/></g></svg>