<svg xmlns="http://www.w3.org/2000/svg" width="1920" height="1080" viewBox="0 0 1920 1080"><rect width="1920" height="1080" fill="#0A1F44"/><polyline points="-1232.9,217.7 -853.7,280.7 -474.6,199.4 -95.5,235.1 283.6,259.4 662.7,196.3 1041.9,282.5 1421.0,212.1 1800.1,211.9 2179.2,274.6 2558.4,265.7 2937.5,193.0 3316.6,298.7" fill="none" stroke="#FAFCFF" stroke-opacity="0" stroke-width="1.5"/><polyline points="-1232.9,476.2 -853.7,355.0 -474.6,465.8 -95.5,412.6 283.6,393.8 662.7,500.9 1041.9,324.7 1421.0,341.8 1800.1,370.4 2179.2,370.3 2558.4,476.2 2937.5,506.4 3316.6,452.8" fill="none" stroke="#FAFCFF" stroke-opacity="0" stroke-width="2.5"/><polyline points="-1232.9,689.3 -853.7,832.0 -474.6,692.7 -95.5,715.3 283.6,787.8 662.7,845.9 1041.9,637.8 1421.0,831.3 1800.1,668.1 2179.2,785.2 2558.4,659.5 2937.5,815.8 3316.6,651.1" fill="none" stroke="#FAFCFF" stroke-opacity="0" stroke-width="3.5"/><polyline points="-1232.9,1134.5 -853.7,1157.9 -474.6,1252.3 -95.5,1350.4 283.6,1358.5 662.7,1121.1 1041.9,1310.1 1421.0,1397.5 1800.1,1281.0 2179.2,1391.4 2558.4,1190.5 2937.5,1267.5 3316.6,1369.0" fill="none" stroke="#FAFCFF" stroke-opacity="0" stroke-width="4.5"/><polyline points="-1232.9,1955.4 -853.7,1800.7 -474.6,2015.5 -95.5,1957.5 283.6,2099.0 662.7,1975.5 1041.9,1885.8 1421.0,1974.0 1800.1,1813.6 2179.2,1845.1 2558.4,1974.1 2937.5,1868.3 3316.6,1776.6" fill="none" stroke="#FAFCFF" stroke-opacity="0" stroke-width="5.5"/><g opacity="1.00"><rect x="422.4" y="216" width="1075.2" height="540" fill="none" stroke="#FAFCFF" stroke-opacity="0.6" stroke-width="2"/><rect x="442.4" y="236" width="318.40000000000003" height="189" fill="#3B82F6" fill-opacity="0.14"/><rect x="800.8" y="236" width="318.40000000000003" height="189" fill="#3B82F6" fill-opacity="0.2"/><rect x="1159.2" y="236" width="318.40000000000003" height="189" fill="#3B82F6" fill-opacity="0.26"/></g><g opacity="0.88"><rect x="460.79999999999995" y="324" width="517.9707771018149" height="10" fill="#3B82F6" fill-opacity="0.9"/><rect x="460.79999999999995" y="358" width="559.0618132464589" height="10" fill="#FAFCFF" fill-opacity="0.4"/><rect x="460.79999999999995" y="392" width="352.0004768371582" height="10" fill="#FAFCFF" fill-opacity="0.4"/><rect x="460.79999999999995" y="426" width="493.0137858130038" height="10" fill="#3B82F6" fill-opacity="0.9"/><rect x="460.79999999999995" y="460" width="575.1368051692843" height="10" fill="#FAFCFF" fill-opacity="0.4"/><rect x="460.79999999999995" y="494" width="23.040544305770894" height="10" fill="#FAFCFF" fill-opacity="0.4"/></g></svg>