<svg xmlns="http://www.w3.org/2000/svg" width="1920" height="1080" viewBox="0 0 1920 1080"><rect width="1920" height="1080" fill="#0A1F44"/><polyline points="-801.8,317.4 -488.6,369.5 -175.4,302.3 137.8,331.8 451.0,351.8 764.2,299.7 1077.4,370.9 1390.6,312.7 1703.8,312.6 2017.1,364.4 2330.3,357.0 2643.5,296.9 2956.7,384.3" fill="none" stroke="#FAFCFF" stroke-opacity="0" stroke-width="1.5"/><polyline points="-801.8,531.0 -488.6,430.8 -175.4,522.4 137.8,478.4 451.0,462.9 764.2,551.3 1077.4,405.8 1390.6,419.9 1703.8,443.5 2017.1,443.5 2330.3,531.0 2643.5,555.9 2956.7,511.6" fill="none" stroke="#FAFCFF" stroke-opacity="0" stroke-width="2.5"/><polyline points="-801.8,707.0 -488.6,824.9 -175.4,709.8 137.8,728.5 451.0,788.4 764.2,836.3 1077.4,664.4 1390.6,824.3 1703.8,689.5 2017.1,786.2 2330.3,682.4 2643.5,811.5 2956.7,675.4" fill="none" stroke="#FAFCFF" stroke-opacity="0" stroke-width="3.5"/><polyline points="-801.8,1074.8 -488.6,1094.1 -175.4,1172.1 137.8,1253.2 451.0,1259.9 764.2,1063.7 1077.4,1219.9 1390.6,1292.1 1703.8,1195.8 2017.1,1287.0 2330.3,1121.1 2643.5,1184.7 2956.7,1268.6" fill="none" stroke="#FAFCFF" stroke-opacity="0" stroke-width="4.5"/><polyline points="-801.8,1753.0 -488.6,1625.2 -175.4,1802.7 137.8,1754.7 451.0,1871.6 764.2,1769.6 1077.4,1695.4 1390.6,1768.3 1703.8,1635.8 2017.1,1661.9 2330.3,1768.4 2643.5,1681.1 2956.7,1605.3" fill="none" stroke="#FAFCFF" stroke-opacity="0" stroke-width="5.5"/><g opacity="0.91"><line x1="0" y1="842.4" x2="1920" y2="561.6" stroke="#FAFCFF" stroke-opacity="0.5" stroke-width="6"/><line x1="-51" y1="836" x2="-51" y2="864" stroke="#3B82F6" stroke-opacity="0.8" stroke-width="3"/><line x1="29" y1="824" x2="29" y2="852" stroke="#3B82F6" stroke-opacity="0.8" stroke-width="3"/><line x1="109" y1="812" x2="109" y2="840" stroke="#3B82F6" stroke-opacity="0.8" stroke-width="3"/><line x1="189" y1="801" x2="189" y2="829" stroke="#3B82F6" stroke-opacity="0.8" stroke-width="3"/><line x1="269" y1="789" x2="269" y2="817" stroke="#3B82F6" stroke-opacity="0.8" stroke-width="3"/><line x1="349" y1="777" x2="349" y2="805" stroke="#3B82F6" stroke-opacity="0.8" stroke-width="3"/><line x1="429" y1="766" x2="429" y2="794" stroke="#3B82F6" stroke-opacity="0.8" stroke-width="3"/><line x1="509" y1="754" x2="509" y2="782" stroke="#3B82F6" stroke-opacity="0.8" stroke-width="3"/><line x1="589" y1="742" x2="589" y2="770" stroke="#3B82F6" stroke-opacity="0.8" stroke-width="3"/><line x1="669" y1="730" x2="669" y2="758" stroke="#3B82F6" stroke-opacity="0.8" stroke-width="3"/><line x1="749" y1="719" x2="749" y2="747" stroke="#3B82F6" stroke-opacity="0.8" stroke-width="3"/><line x1="829" y1="707" x2="829" y2="735" stroke="#3B82F6" stroke-opacity="0.8" stroke-width="3"/><line x1="909" y1="695" x2="909" y2="723" stroke="#3B82F6" stroke-opacity="0.8" stroke-width="3"/><line x1="989" y1="684" x2="989" y2="712" stroke="#3B82F6" stroke-opacity="0.8" stroke-width="3"/><line x1="1069" y1="672" x2="1069" y2="700" stroke="#3B82F6" stroke-opacity="0.8" stroke-width="3"/><line x1="1149" y1="660" x2="1149" y2="688" stroke="#3B82F6" stroke-opacity="0.8" stroke-width="3"/><line x1="1229" y1="649" x2="1229" y2="677" stroke="#3B82F6" stroke-opacity="0.8" stroke-width="3"/><line x1="1309" y1="637" x2="1309" y2="665" stroke="#3B82F6" stroke-opacity="0.8" stroke-width="3"/><line x1="1389" y1="625" x2="1389" y2="653" stroke="#3B82F6" stroke-opacity="0.8" stroke-width="3"/><line x1="1469" y1="613" x2="1469" y2="641" stroke="#3B82F6" stroke-opacity="0.8" stroke-width="3"/><line x1="1549" y1="602" x2="1549" y2="630" stroke="#3B82F6" stroke-opacity="0.8" stroke-width="3"/><line x1="1629" y1="590" x2="1629" y2="618" stroke="#3B82F6" stroke-opacity="0.8" stroke-width="3"/><line x1="1709" y1="578" x2="1709" y2="606" stroke="#3B82F6" stroke-opacity="0.8" stroke-width="3"/><line x1="1789" y1="567" x2="1789" y2="595" stroke="#3B82F6" stroke-opacity="0.8" stroke-width="3"/><line x1="1869" y1="555" x2="1869" y2="583" stroke="#3B82F6" stroke-opacity="0.8" stroke-width="3"/><line x1="1949" y1="543" x2="1949" y2="571" stroke="#3B82F6" stroke-opacity="0.8" stroke-width="3"/><line x1="2029" y1="532" x2="2029" y2="560" stroke="#3B82F6" stroke-opacity="0.8" stroke-width="3"/></g><g opacity="0.48"><rect x="422.4" y="216" width="1075.2" height="540" fill="none" stroke="#FAFCFF" stroke-opacity="0.6" stroke-width="2"/><rect x="442.4" y="236" width="318.40000000000003" height="189" fill="#3B82F6" fill-opacity="0.14"/><rect x="800.8" y="236" width="318.40000000000003" height="189" fill="#3B82F6" fill-opacity="0.2"/><rect x="1159.2" y="236" width="318.40000000000003" height="189" fill="#3B82F6" fill-opacity="0.26"/></g></svg>