<svg xmlns="http://www.w3.org/2000/svg" width="1920" height="1080" viewBox="0 0 1920 1080"><rect width="1920" height="1080" fill="#0A1F44"/><polyline points="-1536.0,161.9 -1120.0,231.1 -704.0,141.9 -288.0,181.0 128.0,207.7 544.0,138.5 960.0,233.0 1376.0,155.7 1792.0,155.6 2208.0,224.4 2624.0,214.6 3040.0,134.8 3456.0,250.8" fill="none" stroke="#FAFCFF" stroke-opacity="0" stroke-width="1.5"/><polyline points="-1536.0,445.6 -1120.0,312.6 -704.0,434.2 -288.0,375.8 128.0,355.1 544.0,472.7 960.0,279.3 1376.0,298.1 1792.0,329.5 2208.0,329.4 2624.0,445.6 3040.0,478.7 3456.0,419.9" fill="none" stroke="#FAFCFF" stroke-opacity="0" stroke-width="2.5"/><polyline points="-1536.0,679.4 -1120.0,836.0 -704.0,683.1 -288.0,707.9 128.0,787.5 544.0,851.2 960.0,622.9 1376.0,835.2 1792.0,656.1 2208.0,784.6 2624.0,646.8 3040.0,818.2 3456.0,637.4" fill="none" stroke="#FAFCFF" stroke-opacity="0" stroke-width="3.5"/><polyline points="-1536.0,1167.9 -1120.0,1193.6 -704.0,1297.2 -288.0,1404.8 128.0,1413.7 544.0,1153.2 960.0,1360.6 1376.0,1456.5 1792.0,1328.7 2208.0,1449.8 2624.0,1229.4 3040.0,1313.8 3456.0,1425.3" fill="none" stroke="#FAFCFF" stroke-opacity="0" stroke-width="4.5"/><polyline points="-1536.0,2068.7 -1120.0,1898.9 -704.0,2134.7 -288.0,2070.9 128.0,2226.2 544.0,2090.7 960.0,1992.2 1376.0,2089.1 1792.0,1913.1 2208.0,1947.6 2624.0,2089.1 3040.0,1973.1 3456.0,1872.5" fill="none" stroke="#FAFCFF" stroke-opacity="0" stroke-width="5.5"/><rect width="1920" height="1080" fill="#0A1F44" fill-opacity="0.70"/><circle cx="960" cy="540" r="7" fill="#3B82F6" fill-opacity="1.00"/><rect x="800" y="580" width="320" height="2" fill="#FAFCFF" fill-opacity="0.40"/></svg>