<svg xmlns="http://www.w3.org/2000/svg" width="1920" height="1080" viewBox="0 0 1920 1080"><rect width="1920" height="1080" fill="#0A1F44"/><polyline points="-6.2,538.1 161.0,565.9 328.3,530.1 495.5,545.8 662.8,556.5 830.1,528.7 997.3,566.7 1164.6,535.7 1331.8,535.6 1499.1,563.2 1666.3,559.3 1833.6,527.2 2000.8,573.9" fill="none" stroke="#FAFCFF" stroke-opacity="0.1" stroke-width="1.5"/><polyline points="-6.2,652.2 161.0,598.7 328.3,647.6 495.5,624.1 662.8,615.8 830.1,663.1 997.3,585.3 1164.6,592.9 1331.8,605.5 1499.1,605.5 1666.3,652.2 1833.6,665.5 2000.8,641.9" fill="none" stroke="#FAFCFF" stroke-opacity="0.13" stroke-width="2.5"/><polyline points="-6.2,746.2 161.0,809.2 328.3,747.7 495.5,757.6 662.8,789.6 830.1,815.3 997.3,723.5 1164.6,808.8 1331.8,736.8 1499.1,788.5 1666.3,733.1 1833.6,802.0 2000.8,729.3" fill="none" stroke="#FAFCFF" stroke-opacity="0.16" stroke-width="3.5"/><polyline points="-6.2,942.6 161.0,952.9 328.3,994.6 495.5,1037.9 662.8,1041.4 830.1,936.7 997.3,1020.1 1164.6,1058.6 1331.8,1007.2 1499.1,1055.9 1666.3,967.3 1833.6,1001.3 2000.8,1046.1" fill="none" stroke="#FAFCFF" stroke-opacity="0.19" stroke-width="4.5"/><polyline points="-6.2,1304.8 161.0,1236.5 328.3,1331.3 495.5,1305.7 662.8,1368.1 830.1,1313.6 997.3,1274.0 1164.6,1313.0 1331.8,1242.2 1499.1,1256.1 1666.3,1313.0 1833.6,1266.3 2000.8,1225.9" fill="none" stroke="#FAFCFF" stroke-opacity="0.22" stroke-width="5.5"/><circle cx="1138.4" cy="962.7" r="2.1278230759669396" fill="#3B82F6" fill-opacity="0.62"/><circle cx="219.6" cy="686.2" r="2.1241884860033013" fill="#3B82F6" fill-opacity="0.40"/><circle cx="1136.1" cy="774.5" r="5.940766208153287" fill="#FF6A1A" fill-opacity="0.40"/><circle cx="1286.3" cy="826.6" r="2.428813202066425" fill="#3B82F6" fill-opacity="0.63"/><circle cx="1608.0" cy="901.6" r="3.6462722373863086" fill="#FF6A1A" fill-opacity="0.58"/><circle cx="455.5" cy="661.7" r="5.7913234647252105" fill="#3B82F6" fill-opacity="0.72"/><circle cx="1081.8" cy="861.0" r="2.554266711671405" fill="#3B82F6" fill-opacity="0.74"/><circle cx="267.4" cy="965.3" r="4.696556100653227" fill="#3B82F6" fill-opacity="0.42"/><circle cx="399.9" cy="530.5" r="3.9856348701200446" fill="#3B82F6" fill-opacity="0.73"/><circle cx="1509.7" cy="919.5" r="4.640268121793638" fill="#3B82F6" fill-opacity="0.68"/><circle cx="511.9" cy="1014.2" r="3.966396000140348" fill="#FF6A1A" fill-opacity="0.52"/><circle cx="1324.2" cy="1028.7" r="5.615098281229084" fill="#FF6A1A" fill-opacity="0.41"/><circle cx="1898.6" cy="714.8" r="3.59131825243538" fill="#FF6A1A" fill-opacity="0.35"/><circle cx="972.0" cy="731.6" r="5.810108059150341" fill="#3B82F6" fill-opacity="0.59"/><circle cx="1612.5" cy="835.5" r="3.96869596922699" fill="#3B82F6" fill-opacity="0.69"/><circle cx="1180.9" cy="870.5" r="2.4356241343416025" fill="#3B82F6" fill-opacity="0.57"/><circle cx="1983.9" cy="1006.9" r="2.4718081554266482" fill="#FF6A1A" fill-opacity="0.47"/><circle cx="1129.9" cy="858.8" r="2.217521313473468" fill="#3B82F6" fill-opacity="0.39"/></svg>