<svg xmlns="http://www.w3.org/2000/svg" width="1920" height="1080" viewBox="0 0 1920 1080"><rect width="1920" height="1080" fill="#0A1F44"/><polyline points="4.0,548.9 164.1,575.6 324.3,541.2 484.4,556.3 644.5,566.5 804.6,539.9 964.7,576.3 1124.9,546.5 1285.0,546.5 1445.1,573.0 1605.2,569.2 1765.3,538.5 1925.5,583.1" fill="none" stroke="#FAFCFF" stroke-opacity="0.1" stroke-width="1.5"/><polyline points="4.0,658.1 164.1,606.9 324.3,653.7 484.4,631.3 644.5,623.3 804.6,668.5 964.7,594.1 1124.9,601.3 1285.0,613.4 1445.1,613.4 1605.2,658.1 1765.3,670.9 1925.5,648.2" fill="none" stroke="#FAFCFF" stroke-opacity="0.13" stroke-width="2.5"/><polyline points="4.0,748.1 164.1,808.4 324.3,749.5 484.4,759.1 644.5,789.7 804.6,814.2 964.7,726.3 1124.9,808.1 1285.0,739.1 1445.1,788.6 1605.2,735.5 1765.3,801.5 1925.5,732.0" fill="none" stroke="#FAFCFF" stroke-opacity="0.16" stroke-width="3.5"/><polyline points="4.0,936.1 164.1,946.0 324.3,985.9 484.4,1027.3 644.5,1030.7 804.6,930.5 964.7,1010.3 1124.9,1047.2 1285.0,998.0 1445.1,1044.6 1605.2,959.8 1765.3,992.3 1925.5,1035.2" fill="none" stroke="#FAFCFF" stroke-opacity="0.19" stroke-width="4.5"/><polyline points="4.0,1282.8 164.1,1217.5 324.3,1308.2 484.4,1283.7 644.5,1343.5 804.6,1291.3 964.7,1253.4 1124.9,1290.7 1285.0,1222.9 1445.1,1236.3 1605.2,1290.7 1765.3,1246.1 1925.5,1207.3" fill="none" stroke="#FAFCFF" stroke-opacity="0.22" stroke-width="5.5"/><circle cx="1099.8" cy="955.4" r="2.037055425014542" fill="#3B82F6" fill-opacity="0.75"/><circle cx="220.2" cy="690.6" r="2.0335758776373387" fill="#3B82F6" fill-opacity="0.60"/><circle cx="1097.6" cy="775.2" r="5.687347867285629" fill="#FF6A1A" fill-opacity="0.60"/><circle cx="1241.4" cy="825.1" r="2.32520605942203" fill="#3B82F6" fill-opacity="0.36"/><circle cx="1549.4" cy="896.9" r="3.4907313141494924" fill="#FF6A1A" fill-opacity="0.42"/><circle cx="446.0" cy="667.2" r="5.544279980360453" fill="#3B82F6" fill-opacity="0.72"/><circle cx="1045.7" cy="858.1" r="2.4453080336953414" fill="#3B82F6" fill-opacity="0.56"/><circle cx="266.0" cy="957.9" r="4.496212674718377" fill="#3B82F6" fill-opacity="0.68"/><circle cx="392.8" cy="541.6" r="3.81561757930259" fill="#3B82F6" fill-opacity="0.54"/><circle cx="1455.3" cy="914.0" r="4.44232580132458" fill="#3B82F6" fill-opacity="0.74"/><circle cx="500.0" cy="1004.7" r="3.79719939176344" fill="#FF6A1A" fill-opacity="0.49"/><circle cx="1277.7" cy="1018.6" r="5.375572125783851" fill="#FF6A1A" fill-opacity="0.59"/><circle cx="1827.6" cy="718.1" r="3.438121529795318" fill="#FF6A1A" fill-opacity="0.63"/><circle cx="940.5" cy="734.1" r="5.562263270612637" fill="#3B82F6" fill-opacity="0.41"/><circle cx="1553.7" cy="833.6" r="3.7994012498775973" fill="#3B82F6" fill-opacity="0.44"/><circle cx="1140.5" cy="867.1" r="2.3317264542317595" fill="#3B82F6" fill-opacity="0.74"/><circle cx="1909.3" cy="997.7" r="2.3663669547896538" fill="#FF6A1A" fill-opacity="0.54"/><circle cx="1091.7" cy="855.9" r="2.1229273583489823" fill="#3B82F6" fill-opacity="0.66"/></svg>