<svg xmlns="http://www.w3.org/2000/svg" width="1920" height="1080" viewBox="0 0 1920 1080"><rect width="1920" height="1080" fill="#0A1F44"/><polyline points="3.3,542.8 167.4,570.1 331.6,534.9 495.7,550.4 659.9,560.9 824.0,533.6 988.2,570.9 1152.3,540.4 1316.5,540.3 1480.6,567.5 1644.8,563.6 1809.0,532.1 1973.1,577.9" fill="none" stroke="#FAFCFF" stroke-opacity="0.1" stroke-width="1.5"/><polyline points="3.3,654.8 167.4,602.3 331.6,650.3 495.7,627.2 659.9,619.1 824.0,665.4 988.2,589.1 1152.3,596.5 1316.5,608.9 1480.6,608.9 1644.8,654.8 1809.0,667.8 1973.1,644.6" fill="none" stroke="#FAFCFF" stroke-opacity="0.13" stroke-width="2.5"/><polyline points="3.3,747.0 167.4,808.8 331.6,748.5 495.7,758.3 659.9,789.7 824.0,814.8 988.2,724.7 1152.3,808.5 1316.5,737.8 1480.6,788.5 1644.8,734.1 1809.0,801.8 1973.1,730.5" fill="none" stroke="#FAFCFF" stroke-opacity="0.16" stroke-width="3.5"/><polyline points="3.3,939.8 167.4,949.9 331.6,990.8 495.7,1033.3 659.9,1036.8 824.0,934.0 988.2,1015.8 1152.3,1053.7 1316.5,1003.2 1480.6,1051.0 1644.8,964.0 1809.0,997.4 1973.1,1041.3" fill="none" stroke="#FAFCFF" stroke-opacity="0.19" stroke-width="4.5"/><polyline points="3.3,1295.2 167.4,1228.2 331.6,1321.3 495.7,1296.1 659.9,1357.4 824.0,1303.9 988.2,1265.1 1152.3,1303.3 1316.5,1233.8 1480.6,1247.5 1644.8,1303.3 1809.0,1257.5 1973.1,1217.8" fill="none" stroke="#FAFCFF" stroke-opacity="0.22" stroke-width="5.5"/><circle cx="1126.6" cy="959.5" r="2.088374943450334" fill="#3B82F6" fill-opacity="0.68"/><circle cx="224.9" cy="688.1" r="2.0848077358683175" fill="#3B82F6" fill-opacity="0.39"/><circle cx="1124.4" cy="774.8" r="5.830629169375798" fill="#FF6A1A" fill-opacity="0.39"/><circle cx="1271.9" cy="825.9" r="2.3837849541188554" fill="#3B82F6" fill-opacity="0.56"/><circle cx="1587.6" cy="899.5" r="3.578673275782476" fill="#FF6A1A" fill-opacity="0.50"/><circle cx="456.4" cy="664.1" r="5.683956974501772" fill="#3B82F6" fill-opacity="0.74"/><circle cx="1071.2" cy="859.7" r="2.5069126563165063" fill="#3B82F6" fill-opacity="0.71"/><circle cx="271.8" cy="962.1" r="4.609485718945833" fill="#3B82F6" fill-opacity="0.50"/><circle cx="401.9" cy="535.3" r="3.911744397601386" fill="#3B82F6" fill-opacity="0.70"/><circle cx="1491.1" cy="917.1" r="4.554241274050239" fill="#3B82F6" fill-opacity="0.72"/><circle cx="511.7" cy="1010.1" r="3.8928622008343274" fill="#FF6A1A" fill-opacity="0.44"/><circle cx="1309.0" cy="1024.3" r="5.510998864509" fill="#FF6A1A" fill-opacity="0.38"/><circle cx="1872.7" cy="716.3" r="3.52473809361884" fill="#FF6A1A" fill-opacity="0.44"/><circle cx="963.3" cy="732.7" r="5.702393317618547" fill="#3B82F6" fill-opacity="0.51"/><circle cx="1591.9" cy="834.7" r="3.89511953033954" fill="#3B82F6" fill-opacity="0.64"/><circle cx="1168.3" cy="869.0" r="2.3904696171745723" fill="#3B82F6" fill-opacity="0.64"/><circle cx="1956.5" cy="1002.9" r="2.4259828155418517" fill="#FF6A1A" fill-opacity="0.38"/><circle cx="1118.3" cy="857.6" r="2.176410247605105" fill="#3B82F6" fill-opacity="0.48"/></svg>