<svg xmlns="http://www.w3.org/2000/svg" width="1920" height="1080" viewBox="0 0 1920 1080"><rect width="1920" height="1080" fill="#0A1F44"/><polyline points="7.9,546.9 169.3,573.8 330.8,539.1 492.2,554.3 653.7,564.7 815.1,537.8 976.5,574.5 1138.0,544.5 1299.4,544.5 1460.9,571.2 1622.3,567.3 1783.8,536.4 1945.2,581.4" fill="none" stroke="#FAFCFF" stroke-opacity="0.1" stroke-width="1.5"/><polyline points="7.9,657.0 169.3,605.4 330.8,652.6 492.2,629.9 653.7,621.9 815.1,667.5 976.5,592.5 1138.0,599.8 1299.4,612.0 1460.9,611.9 1622.3,657.0 1783.8,669.9 1945.2,647.1" fill="none" stroke="#FAFCFF" stroke-opacity="0.13" stroke-width="2.5"/><polyline points="7.9,747.8 169.3,808.5 330.8,749.2 492.2,758.8 653.7,789.7 815.1,814.4 976.5,725.8 1138.0,808.2 1299.4,738.7 1460.9,788.6 1622.3,735.1 1783.8,801.6 1945.2,731.5" fill="none" stroke="#FAFCFF" stroke-opacity="0.16" stroke-width="3.5"/><polyline points="7.9,937.3 169.3,947.3 330.8,987.5 492.2,1029.3 653.7,1032.7 815.1,931.6 976.5,1012.1 1138.0,1049.3 1299.4,999.7 1460.9,1046.7 1622.3,961.2 1783.8,994.0 1945.2,1037.2" fill="none" stroke="#FAFCFF" stroke-opacity="0.19" stroke-width="4.5"/><polyline points="7.9,1286.9 169.3,1221.0 330.8,1312.5 492.2,1287.8 653.7,1348.0 815.1,1295.5 976.5,1257.2 1138.0,1294.8 1299.4,1226.5 1460.9,1239.9 1622.3,1294.9 1783.8,1249.8 1945.2,1210.8" fill="none" stroke="#FAFCFF" stroke-opacity="0.22" stroke-width="5.5"/><circle cx="1112.7" cy="956.7" r="2.053904010203558" fill="#3B82F6" fill-opacity="0.73"/><circle cx="225.9" cy="689.8" r="2.050395683319581" fill="#3B82F6" fill-opacity="0.50"/><circle cx="1110.5" cy="775.1" r="5.734388200044787" fill="#FF6A1A" fill-opacity="0.50"/><circle cx="1255.5" cy="825.3" r="2.3444379526209644" fill="#3B82F6" fill-opacity="0.45"/><circle cx="1566.0" cy="897.7" r="3.519603323814126" fill="#FF6A1A" fill-opacity="0.39"/><circle cx="453.5" cy="666.2" r="5.5901369916198265" fill="#3B82F6" fill-opacity="0.75"/><circle cx="1058.1" cy="858.6" r="2.465533296205716" fill="#3B82F6" fill-opacity="0.65"/><circle cx="272.0" cy="959.3" r="4.533401069961666" fill="#3B82F6" fill-opacity="0.60"/><circle cx="399.9" cy="539.5" r="3.847176739178237" fill="#3B82F6" fill-opacity="0.63"/><circle cx="1471.2" cy="915.0" r="4.479068495598816" fill="#3B82F6" fill-opacity="0.75"/><circle cx="508.0" cy="1006.4" r="3.8286062139078845" fill="#FF6A1A" fill-opacity="0.38"/><circle cx="1292.0" cy="1020.5" r="5.420033746115229" fill="#FF6A1A" fill-opacity="0.49"/><circle cx="1846.5" cy="717.5" r="3.466558401356893" fill="#FF6A1A" fill-opacity="0.54"/><circle cx="952.1" cy="733.6" r="5.6082690225464535" fill="#3B82F6" fill-opacity="0.40"/><circle cx="1570.3" cy="834.0" r="3.8308262836983444" fill="#3B82F6" fill-opacity="0.55"/><circle cx="1153.7" cy="867.7" r="2.351012277935514" fill="#3B82F6" fill-opacity="0.71"/><circle cx="1928.9" cy="999.4" r="2.385939291770108" fill="#FF6A1A" fill-opacity="0.43"/><circle cx="1104.5" cy="856.5" r="2.1404861945043514" fill="#3B82F6" fill-opacity="0.58"/></svg>