<svg xmlns="http://www.w3.org/2000/svg" width="1920" height="1080" viewBox="0 0 1920 1080"><rect width="1920" height="1080" fill="#0A1F44"/><polyline points="-1208.0,223.1 -832.5,285.6 -456.9,205.0 -81.4,240.3 294.2,264.4 669.7,201.9 1045.3,287.3 1420.8,217.5 1796.4,217.4 2171.9,279.5 2547.5,270.6 2923.0,198.6 3298.5,303.3" fill="none" stroke="#FAFCFF" stroke-opacity="0" stroke-width="1.5"/><polyline points="-1208.0,479.2 -832.5,359.1 -456.9,468.9 -81.4,416.2 294.2,397.5 669.7,503.6 1045.3,329.1 1420.8,346.0 1796.4,374.4 2171.9,374.3 2547.5,479.2 2923.0,509.1 3298.5,456.0" fill="none" stroke="#FAFCFF" stroke-opacity="0" stroke-width="2.5"/><polyline points="-1208.0,690.3 -832.5,831.6 -456.9,693.6 -81.4,716.0 294.2,787.8 669.7,845.3 1045.3,639.2 1420.8,830.9 1796.4,669.3 2171.9,785.3 2547.5,660.8 2923.0,815.5 3298.5,652.4" fill="none" stroke="#FAFCFF" stroke-opacity="0" stroke-width="3.5"/><polyline points="-1208.0,1131.2 -832.5,1154.4 -456.9,1248.0 -81.4,1345.1 294.2,1353.2 669.7,1118.0 1045.3,1305.2 1420.8,1391.8 1796.4,1276.4 2171.9,1385.7 2547.5,1186.7 2923.0,1263.0 3298.5,1363.6" fill="none" stroke="#FAFCFF" stroke-opacity="0" stroke-width="4.5"/><polyline points="-1208.0,1944.4 -832.5,1791.2 -456.9,2004.0 -81.4,1946.5 294.2,2086.6 669.7,1964.3 1045.3,1875.4 1420.8,1962.8 1796.4,1804.0 2171.9,1835.2 2547.5,1962.9 2923.0,1858.2 3298.5,1767.3" fill="none" stroke="#FAFCFF" stroke-opacity="0" stroke-width="5.5"/><g opacity="1.00"><rect x="422.4" y="216" width="1075.2" height="540" fill="none" stroke="#FAFCFF" stroke-opacity="0.6" stroke-width="2"/><rect x="442.4" y="236" width="318.40000000000003" height="189" fill="#3B82F6" fill-opacity="0.14"/><rect x="800.8" y="236" width="318.40000000000003" height="189" fill="#3B82F6" fill-opacity="0.2"/><rect x="1159.2" y="236" width="318.40000000000003" height="189" fill="#3B82F6" fill-opacity="0.26"/></g><g opacity="0.80"><rect x="460.79999999999995" y="324" width="517.9707771018149" height="10" fill="#3B82F6" fill-opacity="0.9"/><rect x="460.79999999999995" y="358" width="559.0618132464589" height="10" fill="#FAFCFF" fill-opacity="0.4"/><rect x="460.79999999999995" y="392" width="352.0004768371582" height="10" fill="#FAFCFF" fill-opacity="0.4"/><rect x="460.79999999999995" y="426" width="493.0137858130038" height="10" fill="#3B82F6" fill-opacity="0.9"/><rect x="460.79999999999995" y="460" width="472.4079670132597" height="10" fill="#FAFCFF" fill-opacity="0.4"/></g></svg>