<svg xmlns="http://www.w3.org/2000/svg" width="1920" height="1080" viewBox="0 0 1920 1080"><rect width="1920" height="1080" fill="#0A1F44"/><polyline points="7.0,545.5 169.4,572.5 331.8,537.7 494.1,553.0 656.5,563.4 818.9,536.4 981.2,573.3 1143.6,543.1 1306.0,543.1 1468.3,569.9 1630.7,566.1 1793.1,534.9 1955.4,580.2" fill="none" stroke="#FAFCFF" stroke-opacity="0.1" stroke-width="1.5"/><polyline points="7.0,656.3 169.4,604.3 331.8,651.8 494.1,629.0 656.5,620.9 818.9,666.8 981.2,591.3 1143.6,598.7 1306.0,610.9 1468.3,610.9 1630.7,656.2 1793.1,669.2 1955.4,646.2" fill="none" stroke="#FAFCFF" stroke-opacity="0.13" stroke-width="2.5"/><polyline points="7.0,747.5 169.4,808.6 331.8,749.0 494.1,758.6 656.5,789.7 818.9,814.6 981.2,725.4 1143.6,808.3 1306.0,738.4 1468.3,788.6 1630.7,734.8 1793.1,801.7 1955.4,731.1" fill="none" stroke="#FAFCFF" stroke-opacity="0.16" stroke-width="3.5"/><polyline points="7.0,938.2 169.4,948.2 331.8,988.6 494.1,1030.6 656.5,1034.1 818.9,932.4 981.2,1013.4 1143.6,1050.8 1306.0,1000.9 1468.3,1048.2 1630.7,962.2 1793.1,995.1 1955.4,1038.6" fill="none" stroke="#FAFCFF" stroke-opacity="0.19" stroke-width="4.5"/><polyline points="7.0,1289.7 169.4,1223.5 331.8,1315.5 494.1,1290.6 656.5,1351.2 818.9,1298.3 981.2,1259.9 1143.6,1297.7 1306.0,1229.0 1468.3,1242.5 1630.7,1297.7 1793.1,1252.5 1955.4,1213.2" fill="none" stroke="#FAFCFF" stroke-opacity="0.22" stroke-width="5.5"/><circle cx="1118.2" cy="957.7" r="2.065645760458871" fill="#3B82F6" fill-opacity="0.71"/><circle cx="226.3" cy="689.2" r="2.062117377185753" fill="#3B82F6" fill-opacity="0.46"/><circle cx="1116.0" cy="775.0" r="5.7671705276401575" fill="#FF6A1A" fill-opacity="0.46"/><circle cx="1261.8" cy="825.5" r="2.3578406261597458" fill="#3B82F6" fill-opacity="0.50"/><circle cx="1574.1" cy="898.3" r="3.5397241780608146" fill="#FF6A1A" fill-opacity="0.43"/><circle cx="455.2" cy="665.5" r="5.622094664482094" fill="#3B82F6" fill-opacity="0.75"/><circle cx="1063.3" cy="859.0" r="2.4796282471218185" fill="#3B82F6" fill-opacity="0.68"/><circle cx="272.6" cy="960.2" r="4.559317599120876" fill="#3B82F6" fill-opacity="0.56"/><circle cx="401.3" cy="538.1" r="3.8691702638196355" fill="#3B82F6" fill-opacity="0.66"/><circle cx="1478.7" cy="915.7" r="4.504674416513566" fill="#3B82F6" fill-opacity="0.74"/><circle cx="510.0" cy="1007.7" r="3.85049357464447" fill="#FF6A1A" fill-opacity="0.37"/><circle cx="1298.5" cy="1021.8" r="5.451018973421906" fill="#FF6A1A" fill-opacity="0.45"/><circle cx="1856.2" cy="717.1" r="3.4863760086024014" fill="#FF6A1A" fill-opacity="0.50"/><circle cx="956.6" cy="733.3" r="5.640330352530818" fill="#3B82F6" fill-opacity="0.44"/><circle cx="1578.4" cy="834.2" r="3.852726336121055" fill="#3B82F6" fill-opacity="0.58"/><circle cx="1159.4" cy="868.2" r="2.3644525355510373" fill="#3B82F6" fill-opacity="0.68"/><circle cx="1939.0" cy="1000.6" r="2.399579219999045" fill="#FF6A1A" fill-opacity="0.39"/><circle cx="1109.9" cy="856.8" r="2.1527229174456166" fill="#3B82F6" fill-opacity="0.54"/></svg>