<svg xmlns="http://www.w3.org/2000/svg" width="1920" height="1080" viewBox="0 0 1920 1080"><rect width="1920" height="1080" fill="#0A1F44"/><polyline points="-122.2,498.5 71.2,530.7 264.6,489.2 458.1,507.4 651.5,519.8 844.9,487.7 1038.3,531.6 1231.8,495.7 1425.2,495.6 1618.6,527.6 1812.1,523.0 2005.5,485.9 2198.9,539.9" fill="none" stroke="#FAFCFF" stroke-opacity="0.1" stroke-width="1.5"/><polyline points="-122.2,630.5 71.2,568.6 264.6,625.2 458.1,598.0 651.5,588.4 844.9,643.0 1038.3,553.1 1231.8,561.9 1425.2,576.5 1618.6,576.4 1812.1,630.5 2005.5,645.8 2198.9,618.5" fill="none" stroke="#FAFCFF" stroke-opacity="0.13" stroke-width="2.5"/><polyline points="-122.2,739.2 71.2,812.0 264.6,740.9 458.1,752.4 651.5,789.4 844.9,819.0 1038.3,712.9 1231.8,811.6 1425.2,728.3 1618.6,788.1 1812.1,724.0 2005.5,803.7 2198.9,719.7" fill="none" stroke="#FAFCFF" stroke-opacity="0.16" stroke-width="3.5"/><polyline points="-122.2,966.3 71.2,978.2 264.6,1026.4 458.1,1076.5 651.5,1080.6 844.9,959.5 1038.3,1055.9 1231.8,1100.5 1425.2,1041.1 1618.6,1097.4 1812.1,994.9 2005.5,1034.2 2198.9,1086.0" fill="none" stroke="#FAFCFF" stroke-opacity="0.19" stroke-width="4.5"/><polyline points="-122.2,1385.1 71.2,1306.2 264.6,1415.8 458.1,1386.2 651.5,1458.4 844.9,1395.4 1038.3,1349.6 1231.8,1394.6 1425.2,1312.8 1618.6,1328.9 1812.1,1394.6 2005.5,1340.7 2198.9,1293.9" fill="none" stroke="#FAFCFF" stroke-opacity="0.22" stroke-width="5.5"/><circle cx="1201.5" cy="989.6" r="2.460792278625181" fill="#3B82F6" fill-opacity="0.51"/><circle cx="139.0" cy="669.7" r="2.4565889353023693" fill="#3B82F6" fill-opacity="0.73"/><circle cx="1198.9" cy="771.9" r="6.870398098064492" fill="#FF6A1A" fill-opacity="0.73"/><circle cx="1372.6" cy="832.1" r="2.8088823931716873" fill="#3B82F6" fill-opacity="0.73"/><circle cx="1744.6" cy="918.9" r="4.216853679645403" fill="#FF6A1A" fill-opacity="0.74"/><circle cx="411.7" cy="641.4" r="6.697570031070595" fill="#3B82F6" fill-opacity="0.37"/><circle cx="1136.1" cy="872.0" r="2.953967307067584" fill="#3B82F6" fill-opacity="0.59"/><circle cx="194.2" cy="992.6" r="5.431489638002692" fill="#3B82F6" fill-opacity="0.68"/><circle cx="347.5" cy="489.7" r="4.609320964974376" fill="#3B82F6" fill-opacity="0.62"/><circle cx="1630.9" cy="939.6" r="5.366393519193965" fill="#3B82F6" fill-opacity="0.41"/><circle cx="476.9" cy="1049.1" r="4.5870715292810464" fill="#FF6A1A" fill-opacity="0.75"/><circle cx="1416.3" cy="1065.9" r="6.493768514043852" fill="#FF6A1A" fill-opacity="0.73"/><circle cx="2080.6" cy="702.9" r="4.153300302781362" fill="#FF6A1A" fill-opacity="0.71"/><circle cx="1009.0" cy="722.2" r="6.719294104580542" fill="#3B82F6" fill-opacity="0.74"/><circle cx="1749.7" cy="842.5" r="4.589731405580635" fill="#3B82F6" fill-opacity="0.68"/><circle cx="1250.6" cy="882.9" r="2.8167591239686685" fill="#3B82F6" fill-opacity="0.56"/><circle cx="2179.3" cy="1040.7" r="2.858605347323131" fill="#FF6A1A" fill-opacity="0.75"/><circle cx="1191.7" cy="869.4" r="2.564526810295323" fill="#3B82F6" fill-opacity="0.69"/><g opacity="0.70"><line x1="0" y1="842.4" x2="1920" y2="561.6" stroke="#FAFCFF" stroke-opacity="0.5" stroke-width="6"/><line x1="-36" y1="834" x2="-36" y2="862" stroke="#3B82F6" stroke-opacity="0.8" stroke-width="3"/><line x1="44" y1="822" x2="44" y2="850" stroke="#3B82F6" stroke-opacity="0.8" stroke-width="3"/><line x1="124" y1="810" x2="124" y2="838" stroke="#3B82F6" stroke-opacity="0.8" stroke-width="3"/><line x1="204" y1="799" x2="204" y2="827" stroke="#3B82F6" stroke-opacity="0.8" stroke-width="3"/><line x1="284" y1="787" x2="284" y2="815" stroke="#3B82F6" stroke-opacity="0.8" stroke-width="3"/><line x1="364" y1="775" x2="364" y2="803" stroke="#3B82F6" stroke-opacity="0.8" stroke-width="3"/><line x1="444" y1="763" x2="444" y2="791" stroke="#3B82F6" stroke-opacity="0.8" stroke-width="3"/><line x1="524" y1="752" x2="524" y2="780" stroke="#3B82F6" stroke-opacity="0.8" stroke-width="3"/><line x1="604" y1="740" x2="604" y2="768" stroke="#3B82F6" stroke-opacity="0.8" stroke-width="3"/><line x1="684" y1="728" x2="684" y2="756" stroke="#3B82F6" stroke-opacity="0.8" stroke-width="3"/><line x1="764" y1="717" x2="764" y2="745" stroke="#3B82F6" stroke-opacity="0.8" stroke-width="3"/><line x1="844" y1="705" x2="844" y2="733" stroke="#3B82F6" stroke-opacity="0.8" stroke-width="3"/><line x1="924" y1="693" x2="924" y2="721" stroke="#3B82F6" stroke-opacity="0.8" stroke-width="3"/><line x1="1004" y1="682" x2="1004" y2="710" stroke="#3B82F6" stroke-opacity="0.8" stroke-width="3"/><line x1="1084" y1="670" x2="1084" y2="698" stroke="#3B82F6" stroke-opacity="0.8" stroke-width="3"/><line x1="1164" y1="658" x2="1164" y2="686" stroke="#3B82F6" stroke-opacity="0.8" stroke-width="3"/><line x1="1244" y1="646" x2="1244" y2="674" stroke="#3B82F6" stroke-opacity="0.8" stroke-width="3"/><line x1="1324" y1="635" x2="1324" y2="663" stroke="#3B82F6" stroke-opacity="0.8" stroke-width="3"/><line x1="1404" y1="623" x2="1404" y2="651" stroke="#3B82F6" stroke-opacity="0.8" stroke-width="3"/><line x1="1484" y1="611" x2="1484" y2="639" stroke="#3B82F6" stroke-opacity="0.8" stroke-width="3"/><line x1="1564" y1="600" x2="1564" y2="628" stroke="#3B82F6" stroke-opacity="0.8" stroke-width="3"/><line x1="1644" y1="588" x2="1644" y2="616" stroke="#3B82F6" stroke-opacity="0.8" stroke-width="3"/><line x1="1724" y1="576" x2="1724" y2="604" stroke="#3B82F6" stroke-opacity="0.8" stroke-width="3"/><line x1="1804" y1="565" x2="1804" y2="593" stroke="#3B82F6" stroke-opacity="0.8" stroke-width="3"/><line x1="1884" y1="553" x2="1884" y2="581" stroke="#3B82F6" stroke-opacity="0.8" stroke-width="3"/><line x1="1964" y1="541" x2="1964" y2="569" stroke="#3B82F6" stroke-opacity="0.8" stroke-width="3"/><line x1="2044" y1="529" x2="2044" y2="557" stroke="#3B82F6" stroke-opacity="0.8" stroke-width="3"/></g></svg>