<svg xmlns="http://www.w3.org/2000/svg" width="1920" height="1080" viewBox="0 0 1920 1080"><rect width="1920" height="1080" fill="#0A1F44"/><polyline points="-29.5,528.9 143.8,557.7 317.1,520.6 490.5,536.9 663.8,548.0 837.2,519.2 1010.5,558.6 1183.9,526.3 1357.2,526.3 1530.6,554.9 1703.9,550.9 1877.3,517.6 2050.6,566.0" fill="none" stroke="#FAFCFF" stroke-opacity="0.1" stroke-width="1.5"/><polyline points="-29.5,647.1 143.8,591.7 317.1,642.4 490.5,618.0 663.8,609.4 837.2,658.4 1010.5,577.8 1183.9,585.7 1357.2,598.7 1530.6,598.7 1703.9,647.1 1877.3,660.9 2050.6,636.4" fill="none" stroke="#FAFCFF" stroke-opacity="0.13" stroke-width="2.5"/><polyline points="-29.5,744.6 143.8,809.8 317.1,746.1 490.5,756.4 663.8,789.6 837.2,816.1 1010.5,721.0 1183.9,809.5 1357.2,734.9 1530.6,788.4 1703.9,731.0 1877.3,802.4 2050.6,727.1" fill="none" stroke="#FAFCFF" stroke-opacity="0.16" stroke-width="3.5"/><polyline points="-29.5,948.1 143.8,958.8 317.1,1002.0 490.5,1046.8 663.8,1050.5 837.2,942.0 1010.5,1028.4 1183.9,1068.4 1357.2,1015.1 1530.6,1065.6 1703.9,973.7 1877.3,1008.9 2050.6,1055.4" fill="none" stroke="#FAFCFF" stroke-opacity="0.19" stroke-width="4.5"/><polyline points="-29.5,1323.5 143.8,1252.7 317.1,1351.0 490.5,1324.4 663.8,1389.1 837.2,1332.6 1010.5,1291.6 1183.9,1332.0 1357.2,1258.6 1530.6,1273.0 1703.9,1332.0 1877.3,1283.7 2050.6,1241.7" fill="none" stroke="#FAFCFF" stroke-opacity="0.22" stroke-width="5.5"/><circle cx="1156.7" cy="969.0" r="2.205322516721919" fill="#3B82F6" fill-opacity="0.50"/><circle cx="204.5" cy="682.3" r="2.201555547946932" fill="#3B82F6" fill-opacity="0.53"/><circle cx="1154.4" cy="773.9" r="6.157140428354247" fill="#FF6A1A" fill-opacity="0.53"/><circle cx="1310.1" cy="827.9" r="2.517275286618694" fill="#3B82F6" fill-opacity="0.71"/><circle cx="1643.5" cy="905.6" r="3.779076539787922" fill="#FF6A1A" fill-opacity="0.67"/><circle cx="449.0" cy="657.0" r="6.002254690547843" fill="#3B82F6" fill-opacity="0.65"/><circle cx="1098.2" cy="863.6" r="2.647298056208186" fill="#3B82F6" fill-opacity="0.75"/><circle cx="254.0" cy="971.7" r="4.867613777104831" fill="#3B82F6" fill-opacity="0.42"/><circle cx="391.4" cy="521.0" r="4.1307994173874345" fill="#3B82F6" fill-opacity="0.75"/><circle cx="1541.6" cy="924.2" r="4.809275680953012" fill="#3B82F6" fill-opacity="0.59"/><circle cx="507.4" cy="1022.3" r="4.110859830472658" fill="#FF6A1A" fill-opacity="0.63"/><circle cx="1349.3" cy="1037.4" r="5.819611044294098" fill="#FF6A1A" fill-opacity="0.54"/><circle cx="1944.6" cy="712.1" r="3.7221210241885774" fill="#FF6A1A" fill-opacity="0.48"/><circle cx="984.3" cy="729.4" r="6.0217234563118405" fill="#3B82F6" fill-opacity="0.68"/><circle cx="1648.1" cy="837.2" r="4.1132435688914315" fill="#3B82F6" fill-opacity="0.74"/><circle cx="1200.8" cy="873.4" r="2.524334286248864" fill="#3B82F6" fill-opacity="0.45"/><circle cx="2033.1" cy="1014.7" r="2.5618361995167844" fill="#FF6A1A" fill-opacity="0.59"/><circle cx="1147.9" cy="861.3" r="2.298287737899213" fill="#3B82F6" fill-opacity="0.44"/><g opacity="0.21"><line x1="0" y1="842.4" x2="1920" y2="561.6" stroke="#FAFCFF" stroke-opacity="0.5" stroke-width="6"/><line x1="-35" y1="834" x2="-35" y2="862" stroke="#3B82F6" stroke-opacity="0.8" stroke-width="3"/><line x1="45" y1="822" x2="45" y2="850" stroke="#3B82F6" stroke-opacity="0.8" stroke-width="3"/><line x1="125" y1="810" x2="125" y2="838" stroke="#3B82F6" stroke-opacity="0.8" stroke-width="3"/><line x1="205" y1="798" x2="205" y2="826" stroke="#3B82F6" stroke-opacity="0.8" stroke-width="3"/><line x1="285" y1="787" x2="285" y2="815" stroke="#3B82F6" stroke-opacity="0.8" stroke-width="3"/><line x1="365" y1="775" x2="365" y2="803" stroke="#3B82F6" stroke-opacity="0.8" stroke-width="3"/><line x1="445" y1="763" x2="445" y2="791" stroke="#3B82F6" stroke-opacity="0.8" stroke-width="3"/><line x1="525" y1="752" x2="525" y2="780" stroke="#3B82F6" stroke-opacity="0.8" stroke-width="3"/><line x1="605" y1="740" x2="605" y2="768" stroke="#3B82F6" stroke-opacity="0.8" stroke-width="3"/><line x1="685" y1="728" x2="685" y2="756" stroke="#3B82F6" stroke-opacity="0.8" stroke-width="3"/><line x1="765" y1="717" x2="765" y2="745" stroke="#3B82F6" stroke-opacity="0.8" stroke-width="3"/><line x1="845" y1="705" x2="845" y2="733" stroke="#3B82F6" stroke-opacity="0.8" stroke-width="3"/><line x1="925" y1="693" x2="925" y2="721" stroke="#3B82F6" stroke-opacity="0.8" stroke-width="3"/><line x1="1005" y1="681" x2="1005" y2="709" stroke="#3B82F6" stroke-opacity="0.8" stroke-width="3"/><line x1="1085" y1="670" x2="1085" y2="698" stroke="#3B82F6" stroke-opacity="0.8" stroke-width="3"/><line x1="1165" y1="658" x2="1165" y2="686" stroke="#3B82F6" stroke-opacity="0.8" stroke-width="3"/><line x1="1245" y1="646" x2="1245" y2="674" stroke="#3B82F6" stroke-opacity="0.8" stroke-width="3"/><line x1="1325" y1="635" x2="1325" y2="663" stroke="#3B82F6" stroke-opacity="0.8" stroke-width="3"/><line x1="1405" y1="623" x2="1405" y2="651" stroke="#3B82F6" stroke-opacity="0.8" stroke-width="3"/><line x1="1485" y1="611" x2="1485" y2="639" stroke="#3B82F6" stroke-opacity="0.8" stroke-width="3"/><line x1="1565" y1="600" x2="1565" y2="628" stroke="#3B82F6" stroke-opacity="0.8" stroke-width="3"/><line x1="1645" y1="588" x2="1645" y2="616" stroke="#3B82F6" stroke-opacity="0.8" stroke-width="3"/><line x1="1725" y1="576" x2="1725" y2="604" stroke="#3B82F6" stroke-opacity="0.8" stroke-width="3"/><line x1="1805" y1="564" x2="1805" y2="592" stroke="#3B82F6" stroke-opacity="0.8" stroke-width="3"/><line x1="1885" y1="553" x2="1885" y2="581" stroke="#3B82F6" stroke-opacity="0.8" stroke-width="3"/><line x1="1965" y1="541" x2="1965" y2="569" stroke="#3B82F6" stroke-opacity="0.8" stroke-width="3"/><line x1="2045" y1="529" x2="2045" y2="557" stroke="#3B82F6" stroke-opacity="0.8" stroke-width="3"/></g></svg>