<svg xmlns="http://www.w3.org/2000/svg" width="1920" height="1080" viewBox="0 0 1920 1080"><rect width="1920" height="1080" fill="#0A1F44"/><polyline points="-977.0,275.5 -636.1,332.2 -295.2,259.1 45.7,291.2 386.6,313.0 727.4,256.3 1068.3,333.8 1409.2,270.5 1750.1,270.3 2091.0,326.7 2431.9,318.7 2772.8,253.3 3113.7,348.4" fill="none" stroke="#FAFCFF" stroke-opacity="0" stroke-width="1.5"/><polyline points="-977.0,508.0 -636.1,399.0 -295.2,498.6 45.7,450.8 386.6,433.9 727.4,530.2 1068.3,371.7 1409.2,387.1 1750.1,412.8 2091.0,412.8 2431.9,508.0 2772.8,535.1 3113.7,486.9" fill="none" stroke="#FAFCFF" stroke-opacity="0" stroke-width="2.5"/><polyline points="-977.0,699.6 -636.1,827.9 -295.2,702.6 45.7,722.9 386.6,788.1 727.4,840.3 1068.3,653.2 1409.2,827.2 1750.1,680.5 2091.0,785.8 2431.9,672.8 2772.8,813.3 3113.7,665.2" fill="none" stroke="#FAFCFF" stroke-opacity="0" stroke-width="3.5"/><polyline points="-977.0,1099.8 -636.1,1120.9 -295.2,1205.8 45.7,1294.0 386.6,1301.3 727.4,1087.8 1068.3,1257.8 1409.2,1336.4 1750.1,1231.6 2091.0,1330.9 2431.9,1150.2 2772.8,1219.5 3113.7,1310.8" fill="none" stroke="#FAFCFF" stroke-opacity="0" stroke-width="4.5"/><polyline points="-977.0,1838.0 -636.1,1698.9 -295.2,1892.1 45.7,1839.8 386.6,1967.1 727.4,1856.0 1068.3,1775.4 1409.2,1854.7 1750.1,1710.5 2091.0,1738.8 2431.9,1854.8 2772.8,1759.7 3113.7,1677.2" fill="none" stroke="#FAFCFF" stroke-opacity="0" stroke-width="5.5"/><g opacity="0.46"><line x1="0" y1="842.4" x2="1920" y2="561.6" stroke="#FAFCFF" stroke-opacity="0.5" stroke-width="6"/><line x1="-63" y1="838" x2="-63" y2="866" stroke="#3B82F6" stroke-opacity="0.8" stroke-width="3"/><line x1="17" y1="826" x2="17" y2="854" stroke="#3B82F6" stroke-opacity="0.8" stroke-width="3"/><line x1="97" y1="814" x2="97" y2="842" stroke="#3B82F6" stroke-opacity="0.8" stroke-width="3"/><line x1="177" y1="802" x2="177" y2="830" stroke="#3B82F6" stroke-opacity="0.8" stroke-width="3"/><line x1="257" y1="791" x2="257" y2="819" stroke="#3B82F6" stroke-opacity="0.8" stroke-width="3"/><line x1="337" y1="779" x2="337" y2="807" stroke="#3B82F6" stroke-opacity="0.8" stroke-width="3"/><line x1="417" y1="767" x2="417" y2="795" stroke="#3B82F6" stroke-opacity="0.8" stroke-width="3"/><line x1="497" y1="756" x2="497" y2="784" stroke="#3B82F6" stroke-opacity="0.8" stroke-width="3"/><line x1="577" y1="744" x2="577" y2="772" stroke="#3B82F6" stroke-opacity="0.8" stroke-width="3"/><line x1="657" y1="732" x2="657" y2="760" stroke="#3B82F6" stroke-opacity="0.8" stroke-width="3"/><line x1="737" y1="721" x2="737" y2="749" stroke="#3B82F6" stroke-opacity="0.8" stroke-width="3"/><line x1="817" y1="709" x2="817" y2="737" stroke="#3B82F6" stroke-opacity="0.8" stroke-width="3"/><line x1="897" y1="697" x2="897" y2="725" stroke="#3B82F6" stroke-opacity="0.8" stroke-width="3"/><line x1="977" y1="685" x2="977" y2="713" stroke="#3B82F6" stroke-opacity="0.8" stroke-width="3"/><line x1="1057" y1="674" x2="1057" y2="702" stroke="#3B82F6" stroke-opacity="0.8" stroke-width="3"/><line x1="1137" y1="662" x2="1137" y2="690" stroke="#3B82F6" stroke-opacity="0.8" stroke-width="3"/><line x1="1217" y1="650" x2="1217" y2="678" stroke="#3B82F6" stroke-opacity="0.8" stroke-width="3"/><line x1="1297" y1="639" x2="1297" y2="667" stroke="#3B82F6" stroke-opacity="0.8" stroke-width="3"/><line x1="1377" y1="627" x2="1377" y2="655" stroke="#3B82F6" stroke-opacity="0.8" stroke-width="3"/><line x1="1457" y1="615" x2="1457" y2="643" stroke="#3B82F6" stroke-opacity="0.8" stroke-width="3"/><line x1="1537" y1="604" x2="1537" y2="632" stroke="#3B82F6" stroke-opacity="0.8" stroke-width="3"/><line x1="1617" y1="592" x2="1617" y2="620" stroke="#3B82F6" stroke-opacity="0.8" stroke-width="3"/><line x1="1697" y1="580" x2="1697" y2="608" stroke="#3B82F6" stroke-opacity="0.8" stroke-width="3"/><line x1="1777" y1="568" x2="1777" y2="596" stroke="#3B82F6" stroke-opacity="0.8" stroke-width="3"/><line x1="1857" y1="557" x2="1857" y2="585" stroke="#3B82F6" stroke-opacity="0.8" stroke-width="3"/><line x1="1937" y1="545" x2="1937" y2="573" stroke="#3B82F6" stroke-opacity="0.8" stroke-width="3"/><line x1="2017" y1="533" x2="2017" y2="561" stroke="#3B82F6" stroke-opacity="0.8" stroke-width="3"/></g><g opacity="0.90"><rect x="422.4" y="216" width="1075.2" height="540" fill="none" stroke="#FAFCFF" stroke-opacity="0.6" stroke-width="2"/><rect x="442.4" y="236" width="318.40000000000003" height="189" fill="#3B82F6" fill-opacity="0.14"/><rect x="800.8" y="236" width="318.40000000000003" height="189" fill="#3B82F6" fill-opacity="0.2"/><rect x="1159.2" y="236" width="318.40000000000003" height="189" fill="#3B82F6" fill-opacity="0.26"/></g><g opacity="0.13"><rect x="460.79999999999995" y="324" width="517.9707771018149" height="10" fill="#3B82F6" fill-opacity="0.9"/></g></svg>