<svg xmlns="http://www.w3.org/2000/svg" width="1920" height="1080" viewBox="0 0 1920 1080"><rect width="1920" height="1080" fill="#0A1F44"/><polyline points="-176.4,482.3 27.8,516.3 231.9,472.5 436.1,491.7 640.2,504.8 844.4,470.8 1048.5,517.2 1252.7,479.3 1456.8,479.2 1661.0,513.0 1865.1,508.2 2069.3,469.0 2273.4,526.0" fill="none" stroke="#FAFCFF" stroke-opacity="0.1" stroke-width="1.5"/><polyline points="-176.4,621.6 27.8,556.3 231.9,616.0 436.1,587.3 640.2,577.2 844.4,634.8 1048.5,539.9 1252.7,549.1 1456.8,564.6 1661.0,564.5 1865.1,621.5 2069.3,637.8 2273.4,608.9" fill="none" stroke="#FAFCFF" stroke-opacity="0.13" stroke-width="2.5"/><polyline points="-176.4,736.3 27.8,813.1 231.9,738.1 436.1,750.3 640.2,789.3 844.4,820.6 1048.5,708.5 1252.7,812.7 1456.8,724.9 1661.0,787.9 1865.1,720.3 2069.3,804.4 2273.4,715.7" fill="none" stroke="#FAFCFF" stroke-opacity="0.16" stroke-width="3.5"/><polyline points="-176.4,976.0 27.8,988.6 231.9,1039.5 436.1,1092.3 640.2,1096.6 844.4,968.8 1048.5,1070.6 1252.7,1117.7 1456.8,1054.9 1661.0,1114.4 1865.1,1006.2 2069.3,1047.6 2273.4,1102.3" fill="none" stroke="#FAFCFF" stroke-opacity="0.19" stroke-width="4.5"/><polyline points="-176.4,1418.1 27.8,1334.8 231.9,1450.4 436.1,1419.2 640.2,1495.4 844.4,1428.9 1048.5,1380.6 1252.7,1428.1 1456.8,1341.7 1661.0,1358.7 1865.1,1428.1 2069.3,1371.2 2273.4,1321.8" fill="none" stroke="#FAFCFF" stroke-opacity="0.22" stroke-width="5.5"/><circle cx="1220.7" cy="1000.6" r="2.5972111286105157" fill="#3B82F6" fill-opacity="0.62"/><circle cx="99.3" cy="663.0" r="2.5927747647003216" fill="#3B82F6" fill-opacity="0.75"/><circle cx="1218.0" cy="770.8" r="7.251272101782931" fill="#FF6A1A" fill-opacity="0.75"/><circle cx="1401.3" cy="834.4" r="2.9645983018848834" fill="#3B82F6" fill-opacity="0.66"/><circle cx="1793.9" cy="925.9" r="4.4506232401769585" fill="#FF6A1A" fill-opacity="0.70"/><circle cx="387.2" cy="633.1" r="7.068862971669936" fill="#3B82F6" fill-opacity="0.47"/><circle cx="1151.7" cy="876.5" r="3.1177262827538925" fill="#3B82F6" fill-opacity="0.47"/><circle cx="157.6" cy="1003.7" r="5.732594926961724" fill="#3B82F6" fill-opacity="0.74"/><circle cx="319.4" cy="473.0" r="4.864847719799209" fill="#3B82F6" fill-opacity="0.50"/><circle cx="1674.0" cy="947.8" r="5.6638900770367915" fill="#3B82F6" fill-opacity="0.54"/><circle cx="456.0" cy="1063.4" r="4.841364842967238" fill="#FF6A1A" fill-opacity="0.73"/><circle cx="1447.5" cy="1081.1" r="6.853763317527131" fill="#FF6A1A" fill-opacity="0.75"/><circle cx="2148.6" cy="698.0" r="4.383546657124494" fill="#FF6A1A" fill-opacity="0.75"/><circle cx="1017.6" cy="718.4" r="7.091791361834712" fill="#3B82F6" fill-opacity="0.69"/><circle cx="1799.4" cy="845.3" r="4.844172174730275" fill="#3B82F6" fill-opacity="0.59"/><circle cx="1272.6" cy="888.0" r="2.972911694713968" fill="#3B82F6" fill-opacity="0.66"/><circle cx="2252.8" cy="1054.5" r="3.0170777455954556" fill="#FF6A1A" fill-opacity="0.74"/><circle cx="1210.4" cy="873.8" r="2.706696387652948" fill="#3B82F6" fill-opacity="0.74"/><g opacity="0.91"><line x1="0" y1="842.4" x2="1920" y2="561.6" stroke="#FAFCFF" stroke-opacity="0.5" stroke-width="6"/><line x1="-2" y1="829" x2="-2" y2="857" stroke="#3B82F6" stroke-opacity="0.8" stroke-width="3"/><line x1="78" y1="817" x2="78" y2="845" stroke="#3B82F6" stroke-opacity="0.8" stroke-width="3"/><line x1="158" y1="805" x2="158" y2="833" stroke="#3B82F6" stroke-opacity="0.8" stroke-width="3"/><line x1="238" y1="794" x2="238" y2="822" stroke="#3B82F6" stroke-opacity="0.8" stroke-width="3"/><line x1="318" y1="782" x2="318" y2="810" stroke="#3B82F6" stroke-opacity="0.8" stroke-width="3"/><line x1="398" y1="770" x2="398" y2="798" stroke="#3B82F6" stroke-opacity="0.8" stroke-width="3"/><line x1="478" y1="759" x2="478" y2="787" stroke="#3B82F6" stroke-opacity="0.8" stroke-width="3"/><line x1="558" y1="747" x2="558" y2="775" stroke="#3B82F6" stroke-opacity="0.8" stroke-width="3"/><line x1="638" y1="735" x2="638" y2="763" stroke="#3B82F6" stroke-opacity="0.8" stroke-width="3"/><line x1="718" y1="723" x2="718" y2="751" stroke="#3B82F6" stroke-opacity="0.8" stroke-width="3"/><line x1="798" y1="712" x2="798" y2="740" stroke="#3B82F6" stroke-opacity="0.8" stroke-width="3"/><line x1="878" y1="700" x2="878" y2="728" stroke="#3B82F6" stroke-opacity="0.8" stroke-width="3"/><line x1="958" y1="688" x2="958" y2="716" stroke="#3B82F6" stroke-opacity="0.8" stroke-width="3"/><line x1="1038" y1="677" x2="1038" y2="705" stroke="#3B82F6" stroke-opacity="0.8" stroke-width="3"/><line x1="1118" y1="665" x2="1118" y2="693" stroke="#3B82F6" stroke-opacity="0.8" stroke-width="3"/><line x1="1198" y1="653" x2="1198" y2="681" stroke="#3B82F6" stroke-opacity="0.8" stroke-width="3"/><line x1="1278" y1="642" x2="1278" y2="670" stroke="#3B82F6" stroke-opacity="0.8" stroke-width="3"/><line x1="1358" y1="630" x2="1358" y2="658" stroke="#3B82F6" stroke-opacity="0.8" stroke-width="3"/><line x1="1438" y1="618" x2="1438" y2="646" stroke="#3B82F6" stroke-opacity="0.8" stroke-width="3"/><line x1="1518" y1="606" x2="1518" y2="634" stroke="#3B82F6" stroke-opacity="0.8" stroke-width="3"/><line x1="1598" y1="595" x2="1598" y2="623" stroke="#3B82F6" stroke-opacity="0.8" stroke-width="3"/><line x1="1678" y1="583" x2="1678" y2="611" stroke="#3B82F6" stroke-opacity="0.8" stroke-width="3"/><line x1="1758" y1="571" x2="1758" y2="599" stroke="#3B82F6" stroke-opacity="0.8" stroke-width="3"/><line x1="1838" y1="560" x2="1838" y2="588" stroke="#3B82F6" stroke-opacity="0.8" stroke-width="3"/><line x1="1918" y1="548" x2="1918" y2="576" stroke="#3B82F6" stroke-opacity="0.8" stroke-width="3"/><line x1="1998" y1="536" x2="1998" y2="564" stroke="#3B82F6" stroke-opacity="0.8" stroke-width="3"/><line x1="2078" y1="525" x2="2078" y2="553" stroke="#3B82F6" stroke-opacity="0.8" stroke-width="3"/></g></svg>