<svg xmlns="http://www.w3.org/2000/svg" width="1920" height="1080" viewBox="0 0 1920 1080"><rect width="1920" height="1080" fill="#0A1F44"/><polyline points="-1257.1,212.4 -874.5,276.1 -491.9,194.0 -109.4,230.0 273.2,254.6 655.8,190.9 1038.3,277.9 1420.9,206.8 1803.5,206.7 2186.1,269.9 2568.6,260.9 2951.2,187.5 3333.8,294.2" fill="none" stroke="#FAFCFF" stroke-opacity="0" stroke-width="1.5"/><polyline points="-1257.1,473.4 -874.5,351.0 -491.9,462.9 -109.4,409.2 273.2,390.2 655.8,498.2 1038.3,320.4 1420.9,337.7 1803.5,366.6 2186.1,366.5 2568.6,473.4 2951.2,503.8 3333.8,449.7" fill="none" stroke="#FAFCFF" stroke-opacity="0" stroke-width="2.5"/><polyline points="-1257.1,688.4 -874.5,832.4 -491.9,691.8 -109.4,714.6 273.2,787.8 655.8,846.4 1038.3,636.4 1420.9,831.6 1803.5,667.0 2186.1,785.1 2568.6,658.4 2951.2,816.0 3333.8,649.8" fill="none" stroke="#FAFCFF" stroke-opacity="0" stroke-width="3.5"/><polyline points="-1257.1,1137.6 -874.5,1161.2 -491.9,1256.5 -109.4,1355.5 273.2,1363.7 655.8,1124.1 1038.3,1314.9 1420.9,1403.1 1803.5,1285.5 2186.1,1396.9 2568.6,1194.1 2951.2,1271.8 3333.8,1374.3" fill="none" stroke="#FAFCFF" stroke-opacity="0" stroke-width="4.5"/><polyline points="-1257.1,1966.0 -874.5,1809.9 -491.9,2026.7 -109.4,1968.1 273.2,2110.9 655.8,1986.3 1038.3,1895.7 1420.9,1984.8 1803.5,1822.9 2186.1,1854.7 2568.6,1984.8 2951.2,1878.1 3333.8,1785.6" fill="none" stroke="#FAFCFF" stroke-opacity="0" stroke-width="5.5"/><g opacity="1.00"><rect x="422.4" y="216" width="1075.2" height="540" fill="none" stroke="#FAFCFF" stroke-opacity="0.6" stroke-width="2"/><rect x="442.4" y="236" width="318.40000000000003" height="189" fill="#3B82F6" fill-opacity="0.14"/><rect x="800.8" y="236" width="318.40000000000003" height="189" fill="#3B82F6" fill-opacity="0.2"/><rect x="1159.2" y="236" width="318.40000000000003" height="189" fill="#3B82F6" fill-opacity="0.26"/></g><g opacity="0.96"><rect x="460.79999999999995" y="324" width="517.9707771018149" height="10" fill="#3B82F6" fill-opacity="0.9"/><rect x="460.79999999999995" y="358" width="559.0618132464589" height="10" fill="#FAFCFF" fill-opacity="0.4"/><rect x="460.79999999999995" y="392" width="352.0004768371582" height="10" fill="#FAFCFF" fill-opacity="0.4"/><rect x="460.79999999999995" y="426" width="493.0137858130038" height="10" fill="#3B82F6" fill-opacity="0.9"/><rect x="460.79999999999995" y="460" width="575.1368051692843" height="10" fill="#FAFCFF" fill-opacity="0.4"/><rect x="460.79999999999995" y="494" width="311.0473481278944" height="10" fill="#FAFCFF" fill-opacity="0.4"/></g></svg>