<svg xmlns="http://www.w3.org/2000/svg" width="1920" height="1080" viewBox="0 0 1920 1080"><rect width="1920" height="1080" fill="#0A1F44"/><polyline points="-772.4,324.6 -463.9,375.9 -155.5,309.7 153.0,338.7 461.4,358.5 769.9,307.2 1078.3,377.3 1386.8,320.0 1695.2,319.9 2003.7,370.9 2312.1,363.6 2620.6,304.5 2929.0,390.5" fill="none" stroke="#FAFCFF" stroke-opacity="0" stroke-width="1.5"/><polyline points="-772.4,534.9 -463.9,436.3 -155.5,526.5 153.0,483.2 461.4,467.8 769.9,555.0 1078.3,411.6 1386.8,425.5 1695.2,448.8 2003.7,448.8 2312.1,534.9 2620.6,559.5 2929.0,515.9" fill="none" stroke="#FAFCFF" stroke-opacity="0" stroke-width="2.5"/><polyline points="-772.4,708.3 -463.9,824.4 -155.5,711.0 153.0,729.4 461.4,788.4 769.9,835.7 1078.3,666.4 1386.8,823.8 1695.2,691.0 2003.7,786.3 2312.1,684.1 2620.6,811.2 2929.0,677.2" fill="none" stroke="#FAFCFF" stroke-opacity="0" stroke-width="3.5"/><polyline points="-772.4,1070.5 -463.9,1089.5 -155.5,1166.3 153.0,1246.2 461.4,1252.7 769.9,1059.6 1078.3,1213.4 1386.8,1284.5 1695.2,1189.7 2003.7,1279.5 2312.1,1116.1 2620.6,1178.7 2929.0,1261.3" fill="none" stroke="#FAFCFF" stroke-opacity="0" stroke-width="4.5"/><polyline points="-772.4,1738.4 -463.9,1612.5 -155.5,1787.3 153.0,1740.0 461.4,1855.2 769.9,1754.7 1078.3,1681.7 1386.8,1753.5 1695.2,1623.0 2003.7,1648.6 2312.1,1753.6 2620.6,1667.5 2929.0,1592.9" fill="none" stroke="#FAFCFF" stroke-opacity="0" stroke-width="5.5"/><g opacity="0.98"><line x1="0" y1="842.4" x2="1920" y2="561.6" stroke="#FAFCFF" stroke-opacity="0.5" stroke-width="6"/><line x1="-62" y1="837" x2="-62" y2="865" stroke="#3B82F6" stroke-opacity="0.8" stroke-width="3"/><line x1="18" y1="826" x2="18" y2="854" stroke="#3B82F6" stroke-opacity="0.8" stroke-width="3"/><line x1="98" y1="814" x2="98" y2="842" stroke="#3B82F6" stroke-opacity="0.8" stroke-width="3"/><line x1="178" y1="802" x2="178" y2="830" stroke="#3B82F6" stroke-opacity="0.8" stroke-width="3"/><line x1="258" y1="791" x2="258" y2="819" stroke="#3B82F6" stroke-opacity="0.8" stroke-width="3"/><line x1="338" y1="779" x2="338" y2="807" stroke="#3B82F6" stroke-opacity="0.8" stroke-width="3"/><line x1="418" y1="767" x2="418" y2="795" stroke="#3B82F6" stroke-opacity="0.8" stroke-width="3"/><line x1="498" y1="756" x2="498" y2="784" stroke="#3B82F6" stroke-opacity="0.8" stroke-width="3"/><line x1="578" y1="744" x2="578" y2="772" stroke="#3B82F6" stroke-opacity="0.8" stroke-width="3"/><line x1="658" y1="732" x2="658" y2="760" stroke="#3B82F6" stroke-opacity="0.8" stroke-width="3"/><line x1="738" y1="720" x2="738" y2="748" stroke="#3B82F6" stroke-opacity="0.8" stroke-width="3"/><line x1="818" y1="709" x2="818" y2="737" stroke="#3B82F6" stroke-opacity="0.8" stroke-width="3"/><line x1="898" y1="697" x2="898" y2="725" stroke="#3B82F6" stroke-opacity="0.8" stroke-width="3"/><line x1="978" y1="685" x2="978" y2="713" stroke="#3B82F6" stroke-opacity="0.8" stroke-width="3"/><line x1="1058" y1="674" x2="1058" y2="702" stroke="#3B82F6" stroke-opacity="0.8" stroke-width="3"/><line x1="1138" y1="662" x2="1138" y2="690" stroke="#3B82F6" stroke-opacity="0.8" stroke-width="3"/><line x1="1218" y1="650" x2="1218" y2="678" stroke="#3B82F6" stroke-opacity="0.8" stroke-width="3"/><line x1="1298" y1="639" x2="1298" y2="667" stroke="#3B82F6" stroke-opacity="0.8" stroke-width="3"/><line x1="1378" y1="627" x2="1378" y2="655" stroke="#3B82F6" stroke-opacity="0.8" stroke-width="3"/><line x1="1458" y1="615" x2="1458" y2="643" stroke="#3B82F6" stroke-opacity="0.8" stroke-width="3"/><line x1="1538" y1="603" x2="1538" y2="631" stroke="#3B82F6" stroke-opacity="0.8" stroke-width="3"/><line x1="1618" y1="592" x2="1618" y2="620" stroke="#3B82F6" stroke-opacity="0.8" stroke-width="3"/><line x1="1698" y1="580" x2="1698" y2="608" stroke="#3B82F6" stroke-opacity="0.8" stroke-width="3"/><line x1="1778" y1="568" x2="1778" y2="596" stroke="#3B82F6" stroke-opacity="0.8" stroke-width="3"/><line x1="1858" y1="557" x2="1858" y2="585" stroke="#3B82F6" stroke-opacity="0.8" stroke-width="3"/><line x1="1938" y1="545" x2="1938" y2="573" stroke="#3B82F6" stroke-opacity="0.8" stroke-width="3"/><line x1="2018" y1="533" x2="2018" y2="561" stroke="#3B82F6" stroke-opacity="0.8" stroke-width="3"/></g><g opacity="0.41"><rect x="422.4" y="216" width="1075.2" height="540" fill="none" stroke="#FAFCFF" stroke-opacity="0.6" stroke-width="2"/><rect x="442.4" y="236" width="318.40000000000003" height="189" fill="#3B82F6" fill-opacity="0.14"/><rect x="800.8" y="236" width="318.40000000000003" height="189" fill="#3B82F6" fill-opacity="0.2"/><rect x="1159.2" y="236" width="318.40000000000003" height="189" fill="#3B82F6" fill-opacity="0.26"/></g></svg>