<svg xmlns="http://www.w3.org/2000/svg" width="1920" height="1080" viewBox="0 0 1920 1080"><rect width="1920" height="1080" fill="#0A1F44"/><polyline points="-1220.5,220.3 -843.2,283.1 -465.8,202.2 -88.5,237.7 288.9,261.9 666.2,199.1 1043.6,284.9 1420.9,214.8 1798.3,214.6 2175.6,277.0 2553.0,268.1 2930.3,195.8 3307.7,301.0" fill="none" stroke="#FAFCFF" stroke-opacity="0" stroke-width="1.5"/><polyline points="-1220.5,477.7 -843.2,357.1 -465.8,467.4 -88.5,414.4 288.9,395.6 666.2,502.2 1043.6,326.8 1420.9,343.9 1798.3,372.4 2175.6,372.3 2553.0,477.7 2930.3,507.7 3307.7,454.4" fill="none" stroke="#FAFCFF" stroke-opacity="0" stroke-width="2.5"/><polyline points="-1220.5,689.8 -843.2,831.8 -465.8,693.1 -88.5,715.6 288.9,787.8 666.2,845.6 1043.6,638.5 1420.9,831.1 1798.3,668.7 2175.6,785.2 2553.0,660.2 2930.3,815.7 3307.7,651.7" fill="none" stroke="#FAFCFF" stroke-opacity="0" stroke-width="3.5"/><polyline points="-1220.5,1132.9 -843.2,1156.2 -465.8,1250.2 -88.5,1347.8 288.9,1355.9 666.2,1119.5 1043.6,1307.7 1420.9,1394.7 1798.3,1278.7 2175.6,1388.6 2553.0,1188.6 2930.3,1265.3 3307.7,1366.3" fill="none" stroke="#FAFCFF" stroke-opacity="0" stroke-width="4.5"/><polyline points="-1220.5,1950.0 -843.2,1796.0 -465.8,2009.8 -88.5,1952.0 288.9,2092.9 666.2,1969.9 1043.6,1880.6 1420.9,1968.5 1798.3,1808.8 2175.6,1840.2 2553.0,1968.5 2930.3,1863.3 3307.7,1772.0" fill="none" stroke="#FAFCFF" stroke-opacity="0" stroke-width="5.5"/><g opacity="1.00"><rect x="422.4" y="216" width="1075.2" height="540" fill="none" stroke="#FAFCFF" stroke-opacity="0.6" stroke-width="2"/><rect x="442.4" y="236" width="318.40000000000003" height="189" fill="#3B82F6" fill-opacity="0.14"/><rect x="800.8" y="236" width="318.40000000000003" height="189" fill="#3B82F6" fill-opacity="0.2"/><rect x="1159.2" y="236" width="318.40000000000003" height="189" fill="#3B82F6" fill-opacity="0.26"/></g><g opacity="0.84"><rect x="460.79999999999995" y="324" width="517.9707771018149" height="10" fill="#3B82F6" fill-opacity="0.9"/><rect x="460.79999999999995" y="358" width="559.0618132464589" height="10" fill="#FAFCFF" fill-opacity="0.4"/><rect x="460.79999999999995" y="392" width="352.0004768371582" height="10" fill="#FAFCFF" fill-opacity="0.4"/><rect x="460.79999999999995" y="426" width="493.0137858130038" height="10" fill="#3B82F6" fill-opacity="0.9"/><rect x="460.79999999999995" y="460" width="575.1368051692843" height="10" fill="#FAFCFF" fill-opacity="0.4"/></g></svg>