<svg xmlns="http://www.w3.org/2000/svg" width="1920" height="1080" viewBox="0 0 1920 1080"><rect width="1920" height="1080" fill="#0A1F44"/><polyline points="-1482.9,168.2 -1071.0,236.7 -659.2,148.4 -247.4,187.1 164.5,213.5 576.3,145.0 988.2,238.6 1400.0,162.1 1811.9,161.9 2223.7,230.0 2635.6,220.3 3047.4,141.3 3459.3,256.2" fill="none" stroke="#FAFCFF" stroke-opacity="0" stroke-width="1.5"/><polyline points="-1482.9,449.1 -1071.0,317.4 -659.2,437.8 -247.4,380.0 164.5,359.5 576.3,475.8 988.2,284.4 1400.0,303.0 1811.9,334.1 2223.7,334.0 2635.6,449.1 3047.4,481.8 3459.3,423.6" fill="none" stroke="#FAFCFF" stroke-opacity="0" stroke-width="2.5"/><polyline points="-1482.9,680.5 -1071.0,835.6 -659.2,684.2 -247.4,708.7 164.5,787.5 576.3,850.6 988.2,624.6 1400.0,834.7 1811.9,657.5 2223.7,784.7 2635.6,648.2 3047.4,817.9 3459.3,639.0" fill="none" stroke="#FAFCFF" stroke-opacity="0" stroke-width="3.5"/><polyline points="-1482.9,1164.1 -1071.0,1189.6 -659.2,1292.1 -247.4,1398.7 164.5,1407.5 576.3,1149.6 988.2,1354.9 1400.0,1449.9 1811.9,1323.3 2223.7,1443.2 2635.6,1225.0 3047.4,1308.6 3459.3,1418.9" fill="none" stroke="#FAFCFF" stroke-opacity="0" stroke-width="4.5"/><polyline points="-1482.9,2055.9 -1071.0,1887.8 -659.2,2121.2 -247.4,2058.1 164.5,2211.9 576.3,2077.7 988.2,1980.2 1400.0,2076.1 1811.9,1901.9 2223.7,1936.1 2635.6,2076.2 3047.4,1961.3 3459.3,1861.7" fill="none" stroke="#FAFCFF" stroke-opacity="0" stroke-width="5.5"/><g opacity="0.69"><rect x="422.4" y="216" width="1075.2" height="540" fill="none" stroke="#FAFCFF" stroke-opacity="0.6" stroke-width="2"/><rect x="442.4" y="236" width="318.40000000000003" height="189" fill="#3B82F6" fill-opacity="0.14"/><rect x="800.8" y="236" width="318.40000000000003" height="189" fill="#3B82F6" fill-opacity="0.2"/><rect x="1159.2" y="236" width="318.40000000000003" height="189" fill="#3B82F6" fill-opacity="0.26"/></g><g opacity="0.94"><rect x="460.79999999999995" y="324" width="517.9707771018149" height="10" fill="#3B82F6" fill-opacity="0.9"/><rect x="460.79999999999995" y="358" width="559.0618132464589" height="10" fill="#FAFCFF" fill-opacity="0.4"/><rect x="460.79999999999995" y="392" width="352.0004768371582" height="10" fill="#FAFCFF" fill-opacity="0.4"/><rect x="460.79999999999995" y="426" width="493.0137858130038" height="10" fill="#3B82F6" fill-opacity="0.9"/><rect x="460.79999999999995" y="460" width="575.1368051692843" height="10" fill="#FAFCFF" fill-opacity="0.4"/><rect x="460.79999999999995" y="494" width="457.9308180771768" height="10" fill="#FAFCFF" fill-opacity="0.4"/><rect x="460.79999999999995" y="528" width="514.2663277834654" height="10" fill="#3B82F6" fill-opacity="0.9"/><rect x="460.79999999999995" y="562" width="778.5601877756417" height="10" fill="#FAFCFF" fill-opacity="0.4"/><rect x="460.79999999999995" y="596" width="771.863665021956" height="10" fill="#FAFCFF" fill-opacity="0.4"/></g><rect width="1920" height="1080" fill="#0A1F44" fill-opacity="0.32"/><circle cx="960" cy="540" r="7" fill="#3B82F6" fill-opacity="0.46"/><rect x="800" y="580" width="320" height="2" fill="#FAFCFF" fill-opacity="0.18"/></svg>