<svg xmlns="http://www.w3.org/2000/svg" width="1920" height="1080" viewBox="0 0 1920 1080"><rect width="1920" height="1080" fill="#0A1F44"/><polyline points="-1510.8,164.1 -1096.2,233.0 -681.7,144.1 -267.1,183.1 147.4,209.7 562.0,140.8 976.5,235.0 1391.1,157.9 1805.7,157.8 2220.2,226.3 2634.8,216.6 3049.3,137.1 3463.9,252.7" fill="none" stroke="#FAFCFF" stroke-opacity="0" stroke-width="1.5"/><polyline points="-1510.8,446.8 -1096.2,314.3 -681.7,435.4 -267.1,377.3 147.4,356.6 562.0,473.8 976.5,281.1 1391.1,299.8 1805.7,331.1 2220.2,331.0 2634.8,446.8 3049.3,479.8 3463.9,421.2" fill="none" stroke="#FAFCFF" stroke-opacity="0" stroke-width="2.5"/><polyline points="-1510.8,679.8 -1096.2,835.9 -681.7,683.5 -267.1,708.2 147.4,787.5 562.0,851.0 976.5,623.5 1391.1,835.0 1805.7,656.6 2220.2,784.7 2634.8,647.3 3049.3,818.1 3463.9,638.0" fill="none" stroke="#FAFCFF" stroke-opacity="0" stroke-width="3.5"/><polyline points="-1510.8,1166.6 -1096.2,1192.2 -681.7,1295.4 -267.1,1402.7 147.4,1411.5 562.0,1151.9 976.5,1358.7 1391.1,1454.2 1805.7,1326.8 2220.2,1447.5 2634.8,1227.8 3049.3,1312.0 3463.9,1423.1" fill="none" stroke="#FAFCFF" stroke-opacity="0" stroke-width="4.5"/><polyline points="-1510.8,2064.2 -1096.2,1895.1 -681.7,2130.0 -267.1,2066.5 147.4,2221.2 562.0,2086.2 976.5,1988.1 1391.1,2084.5 1805.7,1909.2 2220.2,1943.6 2634.8,2084.6 3049.3,1969.0 3463.9,1868.7" fill="none" stroke="#FAFCFF" stroke-opacity="0" stroke-width="5.5"/><g opacity="0.30"><rect x="422.4" y="216" width="1075.2" height="540" fill="none" stroke="#FAFCFF" stroke-opacity="0.6" stroke-width="2"/><rect x="442.4" y="236" width="318.40000000000003" height="189" fill="#3B82F6" fill-opacity="0.14"/><rect x="800.8" y="236" width="318.40000000000003" height="189" fill="#3B82F6" fill-opacity="0.2"/><rect x="1159.2" y="236" width="318.40000000000003" height="189" fill="#3B82F6" fill-opacity="0.26"/></g><g opacity="0.55"><rect x="460.79999999999995" y="324" width="517.9707771018149" height="10" fill="#3B82F6" fill-opacity="0.9"/><rect x="460.79999999999995" y="358" width="559.0618132464589" height="10" fill="#FAFCFF" fill-opacity="0.4"/><rect x="460.79999999999995" y="392" width="352.0004768371582" height="10" fill="#FAFCFF" fill-opacity="0.4"/><rect x="460.79999999999995" y="426" width="493.0137858130038" height="10" fill="#3B82F6" fill-opacity="0.9"/><rect x="460.79999999999995" y="460" width="575.1368051692843" height="10" fill="#FAFCFF" fill-opacity="0.4"/><rect x="460.79999999999995" y="494" width="457.9308180771768" height="10" fill="#FAFCFF" fill-opacity="0.4"/><rect x="460.79999999999995" y="528" width="514.2663277834654" height="10" fill="#3B82F6" fill-opacity="0.9"/><rect x="460.79999999999995" y="562" width="778.5601877756417" height="10" fill="#FAFCFF" fill-opacity="0.4"/><rect x="460.79999999999995" y="596" width="771.863665021956" height="10" fill="#FAFCFF" fill-opacity="0.4"/></g><rect width="1920" height="1080" fill="#0A1F44" fill-opacity="0.48"/><circle cx="960" cy="540" r="7" fill="#3B82F6" fill-opacity="0.69"/><rect x="800" y="580" width="320" height="2" fill="#FAFCFF" fill-opacity="0.27"/></svg>