<svg xmlns="http://www.w3.org/2000/svg" width="1920" height="1080" viewBox="0 0 1920 1080"><rect width="1920" height="1080" fill="#0A1F44"/><polyline points="-1476.4,169.2 -1065.2,237.6 -654.1,149.4 -243.0,188.1 168.2,214.5 579.3,146.1 990.5,239.6 1401.6,163.2 1812.8,163.0 2223.9,231.0 2635.1,221.3 3046.2,142.4 3457.4,257.1" fill="none" stroke="#FAFCFF" stroke-opacity="0" stroke-width="1.5"/><polyline points="-1476.4,449.6 -1065.2,318.2 -654.1,438.4 -243.0,380.7 168.2,360.2 579.3,476.4 990.5,285.3 1401.6,303.8 1812.8,334.9 2223.9,334.8 2635.1,449.6 3046.2,482.3 3457.4,424.3" fill="none" stroke="#FAFCFF" stroke-opacity="0" stroke-width="2.5"/><polyline points="-1476.4,680.7 -1065.2,835.5 -654.1,684.4 -243.0,708.9 168.2,787.5 579.3,850.5 990.5,624.8 1401.6,834.7 1812.8,657.7 2223.9,784.7 2635.1,648.4 3046.2,817.9 3457.4,639.2" fill="none" stroke="#FAFCFF" stroke-opacity="0" stroke-width="3.5"/><polyline points="-1476.4,1163.5 -1065.2,1188.9 -654.1,1291.3 -243.0,1397.7 168.2,1406.4 579.3,1148.9 990.5,1354.0 1401.6,1448.8 1812.8,1322.4 2223.9,1442.1 2635.1,1224.2 3046.2,1307.7 3457.4,1417.9" fill="none" stroke="#FAFCFF" stroke-opacity="0" stroke-width="4.5"/><polyline points="-1476.4,2053.8 -1065.2,1886.0 -654.1,2119.0 -243.0,2056.0 168.2,2209.5 579.3,2075.5 990.5,1978.2 1401.6,2073.9 1812.8,1900.0 2223.9,1934.1 2635.1,2074.0 3046.2,1959.3 3457.4,1859.9" fill="none" stroke="#FAFCFF" stroke-opacity="0" stroke-width="5.5"/><g opacity="0.77"><rect x="422.4" y="216" width="1075.2" height="540" fill="none" stroke="#FAFCFF" stroke-opacity="0.6" stroke-width="2"/><rect x="442.4" y="236" width="318.40000000000003" height="189" fill="#3B82F6" fill-opacity="0.14"/><rect x="800.8" y="236" width="318.40000000000003" height="189" fill="#3B82F6" fill-opacity="0.2"/><rect x="1159.2" y="236" width="318.40000000000003" height="189" fill="#3B82F6" fill-opacity="0.26"/></g><g opacity="1.00"><rect x="460.79999999999995" y="324" width="517.9707771018149" height="10" fill="#3B82F6" fill-opacity="0.9"/><rect x="460.79999999999995" y="358" width="559.0618132464589" height="10" fill="#FAFCFF" fill-opacity="0.4"/><rect x="460.79999999999995" y="392" width="352.0004768371582" height="10" fill="#FAFCFF" fill-opacity="0.4"/><rect x="460.79999999999995" y="426" width="493.0137858130038" height="10" fill="#3B82F6" fill-opacity="0.9"/><rect x="460.79999999999995" y="460" width="575.1368051692843" height="10" fill="#FAFCFF" fill-opacity="0.4"/><rect x="460.79999999999995" y="494" width="457.9308180771768" height="10" fill="#FAFCFF" fill-opacity="0.4"/><rect x="460.79999999999995" y="528" width="514.2663277834654" height="10" fill="#3B82F6" fill-opacity="0.9"/><rect x="460.79999999999995" y="562" width="778.5601877756417" height="10" fill="#FAFCFF" fill-opacity="0.4"/><rect x="460.79999999999995" y="596" width="771.863665021956" height="10" fill="#FAFCFF" fill-opacity="0.4"/></g><rect width="1920" height="1080" fill="#0A1F44" fill-opacity="0.29"/><circle cx="960" cy="540" r="7" fill="#3B82F6" fill-opacity="0.42"/><rect x="800" y="580" width="320" height="2" fill="#FAFCFF" fill-opacity="0.17"/></svg>