<svg xmlns="http://www.w3.org/2000/svg" width="1920" height="1080" viewBox="0 0 1920 1080"><rect width="1920" height="1080" fill="#0A1F44"/><polyline points="-787.1,321.0 -476.3,372.7 -165.4,306.0 145.4,335.2 456.2,355.2 767.1,303.5 1077.9,374.1 1388.7,316.4 1699.6,316.2 2010.4,367.6 2321.2,360.3 2632.1,300.7 2942.9,387.4" fill="none" stroke="#FAFCFF" stroke-opacity="0" stroke-width="1.5"/><polyline points="-787.1,533.0 -476.3,433.6 -165.4,524.4 145.4,480.8 456.2,465.3 767.1,553.2 1077.9,408.7 1388.7,422.7 1699.6,446.2 2010.4,446.1 2321.2,532.9 2632.1,557.7 2942.9,513.8" fill="none" stroke="#FAFCFF" stroke-opacity="0" stroke-width="2.5"/><polyline points="-787.1,707.6 -476.3,824.7 -165.4,710.4 145.4,728.9 456.2,788.4 767.1,836.0 1077.9,665.4 1388.7,824.0 1699.6,690.2 2010.4,786.3 2321.2,683.2 2632.1,811.3 2942.9,676.3" fill="none" stroke="#FAFCFF" stroke-opacity="0" stroke-width="3.5"/><polyline points="-787.1,1072.6 -476.3,1091.8 -165.4,1169.2 145.4,1249.7 456.2,1256.3 767.1,1061.6 1077.9,1216.7 1388.7,1288.3 1699.6,1192.8 2010.4,1283.3 2321.2,1118.6 2632.1,1181.7 2942.9,1264.9" fill="none" stroke="#FAFCFF" stroke-opacity="0" stroke-width="4.5"/><polyline points="-787.1,1745.7 -476.3,1618.9 -165.4,1795.0 145.4,1747.4 456.2,1863.4 767.1,1762.2 1077.9,1688.6 1388.7,1760.9 1699.6,1629.4 2010.4,1655.3 2321.2,1761.0 2632.1,1674.3 2942.9,1599.1" fill="none" stroke="#FAFCFF" stroke-opacity="0" stroke-width="5.5"/><g opacity="0.94"><line x1="0" y1="842.4" x2="1920" y2="561.6" stroke="#FAFCFF" stroke-opacity="0.5" stroke-width="6"/><line x1="-56" y1="837" x2="-56" y2="865" stroke="#3B82F6" stroke-opacity="0.8" stroke-width="3"/><line x1="24" y1="825" x2="24" y2="853" stroke="#3B82F6" stroke-opacity="0.8" stroke-width="3"/><line x1="104" y1="813" x2="104" y2="841" stroke="#3B82F6" stroke-opacity="0.8" stroke-width="3"/><line x1="184" y1="802" x2="184" y2="830" stroke="#3B82F6" stroke-opacity="0.8" stroke-width="3"/><line x1="264" y1="790" x2="264" y2="818" stroke="#3B82F6" stroke-opacity="0.8" stroke-width="3"/><line x1="344" y1="778" x2="344" y2="806" stroke="#3B82F6" stroke-opacity="0.8" stroke-width="3"/><line x1="424" y1="766" x2="424" y2="794" stroke="#3B82F6" stroke-opacity="0.8" stroke-width="3"/><line x1="504" y1="755" x2="504" y2="783" stroke="#3B82F6" stroke-opacity="0.8" stroke-width="3"/><line x1="584" y1="743" x2="584" y2="771" stroke="#3B82F6" stroke-opacity="0.8" stroke-width="3"/><line x1="664" y1="731" x2="664" y2="759" stroke="#3B82F6" stroke-opacity="0.8" stroke-width="3"/><line x1="744" y1="720" x2="744" y2="748" stroke="#3B82F6" stroke-opacity="0.8" stroke-width="3"/><line x1="824" y1="708" x2="824" y2="736" stroke="#3B82F6" stroke-opacity="0.8" stroke-width="3"/><line x1="904" y1="696" x2="904" y2="724" stroke="#3B82F6" stroke-opacity="0.8" stroke-width="3"/><line x1="984" y1="685" x2="984" y2="713" stroke="#3B82F6" stroke-opacity="0.8" stroke-width="3"/><line x1="1064" y1="673" x2="1064" y2="701" stroke="#3B82F6" stroke-opacity="0.8" stroke-width="3"/><line x1="1144" y1="661" x2="1144" y2="689" stroke="#3B82F6" stroke-opacity="0.8" stroke-width="3"/><line x1="1224" y1="649" x2="1224" y2="677" stroke="#3B82F6" stroke-opacity="0.8" stroke-width="3"/><line x1="1304" y1="638" x2="1304" y2="666" stroke="#3B82F6" stroke-opacity="0.8" stroke-width="3"/><line x1="1384" y1="626" x2="1384" y2="654" stroke="#3B82F6" stroke-opacity="0.8" stroke-width="3"/><line x1="1464" y1="614" x2="1464" y2="642" stroke="#3B82F6" stroke-opacity="0.8" stroke-width="3"/><line x1="1544" y1="603" x2="1544" y2="631" stroke="#3B82F6" stroke-opacity="0.8" stroke-width="3"/><line x1="1624" y1="591" x2="1624" y2="619" stroke="#3B82F6" stroke-opacity="0.8" stroke-width="3"/><line x1="1704" y1="579" x2="1704" y2="607" stroke="#3B82F6" stroke-opacity="0.8" stroke-width="3"/><line x1="1784" y1="568" x2="1784" y2="596" stroke="#3B82F6" stroke-opacity="0.8" stroke-width="3"/><line x1="1864" y1="556" x2="1864" y2="584" stroke="#3B82F6" stroke-opacity="0.8" stroke-width="3"/><line x1="1944" y1="544" x2="1944" y2="572" stroke="#3B82F6" stroke-opacity="0.8" stroke-width="3"/><line x1="2024" y1="532" x2="2024" y2="560" stroke="#3B82F6" stroke-opacity="0.8" stroke-width="3"/></g><g opacity="0.44"><rect x="422.4" y="216" width="1075.2" height="540" fill="none" stroke="#FAFCFF" stroke-opacity="0.6" stroke-width="2"/><rect x="442.4" y="236" width="318.40000000000003" height="189" fill="#3B82F6" fill-opacity="0.14"/><rect x="800.8" y="236" width="318.40000000000003" height="189" fill="#3B82F6" fill-opacity="0.2"/><rect x="1159.2" y="236" width="318.40000000000003" height="189" fill="#3B82F6" fill-opacity="0.26"/></g></svg>