<svg xmlns="http://www.w3.org/2000/svg" width="1920" height="1080" viewBox="0 0 1920 1080"><rect width="1920" height="1080" fill="#0A1F44"/><polyline points="-640.8,357.3 -354.0,405.0 -67.2,343.5 219.6,370.5 506.4,388.9 793.2,341.2 1080.0,406.4 1366.8,353.1 1653.6,353.0 1940.4,400.4 2227.2,393.6 2514.0,338.6 2800.7,418.6" fill="none" stroke="#FAFCFF" stroke-opacity="0.021257861635220143" stroke-width="1.5"/><polyline points="-640.8,552.9 -354.0,461.2 -67.2,545.1 219.6,504.8 506.4,490.5 793.2,571.6 1080.0,438.3 1366.8,451.2 1653.6,472.9 1940.4,472.8 2227.2,552.9 2514.0,575.7 2800.7,535.2" fill="none" stroke="#FAFCFF" stroke-opacity="0.027635220125786186" stroke-width="2.5"/><polyline points="-640.8,714.1 -354.0,822.1 -67.2,716.7 219.6,733.7 506.4,788.6 793.2,832.5 1080.0,675.1 1366.8,821.5 1653.6,698.0 1940.4,786.6 2227.2,691.6 2514.0,809.8 2800.7,685.2" fill="none" stroke="#FAFCFF" stroke-opacity="0.03401257861635223" stroke-width="3.5"/><polyline points="-640.8,1050.9 -354.0,1068.6 -67.2,1140.0 219.6,1214.2 506.4,1220.3 793.2,1040.7 1080.0,1183.7 1366.8,1249.9 1653.6,1161.7 1940.4,1245.2 2227.2,1093.2 2514.0,1151.5 2800.7,1228.3" fill="none" stroke="#FAFCFF" stroke-opacity="0.040389937106918274" stroke-width="4.5"/><polyline points="-640.8,1671.9 -354.0,1554.8 -67.2,1717.4 219.6,1673.4 506.4,1780.5 793.2,1687.0 1080.0,1619.2 1366.8,1685.9 1653.6,1564.6 1940.4,1588.4 2227.2,1686.0 2514.0,1606.0 2800.7,1536.6" fill="none" stroke="#FAFCFF" stroke-opacity="0.04676729559748431" stroke-width="5.5"/><circle cx="1321.9" cy="1085.3" r="3.648578238640215" fill="#3B82F6" fill-opacity="0.10"/><circle cx="-253.5" cy="611.2" r="3.642346007212005" fill="#3B82F6" fill-opacity="0.12"/><circle cx="1318.0" cy="762.6" r="10.186631845820811" fill="#FF6A1A" fill-opacity="0.12"/><circle cx="1575.6" cy="851.9" r="4.164686009317111" fill="#3B82F6" fill-opacity="0.15"/><circle cx="2127.1" cy="980.5" r="6.2522630230617695" fill="#FF6A1A" fill-opacity="0.15"/><circle cx="150.9" cy="569.2" r="9.930382372942718" fill="#3B82F6" fill-opacity="0.13"/><circle cx="1225.0" cy="911.0" r="4.379801142842848" fill="#3B82F6" fill-opacity="0.16"/><circle cx="-171.6" cy="1089.8" r="8.05318476847957" fill="#3B82F6" fill-opacity="0.10"/><circle cx="55.6" cy="344.2" r="6.834168131049798" fill="#3B82F6" fill-opacity="0.16"/><circle cx="1958.6" cy="1011.2" r="7.9566677708571" fill="#3B82F6" fill-opacity="0.12"/><circle cx="247.6" cy="1173.6" r="6.801179240602668" fill="#FF6A1A" fill-opacity="0.14"/><circle cx="1640.5" cy="1198.5" r="9.62820904995055" fill="#FF6A1A" fill-opacity="0.12"/><circle cx="2625.4" cy="660.4" r="6.158033424800925" fill="#FF6A1A" fill-opacity="0.11"/><circle cx="1036.5" cy="689.0" r="9.96259231709424" fill="#3B82F6" fill-opacity="0.15"/><circle cx="2134.8" cy="867.3" r="6.805122997606643" fill="#3B82F6" fill-opacity="0.16"/><circle cx="1394.7" cy="927.2" r="4.176364714922263" fill="#3B82F6" fill-opacity="0.09"/><circle cx="2771.7" cy="1161.1" r="4.238409456051599" fill="#FF6A1A" fill-opacity="0.13"/><circle cx="1307.3" cy="907.2" r="3.802383806925999" fill="#3B82F6" fill-opacity="0.10"/><g opacity="1.00"><line x1="0" y1="842.4" x2="1920" y2="561.6" stroke="#FAFCFF" stroke-opacity="0.5" stroke-width="6"/><line x1="-33" y1="833" x2="-33" y2="861" stroke="#3B82F6" stroke-opacity="0.8" stroke-width="3"/><line x1="47" y1="822" x2="47" y2="850" stroke="#3B82F6" stroke-opacity="0.8" stroke-width="3"/><line x1="127" y1="810" x2="127" y2="838" stroke="#3B82F6" stroke-opacity="0.8" stroke-width="3"/><line x1="207" y1="798" x2="207" y2="826" stroke="#3B82F6" stroke-opacity="0.8" stroke-width="3"/><line x1="287" y1="786" x2="287" y2="814" stroke="#3B82F6" stroke-opacity="0.8" stroke-width="3"/><line x1="367" y1="775" x2="367" y2="803" stroke="#3B82F6" stroke-opacity="0.8" stroke-width="3"/><line x1="447" y1="763" x2="447" y2="791" stroke="#3B82F6" stroke-opacity="0.8" stroke-width="3"/><line x1="527" y1="751" x2="527" y2="779" stroke="#3B82F6" stroke-opacity="0.8" stroke-width="3"/><line x1="607" y1="740" x2="607" y2="768" stroke="#3B82F6" stroke-opacity="0.8" stroke-width="3"/><line x1="687" y1="728" x2="687" y2="756" stroke="#3B82F6" stroke-opacity="0.8" stroke-width="3"/><line x1="767" y1="716" x2="767" y2="744" stroke="#3B82F6" stroke-opacity="0.8" stroke-width="3"/><line x1="847" y1="705" x2="847" y2="733" stroke="#3B82F6" stroke-opacity="0.8" stroke-width="3"/><line x1="927" y1="693" x2="927" y2="721" stroke="#3B82F6" stroke-opacity="0.8" stroke-width="3"/><line x1="1007" y1="681" x2="1007" y2="709" stroke="#3B82F6" stroke-opacity="0.8" stroke-width="3"/><line x1="1087" y1="669" x2="1087" y2="697" stroke="#3B82F6" stroke-opacity="0.8" stroke-width="3"/><line x1="1167" y1="658" x2="1167" y2="686" stroke="#3B82F6" stroke-opacity="0.8" stroke-width="3"/><line x1="1247" y1="646" x2="1247" y2="674" stroke="#3B82F6" stroke-opacity="0.8" stroke-width="3"/><line x1="1327" y1="634" x2="1327" y2="662" stroke="#3B82F6" stroke-opacity="0.8" stroke-width="3"/><line x1="1407" y1="623" x2="1407" y2="651" stroke="#3B82F6" stroke-opacity="0.8" stroke-width="3"/><line x1="1487" y1="611" x2="1487" y2="639" stroke="#3B82F6" stroke-opacity="0.8" stroke-width="3"/><line x1="1567" y1="599" x2="1567" y2="627" stroke="#3B82F6" stroke-opacity="0.8" stroke-width="3"/><line x1="1647" y1="588" x2="1647" y2="616" stroke="#3B82F6" stroke-opacity="0.8" stroke-width="3"/><line x1="1727" y1="576" x2="1727" y2="604" stroke="#3B82F6" stroke-opacity="0.8" stroke-width="3"/><line x1="1807" y1="564" x2="1807" y2="592" stroke="#3B82F6" stroke-opacity="0.8" stroke-width="3"/><line x1="1887" y1="552" x2="1887" y2="580" stroke="#3B82F6" stroke-opacity="0.8" stroke-width="3"/><line x1="1967" y1="541" x2="1967" y2="569" stroke="#3B82F6" stroke-opacity="0.8" stroke-width="3"/><line x1="2047" y1="529" x2="2047" y2="557" stroke="#3B82F6" stroke-opacity="0.8" stroke-width="3"/></g><g opacity="0.09"><rect x="422.4" y="216" width="1075.2" height="540" fill="none" stroke="#FAFCFF" stroke-opacity="0.6" stroke-width="2"/><rect x="442.4" y="236" width="318.40000000000003" height="189" fill="#3B82F6" fill-opacity="0.14"/><rect x="800.8" y="236" width="318.40000000000003" height="189" fill="#3B82F6" fill-opacity="0.2"/><rect x="1159.2" y="236" width="318.40000000000003" height="189" fill="#3B82F6" fill-opacity="0.26"/></g></svg>