<svg xmlns="http://www.w3.org/2000/svg" width="1920" height="1080" viewBox="0 0 1920 1080"><rect width="1920" height="1080" fill="#0A1F44"/><polyline points="-757.7,328.2 -451.6,379.1 -145.6,313.4 160.5,342.3 466.6,361.9 772.6,311.0 1078.7,380.5 1384.7,323.7 1690.8,323.5 1996.9,374.1 2302.9,366.9 2609.0,308.2 2915.0,393.6" fill="none" stroke="#FAFCFF" stroke-opacity="0.0011320754716981352" stroke-width="1.5"/><polyline points="-757.7,536.9 -451.6,439.1 -145.6,528.5 160.5,485.6 466.6,470.4 772.6,556.8 1078.7,414.6 1384.7,428.4 1690.8,451.5 1996.9,451.4 2302.9,536.9 2609.0,561.3 2915.0,518.0" fill="none" stroke="#FAFCFF" stroke-opacity="0.0014716981132075757" stroke-width="2.5"/><polyline points="-757.7,708.9 -451.6,824.1 -145.6,711.6 160.5,729.9 466.6,788.4 772.6,835.3 1078.7,667.3 1384.7,823.5 1690.8,691.8 1996.9,786.3 2302.9,684.9 2609.0,811.0 2915.0,678.1" fill="none" stroke="#FAFCFF" stroke-opacity="0.0018113207547170163" stroke-width="3.5"/><polyline points="-757.7,1068.3 -451.6,1087.2 -145.6,1163.4 160.5,1242.6 466.6,1249.2 772.6,1057.5 1078.7,1210.1 1384.7,1280.7 1690.8,1186.6 1996.9,1275.7 2302.9,1113.5 2609.0,1175.7 2915.0,1257.7" fill="none" stroke="#FAFCFF" stroke-opacity="0.002150943396226457" stroke-width="4.5"/><polyline points="-757.7,1731.0 -451.6,1606.1 -145.6,1779.6 160.5,1732.7 466.6,1846.9 772.6,1747.2 1078.7,1674.8 1384.7,1746.0 1690.8,1616.6 1996.9,1642.0 2302.9,1746.1 2609.0,1660.7 2915.0,1586.7" fill="none" stroke="#FAFCFF" stroke-opacity="0.0024905660377358974" stroke-width="5.5"/><g opacity="1.00"><line x1="0" y1="842.4" x2="1920" y2="561.6" stroke="#FAFCFF" stroke-opacity="0.5" stroke-width="6"/><line x1="-68" y1="838" x2="-68" y2="866" stroke="#3B82F6" stroke-opacity="0.8" stroke-width="3"/><line x1="12" y1="827" x2="12" y2="855" stroke="#3B82F6" stroke-opacity="0.8" stroke-width="3"/><line x1="92" y1="815" x2="92" y2="843" stroke="#3B82F6" stroke-opacity="0.8" stroke-width="3"/><line x1="172" y1="803" x2="172" y2="831" stroke="#3B82F6" stroke-opacity="0.8" stroke-width="3"/><line x1="252" y1="791" x2="252" y2="819" stroke="#3B82F6" stroke-opacity="0.8" stroke-width="3"/><line x1="332" y1="780" x2="332" y2="808" stroke="#3B82F6" stroke-opacity="0.8" stroke-width="3"/><line x1="412" y1="768" x2="412" y2="796" stroke="#3B82F6" stroke-opacity="0.8" stroke-width="3"/><line x1="492" y1="756" x2="492" y2="784" stroke="#3B82F6" stroke-opacity="0.8" stroke-width="3"/><line x1="572" y1="745" x2="572" y2="773" stroke="#3B82F6" stroke-opacity="0.8" stroke-width="3"/><line x1="652" y1="733" x2="652" y2="761" stroke="#3B82F6" stroke-opacity="0.8" stroke-width="3"/><line x1="732" y1="721" x2="732" y2="749" stroke="#3B82F6" stroke-opacity="0.8" stroke-width="3"/><line x1="812" y1="710" x2="812" y2="738" stroke="#3B82F6" stroke-opacity="0.8" stroke-width="3"/><line x1="892" y1="698" x2="892" y2="726" stroke="#3B82F6" stroke-opacity="0.8" stroke-width="3"/><line x1="972" y1="686" x2="972" y2="714" stroke="#3B82F6" stroke-opacity="0.8" stroke-width="3"/><line x1="1052" y1="674" x2="1052" y2="702" stroke="#3B82F6" stroke-opacity="0.8" stroke-width="3"/><line x1="1132" y1="663" x2="1132" y2="691" stroke="#3B82F6" stroke-opacity="0.8" stroke-width="3"/><line x1="1212" y1="651" x2="1212" y2="679" stroke="#3B82F6" stroke-opacity="0.8" stroke-width="3"/><line x1="1292" y1="639" x2="1292" y2="667" stroke="#3B82F6" stroke-opacity="0.8" stroke-width="3"/><line x1="1372" y1="628" x2="1372" y2="656" stroke="#3B82F6" stroke-opacity="0.8" stroke-width="3"/><line x1="1452" y1="616" x2="1452" y2="644" stroke="#3B82F6" stroke-opacity="0.8" stroke-width="3"/><line x1="1532" y1="604" x2="1532" y2="632" stroke="#3B82F6" stroke-opacity="0.8" stroke-width="3"/><line x1="1612" y1="593" x2="1612" y2="621" stroke="#3B82F6" stroke-opacity="0.8" stroke-width="3"/><line x1="1692" y1="581" x2="1692" y2="609" stroke="#3B82F6" stroke-opacity="0.8" stroke-width="3"/><line x1="1772" y1="569" x2="1772" y2="597" stroke="#3B82F6" stroke-opacity="0.8" stroke-width="3"/><line x1="1852" y1="557" x2="1852" y2="585" stroke="#3B82F6" stroke-opacity="0.8" stroke-width="3"/><line x1="1932" y1="546" x2="1932" y2="574" stroke="#3B82F6" stroke-opacity="0.8" stroke-width="3"/><line x1="2012" y1="534" x2="2012" y2="562" stroke="#3B82F6" stroke-opacity="0.8" stroke-width="3"/></g><g opacity="0.37"><rect x="422.4" y="216" width="1075.2" height="540" fill="none" stroke="#FAFCFF" stroke-opacity="0.6" stroke-width="2"/><rect x="442.4" y="236" width="318.40000000000003" height="189" fill="#3B82F6" fill-opacity="0.14"/><rect x="800.8" y="236" width="318.40000000000003" height="189" fill="#3B82F6" fill-opacity="0.2"/><rect x="1159.2" y="236" width="318.40000000000003" height="189" fill="#3B82F6" fill-opacity="0.26"/></g></svg>