<svg xmlns="http://www.w3.org/2000/svg" width="1920" height="1080" viewBox="0 0 1920 1080"><rect width="1920" height="1080" fill="#0A1F44"/><polyline points="-1019.7,265.5 -672.3,323.3 -324.8,248.8 22.7,281.5 370.1,303.8 717.6,246.0 1065.1,325.0 1412.6,260.4 1760.0,260.3 2107.5,317.7 2455.0,309.5 2802.5,242.9 3149.9,339.8" fill="none" stroke="#FAFCFF" stroke-opacity="0" stroke-width="1.5"/><polyline points="-1019.7,502.5 -672.3,391.4 -324.8,493.0 22.7,444.2 370.1,427.0 717.6,525.1 1065.1,363.6 1412.6,379.3 1760.0,405.5 2107.5,405.5 2455.0,502.5 2802.5,530.1 3149.9,481.1" fill="none" stroke="#FAFCFF" stroke-opacity="0" stroke-width="2.5"/><polyline points="-1019.7,697.8 -672.3,828.6 -324.8,700.9 22.7,721.6 370.1,788.1 717.6,841.3 1065.1,650.6 1412.6,827.9 1760.0,678.4 2107.5,785.7 2455.0,670.5 2802.5,813.7 3149.9,662.8" fill="none" stroke="#FAFCFF" stroke-opacity="0" stroke-width="3.5"/><polyline points="-1019.7,1105.8 -672.3,1127.3 -324.8,1213.8 22.7,1303.7 370.1,1311.1 717.6,1093.5 1065.1,1266.8 1412.6,1346.9 1760.0,1240.1 2107.5,1341.3 2455.0,1157.2 2802.5,1227.7 3149.9,1320.8" fill="none" stroke="#FAFCFF" stroke-opacity="0" stroke-width="4.5"/><polyline points="-1019.7,1858.2 -672.3,1716.4 -324.8,1913.3 22.7,1860.1 370.1,1989.8 717.6,1876.6 1065.1,1794.4 1412.6,1875.2 1760.0,1728.2 2107.5,1757.1 2455.0,1875.3 2802.5,1778.4 3149.9,1694.4" fill="none" stroke="#FAFCFF" stroke-opacity="0" stroke-width="5.5"/><g opacity="0.35"><line x1="0" y1="842.4" x2="1920" y2="561.6" stroke="#FAFCFF" stroke-opacity="0.5" stroke-width="6"/><line x1="-46" y1="835" x2="-46" y2="863" stroke="#3B82F6" stroke-opacity="0.8" stroke-width="3"/><line x1="34" y1="823" x2="34" y2="851" stroke="#3B82F6" stroke-opacity="0.8" stroke-width="3"/><line x1="114" y1="812" x2="114" y2="840" stroke="#3B82F6" stroke-opacity="0.8" stroke-width="3"/><line x1="194" y1="800" x2="194" y2="828" stroke="#3B82F6" stroke-opacity="0.8" stroke-width="3"/><line x1="274" y1="788" x2="274" y2="816" stroke="#3B82F6" stroke-opacity="0.8" stroke-width="3"/><line x1="354" y1="777" x2="354" y2="805" stroke="#3B82F6" stroke-opacity="0.8" stroke-width="3"/><line x1="434" y1="765" x2="434" y2="793" stroke="#3B82F6" stroke-opacity="0.8" stroke-width="3"/><line x1="514" y1="753" x2="514" y2="781" stroke="#3B82F6" stroke-opacity="0.8" stroke-width="3"/><line x1="594" y1="741" x2="594" y2="769" stroke="#3B82F6" stroke-opacity="0.8" stroke-width="3"/><line x1="674" y1="730" x2="674" y2="758" stroke="#3B82F6" stroke-opacity="0.8" stroke-width="3"/><line x1="754" y1="718" x2="754" y2="746" stroke="#3B82F6" stroke-opacity="0.8" stroke-width="3"/><line x1="834" y1="706" x2="834" y2="734" stroke="#3B82F6" stroke-opacity="0.8" stroke-width="3"/><line x1="914" y1="695" x2="914" y2="723" stroke="#3B82F6" stroke-opacity="0.8" stroke-width="3"/><line x1="994" y1="683" x2="994" y2="711" stroke="#3B82F6" stroke-opacity="0.8" stroke-width="3"/><line x1="1074" y1="671" x2="1074" y2="699" stroke="#3B82F6" stroke-opacity="0.8" stroke-width="3"/><line x1="1154" y1="660" x2="1154" y2="688" stroke="#3B82F6" stroke-opacity="0.8" stroke-width="3"/><line x1="1234" y1="648" x2="1234" y2="676" stroke="#3B82F6" stroke-opacity="0.8" stroke-width="3"/><line x1="1314" y1="636" x2="1314" y2="664" stroke="#3B82F6" stroke-opacity="0.8" stroke-width="3"/><line x1="1394" y1="624" x2="1394" y2="652" stroke="#3B82F6" stroke-opacity="0.8" stroke-width="3"/><line x1="1474" y1="613" x2="1474" y2="641" stroke="#3B82F6" stroke-opacity="0.8" stroke-width="3"/><line x1="1554" y1="601" x2="1554" y2="629" stroke="#3B82F6" stroke-opacity="0.8" stroke-width="3"/><line x1="1634" y1="589" x2="1634" y2="617" stroke="#3B82F6" stroke-opacity="0.8" stroke-width="3"/><line x1="1714" y1="578" x2="1714" y2="606" stroke="#3B82F6" stroke-opacity="0.8" stroke-width="3"/><line x1="1794" y1="566" x2="1794" y2="594" stroke="#3B82F6" stroke-opacity="0.8" stroke-width="3"/><line x1="1874" y1="554" x2="1874" y2="582" stroke="#3B82F6" stroke-opacity="0.8" stroke-width="3"/><line x1="1954" y1="543" x2="1954" y2="571" stroke="#3B82F6" stroke-opacity="0.8" stroke-width="3"/><line x1="2034" y1="531" x2="2034" y2="559" stroke="#3B82F6" stroke-opacity="0.8" stroke-width="3"/></g><g opacity="1.00"><rect x="422.4" y="216" width="1075.2" height="540" fill="none" stroke="#FAFCFF" stroke-opacity="0.6" stroke-width="2"/><rect x="442.4" y="236" width="318.40000000000003" height="189" fill="#3B82F6" fill-opacity="0.14"/><rect x="800.8" y="236" width="318.40000000000003" height="189" fill="#3B82F6" fill-opacity="0.2"/><rect x="1159.2" y="236" width="318.40000000000003" height="189" fill="#3B82F6" fill-opacity="0.26"/></g><g opacity="0.25"><rect x="460.79999999999995" y="324" width="517.9707771018149" height="10" fill="#3B82F6" fill-opacity="0.9"/><rect x="460.79999999999995" y="358" width="345.9854240468632" height="10" fill="#FAFCFF" fill-opacity="0.4"/></g></svg>