<svg xmlns="http://www.w3.org/2000/svg" width="1920" height="1080" viewBox="0 0 1920 1080"><rect width="1920" height="1080" fill="#0A1F44"/><polyline points="-1367.2,189.6 -969.5,255.7 -571.8,170.4 -174.1,207.9 223.6,233.3 621.3,167.2 1019.0,257.6 1416.7,183.7 1814.4,183.5 2212.1,249.3 2609.8,239.9 3007.5,163.6 3405.2,274.6" fill="none" stroke="#FAFCFF" stroke-opacity="0" stroke-width="1.5"/><polyline points="-1367.2,460.8 -969.5,333.6 -571.8,449.9 -174.1,394.1 223.6,374.3 621.3,486.7 1019.0,301.8 1416.7,319.8 1814.4,349.8 2212.1,349.7 2609.8,460.8 3007.5,492.4 3405.2,436.2" fill="none" stroke="#FAFCFF" stroke-opacity="0" stroke-width="2.5"/><polyline points="-1367.2,684.3 -969.5,834.0 -571.8,687.9 -174.1,711.6 223.6,787.6 621.3,848.5 1019.0,630.3 1416.7,833.2 1814.4,662.1 2212.1,784.9 2609.8,653.1 3007.5,817.0 3405.2,644.2" fill="none" stroke="#FAFCFF" stroke-opacity="0" stroke-width="3.5"/><polyline points="-1367.2,1151.3 -969.5,1175.9 -571.8,1274.9 -174.1,1377.8 223.6,1386.3 621.3,1137.2 1019.0,1335.6 1416.7,1427.3 1814.4,1305.0 2212.1,1420.8 2609.8,1210.1 3007.5,1290.8 3405.2,1397.4" fill="none" stroke="#FAFCFF" stroke-opacity="0" stroke-width="4.5"/><polyline points="-1367.2,2012.5 -969.5,1850.2 -571.8,2075.6 -174.1,2014.6 223.6,2163.1 621.3,2033.5 1019.0,1939.4 1416.7,2032.0 1814.4,1863.7 2212.1,1896.8 2609.8,2032.0 3007.5,1921.1 3405.2,1824.9" fill="none" stroke="#FAFCFF" stroke-opacity="0" stroke-width="5.5"/><g opacity="1.00"><rect x="422.4" y="216" width="1075.2" height="540" fill="none" stroke="#FAFCFF" stroke-opacity="0.6" stroke-width="2"/><rect x="442.4" y="236" width="318.40000000000003" height="189" fill="#3B82F6" fill-opacity="0.14"/><rect x="800.8" y="236" width="318.40000000000003" height="189" fill="#3B82F6" fill-opacity="0.2"/><rect x="1159.2" y="236" width="318.40000000000003" height="189" fill="#3B82F6" fill-opacity="0.26"/></g><g opacity="1.00"><rect x="460.79999999999995" y="324" width="517.9707771018149" height="10" fill="#3B82F6" fill-opacity="0.9"/><rect x="460.79999999999995" y="358" width="559.0618132464589" height="10" fill="#FAFCFF" fill-opacity="0.4"/><rect x="460.79999999999995" y="392" width="352.0004768371582" height="10" fill="#FAFCFF" fill-opacity="0.4"/><rect x="460.79999999999995" y="426" width="493.0137858130038" height="10" fill="#3B82F6" fill-opacity="0.9"/><rect x="460.79999999999995" y="460" width="575.1368051692843" height="10" fill="#FAFCFF" fill-opacity="0.4"/><rect x="460.79999999999995" y="494" width="457.9308180771768" height="10" fill="#FAFCFF" fill-opacity="0.4"/><rect x="460.79999999999995" y="528" width="514.2663277834654" height="10" fill="#3B82F6" fill-opacity="0.9"/><rect x="460.79999999999995" y="562" width="778.5601877756417" height="10" fill="#FAFCFF" fill-opacity="0.4"/></g></svg>