<svg xmlns="http://www.w3.org/2000/svg" width="1920" height="1080" viewBox="0 0 1920 1080"><rect width="1920" height="1080" fill="#0A1F44"/><polyline points="-431.8,411.4 -180.8,453.2 70.3,399.3 321.3,422.9 572.3,439.0 823.4,397.3 1074.4,454.3 1325.5,407.7 1576.5,407.6 1827.5,449.1 2078.6,443.2 2329.6,395.0 2580.7,465.1" fill="none" stroke="#FAFCFF" stroke-opacity="0.0589937106918239" stroke-width="1.5"/><polyline points="-431.8,582.6 -180.8,502.3 70.3,575.7 321.3,540.5 572.3,528.0 823.4,598.9 1074.4,482.2 1325.5,493.6 1576.5,512.5 1827.5,512.5 2078.6,582.6 2329.6,602.6 2580.7,567.1" fill="none" stroke="#FAFCFF" stroke-opacity="0.07669182389937107" stroke-width="2.5"/><polyline points="-431.8,723.7 -180.8,818.2 70.3,725.9 321.3,740.9 572.3,788.9 823.4,827.4 1074.4,689.6 1325.5,817.7 1576.5,709.6 1827.5,787.2 2078.6,704.0 2329.6,807.4 2580.7,698.4" fill="none" stroke="#FAFCFF" stroke-opacity="0.09438993710691823" stroke-width="3.5"/><polyline points="-431.8,1018.5 -180.8,1034.0 70.3,1096.5 321.3,1161.5 572.3,1166.8 823.4,1009.6 1074.4,1134.8 1325.5,1192.7 1576.5,1115.5 1827.5,1188.6 2078.6,1055.6 2329.6,1106.6 2580.7,1173.8" fill="none" stroke="#FAFCFF" stroke-opacity="0.1120880503144654" stroke-width="4.5"/><polyline points="-431.8,1562.1 -180.8,1459.6 70.3,1601.9 321.3,1563.4 572.3,1657.1 823.4,1575.4 1074.4,1515.9 1325.5,1574.4 1576.5,1468.2 1827.5,1489.0 2078.6,1574.4 2329.6,1504.4 2580.7,1443.7" fill="none" stroke="#FAFCFF" stroke-opacity="0.12978616352201258" stroke-width="5.5"/><circle cx="1286.1" cy="1048.7" r="3.1937393585977047" fill="#3B82F6" fill-opacity="0.42"/><circle cx="-92.8" cy="633.6" r="3.1882840492957505" fill="#3B82F6" fill-opacity="0.28"/><circle cx="1282.8" cy="766.2" r="8.916746450164537" fill="#FF6A1A" fill-opacity="0.28"/><circle cx="1508.2" cy="844.4" r="3.645508127876785" fill="#3B82F6" fill-opacity="0.29"/><circle cx="1991.0" cy="956.9" r="5.472843719119296" fill="#FF6A1A" fill-opacity="0.25"/><circle cx="261.2" cy="596.8" r="8.692441536408408" fill="#3B82F6" fill-opacity="0.44"/><circle cx="1201.3" cy="896.1" r="3.8338065892597024" fill="#3B82F6" fill-opacity="0.40"/><circle cx="-21.1" cy="1052.6" r="7.049259046926243" fill="#3B82F6" fill-opacity="0.34"/><circle cx="177.8" cy="399.9" r="5.982207401297875" fill="#3B82F6" fill-opacity="0.38"/><circle cx="1843.5" cy="983.8" r="6.964774046490718" fill="#3B82F6" fill-opacity="0.44"/><circle cx="345.8" cy="1126.0" r="5.9533309702810815" fill="#FF6A1A" fill-opacity="0.21"/><circle cx="1565.0" cy="1147.7" r="8.427937729271191" fill="#FF6A1A" fill-opacity="0.27"/><circle cx="2427.2" cy="676.7" r="5.39036096637924" fill="#FF6A1A" fill-opacity="0.30"/><circle cx="1036.4" cy="701.7" r="8.720636126094194" fill="#3B82F6" fill-opacity="0.26"/><circle cx="1997.7" cy="857.8" r="5.956783090844361" fill="#3B82F6" fill-opacity="0.34"/><circle cx="1349.9" cy="910.3" r="3.655730943261045" fill="#3B82F6" fill-opacity="0.41"/><circle cx="2555.3" cy="1115.0" r="3.7100410659384795" fill="#FF6A1A" fill-opacity="0.24"/><circle cx="1273.4" cy="892.7" r="3.3283712247321877" fill="#3B82F6" fill-opacity="0.33"/><g opacity="1.00"><line x1="0" y1="842.4" x2="1920" y2="561.6" stroke="#FAFCFF" stroke-opacity="0.5" stroke-width="6"/><line x1="-38" y1="834" x2="-38" y2="862" stroke="#3B82F6" stroke-opacity="0.8" stroke-width="3"/><line x1="42" y1="822" x2="42" y2="850" stroke="#3B82F6" stroke-opacity="0.8" stroke-width="3"/><line x1="122" y1="811" x2="122" y2="839" stroke="#3B82F6" stroke-opacity="0.8" stroke-width="3"/><line x1="202" y1="799" x2="202" y2="827" stroke="#3B82F6" stroke-opacity="0.8" stroke-width="3"/><line x1="282" y1="787" x2="282" y2="815" stroke="#3B82F6" stroke-opacity="0.8" stroke-width="3"/><line x1="362" y1="775" x2="362" y2="803" stroke="#3B82F6" stroke-opacity="0.8" stroke-width="3"/><line x1="442" y1="764" x2="442" y2="792" stroke="#3B82F6" stroke-opacity="0.8" stroke-width="3"/><line x1="522" y1="752" x2="522" y2="780" stroke="#3B82F6" stroke-opacity="0.8" stroke-width="3"/><line x1="602" y1="740" x2="602" y2="768" stroke="#3B82F6" stroke-opacity="0.8" stroke-width="3"/><line x1="682" y1="729" x2="682" y2="757" stroke="#3B82F6" stroke-opacity="0.8" stroke-width="3"/><line x1="762" y1="717" x2="762" y2="745" stroke="#3B82F6" stroke-opacity="0.8" stroke-width="3"/><line x1="842" y1="705" x2="842" y2="733" stroke="#3B82F6" stroke-opacity="0.8" stroke-width="3"/><line x1="922" y1="694" x2="922" y2="722" stroke="#3B82F6" stroke-opacity="0.8" stroke-width="3"/><line x1="1002" y1="682" x2="1002" y2="710" stroke="#3B82F6" stroke-opacity="0.8" stroke-width="3"/><line x1="1082" y1="670" x2="1082" y2="698" stroke="#3B82F6" stroke-opacity="0.8" stroke-width="3"/><line x1="1162" y1="658" x2="1162" y2="686" stroke="#3B82F6" stroke-opacity="0.8" stroke-width="3"/><line x1="1242" y1="647" x2="1242" y2="675" stroke="#3B82F6" stroke-opacity="0.8" stroke-width="3"/><line x1="1322" y1="635" x2="1322" y2="663" stroke="#3B82F6" stroke-opacity="0.8" stroke-width="3"/><line x1="1402" y1="623" x2="1402" y2="651" stroke="#3B82F6" stroke-opacity="0.8" stroke-width="3"/><line x1="1482" y1="612" x2="1482" y2="640" stroke="#3B82F6" stroke-opacity="0.8" stroke-width="3"/><line x1="1562" y1="600" x2="1562" y2="628" stroke="#3B82F6" stroke-opacity="0.8" stroke-width="3"/><line x1="1642" y1="588" x2="1642" y2="616" stroke="#3B82F6" stroke-opacity="0.8" stroke-width="3"/><line x1="1722" y1="577" x2="1722" y2="605" stroke="#3B82F6" stroke-opacity="0.8" stroke-width="3"/><line x1="1802" y1="565" x2="1802" y2="593" stroke="#3B82F6" stroke-opacity="0.8" stroke-width="3"/><line x1="1882" y1="553" x2="1882" y2="581" stroke="#3B82F6" stroke-opacity="0.8" stroke-width="3"/><line x1="1962" y1="541" x2="1962" y2="569" stroke="#3B82F6" stroke-opacity="0.8" stroke-width="3"/><line x1="2042" y1="530" x2="2042" y2="558" stroke="#3B82F6" stroke-opacity="0.8" stroke-width="3"/></g></svg>