<svg xmlns="http://www.w3.org/2000/svg" width="1920" height="1080" viewBox="0 0 1920 1080"><rect width="1920" height="1080" fill="#0A1F44"/><polyline points="-282.7,451.9 -58.5,489.2 165.8,441.1 390.0,462.3 614.2,476.6 838.5,439.3 1062.7,490.3 1287.0,448.6 1511.2,448.5 1735.4,485.6 1959.7,480.3 2183.9,437.3 2408.1,499.9" fill="none" stroke="#FAFCFF" stroke-opacity="0.08918238993710692" stroke-width="1.5"/><polyline points="-282.7,604.9 -58.5,533.2 165.8,598.7 390.0,567.2 614.2,556.1 838.5,619.5 1062.7,515.2 1287.0,525.3 1511.2,542.3 1735.4,542.2 1959.7,604.9 2183.9,622.7 2408.1,591.0" fill="none" stroke="#FAFCFF" stroke-opacity="0.115937106918239" stroke-width="2.5"/><polyline points="-282.7,730.9 -58.5,815.3 165.8,732.9 390.0,746.3 614.2,789.2 838.5,823.5 1062.7,700.4 1287.0,814.9 1511.2,718.3 1735.4,787.6 1959.7,713.3 2183.9,805.7 2408.1,708.3" fill="none" stroke="#FAFCFF" stroke-opacity="0.14269182389937107" stroke-width="3.5"/><polyline points="-282.7,994.2 -58.5,1008.0 165.8,1063.9 390.0,1121.9 614.2,1126.7 838.5,986.3 1062.7,1098.1 1287.0,1149.8 1511.2,1080.9 1735.4,1146.2 1959.7,1027.3 2183.9,1072.9 2408.1,1132.9" fill="none" stroke="#FAFCFF" stroke-opacity="0.16944654088050315" stroke-width="4.5"/><polyline points="-282.7,1479.7 -58.5,1388.2 165.8,1515.3 390.0,1481.0 614.2,1564.7 838.5,1491.6 1062.7,1438.5 1287.0,1490.7 1511.2,1395.9 1735.4,1414.5 1959.7,1490.8 2183.9,1428.2 2408.1,1374.0" fill="none" stroke="#FAFCFF" stroke-opacity="0.19620125786163523" stroke-width="5.5"/><circle cx="1251.8" cy="1021.2" r="2.852706817646552" fill="#3B82F6" fill-opacity="0.66"/><circle cx="20.1" cy="650.4" r="2.8478340349017235" fill="#3B82F6" fill-opacity="0.61"/><circle cx="1248.8" cy="768.8" r="7.964602158636637" fill="#FF6A1A" fill-opacity="0.61"/><circle cx="1450.2" cy="838.7" r="3.2562350030799716" fill="#3B82F6" fill-opacity="0.43"/><circle cx="1881.4" cy="939.2" r="4.888444809190933" fill="#FF6A1A" fill-opacity="0.48"/><circle cx="336.3" cy="617.6" r="7.764248878403811" fill="#3B82F6" fill-opacity="0.58"/><circle cx="1176.1" cy="884.9" r="3.4244266568833237" fill="#3B82F6" fill-opacity="0.40"/><circle cx="84.1" cy="1024.7" r="6.296528014531756" fill="#3B82F6" fill-opacity="0.65"/><circle cx="261.8" cy="441.7" r="5.343417831613899" fill="#3B82F6" fill-opacity="0.38"/><circle cx="1749.7" cy="963.2" r="6.221064456091247" fill="#3B82F6" fill-opacity="0.62"/><circle cx="411.9" cy="1090.2" r="5.317624871581282" fill="#FF6A1A" fill-opacity="0.53"/><circle cx="1500.9" cy="1109.6" r="7.527989206216562" fill="#FF6A1A" fill-opacity="0.60"/><circle cx="2271.0" cy="688.9" r="4.8147696952695735" fill="#FF6A1A" fill-opacity="0.63"/><circle cx="1028.7" cy="711.3" r="7.789432805201364" fill="#3B82F6" fill-opacity="0.47"/><circle cx="1887.4" cy="850.7" r="5.320708369249836" fill="#3B82F6" fill-opacity="0.34"/><circle cx="1308.8" cy="897.5" r="3.2653662100658245" fill="#3B82F6" fill-opacity="0.67"/><circle cx="2385.4" cy="1080.4" r="3.3138770119294945" fill="#FF6A1A" fill-opacity="0.57"/><circle cx="1240.5" cy="881.9" r="2.972962480138357" fill="#3B82F6" fill-opacity="0.65"/><g opacity="1.00"><line x1="0" y1="842.4" x2="1920" y2="561.6" stroke="#FAFCFF" stroke-opacity="0.5" stroke-width="6"/><line x1="-26" y1="832" x2="-26" y2="860" stroke="#3B82F6" stroke-opacity="0.8" stroke-width="3"/><line x1="54" y1="820" x2="54" y2="848" stroke="#3B82F6" stroke-opacity="0.8" stroke-width="3"/><line x1="134" y1="809" x2="134" y2="837" stroke="#3B82F6" stroke-opacity="0.8" stroke-width="3"/><line x1="214" y1="797" x2="214" y2="825" stroke="#3B82F6" stroke-opacity="0.8" stroke-width="3"/><line x1="294" y1="785" x2="294" y2="813" stroke="#3B82F6" stroke-opacity="0.8" stroke-width="3"/><line x1="374" y1="774" x2="374" y2="802" stroke="#3B82F6" stroke-opacity="0.8" stroke-width="3"/><line x1="454" y1="762" x2="454" y2="790" stroke="#3B82F6" stroke-opacity="0.8" stroke-width="3"/><line x1="534" y1="750" x2="534" y2="778" stroke="#3B82F6" stroke-opacity="0.8" stroke-width="3"/><line x1="614" y1="739" x2="614" y2="767" stroke="#3B82F6" stroke-opacity="0.8" stroke-width="3"/><line x1="694" y1="727" x2="694" y2="755" stroke="#3B82F6" stroke-opacity="0.8" stroke-width="3"/><line x1="774" y1="715" x2="774" y2="743" stroke="#3B82F6" stroke-opacity="0.8" stroke-width="3"/><line x1="854" y1="703" x2="854" y2="731" stroke="#3B82F6" stroke-opacity="0.8" stroke-width="3"/><line x1="934" y1="692" x2="934" y2="720" stroke="#3B82F6" stroke-opacity="0.8" stroke-width="3"/><line x1="1014" y1="680" x2="1014" y2="708" stroke="#3B82F6" stroke-opacity="0.8" stroke-width="3"/><line x1="1094" y1="668" x2="1094" y2="696" stroke="#3B82F6" stroke-opacity="0.8" stroke-width="3"/><line x1="1174" y1="657" x2="1174" y2="685" stroke="#3B82F6" stroke-opacity="0.8" stroke-width="3"/><line x1="1254" y1="645" x2="1254" y2="673" stroke="#3B82F6" stroke-opacity="0.8" stroke-width="3"/><line x1="1334" y1="633" x2="1334" y2="661" stroke="#3B82F6" stroke-opacity="0.8" stroke-width="3"/><line x1="1414" y1="622" x2="1414" y2="650" stroke="#3B82F6" stroke-opacity="0.8" stroke-width="3"/><line x1="1494" y1="610" x2="1494" y2="638" stroke="#3B82F6" stroke-opacity="0.8" stroke-width="3"/><line x1="1574" y1="598" x2="1574" y2="626" stroke="#3B82F6" stroke-opacity="0.8" stroke-width="3"/><line x1="1654" y1="586" x2="1654" y2="614" stroke="#3B82F6" stroke-opacity="0.8" stroke-width="3"/><line x1="1734" y1="575" x2="1734" y2="603" stroke="#3B82F6" stroke-opacity="0.8" stroke-width="3"/><line x1="1814" y1="563" x2="1814" y2="591" stroke="#3B82F6" stroke-opacity="0.8" stroke-width="3"/><line x1="1894" y1="551" x2="1894" y2="579" stroke="#3B82F6" stroke-opacity="0.8" stroke-width="3"/><line x1="1974" y1="540" x2="1974" y2="568" stroke="#3B82F6" stroke-opacity="0.8" stroke-width="3"/><line x1="2054" y1="528" x2="2054" y2="556" stroke="#3B82F6" stroke-opacity="0.8" stroke-width="3"/></g></svg>