<svg xmlns="http://www.w3.org/2000/svg" width="1920" height="1080" viewBox="0 0 1920 1080"><rect width="1920" height="1080" fill="#0A1F44"/><polyline points="-1469.6,170.4 -1059.2,238.6 -648.8,150.6 -238.4,189.2 172.0,215.5 582.4,147.3 992.8,240.6 1403.2,164.3 1813.6,164.2 2224.0,232.0 2634.4,222.3 3044.7,143.6 3455.1,258.1" fill="none" stroke="#FAFCFF" stroke-opacity="0" stroke-width="1.5"/><polyline points="-1469.6,450.3 -1059.2,319.0 -648.8,439.0 -238.4,381.4 172.0,361.0 582.4,476.9 992.8,286.2 1403.2,304.7 1813.6,335.7 2224.0,335.6 2634.4,450.3 3044.7,482.9 3455.1,424.9" fill="none" stroke="#FAFCFF" stroke-opacity="0" stroke-width="2.5"/><polyline points="-1469.6,680.9 -1059.2,835.4 -648.8,684.6 -238.4,709.0 172.0,787.5 582.4,850.4 992.8,625.1 1403.2,834.6 1813.6,657.9 2224.0,784.7 2634.4,648.7 3044.7,817.8 3455.1,639.5" fill="none" stroke="#FAFCFF" stroke-opacity="0" stroke-width="3.5"/><polyline points="-1469.6,1162.8 -1059.2,1188.2 -648.8,1290.4 -238.4,1396.6 172.0,1405.3 582.4,1148.3 992.8,1353.0 1403.2,1447.6 1813.6,1321.4 2224.0,1440.9 2634.4,1223.5 3044.7,1306.8 3455.1,1416.7" fill="none" stroke="#FAFCFF" stroke-opacity="0" stroke-width="4.5"/><polyline points="-1469.6,2051.5 -1059.2,1884.0 -648.8,2116.5 -238.4,2053.7 172.0,2206.9 582.4,2073.2 992.8,1976.1 1403.2,2071.6 1813.6,1897.9 2224.0,1932.1 2634.4,2071.6 3044.7,1957.2 3455.1,1857.9" fill="none" stroke="#FAFCFF" stroke-opacity="0" stroke-width="5.5"/><g opacity="0.85"><rect x="422.4" y="216" width="1075.2" height="540" fill="none" stroke="#FAFCFF" stroke-opacity="0.6" stroke-width="2"/><rect x="442.4" y="236" width="318.40000000000003" height="189" fill="#3B82F6" fill-opacity="0.14"/><rect x="800.8" y="236" width="318.40000000000003" height="189" fill="#3B82F6" fill-opacity="0.2"/><rect x="1159.2" y="236" width="318.40000000000003" height="189" fill="#3B82F6" fill-opacity="0.26"/></g><g opacity="1.00"><rect x="460.79999999999995" y="324" width="517.9707771018149" height="10" fill="#3B82F6" fill-opacity="0.9"/><rect x="460.79999999999995" y="358" width="559.0618132464589" height="10" fill="#FAFCFF" fill-opacity="0.4"/><rect x="460.79999999999995" y="392" width="352.0004768371582" height="10" fill="#FAFCFF" fill-opacity="0.4"/><rect x="460.79999999999995" y="426" width="493.0137858130038" height="10" fill="#3B82F6" fill-opacity="0.9"/><rect x="460.79999999999995" y="460" width="575.1368051692843" height="10" fill="#FAFCFF" fill-opacity="0.4"/><rect x="460.79999999999995" y="494" width="457.9308180771768" height="10" fill="#FAFCFF" fill-opacity="0.4"/><rect x="460.79999999999995" y="528" width="514.2663277834654" height="10" fill="#3B82F6" fill-opacity="0.9"/><rect x="460.79999999999995" y="562" width="778.5601877756417" height="10" fill="#FAFCFF" fill-opacity="0.4"/><rect x="460.79999999999995" y="596" width="771.863665021956" height="10" fill="#FAFCFF" fill-opacity="0.4"/></g><rect width="1920" height="1080" fill="#0A1F44" fill-opacity="0.26"/><circle cx="960" cy="540" r="7" fill="#3B82F6" fill-opacity="0.37"/><rect x="800" y="580" width="320" height="2" fill="#FAFCFF" fill-opacity="0.15"/></svg>