<svg xmlns="http://www.w3.org/2000/svg" width="1920" height="1080" viewBox="0 0 1920 1080"><rect width="1920" height="1080" fill="#0A1F44"/><polyline points="-45.1,523.4 131.9,552.8 308.9,514.9 485.9,531.5 662.9,542.9 839.9,513.4 1016.9,553.7 1193.9,520.8 1370.9,520.7 1547.9,550.0 1724.9,545.8 1901.9,511.9 2078.9,561.2" fill="none" stroke="#FAFCFF" stroke-opacity="0.1" stroke-width="1.5"/><polyline points="-45.1,644.1 131.9,587.5 308.9,639.2 485.9,614.4 662.9,605.6 839.9,655.6 1016.9,573.3 1193.9,581.3 1370.9,594.7 1547.9,594.7 1724.9,644.1 1901.9,658.2 2078.9,633.2" fill="none" stroke="#FAFCFF" stroke-opacity="0.13" stroke-width="2.5"/><polyline points="-45.1,743.6 131.9,810.2 308.9,745.2 485.9,755.7 662.9,789.6 839.9,816.7 1016.9,719.5 1193.9,809.9 1370.9,733.7 1547.9,788.3 1724.9,729.7 1901.9,802.6 2078.9,725.7" fill="none" stroke="#FAFCFF" stroke-opacity="0.16" stroke-width="3.5"/><polyline points="-45.1,951.4 131.9,962.3 308.9,1006.4 485.9,1052.2 662.9,1056.0 839.9,945.1 1016.9,1033.4 1193.9,1074.2 1370.9,1019.8 1547.9,1071.4 1724.9,977.6 1901.9,1013.5 2078.9,1060.9" fill="none" stroke="#FAFCFF" stroke-opacity="0.19" stroke-width="4.5"/><polyline points="-45.1,1334.7 131.9,1262.4 308.9,1362.7 485.9,1335.6 662.9,1401.7 839.9,1344.0 1016.9,1302.2 1193.9,1343.3 1370.9,1268.5 1547.9,1283.2 1724.9,1343.4 1901.9,1294.0 2078.9,1251.2" fill="none" stroke="#FAFCFF" stroke-opacity="0.22" stroke-width="5.5"/><circle cx="1166.2" cy="972.7" r="2.251750719515196" fill="#3B82F6" fill-opacity="0.44"/><circle cx="193.9" cy="680.1" r="2.247904445518921" fill="#3B82F6" fill-opacity="0.59"/><circle cx="1163.8" cy="773.5" r="6.286765443410656" fill="#FF6A1A" fill-opacity="0.59"/><circle cx="1322.7" cy="828.6" r="2.5702709671177812" fill="#3B82F6" fill-opacity="0.73"/><circle cx="1663.2" cy="908.0" r="3.858636663366306" fill="#FF6A1A" fill-opacity="0.71"/><circle cx="443.5" cy="654.1" r="6.128618927922014" fill="#3B82F6" fill-opacity="0.60"/><circle cx="1106.4" cy="865.1" r="2.703031079417226" fill="#3B82F6" fill-opacity="0.73"/><circle cx="244.5" cy="975.5" r="4.970090651960623" fill="#3B82F6" fill-opacity="0.49"/><circle cx="384.7" cy="515.3" r="4.217764290595138" fill="#3B82F6" fill-opacity="0.74"/><circle cx="1559.2" cy="927.0" r="4.910524375831421" fill="#3B82F6" fill-opacity="0.53"/><circle cx="503.2" cy="1027.2" r="4.197404919645204" fill="#FF6A1A" fill-opacity="0.68"/><circle cx="1362.8" cy="1042.5" r="5.942130122430619" fill="#FF6A1A" fill-opacity="0.59"/><circle cx="1970.6" cy="710.4" r="3.8004820749744828" fill="#FF6A1A" fill-opacity="0.55"/><circle cx="990.1" cy="728.1" r="6.148497565620013" fill="#3B82F6" fill-opacity="0.71"/><circle cx="1667.9" cy="838.1" r="4.199838842420176" fill="#3B82F6" fill-opacity="0.75"/><circle cx="1211.1" cy="875.1" r="2.5774785784198775" fill="#3B82F6" fill-opacity="0.38"/><circle cx="2061.0" cy="1019.5" r="2.6157700117789124" fill="#FF6A1A" fill-opacity="0.64"/><circle cx="1157.2" cy="862.8" r="2.3466731184335297" fill="#3B82F6" fill-opacity="0.51"/><g opacity="0.32"><line x1="0" y1="842.4" x2="1920" y2="561.6" stroke="#FAFCFF" stroke-opacity="0.5" stroke-width="6"/><line x1="-18" y1="831" x2="-18" y2="859" stroke="#3B82F6" stroke-opacity="0.8" stroke-width="3"/><line x1="62" y1="819" x2="62" y2="847" stroke="#3B82F6" stroke-opacity="0.8" stroke-width="3"/><line x1="142" y1="808" x2="142" y2="836" stroke="#3B82F6" stroke-opacity="0.8" stroke-width="3"/><line x1="222" y1="796" x2="222" y2="824" stroke="#3B82F6" stroke-opacity="0.8" stroke-width="3"/><line x1="302" y1="784" x2="302" y2="812" stroke="#3B82F6" stroke-opacity="0.8" stroke-width="3"/><line x1="382" y1="773" x2="382" y2="801" stroke="#3B82F6" stroke-opacity="0.8" stroke-width="3"/><line x1="462" y1="761" x2="462" y2="789" stroke="#3B82F6" stroke-opacity="0.8" stroke-width="3"/><line x1="542" y1="749" x2="542" y2="777" stroke="#3B82F6" stroke-opacity="0.8" stroke-width="3"/><line x1="622" y1="738" x2="622" y2="766" stroke="#3B82F6" stroke-opacity="0.8" stroke-width="3"/><line x1="702" y1="726" x2="702" y2="754" stroke="#3B82F6" stroke-opacity="0.8" stroke-width="3"/><line x1="782" y1="714" x2="782" y2="742" stroke="#3B82F6" stroke-opacity="0.8" stroke-width="3"/><line x1="862" y1="702" x2="862" y2="730" stroke="#3B82F6" stroke-opacity="0.8" stroke-width="3"/><line x1="942" y1="691" x2="942" y2="719" stroke="#3B82F6" stroke-opacity="0.8" stroke-width="3"/><line x1="1022" y1="679" x2="1022" y2="707" stroke="#3B82F6" stroke-opacity="0.8" stroke-width="3"/><line x1="1102" y1="667" x2="1102" y2="695" stroke="#3B82F6" stroke-opacity="0.8" stroke-width="3"/><line x1="1182" y1="656" x2="1182" y2="684" stroke="#3B82F6" stroke-opacity="0.8" stroke-width="3"/><line x1="1262" y1="644" x2="1262" y2="672" stroke="#3B82F6" stroke-opacity="0.8" stroke-width="3"/><line x1="1342" y1="632" x2="1342" y2="660" stroke="#3B82F6" stroke-opacity="0.8" stroke-width="3"/><line x1="1422" y1="621" x2="1422" y2="649" stroke="#3B82F6" stroke-opacity="0.8" stroke-width="3"/><line x1="1502" y1="609" x2="1502" y2="637" stroke="#3B82F6" stroke-opacity="0.8" stroke-width="3"/><line x1="1582" y1="597" x2="1582" y2="625" stroke="#3B82F6" stroke-opacity="0.8" stroke-width="3"/><line x1="1662" y1="585" x2="1662" y2="613" stroke="#3B82F6" stroke-opacity="0.8" stroke-width="3"/><line x1="1742" y1="574" x2="1742" y2="602" stroke="#3B82F6" stroke-opacity="0.8" stroke-width="3"/><line x1="1822" y1="562" x2="1822" y2="590" stroke="#3B82F6" stroke-opacity="0.8" stroke-width="3"/><line x1="1902" y1="550" x2="1902" y2="578" stroke="#3B82F6" stroke-opacity="0.8" stroke-width="3"/><line x1="1982" y1="539" x2="1982" y2="567" stroke="#3B82F6" stroke-opacity="0.8" stroke-width="3"/><line x1="2062" y1="527" x2="2062" y2="555" stroke="#3B82F6" stroke-opacity="0.8" stroke-width="3"/></g></svg>