<svg xmlns="http://www.w3.org/2000/svg" width="1920" height="1080" viewBox="0 0 1920 1080"><rect width="1920" height="1080" fill="#0A1F44"/><polyline points="-816.6,313.8 -501.0,366.3 -185.4,298.6 130.2,328.3 445.8,348.5 761.3,296.0 1076.9,367.8 1392.5,309.1 1708.1,309.0 2023.7,361.2 2339.2,353.7 2654.8,293.2 2970.4,381.2" fill="none" stroke="#FAFCFF" stroke-opacity="0" stroke-width="1.5"/><polyline points="-816.6,529.0 -501.0,428.1 -185.4,520.4 130.2,476.1 445.8,460.4 761.3,549.5 1076.9,402.8 1392.5,417.1 1708.1,440.9 2023.7,440.8 2339.2,529.0 2654.8,554.1 2970.4,509.5" fill="none" stroke="#FAFCFF" stroke-opacity="0" stroke-width="2.5"/><polyline points="-816.6,706.4 -501.0,825.2 -185.4,709.2 130.2,728.0 445.8,788.4 761.3,836.7 1076.9,663.5 1392.5,824.5 1708.1,688.7 2023.7,786.2 2339.2,681.6 2654.8,811.6 2970.4,674.5" fill="none" stroke="#FAFCFF" stroke-opacity="0" stroke-width="3.5"/><polyline points="-816.6,1076.9 -501.0,1096.4 -185.4,1175.0 130.2,1256.7 445.8,1263.4 761.3,1065.8 1076.9,1223.1 1392.5,1295.9 1708.1,1198.9 2023.7,1290.8 2339.2,1123.6 2654.8,1187.6 2970.4,1272.2" fill="none" stroke="#FAFCFF" stroke-opacity="0" stroke-width="4.5"/><polyline points="-816.6,1760.3 -501.0,1631.5 -185.4,1810.3 130.2,1762.0 445.8,1879.8 761.3,1777.0 1076.9,1702.3 1392.5,1775.7 1708.1,1642.2 2023.7,1668.5 2339.2,1775.8 2654.8,1687.8 2970.4,1611.5" fill="none" stroke="#FAFCFF" stroke-opacity="0" stroke-width="5.5"/><g opacity="0.87"><line x1="0" y1="842.4" x2="1920" y2="561.6" stroke="#FAFCFF" stroke-opacity="0.5" stroke-width="6"/><line x1="-45" y1="835" x2="-45" y2="863" stroke="#3B82F6" stroke-opacity="0.8" stroke-width="3"/><line x1="35" y1="823" x2="35" y2="851" stroke="#3B82F6" stroke-opacity="0.8" stroke-width="3"/><line x1="115" y1="812" x2="115" y2="840" stroke="#3B82F6" stroke-opacity="0.8" stroke-width="3"/><line x1="195" y1="800" x2="195" y2="828" stroke="#3B82F6" stroke-opacity="0.8" stroke-width="3"/><line x1="275" y1="788" x2="275" y2="816" stroke="#3B82F6" stroke-opacity="0.8" stroke-width="3"/><line x1="355" y1="776" x2="355" y2="804" stroke="#3B82F6" stroke-opacity="0.8" stroke-width="3"/><line x1="435" y1="765" x2="435" y2="793" stroke="#3B82F6" stroke-opacity="0.8" stroke-width="3"/><line x1="515" y1="753" x2="515" y2="781" stroke="#3B82F6" stroke-opacity="0.8" stroke-width="3"/><line x1="595" y1="741" x2="595" y2="769" stroke="#3B82F6" stroke-opacity="0.8" stroke-width="3"/><line x1="675" y1="730" x2="675" y2="758" stroke="#3B82F6" stroke-opacity="0.8" stroke-width="3"/><line x1="755" y1="718" x2="755" y2="746" stroke="#3B82F6" stroke-opacity="0.8" stroke-width="3"/><line x1="835" y1="706" x2="835" y2="734" stroke="#3B82F6" stroke-opacity="0.8" stroke-width="3"/><line x1="915" y1="695" x2="915" y2="723" stroke="#3B82F6" stroke-opacity="0.8" stroke-width="3"/><line x1="995" y1="683" x2="995" y2="711" stroke="#3B82F6" stroke-opacity="0.8" stroke-width="3"/><line x1="1075" y1="671" x2="1075" y2="699" stroke="#3B82F6" stroke-opacity="0.8" stroke-width="3"/><line x1="1155" y1="659" x2="1155" y2="687" stroke="#3B82F6" stroke-opacity="0.8" stroke-width="3"/><line x1="1235" y1="648" x2="1235" y2="676" stroke="#3B82F6" stroke-opacity="0.8" stroke-width="3"/><line x1="1315" y1="636" x2="1315" y2="664" stroke="#3B82F6" stroke-opacity="0.8" stroke-width="3"/><line x1="1395" y1="624" x2="1395" y2="652" stroke="#3B82F6" stroke-opacity="0.8" stroke-width="3"/><line x1="1475" y1="613" x2="1475" y2="641" stroke="#3B82F6" stroke-opacity="0.8" stroke-width="3"/><line x1="1555" y1="601" x2="1555" y2="629" stroke="#3B82F6" stroke-opacity="0.8" stroke-width="3"/><line x1="1635" y1="589" x2="1635" y2="617" stroke="#3B82F6" stroke-opacity="0.8" stroke-width="3"/><line x1="1715" y1="578" x2="1715" y2="606" stroke="#3B82F6" stroke-opacity="0.8" stroke-width="3"/><line x1="1795" y1="566" x2="1795" y2="594" stroke="#3B82F6" stroke-opacity="0.8" stroke-width="3"/><line x1="1875" y1="554" x2="1875" y2="582" stroke="#3B82F6" stroke-opacity="0.8" stroke-width="3"/><line x1="1955" y1="542" x2="1955" y2="570" stroke="#3B82F6" stroke-opacity="0.8" stroke-width="3"/><line x1="2035" y1="531" x2="2035" y2="559" stroke="#3B82F6" stroke-opacity="0.8" stroke-width="3"/></g><g opacity="0.51"><rect x="422.4" y="216" width="1075.2" height="540" fill="none" stroke="#FAFCFF" stroke-opacity="0.6" stroke-width="2"/><rect x="442.4" y="236" width="318.40000000000003" height="189" fill="#3B82F6" fill-opacity="0.14"/><rect x="800.8" y="236" width="318.40000000000003" height="189" fill="#3B82F6" fill-opacity="0.2"/><rect x="1159.2" y="236" width="318.40000000000003" height="189" fill="#3B82F6" fill-opacity="0.26"/></g></svg>