<svg xmlns="http://www.w3.org/2000/svg" width="1920" height="1080" viewBox="0 0 1920 1080"><rect width="1920" height="1080" fill="#0A1F44"/><polyline points="-1519.7,163.0 -1104.4,232.1 -689.2,143.0 -273.9,182.1 141.3,208.7 556.6,139.6 971.8,234.0 1387.1,156.9 1802.3,156.7 2217.6,225.4 2632.9,215.6 3048.1,135.9 3463.4,251.8" fill="none" stroke="#FAFCFF" stroke-opacity="0" stroke-width="1.5"/><polyline points="-1519.7,446.2 -1104.4,313.5 -689.2,434.8 -273.9,376.6 141.3,355.9 556.6,473.2 971.8,280.2 1387.1,298.9 1802.3,330.3 2217.6,330.2 2632.9,446.2 3048.1,479.2 3463.4,420.6" fill="none" stroke="#FAFCFF" stroke-opacity="0" stroke-width="2.5"/><polyline points="-1519.7,679.6 -1104.4,835.9 -689.2,683.3 -273.9,708.0 141.3,787.5 556.6,851.1 971.8,623.2 1387.1,835.1 1802.3,656.4 2217.6,784.6 2632.9,647.0 3048.1,818.1 3463.4,637.7" fill="none" stroke="#FAFCFF" stroke-opacity="0" stroke-width="3.5"/><polyline points="-1519.7,1167.2 -1104.4,1192.9 -689.2,1296.3 -273.9,1403.7 141.3,1412.6 556.6,1152.5 971.8,1359.6 1387.1,1455.3 1802.3,1327.7 2217.6,1448.6 2632.9,1228.6 3048.1,1312.9 3463.4,1424.1" fill="none" stroke="#FAFCFF" stroke-opacity="0" stroke-width="4.5"/><polyline points="-1519.7,2066.4 -1104.4,1896.9 -689.2,2132.2 -273.9,2068.6 141.3,2223.6 556.6,2088.4 971.8,1990.1 1387.1,2086.7 1802.3,1911.1 2217.6,1945.6 2632.9,2086.8 3048.1,1971.0 3463.4,1870.6" fill="none" stroke="#FAFCFF" stroke-opacity="0" stroke-width="5.5"/><g opacity="0.14"><rect x="422.4" y="216" width="1075.2" height="540" fill="none" stroke="#FAFCFF" stroke-opacity="0.6" stroke-width="2"/><rect x="442.4" y="236" width="318.40000000000003" height="189" fill="#3B82F6" fill-opacity="0.14"/><rect x="800.8" y="236" width="318.40000000000003" height="189" fill="#3B82F6" fill-opacity="0.2"/><rect x="1159.2" y="236" width="318.40000000000003" height="189" fill="#3B82F6" fill-opacity="0.26"/></g><g opacity="0.39"><rect x="460.79999999999995" y="324" width="517.9707771018149" height="10" fill="#3B82F6" fill-opacity="0.9"/><rect x="460.79999999999995" y="358" width="559.0618132464589" height="10" fill="#FAFCFF" fill-opacity="0.4"/><rect x="460.79999999999995" y="392" width="352.0004768371582" height="10" fill="#FAFCFF" fill-opacity="0.4"/><rect x="460.79999999999995" y="426" width="493.0137858130038" height="10" fill="#3B82F6" fill-opacity="0.9"/><rect x="460.79999999999995" y="460" width="575.1368051692843" height="10" fill="#FAFCFF" fill-opacity="0.4"/><rect x="460.79999999999995" y="494" width="457.9308180771768" height="10" fill="#FAFCFF" fill-opacity="0.4"/><rect x="460.79999999999995" y="528" width="514.2663277834654" height="10" fill="#3B82F6" fill-opacity="0.9"/><rect x="460.79999999999995" y="562" width="778.5601877756417" height="10" fill="#FAFCFF" fill-opacity="0.4"/><rect x="460.79999999999995" y="596" width="771.863665021956" height="10" fill="#FAFCFF" fill-opacity="0.4"/></g><rect width="1920" height="1080" fill="#0A1F44" fill-opacity="0.54"/><circle cx="960" cy="540" r="7" fill="#3B82F6" fill-opacity="0.78"/><rect x="800" y="580" width="320" height="2" fill="#FAFCFF" fill-opacity="0.31"/></svg>