<svg xmlns="http://www.w3.org/2000/svg" width="1920" height="1080" viewBox="0 0 1920 1080"><rect width="1920" height="1080" fill="#0A1F44"/><polyline points="-39.6,525.3 136.1,554.5 311.8,516.8 487.6,533.4 663.3,544.6 839.1,515.4 1014.8,555.4 1190.5,522.7 1366.3,522.6 1542.0,551.7 1717.7,547.5 1893.5,513.8 2069.2,562.9" fill="none" stroke="#FAFCFF" stroke-opacity="0.1" stroke-width="1.5"/><polyline points="-39.6,645.1 136.1,589.0 311.8,640.3 487.6,615.7 663.3,606.9 839.1,656.6 1014.8,574.9 1190.5,582.8 1366.3,596.1 1542.0,596.1 1717.7,645.1 1893.5,659.1 2069.2,634.3" fill="none" stroke="#FAFCFF" stroke-opacity="0.13" stroke-width="2.5"/><polyline points="-39.6,743.9 136.1,810.1 311.8,745.5 487.6,756.0 663.3,789.6 839.1,816.5 1014.8,720.0 1190.5,809.7 1366.3,734.1 1542.0,788.4 1717.7,730.1 1893.5,802.5 2069.2,726.2" fill="none" stroke="#FAFCFF" stroke-opacity="0.16" stroke-width="3.5"/><polyline points="-39.6,950.3 136.1,961.1 311.8,1004.9 487.6,1050.4 663.3,1054.1 839.1,944.1 1014.8,1031.7 1190.5,1072.2 1366.3,1018.2 1542.0,1069.4 1717.7,976.2 1893.5,1011.9 2069.2,1059.0" fill="none" stroke="#FAFCFF" stroke-opacity="0.19" stroke-width="4.5"/><polyline points="-39.6,1330.8 136.1,1259.1 311.8,1358.7 487.6,1331.8 663.3,1397.4 839.1,1340.1 1014.8,1298.5 1190.5,1339.4 1366.3,1265.1 1542.0,1279.7 1717.7,1339.4 1893.5,1290.4 2069.2,1247.9" fill="none" stroke="#FAFCFF" stroke-opacity="0.22" stroke-width="5.5"/><circle cx="1163.0" cy="971.4" r="2.235731802574968" fill="#3B82F6" fill-opacity="0.46"/><circle cx="197.7" cy="680.8" r="2.231912890907543" fill="#3B82F6" fill-opacity="0.57"/><circle cx="1160.6" cy="773.7" r="6.2420414992422835" fill="#FF6A1A" fill-opacity="0.57"/><circle cx="1318.5" cy="828.4" r="2.5519861024658876" fill="#3B82F6" fill-opacity="0.73"/><circle cx="1656.5" cy="907.2" r="3.831186386709443" fill="#FF6A1A" fill-opacity="0.70"/><circle cx="445.5" cy="655.1" r="6.085020035418572" fill="#3B82F6" fill-opacity="0.61"/><circle cx="1103.6" cy="864.6" r="2.683801761547901" fill="#3B82F6" fill-opacity="0.74"/><circle cx="247.9" cy="974.1" r="4.934733510226789" fill="#3B82F6" fill-opacity="0.46"/><circle cx="387.1" cy="517.3" r="4.187759186007429" fill="#3B82F6" fill-opacity="0.74"/><circle cx="1553.2" cy="926.0" r="4.875590987589251" fill="#3B82F6" fill-opacity="0.55"/><circle cx="504.7" cy="1025.5" r="4.16754465128176" fill="#FF6A1A" fill-opacity="0.66"/><circle cx="1358.2" cy="1040.8" r="5.899857908168938" fill="#FF6A1A" fill-opacity="0.58"/><circle cx="1961.8" cy="711.0" r="3.773445509086342" fill="#FF6A1A" fill-opacity="0.53"/><circle cx="988.2" cy="728.5" r="6.104757256820616" fill="#3B82F6" fill-opacity="0.70"/><circle cx="1661.1" cy="837.8" r="4.169961259170838" fill="#3B82F6" fill-opacity="0.75"/><circle cx="1207.7" cy="874.5" r="2.5591424389417856" fill="#3B82F6" fill-opacity="0.40"/><circle cx="2051.4" cy="1017.8" r="2.5971614676846326" fill="#FF6A1A" fill-opacity="0.62"/><circle cx="1154.1" cy="862.3" r="2.3299789251357272" fill="#3B82F6" fill-opacity="0.49"/><g opacity="0.28"><line x1="0" y1="842.4" x2="1920" y2="561.6" stroke="#FAFCFF" stroke-opacity="0.5" stroke-width="6"/><line x1="-24" y1="832" x2="-24" y2="860" stroke="#3B82F6" stroke-opacity="0.8" stroke-width="3"/><line x1="56" y1="820" x2="56" y2="848" stroke="#3B82F6" stroke-opacity="0.8" stroke-width="3"/><line x1="136" y1="809" x2="136" y2="837" stroke="#3B82F6" stroke-opacity="0.8" stroke-width="3"/><line x1="216" y1="797" x2="216" y2="825" stroke="#3B82F6" stroke-opacity="0.8" stroke-width="3"/><line x1="296" y1="785" x2="296" y2="813" stroke="#3B82F6" stroke-opacity="0.8" stroke-width="3"/><line x1="376" y1="773" x2="376" y2="801" stroke="#3B82F6" stroke-opacity="0.8" stroke-width="3"/><line x1="456" y1="762" x2="456" y2="790" stroke="#3B82F6" stroke-opacity="0.8" stroke-width="3"/><line x1="536" y1="750" x2="536" y2="778" stroke="#3B82F6" stroke-opacity="0.8" stroke-width="3"/><line x1="616" y1="738" x2="616" y2="766" stroke="#3B82F6" stroke-opacity="0.8" stroke-width="3"/><line x1="696" y1="727" x2="696" y2="755" stroke="#3B82F6" stroke-opacity="0.8" stroke-width="3"/><line x1="776" y1="715" x2="776" y2="743" stroke="#3B82F6" stroke-opacity="0.8" stroke-width="3"/><line x1="856" y1="703" x2="856" y2="731" stroke="#3B82F6" stroke-opacity="0.8" stroke-width="3"/><line x1="936" y1="692" x2="936" y2="720" stroke="#3B82F6" stroke-opacity="0.8" stroke-width="3"/><line x1="1016" y1="680" x2="1016" y2="708" stroke="#3B82F6" stroke-opacity="0.8" stroke-width="3"/><line x1="1096" y1="668" x2="1096" y2="696" stroke="#3B82F6" stroke-opacity="0.8" stroke-width="3"/><line x1="1176" y1="656" x2="1176" y2="684" stroke="#3B82F6" stroke-opacity="0.8" stroke-width="3"/><line x1="1256" y1="645" x2="1256" y2="673" stroke="#3B82F6" stroke-opacity="0.8" stroke-width="3"/><line x1="1336" y1="633" x2="1336" y2="661" stroke="#3B82F6" stroke-opacity="0.8" stroke-width="3"/><line x1="1416" y1="621" x2="1416" y2="649" stroke="#3B82F6" stroke-opacity="0.8" stroke-width="3"/><line x1="1496" y1="610" x2="1496" y2="638" stroke="#3B82F6" stroke-opacity="0.8" stroke-width="3"/><line x1="1576" y1="598" x2="1576" y2="626" stroke="#3B82F6" stroke-opacity="0.8" stroke-width="3"/><line x1="1656" y1="586" x2="1656" y2="614" stroke="#3B82F6" stroke-opacity="0.8" stroke-width="3"/><line x1="1736" y1="575" x2="1736" y2="603" stroke="#3B82F6" stroke-opacity="0.8" stroke-width="3"/><line x1="1816" y1="563" x2="1816" y2="591" stroke="#3B82F6" stroke-opacity="0.8" stroke-width="3"/><line x1="1896" y1="551" x2="1896" y2="579" stroke="#3B82F6" stroke-opacity="0.8" stroke-width="3"/><line x1="1976" y1="539" x2="1976" y2="567" stroke="#3B82F6" stroke-opacity="0.8" stroke-width="3"/><line x1="2056" y1="528" x2="2056" y2="556" stroke="#3B82F6" stroke-opacity="0.8" stroke-width="3"/></g></svg>