<svg xmlns="http://www.w3.org/2000/svg" width="1920" height="1080" viewBox="0 0 1920 1080"><rect width="1920" height="1080" fill="#0A1F44"/><polyline points="-392.7,421.9 -148.6,462.5 95.6,410.1 339.7,433.1 583.8,448.7 827.9,408.1 1072.1,463.6 1316.2,418.2 1560.3,418.2 1804.5,458.5 2048.6,452.8 2292.7,405.9 2536.8,474.0" fill="none" stroke="#FAFCFF" stroke-opacity="0.06654088050314465" stroke-width="1.5"/><polyline points="-392.7,588.4 -148.6,510.3 95.6,581.7 339.7,547.4 583.8,535.3 827.9,604.2 1072.1,490.7 1316.2,501.8 1560.3,520.2 1804.5,520.2 2048.6,588.3 2292.7,607.8 2536.8,573.3" fill="none" stroke="#FAFCFF" stroke-opacity="0.08650314465408804" stroke-width="2.5"/><polyline points="-392.7,725.6 -148.6,817.5 95.6,727.7 339.7,742.3 583.8,789.0 827.9,826.4 1072.1,692.4 1316.2,817.0 1560.3,711.9 1804.5,787.3 2048.6,706.4 2292.7,807.0 2536.8,700.9" fill="none" stroke="#FAFCFF" stroke-opacity="0.10646540880503143" stroke-width="3.5"/><polyline points="-392.7,1012.2 -148.6,1027.3 95.6,1088.1 339.7,1151.3 583.8,1156.5 827.9,1003.6 1072.1,1125.3 1316.2,1181.6 1560.3,1106.6 1804.5,1177.7 2048.6,1048.3 2292.7,1097.9 2536.8,1163.3" fill="none" stroke="#FAFCFF" stroke-opacity="0.12642767295597482" stroke-width="4.5"/><polyline points="-392.7,1540.8 -148.6,1441.2 95.6,1579.6 339.7,1542.2 583.8,1633.3 827.9,1553.8 1072.1,1496.0 1316.2,1552.8 1560.3,1449.5 1804.5,1469.8 2048.6,1552.8 2292.7,1484.8 2536.8,1425.7" fill="none" stroke="#FAFCFF" stroke-opacity="0.1463899371069182" stroke-width="5.5"/><circle cx="1278.0" cy="1041.6" r="3.1057904731116492" fill="#3B82F6" fill-opacity="0.49"/><circle cx="-63.0" cy="637.9" r="3.1004853915894905" fill="#3B82F6" fill-opacity="0.35"/><circle cx="1274.7" cy="766.9" r="8.671197949050143" fill="#FF6A1A" fill-opacity="0.35"/><circle cx="1493.9" cy="842.9" r="3.5451184777276583" fill="#3B82F6" fill-opacity="0.28"/><circle cx="1963.4" cy="952.3" r="5.3221330782399345" fill="#FF6A1A" fill-opacity="0.24"/><circle cx="281.2" cy="602.2" r="8.453069922309163" fill="#3B82F6" fill-opacity="0.49"/><circle cx="1195.5" cy="893.2" r="3.7282315942975166" fill="#3B82F6" fill-opacity="0.42"/><circle cx="6.7" cy="1045.4" r="6.8551372332564275" fill="#3B82F6" fill-opacity="0.42"/><circle cx="200.1" cy="410.7" r="5.8174699526159035" fill="#3B82F6" fill-opacity="0.40"/><circle cx="1820.0" cy="978.5" r="6.772978772589589" fill="#3B82F6" fill-opacity="0.50"/><circle cx="363.5" cy="1116.7" r="5.789388717962867" fill="#FF6A1A" fill-opacity="0.27"/><circle cx="1549.2" cy="1137.9" r="8.195849995424075" fill="#FF6A1A" fill-opacity="0.35"/><circle cx="2387.6" cy="679.8" r="5.241921727565228" fill="#FF6A1A" fill-opacity="0.38"/><circle cx="1035.1" cy="704.2" r="8.480488092111804" fill="#3B82F6" fill-opacity="0.24"/><circle cx="1970.0" cy="856.0" r="5.792745774364042" fill="#3B82F6" fill-opacity="0.34"/><circle cx="1340.0" cy="907.0" r="3.5550597782108495" fill="#3B82F6" fill-opacity="0.48"/><circle cx="2512.1" cy="1106.1" r="3.607874313984101" fill="#FF6A1A" fill-opacity="0.31"/><circle cx="1265.6" cy="889.9" r="3.2367148599411726" fill="#3B82F6" fill-opacity="0.40"/><g opacity="1.00"><line x1="0" y1="842.4" x2="1920" y2="561.6" stroke="#FAFCFF" stroke-opacity="0.5" stroke-width="6"/><line x1="-55" y1="836" x2="-55" y2="864" stroke="#3B82F6" stroke-opacity="0.8" stroke-width="3"/><line x1="25" y1="825" x2="25" y2="853" stroke="#3B82F6" stroke-opacity="0.8" stroke-width="3"/><line x1="105" y1="813" x2="105" y2="841" stroke="#3B82F6" stroke-opacity="0.8" stroke-width="3"/><line x1="185" y1="801" x2="185" y2="829" stroke="#3B82F6" stroke-opacity="0.8" stroke-width="3"/><line x1="265" y1="790" x2="265" y2="818" stroke="#3B82F6" stroke-opacity="0.8" stroke-width="3"/><line x1="345" y1="778" x2="345" y2="806" stroke="#3B82F6" stroke-opacity="0.8" stroke-width="3"/><line x1="425" y1="766" x2="425" y2="794" stroke="#3B82F6" stroke-opacity="0.8" stroke-width="3"/><line x1="505" y1="755" x2="505" y2="783" stroke="#3B82F6" stroke-opacity="0.8" stroke-width="3"/><line x1="585" y1="743" x2="585" y2="771" stroke="#3B82F6" stroke-opacity="0.8" stroke-width="3"/><line x1="665" y1="731" x2="665" y2="759" stroke="#3B82F6" stroke-opacity="0.8" stroke-width="3"/><line x1="745" y1="719" x2="745" y2="747" stroke="#3B82F6" stroke-opacity="0.8" stroke-width="3"/><line x1="825" y1="708" x2="825" y2="736" stroke="#3B82F6" stroke-opacity="0.8" stroke-width="3"/><line x1="905" y1="696" x2="905" y2="724" stroke="#3B82F6" stroke-opacity="0.8" stroke-width="3"/><line x1="985" y1="684" x2="985" y2="712" stroke="#3B82F6" stroke-opacity="0.8" stroke-width="3"/><line x1="1065" y1="673" x2="1065" y2="701" stroke="#3B82F6" stroke-opacity="0.8" stroke-width="3"/><line x1="1145" y1="661" x2="1145" y2="689" stroke="#3B82F6" stroke-opacity="0.8" stroke-width="3"/><line x1="1225" y1="649" x2="1225" y2="677" stroke="#3B82F6" stroke-opacity="0.8" stroke-width="3"/><line x1="1305" y1="638" x2="1305" y2="666" stroke="#3B82F6" stroke-opacity="0.8" stroke-width="3"/><line x1="1385" y1="626" x2="1385" y2="654" stroke="#3B82F6" stroke-opacity="0.8" stroke-width="3"/><line x1="1465" y1="614" x2="1465" y2="642" stroke="#3B82F6" stroke-opacity="0.8" stroke-width="3"/><line x1="1545" y1="602" x2="1545" y2="630" stroke="#3B82F6" stroke-opacity="0.8" stroke-width="3"/><line x1="1625" y1="591" x2="1625" y2="619" stroke="#3B82F6" stroke-opacity="0.8" stroke-width="3"/><line x1="1705" y1="579" x2="1705" y2="607" stroke="#3B82F6" stroke-opacity="0.8" stroke-width="3"/><line x1="1785" y1="567" x2="1785" y2="595" stroke="#3B82F6" stroke-opacity="0.8" stroke-width="3"/><line x1="1865" y1="556" x2="1865" y2="584" stroke="#3B82F6" stroke-opacity="0.8" stroke-width="3"/><line x1="1945" y1="544" x2="1945" y2="572" stroke="#3B82F6" stroke-opacity="0.8" stroke-width="3"/><line x1="2025" y1="532" x2="2025" y2="560" stroke="#3B82F6" stroke-opacity="0.8" stroke-width="3"/></g></svg>