<svg xmlns="http://www.w3.org/2000/svg" width="1920" height="1080" viewBox="0 0 1920 1080"><rect width="1920" height="1080" fill="#0A1F44"/><polyline points="-1405.4,182.1 -1002.7,249.1 -600.1,162.7 -197.4,200.6 205.2,226.4 607.9,159.4 1010.5,251.0 1413.2,176.1 1815.8,176.0 2218.5,242.5 2621.1,233.1 3023.8,155.8 3426.5,268.1" fill="none" stroke="#FAFCFF" stroke-opacity="0" stroke-width="1.5"/><polyline points="-1405.4,456.7 -1002.7,328.0 -600.1,445.7 -197.4,389.1 205.2,369.1 607.9,482.9 1010.5,295.7 1413.2,313.9 1815.8,344.3 2218.5,344.2 2621.1,456.7 3023.8,488.7 3426.5,431.8" fill="none" stroke="#FAFCFF" stroke-opacity="0" stroke-width="2.5"/><polyline points="-1405.4,683.0 -1002.7,834.6 -600.1,686.6 -197.4,710.6 205.2,787.6 607.9,849.3 1010.5,628.3 1413.2,833.8 1815.8,660.5 2218.5,784.8 2621.1,651.4 3023.8,817.3 3426.5,642.4" fill="none" stroke="#FAFCFF" stroke-opacity="0" stroke-width="3.5"/><polyline points="-1405.4,1155.8 -1002.7,1180.7 -600.1,1280.9 -197.4,1385.1 205.2,1393.7 607.9,1141.6 1010.5,1342.4 1413.2,1435.2 1815.8,1311.4 2218.5,1428.7 2621.1,1215.3 3023.8,1297.1 3426.5,1404.9" fill="none" stroke="#FAFCFF" stroke-opacity="0" stroke-width="4.5"/><polyline points="-1405.4,2027.7 -1002.7,1863.4 -600.1,2091.5 -197.4,2029.9 205.2,2180.2 607.9,2049.0 1010.5,1953.7 1413.2,2047.4 1815.8,1877.1 2218.5,1910.5 2621.1,2047.5 3023.8,1935.2 3426.5,1837.8" fill="none" stroke="#FAFCFF" stroke-opacity="0" stroke-width="5.5"/><g opacity="1.00"><rect x="422.4" y="216" width="1075.2" height="540" fill="none" stroke="#FAFCFF" stroke-opacity="0.6" stroke-width="2"/><rect x="442.4" y="236" width="318.40000000000003" height="189" fill="#3B82F6" fill-opacity="0.14"/><rect x="800.8" y="236" width="318.40000000000003" height="189" fill="#3B82F6" fill-opacity="0.2"/><rect x="1159.2" y="236" width="318.40000000000003" height="189" fill="#3B82F6" fill-opacity="0.26"/></g><g opacity="1.00"><rect x="460.79999999999995" y="324" width="517.9707771018149" height="10" fill="#3B82F6" fill-opacity="0.9"/><rect x="460.79999999999995" y="358" width="559.0618132464589" height="10" fill="#FAFCFF" fill-opacity="0.4"/><rect x="460.79999999999995" y="392" width="352.0004768371582" height="10" fill="#FAFCFF" fill-opacity="0.4"/><rect x="460.79999999999995" y="426" width="493.0137858130038" height="10" fill="#3B82F6" fill-opacity="0.9"/><rect x="460.79999999999995" y="460" width="575.1368051692843" height="10" fill="#FAFCFF" fill-opacity="0.4"/><rect x="460.79999999999995" y="494" width="457.9308180771768" height="10" fill="#FAFCFF" fill-opacity="0.4"/><rect x="460.79999999999995" y="528" width="514.2663277834654" height="10" fill="#3B82F6" fill-opacity="0.9"/><rect x="460.79999999999995" y="562" width="778.5601877756417" height="10" fill="#FAFCFF" fill-opacity="0.4"/><rect x="460.79999999999995" y="596" width="680.599281987915" height="10" fill="#FAFCFF" fill-opacity="0.4"/></g></svg>