<svg xmlns="http://www.w3.org/2000/svg" width="1920" height="1080" viewBox="0 0 1920 1080"><rect width="1920" height="1080" fill="#0A1F44"/><polyline points="-597.6,368.3 -318.0,414.8 -38.5,354.8 241.1,381.1 520.6,399.0 800.2,352.5 1079.7,416.1 1359.3,364.1 1638.8,364.0 1918.4,410.3 2197.9,403.7 2477.5,350.0 2757.0,428.0" fill="none" stroke="#FAFCFF" stroke-opacity="0.028805031446540886" stroke-width="1.5"/><polyline points="-597.6,558.9 -318.0,469.5 -38.5,551.3 241.1,512.0 520.6,498.1 800.2,577.1 1079.7,447.2 1359.3,459.8 1638.8,480.9 1918.4,480.8 2197.9,558.9 2477.5,581.2 2757.0,541.7" fill="none" stroke="#FAFCFF" stroke-opacity="0.03744654088050315" stroke-width="2.5"/><polyline points="-597.6,716.0 -318.0,821.3 -38.5,718.5 241.1,735.2 520.6,788.7 800.2,831.5 1079.7,678.1 1359.3,820.7 1638.8,700.4 1918.4,786.8 2197.9,694.1 2477.5,809.3 2757.0,687.8" fill="none" stroke="#FAFCFF" stroke-opacity="0.04608805031446542" stroke-width="3.5"/><polyline points="-597.6,1044.3 -318.0,1061.6 -38.5,1131.2 241.1,1203.5 520.6,1209.5 800.2,1034.4 1079.7,1173.8 1359.3,1238.3 1638.8,1152.4 1918.4,1233.7 2197.9,1085.6 2477.5,1142.4 2757.0,1217.3" fill="none" stroke="#FAFCFF" stroke-opacity="0.054729559748427685" stroke-width="4.5"/><polyline points="-597.6,1649.6 -318.0,1535.5 -38.5,1694.0 241.1,1651.1 520.6,1755.5 800.2,1664.4 1079.7,1598.3 1359.3,1663.3 1638.8,1545.1 1918.4,1568.3 2197.9,1663.4 2477.5,1585.4 2757.0,1517.8" fill="none" stroke="#FAFCFF" stroke-opacity="0.06337106918238995" stroke-width="5.5"/><circle cx="1315.5" cy="1077.9" r="3.5564729096812258" fill="#3B82F6" fill-opacity="0.15"/><circle cx="-220.1" cy="615.7" r="3.550398005762062" fill="#3B82F6" fill-opacity="0.14"/><circle cx="1311.7" cy="763.4" r="9.929478780770161" fill="#FF6A1A" fill-opacity="0.14"/><circle cx="1562.8" cy="850.4" r="4.059551968107128" fill="#3B82F6" fill-opacity="0.20"/><circle cx="2100.4" cy="975.7" r="6.0944298330321525" fill="#FF6A1A" fill-opacity="0.19"/><circle cx="174.1" cy="574.8" r="9.679698113122841" fill="#3B82F6" fill-opacity="0.19"/><circle cx="1221.0" cy="908.0" r="4.269236698653531" fill="#3B82F6" fill-opacity="0.22"/><circle cx="-140.3" cy="1082.3" r="7.849888803927424" fill="#3B82F6" fill-opacity="0.11"/><circle cx="81.2" cy="355.5" r="6.661645229606967" fill="#3B82F6" fill-opacity="0.22"/><circle cx="1936.2" cy="1005.7" r="7.755808297791421" fill="#3B82F6" fill-opacity="0.18"/><circle cx="268.3" cy="1164.0" r="6.629489116315182" fill="#FF6A1A" fill-opacity="0.18"/><circle cx="1626.0" cy="1188.2" r="9.385152904836307" fill="#FF6A1A" fill-opacity="0.15"/><circle cx="2586.1" cy="663.7" r="6.002578982759654" fill="#FF6A1A" fill-opacity="0.13"/><circle cx="1037.3" cy="691.6" r="9.71109494397165" fill="#3B82F6" fill-opacity="0.19"/><circle cx="2107.9" cy="865.4" r="6.633333316447295" fill="#3B82F6" fill-opacity="0.21"/><circle cx="1386.5" cy="923.8" r="4.070935854483741" fill="#3B82F6" fill-opacity="0.14"/><circle cx="2728.8" cy="1151.8" r="4.131414327626448" fill="#FF6A1A" fill-opacity="0.16"/><circle cx="1301.3" cy="904.3" r="3.7063957840692456" fill="#3B82F6" fill-opacity="0.12"/><g opacity="1.00"><line x1="0" y1="842.4" x2="1920" y2="561.6" stroke="#FAFCFF" stroke-opacity="0.5" stroke-width="6"/><line x1="-50" y1="836" x2="-50" y2="864" stroke="#3B82F6" stroke-opacity="0.8" stroke-width="3"/><line x1="30" y1="824" x2="30" y2="852" stroke="#3B82F6" stroke-opacity="0.8" stroke-width="3"/><line x1="110" y1="812" x2="110" y2="840" stroke="#3B82F6" stroke-opacity="0.8" stroke-width="3"/><line x1="190" y1="801" x2="190" y2="829" stroke="#3B82F6" stroke-opacity="0.8" stroke-width="3"/><line x1="270" y1="789" x2="270" y2="817" stroke="#3B82F6" stroke-opacity="0.8" stroke-width="3"/><line x1="350" y1="777" x2="350" y2="805" stroke="#3B82F6" stroke-opacity="0.8" stroke-width="3"/><line x1="430" y1="765" x2="430" y2="793" stroke="#3B82F6" stroke-opacity="0.8" stroke-width="3"/><line x1="510" y1="754" x2="510" y2="782" stroke="#3B82F6" stroke-opacity="0.8" stroke-width="3"/><line x1="590" y1="742" x2="590" y2="770" stroke="#3B82F6" stroke-opacity="0.8" stroke-width="3"/><line x1="670" y1="730" x2="670" y2="758" stroke="#3B82F6" stroke-opacity="0.8" stroke-width="3"/><line x1="750" y1="719" x2="750" y2="747" stroke="#3B82F6" stroke-opacity="0.8" stroke-width="3"/><line x1="830" y1="707" x2="830" y2="735" stroke="#3B82F6" stroke-opacity="0.8" stroke-width="3"/><line x1="910" y1="695" x2="910" y2="723" stroke="#3B82F6" stroke-opacity="0.8" stroke-width="3"/><line x1="990" y1="684" x2="990" y2="712" stroke="#3B82F6" stroke-opacity="0.8" stroke-width="3"/><line x1="1070" y1="672" x2="1070" y2="700" stroke="#3B82F6" stroke-opacity="0.8" stroke-width="3"/><line x1="1150" y1="660" x2="1150" y2="688" stroke="#3B82F6" stroke-opacity="0.8" stroke-width="3"/><line x1="1230" y1="648" x2="1230" y2="676" stroke="#3B82F6" stroke-opacity="0.8" stroke-width="3"/><line x1="1310" y1="637" x2="1310" y2="665" stroke="#3B82F6" stroke-opacity="0.8" stroke-width="3"/><line x1="1390" y1="625" x2="1390" y2="653" stroke="#3B82F6" stroke-opacity="0.8" stroke-width="3"/><line x1="1470" y1="613" x2="1470" y2="641" stroke="#3B82F6" stroke-opacity="0.8" stroke-width="3"/><line x1="1550" y1="602" x2="1550" y2="630" stroke="#3B82F6" stroke-opacity="0.8" stroke-width="3"/><line x1="1630" y1="590" x2="1630" y2="618" stroke="#3B82F6" stroke-opacity="0.8" stroke-width="3"/><line x1="1710" y1="578" x2="1710" y2="606" stroke="#3B82F6" stroke-opacity="0.8" stroke-width="3"/><line x1="1790" y1="567" x2="1790" y2="595" stroke="#3B82F6" stroke-opacity="0.8" stroke-width="3"/><line x1="1870" y1="555" x2="1870" y2="583" stroke="#3B82F6" stroke-opacity="0.8" stroke-width="3"/><line x1="1950" y1="543" x2="1950" y2="571" stroke="#3B82F6" stroke-opacity="0.8" stroke-width="3"/><line x1="2030" y1="531" x2="2030" y2="559" stroke="#3B82F6" stroke-opacity="0.8" stroke-width="3"/></g></svg>