<svg xmlns="http://www.w3.org/2000/svg" width="1920" height="1080" viewBox="0 0 1920 1080"><rect width="1920" height="1080" fill="#0A1F44"/><polyline points="0.0,549.1 160.0,575.7 320.0,541.4 480.0,556.5 640.0,566.7 800.0,540.1 960.0,576.5 1120.0,546.7 1280.0,546.7 1440.0,573.1 1600.0,569.4 1760.0,538.7 1920.0,583.3" fill="none" stroke="#FAFCFF" stroke-opacity="0.1" stroke-width="1.5"/><polyline points="0.0,658.2 160.0,607.1 320.0,653.8 480.0,631.4 640.0,623.4 800.0,668.6 960.0,594.2 1120.0,601.5 1280.0,613.6 1440.0,613.5 1600.0,658.2 1760.0,670.9 1920.0,648.3" fill="none" stroke="#FAFCFF" stroke-opacity="0.13" stroke-width="2.5"/><polyline points="0.0,748.1 160.0,808.4 320.0,749.6 480.0,759.1 640.0,789.7 800.0,814.2 960.0,726.4 1120.0,808.1 1280.0,739.2 1440.0,788.6 1600.0,735.6 1760.0,801.5 1920.0,732.0" fill="none" stroke="#FAFCFF" stroke-opacity="0.16" stroke-width="3.5"/><polyline points="0.0,936.0 160.0,945.9 320.0,985.7 480.0,1027.1 640.0,1030.6 800.0,930.4 960.0,1010.1 1120.0,1047.0 1280.0,997.9 1440.0,1044.4 1600.0,959.7 1760.0,992.2 1920.0,1035.0" fill="none" stroke="#FAFCFF" stroke-opacity="0.19" stroke-width="4.5"/><polyline points="0.0,1282.5 160.0,1217.2 320.0,1307.9 480.0,1283.3 640.0,1343.1 800.0,1290.9 960.0,1253.1 1120.0,1290.3 1280.0,1222.6 1440.0,1235.9 1600.0,1290.3 1760.0,1245.7 1920.0,1207.0" fill="none" stroke="#FAFCFF" stroke-opacity="0.22" stroke-width="5.5"/><circle cx="1094.9" cy="955.3" r="2.035522483289242" fill="#3B82F6" fill-opacity="0.75"/><circle cx="216.1" cy="690.7" r="2.032045554369688" fill="#3B82F6" fill-opacity="0.63"/><circle cx="1092.8" cy="775.2" r="5.683067977428436" fill="#FF6A1A" fill-opacity="0.63"/><circle cx="1236.5" cy="825.0" r="2.3234562762081623" fill="#3B82F6" fill-opacity="0.41"/><circle cx="1544.2" cy="896.8" r="3.4881044402718544" fill="#FF6A1A" fill-opacity="0.47"/><circle cx="441.7" cy="667.3" r="5.540107753127813" fill="#3B82F6" fill-opacity="0.70"/><circle cx="1040.9" cy="858.0" r="2.4434678703546524" fill="#3B82F6" fill-opacity="0.52"/><circle cx="261.7" cy="957.7" r="4.492829147726297" fill="#3B82F6" fill-opacity="0.70"/><circle cx="388.5" cy="541.8" r="3.8127462193369865" fill="#3B82F6" fill-opacity="0.50"/><circle cx="1450.2" cy="913.9" r="4.438982825726271" fill="#3B82F6" fill-opacity="0.73"/><circle cx="495.6" cy="1004.5" r="3.794341892004013" fill="#FF6A1A" fill-opacity="0.53"/><circle cx="1272.7" cy="1018.4" r="5.3715268559753895" fill="#FF6A1A" fill-opacity="0.62"/><circle cx="1822.2" cy="718.2" r="3.435534246265888" fill="#FF6A1A" fill-opacity="0.66"/><circle cx="935.7" cy="734.1" r="5.55807751044631" fill="#3B82F6" fill-opacity="0.46"/><circle cx="1548.5" cy="833.6" r="3.7965420931577682" fill="#3B82F6" fill-opacity="0.40"/><circle cx="1135.6" cy="867.0" r="2.3299717642366886" fill="#3B82F6" fill-opacity="0.75"/><circle cx="1903.8" cy="997.5" r="2.3645861968398094" fill="#FF6A1A" fill-opacity="0.58"/><circle cx="1086.8" cy="855.9" r="2.1213297955691814" fill="#3B82F6" fill-opacity="0.69"/></svg>