<svg xmlns="http://www.w3.org/2000/svg" width="1920" height="1080" viewBox="0 0 1920 1080"><rect width="1920" height="1080" fill="#0A1F44"/><polyline points="7.8,547.5 168.9,574.3 329.9,539.7 491.0,554.9 652.1,565.2 813.1,538.4 974.2,575.0 1135.3,545.1 1296.3,545.0 1457.4,571.7 1618.5,567.9 1779.5,537.0 1940.6,581.9" fill="none" stroke="#FAFCFF" stroke-opacity="0.1" stroke-width="1.5"/><polyline points="7.8,657.3 168.9,605.8 329.9,652.9 491.0,630.3 652.1,622.3 813.1,667.8 974.2,592.9 1135.3,600.2 1296.3,612.4 1457.4,612.3 1618.5,657.3 1779.5,670.1 1940.6,647.4" fill="none" stroke="#FAFCFF" stroke-opacity="0.13" stroke-width="2.5"/><polyline points="7.8,747.9 168.9,808.5 329.9,749.3 491.0,758.9 652.1,789.7 813.1,814.4 974.2,726.0 1135.3,808.2 1296.3,738.8 1457.4,788.6 1618.5,735.2 1779.5,801.6 1940.6,731.6" fill="none" stroke="#FAFCFF" stroke-opacity="0.16" stroke-width="3.5"/><polyline points="7.8,937.0 168.9,946.9 329.9,987.0 491.0,1028.7 652.1,1032.2 813.1,931.3 974.2,1011.6 1135.3,1048.7 1296.3,999.2 1457.4,1046.1 1618.5,960.8 1779.5,993.5 1940.6,1036.6" fill="none" stroke="#FAFCFF" stroke-opacity="0.19" stroke-width="4.5"/><polyline points="7.8,1285.7 168.9,1220.0 329.9,1311.3 491.0,1286.6 652.1,1346.7 813.1,1294.3 974.2,1256.2 1135.3,1293.6 1296.3,1225.5 1457.4,1238.9 1618.5,1293.7 1779.5,1248.8 1940.6,1209.8" fill="none" stroke="#FAFCFF" stroke-opacity="0.22" stroke-width="5.5"/><circle cx="1110.0" cy="956.4" r="2.0490856146219723" fill="#3B82F6" fill-opacity="0.73"/><circle cx="225.3" cy="690.0" r="2.045585518164866" fill="#3B82F6" fill-opacity="0.52"/><circle cx="1107.9" cy="775.1" r="5.720935501852014" fill="#FF6A1A" fill-opacity="0.52"/><circle cx="1252.5" cy="825.3" r="2.3389379733541182" fill="#3B82F6" fill-opacity="0.43"/><circle cx="1562.3" cy="897.5" r="3.511346442762163" fill="#FF6A1A" fill-opacity="0.37"/><circle cx="452.4" cy="666.5" r="5.577022702321462" fill="#3B82F6" fill-opacity="0.74"/><circle cx="1055.6" cy="858.4" r="2.4597492309905586" fill="#3B82F6" fill-opacity="0.63"/><circle cx="271.3" cy="958.9" r="4.522765850605483" fill="#3B82F6" fill-opacity="0.62"/><circle cx="398.9" cy="540.1" r="3.838151380977685" fill="#3B82F6" fill-opacity="0.61"/><circle cx="1467.7" cy="914.7" r="4.468560738789541" fill="#3B82F6" fill-opacity="0.75"/><circle cx="506.7" cy="1005.9" r="3.8196244215879513" fill="#FF6A1A" fill-opacity="0.40"/><circle cx="1289.0" cy="1019.9" r="5.407318513794445" fill="#FF6A1A" fill-opacity="0.51"/><circle cx="1842.1" cy="717.7" r="3.458425962060106" fill="#FF6A1A" fill-opacity="0.56"/><circle cx="949.8" cy="733.8" r="5.595112196061702" fill="#3B82F6" fill-opacity="0.38"/><circle cx="1566.6" cy="833.9" r="3.821839283163024" fill="#3B82F6" fill-opacity="0.53"/><circle cx="1151.0" cy="867.6" r="2.3454968755038608" fill="#3B82F6" fill-opacity="0.72"/><circle cx="1924.3" cy="998.9" r="2.3803419516391746" fill="#FF6A1A" fill-opacity="0.46"/><circle cx="1101.9" cy="856.3" r="2.135464679783698" fill="#3B82F6" fill-opacity="0.60"/></svg>