<svg xmlns="http://www.w3.org/2000/svg" width="1920" height="1080" viewBox="0 0 1920 1080"><rect width="1920" height="1080" fill="#0A1F44"/><polyline points="-1280.6,207.4 -894.8,271.6 -508.9,188.9 -123.0,225.2 262.9,249.9 648.8,185.7 1034.7,273.4 1420.6,201.7 1806.5,201.6 2192.4,265.4 2578.2,256.3 2964.1,182.3 3350.0,289.9" fill="none" stroke="#FAFCFF" stroke-opacity="0" stroke-width="1.5"/><polyline points="-1280.6,470.6 -894.8,347.2 -508.9,460.0 -123.0,405.9 262.9,386.7 648.8,495.7 1034.7,316.3 1420.6,333.8 1806.5,362.9 2192.4,362.8 2578.2,470.6 2964.1,501.3 3350.0,446.8" fill="none" stroke="#FAFCFF" stroke-opacity="0" stroke-width="2.5"/><polyline points="-1280.6,687.5 -894.8,832.8 -508.9,690.9 -123.0,713.9 262.9,787.8 648.8,846.8 1034.7,635.1 1420.6,832.0 1806.5,665.9 2192.4,785.1 2578.2,657.2 2964.1,816.2 3350.0,648.6" fill="none" stroke="#FAFCFF" stroke-opacity="0" stroke-width="3.5"/><polyline points="-1280.6,1140.6 -894.8,1164.4 -508.9,1260.6 -123.0,1360.4 262.9,1368.6 648.8,1127.0 1034.7,1319.4 1420.6,1408.4 1806.5,1289.8 2192.4,1402.1 2578.2,1197.6 2964.1,1276.0 3350.0,1379.4" fill="none" stroke="#FAFCFF" stroke-opacity="0" stroke-width="4.5"/><polyline points="-1280.6,1976.2 -894.8,1818.7 -508.9,2037.4 -123.0,1978.3 262.9,2122.3 648.8,1996.6 1034.7,1905.3 1420.6,1995.1 1806.5,1831.9 2192.4,1863.9 2578.2,1995.2 2964.1,1887.6 3350.0,1794.2" fill="none" stroke="#FAFCFF" stroke-opacity="0" stroke-width="5.5"/><g opacity="1.00"><rect x="422.4" y="216" width="1075.2" height="540" fill="none" stroke="#FAFCFF" stroke-opacity="0.6" stroke-width="2"/><rect x="442.4" y="236" width="318.40000000000003" height="189" fill="#3B82F6" fill-opacity="0.14"/><rect x="800.8" y="236" width="318.40000000000003" height="189" fill="#3B82F6" fill-opacity="0.2"/><rect x="1159.2" y="236" width="318.40000000000003" height="189" fill="#3B82F6" fill-opacity="0.26"/></g><g opacity="1.00"><rect x="460.79999999999995" y="324" width="517.9707771018149" height="10" fill="#3B82F6" fill-opacity="0.9"/><rect x="460.79999999999995" y="358" width="559.0618132464589" height="10" fill="#FAFCFF" fill-opacity="0.4"/><rect x="460.79999999999995" y="392" width="352.0004768371582" height="10" fill="#FAFCFF" fill-opacity="0.4"/><rect x="460.79999999999995" y="426" width="493.0137858130038" height="10" fill="#3B82F6" fill-opacity="0.9"/><rect x="460.79999999999995" y="460" width="575.1368051692843" height="10" fill="#FAFCFF" fill-opacity="0.4"/><rect x="460.79999999999995" y="494" width="457.9308180771768" height="10" fill="#FAFCFF" fill-opacity="0.4"/></g></svg>