<svg xmlns="http://www.w3.org/2000/svg" width="1920" height="1080" viewBox="0 0 1920 1080"><rect width="1920" height="1080" fill="#0A1F44"/><polyline points="-583.3,371.9 -306.2,418.0 -29.0,358.6 248.1,384.7 525.2,402.4 802.4,356.3 1079.5,419.3 1356.7,367.8 1633.8,367.7 1911.0,413.5 2188.1,407.0 2465.2,353.8 2742.4,431.2" fill="none" stroke="#FAFCFF" stroke-opacity="0.03132075471698114" stroke-width="1.5"/><polyline points="-583.3,560.9 -306.2,472.3 -29.0,553.3 248.1,514.4 525.2,500.7 802.4,578.9 1079.5,450.1 1356.7,462.6 1633.8,483.6 1911.0,483.5 2188.1,560.9 2465.2,583.0 2742.4,543.8" fill="none" stroke="#FAFCFF" stroke-opacity="0.04071698113207548" stroke-width="2.5"/><polyline points="-583.3,716.7 -306.2,821.0 -29.0,719.2 248.1,735.7 525.2,788.7 802.4,831.1 1079.5,679.0 1356.7,820.5 1633.8,701.2 1911.0,786.8 2188.1,694.9 2465.2,809.1 2742.4,688.7" fill="none" stroke="#FAFCFF" stroke-opacity="0.050113207547169816" stroke-width="3.5"/><polyline points="-583.3,1042.1 -306.2,1059.2 -29.0,1128.3 248.1,1200.0 525.2,1205.9 802.4,1032.3 1079.5,1170.5 1356.7,1234.4 1633.8,1149.2 1911.0,1229.9 2188.1,1083.1 2465.2,1139.4 2742.4,1213.6" fill="none" stroke="#FAFCFF" stroke-opacity="0.05950943396226416" stroke-width="4.5"/><polyline points="-583.3,1642.2 -306.2,1529.1 -29.0,1686.2 248.1,1643.7 525.2,1747.2 802.4,1656.9 1079.5,1591.3 1356.7,1655.8 1633.8,1538.6 1911.0,1561.6 2188.1,1655.9 2465.2,1578.6 2742.4,1511.5" fill="none" stroke="#FAFCFF" stroke-opacity="0.0689056603773585" stroke-width="5.5"/><circle cx="1313.3" cy="1075.4" r="3.5258262285187087" fill="#3B82F6" fill-opacity="0.17"/><circle cx="-209.1" cy="617.2" r="3.519803672993089" fill="#3B82F6" fill-opacity="0.15"/><circle cx="1309.5" cy="763.6" r="9.8439149150998" fill="#FF6A1A" fill-opacity="0.15"/><circle cx="1558.4" cy="849.9" r="4.024570176318251" fill="#3B82F6" fill-opacity="0.21"/><circle cx="2091.4" cy="974.2" r="6.0419131816464935" fill="#FF6A1A" fill-opacity="0.20"/><circle cx="181.7" cy="576.7" r="9.596286646381518" fill="#3B82F6" fill-opacity="0.21"/><circle cx="1219.6" cy="907.0" r="4.232448020872577" fill="#3B82F6" fill-opacity="0.23"/><circle cx="-130.0" cy="1079.8" r="7.782245089088405" fill="#3B82F6" fill-opacity="0.11"/><circle cx="89.6" cy="359.2" r="6.604240794776655" fill="#3B82F6" fill-opacity="0.23"/><circle cx="1928.6" cy="1003.8" r="7.688975289331553" fill="#3B82F6" fill-opacity="0.20"/><circle cx="275.1" cy="1160.8" r="6.5723617757230395" fill="#FF6A1A" fill-opacity="0.18"/><circle cx="1621.1" cy="1184.8" r="9.30427958004504" fill="#FF6A1A" fill-opacity="0.15"/><circle cx="2572.9" cy="664.8" r="5.9508538244611895" fill="#FF6A1A" fill-opacity="0.13"/><circle cx="1037.5" cy="692.5" r="9.627412925847263" fill="#3B82F6" fill-opacity="0.20"/><circle cx="2098.8" cy="864.7" r="6.576172849783686" fill="#3B82F6" fill-opacity="0.23"/><circle cx="1383.7" cy="922.6" r="4.035855965972344" fill="#3B82F6" fill-opacity="0.16"/><circle cx="2714.4" cy="1148.7" r="4.0958132866894115" fill="#FF6A1A" fill-opacity="0.17"/><circle cx="1299.2" cy="903.3" r="3.6744571941400874" fill="#3B82F6" fill-opacity="0.12"/><g opacity="1.00"><line x1="0" y1="842.4" x2="1920" y2="561.6" stroke="#FAFCFF" stroke-opacity="0.5" stroke-width="6"/><line x1="-55" y1="837" x2="-55" y2="865" stroke="#3B82F6" stroke-opacity="0.8" stroke-width="3"/><line x1="25" y1="825" x2="25" y2="853" stroke="#3B82F6" stroke-opacity="0.8" stroke-width="3"/><line x1="105" y1="813" x2="105" y2="841" stroke="#3B82F6" stroke-opacity="0.8" stroke-width="3"/><line x1="185" y1="801" x2="185" y2="829" stroke="#3B82F6" stroke-opacity="0.8" stroke-width="3"/><line x1="265" y1="790" x2="265" y2="818" stroke="#3B82F6" stroke-opacity="0.8" stroke-width="3"/><line x1="345" y1="778" x2="345" y2="806" stroke="#3B82F6" stroke-opacity="0.8" stroke-width="3"/><line x1="425" y1="766" x2="425" y2="794" stroke="#3B82F6" stroke-opacity="0.8" stroke-width="3"/><line x1="505" y1="755" x2="505" y2="783" stroke="#3B82F6" stroke-opacity="0.8" stroke-width="3"/><line x1="585" y1="743" x2="585" y2="771" stroke="#3B82F6" stroke-opacity="0.8" stroke-width="3"/><line x1="665" y1="731" x2="665" y2="759" stroke="#3B82F6" stroke-opacity="0.8" stroke-width="3"/><line x1="745" y1="720" x2="745" y2="748" stroke="#3B82F6" stroke-opacity="0.8" stroke-width="3"/><line x1="825" y1="708" x2="825" y2="736" stroke="#3B82F6" stroke-opacity="0.8" stroke-width="3"/><line x1="905" y1="696" x2="905" y2="724" stroke="#3B82F6" stroke-opacity="0.8" stroke-width="3"/><line x1="985" y1="684" x2="985" y2="712" stroke="#3B82F6" stroke-opacity="0.8" stroke-width="3"/><line x1="1065" y1="673" x2="1065" y2="701" stroke="#3B82F6" stroke-opacity="0.8" stroke-width="3"/><line x1="1145" y1="661" x2="1145" y2="689" stroke="#3B82F6" stroke-opacity="0.8" stroke-width="3"/><line x1="1225" y1="649" x2="1225" y2="677" stroke="#3B82F6" stroke-opacity="0.8" stroke-width="3"/><line x1="1305" y1="638" x2="1305" y2="666" stroke="#3B82F6" stroke-opacity="0.8" stroke-width="3"/><line x1="1385" y1="626" x2="1385" y2="654" stroke="#3B82F6" stroke-opacity="0.8" stroke-width="3"/><line x1="1465" y1="614" x2="1465" y2="642" stroke="#3B82F6" stroke-opacity="0.8" stroke-width="3"/><line x1="1545" y1="603" x2="1545" y2="631" stroke="#3B82F6" stroke-opacity="0.8" stroke-width="3"/><line x1="1625" y1="591" x2="1625" y2="619" stroke="#3B82F6" stroke-opacity="0.8" stroke-width="3"/><line x1="1705" y1="579" x2="1705" y2="607" stroke="#3B82F6" stroke-opacity="0.8" stroke-width="3"/><line x1="1785" y1="567" x2="1785" y2="595" stroke="#3B82F6" stroke-opacity="0.8" stroke-width="3"/><line x1="1865" y1="556" x2="1865" y2="584" stroke="#3B82F6" stroke-opacity="0.8" stroke-width="3"/><line x1="1945" y1="544" x2="1945" y2="572" stroke="#3B82F6" stroke-opacity="0.8" stroke-width="3"/><line x1="2025" y1="532" x2="2025" y2="560" stroke="#3B82F6" stroke-opacity="0.8" stroke-width="3"/></g></svg>