<svg xmlns="http://www.w3.org/2000/svg" width="1920" height="1080" viewBox="0 0 1920 1080"><rect width="1920" height="1080" fill="#0A1F44"/><polyline points="-1447.5,174.2 -1039.7,242.1 -631.8,154.6 -224.0,193.0 183.9,219.1 591.7,151.3 999.6,244.0 1407.4,168.2 1815.2,168.0 2223.1,235.5 2630.9,225.9 3038.8,147.6 3446.6,261.4" fill="none" stroke="#FAFCFF" stroke-opacity="0" stroke-width="1.5"/><polyline points="-1447.5,452.4 -1039.7,322.0 -631.8,441.2 -224.0,384.0 183.9,363.7 591.7,478.9 999.6,289.3 1407.4,307.7 1815.2,338.5 2223.1,338.4 2630.9,452.4 3038.8,484.8 3446.6,427.2" fill="none" stroke="#FAFCFF" stroke-opacity="0" stroke-width="2.5"/><polyline points="-1447.5,681.6 -1039.7,835.1 -631.8,685.2 -224.0,709.5 183.9,787.6 591.7,850.0 999.6,626.2 1407.4,834.3 1815.2,658.8 2223.1,784.8 2630.9,649.6 3038.8,817.7 3446.6,640.5" fill="none" stroke="#FAFCFF" stroke-opacity="0" stroke-width="3.5"/><polyline points="-1447.5,1160.5 -1039.7,1185.7 -631.8,1287.3 -224.0,1392.8 183.9,1401.5 591.7,1146.1 999.6,1349.5 1407.4,1443.5 1815.2,1318.1 2223.1,1436.9 2630.9,1220.8 3038.8,1303.6 3446.6,1412.8" fill="none" stroke="#FAFCFF" stroke-opacity="0" stroke-width="4.5"/><polyline points="-1447.5,2043.6 -1039.7,1877.2 -631.8,2108.3 -224.0,2045.8 183.9,2198.1 591.7,2065.2 999.6,1968.7 1407.4,2063.6 1815.2,1891.1 2223.1,1925.0 2630.9,2063.7 3038.8,1950.0 3446.6,1851.3" fill="none" stroke="#FAFCFF" stroke-opacity="0" stroke-width="5.5"/><g opacity="1.00"><rect x="422.4" y="216" width="1075.2" height="540" fill="none" stroke="#FAFCFF" stroke-opacity="0.6" stroke-width="2"/><rect x="442.4" y="236" width="318.40000000000003" height="189" fill="#3B82F6" fill-opacity="0.14"/><rect x="800.8" y="236" width="318.40000000000003" height="189" fill="#3B82F6" fill-opacity="0.2"/><rect x="1159.2" y="236" width="318.40000000000003" height="189" fill="#3B82F6" fill-opacity="0.26"/></g><g opacity="1.00"><rect x="460.79999999999995" y="324" width="517.9707771018149" height="10" fill="#3B82F6" fill-opacity="0.9"/><rect x="460.79999999999995" y="358" width="559.0618132464589" height="10" fill="#FAFCFF" fill-opacity="0.4"/><rect x="460.79999999999995" y="392" width="352.0004768371582" height="10" fill="#FAFCFF" fill-opacity="0.4"/><rect x="460.79999999999995" y="426" width="493.0137858130038" height="10" fill="#3B82F6" fill-opacity="0.9"/><rect x="460.79999999999995" y="460" width="575.1368051692843" height="10" fill="#FAFCFF" fill-opacity="0.4"/><rect x="460.79999999999995" y="494" width="457.9308180771768" height="10" fill="#FAFCFF" fill-opacity="0.4"/><rect x="460.79999999999995" y="528" width="514.2663277834654" height="10" fill="#3B82F6" fill-opacity="0.9"/><rect x="460.79999999999995" y="562" width="778.5601877756417" height="10" fill="#FAFCFF" fill-opacity="0.4"/><rect x="460.79999999999995" y="596" width="771.863665021956" height="10" fill="#FAFCFF" fill-opacity="0.4"/></g><rect width="1920" height="1080" fill="#0A1F44" fill-opacity="0.17"/><circle cx="960" cy="540" r="7" fill="#3B82F6" fill-opacity="0.24"/><rect x="800" y="580" width="320" height="2" fill="#FAFCFF" fill-opacity="0.09"/></svg>