<svg xmlns="http://www.w3.org/2000/svg" width="1920" height="1080" viewBox="0 0 1920 1080"><rect width="1920" height="1080" fill="#0A1F44"/><polyline points="-699.0,342.7 -402.5,392.0 -106.1,328.4 190.4,356.3 486.8,375.3 783.3,326.0 1079.7,393.4 1376.2,338.3 1672.6,338.2 1969.1,387.2 2265.5,380.2 2562.0,323.4 2858.4,406.1" fill="none" stroke="#FAFCFF" stroke-opacity="0.01119496855345914" stroke-width="1.5"/><polyline points="-699.0,544.9 -402.5,450.1 -106.1,536.8 190.4,495.2 486.8,480.4 783.3,564.2 1079.7,426.4 1376.2,439.8 1672.6,462.1 1969.1,462.1 2265.5,544.9 2562.0,568.5 2858.4,526.6" fill="none" stroke="#FAFCFF" stroke-opacity="0.01455345911949688" stroke-width="2.5"/><polyline points="-699.0,711.5 -402.5,823.1 -106.1,714.1 190.4,731.8 486.8,788.5 783.3,833.9 1079.7,671.2 1376.2,822.5 1672.6,694.9 1969.1,786.5 2265.5,688.2 2562.0,810.4 2858.4,681.6" fill="none" stroke="#FAFCFF" stroke-opacity="0.017911949685534622" stroke-width="3.5"/><polyline points="-699.0,1059.6 -402.5,1077.9 -106.1,1151.7 190.4,1228.5 486.8,1234.8 783.3,1049.1 1079.7,1197.0 1376.2,1265.3 1672.6,1174.2 1969.1,1260.5 2265.5,1103.4 2562.0,1163.6 2858.4,1243.0" fill="none" stroke="#FAFCFF" stroke-opacity="0.021270440251572365" stroke-width="4.5"/><polyline points="-699.0,1701.5 -402.5,1580.5 -106.1,1748.5 190.4,1703.1 486.8,1813.8 783.3,1717.2 1079.7,1647.0 1376.2,1716.0 1672.6,1590.6 1969.1,1615.3 2265.5,1716.1 2562.0,1633.4 2858.4,1561.7" fill="none" stroke="#FAFCFF" stroke-opacity="0.024628930817610105" stroke-width="5.5"/><circle cx="1329.7" cy="1095.2" r="3.7714080301600448" fill="#3B82F6" fill-opacity="0.04"/><circle cx="-298.7" cy="605.1" r="3.764965989968815" fill="#3B82F6" fill-opacity="0.07"/><circle cx="1325.7" cy="761.7" r="10.52956593797221" fill="#FF6A1A" fill-opacity="0.07"/><circle cx="1592.0" cy="854.0" r="4.304890626242257" fill="#3B82F6" fill-opacity="0.08"/><circle cx="2162.1" cy="986.9" r="6.462746151946524" fill="#FF6A1A" fill-opacity="0.08"/><circle cx="119.4" cy="561.7" r="10.264689798137288" fill="#3B82F6" fill-opacity="0.06"/><circle cx="1229.6" cy="915.1" r="4.527247634623218" fill="#3B82F6" fill-opacity="0.08"/><circle cx="-214.0" cy="1099.9" r="8.324296127887246" fill="#3B82F6" fill-opacity="0.06"/><circle cx="20.9" cy="329.2" r="7.064241160006184" fill="#3B82F6" fill-opacity="0.08"/><circle cx="1987.9" cy="1018.6" r="8.224529874823155" fill="#3B82F6" fill-opacity="0.05"/><circle cx="219.3" cy="1186.5" r="7.030141694899266" fill="#FF6A1A" fill-opacity="0.08"/><circle cx="1659.0" cy="1212.2" r="9.952343776675095" fill="#FF6A1A" fill-opacity="0.07"/><circle cx="2677.1" cy="656.0" r="6.365344303797545" fill="#FF6A1A" fill-opacity="0.07"/><circle cx="1034.8" cy="685.6" r="10.297984093635067" fill="#3B82F6" fill-opacity="0.08"/><circle cx="2170.0" cy="869.9" r="7.034218218920671" fill="#3B82F6" fill-opacity="0.08"/><circle cx="1405.1" cy="931.8" r="4.316962496768339" fill="#3B82F6" fill-opacity="0.04"/><circle cx="2828.4" cy="1173.6" r="4.381095980996866" fill="#FF6A1A" fill-opacity="0.08"/><circle cx="1314.7" cy="911.1" r="3.930391479979808" fill="#3B82F6" fill-opacity="0.06"/><g opacity="1.00"><line x1="0" y1="842.4" x2="1920" y2="561.6" stroke="#FAFCFF" stroke-opacity="0.5" stroke-width="6"/><line x1="-10" y1="830" x2="-10" y2="858" stroke="#3B82F6" stroke-opacity="0.8" stroke-width="3"/><line x1="70" y1="818" x2="70" y2="846" stroke="#3B82F6" stroke-opacity="0.8" stroke-width="3"/><line x1="150" y1="806" x2="150" y2="834" stroke="#3B82F6" stroke-opacity="0.8" stroke-width="3"/><line x1="230" y1="795" x2="230" y2="823" stroke="#3B82F6" stroke-opacity="0.8" stroke-width="3"/><line x1="310" y1="783" x2="310" y2="811" stroke="#3B82F6" stroke-opacity="0.8" stroke-width="3"/><line x1="390" y1="771" x2="390" y2="799" stroke="#3B82F6" stroke-opacity="0.8" stroke-width="3"/><line x1="470" y1="760" x2="470" y2="788" stroke="#3B82F6" stroke-opacity="0.8" stroke-width="3"/><line x1="550" y1="748" x2="550" y2="776" stroke="#3B82F6" stroke-opacity="0.8" stroke-width="3"/><line x1="630" y1="736" x2="630" y2="764" stroke="#3B82F6" stroke-opacity="0.8" stroke-width="3"/><line x1="710" y1="725" x2="710" y2="753" stroke="#3B82F6" stroke-opacity="0.8" stroke-width="3"/><line x1="790" y1="713" x2="790" y2="741" stroke="#3B82F6" stroke-opacity="0.8" stroke-width="3"/><line x1="870" y1="701" x2="870" y2="729" stroke="#3B82F6" stroke-opacity="0.8" stroke-width="3"/><line x1="950" y1="689" x2="950" y2="717" stroke="#3B82F6" stroke-opacity="0.8" stroke-width="3"/><line x1="1030" y1="678" x2="1030" y2="706" stroke="#3B82F6" stroke-opacity="0.8" stroke-width="3"/><line x1="1110" y1="666" x2="1110" y2="694" stroke="#3B82F6" stroke-opacity="0.8" stroke-width="3"/><line x1="1190" y1="654" x2="1190" y2="682" stroke="#3B82F6" stroke-opacity="0.8" stroke-width="3"/><line x1="1270" y1="643" x2="1270" y2="671" stroke="#3B82F6" stroke-opacity="0.8" stroke-width="3"/><line x1="1350" y1="631" x2="1350" y2="659" stroke="#3B82F6" stroke-opacity="0.8" stroke-width="3"/><line x1="1430" y1="619" x2="1430" y2="647" stroke="#3B82F6" stroke-opacity="0.8" stroke-width="3"/><line x1="1510" y1="608" x2="1510" y2="636" stroke="#3B82F6" stroke-opacity="0.8" stroke-width="3"/><line x1="1590" y1="596" x2="1590" y2="624" stroke="#3B82F6" stroke-opacity="0.8" stroke-width="3"/><line x1="1670" y1="584" x2="1670" y2="612" stroke="#3B82F6" stroke-opacity="0.8" stroke-width="3"/><line x1="1750" y1="572" x2="1750" y2="600" stroke="#3B82F6" stroke-opacity="0.8" stroke-width="3"/><line x1="1830" y1="561" x2="1830" y2="589" stroke="#3B82F6" stroke-opacity="0.8" stroke-width="3"/><line x1="1910" y1="549" x2="1910" y2="577" stroke="#3B82F6" stroke-opacity="0.8" stroke-width="3"/><line x1="1990" y1="537" x2="1990" y2="565" stroke="#3B82F6" stroke-opacity="0.8" stroke-width="3"/><line x1="2070" y1="526" x2="2070" y2="554" stroke="#3B82F6" stroke-opacity="0.8" stroke-width="3"/></g><g opacity="0.23"><rect x="422.4" y="216" width="1075.2" height="540" fill="none" stroke="#FAFCFF" stroke-opacity="0.6" stroke-width="2"/><rect x="442.4" y="236" width="318.40000000000003" height="189" fill="#3B82F6" fill-opacity="0.14"/><rect x="800.8" y="236" width="318.40000000000003" height="189" fill="#3B82F6" fill-opacity="0.2"/><rect x="1159.2" y="236" width="318.40000000000003" height="189" fill="#3B82F6" fill-opacity="0.26"/></g></svg>