<svg xmlns="http://www.w3.org/2000/svg" width="1920" height="1080" viewBox="0 0 1920 1080"><rect width="1920" height="1080" fill="#0A1F44"/><polyline points="-216.6,470.6 -4.8,505.9 207.1,460.4 419.0,480.4 630.9,493.9 842.8,458.7 1054.7,506.9 1266.5,467.5 1478.4,467.4 1690.3,502.4 1902.2,497.4 2114.1,456.8 2326.0,515.9" fill="none" stroke="#FAFCFF" stroke-opacity="0.1" stroke-width="1.5"/><polyline points="-216.6,615.1 -4.8,547.4 207.1,609.3 419.0,579.6 630.9,569.0 842.8,628.9 1054.7,530.4 1266.5,540.0 1478.4,556.0 1690.3,555.9 1902.2,615.1 2114.1,632.0 2326.0,602.0" fill="none" stroke="#FAFCFF" stroke-opacity="0.13" stroke-width="2.5"/><polyline points="-216.6,734.2 -4.8,814.0 207.1,736.1 419.0,748.7 630.9,789.3 842.8,821.7 1054.7,705.4 1266.5,813.6 1478.4,722.4 1690.3,787.8 1902.2,717.6 2114.1,804.9 2326.0,712.8" fill="none" stroke="#FAFCFF" stroke-opacity="0.16" stroke-width="3.5"/><polyline points="-216.6,983.0 -4.8,996.1 207.1,1048.9 419.0,1103.7 630.9,1108.2 842.8,975.5 1054.7,1081.2 1266.5,1130.0 1478.4,1064.9 1690.3,1126.6 1902.2,1014.3 2114.1,1057.3 2326.0,1114.1" fill="none" stroke="#FAFCFF" stroke-opacity="0.19" stroke-width="4.5"/><polyline points="-216.6,1441.8 -4.8,1355.3 207.1,1475.4 419.0,1443.0 630.9,1522.0 842.8,1453.0 1054.7,1402.9 1266.5,1452.2 1478.4,1362.6 1690.3,1380.2 1902.2,1452.2 2114.1,1393.1 2326.0,1341.9" fill="none" stroke="#FAFCFF" stroke-opacity="0.22" stroke-width="5.5"/><circle cx="1233.3" cy="1008.5" r="2.6955786703574787" fill="#3B82F6" fill-opacity="0.68"/><circle cx="69.5" cy="658.2" r="2.6909742822896283" fill="#3B82F6" fill-opacity="0.74"/><circle cx="1230.5" cy="770.1" r="7.525908924077898" fill="#FF6A1A" fill-opacity="0.74"/><circle cx="1420.8" cy="836.0" r="3.0768803739933803" fill="#3B82F6" fill-opacity="0.60"/><circle cx="1828.3" cy="931.1" r="4.619187459910734" fill="#FF6A1A" fill-opacity="0.65"/><circle cx="368.3" cy="627.1" r="7.336591176670084" fill="#3B82F6" fill-opacity="0.55"/><circle cx="1161.8" cy="879.7" r="3.2358079692583197" fill="#3B82F6" fill-opacity="0.38"/><circle cx="130.0" cy="1011.8" r="5.949712921176548" fill="#3B82F6" fill-opacity="0.75"/><circle cx="297.9" cy="460.9" r="5.049100399875312" fill="#3B82F6" fill-opacity="0.41"/><circle cx="1703.8" cy="953.7" r="5.878405923463643" fill="#3B82F6" fill-opacity="0.61"/><circle cx="439.7" cy="1073.7" r="5.024728125627142" fill="#FF6A1A" fill-opacity="0.69"/><circle cx="1468.7" cy="1092.1" r="7.113344774665479" fill="#FF6A1A" fill-opacity="0.73"/><circle cx="2196.4" cy="694.5" r="4.54957039853097" fill="#FF6A1A" fill-opacity="0.75"/><circle cx="1022.5" cy="715.7" r="7.360387963459178" fill="#3B82F6" fill-opacity="0.64"/><circle cx="1833.9" cy="847.4" r="5.027641783102924" fill="#3B82F6" fill-opacity="0.51"/><circle cx="1287.2" cy="891.7" r="3.085508630719037" fill="#3B82F6" fill-opacity="0.71"/><circle cx="2304.5" cy="1064.5" r="3.1313474396624406" fill="#FF6A1A" fill-opacity="0.71"/><circle cx="1222.6" cy="876.9" r="2.809210606453191" fill="#3B82F6" fill-opacity="0.75"/><g opacity="1.00"><line x1="0" y1="842.4" x2="1920" y2="561.6" stroke="#FAFCFF" stroke-opacity="0.5" stroke-width="6"/><line x1="-60" y1="837" x2="-60" y2="865" stroke="#3B82F6" stroke-opacity="0.8" stroke-width="3"/><line x1="20" y1="825" x2="20" y2="853" stroke="#3B82F6" stroke-opacity="0.8" stroke-width="3"/><line x1="100" y1="814" x2="100" y2="842" stroke="#3B82F6" stroke-opacity="0.8" stroke-width="3"/><line x1="180" y1="802" x2="180" y2="830" stroke="#3B82F6" stroke-opacity="0.8" stroke-width="3"/><line x1="260" y1="790" x2="260" y2="818" stroke="#3B82F6" stroke-opacity="0.8" stroke-width="3"/><line x1="340" y1="779" x2="340" y2="807" stroke="#3B82F6" stroke-opacity="0.8" stroke-width="3"/><line x1="420" y1="767" x2="420" y2="795" stroke="#3B82F6" stroke-opacity="0.8" stroke-width="3"/><line x1="500" y1="755" x2="500" y2="783" stroke="#3B82F6" stroke-opacity="0.8" stroke-width="3"/><line x1="580" y1="744" x2="580" y2="772" stroke="#3B82F6" stroke-opacity="0.8" stroke-width="3"/><line x1="660" y1="732" x2="660" y2="760" stroke="#3B82F6" stroke-opacity="0.8" stroke-width="3"/><line x1="740" y1="720" x2="740" y2="748" stroke="#3B82F6" stroke-opacity="0.8" stroke-width="3"/><line x1="820" y1="708" x2="820" y2="736" stroke="#3B82F6" stroke-opacity="0.8" stroke-width="3"/><line x1="900" y1="697" x2="900" y2="725" stroke="#3B82F6" stroke-opacity="0.8" stroke-width="3"/><line x1="980" y1="685" x2="980" y2="713" stroke="#3B82F6" stroke-opacity="0.8" stroke-width="3"/><line x1="1060" y1="673" x2="1060" y2="701" stroke="#3B82F6" stroke-opacity="0.8" stroke-width="3"/><line x1="1140" y1="662" x2="1140" y2="690" stroke="#3B82F6" stroke-opacity="0.8" stroke-width="3"/><line x1="1220" y1="650" x2="1220" y2="678" stroke="#3B82F6" stroke-opacity="0.8" stroke-width="3"/><line x1="1300" y1="638" x2="1300" y2="666" stroke="#3B82F6" stroke-opacity="0.8" stroke-width="3"/><line x1="1380" y1="627" x2="1380" y2="655" stroke="#3B82F6" stroke-opacity="0.8" stroke-width="3"/><line x1="1460" y1="615" x2="1460" y2="643" stroke="#3B82F6" stroke-opacity="0.8" stroke-width="3"/><line x1="1540" y1="603" x2="1540" y2="631" stroke="#3B82F6" stroke-opacity="0.8" stroke-width="3"/><line x1="1620" y1="591" x2="1620" y2="619" stroke="#3B82F6" stroke-opacity="0.8" stroke-width="3"/><line x1="1700" y1="580" x2="1700" y2="608" stroke="#3B82F6" stroke-opacity="0.8" stroke-width="3"/><line x1="1780" y1="568" x2="1780" y2="596" stroke="#3B82F6" stroke-opacity="0.8" stroke-width="3"/><line x1="1860" y1="556" x2="1860" y2="584" stroke="#3B82F6" stroke-opacity="0.8" stroke-width="3"/><line x1="1940" y1="545" x2="1940" y2="573" stroke="#3B82F6" stroke-opacity="0.8" stroke-width="3"/><line x1="2020" y1="533" x2="2020" y2="561" stroke="#3B82F6" stroke-opacity="0.8" stroke-width="3"/></g></svg>