<svg xmlns="http://www.w3.org/2000/svg" width="1920" height="1080" viewBox="0 0 1920 1080"><rect width="1920" height="1080" fill="#0A1F44"/><polyline points="-1089.4,249.5 -731.4,309.1 -373.3,232.3 -15.3,266.0 342.8,288.9 700.8,229.4 1058.9,310.8 1416.9,244.3 1775.0,244.1 2133.0,303.3 2491.0,294.9 2849.1,226.2 3207.1,326.1" fill="none" stroke="#FAFCFF" stroke-opacity="0" stroke-width="1.5"/><polyline points="-1089.4,493.7 -731.4,379.3 -373.3,483.9 -15.3,433.7 342.8,415.9 700.8,517.0 1058.9,350.6 1416.9,366.8 1775.0,393.8 2133.0,393.7 2491.0,493.7 2849.1,522.2 3207.1,471.6" fill="none" stroke="#FAFCFF" stroke-opacity="0" stroke-width="2.5"/><polyline points="-1089.4,695.0 -731.4,829.8 -373.3,698.2 -15.3,719.5 342.8,788.0 700.8,842.8 1058.9,646.3 1416.9,829.0 1775.0,674.9 2133.0,785.5 2491.0,666.9 2849.1,814.4 3207.1,658.8" fill="none" stroke="#FAFCFF" stroke-opacity="0" stroke-width="3.5"/><polyline points="-1089.4,1115.4 -731.4,1137.5 -373.3,1226.7 -15.3,1319.3 342.8,1327.0 700.8,1102.7 1058.9,1281.3 1416.9,1363.8 1775.0,1253.8 2133.0,1358.0 2491.0,1168.3 2849.1,1241.0 3207.1,1336.9" fill="none" stroke="#FAFCFF" stroke-opacity="0" stroke-width="4.5"/><polyline points="-1089.4,1890.7 -731.4,1744.6 -373.3,1947.5 -15.3,1892.6 342.8,2026.3 700.8,1909.6 1058.9,1824.9 1416.9,1908.2 1775.0,1756.8 2133.0,1786.5 2491.0,1908.3 2849.1,1808.5 3207.1,1721.8" fill="none" stroke="#FAFCFF" stroke-opacity="0" stroke-width="5.5"/><g opacity="0.17"><line x1="0" y1="842.4" x2="1920" y2="561.6" stroke="#FAFCFF" stroke-opacity="0.5" stroke-width="6"/><line x1="-17" y1="831" x2="-17" y2="859" stroke="#3B82F6" stroke-opacity="0.8" stroke-width="3"/><line x1="63" y1="819" x2="63" y2="847" stroke="#3B82F6" stroke-opacity="0.8" stroke-width="3"/><line x1="143" y1="808" x2="143" y2="836" stroke="#3B82F6" stroke-opacity="0.8" stroke-width="3"/><line x1="223" y1="796" x2="223" y2="824" stroke="#3B82F6" stroke-opacity="0.8" stroke-width="3"/><line x1="303" y1="784" x2="303" y2="812" stroke="#3B82F6" stroke-opacity="0.8" stroke-width="3"/><line x1="383" y1="772" x2="383" y2="800" stroke="#3B82F6" stroke-opacity="0.8" stroke-width="3"/><line x1="463" y1="761" x2="463" y2="789" stroke="#3B82F6" stroke-opacity="0.8" stroke-width="3"/><line x1="543" y1="749" x2="543" y2="777" stroke="#3B82F6" stroke-opacity="0.8" stroke-width="3"/><line x1="623" y1="737" x2="623" y2="765" stroke="#3B82F6" stroke-opacity="0.8" stroke-width="3"/><line x1="703" y1="726" x2="703" y2="754" stroke="#3B82F6" stroke-opacity="0.8" stroke-width="3"/><line x1="783" y1="714" x2="783" y2="742" stroke="#3B82F6" stroke-opacity="0.8" stroke-width="3"/><line x1="863" y1="702" x2="863" y2="730" stroke="#3B82F6" stroke-opacity="0.8" stroke-width="3"/><line x1="943" y1="691" x2="943" y2="719" stroke="#3B82F6" stroke-opacity="0.8" stroke-width="3"/><line x1="1023" y1="679" x2="1023" y2="707" stroke="#3B82F6" stroke-opacity="0.8" stroke-width="3"/><line x1="1103" y1="667" x2="1103" y2="695" stroke="#3B82F6" stroke-opacity="0.8" stroke-width="3"/><line x1="1183" y1="655" x2="1183" y2="683" stroke="#3B82F6" stroke-opacity="0.8" stroke-width="3"/><line x1="1263" y1="644" x2="1263" y2="672" stroke="#3B82F6" stroke-opacity="0.8" stroke-width="3"/><line x1="1343" y1="632" x2="1343" y2="660" stroke="#3B82F6" stroke-opacity="0.8" stroke-width="3"/><line x1="1423" y1="620" x2="1423" y2="648" stroke="#3B82F6" stroke-opacity="0.8" stroke-width="3"/><line x1="1503" y1="609" x2="1503" y2="637" stroke="#3B82F6" stroke-opacity="0.8" stroke-width="3"/><line x1="1583" y1="597" x2="1583" y2="625" stroke="#3B82F6" stroke-opacity="0.8" stroke-width="3"/><line x1="1663" y1="585" x2="1663" y2="613" stroke="#3B82F6" stroke-opacity="0.8" stroke-width="3"/><line x1="1743" y1="574" x2="1743" y2="602" stroke="#3B82F6" stroke-opacity="0.8" stroke-width="3"/><line x1="1823" y1="562" x2="1823" y2="590" stroke="#3B82F6" stroke-opacity="0.8" stroke-width="3"/><line x1="1903" y1="550" x2="1903" y2="578" stroke="#3B82F6" stroke-opacity="0.8" stroke-width="3"/><line x1="1983" y1="538" x2="1983" y2="566" stroke="#3B82F6" stroke-opacity="0.8" stroke-width="3"/><line x1="2063" y1="527" x2="2063" y2="555" stroke="#3B82F6" stroke-opacity="0.8" stroke-width="3"/></g><g opacity="1.00"><rect x="422.4" y="216" width="1075.2" height="540" fill="none" stroke="#FAFCFF" stroke-opacity="0.6" stroke-width="2"/><rect x="442.4" y="236" width="318.40000000000003" height="189" fill="#3B82F6" fill-opacity="0.14"/><rect x="800.8" y="236" width="318.40000000000003" height="189" fill="#3B82F6" fill-opacity="0.2"/><rect x="1159.2" y="236" width="318.40000000000003" height="189" fill="#3B82F6" fill-opacity="0.26"/></g><g opacity="0.45"><rect x="460.79999999999995" y="324" width="517.9707771018149" height="10" fill="#3B82F6" fill-opacity="0.9"/><rect x="460.79999999999995" y="358" width="559.0618132464589" height="10" fill="#FAFCFF" fill-opacity="0.4"/><rect x="460.79999999999995" y="392" width="278.5010062019762" height="10" fill="#FAFCFF" fill-opacity="0.4"/></g></svg>