<svg xmlns="http://www.w3.org/2000/svg" width="1920" height="1080" viewBox="0 0 1920 1080"><rect width="1920" height="1080" fill="#0A1F44"/><polyline points="6.6,548.4 167.1,575.1 327.6,540.6 488.0,555.8 648.5,566.0 809.0,539.3 969.5,575.8 1130.0,546.0 1290.4,545.9 1450.9,572.5 1611.4,568.7 1771.9,537.9 1932.3,582.7" fill="none" stroke="#FAFCFF" stroke-opacity="0.1" stroke-width="1.5"/><polyline points="6.6,657.8 167.1,606.5 327.6,653.4 488.0,630.9 648.5,622.9 809.0,668.3 969.5,593.7 1130.0,600.9 1290.4,613.0 1450.9,613.0 1611.4,657.8 1771.9,670.6 1932.3,647.9" fill="none" stroke="#FAFCFF" stroke-opacity="0.13" stroke-width="2.5"/><polyline points="6.6,748.0 167.1,808.4 327.6,749.4 488.0,759.0 648.5,789.7 809.0,814.3 969.5,726.2 1130.0,808.1 1290.4,739.0 1450.9,788.6 1611.4,735.4 1771.9,801.5 1932.3,731.8" fill="none" stroke="#FAFCFF" stroke-opacity="0.16" stroke-width="3.5"/><polyline points="6.6,936.4 167.1,946.4 327.6,986.3 488.0,1027.9 648.5,1031.3 809.0,930.8 969.5,1010.8 1130.0,1047.8 1290.4,998.5 1450.9,1045.2 1611.4,960.2 1771.9,992.8 1932.3,1035.7" fill="none" stroke="#FAFCFF" stroke-opacity="0.19" stroke-width="4.5"/><polyline points="6.6,1283.9 167.1,1218.5 327.6,1309.4 488.0,1284.8 648.5,1344.7 809.0,1292.4 969.5,1254.5 1130.0,1291.8 1290.4,1223.9 1450.9,1237.2 1611.4,1291.8 1771.9,1247.1 1932.3,1208.3" fill="none" stroke="#FAFCFF" stroke-opacity="0.22" stroke-width="5.5"/><circle cx="1104.8" cy="955.7" r="2.0416023959248935" fill="#3B82F6" fill-opacity="0.74"/><circle cx="223.3" cy="690.4" r="2.038115081748363" fill="#3B82F6" fill-opacity="0.56"/><circle cx="1102.7" cy="775.2" r="5.700042762570284" fill="#FF6A1A" fill-opacity="0.56"/><circle cx="1246.8" cy="825.1" r="2.330396219779444" fill="#3B82F6" fill-opacity="0.39"/><circle cx="1555.4" cy="897.1" r="3.4985230774694216" fill="#FF6A1A" fill-opacity="0.38"/><circle cx="449.6" cy="666.9" r="5.556655529636125" fill="#3B82F6" fill-opacity="0.73"/><circle cx="1050.6" cy="858.2" r="2.450766277177343" fill="#3B82F6" fill-opacity="0.60"/><circle cx="269.1" cy="958.2" r="4.506248802350276" fill="#3B82F6" fill-opacity="0.65"/><circle cx="396.3" cy="541.0" r="3.8241345307439043" fill="#3B82F6" fill-opacity="0.58"/><circle cx="1461.1" cy="914.3" r="4.4522416464925065" fill="#3B82F6" fill-opacity="0.75"/><circle cx="503.7" cy="1005.2" r="3.8056752314304094" fill="#FF6A1A" fill-opacity="0.44"/><circle cx="1283.1" cy="1019.1" r="5.387571097329881" fill="#FF6A1A" fill-opacity="0.55"/><circle cx="1834.2" cy="717.9" r="3.445795861279019" fill="#FF6A1A" fill-opacity="0.60"/><circle cx="945.1" cy="734.0" r="5.574678960915719" fill="#3B82F6" fill-opacity="0.37"/><circle cx="1559.7" cy="833.7" r="3.807882004376373" fill="#3B82F6" fill-opacity="0.48"/><circle cx="1145.6" cy="867.3" r="2.336931168952869" fill="#3B82F6" fill-opacity="0.73"/><circle cx="1916.1" cy="998.1" r="2.371648991583802" fill="#FF6A1A" fill-opacity="0.50"/><circle cx="1096.7" cy="856.1" r="2.127666006509787" fill="#3B82F6" fill-opacity="0.63"/></svg>