<svg xmlns="http://www.w3.org/2000/svg" width="1920" height="1080" viewBox="0 0 1920 1080"><rect width="1920" height="1080" fill="#0A1F44"/><polyline points="-227.2,467.6 -13.3,503.2 200.6,457.3 414.5,477.4 628.3,491.1 842.2,455.6 1056.1,504.2 1270.0,464.4 1483.9,464.4 1697.7,499.7 1911.6,494.7 2125.5,453.7 2339.4,513.3" fill="none" stroke="#FAFCFF" stroke-opacity="0.1" stroke-width="1.5"/><polyline points="-227.2,613.5 -13.3,545.1 200.6,607.6 414.5,577.6 628.3,567.0 842.2,627.4 1056.1,528.0 1270.0,537.6 1483.9,553.8 1697.7,553.7 1911.6,613.5 2125.5,630.5 2339.4,600.3" fill="none" stroke="#FAFCFF" stroke-opacity="0.13" stroke-width="2.5"/><polyline points="-227.2,733.7 -13.3,814.2 200.6,735.6 414.5,748.3 628.3,789.2 842.2,822.0 1056.1,704.6 1270.0,813.8 1483.9,721.7 1697.7,787.8 1911.6,716.9 2125.5,805.0 2339.4,712.1" fill="none" stroke="#FAFCFF" stroke-opacity="0.16" stroke-width="3.5"/><polyline points="-227.2,984.8 -13.3,998.0 200.6,1051.3 414.5,1106.6 628.3,1111.2 842.2,977.3 1056.1,1083.9 1270.0,1133.2 1483.9,1067.5 1697.7,1129.8 1911.6,1016.4 2125.5,1059.9 2339.4,1117.1" fill="none" stroke="#FAFCFF" stroke-opacity="0.19" stroke-width="4.5"/><polyline points="-227.2,1448.0 -13.3,1360.7 200.6,1481.9 414.5,1449.1 628.3,1528.9 842.2,1459.3 1056.1,1408.7 1270.0,1458.4 1483.9,1367.9 1697.7,1385.7 1911.6,1458.5 2125.5,1398.8 2339.4,1347.1" fill="none" stroke="#FAFCFF" stroke-opacity="0.22" stroke-width="5.5"/><circle cx="1236.5" cy="1010.5" r="2.7210091364948985" fill="#3B82F6" fill-opacity="0.69"/><circle cx="61.6" cy="656.9" r="2.7163613099861186" fill="#3B82F6" fill-opacity="0.73"/><circle cx="1233.6" cy="769.9" r="7.596909401322989" fill="#FF6A1A" fill-opacity="0.73"/><circle cx="1425.7" cy="836.5" r="3.105908093725765" fill="#3B82F6" fill-opacity="0.58"/><circle cx="1837.0" cy="932.4" r="4.662765520374492" fill="#FF6A1A" fill-opacity="0.63"/><circle cx="363.2" cy="625.6" r="7.405805603811125" fill="#3B82F6" fill-opacity="0.57"/><circle cx="1164.2" cy="880.5" r="3.266335034149549" fill="#3B82F6" fill-opacity="0.36"/><circle cx="122.7" cy="1013.9" r="6.005843344908268" fill="#3B82F6" fill-opacity="0.75"/><circle cx="292.2" cy="457.8" r="5.096734319135562" fill="#3B82F6" fill-opacity="0.39"/><circle cx="1711.4" cy="955.3" r="5.933863627007063" fill="#3B82F6" fill-opacity="0.63"/><circle cx="435.3" cy="1076.4" r="5.072132113443812" fill="#FF6A1A" fill-opacity="0.67"/><circle cx="1474.1" cy="1094.9" r="7.180453064030275" fill="#FF6A1A" fill-opacity="0.73"/><circle cx="2208.6" cy="693.6" r="4.592491681902123" fill="#FF6A1A" fill-opacity="0.74"/><circle cx="1023.7" cy="715.0" r="7.429826892814631" fill="#3B82F6" fill-opacity="0.62"/><circle cx="1842.7" cy="847.9" r="5.075073258771679" fill="#3B82F6" fill-opacity="0.49"/><circle cx="1290.8" cy="892.6" r="3.114617750631983" fill="#3B82F6" fill-opacity="0.72"/><circle cx="2317.8" cy="1067.0" r="3.1608890093092548" fill="#FF6A1A" fill-opacity="0.70"/><circle cx="1225.6" cy="877.7" r="2.835713092166514" fill="#3B82F6" fill-opacity="0.75"/><g opacity="1.00"><line x1="0" y1="842.4" x2="1920" y2="561.6" stroke="#FAFCFF" stroke-opacity="0.5" stroke-width="6"/><line x1="-54" y1="836" x2="-54" y2="864" stroke="#3B82F6" stroke-opacity="0.8" stroke-width="3"/><line x1="26" y1="825" x2="26" y2="853" stroke="#3B82F6" stroke-opacity="0.8" stroke-width="3"/><line x1="106" y1="813" x2="106" y2="841" stroke="#3B82F6" stroke-opacity="0.8" stroke-width="3"/><line x1="186" y1="801" x2="186" y2="829" stroke="#3B82F6" stroke-opacity="0.8" stroke-width="3"/><line x1="266" y1="789" x2="266" y2="817" stroke="#3B82F6" stroke-opacity="0.8" stroke-width="3"/><line x1="346" y1="778" x2="346" y2="806" stroke="#3B82F6" stroke-opacity="0.8" stroke-width="3"/><line x1="426" y1="766" x2="426" y2="794" stroke="#3B82F6" stroke-opacity="0.8" stroke-width="3"/><line x1="506" y1="754" x2="506" y2="782" stroke="#3B82F6" stroke-opacity="0.8" stroke-width="3"/><line x1="586" y1="743" x2="586" y2="771" stroke="#3B82F6" stroke-opacity="0.8" stroke-width="3"/><line x1="666" y1="731" x2="666" y2="759" stroke="#3B82F6" stroke-opacity="0.8" stroke-width="3"/><line x1="746" y1="719" x2="746" y2="747" stroke="#3B82F6" stroke-opacity="0.8" stroke-width="3"/><line x1="826" y1="708" x2="826" y2="736" stroke="#3B82F6" stroke-opacity="0.8" stroke-width="3"/><line x1="906" y1="696" x2="906" y2="724" stroke="#3B82F6" stroke-opacity="0.8" stroke-width="3"/><line x1="986" y1="684" x2="986" y2="712" stroke="#3B82F6" stroke-opacity="0.8" stroke-width="3"/><line x1="1066" y1="672" x2="1066" y2="700" stroke="#3B82F6" stroke-opacity="0.8" stroke-width="3"/><line x1="1146" y1="661" x2="1146" y2="689" stroke="#3B82F6" stroke-opacity="0.8" stroke-width="3"/><line x1="1226" y1="649" x2="1226" y2="677" stroke="#3B82F6" stroke-opacity="0.8" stroke-width="3"/><line x1="1306" y1="637" x2="1306" y2="665" stroke="#3B82F6" stroke-opacity="0.8" stroke-width="3"/><line x1="1386" y1="626" x2="1386" y2="654" stroke="#3B82F6" stroke-opacity="0.8" stroke-width="3"/><line x1="1466" y1="614" x2="1466" y2="642" stroke="#3B82F6" stroke-opacity="0.8" stroke-width="3"/><line x1="1546" y1="602" x2="1546" y2="630" stroke="#3B82F6" stroke-opacity="0.8" stroke-width="3"/><line x1="1626" y1="591" x2="1626" y2="619" stroke="#3B82F6" stroke-opacity="0.8" stroke-width="3"/><line x1="1706" y1="579" x2="1706" y2="607" stroke="#3B82F6" stroke-opacity="0.8" stroke-width="3"/><line x1="1786" y1="567" x2="1786" y2="595" stroke="#3B82F6" stroke-opacity="0.8" stroke-width="3"/><line x1="1866" y1="555" x2="1866" y2="583" stroke="#3B82F6" stroke-opacity="0.8" stroke-width="3"/><line x1="1946" y1="544" x2="1946" y2="572" stroke="#3B82F6" stroke-opacity="0.8" stroke-width="3"/><line x1="2026" y1="532" x2="2026" y2="560" stroke="#3B82F6" stroke-opacity="0.8" stroke-width="3"/></g></svg>