<svg xmlns="http://www.w3.org/2000/svg" width="1920" height="1080" viewBox="0 0 1920 1080"><rect width="1920" height="1080" fill="#0A1F44"/><polyline points="-527.0,386.4 -259.4,430.9 8.1,373.5 275.7,398.7 543.2,415.9 810.8,371.4 1078.3,432.2 1345.9,382.5 1613.4,382.4 1881.0,426.6 2148.5,420.3 2416.1,369.0 2683.6,443.6" fill="none" stroke="#FAFCFF" stroke-opacity="0.041383647798742144" stroke-width="1.5"/><polyline points="-527.0,568.9 -259.4,483.4 8.1,561.6 275.7,524.0 543.2,510.7 810.8,586.3 1078.3,461.9 1345.9,474.0 1613.4,494.2 1881.0,494.2 2148.5,568.9 2416.1,590.2 2683.6,552.4" fill="none" stroke="#FAFCFF" stroke-opacity="0.05379874213836478" stroke-width="2.5"/><polyline points="-527.0,719.3 -259.4,820.0 8.1,721.6 275.7,737.6 543.2,788.8 810.8,829.7 1078.3,682.9 1345.9,819.5 1613.4,704.3 1881.0,786.9 2148.5,698.3 2416.1,808.5 2683.6,692.3" fill="none" stroke="#FAFCFF" stroke-opacity="0.06621383647798743" stroke-width="3.5"/><polyline points="-527.0,1033.4 -259.4,1050.0 8.1,1116.6 275.7,1185.8 543.2,1191.5 810.8,1024.0 1078.3,1157.4 1345.9,1219.1 1613.4,1136.8 1881.0,1214.7 2148.5,1073.0 2416.1,1127.3 2683.6,1199.0" fill="none" stroke="#FAFCFF" stroke-opacity="0.07862893081761006" stroke-width="4.5"/><polyline points="-527.0,1612.8 -259.4,1503.6 8.1,1655.2 275.7,1614.2 543.2,1714.1 810.8,1626.9 1078.3,1563.6 1345.9,1625.9 1613.4,1512.7 1881.0,1534.9 2148.5,1625.9 2416.1,1551.3 2683.6,1486.6" fill="none" stroke="#FAFCFF" stroke-opacity="0.09104402515723271" stroke-width="5.5"/><circle cx="1303.9" cy="1065.6" r="3.4037742509821176" fill="#3B82F6" fill-opacity="0.26"/><circle cx="-165.7" cy="623.2" r="3.3979601756152134" fill="#3B82F6" fill-opacity="0.16"/><circle cx="1300.3" cy="764.5" r="9.503152437252261" fill="#FF6A1A" fill-opacity="0.16"/><circle cx="1540.6" cy="847.9" r="3.885253398655956" fill="#3B82F6" fill-opacity="0.26"/><circle cx="2055.2" cy="967.8" r="5.832762927456524" fill="#FF6A1A" fill-opacity="0.23"/><circle cx="211.6" cy="584.1" r="9.264096207520634" fill="#3B82F6" fill-opacity="0.30"/><circle cx="1213.5" cy="903.0" r="4.0859352271931915" fill="#3B82F6" fill-opacity="0.31"/><circle cx="-89.3" cy="1069.8" r="7.512850529845842" fill="#3B82F6" fill-opacity="0.18"/><circle cx="122.7" cy="374.2" r="6.37562469265271" fill="#3B82F6" fill-opacity="0.30"/><circle cx="1898.0" cy="996.5" r="7.42280940977056" fill="#3B82F6" fill-opacity="0.29"/><circle cx="301.8" cy="1148.0" r="6.344849215596129" fill="#FF6A1A" fill-opacity="0.21"/><circle cx="1601.2" cy="1171.2" r="8.982197421510836" fill="#FF6A1A" fill-opacity="0.16"/><circle cx="2520.0" cy="669.1" r="5.744855732033413" fill="#FF6A1A" fill-opacity="0.15"/><circle cx="1037.8" cy="695.9" r="9.294145002244953" fill="#3B82F6" fill-opacity="0.24"/><circle cx="2062.3" cy="862.2" r="6.348528363380354" fill="#3B82F6" fill-opacity="0.28"/><circle cx="1371.9" cy="918.1" r="3.8961485130878257" fill="#3B82F6" fill-opacity="0.24"/><circle cx="2656.5" cy="1136.3" r="3.954030317574933" fill="#FF6A1A" fill-opacity="0.19"/><circle cx="1290.4" cy="899.4" r="3.5472601237652475" fill="#3B82F6" fill-opacity="0.17"/><g opacity="1.00"><line x1="0" y1="842.4" x2="1920" y2="561.6" stroke="#FAFCFF" stroke-opacity="0.5" stroke-width="6"/><line x1="-78" y1="840" x2="-78" y2="868" stroke="#3B82F6" stroke-opacity="0.8" stroke-width="3"/><line x1="2" y1="828" x2="2" y2="856" stroke="#3B82F6" stroke-opacity="0.8" stroke-width="3"/><line x1="82" y1="816" x2="82" y2="844" stroke="#3B82F6" stroke-opacity="0.8" stroke-width="3"/><line x1="162" y1="805" x2="162" y2="833" stroke="#3B82F6" stroke-opacity="0.8" stroke-width="3"/><line x1="242" y1="793" x2="242" y2="821" stroke="#3B82F6" stroke-opacity="0.8" stroke-width="3"/><line x1="322" y1="781" x2="322" y2="809" stroke="#3B82F6" stroke-opacity="0.8" stroke-width="3"/><line x1="402" y1="770" x2="402" y2="798" stroke="#3B82F6" stroke-opacity="0.8" stroke-width="3"/><line x1="482" y1="758" x2="482" y2="786" stroke="#3B82F6" stroke-opacity="0.8" stroke-width="3"/><line x1="562" y1="746" x2="562" y2="774" stroke="#3B82F6" stroke-opacity="0.8" stroke-width="3"/><line x1="642" y1="735" x2="642" y2="763" stroke="#3B82F6" stroke-opacity="0.8" stroke-width="3"/><line x1="722" y1="723" x2="722" y2="751" stroke="#3B82F6" stroke-opacity="0.8" stroke-width="3"/><line x1="802" y1="711" x2="802" y2="739" stroke="#3B82F6" stroke-opacity="0.8" stroke-width="3"/><line x1="882" y1="699" x2="882" y2="727" stroke="#3B82F6" stroke-opacity="0.8" stroke-width="3"/><line x1="962" y1="688" x2="962" y2="716" stroke="#3B82F6" stroke-opacity="0.8" stroke-width="3"/><line x1="1042" y1="676" x2="1042" y2="704" stroke="#3B82F6" stroke-opacity="0.8" stroke-width="3"/><line x1="1122" y1="664" x2="1122" y2="692" stroke="#3B82F6" stroke-opacity="0.8" stroke-width="3"/><line x1="1202" y1="653" x2="1202" y2="681" stroke="#3B82F6" stroke-opacity="0.8" stroke-width="3"/><line x1="1282" y1="641" x2="1282" y2="669" stroke="#3B82F6" stroke-opacity="0.8" stroke-width="3"/><line x1="1362" y1="629" x2="1362" y2="657" stroke="#3B82F6" stroke-opacity="0.8" stroke-width="3"/><line x1="1442" y1="618" x2="1442" y2="646" stroke="#3B82F6" stroke-opacity="0.8" stroke-width="3"/><line x1="1522" y1="606" x2="1522" y2="634" stroke="#3B82F6" stroke-opacity="0.8" stroke-width="3"/><line x1="1602" y1="594" x2="1602" y2="622" stroke="#3B82F6" stroke-opacity="0.8" stroke-width="3"/><line x1="1682" y1="582" x2="1682" y2="610" stroke="#3B82F6" stroke-opacity="0.8" stroke-width="3"/><line x1="1762" y1="571" x2="1762" y2="599" stroke="#3B82F6" stroke-opacity="0.8" stroke-width="3"/><line x1="1842" y1="559" x2="1842" y2="587" stroke="#3B82F6" stroke-opacity="0.8" stroke-width="3"/><line x1="1922" y1="547" x2="1922" y2="575" stroke="#3B82F6" stroke-opacity="0.8" stroke-width="3"/><line x1="2002" y1="536" x2="2002" y2="564" stroke="#3B82F6" stroke-opacity="0.8" stroke-width="3"/></g></svg>