<svg xmlns="http://www.w3.org/2000/svg" width="1920" height="1080" viewBox="0 0 1920 1080"><rect width="1920" height="1080" fill="#0A1F44"/><polyline points="-3.4,539.4 163.0,567.1 329.4,531.4 495.8,547.1 662.2,557.7 828.6,530.0 995.0,567.9 1161.5,536.9 1327.9,536.9 1494.3,564.4 1660.7,560.5 1827.1,528.6 1993.5,575.0" fill="none" stroke="#FAFCFF" stroke-opacity="0.1" stroke-width="1.5"/><polyline points="-3.4,652.9 163.0,599.7 329.4,648.3 495.8,625.0 662.2,616.7 828.6,663.7 995.0,586.4 1161.5,593.9 1327.9,606.4 1494.3,606.4 1660.7,652.9 1827.1,666.1 1993.5,642.6" fill="none" stroke="#FAFCFF" stroke-opacity="0.13" stroke-width="2.5"/><polyline points="-3.4,746.4 163.0,809.1 329.4,747.9 495.8,757.8 662.2,789.7 828.6,815.1 995.0,723.8 1161.5,808.7 1327.9,737.1 1494.3,788.5 1660.7,733.4 1827.1,801.9 1993.5,729.6" fill="none" stroke="#FAFCFF" stroke-opacity="0.16" stroke-width="3.5"/><polyline points="-3.4,941.8 163.0,952.1 329.4,993.5 495.8,1036.6 662.2,1040.1 828.6,935.9 995.0,1018.9 1161.5,1057.3 1327.9,1006.1 1494.3,1054.6 1660.7,966.4 1827.1,1000.2 1993.5,1044.8" fill="none" stroke="#FAFCFF" stroke-opacity="0.19" stroke-width="4.5"/><polyline points="-3.4,1302.1 163.0,1234.2 329.4,1328.5 495.8,1303.0 662.2,1365.2 828.6,1311.0 995.0,1271.6 1161.5,1310.3 1327.9,1239.9 1494.3,1253.7 1660.7,1310.3 1827.1,1263.9 1993.5,1223.7" fill="none" stroke="#FAFCFF" stroke-opacity="0.22" stroke-width="5.5"/><circle cx="1135.4" cy="961.8" r="2.117010651377018" fill="#3B82F6" fill-opacity="0.63"/><circle cx="221.3" cy="686.7" r="2.1133945303971693" fill="#3B82F6" fill-opacity="0.38"/><circle cx="1133.1" cy="774.6" r="5.910578507231384" fill="#FF6A1A" fill-opacity="0.38"/><circle cx="1282.6" cy="826.4" r="2.4164713114802367" fill="#3B82F6" fill-opacity="0.61"/><circle cx="1602.6" cy="901.0" r="3.6277438907176602" fill="#FF6A1A" fill-opacity="0.56"/><circle cx="456.0" cy="662.3" r="5.7618951494928785" fill="#3B82F6" fill-opacity="0.73"/><circle cx="1079.2" cy="860.7" r="2.5412873354655408" fill="#3B82F6" fill-opacity="0.74"/><circle cx="268.8" cy="964.4" r="4.672690790024629" fill="#3B82F6" fill-opacity="0.44"/><circle cx="400.7" cy="531.8" r="3.9653820695169903" fill="#3B82F6" fill-opacity="0.73"/><circle cx="1504.9" cy="918.8" r="4.616688835662853" fill="#3B82F6" fill-opacity="0.70"/><circle cx="512.1" cy="1013.1" r="3.9462409608752553" fill="#FF6A1A" fill-opacity="0.50"/><circle cx="1320.2" cy="1027.5" r="5.586565445291492" fill="#FF6A1A" fill-opacity="0.39"/><circle cx="1891.7" cy="715.2" r="3.5730691516424384" fill="#FF6A1A" fill-opacity="0.37"/><circle cx="969.8" cy="731.9" r="5.780584290958142" fill="#3B82F6" fill-opacity="0.57"/><circle cx="1607.1" cy="835.3" r="3.948529242786121" fill="#3B82F6" fill-opacity="0.68"/><circle cx="1177.7" cy="870.1" r="2.423247634349941" fill="#3B82F6" fill-opacity="0.59"/><circle cx="1976.6" cy="1005.8" r="2.459247788174705" fill="#FF6A1A" fill-opacity="0.45"/><circle cx="1127.0" cy="858.5" r="2.2062530918580125" fill="#3B82F6" fill-opacity="0.41"/></svg>