<svg xmlns="http://www.w3.org/2000/svg" width="1920" height="1080" viewBox="0 0 1920 1080"><rect width="1920" height="1080" fill="#0A1F44"/><polyline points="-1423.0,178.7 -1018.1,246.1 -613.3,159.2 -208.4,197.3 196.5,223.3 601.3,155.9 1006.2,248.0 1411.1,172.7 1815.9,172.6 2220.8,239.5 2625.7,230.0 3030.5,152.3 3435.4,265.3" fill="none" stroke="#FAFCFF" stroke-opacity="0" stroke-width="1.5"/><polyline points="-1423.0,454.9 -1018.1,325.4 -613.3,443.8 -208.4,386.9 196.5,366.8 601.3,481.2 1006.2,293.0 1411.1,311.3 1815.9,341.8 2220.8,341.8 2625.7,454.8 3030.5,487.0 3435.4,429.9" fill="none" stroke="#FAFCFF" stroke-opacity="0" stroke-width="2.5"/><polyline points="-1423.0,682.4 -1018.1,834.8 -613.3,686.0 -208.4,710.1 196.5,787.6 601.3,849.6 1006.2,627.4 1411.1,834.0 1815.9,659.7 2220.8,784.8 2625.7,650.6 3030.5,817.5 3435.4,641.6" fill="none" stroke="#FAFCFF" stroke-opacity="0" stroke-width="3.5"/><polyline points="-1423.0,1157.8 -1018.1,1182.8 -613.3,1283.6 -208.4,1388.4 196.5,1397.0 601.3,1143.5 1006.2,1345.4 1411.1,1438.7 1815.9,1314.3 2220.8,1432.2 2625.7,1217.6 3030.5,1299.8 3435.4,1408.3" fill="none" stroke="#FAFCFF" stroke-opacity="0" stroke-width="4.5"/><polyline points="-1423.0,2034.5 -1018.1,1869.3 -613.3,2098.7 -208.4,2036.7 196.5,2187.8 601.3,2055.9 1006.2,1960.1 1411.1,2054.3 1815.9,1883.0 2220.8,1916.7 2625.7,2054.4 3030.5,1941.5 3435.4,1843.6" fill="none" stroke="#FAFCFF" stroke-opacity="0" stroke-width="5.5"/><g opacity="1.00"><rect x="422.4" y="216" width="1075.2" height="540" fill="none" stroke="#FAFCFF" stroke-opacity="0.6" stroke-width="2"/><rect x="442.4" y="236" width="318.40000000000003" height="189" fill="#3B82F6" fill-opacity="0.14"/><rect x="800.8" y="236" width="318.40000000000003" height="189" fill="#3B82F6" fill-opacity="0.2"/><rect x="1159.2" y="236" width="318.40000000000003" height="189" fill="#3B82F6" fill-opacity="0.26"/></g><g opacity="1.00"><rect x="460.79999999999995" y="324" width="517.9707771018149" height="10" fill="#3B82F6" fill-opacity="0.9"/><rect x="460.79999999999995" y="358" width="559.0618132464589" height="10" fill="#FAFCFF" fill-opacity="0.4"/><rect x="460.79999999999995" y="392" width="352.0004768371582" height="10" fill="#FAFCFF" fill-opacity="0.4"/><rect x="460.79999999999995" y="426" width="493.0137858130038" height="10" fill="#3B82F6" fill-opacity="0.9"/><rect x="460.79999999999995" y="460" width="575.1368051692843" height="10" fill="#FAFCFF" fill-opacity="0.4"/><rect x="460.79999999999995" y="494" width="457.9308180771768" height="10" fill="#FAFCFF" fill-opacity="0.4"/><rect x="460.79999999999995" y="528" width="514.2663277834654" height="10" fill="#3B82F6" fill-opacity="0.9"/><rect x="460.79999999999995" y="562" width="778.5601877756417" height="10" fill="#FAFCFF" fill-opacity="0.4"/><rect x="460.79999999999995" y="596" width="771.863665021956" height="10" fill="#FAFCFF" fill-opacity="0.4"/></g><rect width="1920" height="1080" fill="#0A1F44" fill-opacity="0.07"/><circle cx="960" cy="540" r="7" fill="#3B82F6" fill-opacity="0.10"/><rect x="800" y="580" width="320" height="2" fill="#FAFCFF" fill-opacity="0.04"/></svg>