<svg xmlns="http://www.w3.org/2000/svg" width="1920" height="1080" viewBox="0 0 1920 1080"><rect width="1920" height="1080" fill="#0A1F44"/><polyline points="-846.0,306.7 -525.7,359.9 -205.4,291.2 114.9,321.4 435.2,341.9 755.5,288.6 1075.8,361.4 1396.0,301.9 1716.3,301.8 2036.6,354.8 2356.9,347.2 2677.2,285.8 2997.5,375.1" fill="none" stroke="#FAFCFF" stroke-opacity="0" stroke-width="1.5"/><polyline points="-846.0,525.1 -525.7,422.7 -205.4,516.3 114.9,471.4 435.2,455.4 755.5,545.9 1075.8,397.0 1396.0,411.5 1716.3,435.7 2036.6,435.6 2356.9,525.1 2677.2,550.6 2997.5,505.3" fill="none" stroke="#FAFCFF" stroke-opacity="0" stroke-width="2.5"/><polyline points="-846.0,705.1 -525.7,825.7 -205.4,708.0 114.9,727.0 435.2,788.3 755.5,837.4 1075.8,661.6 1396.0,825.0 1716.3,687.2 2036.6,786.1 2356.9,680.0 2677.2,812.0 2997.5,672.8" fill="none" stroke="#FAFCFF" stroke-opacity="0" stroke-width="3.5"/><polyline points="-846.0,1081.2 -525.7,1101.0 -205.4,1180.7 114.9,1263.6 435.2,1270.5 755.5,1069.9 1075.8,1229.6 1396.0,1303.4 1716.3,1205.0 2036.6,1298.2 2356.9,1128.5 2677.2,1193.6 2997.5,1279.4" fill="none" stroke="#FAFCFF" stroke-opacity="0" stroke-width="4.5"/><polyline points="-846.0,1774.7 -525.7,1644.0 -205.4,1825.5 114.9,1776.5 435.2,1896.0 755.5,1791.7 1075.8,1715.9 1396.0,1790.4 1716.3,1654.9 2036.6,1681.5 2356.9,1790.5 2677.2,1701.2 2997.5,1623.7" fill="none" stroke="#FAFCFF" stroke-opacity="0" stroke-width="5.5"/><g opacity="0.79"><line x1="0" y1="842.4" x2="1920" y2="561.6" stroke="#FAFCFF" stroke-opacity="0.5" stroke-width="6"/><line x1="-34" y1="833" x2="-34" y2="861" stroke="#3B82F6" stroke-opacity="0.8" stroke-width="3"/><line x1="46" y1="822" x2="46" y2="850" stroke="#3B82F6" stroke-opacity="0.8" stroke-width="3"/><line x1="126" y1="810" x2="126" y2="838" stroke="#3B82F6" stroke-opacity="0.8" stroke-width="3"/><line x1="206" y1="798" x2="206" y2="826" stroke="#3B82F6" stroke-opacity="0.8" stroke-width="3"/><line x1="286" y1="787" x2="286" y2="815" stroke="#3B82F6" stroke-opacity="0.8" stroke-width="3"/><line x1="366" y1="775" x2="366" y2="803" stroke="#3B82F6" stroke-opacity="0.8" stroke-width="3"/><line x1="446" y1="763" x2="446" y2="791" stroke="#3B82F6" stroke-opacity="0.8" stroke-width="3"/><line x1="526" y1="751" x2="526" y2="779" stroke="#3B82F6" stroke-opacity="0.8" stroke-width="3"/><line x1="606" y1="740" x2="606" y2="768" stroke="#3B82F6" stroke-opacity="0.8" stroke-width="3"/><line x1="686" y1="728" x2="686" y2="756" stroke="#3B82F6" stroke-opacity="0.8" stroke-width="3"/><line x1="766" y1="716" x2="766" y2="744" stroke="#3B82F6" stroke-opacity="0.8" stroke-width="3"/><line x1="846" y1="705" x2="846" y2="733" stroke="#3B82F6" stroke-opacity="0.8" stroke-width="3"/><line x1="926" y1="693" x2="926" y2="721" stroke="#3B82F6" stroke-opacity="0.8" stroke-width="3"/><line x1="1006" y1="681" x2="1006" y2="709" stroke="#3B82F6" stroke-opacity="0.8" stroke-width="3"/><line x1="1086" y1="670" x2="1086" y2="698" stroke="#3B82F6" stroke-opacity="0.8" stroke-width="3"/><line x1="1166" y1="658" x2="1166" y2="686" stroke="#3B82F6" stroke-opacity="0.8" stroke-width="3"/><line x1="1246" y1="646" x2="1246" y2="674" stroke="#3B82F6" stroke-opacity="0.8" stroke-width="3"/><line x1="1326" y1="634" x2="1326" y2="662" stroke="#3B82F6" stroke-opacity="0.8" stroke-width="3"/><line x1="1406" y1="623" x2="1406" y2="651" stroke="#3B82F6" stroke-opacity="0.8" stroke-width="3"/><line x1="1486" y1="611" x2="1486" y2="639" stroke="#3B82F6" stroke-opacity="0.8" stroke-width="3"/><line x1="1566" y1="599" x2="1566" y2="627" stroke="#3B82F6" stroke-opacity="0.8" stroke-width="3"/><line x1="1646" y1="588" x2="1646" y2="616" stroke="#3B82F6" stroke-opacity="0.8" stroke-width="3"/><line x1="1726" y1="576" x2="1726" y2="604" stroke="#3B82F6" stroke-opacity="0.8" stroke-width="3"/><line x1="1806" y1="564" x2="1806" y2="592" stroke="#3B82F6" stroke-opacity="0.8" stroke-width="3"/><line x1="1886" y1="553" x2="1886" y2="581" stroke="#3B82F6" stroke-opacity="0.8" stroke-width="3"/><line x1="1966" y1="541" x2="1966" y2="569" stroke="#3B82F6" stroke-opacity="0.8" stroke-width="3"/><line x1="2046" y1="529" x2="2046" y2="557" stroke="#3B82F6" stroke-opacity="0.8" stroke-width="3"/></g><g opacity="0.58"><rect x="422.4" y="216" width="1075.2" height="540" fill="none" stroke="#FAFCFF" stroke-opacity="0.6" stroke-width="2"/><rect x="442.4" y="236" width="318.40000000000003" height="189" fill="#3B82F6" fill-opacity="0.14"/><rect x="800.8" y="236" width="318.40000000000003" height="189" fill="#3B82F6" fill-opacity="0.2"/><rect x="1159.2" y="236" width="318.40000000000003" height="189" fill="#3B82F6" fill-opacity="0.26"/></g></svg>