<svg xmlns="http://www.w3.org/2000/svg" width="1920" height="1080" viewBox="0 0 1920 1080"><rect width="1920" height="1080" fill="#0A1F44"/><polyline points="-499.3,393.6 -236.5,437.3 26.3,381.0 289.1,405.7 551.8,422.5 814.6,378.8 1077.4,438.6 1340.2,389.7 1603.0,389.6 1865.8,433.1 2128.6,426.9 2391.4,376.5 2654.2,449.8" fill="none" stroke="#FAFCFF" stroke-opacity="0.046415094339622646" stroke-width="1.5"/><polyline points="-499.3,572.9 -236.5,488.8 26.3,565.6 289.1,528.8 551.8,515.7 814.6,589.9 1077.4,467.8 1340.2,479.6 1603.0,499.5 1865.8,499.4 2128.6,572.8 2391.4,593.7 2654.2,556.6" fill="none" stroke="#FAFCFF" stroke-opacity="0.06033962264150944" stroke-width="2.5"/><polyline points="-499.3,720.5 -236.5,819.5 26.3,722.9 289.1,738.5 551.8,788.8 814.6,829.1 1077.4,684.8 1340.2,818.9 1603.0,705.8 1865.8,787.0 2128.6,699.9 2391.4,808.2 2654.2,694.0" fill="none" stroke="#FAFCFF" stroke-opacity="0.07426415094339622" stroke-width="3.5"/><polyline points="-499.3,1029.1 -236.5,1045.4 26.3,1110.8 289.1,1178.8 551.8,1184.4 814.6,1019.8 1077.4,1150.9 1340.2,1211.5 1603.0,1130.7 1865.8,1207.2 2128.6,1067.9 2391.4,1121.3 2654.2,1191.7" fill="none" stroke="#FAFCFF" stroke-opacity="0.08818867924528302" stroke-width="4.5"/><polyline points="-499.3,1598.2 -236.5,1490.9 26.3,1639.8 289.1,1599.6 551.8,1697.7 814.6,1612.1 1077.4,1549.9 1340.2,1611.0 1603.0,1499.8 1865.8,1521.7 2128.6,1611.1 2391.4,1537.8 2654.2,1474.2" fill="none" stroke="#FAFCFF" stroke-opacity="0.10211320754716981" stroke-width="5.5"/><circle cx="1299.0" cy="1060.7" r="3.3432052279289755" fill="#3B82F6" fill-opacity="0.30"/><circle cx="-144.4" cy="626.2" r="3.3374946120864006" fill="#3B82F6" fill-opacity="0.17"/><circle cx="1295.5" cy="765.0" r="9.334047021732014" fill="#FF6A1A" fill-opacity="0.17"/><circle cx="1531.5" cy="846.8" r="3.8161166153917336" fill="#3B82F6" fill-opacity="0.27"/><circle cx="2036.9" cy="964.7" r="5.728970864244725" fill="#FF6A1A" fill-opacity="0.25"/><circle cx="226.1" cy="587.8" r="9.099244717561232" fill="#3B82F6" fill-opacity="0.34"/><circle cx="1210.3" cy="901.0" r="4.013227377987827" fill="#3B82F6" fill-opacity="0.34"/><circle cx="-69.4" cy="1064.8" r="7.379161870321567" fill="#3B82F6" fill-opacity="0.22"/><circle cx="138.8" cy="381.6" r="6.262172586104797" fill="#3B82F6" fill-opacity="0.33"/><circle cx="1882.5" cy="992.8" r="7.290723001828039" fill="#3B82F6" fill-opacity="0.33"/><circle cx="314.7" cy="1141.6" r="6.231944748357368" fill="#FF6A1A" fill-opacity="0.22"/><circle cx="1591.0" cy="1164.4" r="8.82236222605556" fill="#FF6A1A" fill-opacity="0.16"/><circle cx="2493.5" cy="671.3" r="5.642627947928722" fill="#FF6A1A" fill-opacity="0.19"/><circle cx="1037.6" cy="697.6" r="9.128758804045178" fill="#3B82F6" fill-opacity="0.25"/><circle cx="2043.9" cy="860.9" r="6.235558426938723" fill="#3B82F6" fill-opacity="0.31"/><circle cx="1365.8" cy="915.8" r="3.826817854910483" fill="#3B82F6" fill-opacity="0.29"/><circle cx="2627.6" cy="1130.1" r="3.883669672068282" fill="#FF6A1A" fill-opacity="0.19"/><circle cx="1285.7" cy="897.5" r="3.484137817651722" fill="#3B82F6" fill-opacity="0.21"/><g opacity="1.00"><line x1="0" y1="842.4" x2="1920" y2="561.6" stroke="#FAFCFF" stroke-opacity="0.5" stroke-width="6"/><line x1="-9" y1="830" x2="-9" y2="858" stroke="#3B82F6" stroke-opacity="0.8" stroke-width="3"/><line x1="71" y1="818" x2="71" y2="846" stroke="#3B82F6" stroke-opacity="0.8" stroke-width="3"/><line x1="151" y1="806" x2="151" y2="834" stroke="#3B82F6" stroke-opacity="0.8" stroke-width="3"/><line x1="231" y1="795" x2="231" y2="823" stroke="#3B82F6" stroke-opacity="0.8" stroke-width="3"/><line x1="311" y1="783" x2="311" y2="811" stroke="#3B82F6" stroke-opacity="0.8" stroke-width="3"/><line x1="391" y1="771" x2="391" y2="799" stroke="#3B82F6" stroke-opacity="0.8" stroke-width="3"/><line x1="471" y1="760" x2="471" y2="788" stroke="#3B82F6" stroke-opacity="0.8" stroke-width="3"/><line x1="551" y1="748" x2="551" y2="776" stroke="#3B82F6" stroke-opacity="0.8" stroke-width="3"/><line x1="631" y1="736" x2="631" y2="764" stroke="#3B82F6" stroke-opacity="0.8" stroke-width="3"/><line x1="711" y1="724" x2="711" y2="752" stroke="#3B82F6" stroke-opacity="0.8" stroke-width="3"/><line x1="791" y1="713" x2="791" y2="741" stroke="#3B82F6" stroke-opacity="0.8" stroke-width="3"/><line x1="871" y1="701" x2="871" y2="729" stroke="#3B82F6" stroke-opacity="0.8" stroke-width="3"/><line x1="951" y1="689" x2="951" y2="717" stroke="#3B82F6" stroke-opacity="0.8" stroke-width="3"/><line x1="1031" y1="678" x2="1031" y2="706" stroke="#3B82F6" stroke-opacity="0.8" stroke-width="3"/><line x1="1111" y1="666" x2="1111" y2="694" stroke="#3B82F6" stroke-opacity="0.8" stroke-width="3"/><line x1="1191" y1="654" x2="1191" y2="682" stroke="#3B82F6" stroke-opacity="0.8" stroke-width="3"/><line x1="1271" y1="643" x2="1271" y2="671" stroke="#3B82F6" stroke-opacity="0.8" stroke-width="3"/><line x1="1351" y1="631" x2="1351" y2="659" stroke="#3B82F6" stroke-opacity="0.8" stroke-width="3"/><line x1="1431" y1="619" x2="1431" y2="647" stroke="#3B82F6" stroke-opacity="0.8" stroke-width="3"/><line x1="1511" y1="607" x2="1511" y2="635" stroke="#3B82F6" stroke-opacity="0.8" stroke-width="3"/><line x1="1591" y1="596" x2="1591" y2="624" stroke="#3B82F6" stroke-opacity="0.8" stroke-width="3"/><line x1="1671" y1="584" x2="1671" y2="612" stroke="#3B82F6" stroke-opacity="0.8" stroke-width="3"/><line x1="1751" y1="572" x2="1751" y2="600" stroke="#3B82F6" stroke-opacity="0.8" stroke-width="3"/><line x1="1831" y1="561" x2="1831" y2="589" stroke="#3B82F6" stroke-opacity="0.8" stroke-width="3"/><line x1="1911" y1="549" x2="1911" y2="577" stroke="#3B82F6" stroke-opacity="0.8" stroke-width="3"/><line x1="1991" y1="537" x2="1991" y2="565" stroke="#3B82F6" stroke-opacity="0.8" stroke-width="3"/><line x1="2071" y1="526" x2="2071" y2="554" stroke="#3B82F6" stroke-opacity="0.8" stroke-width="3"/></g></svg>