<svg xmlns="http://www.w3.org/2000/svg" width="1920" height="1080" viewBox="0 0 1920 1080"><rect width="1920" height="1080" fill="#0A1F44"/><polyline points="-875.3,299.6 -550.4,353.7 -225.4,284.0 99.5,314.5 424.5,335.4 749.5,281.3 1074.4,355.2 1399.4,294.8 1724.3,294.7 2049.3,348.4 2374.3,340.7 2699.2,278.4 3024.2,369.0" fill="none" stroke="#FAFCFF" stroke-opacity="0" stroke-width="1.5"/><polyline points="-875.3,521.2 -550.4,417.3 -225.4,512.3 99.5,466.7 424.5,450.5 749.5,542.3 1074.4,391.3 1399.4,406.0 1724.3,430.5 2049.3,430.4 2374.3,521.2 2699.2,547.1 3024.2,501.2" fill="none" stroke="#FAFCFF" stroke-opacity="0" stroke-width="2.5"/><polyline points="-875.3,703.8 -550.4,826.2 -225.4,706.7 99.5,726.1 424.5,788.3 749.5,838.0 1074.4,659.7 1399.4,825.5 1724.3,685.7 2049.3,786.0 2374.3,678.3 2699.2,812.3 3024.2,671.1" fill="none" stroke="#FAFCFF" stroke-opacity="0" stroke-width="3.5"/><polyline points="-875.3,1085.4 -550.4,1105.5 -225.4,1186.4 99.5,1270.5 424.5,1277.4 749.5,1073.9 1074.4,1236.0 1399.4,1310.9 1724.3,1211.0 2049.3,1305.6 2374.3,1133.4 2699.2,1199.4 3024.2,1286.5" fill="none" stroke="#FAFCFF" stroke-opacity="0" stroke-width="4.5"/><polyline points="-875.3,1789.1 -550.4,1656.5 -225.4,1840.6 99.5,1790.8 424.5,1912.1 749.5,1806.3 1074.4,1729.4 1399.4,1805.0 1724.3,1667.5 2049.3,1694.5 2374.3,1805.1 2699.2,1714.4 3024.2,1635.8" fill="none" stroke="#FAFCFF" stroke-opacity="0" stroke-width="5.5"/><g opacity="0.72"><line x1="0" y1="842.4" x2="1920" y2="561.6" stroke="#FAFCFF" stroke-opacity="0.5" stroke-width="6"/><line x1="-22" y1="832" x2="-22" y2="860" stroke="#3B82F6" stroke-opacity="0.8" stroke-width="3"/><line x1="58" y1="820" x2="58" y2="848" stroke="#3B82F6" stroke-opacity="0.8" stroke-width="3"/><line x1="138" y1="808" x2="138" y2="836" stroke="#3B82F6" stroke-opacity="0.8" stroke-width="3"/><line x1="218" y1="797" x2="218" y2="825" stroke="#3B82F6" stroke-opacity="0.8" stroke-width="3"/><line x1="298" y1="785" x2="298" y2="813" stroke="#3B82F6" stroke-opacity="0.8" stroke-width="3"/><line x1="378" y1="773" x2="378" y2="801" stroke="#3B82F6" stroke-opacity="0.8" stroke-width="3"/><line x1="458" y1="761" x2="458" y2="789" stroke="#3B82F6" stroke-opacity="0.8" stroke-width="3"/><line x1="538" y1="750" x2="538" y2="778" stroke="#3B82F6" stroke-opacity="0.8" stroke-width="3"/><line x1="618" y1="738" x2="618" y2="766" stroke="#3B82F6" stroke-opacity="0.8" stroke-width="3"/><line x1="698" y1="726" x2="698" y2="754" stroke="#3B82F6" stroke-opacity="0.8" stroke-width="3"/><line x1="778" y1="715" x2="778" y2="743" stroke="#3B82F6" stroke-opacity="0.8" stroke-width="3"/><line x1="858" y1="703" x2="858" y2="731" stroke="#3B82F6" stroke-opacity="0.8" stroke-width="3"/><line x1="938" y1="691" x2="938" y2="719" stroke="#3B82F6" stroke-opacity="0.8" stroke-width="3"/><line x1="1018" y1="680" x2="1018" y2="708" stroke="#3B82F6" stroke-opacity="0.8" stroke-width="3"/><line x1="1098" y1="668" x2="1098" y2="696" stroke="#3B82F6" stroke-opacity="0.8" stroke-width="3"/><line x1="1178" y1="656" x2="1178" y2="684" stroke="#3B82F6" stroke-opacity="0.8" stroke-width="3"/><line x1="1258" y1="644" x2="1258" y2="672" stroke="#3B82F6" stroke-opacity="0.8" stroke-width="3"/><line x1="1338" y1="633" x2="1338" y2="661" stroke="#3B82F6" stroke-opacity="0.8" stroke-width="3"/><line x1="1418" y1="621" x2="1418" y2="649" stroke="#3B82F6" stroke-opacity="0.8" stroke-width="3"/><line x1="1498" y1="609" x2="1498" y2="637" stroke="#3B82F6" stroke-opacity="0.8" stroke-width="3"/><line x1="1578" y1="598" x2="1578" y2="626" stroke="#3B82F6" stroke-opacity="0.8" stroke-width="3"/><line x1="1658" y1="586" x2="1658" y2="614" stroke="#3B82F6" stroke-opacity="0.8" stroke-width="3"/><line x1="1738" y1="574" x2="1738" y2="602" stroke="#3B82F6" stroke-opacity="0.8" stroke-width="3"/><line x1="1818" y1="563" x2="1818" y2="591" stroke="#3B82F6" stroke-opacity="0.8" stroke-width="3"/><line x1="1898" y1="551" x2="1898" y2="579" stroke="#3B82F6" stroke-opacity="0.8" stroke-width="3"/><line x1="1978" y1="539" x2="1978" y2="567" stroke="#3B82F6" stroke-opacity="0.8" stroke-width="3"/><line x1="2058" y1="527" x2="2058" y2="555" stroke="#3B82F6" stroke-opacity="0.8" stroke-width="3"/></g><g opacity="0.65"><rect x="422.4" y="216" width="1075.2" height="540" fill="none" stroke="#FAFCFF" stroke-opacity="0.6" stroke-width="2"/><rect x="442.4" y="236" width="318.40000000000003" height="189" fill="#3B82F6" fill-opacity="0.14"/><rect x="800.8" y="236" width="318.40000000000003" height="189" fill="#3B82F6" fill-opacity="0.2"/><rect x="1159.2" y="236" width="318.40000000000003" height="189" fill="#3B82F6" fill-opacity="0.26"/></g></svg>