<svg xmlns="http://www.w3.org/2000/svg" width="1920" height="1080" viewBox="0 0 1920 1080"><rect width="1920" height="1080" fill="#0A1F44"/><polyline points="-684.4,346.4 -390.3,395.3 -96.3,332.2 197.7,359.9 491.8,378.7 785.8,329.8 1079.9,396.7 1373.9,342.0 1667.9,341.9 1962.0,390.5 2256.0,383.6 2550.0,327.2 2844.1,409.2" fill="none" stroke="#FAFCFF" stroke-opacity="0.01371069182389939" stroke-width="1.5"/><polyline points="-684.4,546.9 -390.3,452.9 -96.3,538.8 197.7,497.6 491.8,483.0 785.8,566.0 1079.9,429.3 1373.9,442.6 1667.9,464.8 1962.0,464.8 2256.0,546.9 2550.0,570.3 2844.1,528.7" fill="none" stroke="#FAFCFF" stroke-opacity="0.017823899371069207" stroke-width="2.5"/><polyline points="-684.4,712.2 -390.3,822.8 -96.3,714.8 197.7,732.3 491.8,788.5 785.8,833.6 1079.9,672.2 1373.9,822.3 1667.9,695.7 1962.0,786.5 2256.0,689.1 2550.0,810.2 2844.1,682.5" fill="none" stroke="#FAFCFF" stroke-opacity="0.021937106918239024" stroke-width="3.5"/><polyline points="-684.4,1057.4 -390.3,1075.6 -96.3,1148.8 197.7,1224.9 491.8,1231.2 785.8,1047.0 1079.9,1193.7 1373.9,1261.4 1667.9,1171.1 1962.0,1256.7 2256.0,1100.9 2550.0,1160.6 2844.1,1239.3" fill="none" stroke="#FAFCFF" stroke-opacity="0.02605031446540884" stroke-width="4.5"/><polyline points="-684.4,1694.1 -390.3,1574.1 -96.3,1740.7 197.7,1695.7 491.8,1805.5 785.8,1709.7 1079.9,1640.1 1373.9,1708.5 1667.9,1584.1 1962.0,1608.6 2256.0,1708.6 2550.0,1626.6 2844.1,1555.4" fill="none" stroke="#FAFCFF" stroke-opacity="0.03016352201257866" stroke-width="5.5"/><circle cx="1327.8" cy="1092.8" r="3.740727319635761" fill="#3B82F6" fill-opacity="0.06"/><circle cx="-287.3" cy="606.6" r="3.7343376859645137" fill="#3B82F6" fill-opacity="0.08"/><circle cx="1323.9" cy="761.9" r="10.443907064176056" fill="#FF6A1A" fill-opacity="0.08"/><circle cx="1588.0" cy="853.5" r="4.269869991485631" fill="#3B82F6" fill-opacity="0.10"/><circle cx="2153.4" cy="985.3" r="6.410171187292969" fill="#FF6A1A" fill-opacity="0.10"/><circle cx="127.3" cy="563.6" r="10.181185713243865" fill="#3B82F6" fill-opacity="0.08"/><circle cx="1228.5" cy="914.0" r="4.490418107550347" fill="#3B82F6" fill-opacity="0.10"/><circle cx="-203.3" cy="1097.4" r="8.256577303041004" fill="#3B82F6" fill-opacity="0.07"/><circle cx="29.6" cy="332.9" r="7.006772984626953" fill="#3B82F6" fill-opacity="0.10"/><circle cx="1980.7" cy="1016.8" r="8.157622656545565" fill="#3B82F6" fill-opacity="0.07"/><circle cx="226.4" cy="1183.3" r="6.972950921437199" fill="#FF6A1A" fill-opacity="0.10"/><circle cx="1654.5" cy="1208.8" r="9.871380652025502" fill="#FF6A1A" fill-opacity="0.09"/><circle cx="2664.3" cy="657.1" r="6.3135617110866935" fill="#FF6A1A" fill-opacity="0.08"/><circle cx="1035.3" cy="686.4" r="10.214209156944621" fill="#3B82F6" fill-opacity="0.10"/><circle cx="2161.3" cy="869.2" r="6.9769942826047195" fill="#3B82F6" fill-opacity="0.10"/><circle cx="1402.5" cy="930.7" r="4.281843656364873" fill="#3B82F6" fill-opacity="0.05"/><circle cx="2814.3" cy="1170.5" r="4.345455409492232" fill="#FF6A1A" fill-opacity="0.09"/><circle cx="1312.9" cy="910.2" r="3.8984174261834452" fill="#3B82F6" fill-opacity="0.07"/><g opacity="1.00"><line x1="0" y1="842.4" x2="1920" y2="561.6" stroke="#FAFCFF" stroke-opacity="0.5" stroke-width="6"/><line x1="-16" y1="831" x2="-16" y2="859" stroke="#3B82F6" stroke-opacity="0.8" stroke-width="3"/><line x1="64" y1="819" x2="64" y2="847" stroke="#3B82F6" stroke-opacity="0.8" stroke-width="3"/><line x1="144" y1="807" x2="144" y2="835" stroke="#3B82F6" stroke-opacity="0.8" stroke-width="3"/><line x1="224" y1="796" x2="224" y2="824" stroke="#3B82F6" stroke-opacity="0.8" stroke-width="3"/><line x1="304" y1="784" x2="304" y2="812" stroke="#3B82F6" stroke-opacity="0.8" stroke-width="3"/><line x1="384" y1="772" x2="384" y2="800" stroke="#3B82F6" stroke-opacity="0.8" stroke-width="3"/><line x1="464" y1="761" x2="464" y2="789" stroke="#3B82F6" stroke-opacity="0.8" stroke-width="3"/><line x1="544" y1="749" x2="544" y2="777" stroke="#3B82F6" stroke-opacity="0.8" stroke-width="3"/><line x1="624" y1="737" x2="624" y2="765" stroke="#3B82F6" stroke-opacity="0.8" stroke-width="3"/><line x1="704" y1="725" x2="704" y2="753" stroke="#3B82F6" stroke-opacity="0.8" stroke-width="3"/><line x1="784" y1="714" x2="784" y2="742" stroke="#3B82F6" stroke-opacity="0.8" stroke-width="3"/><line x1="864" y1="702" x2="864" y2="730" stroke="#3B82F6" stroke-opacity="0.8" stroke-width="3"/><line x1="944" y1="690" x2="944" y2="718" stroke="#3B82F6" stroke-opacity="0.8" stroke-width="3"/><line x1="1024" y1="679" x2="1024" y2="707" stroke="#3B82F6" stroke-opacity="0.8" stroke-width="3"/><line x1="1104" y1="667" x2="1104" y2="695" stroke="#3B82F6" stroke-opacity="0.8" stroke-width="3"/><line x1="1184" y1="655" x2="1184" y2="683" stroke="#3B82F6" stroke-opacity="0.8" stroke-width="3"/><line x1="1264" y1="644" x2="1264" y2="672" stroke="#3B82F6" stroke-opacity="0.8" stroke-width="3"/><line x1="1344" y1="632" x2="1344" y2="660" stroke="#3B82F6" stroke-opacity="0.8" stroke-width="3"/><line x1="1424" y1="620" x2="1424" y2="648" stroke="#3B82F6" stroke-opacity="0.8" stroke-width="3"/><line x1="1504" y1="608" x2="1504" y2="636" stroke="#3B82F6" stroke-opacity="0.8" stroke-width="3"/><line x1="1584" y1="597" x2="1584" y2="625" stroke="#3B82F6" stroke-opacity="0.8" stroke-width="3"/><line x1="1664" y1="585" x2="1664" y2="613" stroke="#3B82F6" stroke-opacity="0.8" stroke-width="3"/><line x1="1744" y1="573" x2="1744" y2="601" stroke="#3B82F6" stroke-opacity="0.8" stroke-width="3"/><line x1="1824" y1="562" x2="1824" y2="590" stroke="#3B82F6" stroke-opacity="0.8" stroke-width="3"/><line x1="1904" y1="550" x2="1904" y2="578" stroke="#3B82F6" stroke-opacity="0.8" stroke-width="3"/><line x1="1984" y1="538" x2="1984" y2="566" stroke="#3B82F6" stroke-opacity="0.8" stroke-width="3"/><line x1="2064" y1="527" x2="2064" y2="555" stroke="#3B82F6" stroke-opacity="0.8" stroke-width="3"/></g><g opacity="0.20"><rect x="422.4" y="216" width="1075.2" height="540" fill="none" stroke="#FAFCFF" stroke-opacity="0.6" stroke-width="2"/><rect x="442.4" y="236" width="318.40000000000003" height="189" fill="#3B82F6" fill-opacity="0.14"/><rect x="800.8" y="236" width="318.40000000000003" height="189" fill="#3B82F6" fill-opacity="0.2"/><rect x="1159.2" y="236" width="318.40000000000003" height="189" fill="#3B82F6" fill-opacity="0.26"/></g></svg>