<svg xmlns="http://www.w3.org/2000/svg" width="1920" height="1080" viewBox="0 0 1920 1080"><rect width="1920" height="1080" fill="#0A1F44"/><polyline points="-12.8,535.3 156.3,563.5 325.4,527.2 494.5,543.1 663.6,553.9 832.7,525.8 1001.8,564.3 1170.9,532.8 1340.0,532.8 1509.1,560.7 1678.2,556.7 1847.3,524.3 2016.4,571.5" fill="none" stroke="#FAFCFF" stroke-opacity="0.1" stroke-width="1.5"/><polyline points="-12.8,650.7 156.3,596.6 325.4,646.0 494.5,622.3 663.6,613.9 832.7,661.7 1001.8,583.1 1170.9,590.7 1340.0,603.5 1509.1,603.4 1678.2,650.7 1847.3,664.1 2016.4,640.2" fill="none" stroke="#FAFCFF" stroke-opacity="0.13" stroke-width="2.5"/><polyline points="-12.8,745.7 156.3,809.4 325.4,747.2 494.5,757.3 663.6,789.6 832.7,815.5 1001.8,722.7 1170.9,809.0 1340.0,736.2 1509.1,788.5 1678.2,732.4 1847.3,802.1 2016.4,728.6" fill="none" stroke="#FAFCFF" stroke-opacity="0.16" stroke-width="3.5"/><polyline points="-12.8,944.3 156.3,954.7 325.4,996.8 494.5,1040.6 663.6,1044.2 832.7,938.3 1001.8,1022.6 1170.9,1061.6 1340.0,1009.6 1509.1,1058.9 1678.2,969.2 1847.3,1003.6 2016.4,1048.9" fill="none" stroke="#FAFCFF" stroke-opacity="0.19" stroke-width="4.5"/><polyline points="-12.8,1310.4 156.3,1241.4 325.4,1337.2 494.5,1311.3 663.6,1374.5 832.7,1319.4 1001.8,1279.4 1170.9,1318.7 1340.0,1247.2 1509.1,1261.2 1678.2,1318.7 1847.3,1271.6 2016.4,1230.7" fill="none" stroke="#FAFCFF" stroke-opacity="0.22" stroke-width="5.5"/><circle cx="1144.4" cy="964.6" r="2.151290372019581" fill="#3B82F6" fill-opacity="0.58"/><circle cx="215.5" cy="685.0" r="2.147615696956918" fill="#3B82F6" fill-opacity="0.44"/><circle cx="1142.1" cy="774.3" r="6.006285621379363" fill="#FF6A1A" fill-opacity="0.44"/><circle cx="1294.0" cy="827.0" r="2.4556000524926778" fill="#3B82F6" fill-opacity="0.66"/><circle cx="1619.2" cy="902.8" r="3.6864861776568763" fill="#FF6A1A" fill-opacity="0.61"/><circle cx="454.0" cy="660.3" r="5.855194706567794" fill="#3B82F6" fill-opacity="0.70"/><circle cx="1087.3" cy="861.8" r="2.5824371614598394" fill="#3B82F6" fill-opacity="0.75"/><circle cx="263.8" cy="967.2" r="4.748353392301539" fill="#3B82F6" fill-opacity="0.37"/><circle cx="397.8" cy="527.6" r="4.029591566760499" fill="#3B82F6" fill-opacity="0.74"/><circle cx="1519.9" cy="920.9" r="4.691444625614699" fill="#3B82F6" fill-opacity="0.66"/><circle cx="511.0" cy="1016.7" r="4.010140515484983" fill="#FF6A1A" fill-opacity="0.56"/><circle cx="1332.2" cy="1031.3" r="5.677025974005138" fill="#FF6A1A" fill-opacity="0.45"/><circle cx="1913.0" cy="714.0" r="3.630926117206212" fill="#FF6A1A" fill-opacity="0.40"/><circle cx="976.1" cy="730.9" r="5.874186472182852" fill="#3B82F6" fill-opacity="0.62"/><circle cx="1623.7" cy="836.0" r="4.0124658504284385" fill="#3B82F6" fill-opacity="0.71"/><circle cx="1187.4" cy="871.4" r="2.4624861010526167" fill="#3B82F6" fill-opacity="0.53"/><circle cx="1999.3" cy="1009.3" r="2.499069187804714" fill="#FF6A1A" fill-opacity="0.51"/><circle cx="1135.8" cy="859.6" r="2.241977871800187" fill="#3B82F6" fill-opacity="0.35"/><g opacity="0.07"><line x1="0" y1="842.4" x2="1920" y2="561.6" stroke="#FAFCFF" stroke-opacity="0.5" stroke-width="6"/><line x1="-58" y1="837" x2="-58" y2="865" stroke="#3B82F6" stroke-opacity="0.8" stroke-width="3"/><line x1="22" y1="825" x2="22" y2="853" stroke="#3B82F6" stroke-opacity="0.8" stroke-width="3"/><line x1="102" y1="813" x2="102" y2="841" stroke="#3B82F6" stroke-opacity="0.8" stroke-width="3"/><line x1="182" y1="802" x2="182" y2="830" stroke="#3B82F6" stroke-opacity="0.8" stroke-width="3"/><line x1="262" y1="790" x2="262" y2="818" stroke="#3B82F6" stroke-opacity="0.8" stroke-width="3"/><line x1="342" y1="778" x2="342" y2="806" stroke="#3B82F6" stroke-opacity="0.8" stroke-width="3"/><line x1="422" y1="767" x2="422" y2="795" stroke="#3B82F6" stroke-opacity="0.8" stroke-width="3"/><line x1="502" y1="755" x2="502" y2="783" stroke="#3B82F6" stroke-opacity="0.8" stroke-width="3"/><line x1="582" y1="743" x2="582" y2="771" stroke="#3B82F6" stroke-opacity="0.8" stroke-width="3"/><line x1="662" y1="732" x2="662" y2="760" stroke="#3B82F6" stroke-opacity="0.8" stroke-width="3"/><line x1="742" y1="720" x2="742" y2="748" stroke="#3B82F6" stroke-opacity="0.8" stroke-width="3"/><line x1="822" y1="708" x2="822" y2="736" stroke="#3B82F6" stroke-opacity="0.8" stroke-width="3"/><line x1="902" y1="696" x2="902" y2="724" stroke="#3B82F6" stroke-opacity="0.8" stroke-width="3"/><line x1="982" y1="685" x2="982" y2="713" stroke="#3B82F6" stroke-opacity="0.8" stroke-width="3"/><line x1="1062" y1="673" x2="1062" y2="701" stroke="#3B82F6" stroke-opacity="0.8" stroke-width="3"/><line x1="1142" y1="661" x2="1142" y2="689" stroke="#3B82F6" stroke-opacity="0.8" stroke-width="3"/><line x1="1222" y1="650" x2="1222" y2="678" stroke="#3B82F6" stroke-opacity="0.8" stroke-width="3"/><line x1="1302" y1="638" x2="1302" y2="666" stroke="#3B82F6" stroke-opacity="0.8" stroke-width="3"/><line x1="1382" y1="626" x2="1382" y2="654" stroke="#3B82F6" stroke-opacity="0.8" stroke-width="3"/><line x1="1462" y1="615" x2="1462" y2="643" stroke="#3B82F6" stroke-opacity="0.8" stroke-width="3"/><line x1="1542" y1="603" x2="1542" y2="631" stroke="#3B82F6" stroke-opacity="0.8" stroke-width="3"/><line x1="1622" y1="591" x2="1622" y2="619" stroke="#3B82F6" stroke-opacity="0.8" stroke-width="3"/><line x1="1702" y1="579" x2="1702" y2="607" stroke="#3B82F6" stroke-opacity="0.8" stroke-width="3"/><line x1="1782" y1="568" x2="1782" y2="596" stroke="#3B82F6" stroke-opacity="0.8" stroke-width="3"/><line x1="1862" y1="556" x2="1862" y2="584" stroke="#3B82F6" stroke-opacity="0.8" stroke-width="3"/><line x1="1942" y1="544" x2="1942" y2="572" stroke="#3B82F6" stroke-opacity="0.8" stroke-width="3"/><line x1="2022" y1="533" x2="2022" y2="561" stroke="#3B82F6" stroke-opacity="0.8" stroke-width="3"/></g></svg>