<svg xmlns="http://www.w3.org/2000/svg" width="1920" height="1080" viewBox="0 0 1920 1080"><rect width="1920" height="1080" fill="#0A1F44"/><polyline points="-148.3,490.6 50.3,523.7 249.0,481.1 447.6,499.8 646.3,512.5 844.9,479.5 1043.6,524.6 1242.2,487.7 1440.9,487.6 1639.5,520.5 1838.2,515.8 2036.8,477.7 2235.5,533.1" fill="none" stroke="#FAFCFF" stroke-opacity="0.1" stroke-width="1.5"/><polyline points="-148.3,626.1 50.3,562.6 249.0,620.7 447.6,592.8 646.3,582.9 844.9,639.0 1043.6,546.7 1242.2,555.7 1440.9,570.7 1639.5,570.6 1838.2,626.1 2036.8,641.9 2235.5,613.9" fill="none" stroke="#FAFCFF" stroke-opacity="0.13" stroke-width="2.5"/><polyline points="-148.3,737.8 50.3,812.5 249.0,739.5 447.6,751.4 646.3,789.4 844.9,819.8 1043.6,710.8 1242.2,812.2 1440.9,726.6 1639.5,788.0 1838.2,722.2 2036.8,804.0 2235.5,717.7" fill="none" stroke="#FAFCFF" stroke-opacity="0.16" stroke-width="3.5"/><polyline points="-148.3,971.0 50.3,983.3 249.0,1032.8 447.6,1084.2 646.3,1088.4 844.9,964.0 1043.6,1063.1 1242.2,1108.9 1440.9,1047.8 1639.5,1105.6 1838.2,1000.4 2036.8,1040.7 2235.5,1093.9" fill="none" stroke="#FAFCFF" stroke-opacity="0.19" stroke-width="4.5"/><polyline points="-148.3,1401.2 50.3,1320.1 249.0,1432.7 447.6,1402.2 646.3,1476.4 844.9,1411.7 1043.6,1364.7 1242.2,1410.9 1440.9,1326.9 1639.5,1343.4 1838.2,1410.9 2036.8,1355.5 2235.5,1307.5" fill="none" stroke="#FAFCFF" stroke-opacity="0.22" stroke-width="5.5"/><circle cx="1211.1" cy="994.9" r="2.527229746137282" fill="#3B82F6" fill-opacity="0.57"/><circle cx="119.9" cy="666.5" r="2.5229129192474593" fill="#3B82F6" fill-opacity="0.75"/><circle cx="1208.4" cy="771.4" r="7.055887891087728" fill="#FF6A1A" fill-opacity="0.75"/><circle cx="1386.9" cy="833.2" r="2.884717738707604" fill="#3B82F6" fill-opacity="0.70"/><circle cx="1768.9" cy="922.3" r="4.330702004747124" fill="#FF6A1A" fill-opacity="0.73"/><circle cx="400.1" cy="637.4" r="6.8783937418788375" fill="#3B82F6" fill-opacity="0.40"/><circle cx="1144.0" cy="874.2" r="3.0337197139244343" fill="#3B82F6" fill-opacity="0.54"/><circle cx="176.7" cy="998.0" r="5.578131197106057" fill="#3B82F6" fill-opacity="0.71"/><circle cx="334.0" cy="481.6" r="4.733765280946637" fill="#3B82F6" fill-opacity="0.56"/><circle cx="1652.2" cy="943.6" r="5.5112775868925965" fill="#3B82F6" fill-opacity="0.47"/><circle cx="467.0" cy="1056.1" r="4.710915145968821" fill="#FF6A1A" fill-opacity="0.74"/><circle cx="1431.8" cy="1073.3" r="6.669089908876873" fill="#FF6A1A" fill-opacity="0.75"/><circle cx="2114.0" cy="700.5" r="4.265432788050781" fill="#FF6A1A" fill-opacity="0.74"/><circle cx="1013.5" cy="720.4" r="6.900704330732068" fill="#3B82F6" fill-opacity="0.72"/><circle cx="1774.2" cy="843.9" r="4.713646834687027" fill="#3B82F6" fill-opacity="0.64"/><circle cx="1261.6" cy="885.4" r="2.8928071286757686" fill="#3B82F6" fill-opacity="0.61"/><circle cx="2215.4" cy="1047.4" r="2.9357831333322792" fill="#FF6A1A" fill-opacity="0.75"/><circle cx="1201.1" cy="871.5" r="2.63376494474611" fill="#3B82F6" fill-opacity="0.72"/><g opacity="0.81"><line x1="0" y1="842.4" x2="1920" y2="561.6" stroke="#FAFCFF" stroke-opacity="0.5" stroke-width="6"/><line x1="-19" y1="831" x2="-19" y2="859" stroke="#3B82F6" stroke-opacity="0.8" stroke-width="3"/><line x1="61" y1="820" x2="61" y2="848" stroke="#3B82F6" stroke-opacity="0.8" stroke-width="3"/><line x1="141" y1="808" x2="141" y2="836" stroke="#3B82F6" stroke-opacity="0.8" stroke-width="3"/><line x1="221" y1="796" x2="221" y2="824" stroke="#3B82F6" stroke-opacity="0.8" stroke-width="3"/><line x1="301" y1="784" x2="301" y2="812" stroke="#3B82F6" stroke-opacity="0.8" stroke-width="3"/><line x1="381" y1="773" x2="381" y2="801" stroke="#3B82F6" stroke-opacity="0.8" stroke-width="3"/><line x1="461" y1="761" x2="461" y2="789" stroke="#3B82F6" stroke-opacity="0.8" stroke-width="3"/><line x1="541" y1="749" x2="541" y2="777" stroke="#3B82F6" stroke-opacity="0.8" stroke-width="3"/><line x1="621" y1="738" x2="621" y2="766" stroke="#3B82F6" stroke-opacity="0.8" stroke-width="3"/><line x1="701" y1="726" x2="701" y2="754" stroke="#3B82F6" stroke-opacity="0.8" stroke-width="3"/><line x1="781" y1="714" x2="781" y2="742" stroke="#3B82F6" stroke-opacity="0.8" stroke-width="3"/><line x1="861" y1="703" x2="861" y2="731" stroke="#3B82F6" stroke-opacity="0.8" stroke-width="3"/><line x1="941" y1="691" x2="941" y2="719" stroke="#3B82F6" stroke-opacity="0.8" stroke-width="3"/><line x1="1021" y1="679" x2="1021" y2="707" stroke="#3B82F6" stroke-opacity="0.8" stroke-width="3"/><line x1="1101" y1="667" x2="1101" y2="695" stroke="#3B82F6" stroke-opacity="0.8" stroke-width="3"/><line x1="1181" y1="656" x2="1181" y2="684" stroke="#3B82F6" stroke-opacity="0.8" stroke-width="3"/><line x1="1261" y1="644" x2="1261" y2="672" stroke="#3B82F6" stroke-opacity="0.8" stroke-width="3"/><line x1="1341" y1="632" x2="1341" y2="660" stroke="#3B82F6" stroke-opacity="0.8" stroke-width="3"/><line x1="1421" y1="621" x2="1421" y2="649" stroke="#3B82F6" stroke-opacity="0.8" stroke-width="3"/><line x1="1501" y1="609" x2="1501" y2="637" stroke="#3B82F6" stroke-opacity="0.8" stroke-width="3"/><line x1="1581" y1="597" x2="1581" y2="625" stroke="#3B82F6" stroke-opacity="0.8" stroke-width="3"/><line x1="1661" y1="586" x2="1661" y2="614" stroke="#3B82F6" stroke-opacity="0.8" stroke-width="3"/><line x1="1741" y1="574" x2="1741" y2="602" stroke="#3B82F6" stroke-opacity="0.8" stroke-width="3"/><line x1="1821" y1="562" x2="1821" y2="590" stroke="#3B82F6" stroke-opacity="0.8" stroke-width="3"/><line x1="1901" y1="550" x2="1901" y2="578" stroke="#3B82F6" stroke-opacity="0.8" stroke-width="3"/><line x1="1981" y1="539" x2="1981" y2="567" stroke="#3B82F6" stroke-opacity="0.8" stroke-width="3"/><line x1="2061" y1="527" x2="2061" y2="555" stroke="#3B82F6" stroke-opacity="0.8" stroke-width="3"/></g></svg>