<svg xmlns="http://www.w3.org/2000/svg" width="1920" height="1080" viewBox="0 0 1920 1080"><rect width="1920" height="1080" fill="#0A1F44"/><polyline points="-83.4,510.7 102.0,541.5 287.4,501.8 472.8,519.2 658.2,531.1 843.6,500.2 1029.0,542.4 1214.4,507.9 1399.8,507.9 1585.2,538.5 1770.6,534.2 1956.0,498.6 2141.4,550.3" fill="none" stroke="#FAFCFF" stroke-opacity="0.1" stroke-width="1.5"/><polyline points="-83.4,637.1 102.0,577.8 287.4,632.0 472.8,606.0 658.2,596.8 843.6,649.2 1029.0,563.0 1214.4,571.4 1399.8,585.4 1585.2,585.3 1770.6,637.1 1956.0,651.9 2141.4,625.7" fill="none" stroke="#FAFCFF" stroke-opacity="0.13" stroke-width="2.5"/><polyline points="-83.4,741.3 102.0,811.1 287.4,743.0 472.8,754.0 658.2,789.5 843.6,817.9 1029.0,716.1 1214.4,810.7 1399.8,730.9 1585.2,788.2 1770.6,726.8 1956.0,803.2 2141.4,722.6" fill="none" stroke="#FAFCFF" stroke-opacity="0.16" stroke-width="3.5"/><polyline points="-83.4,959.0 102.0,970.5 287.4,1016.6 472.8,1064.6 658.2,1068.6 843.6,952.5 1029.0,1044.9 1214.4,1087.7 1399.8,1030.7 1585.2,1084.7 1770.6,986.4 1956.0,1024.1 2141.4,1073.7" fill="none" stroke="#FAFCFF" stroke-opacity="0.19" stroke-width="4.5"/><polyline points="-83.4,1360.5 102.0,1284.8 287.4,1389.9 472.8,1361.5 658.2,1430.7 843.6,1370.3 1029.0,1326.4 1214.4,1369.6 1399.8,1291.1 1585.2,1306.5 1770.6,1369.6 1956.0,1317.9 2141.4,1273.0" fill="none" stroke="#FAFCFF" stroke-opacity="0.22" stroke-width="5.5"/><circle cx="1185.3" cy="981.3" r="2.3586515288366097" fill="#3B82F6" fill-opacity="0.40"/><circle cx="167.0" cy="674.8" r="2.3546226547862923" fill="#3B82F6" fill-opacity="0.68"/><circle cx="1182.9" cy="772.7" r="6.585226684297566" fill="#FF6A1A" fill-opacity="0.68"/><circle cx="1349.4" cy="830.4" r="2.6922933758058" fill="#3B82F6" fill-opacity="0.75"/><circle cx="1705.9" cy="913.6" r="4.041823629230782" fill="#FF6A1A" fill-opacity="0.75"/><circle cx="428.4" cy="647.6" r="6.419572237157974" fill="#3B82F6" fill-opacity="0.48"/><circle cx="1122.7" cy="868.6" r="2.831356212171197" fill="#3B82F6" fill-opacity="0.67"/><circle cx="219.9" cy="984.2" r="5.206043374653557" fill="#3B82F6" fill-opacity="0.60"/><circle cx="366.8" cy="502.2" r="4.418000672128816" fill="#3B82F6" fill-opacity="0.69"/><circle cx="1597.0" cy="933.4" r="5.143649217502141" fill="#3B82F6" fill-opacity="0.41"/><circle cx="490.9" cy="1038.4" r="4.396674749591728" fill="#FF6A1A" fill-opacity="0.73"/><circle cx="1391.3" cy="1054.5" r="6.22422996309049" fill="#FF6A1A" fill-opacity="0.69"/><circle cx="2028.0" cy="706.6" r="3.9809081790299845" fill="#FF6A1A" fill-opacity="0.65"/><circle cx="1000.9" cy="725.1" r="6.440394603857459" fill="#3B82F6" fill-opacity="0.75"/><circle cx="1710.9" cy="840.4" r="4.3992242217089155" fill="#3B82F6" fill-opacity="0.73"/><circle cx="1232.5" cy="879.1" r="2.699843165074041" fill="#3B82F6" fill-opacity="0.45"/><circle cx="2122.6" cy="1030.3" r="2.739952466272834" fill="#FF6A1A" fill-opacity="0.71"/><circle cx="1176.0" cy="866.2" r="2.4580803241242917" fill="#3B82F6" fill-opacity="0.62"/><g opacity="0.53"><line x1="0" y1="842.4" x2="1920" y2="561.6" stroke="#FAFCFF" stroke-opacity="0.5" stroke-width="6"/><line x1="-65" y1="838" x2="-65" y2="866" stroke="#3B82F6" stroke-opacity="0.8" stroke-width="3"/><line x1="15" y1="826" x2="15" y2="854" stroke="#3B82F6" stroke-opacity="0.8" stroke-width="3"/><line x1="95" y1="814" x2="95" y2="842" stroke="#3B82F6" stroke-opacity="0.8" stroke-width="3"/><line x1="175" y1="803" x2="175" y2="831" stroke="#3B82F6" stroke-opacity="0.8" stroke-width="3"/><line x1="255" y1="791" x2="255" y2="819" stroke="#3B82F6" stroke-opacity="0.8" stroke-width="3"/><line x1="335" y1="779" x2="335" y2="807" stroke="#3B82F6" stroke-opacity="0.8" stroke-width="3"/><line x1="415" y1="768" x2="415" y2="796" stroke="#3B82F6" stroke-opacity="0.8" stroke-width="3"/><line x1="495" y1="756" x2="495" y2="784" stroke="#3B82F6" stroke-opacity="0.8" stroke-width="3"/><line x1="575" y1="744" x2="575" y2="772" stroke="#3B82F6" stroke-opacity="0.8" stroke-width="3"/><line x1="655" y1="733" x2="655" y2="761" stroke="#3B82F6" stroke-opacity="0.8" stroke-width="3"/><line x1="735" y1="721" x2="735" y2="749" stroke="#3B82F6" stroke-opacity="0.8" stroke-width="3"/><line x1="815" y1="709" x2="815" y2="737" stroke="#3B82F6" stroke-opacity="0.8" stroke-width="3"/><line x1="895" y1="697" x2="895" y2="725" stroke="#3B82F6" stroke-opacity="0.8" stroke-width="3"/><line x1="975" y1="686" x2="975" y2="714" stroke="#3B82F6" stroke-opacity="0.8" stroke-width="3"/><line x1="1055" y1="674" x2="1055" y2="702" stroke="#3B82F6" stroke-opacity="0.8" stroke-width="3"/><line x1="1135" y1="662" x2="1135" y2="690" stroke="#3B82F6" stroke-opacity="0.8" stroke-width="3"/><line x1="1215" y1="651" x2="1215" y2="679" stroke="#3B82F6" stroke-opacity="0.8" stroke-width="3"/><line x1="1295" y1="639" x2="1295" y2="667" stroke="#3B82F6" stroke-opacity="0.8" stroke-width="3"/><line x1="1375" y1="627" x2="1375" y2="655" stroke="#3B82F6" stroke-opacity="0.8" stroke-width="3"/><line x1="1455" y1="616" x2="1455" y2="644" stroke="#3B82F6" stroke-opacity="0.8" stroke-width="3"/><line x1="1535" y1="604" x2="1535" y2="632" stroke="#3B82F6" stroke-opacity="0.8" stroke-width="3"/><line x1="1615" y1="592" x2="1615" y2="620" stroke="#3B82F6" stroke-opacity="0.8" stroke-width="3"/><line x1="1695" y1="580" x2="1695" y2="608" stroke="#3B82F6" stroke-opacity="0.8" stroke-width="3"/><line x1="1775" y1="569" x2="1775" y2="597" stroke="#3B82F6" stroke-opacity="0.8" stroke-width="3"/><line x1="1855" y1="557" x2="1855" y2="585" stroke="#3B82F6" stroke-opacity="0.8" stroke-width="3"/><line x1="1935" y1="545" x2="1935" y2="573" stroke="#3B82F6" stroke-opacity="0.8" stroke-width="3"/><line x1="2015" y1="534" x2="2015" y2="562" stroke="#3B82F6" stroke-opacity="0.8" stroke-width="3"/></g></svg>