<svg xmlns="http://www.w3.org/2000/svg" width="1920" height="1080" viewBox="0 0 1920 1080"><rect width="1920" height="1080" fill="#0A1F44"/><polyline points="-379.9,425.3 -138.0,465.5 103.8,413.7 345.7,436.4 587.5,451.9 829.4,411.7 1071.2,466.7 1313.1,421.7 1554.9,421.6 1796.8,461.6 2038.6,455.9 2280.5,409.5 2522.3,477.0" fill="none" stroke="#FAFCFF" stroke-opacity="0.0690566037735849" stroke-width="1.5"/><polyline points="-379.9,590.2 -138.0,512.9 103.8,583.6 345.7,549.7 587.5,537.6 829.4,606.0 1071.2,493.5 1313.1,504.5 1554.9,522.7 1796.8,522.7 2038.6,590.2 2280.5,609.5 2522.3,575.3" fill="none" stroke="#FAFCFF" stroke-opacity="0.08977358490566036" stroke-width="2.5"/><polyline points="-379.9,726.2 -138.0,817.2 103.8,728.3 345.7,742.7 587.5,789.0 829.4,826.0 1071.2,693.3 1313.1,816.7 1554.9,712.6 1796.8,787.3 2038.6,707.2 2280.5,806.8 2522.3,701.8" fill="none" stroke="#FAFCFF" stroke-opacity="0.11049056603773583" stroke-width="3.5"/><polyline points="-379.9,1010.1 -138.0,1025.1 103.8,1085.3 345.7,1147.9 587.5,1153.1 829.4,1001.6 1071.2,1122.2 1313.1,1178.0 1554.9,1103.6 1796.8,1174.0 2038.6,1045.9 2280.5,1095.0 2522.3,1159.8" fill="none" stroke="#FAFCFF" stroke-opacity="0.13120754716981128" stroke-width="4.5"/><polyline points="-379.9,1533.8 -138.0,1435.1 103.8,1572.2 345.7,1535.2 587.5,1625.4 829.4,1546.6 1071.2,1489.4 1313.1,1545.7 1554.9,1443.4 1796.8,1463.5 2038.6,1545.7 2280.5,1478.3 2522.3,1419.8" fill="none" stroke="#FAFCFF" stroke-opacity="0.15192452830188677" stroke-width="5.5"/><circle cx="1275.2" cy="1039.2" r="3.0768209533504915" fill="#3B82F6" fill-opacity="0.51"/><circle cx="-53.3" cy="639.4" r="3.0715653554188456" fill="#3B82F6" fill-opacity="0.38"/><circle cx="1271.9" cy="767.1" r="8.590316626722482" fill="#FF6A1A" fill-opacity="0.38"/><circle cx="1489.1" cy="842.4" r="3.512051089349303" fill="#3B82F6" fill-opacity="0.27"/><circle cx="1954.3" cy="950.8" r="5.272490437914905" fill="#FF6A1A" fill-opacity="0.25"/><circle cx="287.7" cy="604.0" r="8.37422320734985" fill="#3B82F6" fill-opacity="0.51"/><circle cx="1193.4" cy="892.2" r="3.69345620304681" fill="#3B82F6" fill-opacity="0.42"/><circle cx="15.8" cy="1043.0" r="6.791195368773436" fill="#3B82F6" fill-opacity="0.44"/><circle cx="207.4" cy="414.2" r="5.763207016268043" fill="#3B82F6" fill-opacity="0.40"/><circle cx="1812.2" cy="976.7" r="6.709803248003135" fill="#3B82F6" fill-opacity="0.52"/><circle cx="369.2" cy="1113.7" r="5.7353877116741145" fill="#FF6A1A" fill-opacity="0.30"/><circle cx="1543.8" cy="1134.7" r="8.11940252079323" fill="#FF6A1A" fill-opacity="0.37"/><circle cx="2374.4" cy="680.8" r="5.193027265305834" fill="#FF6A1A" fill-opacity="0.41"/><circle cx="1034.5" cy="705.0" r="8.401385631886095" fill="#3B82F6" fill-opacity="0.25"/><circle cx="1960.7" cy="855.3" r="5.73871345485162" fill="#3B82F6" fill-opacity="0.34"/><circle cx="1336.6" cy="905.9" r="3.521899661522812" fill="#3B82F6" fill-opacity="0.50"/><circle cx="2497.8" cy="1103.1" r="3.574221565307201" fill="#FF6A1A" fill-opacity="0.34"/><circle cx="1262.9" cy="889.0" r="3.206524132038541" fill="#3B82F6" fill-opacity="0.43"/><g opacity="1.00"><line x1="0" y1="842.4" x2="1920" y2="561.6" stroke="#FAFCFF" stroke-opacity="0.5" stroke-width="6"/><line x1="-60" y1="837" x2="-60" y2="865" stroke="#3B82F6" stroke-opacity="0.8" stroke-width="3"/><line x1="20" y1="826" x2="20" y2="854" stroke="#3B82F6" stroke-opacity="0.8" stroke-width="3"/><line x1="100" y1="814" x2="100" y2="842" stroke="#3B82F6" stroke-opacity="0.8" stroke-width="3"/><line x1="180" y1="802" x2="180" y2="830" stroke="#3B82F6" stroke-opacity="0.8" stroke-width="3"/><line x1="260" y1="790" x2="260" y2="818" stroke="#3B82F6" stroke-opacity="0.8" stroke-width="3"/><line x1="340" y1="779" x2="340" y2="807" stroke="#3B82F6" stroke-opacity="0.8" stroke-width="3"/><line x1="420" y1="767" x2="420" y2="795" stroke="#3B82F6" stroke-opacity="0.8" stroke-width="3"/><line x1="500" y1="755" x2="500" y2="783" stroke="#3B82F6" stroke-opacity="0.8" stroke-width="3"/><line x1="580" y1="744" x2="580" y2="772" stroke="#3B82F6" stroke-opacity="0.8" stroke-width="3"/><line x1="660" y1="732" x2="660" y2="760" stroke="#3B82F6" stroke-opacity="0.8" stroke-width="3"/><line x1="740" y1="720" x2="740" y2="748" stroke="#3B82F6" stroke-opacity="0.8" stroke-width="3"/><line x1="820" y1="709" x2="820" y2="737" stroke="#3B82F6" stroke-opacity="0.8" stroke-width="3"/><line x1="900" y1="697" x2="900" y2="725" stroke="#3B82F6" stroke-opacity="0.8" stroke-width="3"/><line x1="980" y1="685" x2="980" y2="713" stroke="#3B82F6" stroke-opacity="0.8" stroke-width="3"/><line x1="1060" y1="673" x2="1060" y2="701" stroke="#3B82F6" stroke-opacity="0.8" stroke-width="3"/><line x1="1140" y1="662" x2="1140" y2="690" stroke="#3B82F6" stroke-opacity="0.8" stroke-width="3"/><line x1="1220" y1="650" x2="1220" y2="678" stroke="#3B82F6" stroke-opacity="0.8" stroke-width="3"/><line x1="1300" y1="638" x2="1300" y2="666" stroke="#3B82F6" stroke-opacity="0.8" stroke-width="3"/><line x1="1380" y1="627" x2="1380" y2="655" stroke="#3B82F6" stroke-opacity="0.8" stroke-width="3"/><line x1="1460" y1="615" x2="1460" y2="643" stroke="#3B82F6" stroke-opacity="0.8" stroke-width="3"/><line x1="1540" y1="603" x2="1540" y2="631" stroke="#3B82F6" stroke-opacity="0.8" stroke-width="3"/><line x1="1620" y1="592" x2="1620" y2="620" stroke="#3B82F6" stroke-opacity="0.8" stroke-width="3"/><line x1="1700" y1="580" x2="1700" y2="608" stroke="#3B82F6" stroke-opacity="0.8" stroke-width="3"/><line x1="1780" y1="568" x2="1780" y2="596" stroke="#3B82F6" stroke-opacity="0.8" stroke-width="3"/><line x1="1860" y1="556" x2="1860" y2="584" stroke="#3B82F6" stroke-opacity="0.8" stroke-width="3"/><line x1="1940" y1="545" x2="1940" y2="573" stroke="#3B82F6" stroke-opacity="0.8" stroke-width="3"/><line x1="2020" y1="533" x2="2020" y2="561" stroke="#3B82F6" stroke-opacity="0.8" stroke-width="3"/></g></svg>