<svg xmlns="http://www.w3.org/2000/svg" width="1920" height="1080" viewBox="0 0 1920 1080"><rect width="1920" height="1080" fill="#0A1F44"/><polyline points="-1314.6,200.3 -924.0,265.3 -533.4,181.5 -142.8,218.3 247.8,243.3 638.4,178.3 1029.0,267.1 1419.6,194.5 1810.2,194.4 2200.8,259.0 2591.4,249.8 2982.0,174.8 3372.6,283.8" fill="none" stroke="#FAFCFF" stroke-opacity="0" stroke-width="1.5"/><polyline points="-1314.6,466.7 -924.0,341.8 -533.4,456.0 -142.8,401.2 247.8,381.8 638.4,492.1 1029.0,310.5 1419.6,328.2 1810.2,357.7 2200.8,357.6 2591.4,466.7 2982.0,497.8 3372.6,442.6" fill="none" stroke="#FAFCFF" stroke-opacity="0" stroke-width="2.5"/><polyline points="-1314.6,686.2 -924.0,833.3 -533.4,689.7 -142.8,713.0 247.8,787.7 638.4,847.5 1029.0,633.1 1419.6,832.5 1810.2,664.4 2200.8,785.0 2591.4,655.6 2982.0,816.5 3372.6,646.8" fill="none" stroke="#FAFCFF" stroke-opacity="0" stroke-width="3.5"/><polyline points="-1314.6,1144.9 -924.0,1169.0 -533.4,1266.3 -142.8,1367.4 247.8,1375.7 638.4,1131.1 1029.0,1325.9 1419.6,1415.9 1810.2,1295.9 2200.8,1409.6 2591.4,1202.6 2982.0,1281.9 3372.6,1386.5" fill="none" stroke="#FAFCFF" stroke-opacity="0" stroke-width="4.5"/><polyline points="-1314.6,1990.7 -924.0,1831.3 -533.4,2052.6 -142.8,1992.8 247.8,2138.6 638.4,2011.3 1029.0,1918.9 1419.6,2009.8 1810.2,1844.6 2200.8,1877.0 2591.4,2009.9 2982.0,1901.0 3372.6,1806.5" fill="none" stroke="#FAFCFF" stroke-opacity="0" stroke-width="5.5"/><g opacity="1.00"><rect x="422.4" y="216" width="1075.2" height="540" fill="none" stroke="#FAFCFF" stroke-opacity="0.6" stroke-width="2"/><rect x="442.4" y="236" width="318.40000000000003" height="189" fill="#3B82F6" fill-opacity="0.14"/><rect x="800.8" y="236" width="318.40000000000003" height="189" fill="#3B82F6" fill-opacity="0.2"/><rect x="1159.2" y="236" width="318.40000000000003" height="189" fill="#3B82F6" fill-opacity="0.26"/></g><g opacity="1.00"><rect x="460.79999999999995" y="324" width="517.9707771018149" height="10" fill="#3B82F6" fill-opacity="0.9"/><rect x="460.79999999999995" y="358" width="559.0618132464589" height="10" fill="#FAFCFF" fill-opacity="0.4"/><rect x="460.79999999999995" y="392" width="352.0004768371582" height="10" fill="#FAFCFF" fill-opacity="0.4"/><rect x="460.79999999999995" y="426" width="493.0137858130038" height="10" fill="#3B82F6" fill-opacity="0.9"/><rect x="460.79999999999995" y="460" width="575.1368051692843" height="10" fill="#FAFCFF" fill-opacity="0.4"/><rect x="460.79999999999995" y="494" width="457.9308180771768" height="10" fill="#FAFCFF" fill-opacity="0.4"/><rect x="460.79999999999995" y="528" width="437.93497347095087" height="10" fill="#3B82F6" fill-opacity="0.9"/></g></svg>