<svg xmlns="http://www.w3.org/2000/svg" width="1920" height="1080" viewBox="0 0 1920 1080"><rect width="1920" height="1080" fill="#0A1F44"/><polyline points="-1182.6,228.7 -810.7,290.5 -438.9,210.8 -67.0,245.8 304.8,269.6 676.7,207.7 1048.5,292.3 1420.4,223.2 1792.2,223.0 2164.1,284.5 2535.9,275.7 2907.8,204.4 3279.6,308.1" fill="none" stroke="#FAFCFF" stroke-opacity="0" stroke-width="1.5"/><polyline points="-1182.6,482.3 -810.7,363.4 -438.9,472.1 -67.0,419.9 304.8,401.4 676.7,506.5 1048.5,333.6 1420.4,350.4 1792.2,378.5 2164.1,378.4 2535.9,482.3 2907.8,511.8 3279.6,459.3" fill="none" stroke="#FAFCFF" stroke-opacity="0" stroke-width="2.5"/><polyline points="-1182.6,691.3 -810.7,831.2 -438.9,694.6 -67.0,716.7 304.8,787.9 676.7,844.8 1048.5,640.7 1420.4,830.5 1792.2,670.5 2164.1,785.3 2535.9,662.1 2907.8,815.3 3279.6,653.8" fill="none" stroke="#FAFCFF" stroke-opacity="0" stroke-width="3.5"/><polyline points="-1182.6,1127.9 -810.7,1150.9 -438.9,1243.5 -67.0,1339.7 304.8,1347.6 676.7,1114.7 1048.5,1300.2 1420.4,1385.9 1792.2,1271.6 2164.1,1379.9 2535.9,1182.8 2907.8,1258.4 3279.6,1358.0" fill="none" stroke="#FAFCFF" stroke-opacity="0" stroke-width="4.5"/><polyline points="-1182.6,1933.1 -810.7,1781.3 -438.9,1992.1 -67.0,1935.1 304.8,2073.9 676.7,1952.8 1048.5,1864.8 1420.4,1951.3 1792.2,1794.0 2164.1,1824.9 2535.9,1951.4 2907.8,1847.7 3279.6,1757.7" fill="none" stroke="#FAFCFF" stroke-opacity="0" stroke-width="5.5"/><g opacity="1.00"><rect x="422.4" y="216" width="1075.2" height="540" fill="none" stroke="#FAFCFF" stroke-opacity="0.6" stroke-width="2"/><rect x="442.4" y="236" width="318.40000000000003" height="189" fill="#3B82F6" fill-opacity="0.14"/><rect x="800.8" y="236" width="318.40000000000003" height="189" fill="#3B82F6" fill-opacity="0.2"/><rect x="1159.2" y="236" width="318.40000000000003" height="189" fill="#3B82F6" fill-opacity="0.26"/></g><g opacity="0.72"><rect x="460.79999999999995" y="324" width="517.9707771018149" height="10" fill="#3B82F6" fill-opacity="0.9"/><rect x="460.79999999999995" y="358" width="559.0618132464589" height="10" fill="#FAFCFF" fill-opacity="0.4"/><rect x="460.79999999999995" y="392" width="352.0004768371582" height="10" fill="#FAFCFF" fill-opacity="0.4"/><rect x="460.79999999999995" y="426" width="493.0137858130038" height="10" fill="#3B82F6" fill-opacity="0.9"/><rect x="460.79999999999995" y="460" width="110.68670590050263" height="10" fill="#FAFCFF" fill-opacity="0.4"/></g></svg>