<svg xmlns="http://www.w3.org/2000/svg" width="1920" height="1080" viewBox="0 0 1920 1080"><rect width="1920" height="1080" fill="#0A1F44"/><polyline points="-626.3,361.0 -341.9,408.3 -57.6,347.3 226.8,374.0 511.2,392.3 795.6,345.0 1079.9,409.6 1364.3,356.8 1648.7,356.7 1933.1,403.7 2217.5,397.0 2501.8,342.4 2786.2,421.8" fill="none" stroke="#FAFCFF" stroke-opacity="0.023773584905660394" stroke-width="1.5"/><polyline points="-626.3,554.9 -341.9,464.0 -57.6,547.1 226.8,507.2 511.2,493.1 795.6,573.4 1079.9,441.2 1364.3,454.1 1648.7,475.5 1933.1,475.5 2217.5,554.9 2501.8,577.5 2786.2,537.4" fill="none" stroke="#FAFCFF" stroke-opacity="0.030905660377358514" stroke-width="2.5"/><polyline points="-626.3,714.7 -341.9,821.8 -57.6,717.3 226.8,734.2 511.2,788.6 795.6,832.2 1079.9,676.1 1364.3,821.2 1648.7,698.8 1933.1,786.7 2217.5,692.4 2501.8,809.6 2786.2,686.1" fill="none" stroke="#FAFCFF" stroke-opacity="0.038037735849056634" stroke-width="3.5"/><polyline points="-626.3,1048.7 -341.9,1066.2 -57.6,1137.1 226.8,1210.6 511.2,1216.7 795.6,1038.6 1079.9,1180.4 1364.3,1246.0 1648.7,1158.6 1933.1,1241.4 2217.5,1090.7 2501.8,1148.4 2786.2,1224.6" fill="none" stroke="#FAFCFF" stroke-opacity="0.045169811320754746" stroke-width="4.5"/><polyline points="-626.3,1664.5 -341.9,1548.4 -57.6,1709.6 226.8,1666.0 511.2,1772.1 795.6,1679.5 1079.9,1612.2 1364.3,1678.4 1648.7,1558.1 1933.1,1581.7 2217.5,1678.4 2501.8,1599.1 2786.2,1530.3" fill="none" stroke="#FAFCFF" stroke-opacity="0.052301886792452866" stroke-width="5.5"/><circle cx="1319.8" cy="1082.9" r="3.6178586374167696" fill="#3B82F6" fill-opacity="0.12"/><circle cx="-242.3" cy="612.7" r="3.611678878938757" fill="#3B82F6" fill-opacity="0.13"/><circle cx="1315.9" cy="762.9" r="10.100864391309464" fill="#FF6A1A" fill-opacity="0.13"/><circle cx="1571.4" cy="851.4" r="4.129620982597343" fill="#3B82F6" fill-opacity="0.17"/><circle cx="2118.3" cy="978.9" r="6.199621414673476" fill="#FF6A1A" fill-opacity="0.16"/><circle cx="158.7" cy="571.1" r="9.846772438732613" fill="#3B82F6" fill-opacity="0.15"/><circle cx="1223.7" cy="910.0" r="4.342924930864928" fill="#3B82F6" fill-opacity="0.18"/><circle cx="-161.1" cy="1087.3" r="7.985380103625071" fill="#3B82F6" fill-opacity="0.10"/><circle cx="64.2" cy="348.0" r="6.7766271093289445" fill="#3B82F6" fill-opacity="0.18"/><circle cx="1951.2" cy="1009.4" r="7.889675741359258" fill="#3B82F6" fill-opacity="0.14"/><circle cx="254.6" cy="1170.4" r="6.743915972432117" fill="#FF6A1A" fill-opacity="0.15"/><circle cx="1635.7" cy="1195.1" r="9.547143296891441" fill="#FF6A1A" fill-opacity="0.13"/><circle cx="2612.3" cy="661.5" r="6.1061851927616315" fill="#FF6A1A" fill-opacity="0.12"/><circle cx="1036.8" cy="689.9" r="9.878711187756869" fill="#3B82F6" fill-opacity="0.16"/><circle cx="2125.9" cy="866.6" r="6.747826524545157" fill="#3B82F6" fill-opacity="0.18"/><circle cx="1392.0" cy="926.1" r="4.14120135807072" fill="#3B82F6" fill-opacity="0.10"/><circle cx="2757.4" cy="1158.0" r="4.202723706755427" fill="#FF6A1A" fill-opacity="0.14"/><circle cx="1305.4" cy="906.2" r="3.7703692229956887" fill="#3B82F6" fill-opacity="0.11"/><g opacity="1.00"><line x1="0" y1="842.4" x2="1920" y2="561.6" stroke="#FAFCFF" stroke-opacity="0.5" stroke-width="6"/><line x1="-38" y1="834" x2="-38" y2="862" stroke="#3B82F6" stroke-opacity="0.8" stroke-width="3"/><line x1="42" y1="822" x2="42" y2="850" stroke="#3B82F6" stroke-opacity="0.8" stroke-width="3"/><line x1="122" y1="811" x2="122" y2="839" stroke="#3B82F6" stroke-opacity="0.8" stroke-width="3"/><line x1="202" y1="799" x2="202" y2="827" stroke="#3B82F6" stroke-opacity="0.8" stroke-width="3"/><line x1="282" y1="787" x2="282" y2="815" stroke="#3B82F6" stroke-opacity="0.8" stroke-width="3"/><line x1="362" y1="776" x2="362" y2="804" stroke="#3B82F6" stroke-opacity="0.8" stroke-width="3"/><line x1="442" y1="764" x2="442" y2="792" stroke="#3B82F6" stroke-opacity="0.8" stroke-width="3"/><line x1="522" y1="752" x2="522" y2="780" stroke="#3B82F6" stroke-opacity="0.8" stroke-width="3"/><line x1="602" y1="740" x2="602" y2="768" stroke="#3B82F6" stroke-opacity="0.8" stroke-width="3"/><line x1="682" y1="729" x2="682" y2="757" stroke="#3B82F6" stroke-opacity="0.8" stroke-width="3"/><line x1="762" y1="717" x2="762" y2="745" stroke="#3B82F6" stroke-opacity="0.8" stroke-width="3"/><line x1="842" y1="705" x2="842" y2="733" stroke="#3B82F6" stroke-opacity="0.8" stroke-width="3"/><line x1="922" y1="694" x2="922" y2="722" stroke="#3B82F6" stroke-opacity="0.8" stroke-width="3"/><line x1="1002" y1="682" x2="1002" y2="710" stroke="#3B82F6" stroke-opacity="0.8" stroke-width="3"/><line x1="1082" y1="670" x2="1082" y2="698" stroke="#3B82F6" stroke-opacity="0.8" stroke-width="3"/><line x1="1162" y1="659" x2="1162" y2="687" stroke="#3B82F6" stroke-opacity="0.8" stroke-width="3"/><line x1="1242" y1="647" x2="1242" y2="675" stroke="#3B82F6" stroke-opacity="0.8" stroke-width="3"/><line x1="1322" y1="635" x2="1322" y2="663" stroke="#3B82F6" stroke-opacity="0.8" stroke-width="3"/><line x1="1402" y1="623" x2="1402" y2="651" stroke="#3B82F6" stroke-opacity="0.8" stroke-width="3"/><line x1="1482" y1="612" x2="1482" y2="640" stroke="#3B82F6" stroke-opacity="0.8" stroke-width="3"/><line x1="1562" y1="600" x2="1562" y2="628" stroke="#3B82F6" stroke-opacity="0.8" stroke-width="3"/><line x1="1642" y1="588" x2="1642" y2="616" stroke="#3B82F6" stroke-opacity="0.8" stroke-width="3"/><line x1="1722" y1="577" x2="1722" y2="605" stroke="#3B82F6" stroke-opacity="0.8" stroke-width="3"/><line x1="1802" y1="565" x2="1802" y2="593" stroke="#3B82F6" stroke-opacity="0.8" stroke-width="3"/><line x1="1882" y1="553" x2="1882" y2="581" stroke="#3B82F6" stroke-opacity="0.8" stroke-width="3"/><line x1="1962" y1="542" x2="1962" y2="570" stroke="#3B82F6" stroke-opacity="0.8" stroke-width="3"/><line x1="2042" y1="530" x2="2042" y2="558" stroke="#3B82F6" stroke-opacity="0.8" stroke-width="3"/></g><g opacity="0.06"><rect x="422.4" y="216" width="1075.2" height="540" fill="none" stroke="#FAFCFF" stroke-opacity="0.6" stroke-width="2"/><rect x="442.4" y="236" width="318.40000000000003" height="189" fill="#3B82F6" fill-opacity="0.14"/><rect x="800.8" y="236" width="318.40000000000003" height="189" fill="#3B82F6" fill-opacity="0.2"/><rect x="1159.2" y="236" width="318.40000000000003" height="189" fill="#3B82F6" fill-opacity="0.26"/></g></svg>