<svg xmlns="http://www.w3.org/2000/svg" width="1920" height="1080" viewBox="0 0 1920 1080"><rect width="1920" height="1080" fill="#0A1F44"/><polyline points="-157.5,487.9 43.0,521.3 243.5,478.3 443.9,497.1 644.4,510.0 844.8,476.6 1045.3,522.2 1245.7,484.9 1446.2,484.9 1646.6,518.0 1847.1,513.3 2047.5,474.8 2248.0,530.8" fill="none" stroke="#FAFCFF" stroke-opacity="0.1" stroke-width="1.5"/><polyline points="-157.5,624.6 43.0,560.5 243.5,619.1 443.9,591.0 644.4,581.0 844.8,637.7 1045.3,544.5 1245.7,553.5 1446.2,568.7 1646.6,568.6 1847.1,624.6 2047.5,640.6 2248.0,612.2" fill="none" stroke="#FAFCFF" stroke-opacity="0.13" stroke-width="2.5"/><polyline points="-157.5,737.3 43.0,812.7 243.5,739.1 443.9,751.0 644.4,789.4 844.8,820.1 1045.3,710.0 1245.7,812.3 1446.2,726.1 1646.6,788.0 1847.1,721.5 2047.5,804.2 2248.0,717.1" fill="none" stroke="#FAFCFF" stroke-opacity="0.16" stroke-width="3.5"/><polyline points="-157.5,972.7 43.0,985.0 243.5,1035.0 443.9,1086.8 644.4,1091.1 844.8,965.6 1045.3,1065.5 1245.7,1111.7 1446.2,1050.1 1646.6,1108.5 1847.1,1002.3 2047.5,1043.0 2248.0,1096.7" fill="none" stroke="#FAFCFF" stroke-opacity="0.19" stroke-width="4.5"/><polyline points="-157.5,1406.7 43.0,1324.9 243.5,1438.5 443.9,1407.8 644.4,1482.6 844.8,1417.3 1045.3,1369.9 1245.7,1416.5 1446.2,1331.7 1646.6,1348.4 1847.1,1416.6 2047.5,1360.7 2248.0,1312.2" fill="none" stroke="#FAFCFF" stroke-opacity="0.22" stroke-width="5.5"/><circle cx="1214.3" cy="996.8" r="2.5501760688657327" fill="#3B82F6" fill-opacity="0.59"/><circle cx="113.2" cy="665.3" r="2.5458200467649768" fill="#3B82F6" fill-opacity="0.75"/><circle cx="1211.6" cy="771.2" r="7.119952775149864" fill="#FF6A1A" fill-opacity="0.75"/><circle cx="1391.7" cy="833.6" r="2.9109099217942602" fill="#3B82F6" fill-opacity="0.69"/><circle cx="1777.2" cy="923.5" r="4.370023196654414" fill="#FF6A1A" fill-opacity="0.72"/><circle cx="395.9" cy="636.0" r="6.94084704391667" fill="#3B82F6" fill-opacity="0.42"/><circle cx="1146.6" cy="874.9" r="3.0612647805056477" fill="#3B82F6" fill-opacity="0.52"/><circle cx="170.5" cy="999.9" r="5.628778590310442" fill="#3B82F6" fill-opacity="0.72"/><circle cx="329.3" cy="478.7" r="4.776746140135779" fill="#3B82F6" fill-opacity="0.54"/><circle cx="1659.4" cy="945.0" r="5.56131797374235" fill="#3B82F6" fill-opacity="0.50"/><circle cx="463.5" cy="1058.5" r="4.753688534281051" fill="#FF6A1A" fill-opacity="0.74"/><circle cx="1437.0" cy="1075.9" r="6.7296428085837725" fill="#FF6A1A" fill-opacity="0.75"/><circle cx="2125.4" cy="699.7" r="4.304161359317689" fill="#FF6A1A" fill-opacity="0.74"/><circle cx="1014.9" cy="719.7" r="6.963360204765134" fill="#3B82F6" fill-opacity="0.72"/><circle cx="1782.5" cy="844.4" r="4.756445025734749" fill="#3B82F6" fill-opacity="0.63"/><circle cx="1265.3" cy="886.2" r="2.919072760467739" fill="#3B82F6" fill-opacity="0.63"/><circle cx="2227.7" cy="1049.7" r="2.962438971544515" fill="#FF6A1A" fill-opacity="0.75"/><circle cx="1204.2" cy="872.3" r="2.657678568153478" fill="#3B82F6" fill-opacity="0.73"/><g opacity="0.84"><line x1="0" y1="842.4" x2="1920" y2="561.6" stroke="#FAFCFF" stroke-opacity="0.5" stroke-width="6"/><line x1="-14" y1="830" x2="-14" y2="858" stroke="#3B82F6" stroke-opacity="0.8" stroke-width="3"/><line x1="66" y1="819" x2="66" y2="847" stroke="#3B82F6" stroke-opacity="0.8" stroke-width="3"/><line x1="146" y1="807" x2="146" y2="835" stroke="#3B82F6" stroke-opacity="0.8" stroke-width="3"/><line x1="226" y1="795" x2="226" y2="823" stroke="#3B82F6" stroke-opacity="0.8" stroke-width="3"/><line x1="306" y1="784" x2="306" y2="812" stroke="#3B82F6" stroke-opacity="0.8" stroke-width="3"/><line x1="386" y1="772" x2="386" y2="800" stroke="#3B82F6" stroke-opacity="0.8" stroke-width="3"/><line x1="466" y1="760" x2="466" y2="788" stroke="#3B82F6" stroke-opacity="0.8" stroke-width="3"/><line x1="546" y1="748" x2="546" y2="776" stroke="#3B82F6" stroke-opacity="0.8" stroke-width="3"/><line x1="626" y1="737" x2="626" y2="765" stroke="#3B82F6" stroke-opacity="0.8" stroke-width="3"/><line x1="706" y1="725" x2="706" y2="753" stroke="#3B82F6" stroke-opacity="0.8" stroke-width="3"/><line x1="786" y1="713" x2="786" y2="741" stroke="#3B82F6" stroke-opacity="0.8" stroke-width="3"/><line x1="866" y1="702" x2="866" y2="730" stroke="#3B82F6" stroke-opacity="0.8" stroke-width="3"/><line x1="946" y1="690" x2="946" y2="718" stroke="#3B82F6" stroke-opacity="0.8" stroke-width="3"/><line x1="1026" y1="678" x2="1026" y2="706" stroke="#3B82F6" stroke-opacity="0.8" stroke-width="3"/><line x1="1106" y1="667" x2="1106" y2="695" stroke="#3B82F6" stroke-opacity="0.8" stroke-width="3"/><line x1="1186" y1="655" x2="1186" y2="683" stroke="#3B82F6" stroke-opacity="0.8" stroke-width="3"/><line x1="1266" y1="643" x2="1266" y2="671" stroke="#3B82F6" stroke-opacity="0.8" stroke-width="3"/><line x1="1346" y1="631" x2="1346" y2="659" stroke="#3B82F6" stroke-opacity="0.8" stroke-width="3"/><line x1="1426" y1="620" x2="1426" y2="648" stroke="#3B82F6" stroke-opacity="0.8" stroke-width="3"/><line x1="1506" y1="608" x2="1506" y2="636" stroke="#3B82F6" stroke-opacity="0.8" stroke-width="3"/><line x1="1586" y1="596" x2="1586" y2="624" stroke="#3B82F6" stroke-opacity="0.8" stroke-width="3"/><line x1="1666" y1="585" x2="1666" y2="613" stroke="#3B82F6" stroke-opacity="0.8" stroke-width="3"/><line x1="1746" y1="573" x2="1746" y2="601" stroke="#3B82F6" stroke-opacity="0.8" stroke-width="3"/><line x1="1826" y1="561" x2="1826" y2="589" stroke="#3B82F6" stroke-opacity="0.8" stroke-width="3"/><line x1="1906" y1="550" x2="1906" y2="578" stroke="#3B82F6" stroke-opacity="0.8" stroke-width="3"/><line x1="1986" y1="538" x2="1986" y2="566" stroke="#3B82F6" stroke-opacity="0.8" stroke-width="3"/><line x1="2066" y1="526" x2="2066" y2="554" stroke="#3B82F6" stroke-opacity="0.8" stroke-width="3"/></g></svg>