<svg xmlns="http://www.w3.org/2000/svg" width="1920" height="1080" viewBox="0 0 1920 1080"><rect width="1920" height="1080" fill="#0A1F44"/><polyline points="-1047.9,259.0 -696.1,317.6 -344.3,242.1 7.4,275.2 359.2,297.8 711.0,239.3 1062.7,319.2 1414.5,253.8 1766.2,253.7 2118.0,311.9 2469.8,303.6 2821.5,236.1 3173.3,334.2" fill="none" stroke="#FAFCFF" stroke-opacity="0" stroke-width="1.5"/><polyline points="-1047.9,499.0 -696.1,386.5 -344.3,489.3 7.4,439.9 359.2,422.5 711.0,521.8 1062.7,358.3 1414.5,374.2 1766.2,400.8 2118.0,400.7 2469.8,498.9 2821.5,526.9 3173.3,477.2" fill="none" stroke="#FAFCFF" stroke-opacity="0" stroke-width="2.5"/><polyline points="-1047.9,696.7 -696.1,829.1 -344.3,699.8 7.4,720.7 359.2,788.0 711.0,841.9 1062.7,648.9 1414.5,828.4 1766.2,677.0 2118.0,785.6 2469.8,669.0 2821.5,814.0 3173.3,661.2" fill="none" stroke="#FAFCFF" stroke-opacity="0" stroke-width="3.5"/><polyline points="-1047.9,1109.7 -696.1,1131.4 -344.3,1219.0 7.4,1310.1 359.2,1317.6 711.0,1097.3 1062.7,1272.7 1414.5,1353.8 1766.2,1245.7 2118.0,1348.1 2469.8,1161.7 2821.5,1233.1 3173.3,1327.3" fill="none" stroke="#FAFCFF" stroke-opacity="0" stroke-width="4.5"/><polyline points="-1047.9,1871.4 -696.1,1727.9 -344.3,1927.2 7.4,1873.3 359.2,2004.6 711.0,1890.0 1062.7,1806.8 1414.5,1888.6 1766.2,1739.8 2118.0,1769.1 2469.8,1888.7 2821.5,1790.6 3173.3,1705.5" fill="none" stroke="#FAFCFF" stroke-opacity="0" stroke-width="5.5"/><g opacity="0.28"><line x1="0" y1="842.4" x2="1920" y2="561.6" stroke="#FAFCFF" stroke-opacity="0.5" stroke-width="6"/><line x1="-34" y1="833" x2="-34" y2="861" stroke="#3B82F6" stroke-opacity="0.8" stroke-width="3"/><line x1="46" y1="822" x2="46" y2="850" stroke="#3B82F6" stroke-opacity="0.8" stroke-width="3"/><line x1="126" y1="810" x2="126" y2="838" stroke="#3B82F6" stroke-opacity="0.8" stroke-width="3"/><line x1="206" y1="798" x2="206" y2="826" stroke="#3B82F6" stroke-opacity="0.8" stroke-width="3"/><line x1="286" y1="787" x2="286" y2="815" stroke="#3B82F6" stroke-opacity="0.8" stroke-width="3"/><line x1="366" y1="775" x2="366" y2="803" stroke="#3B82F6" stroke-opacity="0.8" stroke-width="3"/><line x1="446" y1="763" x2="446" y2="791" stroke="#3B82F6" stroke-opacity="0.8" stroke-width="3"/><line x1="526" y1="752" x2="526" y2="780" stroke="#3B82F6" stroke-opacity="0.8" stroke-width="3"/><line x1="606" y1="740" x2="606" y2="768" stroke="#3B82F6" stroke-opacity="0.8" stroke-width="3"/><line x1="686" y1="728" x2="686" y2="756" stroke="#3B82F6" stroke-opacity="0.8" stroke-width="3"/><line x1="766" y1="716" x2="766" y2="744" stroke="#3B82F6" stroke-opacity="0.8" stroke-width="3"/><line x1="846" y1="705" x2="846" y2="733" stroke="#3B82F6" stroke-opacity="0.8" stroke-width="3"/><line x1="926" y1="693" x2="926" y2="721" stroke="#3B82F6" stroke-opacity="0.8" stroke-width="3"/><line x1="1006" y1="681" x2="1006" y2="709" stroke="#3B82F6" stroke-opacity="0.8" stroke-width="3"/><line x1="1086" y1="670" x2="1086" y2="698" stroke="#3B82F6" stroke-opacity="0.8" stroke-width="3"/><line x1="1166" y1="658" x2="1166" y2="686" stroke="#3B82F6" stroke-opacity="0.8" stroke-width="3"/><line x1="1246" y1="646" x2="1246" y2="674" stroke="#3B82F6" stroke-opacity="0.8" stroke-width="3"/><line x1="1326" y1="635" x2="1326" y2="663" stroke="#3B82F6" stroke-opacity="0.8" stroke-width="3"/><line x1="1406" y1="623" x2="1406" y2="651" stroke="#3B82F6" stroke-opacity="0.8" stroke-width="3"/><line x1="1486" y1="611" x2="1486" y2="639" stroke="#3B82F6" stroke-opacity="0.8" stroke-width="3"/><line x1="1566" y1="599" x2="1566" y2="627" stroke="#3B82F6" stroke-opacity="0.8" stroke-width="3"/><line x1="1646" y1="588" x2="1646" y2="616" stroke="#3B82F6" stroke-opacity="0.8" stroke-width="3"/><line x1="1726" y1="576" x2="1726" y2="604" stroke="#3B82F6" stroke-opacity="0.8" stroke-width="3"/><line x1="1806" y1="564" x2="1806" y2="592" stroke="#3B82F6" stroke-opacity="0.8" stroke-width="3"/><line x1="1886" y1="553" x2="1886" y2="581" stroke="#3B82F6" stroke-opacity="0.8" stroke-width="3"/><line x1="1966" y1="541" x2="1966" y2="569" stroke="#3B82F6" stroke-opacity="0.8" stroke-width="3"/><line x1="2046" y1="529" x2="2046" y2="557" stroke="#3B82F6" stroke-opacity="0.8" stroke-width="3"/></g><g opacity="1.00"><rect x="422.4" y="216" width="1075.2" height="540" fill="none" stroke="#FAFCFF" stroke-opacity="0.6" stroke-width="2"/><rect x="442.4" y="236" width="318.40000000000003" height="189" fill="#3B82F6" fill-opacity="0.14"/><rect x="800.8" y="236" width="318.40000000000003" height="189" fill="#3B82F6" fill-opacity="0.2"/><rect x="1159.2" y="236" width="318.40000000000003" height="189" fill="#3B82F6" fill-opacity="0.26"/></g><g opacity="0.33"><rect x="460.79999999999995" y="324" width="517.9707771018149" height="10" fill="#3B82F6" fill-opacity="0.9"/><rect x="460.79999999999995" y="358" width="559.0618132464589" height="10" fill="#FAFCFF" fill-opacity="0.4"/></g></svg>