<svg xmlns="http://www.w3.org/2000/svg" width="1920" height="1080" viewBox="0 0 1920 1080"><rect width="1920" height="1080" fill="#0A1F44"/><polyline points="-0.9,540.6 164.7,568.2 330.4,532.6 496.0,548.2 661.6,558.8 827.2,531.3 992.8,568.9 1158.4,538.2 1324.0,538.1 1489.6,565.5 1655.2,561.6 1820.8,529.8 1986.4,576.0" fill="none" stroke="#FAFCFF" stroke-opacity="0.1" stroke-width="1.5"/><polyline points="-0.9,653.6 164.7,600.6 330.4,649.0 496.0,625.8 661.6,617.5 827.2,664.3 992.8,587.4 1158.4,594.8 1324.0,607.3 1489.6,607.3 1655.2,653.6 1820.8,666.7 1986.4,643.3" fill="none" stroke="#FAFCFF" stroke-opacity="0.13" stroke-width="2.5"/><polyline points="-0.9,746.6 164.7,809.0 330.4,748.1 496.0,758.0 661.6,789.7 827.2,815.0 992.8,724.1 1158.4,808.6 1324.0,737.4 1489.6,788.5 1655.2,733.6 1820.8,801.9 1986.4,729.9" fill="none" stroke="#FAFCFF" stroke-opacity="0.16" stroke-width="3.5"/><polyline points="-0.9,941.1 164.7,951.3 330.4,992.6 496.0,1035.4 661.6,1038.9 827.2,935.2 992.8,1017.8 1158.4,1056.0 1324.0,1005.1 1489.6,1053.3 1655.2,965.6 1820.8,999.2 1986.4,1043.5" fill="none" stroke="#FAFCFF" stroke-opacity="0.19" stroke-width="4.5"/><polyline points="-0.9,1299.7 164.7,1232.1 330.4,1326.0 496.0,1300.6 661.6,1362.4 827.2,1308.5 992.8,1269.3 1158.4,1307.8 1324.0,1237.7 1489.6,1251.5 1655.2,1307.8 1820.8,1261.7 1986.4,1221.6" fill="none" stroke="#FAFCFF" stroke-opacity="0.22" stroke-width="5.5"/><circle cx="1132.4" cy="961.0" r="2.106825339311083" fill="#3B82F6" fill-opacity="0.65"/><circle cx="222.8" cy="687.2" r="2.1032266161278037" fill="#3B82F6" fill-opacity="0.35"/><circle cx="1130.2" cy="774.7" r="5.88214167034197" fill="#FF6A1A" fill-opacity="0.36"/><circle cx="1278.9" cy="826.2" r="2.4048452412997223" fill="#3B82F6" fill-opacity="0.59"/><circle cx="1597.4" cy="900.5" r="3.6102901742716824" fill="#FF6A1A" fill-opacity="0.54"/><circle cx="456.3" cy="663.0" r="5.734173654492081" fill="#3B82F6" fill-opacity="0.73"/><circle cx="1076.5" cy="860.3" r="2.529060753353595" fill="#3B82F6" fill-opacity="0.73"/><circle cx="270.1" cy="963.6" r="4.650209649529155" fill="#3B82F6" fill-opacity="0.46"/><circle cx="401.3" cy="533.0" r="3.946303916172593" fill="#3B82F6" fill-opacity="0.72"/><circle cx="1500.1" cy="918.2" r="4.59447713045865" fill="#3B82F6" fill-opacity="0.71"/><circle cx="512.1" cy="1012.0" r="3.9272548987844735" fill="#FF6A1A" fill-opacity="0.48"/><circle cx="1316.4" cy="1026.4" r="5.5596874924573605" fill="#FF6A1A" fill-opacity="0.36"/><circle cx="1885.1" cy="715.6" r="3.555878485020628" fill="#FF6A1A" fill-opacity="0.39"/><circle cx="967.7" cy="732.2" r="5.7527728791976225" fill="#3B82F6" fill-opacity="0.55"/><circle cx="1601.9" cy="835.1" r="3.929532171367001" fill="#3B82F6" fill-opacity="0.67"/><circle cx="1174.5" cy="869.7" r="2.411588962083536" fill="#3B82F6" fill-opacity="0.61"/><circle cx="1969.6" cy="1004.8" r="2.447415912811335" fill="#FF6A1A" fill-opacity="0.42"/><circle cx="1124.0" cy="858.2" r="2.1956384186524756" fill="#3B82F6" fill-opacity="0.44"/></svg>