<svg xmlns="http://www.w3.org/2000/svg" width="1920" height="1080" viewBox="0 0 1920 1080"><rect width="1920" height="1080" fill="#0A1F44"/><polyline points="-1455.2,172.9 -1046.4,240.9 -637.7,153.2 -228.9,191.7 179.8,217.8 588.6,149.9 997.3,242.8 1406.1,166.8 1814.8,166.7 2223.5,234.2 2632.3,224.6 3041.0,146.2 3449.8,260.2" fill="none" stroke="#FAFCFF" stroke-opacity="0" stroke-width="1.5"/><polyline points="-1455.2,451.6 -1046.4,320.9 -637.7,440.4 -228.9,383.1 179.8,362.7 588.6,478.2 997.3,288.2 1406.1,306.7 1814.8,337.5 2223.5,337.4 2632.3,451.6 3041.0,484.1 3449.8,426.4" fill="none" stroke="#FAFCFF" stroke-opacity="0" stroke-width="2.5"/><polyline points="-1455.2,681.4 -1046.4,835.2 -637.7,685.0 -228.9,709.3 179.8,787.6 588.6,850.1 997.3,625.8 1406.1,834.4 1814.8,658.5 2223.5,784.7 2632.3,649.3 3041.0,817.7 3449.8,640.1" fill="none" stroke="#FAFCFF" stroke-opacity="0" stroke-width="3.5"/><polyline points="-1455.2,1161.3 -1046.4,1186.6 -637.7,1288.4 -228.9,1394.1 179.8,1402.8 588.6,1146.9 997.3,1350.7 1406.1,1444.9 1814.8,1319.3 2223.5,1438.3 2632.3,1221.7 3041.0,1304.7 3449.8,1414.2" fill="none" stroke="#FAFCFF" stroke-opacity="0" stroke-width="4.5"/><polyline points="-1455.2,2046.4 -1046.4,1879.6 -637.7,2111.2 -228.9,2048.6 179.8,2201.2 588.6,2068.0 997.3,1971.3 1406.1,2066.4 1814.8,1893.5 2223.5,1927.5 2632.3,2066.5 3041.0,1952.5 3449.8,1853.6" fill="none" stroke="#FAFCFF" stroke-opacity="0" stroke-width="5.5"/><g opacity="1.00"><rect x="422.4" y="216" width="1075.2" height="540" fill="none" stroke="#FAFCFF" stroke-opacity="0.6" stroke-width="2"/><rect x="442.4" y="236" width="318.40000000000003" height="189" fill="#3B82F6" fill-opacity="0.14"/><rect x="800.8" y="236" width="318.40000000000003" height="189" fill="#3B82F6" fill-opacity="0.2"/><rect x="1159.2" y="236" width="318.40000000000003" height="189" fill="#3B82F6" fill-opacity="0.26"/></g><g opacity="1.00"><rect x="460.79999999999995" y="324" width="517.9707771018149" height="10" fill="#3B82F6" fill-opacity="0.9"/><rect x="460.79999999999995" y="358" width="559.0618132464589" height="10" fill="#FAFCFF" fill-opacity="0.4"/><rect x="460.79999999999995" y="392" width="352.0004768371582" height="10" fill="#FAFCFF" fill-opacity="0.4"/><rect x="460.79999999999995" y="426" width="493.0137858130038" height="10" fill="#3B82F6" fill-opacity="0.9"/><rect x="460.79999999999995" y="460" width="575.1368051692843" height="10" fill="#FAFCFF" fill-opacity="0.4"/><rect x="460.79999999999995" y="494" width="457.9308180771768" height="10" fill="#FAFCFF" fill-opacity="0.4"/><rect x="460.79999999999995" y="528" width="514.2663277834654" height="10" fill="#3B82F6" fill-opacity="0.9"/><rect x="460.79999999999995" y="562" width="778.5601877756417" height="10" fill="#FAFCFF" fill-opacity="0.4"/><rect x="460.79999999999995" y="596" width="771.863665021956" height="10" fill="#FAFCFF" fill-opacity="0.4"/></g><rect width="1920" height="1080" fill="#0A1F44" fill-opacity="0.20"/><circle cx="960" cy="540" r="7" fill="#3B82F6" fill-opacity="0.28"/><rect x="800" y="580" width="320" height="2" fill="#FAFCFF" fill-opacity="0.11"/></svg>