<svg xmlns="http://www.w3.org/2000/svg" width="1920" height="1080" viewBox="0 0 1920 1080"><rect width="1920" height="1080" fill="#0A1F44"/><polyline points="-458.5,404.3 -202.8,446.9 52.9,392.0 308.6,416.1 564.3,432.5 820.0,389.9 1075.8,448.1 1331.5,400.6 1587.2,400.5 1842.9,442.7 2098.6,436.7 2354.3,387.7 2610.0,459.0" fill="none" stroke="#FAFCFF" stroke-opacity="0.0539622641509434" stroke-width="1.5"/><polyline points="-458.5,578.7 -202.8,497.0 52.9,571.7 308.6,535.8 564.3,523.1 820.0,595.4 1075.8,476.5 1331.5,488.0 1587.2,507.4 1842.9,507.3 2098.6,578.7 2354.3,599.1 2610.0,562.9" fill="none" stroke="#FAFCFF" stroke-opacity="0.07015094339622642" stroke-width="2.5"/><polyline points="-458.5,722.4 -202.8,818.7 52.9,724.7 308.6,740.0 564.3,788.9 820.0,828.0 1075.8,687.7 1331.5,818.2 1587.2,708.1 1842.9,787.1 2098.6,702.4 2354.3,807.7 2610.0,696.6" fill="none" stroke="#FAFCFF" stroke-opacity="0.08633962264150943" stroke-width="3.5"/><polyline points="-458.5,1022.7 -202.8,1038.5 52.9,1102.2 308.6,1168.3 564.3,1173.8 820.0,1013.7 1075.8,1141.2 1331.5,1200.1 1587.2,1121.5 1842.9,1196.0 2098.6,1060.5 2354.3,1112.4 2610.0,1180.9" fill="none" stroke="#FAFCFF" stroke-opacity="0.10252830188679245" stroke-width="4.5"/><polyline points="-458.5,1576.4 -202.8,1472.1 52.9,1617.0 308.6,1577.8 564.3,1673.2 820.0,1589.9 1075.8,1529.4 1331.5,1588.9 1587.2,1480.8 1842.9,1502.0 2098.6,1589.0 2354.3,1517.7 2610.0,1455.8" fill="none" stroke="#FAFCFF" stroke-opacity="0.11871698113207547" stroke-width="5.5"/><circle cx="1291.4" cy="1053.5" r="3.2531416606759893" fill="#3B82F6" fill-opacity="0.37"/><circle cx="-113.2" cy="630.7" r="3.2475848847561615" fill="#3B82F6" fill-opacity="0.23"/><circle cx="1288.0" cy="765.7" r="9.082594444228997" fill="#FF6A1A" fill-opacity="0.23"/><circle cx="1517.6" cy="845.3" r="3.7133131522467324" fill="#3B82F6" fill-opacity="0.28"/><circle cx="2009.4" cy="960.0" r="5.574636470288918" fill="#FF6A1A" fill-opacity="0.25"/><circle cx="247.4" cy="593.2" r="8.85411754686728" fill="#3B82F6" fill-opacity="0.40"/><circle cx="1205.0" cy="898.0" r="3.905113891313592" fill="#3B82F6" fill-opacity="0.38"/><circle cx="-40.2" cy="1057.4" r="7.180372506202847" fill="#3B82F6" fill-opacity="0.29"/><circle cx="162.4" cy="392.6" r="6.093474117597126" fill="#3B82F6" fill-opacity="0.37"/><circle cx="1859.2" cy="987.4" r="7.094316117825647" fill="#3B82F6" fill-opacity="0.40"/><circle cx="333.6" cy="1132.2" r="6.064060596265313" fill="#FF6A1A" fill-opacity="0.22"/><circle cx="1575.5" cy="1154.4" r="8.584694072440959" fill="#FF6A1A" fill-opacity="0.22"/><circle cx="2453.7" cy="674.5" r="5.490619570630666" fill="#FF6A1A" fill-opacity="0.25"/><circle cx="1037.0" cy="700.1" r="8.882836544886196" fill="#3B82F6" fill-opacity="0.26"/><circle cx="2016.2" cy="859.0" r="6.06757692491995" fill="#3B82F6" fill-opacity="0.33"/><circle cx="1356.4" cy="912.5" r="3.7237261079960513" fill="#3B82F6" fill-opacity="0.36"/><circle cx="2584.1" cy="1121.0" r="3.779046377698949" fill="#FF6A1A" fill-opacity="0.19"/><circle cx="1278.5" cy="894.6" r="3.390277626827261" fill="#3B82F6" fill-opacity="0.28"/><g opacity="1.00"><line x1="0" y1="842.4" x2="1920" y2="561.6" stroke="#FAFCFF" stroke-opacity="0.5" stroke-width="6"/><line x1="-26" y1="832" x2="-26" y2="860" stroke="#3B82F6" stroke-opacity="0.8" stroke-width="3"/><line x1="54" y1="821" x2="54" y2="849" stroke="#3B82F6" stroke-opacity="0.8" stroke-width="3"/><line x1="134" y1="809" x2="134" y2="837" stroke="#3B82F6" stroke-opacity="0.8" stroke-width="3"/><line x1="214" y1="797" x2="214" y2="825" stroke="#3B82F6" stroke-opacity="0.8" stroke-width="3"/><line x1="294" y1="785" x2="294" y2="813" stroke="#3B82F6" stroke-opacity="0.8" stroke-width="3"/><line x1="374" y1="774" x2="374" y2="802" stroke="#3B82F6" stroke-opacity="0.8" stroke-width="3"/><line x1="454" y1="762" x2="454" y2="790" stroke="#3B82F6" stroke-opacity="0.8" stroke-width="3"/><line x1="534" y1="750" x2="534" y2="778" stroke="#3B82F6" stroke-opacity="0.8" stroke-width="3"/><line x1="614" y1="739" x2="614" y2="767" stroke="#3B82F6" stroke-opacity="0.8" stroke-width="3"/><line x1="694" y1="727" x2="694" y2="755" stroke="#3B82F6" stroke-opacity="0.8" stroke-width="3"/><line x1="774" y1="715" x2="774" y2="743" stroke="#3B82F6" stroke-opacity="0.8" stroke-width="3"/><line x1="854" y1="704" x2="854" y2="732" stroke="#3B82F6" stroke-opacity="0.8" stroke-width="3"/><line x1="934" y1="692" x2="934" y2="720" stroke="#3B82F6" stroke-opacity="0.8" stroke-width="3"/><line x1="1014" y1="680" x2="1014" y2="708" stroke="#3B82F6" stroke-opacity="0.8" stroke-width="3"/><line x1="1094" y1="668" x2="1094" y2="696" stroke="#3B82F6" stroke-opacity="0.8" stroke-width="3"/><line x1="1174" y1="657" x2="1174" y2="685" stroke="#3B82F6" stroke-opacity="0.8" stroke-width="3"/><line x1="1254" y1="645" x2="1254" y2="673" stroke="#3B82F6" stroke-opacity="0.8" stroke-width="3"/><line x1="1334" y1="633" x2="1334" y2="661" stroke="#3B82F6" stroke-opacity="0.8" stroke-width="3"/><line x1="1414" y1="622" x2="1414" y2="650" stroke="#3B82F6" stroke-opacity="0.8" stroke-width="3"/><line x1="1494" y1="610" x2="1494" y2="638" stroke="#3B82F6" stroke-opacity="0.8" stroke-width="3"/><line x1="1574" y1="598" x2="1574" y2="626" stroke="#3B82F6" stroke-opacity="0.8" stroke-width="3"/><line x1="1654" y1="587" x2="1654" y2="615" stroke="#3B82F6" stroke-opacity="0.8" stroke-width="3"/><line x1="1734" y1="575" x2="1734" y2="603" stroke="#3B82F6" stroke-opacity="0.8" stroke-width="3"/><line x1="1814" y1="563" x2="1814" y2="591" stroke="#3B82F6" stroke-opacity="0.8" stroke-width="3"/><line x1="1894" y1="551" x2="1894" y2="579" stroke="#3B82F6" stroke-opacity="0.8" stroke-width="3"/><line x1="1974" y1="540" x2="1974" y2="568" stroke="#3B82F6" stroke-opacity="0.8" stroke-width="3"/><line x1="2054" y1="528" x2="2054" y2="556" stroke="#3B82F6" stroke-opacity="0.8" stroke-width="3"/></g></svg>