<svg xmlns="http://www.w3.org/2000/svg" width="1920" height="1080" viewBox="0 0 1920 1080"><rect width="1920" height="1080" fill="#0A1F44"/><polyline points="-76.4,512.9 107.5,543.5 291.4,504.1 475.3,521.4 659.2,533.2 843.1,502.6 1027.0,544.4 1210.9,510.2 1394.8,510.2 1578.7,540.6 1762.6,536.2 1946.5,501.0 2130.4,552.3" fill="none" stroke="#FAFCFF" stroke-opacity="0.1" stroke-width="1.5"/><polyline points="-76.4,638.4 107.5,579.6 291.4,633.3 475.3,607.5 659.2,598.4 843.1,650.3 1027.0,564.8 1210.9,573.1 1394.8,587.0 1578.7,587.0 1762.6,638.4 1946.5,653.0 2130.4,627.0" fill="none" stroke="#FAFCFF" stroke-opacity="0.13" stroke-width="2.5"/><polyline points="-76.4,741.7 107.5,811.0 291.4,743.4 475.3,754.3 659.2,789.5 843.1,817.7 1027.0,716.7 1210.9,810.6 1394.8,731.4 1578.7,788.2 1762.6,727.3 1946.5,803.1 2130.4,723.2" fill="none" stroke="#FAFCFF" stroke-opacity="0.16" stroke-width="3.5"/><polyline points="-76.4,957.7 107.5,969.0 291.4,1014.8 475.3,1062.4 659.2,1066.3 843.1,951.2 1027.0,1042.9 1210.9,1085.3 1394.8,1028.7 1578.7,1082.3 1762.6,984.8 1946.5,1022.2 2130.4,1071.4" fill="none" stroke="#FAFCFF" stroke-opacity="0.19" stroke-width="4.5"/><polyline points="-76.4,1355.9 107.5,1280.8 291.4,1385.0 475.3,1356.9 659.2,1425.5 843.1,1365.6 1027.0,1322.1 1210.9,1364.9 1394.8,1287.1 1578.7,1302.4 1762.6,1364.9 1946.5,1313.6 2130.4,1269.2" fill="none" stroke="#FAFCFF" stroke-opacity="0.22" stroke-width="5.5"/><circle cx="1182.1" cy="979.8" r="2.3395991373617497" fill="#3B82F6" fill-opacity="0.38"/><circle cx="172.0" cy="675.7" r="2.335602807197068" fill="#3B82F6" fill-opacity="0.67"/><circle cx="1179.7" cy="772.8" r="6.532033444344135" fill="#FF6A1A" fill-opacity="0.67"/><circle cx="1344.8" cy="830.1" r="2.6705459380287895" fill="#3B82F6" fill-opacity="0.75"/><circle cx="1698.5" cy="912.6" r="4.009175141264258" fill="#FF6A1A" fill-opacity="0.74"/><circle cx="431.3" cy="648.8" r="6.3677170979531565" fill="#3B82F6" fill-opacity="0.50"/><circle cx="1120.0" cy="868.0" r="2.8084854717080345" fill="#3B82F6" fill-opacity="0.68"/><circle cx="224.5" cy="982.6" r="5.163990712275777" fill="#3B82F6" fill-opacity="0.59"/><circle cx="370.2" cy="504.5" r="4.382313552894585" fill="#3B82F6" fill-opacity="0.70"/><circle cx="1590.5" cy="932.3" r="5.102100554080229" fill="#3B82F6" fill-opacity="0.43"/><circle cx="493.3" cy="1036.4" r="4.361159893966501" fill="#FF6A1A" fill-opacity="0.73"/><circle cx="1386.4" cy="1052.4" r="6.173952732886482" fill="#FF6A1A" fill-opacity="0.67"/><circle cx="2018.0" cy="707.3" r="3.9487517455233516" fill="#FF6A1A" fill-opacity="0.64"/><circle cx="999.2" cy="725.6" r="6.388371268597845" fill="#3B82F6" fill-opacity="0.75"/><circle cx="1703.4" cy="840.0" r="4.363688772307864" fill="#3B82F6" fill-opacity="0.74"/><circle cx="1228.9" cy="878.4" r="2.6780347426458717" fill="#3B82F6" fill-opacity="0.43"/><circle cx="2111.8" cy="1028.4" r="2.7178200544384805" fill="#FF6A1A" fill-opacity="0.70"/><circle cx="1172.8" cy="865.6" r="2.4382247803785115" fill="#3B82F6" fill-opacity="0.60"/><g opacity="0.49"><line x1="0" y1="842.4" x2="1920" y2="561.6" stroke="#FAFCFF" stroke-opacity="0.5" stroke-width="6"/><line x1="-70" y1="839" x2="-70" y2="867" stroke="#3B82F6" stroke-opacity="0.8" stroke-width="3"/><line x1="10" y1="827" x2="10" y2="855" stroke="#3B82F6" stroke-opacity="0.8" stroke-width="3"/><line x1="90" y1="815" x2="90" y2="843" stroke="#3B82F6" stroke-opacity="0.8" stroke-width="3"/><line x1="170" y1="804" x2="170" y2="832" stroke="#3B82F6" stroke-opacity="0.8" stroke-width="3"/><line x1="250" y1="792" x2="250" y2="820" stroke="#3B82F6" stroke-opacity="0.8" stroke-width="3"/><line x1="330" y1="780" x2="330" y2="808" stroke="#3B82F6" stroke-opacity="0.8" stroke-width="3"/><line x1="410" y1="768" x2="410" y2="796" stroke="#3B82F6" stroke-opacity="0.8" stroke-width="3"/><line x1="490" y1="757" x2="490" y2="785" stroke="#3B82F6" stroke-opacity="0.8" stroke-width="3"/><line x1="570" y1="745" x2="570" y2="773" stroke="#3B82F6" stroke-opacity="0.8" stroke-width="3"/><line x1="650" y1="733" x2="650" y2="761" stroke="#3B82F6" stroke-opacity="0.8" stroke-width="3"/><line x1="730" y1="722" x2="730" y2="750" stroke="#3B82F6" stroke-opacity="0.8" stroke-width="3"/><line x1="810" y1="710" x2="810" y2="738" stroke="#3B82F6" stroke-opacity="0.8" stroke-width="3"/><line x1="890" y1="698" x2="890" y2="726" stroke="#3B82F6" stroke-opacity="0.8" stroke-width="3"/><line x1="970" y1="687" x2="970" y2="715" stroke="#3B82F6" stroke-opacity="0.8" stroke-width="3"/><line x1="1050" y1="675" x2="1050" y2="703" stroke="#3B82F6" stroke-opacity="0.8" stroke-width="3"/><line x1="1130" y1="663" x2="1130" y2="691" stroke="#3B82F6" stroke-opacity="0.8" stroke-width="3"/><line x1="1210" y1="651" x2="1210" y2="679" stroke="#3B82F6" stroke-opacity="0.8" stroke-width="3"/><line x1="1290" y1="640" x2="1290" y2="668" stroke="#3B82F6" stroke-opacity="0.8" stroke-width="3"/><line x1="1370" y1="628" x2="1370" y2="656" stroke="#3B82F6" stroke-opacity="0.8" stroke-width="3"/><line x1="1450" y1="616" x2="1450" y2="644" stroke="#3B82F6" stroke-opacity="0.8" stroke-width="3"/><line x1="1530" y1="605" x2="1530" y2="633" stroke="#3B82F6" stroke-opacity="0.8" stroke-width="3"/><line x1="1610" y1="593" x2="1610" y2="621" stroke="#3B82F6" stroke-opacity="0.8" stroke-width="3"/><line x1="1690" y1="581" x2="1690" y2="609" stroke="#3B82F6" stroke-opacity="0.8" stroke-width="3"/><line x1="1770" y1="570" x2="1770" y2="598" stroke="#3B82F6" stroke-opacity="0.8" stroke-width="3"/><line x1="1850" y1="558" x2="1850" y2="586" stroke="#3B82F6" stroke-opacity="0.8" stroke-width="3"/><line x1="1930" y1="546" x2="1930" y2="574" stroke="#3B82F6" stroke-opacity="0.8" stroke-width="3"/><line x1="2010" y1="534" x2="2010" y2="562" stroke="#3B82F6" stroke-opacity="0.8" stroke-width="3"/></g></svg>