<svg xmlns="http://www.w3.org/2000/svg" width="1920" height="1080" viewBox="0 0 1920 1080"><rect width="1920" height="1080" fill="#0A1F44"/><polyline points="-1386.8,185.7 -986.5,252.3 -586.3,166.4 -186.0,204.1 214.3,229.7 614.5,163.2 1014.8,254.2 1415.1,179.8 1815.3,179.6 2215.6,245.8 2615.8,236.4 3016.1,159.6 3416.4,271.2" fill="none" stroke="#FAFCFF" stroke-opacity="0" stroke-width="1.5"/><polyline points="-1386.8,458.7 -986.5,330.7 -586.3,447.7 -186.0,391.5 214.3,371.6 614.5,484.7 1014.8,298.7 1415.1,316.7 1815.3,346.9 2215.6,346.9 2615.8,458.7 3016.1,490.5 3416.4,434.0" fill="none" stroke="#FAFCFF" stroke-opacity="0" stroke-width="2.5"/><polyline points="-1386.8,683.6 -986.5,834.3 -586.3,687.2 -186.0,711.0 214.3,787.6 614.5,848.9 1014.8,629.2 1415.1,833.5 1815.3,661.2 2215.6,784.9 2615.8,652.2 3016.1,817.2 3416.4,643.3" fill="none" stroke="#FAFCFF" stroke-opacity="0" stroke-width="3.5"/><polyline points="-1386.8,1153.6 -986.5,1178.4 -586.3,1278.0 -186.0,1381.6 214.3,1390.1 614.5,1139.5 1014.8,1339.1 1415.1,1431.4 1815.3,1308.3 2215.6,1424.9 2615.8,1212.8 3016.1,1294.1 3416.4,1401.3" fill="none" stroke="#FAFCFF" stroke-opacity="0" stroke-width="4.5"/><polyline points="-1386.8,2020.3 -986.5,1857.0 -586.3,2083.8 -186.0,2022.5 214.3,2171.9 614.5,2041.5 1014.8,1946.8 1415.1,2040.0 1815.3,1870.6 2215.6,1903.9 2615.8,2040.0 3016.1,1928.4 3416.4,1831.6" fill="none" stroke="#FAFCFF" stroke-opacity="0" stroke-width="5.5"/><g opacity="1.00"><rect x="422.4" y="216" width="1075.2" height="540" fill="none" stroke="#FAFCFF" stroke-opacity="0.6" stroke-width="2"/><rect x="442.4" y="236" width="318.40000000000003" height="189" fill="#3B82F6" fill-opacity="0.14"/><rect x="800.8" y="236" width="318.40000000000003" height="189" fill="#3B82F6" fill-opacity="0.2"/><rect x="1159.2" y="236" width="318.40000000000003" height="189" fill="#3B82F6" fill-opacity="0.26"/></g><g opacity="1.00"><rect x="460.79999999999995" y="324" width="517.9707771018149" height="10" fill="#3B82F6" fill-opacity="0.9"/><rect x="460.79999999999995" y="358" width="559.0618132464589" height="10" fill="#FAFCFF" fill-opacity="0.4"/><rect x="460.79999999999995" y="392" width="352.0004768371582" height="10" fill="#FAFCFF" fill-opacity="0.4"/><rect x="460.79999999999995" y="426" width="493.0137858130038" height="10" fill="#3B82F6" fill-opacity="0.9"/><rect x="460.79999999999995" y="460" width="575.1368051692843" height="10" fill="#FAFCFF" fill-opacity="0.4"/><rect x="460.79999999999995" y="494" width="457.9308180771768" height="10" fill="#FAFCFF" fill-opacity="0.4"/><rect x="460.79999999999995" y="528" width="514.2663277834654" height="10" fill="#3B82F6" fill-opacity="0.9"/><rect x="460.79999999999995" y="562" width="778.5601877756417" height="10" fill="#FAFCFF" fill-opacity="0.4"/><rect x="460.79999999999995" y="596" width="195.1504360621571" height="10" fill="#FAFCFF" fill-opacity="0.4"/></g></svg>