<svg xmlns="http://www.w3.org/2000/svg" width="1920" height="1080" viewBox="0 0 1920 1080"><rect width="1920" height="1080" fill="#0A1F44"/><polyline points="-1530.5,162.1 -1114.7,231.3 -698.8,142.1 -282.9,181.2 133.0,207.8 548.9,138.7 964.7,233.2 1380.6,155.9 1796.5,155.8 2212.4,224.5 2628.3,214.7 3044.1,135.0 3460.0,251.0" fill="none" stroke="#FAFCFF" stroke-opacity="0" stroke-width="1.5"/><polyline points="-1530.5,445.7 -1114.7,312.7 -698.8,434.3 -282.9,375.9 133.0,355.3 548.9,472.7 964.7,279.4 1380.6,298.2 1796.5,329.6 2212.4,329.5 2628.3,445.7 3044.1,478.8 3460.0,420.0" fill="none" stroke="#FAFCFF" stroke-opacity="0" stroke-width="2.5"/><polyline points="-1530.5,679.4 -1114.7,836.0 -698.8,683.1 -282.9,707.9 133.0,787.5 548.9,851.2 964.7,622.9 1380.6,835.2 1796.5,656.2 2212.4,784.6 2628.3,646.8 3044.1,818.2 3460.0,637.5" fill="none" stroke="#FAFCFF" stroke-opacity="0" stroke-width="3.5"/><polyline points="-1530.5,1167.8 -1114.7,1193.5 -698.8,1297.0 -282.9,1404.6 133.0,1413.5 548.9,1153.1 964.7,1360.5 1380.6,1456.3 1796.5,1328.5 2212.4,1449.6 2628.3,1229.2 3044.1,1313.7 3460.0,1425.1" fill="none" stroke="#FAFCFF" stroke-opacity="0" stroke-width="4.5"/><polyline points="-1530.5,2068.3 -1114.7,1898.6 -698.8,2134.3 -282.9,2070.6 133.0,2225.8 548.9,2090.3 964.7,1991.9 1380.6,2088.7 1796.5,1912.7 2212.4,1947.3 2628.3,2088.8 3044.1,1972.8 3460.0,1872.2" fill="none" stroke="#FAFCFF" stroke-opacity="0" stroke-width="5.5"/><g opacity="0.16"><rect x="460.79999999999995" y="324" width="517.9707771018149" height="10" fill="#3B82F6" fill-opacity="0.9"/><rect x="460.79999999999995" y="358" width="559.0618132464589" height="10" fill="#FAFCFF" fill-opacity="0.4"/><rect x="460.79999999999995" y="392" width="352.0004768371582" height="10" fill="#FAFCFF" fill-opacity="0.4"/><rect x="460.79999999999995" y="426" width="493.0137858130038" height="10" fill="#3B82F6" fill-opacity="0.9"/><rect x="460.79999999999995" y="460" width="575.1368051692843" height="10" fill="#FAFCFF" fill-opacity="0.4"/><rect x="460.79999999999995" y="494" width="457.9308180771768" height="10" fill="#FAFCFF" fill-opacity="0.4"/><rect x="460.79999999999995" y="528" width="514.2663277834654" height="10" fill="#3B82F6" fill-opacity="0.9"/><rect x="460.79999999999995" y="562" width="778.5601877756417" height="10" fill="#FAFCFF" fill-opacity="0.4"/><rect x="460.79999999999995" y="596" width="771.863665021956" height="10" fill="#FAFCFF" fill-opacity="0.4"/></g><rect width="1920" height="1080" fill="#0A1F44" fill-opacity="0.64"/><circle cx="960" cy="540" r="7" fill="#3B82F6" fill-opacity="0.91"/><rect x="800" y="580" width="320" height="2" fill="#FAFCFF" fill-opacity="0.36"/></svg>