<svg xmlns="http://www.w3.org/2000/svg" width="1920" height="1080" viewBox="0 0 1920 1080"><rect width="1920" height="1080" fill="#0A1F44"/><polyline points="-1357.1,191.6 -960.8,257.5 -564.4,172.5 -168.1,209.8 228.3,235.2 624.7,169.3 1021.0,259.4 1417.4,185.7 1813.7,185.6 2210.1,251.1 2606.5,241.8 3002.8,165.8 3399.2,276.3" fill="none" stroke="#FAFCFF" stroke-opacity="0" stroke-width="1.5"/><polyline points="-1357.1,461.9 -960.8,335.2 -564.4,451.1 -168.1,395.4 228.3,375.7 624.7,487.7 1021.0,303.5 1417.4,321.3 1813.7,351.3 2210.1,351.2 2606.5,461.9 3002.8,493.4 3399.2,437.4" fill="none" stroke="#FAFCFF" stroke-opacity="0" stroke-width="2.5"/><polyline points="-1357.1,684.7 -960.8,833.9 -564.4,688.2 -168.1,711.8 228.3,787.7 624.7,848.3 1021.0,630.8 1417.4,833.1 1813.7,662.5 2210.1,784.9 2606.5,653.6 3002.8,816.9 3399.2,644.7" fill="none" stroke="#FAFCFF" stroke-opacity="0" stroke-width="3.5"/><polyline points="-1357.1,1150.1 -960.8,1174.6 -564.4,1273.3 -168.1,1375.9 228.3,1384.3 624.7,1136.1 1021.0,1333.7 1417.4,1425.1 1813.7,1303.3 2210.1,1418.7 2606.5,1208.7 3002.8,1289.2 3399.2,1395.3" fill="none" stroke="#FAFCFF" stroke-opacity="0" stroke-width="4.5"/><polyline points="-1357.1,2008.4 -960.8,1846.6 -564.4,2071.2 -168.1,2010.5 228.3,2158.4 624.7,2029.3 1021.0,1935.5 1417.4,2027.8 1813.7,1860.1 2210.1,1893.0 2606.5,2027.9 3002.8,1917.3 3399.2,1821.4" fill="none" stroke="#FAFCFF" stroke-opacity="0" stroke-width="5.5"/><g opacity="1.00"><rect x="422.4" y="216" width="1075.2" height="540" fill="none" stroke="#FAFCFF" stroke-opacity="0.6" stroke-width="2"/><rect x="442.4" y="236" width="318.40000000000003" height="189" fill="#3B82F6" fill-opacity="0.14"/><rect x="800.8" y="236" width="318.40000000000003" height="189" fill="#3B82F6" fill-opacity="0.2"/><rect x="1159.2" y="236" width="318.40000000000003" height="189" fill="#3B82F6" fill-opacity="0.26"/></g><g opacity="1.00"><rect x="460.79999999999995" y="324" width="517.9707771018149" height="10" fill="#3B82F6" fill-opacity="0.9"/><rect x="460.79999999999995" y="358" width="559.0618132464589" height="10" fill="#FAFCFF" fill-opacity="0.4"/><rect x="460.79999999999995" y="392" width="352.0004768371582" height="10" fill="#FAFCFF" fill-opacity="0.4"/><rect x="460.79999999999995" y="426" width="493.0137858130038" height="10" fill="#3B82F6" fill-opacity="0.9"/><rect x="460.79999999999995" y="460" width="575.1368051692843" height="10" fill="#FAFCFF" fill-opacity="0.4"/><rect x="460.79999999999995" y="494" width="457.9308180771768" height="10" fill="#FAFCFF" fill-opacity="0.4"/><rect x="460.79999999999995" y="528" width="514.2663277834654" height="10" fill="#3B82F6" fill-opacity="0.9"/><rect x="460.79999999999995" y="562" width="552.3370388747935" height="10" fill="#FAFCFF" fill-opacity="0.4"/></g></svg>