<svg xmlns="http://www.w3.org/2000/svg" width="1200" height="800" viewBox="0 0 1200 800">
<defs><linearGradient id="g0" x1="0" y1="0" x2="1" y2="1">
      <stop offset="0" stop-color="#2E7CF6"/><stop offset="1" stop-color="#9AD7FF"/></linearGradient><linearGradient id="g1" x1="0" y1="0" x2="1" y2="1">
      <stop offset="0" stop-color="#9AD7FF"/><stop offset="1" stop-color="#EAF6FF"/></linearGradient><linearGradient id="g2" x1="0" y1="0" x2="1" y2="1">
      <stop offset="0" stop-color="#EAF6FF"/><stop offset="1" stop-color="#2E7CF6"/></linearGradient><linearGradient id="g3" x1="0" y1="0" x2="1" y2="1">
      <stop offset="0" stop-color="#2E7CF6"/><stop offset="1" stop-color="#9AD7FF"/></linearGradient><linearGradient id="g4" x1="0" y1="0" x2="1" y2="1">
      <stop offset="0" stop-color="#9AD7FF"/><stop offset="1" stop-color="#EAF6FF"/></linearGradient><linearGradient id="g5" x1="0" y1="0" x2="1" y2="1">
      <stop offset="0" stop-color="#EAF6FF"/><stop offset="1" stop-color="#2E7CF6"/></linearGradient><linearGradient id="g6" x1="0" y1="0" x2="1" y2="1">
      <stop offset="0" stop-color="#2E7CF6"/><stop offset="1" stop-color="#9AD7FF"/></linearGradient>
<radialGradient id="vig" cx="0.5" cy="0.42" r="0.85">
  <stop offset="0" stop-color="#0A2B55" stop-opacity="0"/><stop offset="1" stop-color="#0A2B55" stop-opacity="0.55"/>
</radialGradient></defs>
<rect width="1200" height="800" fill="#0A2B55"/>
<g transform="rotate(4.7 600 400)" opacity="0.84">
      <path d="M -100 270.21150160580873 C 417.65406439080834 181.73353406897397, 888.186423741281 85.18615320357961, 1300 246.21510334312916
               L 1300 347.6930233128369 C 888.186423741281 203.52651908803267, 417.65406439080834 300.07389995342703, -100 354.74033438041806 Z"
            fill="url(#g0)"/></g><g transform="rotate(-8.7 600 400)" opacity="0.65">
      <path d="M -100 443.1063853390515 C 469.8872720450163 478.79037699270833, 768.1570442207158 475.61235498652104, 1300 504.7183426655829
               L 1300 509.8842901051976 C 768.1570442207158 623.6456731681363, 469.8872720450163 626.8236951743236, -100 548.844469754491 Z"
            fill="url(#g1)"/></g><g transform="rotate(-3.4 600 400)" opacity="0.60">
      <path d="M -100 136.59047432243824 C 464.58132980391383 192.96499898847625, 894.6481731534004 180.27849386089773, 1300 200.15903253108263
               L 1300 202.7921344889328 C 894.6481731534004 311.98845085201145, 464.58132980391383 324.67495597959, -100 230.6690150303766 Z"
            fill="url(#g2)"/></g><g transform="rotate(-12.4 600 400)" opacity="0.92">
      <path d="M -100 516.156701054424 C 409.24571212381124 489.9384196962731, 815.6292003951967 640.324922189124, 1300 442.69990345463157
               L 1300 483.1149911521934 C 815.6292003951967 703.6220148188137, 409.24571212381124 553.2355123259629, -100 561.368910075631 Z"
            fill="url(#g3)"/></g><g transform="rotate(0.6 600 400)" opacity="0.58">
      <path d="M -100 236.81194242089987 C 243.25120227411392 149.56362484425568, 724.1216329112649 151.25517000629787, 1300 208.8279926776886
               L 1300 320.716137656942 C 724.1216329112649 193.3666636530239, 243.25120227411392 191.6751184909817, -100 266.8915807399899 Z"
            fill="url(#g4)"/></g><g transform="rotate(-10.1 600 400)" opacity="0.69">
      <path d="M -100 534.3057289160788 C 335.2987977862358 395.8707910645751, 728.0414476431905 428.03372282456223, 1300 520.1725124008954
               L 1300 656.3352104616351 C 728.0414476431905 507.1036810933201, 335.2987977862358 474.940749333333, -100 590.7842705366202 Z"
            fill="url(#g5)"/></g><g transform="rotate(0.6 600 400)" opacity="0.74">
      <path d="M -100 456.1734642088413 C 434.2851269803942 392.9742443064887, 907.6433540135622 487.52890914040665, 1300 521.3462508842349
               L 1300 530.7204596409574 C 907.6433540135622 577.1782735267193, 434.2851269803942 482.6236086928013, -100 520.2087244847789 Z"
            fill="url(#g6)"/></g><circle cx="328" cy="442" r="2.6" fill="#FFFFFF" fill-opacity="0.04"/><circle cx="67" cy="684" r="2.6" fill="#FFFFFF" fill-opacity="0.13"/><circle cx="892" cy="245" r="2.9" fill="#FFFFFF" fill-opacity="0.18"/><circle cx="842" cy="753" r="2.4" fill="#FFFFFF" fill-opacity="0.15"/><circle cx="791" cy="641" r="2.6" fill="#FFFFFF" fill-opacity="0.10"/><circle cx="1021" cy="716" r="1.7" fill="#FFFFFF" fill-opacity="0.25"/><circle cx="837" cy="544" r="2.2" fill="#FFFFFF" fill-opacity="0.26"/><circle cx="661" cy="612" r="1.8" fill="#FFFFFF" fill-opacity="0.20"/><circle cx="302" cy="636" r="1.3" fill="#FFFFFF" fill-opacity="0.13"/><circle cx="632" cy="566" r="1.3" fill="#FFFFFF" fill-opacity="0.04"/><circle cx="585" cy="669" r="1.8" fill="#FFFFFF" fill-opacity="0.08"/><circle cx="904" cy="425" r="1.0" fill="#FFFFFF" fill-opacity="0.31"/><circle cx="1139" cy="230" r="1.1" fill="#FFFFFF" fill-opacity="0.33"/><circle cx="728" cy="440" r="2.2" fill="#FFFFFF" fill-opacity="0.33"/><circle cx="882" cy="543" r="3.2" fill="#FFFFFF" fill-opacity="0.22"/><circle cx="675" cy="600" r="1.1" fill="#FFFFFF" fill-opacity="0.33"/><circle cx="282" cy="132" r="2.2" fill="#FFFFFF" fill-opacity="0.20"/><circle cx="560" cy="211" r="2.9" fill="#FFFFFF" fill-opacity="0.03"/><circle cx="513" cy="321" r="1.1" fill="#FFFFFF" fill-opacity="0.29"/><circle cx="439" cy="136" r="1.9" fill="#FFFFFF" fill-opacity="0.25"/><circle cx="892" cy="602" r="3.2" fill="#FFFFFF" fill-opacity="0.19"/><circle cx="1076" cy="469" r="2.5" fill="#FFFFFF" fill-opacity="0.30"/><circle cx="583" cy="634" r="3.4" fill="#FFFFFF" fill-opacity="0.01"/><circle cx="296" cy="74" r="2.7" fill="#FFFFFF" fill-opacity="0.15"/><circle cx="984" cy="107" r="3.1" fill="#FFFFFF" fill-opacity="0.26"/><circle cx="798" cy="367" r="2.8" fill="#FFFFFF" fill-opacity="0.20"/><circle cx="386" cy="444" r="1.3" fill="#FFFFFF" fill-opacity="0.08"/><circle cx="658" cy="547" r="1.8" fill="#FFFFFF" fill-opacity="0.13"/><circle cx="104" cy="365" r="2.1" fill="#FFFFFF" fill-opacity="0.16"/><circle cx="95" cy="280" r="1.4" fill="#FFFFFF" fill-opacity="0.24"/><circle cx="485" cy="491" r="1.9" fill="#FFFFFF" fill-opacity="0.14"/><circle cx="521" cy="229" r="2.4" fill="#FFFFFF" fill-opacity="0.24"/><circle cx="1198" cy="201" r="1.5" fill="#FFFFFF" fill-opacity="0.05"/><circle cx="660" cy="444" r="1.7" fill="#FFFFFF" fill-opacity="0.09"/><circle cx="984" cy="344" r="1.3" fill="#FFFFFF" fill-opacity="0.01"/><circle cx="544" cy="585" r="1.9" fill="#FFFFFF" fill-opacity="0.07"/><circle cx="495" cy="591" r="1.3" fill="#FFFFFF" fill-opacity="0.10"/><circle cx="184" cy="414" r="3.1" fill="#FFFFFF" fill-opacity="0.04"/><circle cx="1002" cy="250" r="1.6" fill="#FFFFFF" fill-opacity="0.35"/><circle cx="117" cy="522" r="2.9" fill="#FFFFFF" fill-opacity="0.10"/>
<rect width="1200" height="800" fill="url(#vig)"/>
</svg>