<svg xmlns="http://www.w3.org/2000/svg" width="1200" height="800" viewBox="0 0 1200 800">
<defs><linearGradient id="g0" x1="0" y1="0" x2="1" y2="1">
      <stop offset="0" stop-color="#0B5FFF"/><stop offset="1" stop-color="#3D7DF2"/></linearGradient><linearGradient id="g1" x1="0" y1="0" x2="1" y2="1">
      <stop offset="0" stop-color="#3D7DF2"/><stop offset="1" stop-color="#7FB0FF"/></linearGradient><linearGradient id="g2" x1="0" y1="0" x2="1" y2="1">
      <stop offset="0" stop-color="#7FB0FF"/><stop offset="1" stop-color="#0B5FFF"/></linearGradient><linearGradient id="g3" x1="0" y1="0" x2="1" y2="1">
      <stop offset="0" stop-color="#0B5FFF"/><stop offset="1" stop-color="#3D7DF2"/></linearGradient><linearGradient id="g4" x1="0" y1="0" x2="1" y2="1">
      <stop offset="0" stop-color="#3D7DF2"/><stop offset="1" stop-color="#7FB0FF"/></linearGradient><linearGradient id="g5" x1="0" y1="0" x2="1" y2="1">
      <stop offset="0" stop-color="#7FB0FF"/><stop offset="1" stop-color="#0B5FFF"/></linearGradient><linearGradient id="g6" x1="0" y1="0" x2="1" y2="1">
      <stop offset="0" stop-color="#0B5FFF"/><stop offset="1" stop-color="#3D7DF2"/></linearGradient>
<radialGradient id="vig" cx="0.5" cy="0.42" r="0.85">
  <stop offset="0" stop-color="#081733" stop-opacity="0"/><stop offset="1" stop-color="#081733" stop-opacity="0.55"/>
</radialGradient></defs>
<rect width="1200" height="800" fill="#081733"/>
<g transform="rotate(-12.4 600 400)" opacity="0.79">
      <path d="M -100 266.73903185874224 C 275.5112192966044 197.89397163149033, 728.9559939131141 179.50130168399238, 1300 255.67449010908604
               L 1300 306.70298163220286 C 728.9559939131141 303.4697905314567, 275.5112192966044 321.86246047895463, -100 355.2879524640739 Z"
            fill="url(#g0)"/></g><g transform="rotate(-2.9 600 400)" opacity="0.57">
      <path d="M -100 467.18934433534736 C 313.11282299458986 371.4334000370715, 898.3513830788434 432.5047951520005, 1300 519.6186214126647
               L 1300 512.5080492780544 C 898.3513830788434 551.6737860891552, 313.11282299458986 490.60239097422624, -100 552.3100521476008 Z"
            fill="url(#g1)"/></g><g transform="rotate(-0.2 600 400)" opacity="0.84">
      <path d="M -100 291.30555368959904 C 448.02675632759934 389.876362006701, 753.2325106859207 333.8798596220754, 1300 277.76099789887667
               L 1300 462.3746994314715 C 753.2325106859207 480.9160107579745, 448.02675632759934 536.9125131426001, -100 396.331375929527 Z"
            fill="url(#g2)"/></g><g transform="rotate(-5.1 600 400)" opacity="0.83">
      <path d="M -100 122.88032462820411 C 240.0015875324607 258.38580707731205, 779.1437826119363 73.86590315465577, 1300 56.88695063814521
               L 1300 126.2639796002768 C 779.1437826119363 166.9009181026252, 240.0015875324607 351.4208220252815, -100 189.33390673389658 Z"
            fill="url(#g3)"/></g><g transform="rotate(7.0 600 400)" opacity="0.66">
      <path d="M -100 425.5807551369071 C 274.174796808511 482.3765160992991, 780.3140002861619 320.90989009813, 1300 476.605369746685
               L 1300 458.39990753121674 C 780.3140002861619 444.69080068655836, 274.174796808511 606.1574266877275, -100 513.9956912714988 Z"
            fill="url(#g4)"/></g><g transform="rotate(-9.9 600 400)" opacity="0.90">
      <path d="M -100 210.44203931465742 C 362.15282678604126 207.95543767282766, 890.6623488105834 164.07866343432102, 1300 165.32691197469828
               L 1300 244.42491881223393 C 890.6623488105834 239.04523250698105, 362.15282678604126 282.9220067454877, -100 263.9895886522718 Z"
            fill="url(#g5)"/></g><g transform="rotate(9.8 600 400)" opacity="0.64">
      <path d="M -100 664.968853443861 C 258.40781008824706 692.6908989048094, 956.7434529215097 768.4548581189345, 1300 720.9627626463771
               L 1300 634.683542185463 C 956.7434529215097 810.7747511331792, 258.40781008824706 735.0107919190541, -100 695.1973484540358 Z"
            fill="url(#g6)"/></g><circle cx="708" cy="340" r="2.0" fill="#FFFFFF" fill-opacity="0.33"/><circle cx="950" cy="674" r="2.4" fill="#FFFFFF" fill-opacity="0.05"/><circle cx="820" cy="111" r="3.4" fill="#FFFFFF" fill-opacity="0.29"/><circle cx="1064" cy="611" r="3.1" fill="#FFFFFF" fill-opacity="0.09"/><circle cx="1118" cy="747" r="2.2" fill="#FFFFFF" fill-opacity="0.08"/><circle cx="558" cy="275" r="2.8" fill="#FFFFFF" fill-opacity="0.24"/><circle cx="506" cy="87" r="2.9" fill="#FFFFFF" fill-opacity="0.30"/><circle cx="844" cy="480" r="2.0" fill="#FFFFFF" fill-opacity="0.35"/><circle cx="132" cy="122" r="3.2" fill="#FFFFFF" fill-opacity="0.14"/><circle cx="651" cy="667" r="1.6" fill="#FFFFFF" fill-opacity="0.32"/><circle cx="903" cy="597" r="2.6" fill="#FFFFFF" fill-opacity="0.03"/><circle cx="170" cy="430" r="2.5" fill="#FFFFFF" fill-opacity="0.13"/><circle cx="464" cy="78" r="2.1" fill="#FFFFFF" fill-opacity="0.06"/><circle cx="1078" cy="503" r="2.9" fill="#FFFFFF" fill-opacity="0.33"/><circle cx="459" cy="450" r="2.7" fill="#FFFFFF" fill-opacity="0.08"/><circle cx="30" cy="791" r="1.1" fill="#FFFFFF" fill-opacity="0.10"/><circle cx="62" cy="481" r="1.2" fill="#FFFFFF" fill-opacity="0.10"/><circle cx="835" cy="252" r="3.1" fill="#FFFFFF" fill-opacity="0.20"/><circle cx="988" cy="31" r="3.5" fill="#FFFFFF" fill-opacity="0.21"/><circle cx="897" cy="233" r="3.2" fill="#FFFFFF" fill-opacity="0.09"/><circle cx="1176" cy="503" r="3.3" fill="#FFFFFF" fill-opacity="0.18"/><circle cx="1141" cy="49" r="1.6" fill="#FFFFFF" fill-opacity="0.06"/><circle cx="1146" cy="757" r="3.3" fill="#FFFFFF" fill-opacity="0.29"/><circle cx="1005" cy="19" r="3.1" fill="#FFFFFF" fill-opacity="0.05"/><circle cx="234" cy="466" r="1.9" fill="#FFFFFF" fill-opacity="0.12"/><circle cx="113" cy="746" r="2.8" fill="#FFFFFF" fill-opacity="0.16"/><circle cx="703" cy="522" r="1.5" fill="#FFFFFF" fill-opacity="0.27"/><circle cx="623" cy="251" r="2.0" fill="#FFFFFF" fill-opacity="0.07"/><circle cx="521" cy="498" r="1.2" fill="#FFFFFF" fill-opacity="0.31"/><circle cx="643" cy="159" r="1.9" fill="#FFFFFF" fill-opacity="0.10"/><circle cx="25" cy="351" r="2.9" fill="#FFFFFF" fill-opacity="0.07"/><circle cx="331" cy="126" r="2.7" fill="#FFFFFF" fill-opacity="0.21"/><circle cx="850" cy="783" r="1.4" fill="#FFFFFF" fill-opacity="0.21"/><circle cx="267" cy="525" r="2.2" fill="#FFFFFF" fill-opacity="0.17"/><circle cx="742" cy="646" r="1.2" fill="#FFFFFF" fill-opacity="0.25"/><circle cx="495" cy="580" r="2.6" fill="#FFFFFF" fill-opacity="0.17"/><circle cx="1038" cy="204" r="1.3" fill="#FFFFFF" fill-opacity="0.06"/><circle cx="248" cy="744" r="2.6" fill="#FFFFFF" fill-opacity="0.23"/><circle cx="426" cy="638" r="3.4" fill="#FFFFFF" fill-opacity="0.19"/><circle cx="741" cy="539" r="1.3" fill="#FFFFFF" fill-opacity="0.23"/>
<rect width="1200" height="800" fill="url(#vig)"/>
</svg>