<svg xmlns="http://www.w3.org/2000/svg" width="1200" height="800" viewBox="0 0 1200 800">
<defs><linearGradient id="g0" x1="0" y1="0" x2="1" y2="1">
      <stop offset="0" stop-color="#2E7CF6"/><stop offset="1" stop-color="#9AD7FF"/></linearGradient><linearGradient id="g1" x1="0" y1="0" x2="1" y2="1">
      <stop offset="0" stop-color="#9AD7FF"/><stop offset="1" stop-color="#EAF6FF"/></linearGradient><linearGradient id="g2" x1="0" y1="0" x2="1" y2="1">
      <stop offset="0" stop-color="#EAF6FF"/><stop offset="1" stop-color="#2E7CF6"/></linearGradient><linearGradient id="g3" x1="0" y1="0" x2="1" y2="1">
      <stop offset="0" stop-color="#2E7CF6"/><stop offset="1" stop-color="#9AD7FF"/></linearGradient><linearGradient id="g4" x1="0" y1="0" x2="1" y2="1">
      <stop offset="0" stop-color="#9AD7FF"/><stop offset="1" stop-color="#EAF6FF"/></linearGradient><linearGradient id="g5" x1="0" y1="0" x2="1" y2="1">
      <stop offset="0" stop-color="#EAF6FF"/><stop offset="1" stop-color="#2E7CF6"/></linearGradient><linearGradient id="g6" x1="0" y1="0" x2="1" y2="1">
      <stop offset="0" stop-color="#2E7CF6"/><stop offset="1" stop-color="#9AD7FF"/></linearGradient>
<radialGradient id="vig" cx="0.5" cy="0.42" r="0.85">
  <stop offset="0" stop-color="#0A2B55" stop-opacity="0"/><stop offset="1" stop-color="#0A2B55" stop-opacity="0.55"/>
</radialGradient></defs>
<rect width="1200" height="800" fill="#0A2B55"/>
<g transform="rotate(5.5 600 400)" opacity="0.63">
      <path d="M -100 257.18974005430937 C 364.61839528754354 155.50416163828004, 891.0723118856549 179.95245133812557, 1300 321.68780371546745
               L 1300 291.4803670104593 C 891.0723118856549 287.89827833387085, 364.61839528754354 263.4499886340253, -100 334.29390219412744 Z"
            fill="url(#g0)"/></g><g transform="rotate(-6.5 600 400)" opacity="0.57">
      <path d="M -100 393.41748157516116 C 301.98308810591703 450.3344451970244, 776.3858149386942 427.45164307210086, 1300 380.5943879671394
               L 1300 487.22338700341055 C 776.3858149386942 561.743734086989, 301.98308810591703 584.6265362119126, -100 489.3404037286527 Z"
            fill="url(#g1)"/></g><g transform="rotate(-4.4 600 400)" opacity="0.89">
      <path d="M -100 576.7720219492912 C 342.5016792677343 704.3525695820224, 904.3394389003515 357.94400682208436, 1300 591.1664026603103
               L 1300 671.226753023453 C 904.3394389003515 484.1271918561433, 342.5016792677343 830.5357546160814, -100 666.9028684021905 Z"
            fill="url(#g2)"/></g><g transform="rotate(-11.1 600 400)" opacity="0.77">
      <path d="M -100 301.3702894560993 C 314.58024490624666 269.009762325964, 738.8088837079704 401.2451451499212, 1300 295.9013303928077
               L 1300 422.42369783250615 C 738.8088837079704 544.5594464731599, 314.58024490624666 412.32406364920274, -100 403.73764754412696 Z"
            fill="url(#g3)"/></g><g transform="rotate(11.3 600 400)" opacity="0.57">
      <path d="M -100 664.694990105927 C 359.2146817781031 626.7324159759356, 754.8430105671287 679.1720474230774, 1300 652.9931566864252
               L 1300 674.5302746854722 C 754.8430105671287 744.0438546011873, 359.2146817781031 691.6042231540455, -100 711.0319952331483 Z"
            fill="url(#g4)"/></g><g transform="rotate(-9.4 600 400)" opacity="0.56">
      <path d="M -100 159.81689291074872 C 256.00140653550625 349.06022588344405, 797.8698270209134 242.40101655623076, 1300 229.5015108026564
               L 1300 214.1716167763807 C 797.8698270209134 337.58326533962173, 256.00140653550625 444.242474666835, -100 227.8042134703137 Z"
            fill="url(#g5)"/></g><g transform="rotate(2.7 600 400)" opacity="0.78">
      <path d="M -100 679.1561738401651 C 374.7451886348427 632.6076443660154, 791.7687249183655 663.0862390074916, 1300 749.9081699922681
               L 1300 730.5820191828534 C 791.7687249183655 701.2500857485495, 374.7451886348427 670.7714911070733, -100 706.4160643694922 Z"
            fill="url(#g6)"/></g><circle cx="1153" cy="61" r="3.4" fill="#FFFFFF" fill-opacity="0.14"/><circle cx="379" cy="245" r="3.2" fill="#FFFFFF" fill-opacity="0.35"/><circle cx="324" cy="542" r="2.4" fill="#FFFFFF" fill-opacity="0.04"/><circle cx="174" cy="423" r="3.3" fill="#FFFFFF" fill-opacity="0.01"/><circle cx="1118" cy="437" r="3.1" fill="#FFFFFF" fill-opacity="0.18"/><circle cx="785" cy="61" r="3.3" fill="#FFFFFF" fill-opacity="0.04"/><circle cx="794" cy="30" r="2.2" fill="#FFFFFF" fill-opacity="0.26"/><circle cx="746" cy="317" r="2.5" fill="#FFFFFF" fill-opacity="0.06"/><circle cx="262" cy="308" r="1.1" fill="#FFFFFF" fill-opacity="0.18"/><circle cx="1003" cy="745" r="2.5" fill="#FFFFFF" fill-opacity="0.22"/><circle cx="876" cy="0" r="3.1" fill="#FFFFFF" fill-opacity="0.15"/><circle cx="551" cy="644" r="2.0" fill="#FFFFFF" fill-opacity="0.16"/><circle cx="710" cy="59" r="3.1" fill="#FFFFFF" fill-opacity="0.27"/><circle cx="1139" cy="677" r="2.4" fill="#FFFFFF" fill-opacity="0.23"/><circle cx="1097" cy="391" r="2.0" fill="#FFFFFF" fill-opacity="0.15"/><circle cx="657" cy="717" r="2.9" fill="#FFFFFF" fill-opacity="0.26"/><circle cx="659" cy="43" r="2.0" fill="#FFFFFF" fill-opacity="0.17"/><circle cx="390" cy="365" r="1.8" fill="#FFFFFF" fill-opacity="0.03"/><circle cx="795" cy="32" r="1.8" fill="#FFFFFF" fill-opacity="0.24"/><circle cx="958" cy="501" r="1.6" fill="#FFFFFF" fill-opacity="0.32"/><circle cx="1056" cy="29" r="1.1" fill="#FFFFFF" fill-opacity="0.22"/><circle cx="118" cy="296" r="2.8" fill="#FFFFFF" fill-opacity="0.11"/><circle cx="1192" cy="93" r="1.9" fill="#FFFFFF" fill-opacity="0.30"/><circle cx="855" cy="66" r="2.5" fill="#FFFFFF" fill-opacity="0.30"/><circle cx="271" cy="252" r="1.0" fill="#FFFFFF" fill-opacity="0.25"/><circle cx="931" cy="385" r="2.9" fill="#FFFFFF" fill-opacity="0.05"/><circle cx="74" cy="337" r="3.4" fill="#FFFFFF" fill-opacity="0.35"/><circle cx="1127" cy="638" r="3.1" fill="#FFFFFF" fill-opacity="0.07"/><circle cx="769" cy="63" r="3.0" fill="#FFFFFF" fill-opacity="0.18"/><circle cx="948" cy="229" r="2.8" fill="#FFFFFF" fill-opacity="0.18"/><circle cx="858" cy="166" r="1.3" fill="#FFFFFF" fill-opacity="0.13"/><circle cx="1008" cy="43" r="1.8" fill="#FFFFFF" fill-opacity="0.05"/><circle cx="193" cy="581" r="1.1" fill="#FFFFFF" fill-opacity="0.02"/><circle cx="86" cy="150" r="1.5" fill="#FFFFFF" fill-opacity="0.12"/><circle cx="76" cy="477" r="2.7" fill="#FFFFFF" fill-opacity="0.14"/><circle cx="62" cy="164" r="2.7" fill="#FFFFFF" fill-opacity="0.10"/><circle cx="429" cy="141" r="2.8" fill="#FFFFFF" fill-opacity="0.10"/><circle cx="724" cy="651" r="1.7" fill="#FFFFFF" fill-opacity="0.13"/><circle cx="42" cy="706" r="1.4" fill="#FFFFFF" fill-opacity="0.10"/><circle cx="55" cy="786" r="1.2" fill="#FFFFFF" fill-opacity="0.16"/>
<rect width="1200" height="800" fill="url(#vig)"/>
</svg>