<svg xmlns="http://www.w3.org/2000/svg" width="1920" height="1080" viewBox="0 0 1920 1080">
<defs><linearGradient id="g0" x1="0" y1="0" x2="1" y2="1">
      <stop offset="0" stop-color="#0B5FFF"/><stop offset="1" stop-color="#7FB0FF"/></linearGradient><linearGradient id="g1" x1="0" y1="0" x2="1" y2="1">
      <stop offset="0" stop-color="#7FB0FF"/><stop offset="1" stop-color="#B7E3FF"/></linearGradient><linearGradient id="g2" x1="0" y1="0" x2="1" y2="1">
      <stop offset="0" stop-color="#B7E3FF"/><stop offset="1" stop-color="#0B5FFF"/></linearGradient><linearGradient id="g3" x1="0" y1="0" x2="1" y2="1">
      <stop offset="0" stop-color="#0B5FFF"/><stop offset="1" stop-color="#7FB0FF"/></linearGradient><linearGradient id="g4" x1="0" y1="0" x2="1" y2="1">
      <stop offset="0" stop-color="#7FB0FF"/><stop offset="1" stop-color="#B7E3FF"/></linearGradient><linearGradient id="g5" x1="0" y1="0" x2="1" y2="1">
      <stop offset="0" stop-color="#B7E3FF"/><stop offset="1" stop-color="#0B5FFF"/></linearGradient><linearGradient id="g6" x1="0" y1="0" x2="1" y2="1">
      <stop offset="0" stop-color="#0B5FFF"/><stop offset="1" stop-color="#7FB0FF"/></linearGradient>
<radialGradient id="vig" cx="0.5" cy="0.42" r="0.85">
  <stop offset="0" stop-color="#0A1F44" stop-opacity="0"/><stop offset="1" stop-color="#0A1F44" stop-opacity="0.55"/>
</radialGradient></defs>
<rect width="1920" height="1080" fill="#0A1F44"/>
<g transform="rotate(5.7 960 540)" opacity="0.59">
      <path d="M -100 343.6902734544128 C 412.8180183470249 244.90255444312544, 1426.6391832232475 225.45443646791523, 2020 297.88722950033844
               L 2020 447.3427214603871 C 1426.6391832232475 306.12135568591896, 412.8180183470249 325.56947366112917, -100 401.30950146727264 Z"
            fill="url(#g0)"/></g><g transform="rotate(4.4 960 540)" opacity="0.71">
      <path d="M -100 366.4975961102172 C 583.0436021089554 400.54751153095845, 1398.450510531664 359.81194005378137, 2020 306.78749231528485
               L 2020 461.70910167088726 C 1398.450510531664 440.95578563532405, 583.0436021089554 481.6913571125011, -100 424.45748581131915 Z"
            fill="url(#g1)"/></g><g transform="rotate(11.0 960 540)" opacity="0.87">
      <path d="M -100 746.2912474907934 C 432.13719865679747 833.4305148325575, 1373.2443072795868 719.4636899240819, 2020 782.8507927022873
               L 2020 874.3965927464886 C 1373.2443072795868 794.1415205667299, 432.13719865679747 908.1083454752055, -100 799.6325550926848 Z"
            fill="url(#g2)"/></g><g transform="rotate(-5.6 960 540)" opacity="0.90">
      <path d="M -100 197.6575596341863 C 396.23544234037405 83.4456661726981, 1234.31171259284 94.91282170417095, 2020 237.78616827819494
               L 2020 363.5299916663207 C 1234.31171259284 229.03056476611954, 396.23544234037405 217.56340923464666, -100 293.45594753557816 Z"
            fill="url(#g3)"/></g><g transform="rotate(3.1 960 540)" opacity="0.73">
      <path d="M -100 710.4666595179588 C 611.8518042862415 731.3093264389962, 1371.1796577572823 651.6938303192549, 2020 638.0212493631989
               L 2020 819.4881619662046 C 1371.1796577572823 746.3177002036415, 611.8518042862415 825.9331963233828, -100 778.0551380068064 Z"
            fill="url(#g4)"/></g><g transform="rotate(-9.3 960 540)" opacity="0.62">
      <path d="M -100 265.84081970807165 C 537.8270852565765 308.48309230696213, 1375.7368046343327 361.5961669376392, 2020 192.28900448139757
               L 2020 356.66059203771874 C 1375.7368046343327 485.2008738239568, 537.8270852565765 432.0877991932797, -100 354.12989605544135 Z"
            fill="url(#g5)"/></g><g transform="rotate(3.1 960 540)" opacity="0.70">
      <path d="M -100 372.26616628468037 C 580.5395215451719 359.5080698432537, 1229.7500785589218 279.83332831392454, 2020 316.1340043321252
               L 2020 395.06778160948306 C 1229.7500785589218 408.5000715259315, 580.5395215451719 488.17481305526064, -100 464.17098286468536 Z"
            fill="url(#g6)"/></g><circle cx="1340" cy="1060" r="1.1" fill="#FFFFFF" fill-opacity="0.09"/><circle cx="707" cy="861" r="1.9" fill="#FFFFFF" fill-opacity="0.11"/><circle cx="1873" cy="595" r="2.8" fill="#FFFFFF" fill-opacity="0.30"/><circle cx="65" cy="698" r="2.0" fill="#FFFFFF" fill-opacity="0.06"/><circle cx="742" cy="967" r="2.2" fill="#FFFFFF" fill-opacity="0.34"/><circle cx="1181" cy="985" r="1.6" fill="#FFFFFF" fill-opacity="0.21"/><circle cx="874" cy="117" r="2.7" fill="#FFFFFF" fill-opacity="0.11"/><circle cx="453" cy="565" r="2.7" fill="#FFFFFF" fill-opacity="0.17"/><circle cx="1174" cy="975" r="2.6" fill="#FFFFFF" fill-opacity="0.19"/><circle cx="188" cy="837" r="2.8" fill="#FFFFFF" fill-opacity="0.26"/><circle cx="344" cy="468" r="1.9" fill="#FFFFFF" fill-opacity="0.02"/><circle cx="1" cy="65" r="1.2" fill="#FFFFFF" fill-opacity="0.20"/><circle cx="1766" cy="466" r="2.0" fill="#FFFFFF" fill-opacity="0.32"/><circle cx="803" cy="977" r="2.9" fill="#FFFFFF" fill-opacity="0.14"/><circle cx="289" cy="703" r="2.2" fill="#FFFFFF" fill-opacity="0.13"/><circle cx="277" cy="351" r="2.3" fill="#FFFFFF" fill-opacity="0.18"/><circle cx="791" cy="683" r="2.5" fill="#FFFFFF" fill-opacity="0.09"/><circle cx="953" cy="533" r="2.6" fill="#FFFFFF" fill-opacity="0.24"/><circle cx="1362" cy="829" r="2.9" fill="#FFFFFF" fill-opacity="0.09"/><circle cx="162" cy="774" r="2.6" fill="#FFFFFF" fill-opacity="0.19"/><circle cx="591" cy="749" r="1.2" fill="#FFFFFF" fill-opacity="0.30"/><circle cx="267" cy="784" r="3.4" fill="#FFFFFF" fill-opacity="0.28"/><circle cx="183" cy="1059" r="3.1" fill="#FFFFFF" fill-opacity="0.08"/><circle cx="778" cy="303" r="3.5" fill="#FFFFFF" fill-opacity="0.05"/><circle cx="973" cy="163" r="2.6" fill="#FFFFFF" fill-opacity="0.31"/><circle cx="1147" cy="93" r="3.0" fill="#FFFFFF" fill-opacity="0.02"/><circle cx="18" cy="1073" r="2.3" fill="#FFFFFF" fill-opacity="0.05"/><circle cx="801" cy="21" r="1.4" fill="#FFFFFF" fill-opacity="0.19"/><circle cx="292" cy="220" r="1.7" fill="#FFFFFF" fill-opacity="0.12"/><circle cx="254" cy="727" r="2.6" fill="#FFFFFF" fill-opacity="0.17"/><circle cx="340" cy="353" r="2.7" fill="#FFFFFF" fill-opacity="0.34"/><circle cx="1385" cy="224" r="2.6" fill="#FFFFFF" fill-opacity="0.29"/><circle cx="371" cy="24" r="1.1" fill="#FFFFFF" fill-opacity="0.23"/><circle cx="1106" cy="555" r="2.5" fill="#FFFFFF" fill-opacity="0.27"/><circle cx="1751" cy="681" r="2.0" fill="#FFFFFF" fill-opacity="0.24"/><circle cx="1481" cy="755" r="1.3" fill="#FFFFFF" fill-opacity="0.18"/><circle cx="1818" cy="68" r="1.6" fill="#FFFFFF" fill-opacity="0.24"/><circle cx="1716" cy="942" r="1.9" fill="#FFFFFF" fill-opacity="0.01"/><circle cx="1296" cy="1076" r="3.4" fill="#FFFFFF" fill-opacity="0.33"/><circle cx="836" cy="269" r="1.8" fill="#FFFFFF" fill-opacity="0.17"/>
<rect width="1920" height="1080" fill="url(#vig)"/>
</svg>